%TF.GenerationSoftware,KiCad,Pcbnew,6.0.2*%
%TF.CreationDate,2022-05-05T15:52:23+02:00*%
%TF.ProjectId,espriktning-rear.sch,65737072-696b-4746-9e69-6e672d726561,rev?*%
%TF.SameCoordinates,Original*%
%TF.FileFunction,Legend,Top*%
%TF.FilePolarity,Positive*%
%FSLAX46Y46*%
G04 Gerber Fmt 4.6, Leading zero omitted, Abs format (unit mm)*
G04 Created by KiCad (PCBNEW 6.0.2) date 2022-05-05 15:52:23*
%MOMM*%
%LPD*%
G01*
G04 APERTURE LIST*
%ADD10C,0.045155*%
%ADD11C,0.120000*%
%ADD12C,0.100000*%
%ADD13C,0.150000*%
G04 APERTURE END LIST*
D10*
X39077889Y-30976250D02*
X39082922Y-30977953D01*
X38570702Y-30631891D02*
X38577758Y-30627368D01*
X38421562Y-31035774D02*
X38435849Y-31056413D01*
X38667933Y-30602191D02*
X38667933Y-30602191D01*
X38133570Y-31425056D02*
X38145937Y-31364655D01*
X38969071Y-31156316D02*
X38965484Y-31152553D01*
X38499453Y-31130985D02*
X38516947Y-31147686D01*
X38790901Y-30653126D02*
X38796659Y-30659166D01*
X38422695Y-31433409D02*
X38403462Y-31414155D01*
X38127121Y-31481294D02*
X38133570Y-31425056D01*
X38650152Y-30949100D02*
X38641449Y-30947994D01*
X38563884Y-30636740D02*
X38570702Y-30631891D01*
X38943914Y-31116961D02*
X38942211Y-31111928D01*
X38497562Y-30741047D02*
X38499504Y-30732633D01*
X39013459Y-31183175D02*
X39008425Y-31181472D01*
X39153448Y-31068636D02*
X39153866Y-31074138D01*
X38499504Y-30819556D02*
X38497562Y-30811142D01*
X38676882Y-30602418D02*
X38685713Y-30603089D01*
X38958863Y-31144530D02*
X38955842Y-31140283D01*
X38937341Y-31079713D02*
X38937341Y-31079713D01*
X38807288Y-30672045D02*
X38812136Y-30678864D01*
X38173890Y-31696803D02*
X38154930Y-31662769D01*
X38494927Y-30758314D02*
X38496033Y-30749611D01*
X38608139Y-30939445D02*
X38600242Y-30936332D01*
X38403462Y-31414155D02*
X38386188Y-31391977D01*
X38634962Y-31232409D02*
X38656766Y-31244050D01*
X39022867Y-31340568D02*
X39022867Y-31340568D01*
X38910257Y-30491007D02*
X38910257Y-30491007D01*
X38608139Y-30612744D02*
X38616219Y-30610010D01*
X38496033Y-30802578D02*
X38494927Y-30793875D01*
X39003506Y-30979893D02*
X39008425Y-30977953D01*
X38585040Y-30623180D02*
X38592538Y-30619340D01*
X38557314Y-30910287D02*
X38551004Y-30904821D01*
X38676882Y-30949772D02*
X38667933Y-30949998D01*
X38154930Y-31662769D02*
X38140495Y-31624108D01*
X38828170Y-30708404D02*
X38831284Y-30716301D01*
X38528578Y-30880144D02*
X38523729Y-30873326D01*
X38544964Y-30653126D02*
X38551004Y-30647368D01*
X39012889Y-31346269D02*
X38941962Y-31388092D01*
X38743327Y-30619340D02*
X38750825Y-30623180D01*
X38852370Y-31313615D02*
X38906994Y-31324858D01*
X39013459Y-30976250D02*
X39018600Y-30974790D01*
X39135505Y-31140283D02*
X39132485Y-31144530D01*
X38836361Y-30732633D02*
X38838303Y-30741047D01*
X39149137Y-31111928D02*
X39147433Y-31116961D01*
X38802125Y-30665476D02*
X38807288Y-30672045D01*
X38758215Y-31635336D02*
X38705194Y-31675850D01*
X38945854Y-31121881D02*
X38943914Y-31116961D01*
X38994036Y-30984455D02*
X38998707Y-30982062D01*
X38409862Y-31797667D02*
X38367040Y-31798628D01*
X39092641Y-30982062D02*
X39097312Y-30984455D01*
X38632885Y-30946465D02*
X38624472Y-30944523D01*
X38260165Y-31083296D02*
X38306306Y-31003481D01*
X39045674Y-31188046D02*
X39045674Y-31188046D01*
X38941962Y-31388092D02*
X38870888Y-31423777D01*
X38331830Y-31099991D02*
X38337178Y-31048014D01*
X38698383Y-31482083D02*
X38665657Y-31487828D01*
X39040099Y-30971520D02*
X39045674Y-30971380D01*
X38224266Y-31750617D02*
X38197095Y-31726117D01*
X38989499Y-31172362D02*
X38985104Y-31169544D01*
X39138323Y-31023538D02*
X39140932Y-31028075D01*
X39122277Y-31156316D02*
X39118515Y-31159903D01*
X38338901Y-31272471D02*
X38333086Y-31234510D01*
X38650152Y-30603089D02*
X38658984Y-30602418D01*
X39256638Y-30928616D02*
X39238108Y-31088265D01*
X38989499Y-30987063D02*
X38994036Y-30984455D01*
X39087842Y-31179532D02*
X39082922Y-31181472D01*
X38940751Y-31106787D02*
X38939542Y-31101546D01*
X38980856Y-30992901D02*
X38985104Y-30989881D01*
X38824687Y-30851489D02*
X38820847Y-30858987D01*
X39056750Y-31187487D02*
X39051249Y-31187905D01*
X38955842Y-31019143D02*
X38958863Y-31014895D01*
X39125864Y-31152553D02*
X39122277Y-31156316D01*
X38550971Y-31762185D02*
X38502106Y-31779539D01*
X38164502Y-31300186D02*
X38189542Y-31231741D01*
X38515019Y-30693202D02*
X38519206Y-30685919D01*
X39106244Y-30989881D02*
X39110491Y-30992901D01*
X39143324Y-31126680D02*
X39140932Y-31131351D01*
X39114584Y-31163308D02*
X39110491Y-31166524D01*
X38937900Y-31068636D02*
X38938589Y-31063215D01*
X39023841Y-31185845D02*
X39018600Y-31184635D01*
X38435849Y-31056413D02*
X38450785Y-31076243D01*
X39029176Y-31186798D02*
X39023841Y-31185845D01*
X38771982Y-30915449D02*
X38765164Y-30920298D01*
X38511178Y-30851489D02*
X38507696Y-30843786D01*
X38347230Y-31307120D02*
X38338901Y-31272471D01*
X39077889Y-31183175D02*
X39072748Y-31184635D01*
X38812136Y-30678864D02*
X38816659Y-30685919D01*
X38585040Y-30929009D02*
X38577758Y-30924821D01*
X38841610Y-30785044D02*
X38840938Y-30793875D01*
X38386188Y-31391977D02*
X38370984Y-31366796D01*
X39110491Y-31166524D02*
X39106244Y-31169544D01*
X38831284Y-30716301D02*
X38834018Y-30724381D01*
X39092641Y-31177363D02*
X39087842Y-31179532D01*
X38727727Y-30939445D02*
X38719646Y-30942179D01*
X39101848Y-30987063D02*
X39106244Y-30989881D01*
X38819029Y-31312059D02*
X38608064Y-31733989D01*
X38577758Y-30924821D02*
X38570702Y-30920298D01*
X38834018Y-30724381D02*
X38836361Y-30732633D01*
X39023841Y-30973580D02*
X39029176Y-30972628D01*
X39067507Y-30973580D02*
X39072748Y-30974790D01*
X38655104Y-30488156D02*
X38910257Y-30491007D01*
X38942211Y-31111928D02*
X38940751Y-31106787D01*
X38980856Y-31166524D02*
X38976764Y-31163308D01*
X38326791Y-31794310D02*
X38289393Y-31784807D01*
X38950416Y-31131351D02*
X38948023Y-31126680D01*
X38963838Y-31333813D02*
X39022867Y-31340568D01*
X38725749Y-31274938D02*
X38749920Y-31283925D01*
X38758108Y-30924821D02*
X38750825Y-30929009D01*
X39153448Y-31090789D02*
X39152759Y-31096211D01*
X38641449Y-30947994D02*
X38632885Y-30946465D01*
X38802125Y-30886713D02*
X38796659Y-30893023D01*
X38750825Y-30929009D02*
X38743327Y-30932849D01*
X38370984Y-31366796D02*
X38357961Y-31338536D01*
X38834018Y-30827808D02*
X38831284Y-30835888D01*
X38836361Y-30819556D02*
X38834018Y-30827808D01*
X39154007Y-31079713D02*
X39153866Y-31085287D01*
X38945854Y-31037544D02*
X38948023Y-31032746D01*
X38507696Y-30708404D02*
X38511178Y-30700700D01*
X38796659Y-30893023D02*
X38790901Y-30899063D01*
X38937341Y-31079713D02*
X38937482Y-31074138D01*
X39056750Y-30971939D02*
X39062172Y-30972628D01*
X38735624Y-30615857D02*
X38743327Y-30619340D01*
X38517000Y-31482723D02*
X38491040Y-31474395D01*
X39143324Y-31032746D02*
X39145494Y-31037544D01*
X38221337Y-31159413D02*
X38260165Y-31083296D01*
X38743327Y-30932849D02*
X38735624Y-30936332D01*
X38652794Y-31710434D02*
X38601294Y-31739181D01*
X38731849Y-31474263D02*
X38698383Y-31482083D01*
X38998707Y-30982062D02*
X39003506Y-30979893D01*
X38976764Y-30996118D02*
X38980856Y-30992901D01*
X38658984Y-30602418D02*
X38667933Y-30602191D01*
X38633782Y-31491420D02*
X38602867Y-31492783D01*
X39129269Y-31148623D02*
X39125864Y-31152553D01*
X38937482Y-31085287D02*
X38937341Y-31079713D01*
X39118515Y-31159903D02*
X39114584Y-31163308D01*
X39045674Y-30971380D02*
X39045674Y-30971380D01*
X38800555Y-31452707D02*
X38765943Y-31464445D01*
X38950416Y-31028075D02*
X38953024Y-31023538D01*
X39097312Y-30984455D02*
X39101848Y-30987063D01*
X39132485Y-31144530D02*
X39129269Y-31148623D01*
X38702980Y-30946465D02*
X38694416Y-30947994D01*
X38955842Y-31140283D02*
X38953024Y-31135887D01*
X38357961Y-31338536D02*
X38347230Y-31307120D01*
X38749920Y-31283925D02*
X38800000Y-31300000D01*
X38466367Y-31095274D02*
X38482591Y-31113518D01*
X38667933Y-30949998D02*
X38658984Y-30949772D01*
X38551004Y-30904821D02*
X38544964Y-30899063D01*
X38758108Y-30627368D02*
X38765164Y-30631891D01*
X39101848Y-31172362D02*
X39097312Y-31174971D01*
X38840938Y-30793875D02*
X38839832Y-30802578D01*
X39034597Y-31187487D02*
X39029176Y-31186798D01*
X38255126Y-31770212D02*
X38224266Y-31750617D01*
X38938589Y-31063215D02*
X38939542Y-31057880D01*
X39153866Y-31074138D02*
X39154007Y-31079713D01*
X38985104Y-30989881D02*
X38989499Y-30987063D01*
X38711394Y-30944523D02*
X38702980Y-30946465D01*
X38679168Y-31255011D02*
X38702163Y-31265304D01*
X38962079Y-31010803D02*
X38965484Y-31006872D01*
X39051249Y-31187905D02*
X39045674Y-31188046D01*
X39018600Y-30974790D02*
X39023841Y-30973580D01*
X38702163Y-31265304D02*
X38725749Y-31274938D01*
X38906994Y-31324858D02*
X38963838Y-31333813D01*
X38360038Y-30920064D02*
X38360038Y-30920064D01*
X38958863Y-31014895D02*
X38962079Y-31010803D01*
X39051249Y-30971520D02*
X39056750Y-30971939D01*
X38632885Y-30605724D02*
X38641449Y-30604195D01*
X38557314Y-30641902D02*
X38563884Y-30636740D01*
X38840938Y-30758314D02*
X38841610Y-30767146D01*
X38515019Y-30858987D02*
X38511178Y-30851489D01*
X39045674Y-30971380D02*
X39051249Y-30971520D01*
X38494927Y-30793875D02*
X38494256Y-30785044D01*
X38553817Y-31178833D02*
X38573184Y-31193300D01*
X38439863Y-31069735D02*
X38151924Y-31634208D01*
X38450785Y-31076243D02*
X38466367Y-31095274D01*
X38494256Y-30767146D02*
X38494927Y-30758314D01*
X38841836Y-30776095D02*
X38841836Y-30776095D01*
X38523729Y-30873326D02*
X38519206Y-30866270D01*
X38502106Y-31779539D02*
X38454976Y-31791335D01*
X38727727Y-30612744D02*
X38735624Y-30615857D01*
X38969071Y-31003110D02*
X38972833Y-30999522D01*
X39067507Y-31185845D02*
X39062172Y-31186798D01*
X38140495Y-31624108D02*
X38130862Y-31580914D01*
X38765943Y-31464445D02*
X38731849Y-31474263D01*
X38939542Y-31101546D02*
X38938589Y-31096211D01*
X38494029Y-30776095D02*
X38494029Y-30776095D01*
X38778551Y-30641902D02*
X38784861Y-30647368D01*
X39150596Y-31052638D02*
X39151806Y-31057880D01*
X38511178Y-30700700D02*
X38515019Y-30693202D01*
X39008425Y-30977953D02*
X39013459Y-30976250D01*
X38918211Y-31477287D02*
X38865002Y-31536148D01*
X38504582Y-30716301D02*
X38507696Y-30708404D01*
X38454976Y-31791335D02*
X38409862Y-31797667D01*
X38811577Y-31588800D02*
X38758215Y-31635336D01*
X38994036Y-31174971D02*
X38989499Y-31172362D01*
X38624472Y-30944523D02*
X38616219Y-30942179D01*
X39062172Y-30972628D02*
X39067507Y-30973580D01*
X39029176Y-30972628D02*
X39034597Y-30971939D01*
X38360038Y-30920064D02*
X38371008Y-30944911D01*
X38765164Y-30920298D02*
X38758108Y-30924821D01*
X39256638Y-30928616D02*
X39256638Y-30928616D01*
X38533740Y-30886713D02*
X38528578Y-30880144D01*
X38685713Y-30603089D02*
X38694416Y-30604195D01*
X39153866Y-31085287D02*
X39153448Y-31090789D01*
X39118515Y-30999522D02*
X39122277Y-31003110D01*
X38394959Y-30992026D02*
X38407931Y-31014315D01*
X38831284Y-30835888D02*
X38828170Y-30843786D01*
X38494029Y-30776095D02*
X38494256Y-30767146D01*
X39135505Y-31019143D02*
X39138323Y-31023538D01*
X38443776Y-31449816D02*
X38422695Y-31433409D01*
X38602363Y-31226533D02*
X38314424Y-31791006D01*
X38482591Y-31113518D02*
X38499453Y-31130985D01*
X39145494Y-31037544D02*
X39147433Y-31042464D01*
X38528578Y-30672045D02*
X38533740Y-30665476D01*
X38600242Y-30615857D02*
X38608139Y-30612744D01*
X39154007Y-31079713D02*
X39154007Y-31079713D01*
X38577758Y-30627368D02*
X38585040Y-30623180D01*
X38694416Y-30604195D02*
X38702980Y-30605724D01*
X38289393Y-31784807D02*
X38255126Y-31770212D01*
X38656766Y-31244050D02*
X38679168Y-31255011D01*
X38965484Y-31006872D02*
X38969071Y-31003110D01*
X38838303Y-30741047D02*
X38839832Y-30749611D01*
X39150596Y-31106787D02*
X39149137Y-31111928D01*
X38962079Y-31148623D02*
X38958863Y-31144530D01*
X38736354Y-30687717D02*
X38736250Y-30691825D01*
X38736250Y-30691825D02*
X38735942Y-30695879D01*
X38735942Y-30695879D02*
X38735434Y-30699874D01*
X38735434Y-30699874D02*
X38734732Y-30703805D01*
X38734732Y-30703805D02*
X38733841Y-30707667D01*
X38733841Y-30707667D02*
X38732765Y-30711455D01*
X38732765Y-30711455D02*
X38731510Y-30715164D01*
X38731510Y-30715164D02*
X38730081Y-30718789D01*
X38730081Y-30718789D02*
X38728482Y-30722325D01*
X38728482Y-30722325D02*
X38726719Y-30725767D01*
X38726719Y-30725767D02*
X38724797Y-30729109D01*
X38724797Y-30729109D02*
X38722721Y-30732348D01*
X38722721Y-30732348D02*
X38720495Y-30735478D01*
X38720495Y-30735478D02*
X38718126Y-30738493D01*
X38718126Y-30738493D02*
X38715617Y-30741390D01*
X38715617Y-30741390D02*
X38712974Y-30744162D01*
X38712974Y-30744162D02*
X38710201Y-30746805D01*
X38710201Y-30746805D02*
X38707305Y-30749314D01*
X38707305Y-30749314D02*
X38704290Y-30751684D01*
X38704290Y-30751684D02*
X38701160Y-30753909D01*
X38701160Y-30753909D02*
X38697921Y-30755985D01*
X38697921Y-30755985D02*
X38694578Y-30757908D01*
X38694578Y-30757908D02*
X38691136Y-30759670D01*
X38691136Y-30759670D02*
X38687601Y-30761269D01*
X38687601Y-30761269D02*
X38683976Y-30762698D01*
X38683976Y-30762698D02*
X38680267Y-30763953D01*
X38680267Y-30763953D02*
X38676479Y-30765029D01*
X38676479Y-30765029D02*
X38672617Y-30765920D01*
X38672617Y-30765920D02*
X38668686Y-30766622D01*
X38668686Y-30766622D02*
X38664691Y-30767130D01*
X38664691Y-30767130D02*
X38660637Y-30767438D01*
X38660637Y-30767438D02*
X38656529Y-30767542D01*
X38656529Y-30767542D02*
X38652422Y-30767438D01*
X38652422Y-30767438D02*
X38648368Y-30767130D01*
X38648368Y-30767130D02*
X38644373Y-30766622D01*
X38644373Y-30766622D02*
X38640442Y-30765920D01*
X38640442Y-30765920D02*
X38636580Y-30765029D01*
X38636580Y-30765029D02*
X38632792Y-30763953D01*
X38632792Y-30763953D02*
X38629083Y-30762698D01*
X38629083Y-30762698D02*
X38625458Y-30761269D01*
X38625458Y-30761269D02*
X38621922Y-30759670D01*
X38621922Y-30759670D02*
X38618480Y-30757908D01*
X38618480Y-30757908D02*
X38615137Y-30755985D01*
X38615137Y-30755985D02*
X38611899Y-30753909D01*
X38611899Y-30753909D02*
X38608769Y-30751684D01*
X38608769Y-30751684D02*
X38605754Y-30749314D01*
X38605754Y-30749314D02*
X38602857Y-30746805D01*
X38602857Y-30746805D02*
X38600085Y-30744162D01*
X38600085Y-30744162D02*
X38597442Y-30741390D01*
X38597442Y-30741390D02*
X38594933Y-30738493D01*
X38594933Y-30738493D02*
X38592563Y-30735478D01*
X38592563Y-30735478D02*
X38590338Y-30732348D01*
X38590338Y-30732348D02*
X38588261Y-30729109D01*
X38588261Y-30729109D02*
X38586339Y-30725767D01*
X38586339Y-30725767D02*
X38584576Y-30722325D01*
X38584576Y-30722325D02*
X38582978Y-30718789D01*
X38582978Y-30718789D02*
X38581549Y-30715164D01*
X38581549Y-30715164D02*
X38580294Y-30711455D01*
X38580294Y-30711455D02*
X38579218Y-30707667D01*
X38579218Y-30707667D02*
X38578327Y-30703805D01*
X38578327Y-30703805D02*
X38577625Y-30699874D01*
X38577625Y-30699874D02*
X38577117Y-30695879D01*
X38577117Y-30695879D02*
X38576809Y-30691825D01*
X38576809Y-30691825D02*
X38576705Y-30687717D01*
X38576705Y-30687717D02*
X38576809Y-30683610D01*
X38576809Y-30683610D02*
X38577117Y-30679556D01*
X38577117Y-30679556D02*
X38577625Y-30675561D01*
X38577625Y-30675561D02*
X38578327Y-30671630D01*
X38578327Y-30671630D02*
X38579218Y-30667768D01*
X38579218Y-30667768D02*
X38580294Y-30663980D01*
X38580294Y-30663980D02*
X38581549Y-30660271D01*
X38581549Y-30660271D02*
X38582978Y-30656646D01*
X38582978Y-30656646D02*
X38584576Y-30653110D01*
X38584576Y-30653110D02*
X38586339Y-30649668D01*
X38586339Y-30649668D02*
X38588261Y-30646326D01*
X38588261Y-30646326D02*
X38590338Y-30643087D01*
X38590338Y-30643087D02*
X38592563Y-30639957D01*
X38592563Y-30639957D02*
X38594933Y-30636942D01*
X38594933Y-30636942D02*
X38597442Y-30634045D01*
X38597442Y-30634045D02*
X38600085Y-30631273D01*
X38600085Y-30631273D02*
X38602857Y-30628630D01*
X38602857Y-30628630D02*
X38605754Y-30626121D01*
X38605754Y-30626121D02*
X38608769Y-30623751D01*
X38608769Y-30623751D02*
X38611899Y-30621526D01*
X38611899Y-30621526D02*
X38615137Y-30619449D01*
X38615137Y-30619449D02*
X38618480Y-30617527D01*
X38618480Y-30617527D02*
X38621922Y-30615765D01*
X38621922Y-30615765D02*
X38625458Y-30614166D01*
X38625458Y-30614166D02*
X38629083Y-30612737D01*
X38629083Y-30612737D02*
X38632792Y-30611482D01*
X38632792Y-30611482D02*
X38636580Y-30610406D01*
X38636580Y-30610406D02*
X38640442Y-30609515D01*
X38640442Y-30609515D02*
X38644373Y-30608813D01*
X38644373Y-30608813D02*
X38648368Y-30608305D01*
X38648368Y-30608305D02*
X38652422Y-30607997D01*
X38652422Y-30607997D02*
X38656529Y-30607893D01*
X38656529Y-30607893D02*
X38660637Y-30607997D01*
X38660637Y-30607997D02*
X38664691Y-30608305D01*
X38664691Y-30608305D02*
X38668686Y-30608813D01*
X38668686Y-30608813D02*
X38672617Y-30609515D01*
X38672617Y-30609515D02*
X38676479Y-30610406D01*
X38676479Y-30610406D02*
X38680267Y-30611482D01*
X38680267Y-30611482D02*
X38683976Y-30612737D01*
X38683976Y-30612737D02*
X38687601Y-30614166D01*
X38687601Y-30614166D02*
X38691136Y-30615765D01*
X38691136Y-30615765D02*
X38694578Y-30617527D01*
X38694578Y-30617527D02*
X38697921Y-30619449D01*
X38697921Y-30619449D02*
X38701160Y-30621526D01*
X38701160Y-30621526D02*
X38704290Y-30623751D01*
X38704290Y-30623751D02*
X38707305Y-30626121D01*
X38707305Y-30626121D02*
X38710201Y-30628630D01*
X38710201Y-30628630D02*
X38712974Y-30631273D01*
X38712974Y-30631273D02*
X38715617Y-30634045D01*
X38715617Y-30634045D02*
X38718126Y-30636942D01*
X38718126Y-30636942D02*
X38720495Y-30639957D01*
X38720495Y-30639957D02*
X38722721Y-30643087D01*
X38722721Y-30643087D02*
X38724797Y-30646326D01*
X38724797Y-30646326D02*
X38726719Y-30649668D01*
X38726719Y-30649668D02*
X38728482Y-30653110D01*
X38728482Y-30653110D02*
X38730081Y-30656646D01*
X38730081Y-30656646D02*
X38731510Y-30660271D01*
X38731510Y-30660271D02*
X38732765Y-30663980D01*
X38732765Y-30663980D02*
X38733841Y-30667768D01*
X38733841Y-30667768D02*
X38734732Y-30671630D01*
X38734732Y-30671630D02*
X38735434Y-30675561D01*
X38735434Y-30675561D02*
X38735942Y-30679556D01*
X38735942Y-30679556D02*
X38736250Y-30683610D01*
X38736250Y-30683610D02*
X38736354Y-30687717D01*
X38736354Y-30687717D02*
X38736354Y-30687717D01*
G36*
X38660637Y-30607997D02*
G01*
X38664691Y-30608305D01*
X38668686Y-30608813D01*
X38672617Y-30609515D01*
X38676479Y-30610406D01*
X38680267Y-30611482D01*
X38683976Y-30612737D01*
X38687601Y-30614166D01*
X38691136Y-30615765D01*
X38694578Y-30617527D01*
X38697921Y-30619449D01*
X38701160Y-30621526D01*
X38704290Y-30623751D01*
X38707305Y-30626121D01*
X38710201Y-30628630D01*
X38712974Y-30631273D01*
X38715617Y-30634045D01*
X38718126Y-30636942D01*
X38720495Y-30639957D01*
X38722721Y-30643087D01*
X38724797Y-30646326D01*
X38726719Y-30649668D01*
X38728482Y-30653110D01*
X38730081Y-30656646D01*
X38731510Y-30660271D01*
X38732765Y-30663980D01*
X38733841Y-30667768D01*
X38734732Y-30671630D01*
X38735434Y-30675561D01*
X38735942Y-30679556D01*
X38736250Y-30683610D01*
X38736354Y-30687717D01*
X38736250Y-30691825D01*
X38735942Y-30695879D01*
X38735434Y-30699874D01*
X38734732Y-30703805D01*
X38733841Y-30707667D01*
X38732765Y-30711455D01*
X38731510Y-30715164D01*
X38730081Y-30718789D01*
X38728482Y-30722325D01*
X38726719Y-30725767D01*
X38724797Y-30729109D01*
X38722721Y-30732348D01*
X38720495Y-30735478D01*
X38718126Y-30738493D01*
X38715617Y-30741390D01*
X38712974Y-30744162D01*
X38710201Y-30746805D01*
X38707305Y-30749314D01*
X38704290Y-30751684D01*
X38701160Y-30753909D01*
X38697921Y-30755985D01*
X38694578Y-30757908D01*
X38691136Y-30759670D01*
X38687601Y-30761269D01*
X38683976Y-30762698D01*
X38680267Y-30763953D01*
X38676479Y-30765029D01*
X38672617Y-30765920D01*
X38668686Y-30766622D01*
X38664691Y-30767130D01*
X38660637Y-30767438D01*
X38656529Y-30767542D01*
X38652422Y-30767438D01*
X38648368Y-30767130D01*
X38644373Y-30766622D01*
X38640442Y-30765920D01*
X38636580Y-30765029D01*
X38632792Y-30763953D01*
X38629083Y-30762698D01*
X38625458Y-30761269D01*
X38621922Y-30759670D01*
X38618480Y-30757908D01*
X38615137Y-30755985D01*
X38611899Y-30753909D01*
X38608769Y-30751684D01*
X38605754Y-30749314D01*
X38602857Y-30746805D01*
X38600085Y-30744162D01*
X38597442Y-30741390D01*
X38594933Y-30738493D01*
X38592563Y-30735478D01*
X38590338Y-30732348D01*
X38588261Y-30729109D01*
X38586339Y-30725767D01*
X38584576Y-30722325D01*
X38582978Y-30718789D01*
X38581549Y-30715164D01*
X38580294Y-30711455D01*
X38579218Y-30707667D01*
X38578327Y-30703805D01*
X38577625Y-30699874D01*
X38577117Y-30695879D01*
X38576809Y-30691825D01*
X38576705Y-30687717D01*
X38576809Y-30683610D01*
X38577117Y-30679556D01*
X38577625Y-30675561D01*
X38578327Y-30671630D01*
X38579218Y-30667768D01*
X38580294Y-30663980D01*
X38581549Y-30660271D01*
X38582978Y-30656646D01*
X38584576Y-30653110D01*
X38586339Y-30649668D01*
X38588261Y-30646326D01*
X38590338Y-30643087D01*
X38592563Y-30639957D01*
X38594933Y-30636942D01*
X38597442Y-30634045D01*
X38600085Y-30631273D01*
X38602857Y-30628630D01*
X38605754Y-30626121D01*
X38608769Y-30623751D01*
X38611899Y-30621526D01*
X38615137Y-30619449D01*
X38618480Y-30617527D01*
X38621922Y-30615765D01*
X38625458Y-30614166D01*
X38629083Y-30612737D01*
X38632792Y-30611482D01*
X38636580Y-30610406D01*
X38640442Y-30609515D01*
X38644373Y-30608813D01*
X38648368Y-30608305D01*
X38652422Y-30607997D01*
X38656529Y-30607893D01*
X38660637Y-30607997D01*
G37*
X38660637Y-30607997D02*
X38664691Y-30608305D01*
X38668686Y-30608813D01*
X38672617Y-30609515D01*
X38676479Y-30610406D01*
X38680267Y-30611482D01*
X38683976Y-30612737D01*
X38687601Y-30614166D01*
X38691136Y-30615765D01*
X38694578Y-30617527D01*
X38697921Y-30619449D01*
X38701160Y-30621526D01*
X38704290Y-30623751D01*
X38707305Y-30626121D01*
X38710201Y-30628630D01*
X38712974Y-30631273D01*
X38715617Y-30634045D01*
X38718126Y-30636942D01*
X38720495Y-30639957D01*
X38722721Y-30643087D01*
X38724797Y-30646326D01*
X38726719Y-30649668D01*
X38728482Y-30653110D01*
X38730081Y-30656646D01*
X38731510Y-30660271D01*
X38732765Y-30663980D01*
X38733841Y-30667768D01*
X38734732Y-30671630D01*
X38735434Y-30675561D01*
X38735942Y-30679556D01*
X38736250Y-30683610D01*
X38736354Y-30687717D01*
X38736250Y-30691825D01*
X38735942Y-30695879D01*
X38735434Y-30699874D01*
X38734732Y-30703805D01*
X38733841Y-30707667D01*
X38732765Y-30711455D01*
X38731510Y-30715164D01*
X38730081Y-30718789D01*
X38728482Y-30722325D01*
X38726719Y-30725767D01*
X38724797Y-30729109D01*
X38722721Y-30732348D01*
X38720495Y-30735478D01*
X38718126Y-30738493D01*
X38715617Y-30741390D01*
X38712974Y-30744162D01*
X38710201Y-30746805D01*
X38707305Y-30749314D01*
X38704290Y-30751684D01*
X38701160Y-30753909D01*
X38697921Y-30755985D01*
X38694578Y-30757908D01*
X38691136Y-30759670D01*
X38687601Y-30761269D01*
X38683976Y-30762698D01*
X38680267Y-30763953D01*
X38676479Y-30765029D01*
X38672617Y-30765920D01*
X38668686Y-30766622D01*
X38664691Y-30767130D01*
X38660637Y-30767438D01*
X38656529Y-30767542D01*
X38652422Y-30767438D01*
X38648368Y-30767130D01*
X38644373Y-30766622D01*
X38640442Y-30765920D01*
X38636580Y-30765029D01*
X38632792Y-30763953D01*
X38629083Y-30762698D01*
X38625458Y-30761269D01*
X38621922Y-30759670D01*
X38618480Y-30757908D01*
X38615137Y-30755985D01*
X38611899Y-30753909D01*
X38608769Y-30751684D01*
X38605754Y-30749314D01*
X38602857Y-30746805D01*
X38600085Y-30744162D01*
X38597442Y-30741390D01*
X38594933Y-30738493D01*
X38592563Y-30735478D01*
X38590338Y-30732348D01*
X38588261Y-30729109D01*
X38586339Y-30725767D01*
X38584576Y-30722325D01*
X38582978Y-30718789D01*
X38581549Y-30715164D01*
X38580294Y-30711455D01*
X38579218Y-30707667D01*
X38578327Y-30703805D01*
X38577625Y-30699874D01*
X38577117Y-30695879D01*
X38576809Y-30691825D01*
X38576705Y-30687717D01*
X38576809Y-30683610D01*
X38577117Y-30679556D01*
X38577625Y-30675561D01*
X38578327Y-30671630D01*
X38579218Y-30667768D01*
X38580294Y-30663980D01*
X38581549Y-30660271D01*
X38582978Y-30656646D01*
X38584576Y-30653110D01*
X38586339Y-30649668D01*
X38588261Y-30646326D01*
X38590338Y-30643087D01*
X38592563Y-30639957D01*
X38594933Y-30636942D01*
X38597442Y-30634045D01*
X38600085Y-30631273D01*
X38602857Y-30628630D01*
X38605754Y-30626121D01*
X38608769Y-30623751D01*
X38611899Y-30621526D01*
X38615137Y-30619449D01*
X38618480Y-30617527D01*
X38621922Y-30615765D01*
X38625458Y-30614166D01*
X38629083Y-30612737D01*
X38632792Y-30611482D01*
X38636580Y-30610406D01*
X38640442Y-30609515D01*
X38644373Y-30608813D01*
X38648368Y-30608305D01*
X38652422Y-30607997D01*
X38656529Y-30607893D01*
X38660637Y-30607997D01*
X39022867Y-31340568D02*
X38970926Y-31412125D01*
X38570702Y-30920298D02*
X38563884Y-30915449D01*
X38828170Y-30843786D02*
X38824687Y-30851489D01*
X39062172Y-31186798D02*
X39056750Y-31187487D01*
X38816659Y-30685919D02*
X38820847Y-30693202D01*
X38665657Y-31487828D02*
X38633782Y-31491420D01*
X38551004Y-30647368D02*
X38557314Y-30641902D01*
X38306306Y-31003481D02*
X38360038Y-30920064D01*
X38519206Y-30685919D02*
X38523729Y-30678864D01*
X39110491Y-30992901D02*
X39114584Y-30996118D01*
X38838303Y-30811142D02*
X38836361Y-30819556D01*
X39082922Y-30977953D02*
X39087842Y-30979893D01*
X38616219Y-30610010D02*
X38624472Y-30607666D01*
X38667933Y-30949998D02*
X38667933Y-30949998D01*
X38820847Y-30693202D02*
X38824687Y-30700700D01*
X39125864Y-31006872D02*
X39129269Y-31010803D01*
X38943914Y-31042464D02*
X38945854Y-31037544D01*
X38494256Y-30785044D02*
X38494029Y-30776095D01*
X38539206Y-30893023D02*
X38533740Y-30886713D01*
X38972833Y-31159903D02*
X38969071Y-31156316D01*
X38816659Y-30866270D02*
X38812136Y-30873326D01*
X38778551Y-30910287D02*
X38771982Y-30915449D01*
X38953024Y-31135887D02*
X38950416Y-31131351D01*
X38750825Y-30623180D02*
X38758108Y-30627368D01*
X38812136Y-30873326D02*
X38807288Y-30880144D01*
X38865002Y-31536148D02*
X38811577Y-31588800D01*
X38719646Y-30610010D02*
X38727727Y-30612744D01*
X39149137Y-31047498D02*
X39150596Y-31052638D01*
X38382649Y-30968894D02*
X38394959Y-30992026D01*
X39003051Y-31134767D02*
X39003116Y-31132208D01*
X39003116Y-31132208D02*
X39003308Y-31129683D01*
X39003308Y-31129683D02*
X39003624Y-31127194D01*
X39003624Y-31127194D02*
X39004061Y-31124746D01*
X39004061Y-31124746D02*
X39004616Y-31122340D01*
X39004616Y-31122340D02*
X39005286Y-31119980D01*
X39005286Y-31119980D02*
X39006068Y-31117670D01*
X39006068Y-31117670D02*
X39006959Y-31115411D01*
X39006959Y-31115411D02*
X39007954Y-31113209D01*
X39007954Y-31113209D02*
X39009053Y-31111065D01*
X39009053Y-31111065D02*
X39010250Y-31108982D01*
X39010250Y-31108982D02*
X39011543Y-31106965D01*
X39011543Y-31106965D02*
X39012930Y-31105015D01*
X39012930Y-31105015D02*
X39014406Y-31103137D01*
X39014406Y-31103137D02*
X39015969Y-31101332D01*
X39015969Y-31101332D02*
X39017615Y-31099605D01*
X39017615Y-31099605D02*
X39019342Y-31097959D01*
X39019342Y-31097959D02*
X39021147Y-31096396D01*
X39021147Y-31096396D02*
X39023025Y-31094920D01*
X39023025Y-31094920D02*
X39024975Y-31093533D01*
X39024975Y-31093533D02*
X39026992Y-31092240D01*
X39026992Y-31092240D02*
X39029075Y-31091042D01*
X39029075Y-31091042D02*
X39031219Y-31089944D01*
X39031219Y-31089944D02*
X39033422Y-31088948D01*
X39033422Y-31088948D02*
X39035680Y-31088058D01*
X39035680Y-31088058D02*
X39037990Y-31087276D01*
X39037990Y-31087276D02*
X39040350Y-31086606D01*
X39040350Y-31086606D02*
X39042756Y-31086051D01*
X39042756Y-31086051D02*
X39045205Y-31085614D01*
X39045205Y-31085614D02*
X39047693Y-31085297D01*
X39047693Y-31085297D02*
X39050219Y-31085105D01*
X39050219Y-31085105D02*
X39052777Y-31085041D01*
X39052777Y-31085041D02*
X39055336Y-31085105D01*
X39055336Y-31085105D02*
X39057862Y-31085297D01*
X39057862Y-31085297D02*
X39060350Y-31085614D01*
X39060350Y-31085614D02*
X39062799Y-31086051D01*
X39062799Y-31086051D02*
X39065205Y-31086606D01*
X39065205Y-31086606D02*
X39067565Y-31087276D01*
X39067565Y-31087276D02*
X39069875Y-31088058D01*
X39069875Y-31088058D02*
X39072133Y-31088948D01*
X39072133Y-31088948D02*
X39074336Y-31089944D01*
X39074336Y-31089944D02*
X39076480Y-31091042D01*
X39076480Y-31091042D02*
X39078563Y-31092240D01*
X39078563Y-31092240D02*
X39080580Y-31093533D01*
X39080580Y-31093533D02*
X39082530Y-31094920D01*
X39082530Y-31094920D02*
X39084408Y-31096396D01*
X39084408Y-31096396D02*
X39086213Y-31097959D01*
X39086213Y-31097959D02*
X39087940Y-31099605D01*
X39087940Y-31099605D02*
X39089586Y-31101332D01*
X39089586Y-31101332D02*
X39091149Y-31103137D01*
X39091149Y-31103137D02*
X39092625Y-31105015D01*
X39092625Y-31105015D02*
X39094012Y-31106965D01*
X39094012Y-31106965D02*
X39095305Y-31108982D01*
X39095305Y-31108982D02*
X39096502Y-31111065D01*
X39096502Y-31111065D02*
X39097601Y-31113209D01*
X39097601Y-31113209D02*
X39098596Y-31115411D01*
X39098596Y-31115411D02*
X39099487Y-31117670D01*
X39099487Y-31117670D02*
X39100269Y-31119980D01*
X39100269Y-31119980D02*
X39100939Y-31122340D01*
X39100939Y-31122340D02*
X39101494Y-31124746D01*
X39101494Y-31124746D02*
X39101931Y-31127194D01*
X39101931Y-31127194D02*
X39102247Y-31129683D01*
X39102247Y-31129683D02*
X39102439Y-31132208D01*
X39102439Y-31132208D02*
X39102504Y-31134767D01*
X39102504Y-31134767D02*
X39102439Y-31137326D01*
X39102439Y-31137326D02*
X39102247Y-31139852D01*
X39102247Y-31139852D02*
X39101931Y-31142340D01*
X39101931Y-31142340D02*
X39101494Y-31144789D01*
X39101494Y-31144789D02*
X39100939Y-31147195D01*
X39100939Y-31147195D02*
X39100269Y-31149554D01*
X39100269Y-31149554D02*
X39099487Y-31151865D01*
X39099487Y-31151865D02*
X39098596Y-31154123D01*
X39098596Y-31154123D02*
X39097601Y-31156326D01*
X39097601Y-31156326D02*
X39096502Y-31158470D01*
X39096502Y-31158470D02*
X39095305Y-31160552D01*
X39095305Y-31160552D02*
X39094012Y-31162570D01*
X39094012Y-31162570D02*
X39092625Y-31164520D01*
X39092625Y-31164520D02*
X39091149Y-31166398D01*
X39091149Y-31166398D02*
X39089586Y-31168202D01*
X39089586Y-31168202D02*
X39087940Y-31169929D01*
X39087940Y-31169929D02*
X39086213Y-31171576D01*
X39086213Y-31171576D02*
X39084408Y-31173139D01*
X39084408Y-31173139D02*
X39082530Y-31174615D01*
X39082530Y-31174615D02*
X39080580Y-31176001D01*
X39080580Y-31176001D02*
X39078563Y-31177295D01*
X39078563Y-31177295D02*
X39076480Y-31178492D01*
X39076480Y-31178492D02*
X39074336Y-31179590D01*
X39074336Y-31179590D02*
X39072133Y-31180586D01*
X39072133Y-31180586D02*
X39069875Y-31181477D01*
X39069875Y-31181477D02*
X39067565Y-31182258D01*
X39067565Y-31182258D02*
X39065205Y-31182928D01*
X39065205Y-31182928D02*
X39062799Y-31183484D01*
X39062799Y-31183484D02*
X39060350Y-31183921D01*
X39060350Y-31183921D02*
X39057862Y-31184237D01*
X39057862Y-31184237D02*
X39055336Y-31184429D01*
X39055336Y-31184429D02*
X39052777Y-31184494D01*
X39052777Y-31184494D02*
X39050219Y-31184429D01*
X39050219Y-31184429D02*
X39047693Y-31184237D01*
X39047693Y-31184237D02*
X39045205Y-31183921D01*
X39045205Y-31183921D02*
X39042756Y-31183484D01*
X39042756Y-31183484D02*
X39040350Y-31182928D01*
X39040350Y-31182928D02*
X39037990Y-31182258D01*
X39037990Y-31182258D02*
X39035680Y-31181477D01*
X39035680Y-31181477D02*
X39033422Y-31180586D01*
X39033422Y-31180586D02*
X39031219Y-31179590D01*
X39031219Y-31179590D02*
X39029075Y-31178492D01*
X39029075Y-31178492D02*
X39026992Y-31177295D01*
X39026992Y-31177295D02*
X39024975Y-31176001D01*
X39024975Y-31176001D02*
X39023025Y-31174615D01*
X39023025Y-31174615D02*
X39021147Y-31173139D01*
X39021147Y-31173139D02*
X39019342Y-31171576D01*
X39019342Y-31171576D02*
X39017615Y-31169929D01*
X39017615Y-31169929D02*
X39015969Y-31168202D01*
X39015969Y-31168202D02*
X39014406Y-31166398D01*
X39014406Y-31166398D02*
X39012930Y-31164520D01*
X39012930Y-31164520D02*
X39011543Y-31162570D01*
X39011543Y-31162570D02*
X39010250Y-31160552D01*
X39010250Y-31160552D02*
X39009053Y-31158470D01*
X39009053Y-31158470D02*
X39007954Y-31156326D01*
X39007954Y-31156326D02*
X39006959Y-31154123D01*
X39006959Y-31154123D02*
X39006068Y-31151865D01*
X39006068Y-31151865D02*
X39005286Y-31149554D01*
X39005286Y-31149554D02*
X39004616Y-31147195D01*
X39004616Y-31147195D02*
X39004061Y-31144789D01*
X39004061Y-31144789D02*
X39003624Y-31142340D01*
X39003624Y-31142340D02*
X39003308Y-31139852D01*
X39003308Y-31139852D02*
X39003116Y-31137326D01*
X39003116Y-31137326D02*
X39003051Y-31134767D01*
X39003051Y-31134767D02*
X39003051Y-31134767D01*
G36*
X39055336Y-31085105D02*
G01*
X39057862Y-31085297D01*
X39060350Y-31085614D01*
X39062799Y-31086051D01*
X39065205Y-31086606D01*
X39067565Y-31087276D01*
X39069875Y-31088058D01*
X39072133Y-31088948D01*
X39074336Y-31089944D01*
X39076480Y-31091042D01*
X39078563Y-31092240D01*
X39080580Y-31093533D01*
X39082530Y-31094920D01*
X39084408Y-31096396D01*
X39086213Y-31097959D01*
X39087940Y-31099605D01*
X39089586Y-31101332D01*
X39091149Y-31103137D01*
X39092625Y-31105015D01*
X39094012Y-31106965D01*
X39095305Y-31108982D01*
X39096502Y-31111065D01*
X39097601Y-31113209D01*
X39098596Y-31115411D01*
X39099487Y-31117670D01*
X39100269Y-31119980D01*
X39100939Y-31122340D01*
X39101494Y-31124746D01*
X39101931Y-31127194D01*
X39102247Y-31129683D01*
X39102439Y-31132208D01*
X39102504Y-31134767D01*
X39102439Y-31137326D01*
X39102247Y-31139852D01*
X39101931Y-31142340D01*
X39101494Y-31144789D01*
X39100939Y-31147195D01*
X39100269Y-31149554D01*
X39099487Y-31151865D01*
X39098596Y-31154123D01*
X39097601Y-31156326D01*
X39096502Y-31158470D01*
X39095305Y-31160552D01*
X39094012Y-31162570D01*
X39092625Y-31164520D01*
X39091149Y-31166398D01*
X39089586Y-31168202D01*
X39087940Y-31169929D01*
X39086213Y-31171576D01*
X39084408Y-31173139D01*
X39082530Y-31174615D01*
X39080580Y-31176001D01*
X39078563Y-31177295D01*
X39076480Y-31178492D01*
X39074336Y-31179590D01*
X39072133Y-31180586D01*
X39069875Y-31181477D01*
X39067565Y-31182258D01*
X39065205Y-31182928D01*
X39062799Y-31183484D01*
X39060350Y-31183921D01*
X39057862Y-31184237D01*
X39055336Y-31184429D01*
X39052777Y-31184494D01*
X39050219Y-31184429D01*
X39047693Y-31184237D01*
X39045205Y-31183921D01*
X39042756Y-31183484D01*
X39040350Y-31182928D01*
X39037990Y-31182258D01*
X39035680Y-31181477D01*
X39033422Y-31180586D01*
X39031219Y-31179590D01*
X39029075Y-31178492D01*
X39026992Y-31177295D01*
X39024975Y-31176001D01*
X39023025Y-31174615D01*
X39021147Y-31173139D01*
X39019342Y-31171576D01*
X39017615Y-31169929D01*
X39015969Y-31168202D01*
X39014406Y-31166398D01*
X39012930Y-31164520D01*
X39011543Y-31162570D01*
X39010250Y-31160552D01*
X39009053Y-31158470D01*
X39007954Y-31156326D01*
X39006959Y-31154123D01*
X39006068Y-31151865D01*
X39005286Y-31149554D01*
X39004616Y-31147195D01*
X39004061Y-31144789D01*
X39003624Y-31142340D01*
X39003308Y-31139852D01*
X39003116Y-31137326D01*
X39003051Y-31134767D01*
X39003116Y-31132208D01*
X39003308Y-31129683D01*
X39003624Y-31127194D01*
X39004061Y-31124746D01*
X39004616Y-31122340D01*
X39005286Y-31119980D01*
X39006068Y-31117670D01*
X39006959Y-31115411D01*
X39007954Y-31113209D01*
X39009053Y-31111065D01*
X39010250Y-31108982D01*
X39011543Y-31106965D01*
X39012930Y-31105015D01*
X39014406Y-31103137D01*
X39015969Y-31101332D01*
X39017615Y-31099605D01*
X39019342Y-31097959D01*
X39021147Y-31096396D01*
X39023025Y-31094920D01*
X39024975Y-31093533D01*
X39026992Y-31092240D01*
X39029075Y-31091042D01*
X39031219Y-31089944D01*
X39033422Y-31088948D01*
X39035680Y-31088058D01*
X39037990Y-31087276D01*
X39040350Y-31086606D01*
X39042756Y-31086051D01*
X39045205Y-31085614D01*
X39047693Y-31085297D01*
X39050219Y-31085105D01*
X39052777Y-31085041D01*
X39055336Y-31085105D01*
G37*
X39055336Y-31085105D02*
X39057862Y-31085297D01*
X39060350Y-31085614D01*
X39062799Y-31086051D01*
X39065205Y-31086606D01*
X39067565Y-31087276D01*
X39069875Y-31088058D01*
X39072133Y-31088948D01*
X39074336Y-31089944D01*
X39076480Y-31091042D01*
X39078563Y-31092240D01*
X39080580Y-31093533D01*
X39082530Y-31094920D01*
X39084408Y-31096396D01*
X39086213Y-31097959D01*
X39087940Y-31099605D01*
X39089586Y-31101332D01*
X39091149Y-31103137D01*
X39092625Y-31105015D01*
X39094012Y-31106965D01*
X39095305Y-31108982D01*
X39096502Y-31111065D01*
X39097601Y-31113209D01*
X39098596Y-31115411D01*
X39099487Y-31117670D01*
X39100269Y-31119980D01*
X39100939Y-31122340D01*
X39101494Y-31124746D01*
X39101931Y-31127194D01*
X39102247Y-31129683D01*
X39102439Y-31132208D01*
X39102504Y-31134767D01*
X39102439Y-31137326D01*
X39102247Y-31139852D01*
X39101931Y-31142340D01*
X39101494Y-31144789D01*
X39100939Y-31147195D01*
X39100269Y-31149554D01*
X39099487Y-31151865D01*
X39098596Y-31154123D01*
X39097601Y-31156326D01*
X39096502Y-31158470D01*
X39095305Y-31160552D01*
X39094012Y-31162570D01*
X39092625Y-31164520D01*
X39091149Y-31166398D01*
X39089586Y-31168202D01*
X39087940Y-31169929D01*
X39086213Y-31171576D01*
X39084408Y-31173139D01*
X39082530Y-31174615D01*
X39080580Y-31176001D01*
X39078563Y-31177295D01*
X39076480Y-31178492D01*
X39074336Y-31179590D01*
X39072133Y-31180586D01*
X39069875Y-31181477D01*
X39067565Y-31182258D01*
X39065205Y-31182928D01*
X39062799Y-31183484D01*
X39060350Y-31183921D01*
X39057862Y-31184237D01*
X39055336Y-31184429D01*
X39052777Y-31184494D01*
X39050219Y-31184429D01*
X39047693Y-31184237D01*
X39045205Y-31183921D01*
X39042756Y-31183484D01*
X39040350Y-31182928D01*
X39037990Y-31182258D01*
X39035680Y-31181477D01*
X39033422Y-31180586D01*
X39031219Y-31179590D01*
X39029075Y-31178492D01*
X39026992Y-31177295D01*
X39024975Y-31176001D01*
X39023025Y-31174615D01*
X39021147Y-31173139D01*
X39019342Y-31171576D01*
X39017615Y-31169929D01*
X39015969Y-31168202D01*
X39014406Y-31166398D01*
X39012930Y-31164520D01*
X39011543Y-31162570D01*
X39010250Y-31160552D01*
X39009053Y-31158470D01*
X39007954Y-31156326D01*
X39006959Y-31154123D01*
X39006068Y-31151865D01*
X39005286Y-31149554D01*
X39004616Y-31147195D01*
X39004061Y-31144789D01*
X39003624Y-31142340D01*
X39003308Y-31139852D01*
X39003116Y-31137326D01*
X39003051Y-31134767D01*
X39003116Y-31132208D01*
X39003308Y-31129683D01*
X39003624Y-31127194D01*
X39004061Y-31124746D01*
X39004616Y-31122340D01*
X39005286Y-31119980D01*
X39006068Y-31117670D01*
X39006959Y-31115411D01*
X39007954Y-31113209D01*
X39009053Y-31111065D01*
X39010250Y-31108982D01*
X39011543Y-31106965D01*
X39012930Y-31105015D01*
X39014406Y-31103137D01*
X39015969Y-31101332D01*
X39017615Y-31099605D01*
X39019342Y-31097959D01*
X39021147Y-31096396D01*
X39023025Y-31094920D01*
X39024975Y-31093533D01*
X39026992Y-31092240D01*
X39029075Y-31091042D01*
X39031219Y-31089944D01*
X39033422Y-31088948D01*
X39035680Y-31088058D01*
X39037990Y-31087276D01*
X39040350Y-31086606D01*
X39042756Y-31086051D01*
X39045205Y-31085614D01*
X39047693Y-31085297D01*
X39050219Y-31085105D01*
X39052777Y-31085041D01*
X39055336Y-31085105D01*
X38497562Y-30811142D02*
X38496033Y-30802578D01*
X38501848Y-30724381D02*
X38504582Y-30716301D01*
X38613761Y-31220078D02*
X38634962Y-31232409D01*
X38953024Y-31023538D02*
X38955842Y-31019143D01*
X39034597Y-30971939D02*
X39040099Y-30971520D01*
X38145937Y-31364655D02*
X38164502Y-31300186D01*
X38970926Y-31412125D02*
X38918211Y-31477287D01*
X38719646Y-30942179D02*
X38711394Y-30944523D01*
X38735624Y-30936332D02*
X38727727Y-30939445D01*
X38593167Y-31207045D02*
X38613761Y-31220078D01*
X38367040Y-31798628D02*
X38326791Y-31794310D01*
X38407931Y-31014315D02*
X38421562Y-31035774D01*
X38491040Y-31474395D02*
X38466595Y-31463452D01*
X39008425Y-31181472D02*
X39003506Y-31179532D01*
X39132485Y-31014895D02*
X39135505Y-31019143D01*
X38507696Y-30843786D02*
X38504582Y-30835888D01*
X38839832Y-30749611D02*
X38840938Y-30758314D01*
X38501848Y-30827808D02*
X38499504Y-30819556D01*
X39152759Y-31096211D02*
X39151806Y-31101546D01*
X39082922Y-31181472D02*
X39077889Y-31183175D01*
X38602867Y-31492783D02*
X38573025Y-31491839D01*
X38130862Y-31580914D02*
X38126311Y-31533278D01*
X38658984Y-30949772D02*
X38650152Y-30949100D01*
X38624472Y-30607666D02*
X38632885Y-30605724D01*
X39151806Y-31057880D02*
X39152759Y-31063215D01*
X38544964Y-30899063D02*
X38539206Y-30893023D01*
X38910257Y-30491007D02*
X38985805Y-30830261D01*
X38600242Y-30936332D02*
X38592538Y-30932849D01*
X38641449Y-30604195D02*
X38650152Y-30603089D01*
X38694416Y-30947994D02*
X38685713Y-30949100D01*
X38937482Y-31074138D02*
X38937900Y-31068636D01*
X38939542Y-31057880D02*
X38940751Y-31052638D01*
X39140932Y-31131351D02*
X39138323Y-31135887D01*
X38544366Y-31488512D02*
X38517000Y-31482723D01*
X38466595Y-31463452D02*
X38443776Y-31449816D01*
X38711394Y-30607666D02*
X38719646Y-30610010D01*
X38535070Y-31163632D02*
X38553817Y-31178833D01*
X38771982Y-30636740D02*
X38778551Y-30641902D01*
X38937341Y-31079713D02*
X38937341Y-31079713D01*
X38841610Y-30767146D02*
X38841836Y-30776095D01*
X38702980Y-30605724D02*
X38711394Y-30607666D01*
X38870888Y-31423777D02*
X38800555Y-31452707D01*
X38189542Y-31231741D02*
X38221337Y-31159413D01*
X38948023Y-31126680D02*
X38945854Y-31121881D01*
X39140932Y-31028075D02*
X39143324Y-31032746D01*
X38998707Y-31177363D02*
X38994036Y-31174971D01*
X39087842Y-30979893D02*
X39092641Y-30982062D01*
X38126311Y-31533278D02*
X38127121Y-31481294D01*
X39145494Y-31121881D02*
X39143324Y-31126680D01*
X38942211Y-31047498D02*
X38943914Y-31042464D01*
X38839832Y-30802578D02*
X38838303Y-30811142D01*
X38333086Y-31234510D02*
X38329895Y-31193161D01*
X38504582Y-30835888D02*
X38501848Y-30827808D01*
X38523729Y-30678864D02*
X38528578Y-30672045D01*
X38539206Y-30659166D02*
X38544964Y-30653126D01*
X39003506Y-31179532D02*
X38998707Y-31177363D01*
X39147433Y-31042464D02*
X39149137Y-31047498D01*
X39072748Y-31184635D02*
X39067507Y-31185845D01*
X38592538Y-30619340D02*
X38600242Y-30615857D01*
X38371008Y-30944911D02*
X38382649Y-30968894D01*
X38938589Y-31096211D02*
X38937900Y-31090789D01*
X38360038Y-30920064D02*
X38360038Y-30920064D01*
X38841836Y-30776095D02*
X38841610Y-30785044D01*
X39106244Y-31169544D02*
X39101848Y-31172362D01*
X38965484Y-31152553D02*
X38962079Y-31148623D01*
X39114584Y-30996118D02*
X39118515Y-30999522D01*
X38705194Y-31675850D02*
X38652794Y-31710434D01*
X38796659Y-30659166D02*
X38802125Y-30665476D01*
X38345593Y-30992340D02*
X38357187Y-30932892D01*
X38573184Y-31193300D02*
X38593167Y-31207045D01*
X38824687Y-30700700D02*
X38828170Y-30708404D01*
X38519206Y-30866270D02*
X38515019Y-30858987D01*
X38790901Y-30899063D02*
X38784861Y-30904821D01*
X39129269Y-31010803D02*
X39132485Y-31014895D01*
X38800000Y-31300000D02*
X38852370Y-31313615D01*
X38937900Y-31090789D02*
X38937482Y-31085287D01*
X38499504Y-30732633D02*
X38501848Y-30724381D01*
X38940751Y-31052638D02*
X38942211Y-31047498D01*
X38337178Y-31048014D02*
X38345593Y-30992340D01*
X39018600Y-31184635D02*
X39013459Y-31183175D01*
X38496033Y-30749611D02*
X38497562Y-30741047D01*
X38329895Y-31193161D02*
X38329440Y-31148347D01*
X39040099Y-31187905D02*
X39034597Y-31187487D01*
X39151806Y-31101546D02*
X39150596Y-31106787D01*
X39097312Y-31174971D02*
X39092641Y-31177363D01*
X38592538Y-30932849D02*
X38585040Y-30929009D01*
X38976764Y-31163308D02*
X38972833Y-31159903D01*
X38784861Y-30904821D02*
X38778551Y-30910287D01*
X38807288Y-30880144D02*
X38802125Y-30886713D01*
X38784861Y-30647368D02*
X38790901Y-30653126D01*
X38985104Y-31169544D02*
X38980856Y-31166524D01*
X38197095Y-31726117D02*
X38173890Y-31696803D01*
X39045674Y-31188046D02*
X39040099Y-31187905D01*
X38616219Y-30942179D02*
X38608139Y-30939445D01*
X39072748Y-30974790D02*
X39077889Y-30976250D01*
X38329440Y-31148347D02*
X38331830Y-31099991D01*
X38516947Y-31147686D02*
X38535070Y-31163632D01*
X38765164Y-30631891D02*
X38771982Y-30636740D01*
X39122277Y-31003110D02*
X39125864Y-31006872D01*
X38948023Y-31032746D02*
X38950416Y-31028075D01*
X38533740Y-30665476D02*
X38539206Y-30659166D01*
X38667933Y-30602191D02*
X38676882Y-30602418D01*
X38820847Y-30858987D02*
X38816659Y-30866270D01*
X38573025Y-31491839D02*
X38544366Y-31488512D01*
X38563884Y-30915449D02*
X38557314Y-30910287D01*
X38685713Y-30949100D02*
X38676882Y-30949772D01*
X39138323Y-31135887D02*
X39135505Y-31140283D01*
X39147433Y-31116961D02*
X39145494Y-31121881D01*
X38841836Y-30776095D02*
X38841836Y-30776095D01*
X39152759Y-31063215D02*
X39153448Y-31068636D01*
X38601294Y-31739181D02*
X38550971Y-31762185D01*
X38985805Y-30830261D02*
X38985805Y-30830261D01*
X38985805Y-30830261D02*
X39256638Y-30928616D01*
X38972833Y-30999522D02*
X38976764Y-30996118D01*
D11*
X48586904Y-61495238D02*
X49158333Y-61495238D01*
X49272619Y-61533333D01*
X49348809Y-61609523D01*
X49386904Y-61723809D01*
X49386904Y-61800000D01*
X49386904Y-60733333D02*
X49386904Y-61114285D01*
X48586904Y-61114285D01*
X49310714Y-60009523D02*
X49348809Y-60047619D01*
X49386904Y-60161904D01*
X49386904Y-60238095D01*
X49348809Y-60352380D01*
X49272619Y-60428571D01*
X49196428Y-60466666D01*
X49044047Y-60504761D01*
X48929761Y-60504761D01*
X48777380Y-60466666D01*
X48701190Y-60428571D01*
X48625000Y-60352380D01*
X48586904Y-60238095D01*
X48586904Y-60161904D01*
X48625000Y-60047619D01*
X48663095Y-60009523D01*
X48586904Y-59438095D02*
X49158333Y-59438095D01*
X49272619Y-59476190D01*
X49348809Y-59552380D01*
X49386904Y-59666666D01*
X49386904Y-59742857D01*
X49386904Y-58676190D02*
X49386904Y-59057142D01*
X48586904Y-59057142D01*
X49310714Y-57952380D02*
X49348809Y-57990476D01*
X49386904Y-58104761D01*
X49386904Y-58180952D01*
X49348809Y-58295238D01*
X49272619Y-58371428D01*
X49196428Y-58409523D01*
X49044047Y-58447619D01*
X48929761Y-58447619D01*
X48777380Y-58409523D01*
X48701190Y-58371428D01*
X48625000Y-58295238D01*
X48586904Y-58180952D01*
X48586904Y-58104761D01*
X48625000Y-57990476D01*
X48663095Y-57952380D01*
X48586904Y-57380952D02*
X49158333Y-57380952D01*
X49272619Y-57419047D01*
X49348809Y-57495238D01*
X49386904Y-57609523D01*
X49386904Y-57685714D01*
X49386904Y-56619047D02*
X49386904Y-57000000D01*
X48586904Y-57000000D01*
X49310714Y-55895238D02*
X49348809Y-55933333D01*
X49386904Y-56047619D01*
X49386904Y-56123809D01*
X49348809Y-56238095D01*
X49272619Y-56314285D01*
X49196428Y-56352380D01*
X49044047Y-56390476D01*
X48929761Y-56390476D01*
X48777380Y-56352380D01*
X48701190Y-56314285D01*
X48625000Y-56238095D01*
X48586904Y-56123809D01*
X48586904Y-56047619D01*
X48625000Y-55933333D01*
X48663095Y-55895238D01*
X48586904Y-55323809D02*
X49158333Y-55323809D01*
X49272619Y-55361904D01*
X49348809Y-55438095D01*
X49386904Y-55552380D01*
X49386904Y-55628571D01*
X49386904Y-54561904D02*
X49386904Y-54942857D01*
X48586904Y-54942857D01*
X49310714Y-53838095D02*
X49348809Y-53876190D01*
X49386904Y-53990476D01*
X49386904Y-54066666D01*
X49348809Y-54180952D01*
X49272619Y-54257142D01*
X49196428Y-54295238D01*
X49044047Y-54333333D01*
X48929761Y-54333333D01*
X48777380Y-54295238D01*
X48701190Y-54257142D01*
X48625000Y-54180952D01*
X48586904Y-54066666D01*
X48586904Y-53990476D01*
X48625000Y-53876190D01*
X48663095Y-53838095D01*
D12*
X35042455Y-31022689D02*
X34985312Y-30994118D01*
X34871027Y-30994118D01*
X34813884Y-31022689D01*
X34756741Y-31079832D01*
X34728170Y-31136975D01*
X34728170Y-31251261D01*
X34756741Y-31308404D01*
X34813884Y-31365546D01*
X34871027Y-31394118D01*
X34985312Y-31394118D01*
X35042455Y-31365546D01*
X34928170Y-30794118D02*
X34785312Y-30822689D01*
X34642455Y-30908404D01*
X34556741Y-31051261D01*
X34528170Y-31194118D01*
X34556741Y-31336975D01*
X34642455Y-31479832D01*
X34785312Y-31565546D01*
X34928170Y-31594118D01*
X35071027Y-31565546D01*
X35213884Y-31479832D01*
X35299598Y-31336975D01*
X35328170Y-31194118D01*
X35299598Y-31051261D01*
X35213884Y-30908404D01*
X35071027Y-30822689D01*
X34928170Y-30794118D01*
X35556741Y-30936975D02*
X35585312Y-30908404D01*
X35642455Y-30879832D01*
X35785312Y-30879832D01*
X35842455Y-30908404D01*
X35871027Y-30936975D01*
X35899598Y-30994118D01*
X35899598Y-31051261D01*
X35871027Y-31136975D01*
X35528170Y-31479832D01*
X35899598Y-31479832D01*
X36271027Y-30879832D02*
X36328170Y-30879832D01*
X36385312Y-30908404D01*
X36413884Y-30936975D01*
X36442455Y-30994118D01*
X36471027Y-31108404D01*
X36471027Y-31251261D01*
X36442455Y-31365546D01*
X36413884Y-31422689D01*
X36385312Y-31451261D01*
X36328170Y-31479832D01*
X36271027Y-31479832D01*
X36213884Y-31451261D01*
X36185312Y-31422689D01*
X36156741Y-31365546D01*
X36128170Y-31251261D01*
X36128170Y-31108404D01*
X36156741Y-30994118D01*
X36185312Y-30936975D01*
X36213884Y-30908404D01*
X36271027Y-30879832D01*
X36699598Y-30936975D02*
X36728170Y-30908404D01*
X36785312Y-30879832D01*
X36928170Y-30879832D01*
X36985312Y-30908404D01*
X37013884Y-30936975D01*
X37042455Y-30994118D01*
X37042455Y-31051261D01*
X37013884Y-31136975D01*
X36671027Y-31479832D01*
X37042455Y-31479832D01*
X37271027Y-30936975D02*
X37299598Y-30908404D01*
X37356741Y-30879832D01*
X37499598Y-30879832D01*
X37556741Y-30908404D01*
X37585312Y-30936975D01*
X37613884Y-30994118D01*
X37613884Y-31051261D01*
X37585312Y-31136975D01*
X37242455Y-31479832D01*
X37613884Y-31479832D01*
X39699598Y-31479832D02*
X39699598Y-30879832D01*
X39899598Y-31308404D01*
X40099598Y-30879832D01*
X40099598Y-31479832D01*
X40642455Y-31479832D02*
X40642455Y-31165546D01*
X40613884Y-31108404D01*
X40556741Y-31079832D01*
X40442455Y-31079832D01*
X40385312Y-31108404D01*
X40642455Y-31451261D02*
X40585312Y-31479832D01*
X40442455Y-31479832D01*
X40385312Y-31451261D01*
X40356741Y-31394118D01*
X40356741Y-31336975D01*
X40385312Y-31279832D01*
X40442455Y-31251261D01*
X40585312Y-31251261D01*
X40642455Y-31222689D01*
X40928170Y-31479832D02*
X40928170Y-31079832D01*
X40928170Y-31194118D02*
X40956741Y-31136975D01*
X40985312Y-31108404D01*
X41042455Y-31079832D01*
X41099598Y-31079832D01*
X41556741Y-31451261D02*
X41499598Y-31479832D01*
X41385312Y-31479832D01*
X41328170Y-31451261D01*
X41299598Y-31422689D01*
X41271027Y-31365546D01*
X41271027Y-31194118D01*
X41299598Y-31136975D01*
X41328170Y-31108404D01*
X41385312Y-31079832D01*
X41499598Y-31079832D01*
X41556741Y-31108404D01*
X41899598Y-31479832D02*
X41842455Y-31451261D01*
X41813884Y-31422689D01*
X41785312Y-31365546D01*
X41785312Y-31194118D01*
X41813884Y-31136975D01*
X41842455Y-31108404D01*
X41899598Y-31079832D01*
X41985312Y-31079832D01*
X42042455Y-31108404D01*
X42071027Y-31136975D01*
X42099598Y-31194118D01*
X42099598Y-31365546D01*
X42071027Y-31422689D01*
X42042455Y-31451261D01*
X41985312Y-31479832D01*
X41899598Y-31479832D01*
X42813884Y-31479832D02*
X42813884Y-30879832D01*
X43013884Y-31308404D01*
X43213884Y-30879832D01*
X43213884Y-31479832D01*
X43756741Y-31479832D02*
X43756741Y-31165546D01*
X43728170Y-31108404D01*
X43671027Y-31079832D01*
X43556741Y-31079832D01*
X43499598Y-31108404D01*
X43756741Y-31451261D02*
X43699598Y-31479832D01*
X43556741Y-31479832D01*
X43499598Y-31451261D01*
X43471027Y-31394118D01*
X43471027Y-31336975D01*
X43499598Y-31279832D01*
X43556741Y-31251261D01*
X43699598Y-31251261D01*
X43756741Y-31222689D01*
X44042455Y-31479832D02*
X44042455Y-31079832D01*
X44042455Y-31194118D02*
X44071027Y-31136975D01*
X44099598Y-31108404D01*
X44156741Y-31079832D01*
X44213884Y-31079832D01*
X44328170Y-31079832D02*
X44556741Y-31079832D01*
X44413884Y-30879832D02*
X44413884Y-31394118D01*
X44442455Y-31451261D01*
X44499598Y-31479832D01*
X44556741Y-31479832D01*
X44756741Y-31479832D02*
X44756741Y-31079832D01*
X44756741Y-30879832D02*
X44728170Y-30908404D01*
X44756741Y-30936975D01*
X44785312Y-30908404D01*
X44756741Y-30879832D01*
X44756741Y-30936975D01*
X45042455Y-31079832D02*
X45042455Y-31479832D01*
X45042455Y-31136975D02*
X45071027Y-31108404D01*
X45128170Y-31079832D01*
X45213884Y-31079832D01*
X45271027Y-31108404D01*
X45299598Y-31165546D01*
X45299598Y-31479832D01*
D13*
%TO.C,J4*%
X31566666Y-62892380D02*
X31566666Y-63606666D01*
X31519047Y-63749523D01*
X31423809Y-63844761D01*
X31280952Y-63892380D01*
X31185714Y-63892380D01*
X32471428Y-63225714D02*
X32471428Y-63892380D01*
X32233333Y-62844761D02*
X31995238Y-63559047D01*
X32614285Y-63559047D01*
D11*
%TO.C,SW1*%
X33385000Y-82505000D02*
X33385000Y-83200000D01*
X32015000Y-83895000D02*
X31140000Y-83895000D01*
X31140000Y-82505000D02*
X31140000Y-82805507D01*
X32015000Y-83808276D02*
X32015000Y-83895000D01*
X32015000Y-82505000D02*
X32015000Y-82591724D01*
X31140000Y-83594493D02*
X31140000Y-83895000D01*
X32015000Y-82505000D02*
X31140000Y-82505000D01*
X32700000Y-82505000D02*
X33385000Y-82505000D01*
%TO.C,SW2*%
X47615000Y-83808276D02*
X47615000Y-83895000D01*
X46740000Y-82505000D02*
X46740000Y-82805507D01*
X46740000Y-83594493D02*
X46740000Y-83895000D01*
X47615000Y-83895000D02*
X46740000Y-83895000D01*
X47615000Y-82505000D02*
X46740000Y-82505000D01*
X48985000Y-82505000D02*
X48985000Y-83200000D01*
X47615000Y-82505000D02*
X47615000Y-82591724D01*
X48300000Y-82505000D02*
X48985000Y-82505000D01*
%TO.C,J4*%
X31900000Y-64815000D02*
X33230000Y-64815000D01*
X32660000Y-66210000D02*
X33230000Y-66210000D01*
X33230000Y-66210000D02*
X33230000Y-73890000D01*
X30570000Y-66210000D02*
X30570000Y-73890000D01*
X30570000Y-66210000D02*
X31140000Y-66210000D01*
X33230000Y-64815000D02*
X33230000Y-65575000D01*
X30570000Y-73890000D02*
X31592470Y-73890000D01*
X32207530Y-73890000D02*
X33230000Y-73890000D01*
%TO.C,REF\u002A\u002A*%
X42995000Y-102170000D02*
X44325000Y-102170000D01*
X45655000Y-104770000D02*
X45655000Y-104830000D01*
X42995000Y-104770000D02*
X45655000Y-104770000D01*
X42995000Y-104830000D02*
X45655000Y-104830000D01*
X42995000Y-103500000D02*
X42995000Y-102170000D01*
X42995000Y-104770000D02*
X42995000Y-104830000D01*
%TO.C,J3*%
X47675000Y-30275000D02*
X47675000Y-32175000D01*
X49525000Y-30325000D02*
X49525000Y-30275000D01*
X49525000Y-32175000D02*
X49525000Y-30325000D01*
X49525000Y-30275000D02*
X47675000Y-30275000D01*
X47675000Y-32175000D02*
X49525000Y-32175000D01*
%TO.C,J2*%
X47675000Y-74925000D02*
X49525000Y-74925000D01*
X49525000Y-73075000D02*
X49525000Y-73025000D01*
X47675000Y-73025000D02*
X47675000Y-74925000D01*
X49525000Y-73025000D02*
X47675000Y-73025000D01*
X49525000Y-74925000D02*
X49525000Y-73075000D01*
%TO.C,REF\u002A\u002A*%
X37005000Y-104770000D02*
X37005000Y-104830000D01*
X34345000Y-104770000D02*
X37005000Y-104770000D01*
X34345000Y-102170000D02*
X35675000Y-102170000D01*
X34345000Y-103500000D02*
X34345000Y-102170000D01*
X34345000Y-104830000D02*
X37005000Y-104830000D01*
X34345000Y-104770000D02*
X34345000Y-104830000D01*
%TD*%
M02*
