%TF.GenerationSoftware,KiCad,Pcbnew,6.0.2*%
%TF.CreationDate,2022-05-05T15:52:23+02:00*%
%TF.ProjectId,espriktning-rear.sch,65737072-696b-4746-9e69-6e672d726561,rev?*%
%TF.SameCoordinates,Original*%
%TF.FileFunction,Paste,Bot*%
%TF.FilePolarity,Positive*%
%FSLAX46Y46*%
G04 Gerber Fmt 4.6, Leading zero omitted, Abs format (unit mm)*
G04 Created by KiCad (PCBNEW 6.0.2) date 2022-05-05 15:52:23*
%MOMM*%
%LPD*%
G01*
G04 APERTURE LIST*
G04 Aperture macros list*
%AMRoundRect*
0 Rectangle with rounded corners*
0 $1 Rounding radius*
0 $2 $3 $4 $5 $6 $7 $8 $9 X,Y pos of 4 corners*
0 Add a 4 corners polygon primitive as box body*
4,1,4,$2,$3,$4,$5,$6,$7,$8,$9,$2,$3,0*
0 Add four circle primitives for the rounded corners*
1,1,$1+$1,$2,$3*
1,1,$1+$1,$4,$5*
1,1,$1+$1,$6,$7*
1,1,$1+$1,$8,$9*
0 Add four rect primitives between the rounded corners*
20,1,$1+$1,$2,$3,$4,$5,0*
20,1,$1+$1,$4,$5,$6,$7,0*
20,1,$1+$1,$6,$7,$8,$9,0*
20,1,$1+$1,$8,$9,$2,$3,0*%
G04 Aperture macros list end*
%ADD10R,0.600000X0.500000*%
%ADD11R,0.600000X1.620000*%
%ADD12R,0.600000X0.700000*%
%ADD13R,1.620000X0.600000*%
%ADD14R,0.500000X0.600000*%
%ADD15R,0.700000X0.600000*%
%ADD16RoundRect,0.200000X0.200000X0.275000X-0.200000X0.275000X-0.200000X-0.275000X0.200000X-0.275000X0*%
%ADD17RoundRect,0.250000X-0.312500X-1.075000X0.312500X-1.075000X0.312500X1.075000X-0.312500X1.075000X0*%
%ADD18RoundRect,0.250000X0.325000X0.650000X-0.325000X0.650000X-0.325000X-0.650000X0.325000X-0.650000X0*%
%ADD19RoundRect,0.200000X-0.200000X-0.275000X0.200000X-0.275000X0.200000X0.275000X-0.200000X0.275000X0*%
G04 APERTURE END LIST*
D10*
%TO.C,D2*%
X39575000Y-41450000D03*
D11*
X40375000Y-42000000D03*
D12*
X39575000Y-39550000D03*
D11*
X40375000Y-40000000D03*
D10*
X39575000Y-40550000D03*
D12*
X39575000Y-42450000D03*
%TD*%
D10*
%TO.C,D3*%
X39575000Y-56450000D03*
D11*
X40375000Y-57000000D03*
D12*
X39575000Y-54550000D03*
D10*
X39575000Y-55550000D03*
D11*
X40375000Y-55000000D03*
D12*
X39575000Y-57450000D03*
%TD*%
D10*
%TO.C,D4*%
X39575000Y-71450000D03*
D11*
X40375000Y-72000000D03*
D12*
X39575000Y-69550000D03*
D11*
X40375000Y-70000000D03*
D10*
X39575000Y-70550000D03*
D12*
X39575000Y-72450000D03*
%TD*%
D13*
%TO.C,D5*%
X45250000Y-84225000D03*
D14*
X44700000Y-85025000D03*
D15*
X42800000Y-85025000D03*
D14*
X43800000Y-85025000D03*
D13*
X43250000Y-84225000D03*
D15*
X45700000Y-85025000D03*
%TD*%
D11*
%TO.C,D6*%
X47475000Y-88400000D03*
D10*
X46675000Y-87850000D03*
D12*
X46675000Y-85950000D03*
D10*
X46675000Y-86950000D03*
D11*
X47475000Y-86400000D03*
D12*
X46675000Y-88850000D03*
%TD*%
D11*
%TO.C,D7*%
X41025000Y-86400000D03*
D10*
X41825000Y-86950000D03*
D12*
X41825000Y-88850000D03*
D11*
X41025000Y-88400000D03*
D10*
X41825000Y-87850000D03*
D12*
X41825000Y-85950000D03*
%TD*%
D13*
%TO.C,D8*%
X45250000Y-89825000D03*
D14*
X44700000Y-90625000D03*
D15*
X42800000Y-90625000D03*
D14*
X43800000Y-90625000D03*
D13*
X43250000Y-89825000D03*
D15*
X45700000Y-90625000D03*
%TD*%
D10*
%TO.C,D9*%
X46675000Y-93450000D03*
D11*
X47475000Y-94000000D03*
D12*
X46675000Y-91550000D03*
D11*
X47475000Y-92000000D03*
D10*
X46675000Y-92550000D03*
D12*
X46675000Y-94450000D03*
%TD*%
D10*
%TO.C,D10*%
X41825000Y-92550000D03*
D11*
X41025000Y-92000000D03*
D12*
X41825000Y-94450000D03*
D10*
X41825000Y-93450000D03*
D11*
X41025000Y-94000000D03*
D12*
X41825000Y-91550000D03*
%TD*%
D14*
%TO.C,D11*%
X43800000Y-95325000D03*
D13*
X43250000Y-96125000D03*
D15*
X45700000Y-95325000D03*
D13*
X45250000Y-96125000D03*
D14*
X44700000Y-95325000D03*
D15*
X42800000Y-95325000D03*
%TD*%
D14*
%TO.C,D12*%
X36200000Y-85025000D03*
D13*
X36750000Y-84225000D03*
D15*
X34300000Y-85025000D03*
D14*
X35300000Y-85025000D03*
D13*
X34750000Y-84225000D03*
D15*
X37200000Y-85025000D03*
%TD*%
D10*
%TO.C,D13*%
X38175000Y-87850000D03*
D11*
X38975000Y-88400000D03*
D12*
X38175000Y-85950000D03*
D10*
X38175000Y-86950000D03*
D11*
X38975000Y-86400000D03*
D12*
X38175000Y-88850000D03*
%TD*%
D11*
%TO.C,D14*%
X32525000Y-86400000D03*
D10*
X33325000Y-86950000D03*
D12*
X33325000Y-88850000D03*
D11*
X32525000Y-88400000D03*
D10*
X33325000Y-87850000D03*
D12*
X33325000Y-85950000D03*
%TD*%
D13*
%TO.C,D15*%
X36750000Y-89825000D03*
D14*
X36200000Y-90625000D03*
D15*
X34300000Y-90625000D03*
D14*
X35300000Y-90625000D03*
D13*
X34750000Y-89825000D03*
D15*
X37200000Y-90625000D03*
%TD*%
D10*
%TO.C,D16*%
X38175000Y-93450000D03*
D11*
X38975000Y-94000000D03*
D12*
X38175000Y-91550000D03*
D10*
X38175000Y-92550000D03*
D11*
X38975000Y-92000000D03*
D12*
X38175000Y-94450000D03*
%TD*%
D11*
%TO.C,D17*%
X32525000Y-92000000D03*
D10*
X33325000Y-92550000D03*
D12*
X33325000Y-94450000D03*
D11*
X32525000Y-94000000D03*
D10*
X33325000Y-93450000D03*
D12*
X33325000Y-91550000D03*
%TD*%
D14*
%TO.C,D18*%
X35300000Y-95325000D03*
D13*
X34750000Y-96125000D03*
D15*
X37200000Y-95325000D03*
D13*
X36750000Y-96125000D03*
D14*
X36200000Y-95325000D03*
D15*
X34300000Y-95325000D03*
%TD*%
D16*
%TO.C,R7*%
X40775000Y-46300000D03*
X39125000Y-46300000D03*
%TD*%
D17*
%TO.C,R1*%
X38437500Y-48800000D03*
X41362500Y-48800000D03*
%TD*%
D18*
%TO.C,C10*%
X41375000Y-51700000D03*
X38425000Y-51700000D03*
%TD*%
D19*
%TO.C,R2*%
X39125000Y-44750000D03*
X40775000Y-44750000D03*
%TD*%
M02*
