%TF.GenerationSoftware,KiCad,Pcbnew,6.0.2*%
%TF.CreationDate,2022-05-05T15:52:23+02:00*%
%TF.ProjectId,espriktning-rear.sch,65737072-696b-4746-9e69-6e672d726561,rev?*%
%TF.SameCoordinates,Original*%
%TF.FileFunction,Legend,Bot*%
%TF.FilePolarity,Positive*%
%FSLAX46Y46*%
G04 Gerber Fmt 4.6, Leading zero omitted, Abs format (unit mm)*
G04 Created by KiCad (PCBNEW 6.0.2) date 2022-05-05 15:52:23*
%MOMM*%
%LPD*%
G01*
G04 APERTURE LIST*
%ADD10C,0.150000*%
%ADD11C,0.120000*%
%ADD12C,0.010000*%
G04 APERTURE END LIST*
D10*
X30500000Y-83000000D02*
X49500000Y-83000000D01*
X30500000Y-97400000D02*
X49500000Y-97400000D01*
D11*
%TO.C,D2*%
X38861904Y-40409523D02*
X38061904Y-40409523D01*
X38061904Y-40600000D01*
X38100000Y-40714285D01*
X38176190Y-40790476D01*
X38252380Y-40828571D01*
X38404761Y-40866666D01*
X38519047Y-40866666D01*
X38671428Y-40828571D01*
X38747619Y-40790476D01*
X38823809Y-40714285D01*
X38861904Y-40600000D01*
X38861904Y-40409523D01*
X38138095Y-41171428D02*
X38100000Y-41209523D01*
X38061904Y-41285714D01*
X38061904Y-41476190D01*
X38100000Y-41552380D01*
X38138095Y-41590476D01*
X38214285Y-41628571D01*
X38290476Y-41628571D01*
X38404761Y-41590476D01*
X38861904Y-41133333D01*
X38861904Y-41628571D01*
%TO.C,D3*%
X38861904Y-55409523D02*
X38061904Y-55409523D01*
X38061904Y-55600000D01*
X38100000Y-55714285D01*
X38176190Y-55790476D01*
X38252380Y-55828571D01*
X38404761Y-55866666D01*
X38519047Y-55866666D01*
X38671428Y-55828571D01*
X38747619Y-55790476D01*
X38823809Y-55714285D01*
X38861904Y-55600000D01*
X38861904Y-55409523D01*
X38061904Y-56133333D02*
X38061904Y-56628571D01*
X38366666Y-56361904D01*
X38366666Y-56476190D01*
X38404761Y-56552380D01*
X38442857Y-56590476D01*
X38519047Y-56628571D01*
X38709523Y-56628571D01*
X38785714Y-56590476D01*
X38823809Y-56552380D01*
X38861904Y-56476190D01*
X38861904Y-56247619D01*
X38823809Y-56171428D01*
X38785714Y-56133333D01*
%TO.C,D4*%
X38861904Y-70409523D02*
X38061904Y-70409523D01*
X38061904Y-70600000D01*
X38100000Y-70714285D01*
X38176190Y-70790476D01*
X38252380Y-70828571D01*
X38404761Y-70866666D01*
X38519047Y-70866666D01*
X38671428Y-70828571D01*
X38747619Y-70790476D01*
X38823809Y-70714285D01*
X38861904Y-70600000D01*
X38861904Y-70409523D01*
X38328571Y-71552380D02*
X38861904Y-71552380D01*
X38023809Y-71361904D02*
X38595238Y-71171428D01*
X38595238Y-71666666D01*
%TO.C,D5*%
X44840476Y-86461904D02*
X44840476Y-85661904D01*
X44650000Y-85661904D01*
X44535714Y-85700000D01*
X44459523Y-85776190D01*
X44421428Y-85852380D01*
X44383333Y-86004761D01*
X44383333Y-86119047D01*
X44421428Y-86271428D01*
X44459523Y-86347619D01*
X44535714Y-86423809D01*
X44650000Y-86461904D01*
X44840476Y-86461904D01*
X43659523Y-85661904D02*
X44040476Y-85661904D01*
X44078571Y-86042857D01*
X44040476Y-86004761D01*
X43964285Y-85966666D01*
X43773809Y-85966666D01*
X43697619Y-86004761D01*
X43659523Y-86042857D01*
X43621428Y-86119047D01*
X43621428Y-86309523D01*
X43659523Y-86385714D01*
X43697619Y-86423809D01*
X43773809Y-86461904D01*
X43964285Y-86461904D01*
X44040476Y-86423809D01*
X44078571Y-86385714D01*
%TO.C,D6*%
X45961904Y-86809523D02*
X45161904Y-86809523D01*
X45161904Y-87000000D01*
X45200000Y-87114285D01*
X45276190Y-87190476D01*
X45352380Y-87228571D01*
X45504761Y-87266666D01*
X45619047Y-87266666D01*
X45771428Y-87228571D01*
X45847619Y-87190476D01*
X45923809Y-87114285D01*
X45961904Y-87000000D01*
X45961904Y-86809523D01*
X45161904Y-87952380D02*
X45161904Y-87800000D01*
X45200000Y-87723809D01*
X45238095Y-87685714D01*
X45352380Y-87609523D01*
X45504761Y-87571428D01*
X45809523Y-87571428D01*
X45885714Y-87609523D01*
X45923809Y-87647619D01*
X45961904Y-87723809D01*
X45961904Y-87876190D01*
X45923809Y-87952380D01*
X45885714Y-87990476D01*
X45809523Y-88028571D01*
X45619047Y-88028571D01*
X45542857Y-87990476D01*
X45504761Y-87952380D01*
X45466666Y-87876190D01*
X45466666Y-87723809D01*
X45504761Y-87647619D01*
X45542857Y-87609523D01*
X45619047Y-87571428D01*
%TO.C,D7*%
X43261904Y-86809523D02*
X42461904Y-86809523D01*
X42461904Y-87000000D01*
X42500000Y-87114285D01*
X42576190Y-87190476D01*
X42652380Y-87228571D01*
X42804761Y-87266666D01*
X42919047Y-87266666D01*
X43071428Y-87228571D01*
X43147619Y-87190476D01*
X43223809Y-87114285D01*
X43261904Y-87000000D01*
X43261904Y-86809523D01*
X42461904Y-87533333D02*
X42461904Y-88066666D01*
X43261904Y-87723809D01*
%TO.C,D8*%
X44840476Y-92061904D02*
X44840476Y-91261904D01*
X44650000Y-91261904D01*
X44535714Y-91300000D01*
X44459523Y-91376190D01*
X44421428Y-91452380D01*
X44383333Y-91604761D01*
X44383333Y-91719047D01*
X44421428Y-91871428D01*
X44459523Y-91947619D01*
X44535714Y-92023809D01*
X44650000Y-92061904D01*
X44840476Y-92061904D01*
X43926190Y-91604761D02*
X44002380Y-91566666D01*
X44040476Y-91528571D01*
X44078571Y-91452380D01*
X44078571Y-91414285D01*
X44040476Y-91338095D01*
X44002380Y-91300000D01*
X43926190Y-91261904D01*
X43773809Y-91261904D01*
X43697619Y-91300000D01*
X43659523Y-91338095D01*
X43621428Y-91414285D01*
X43621428Y-91452380D01*
X43659523Y-91528571D01*
X43697619Y-91566666D01*
X43773809Y-91604761D01*
X43926190Y-91604761D01*
X44002380Y-91642857D01*
X44040476Y-91680952D01*
X44078571Y-91757142D01*
X44078571Y-91909523D01*
X44040476Y-91985714D01*
X44002380Y-92023809D01*
X43926190Y-92061904D01*
X43773809Y-92061904D01*
X43697619Y-92023809D01*
X43659523Y-91985714D01*
X43621428Y-91909523D01*
X43621428Y-91757142D01*
X43659523Y-91680952D01*
X43697619Y-91642857D01*
X43773809Y-91604761D01*
%TO.C,D9*%
X46061904Y-92409523D02*
X45261904Y-92409523D01*
X45261904Y-92600000D01*
X45300000Y-92714285D01*
X45376190Y-92790476D01*
X45452380Y-92828571D01*
X45604761Y-92866666D01*
X45719047Y-92866666D01*
X45871428Y-92828571D01*
X45947619Y-92790476D01*
X46023809Y-92714285D01*
X46061904Y-92600000D01*
X46061904Y-92409523D01*
X46061904Y-93247619D02*
X46061904Y-93400000D01*
X46023809Y-93476190D01*
X45985714Y-93514285D01*
X45871428Y-93590476D01*
X45719047Y-93628571D01*
X45414285Y-93628571D01*
X45338095Y-93590476D01*
X45300000Y-93552380D01*
X45261904Y-93476190D01*
X45261904Y-93323809D01*
X45300000Y-93247619D01*
X45338095Y-93209523D01*
X45414285Y-93171428D01*
X45604761Y-93171428D01*
X45680952Y-93209523D01*
X45719047Y-93247619D01*
X45757142Y-93323809D01*
X45757142Y-93476190D01*
X45719047Y-93552380D01*
X45680952Y-93590476D01*
X45604761Y-93628571D01*
%TO.C,D10*%
X43161904Y-92028571D02*
X42361904Y-92028571D01*
X42361904Y-92219047D01*
X42400000Y-92333333D01*
X42476190Y-92409523D01*
X42552380Y-92447619D01*
X42704761Y-92485714D01*
X42819047Y-92485714D01*
X42971428Y-92447619D01*
X43047619Y-92409523D01*
X43123809Y-92333333D01*
X43161904Y-92219047D01*
X43161904Y-92028571D01*
X43161904Y-93247619D02*
X43161904Y-92790476D01*
X43161904Y-93019047D02*
X42361904Y-93019047D01*
X42476190Y-92942857D01*
X42552380Y-92866666D01*
X42590476Y-92790476D01*
X42361904Y-93742857D02*
X42361904Y-93819047D01*
X42400000Y-93895238D01*
X42438095Y-93933333D01*
X42514285Y-93971428D01*
X42666666Y-94009523D01*
X42857142Y-94009523D01*
X43009523Y-93971428D01*
X43085714Y-93933333D01*
X43123809Y-93895238D01*
X43161904Y-93819047D01*
X43161904Y-93742857D01*
X43123809Y-93666666D01*
X43085714Y-93628571D01*
X43009523Y-93590476D01*
X42857142Y-93552380D01*
X42666666Y-93552380D01*
X42514285Y-93590476D01*
X42438095Y-93628571D01*
X42400000Y-93666666D01*
X42361904Y-93742857D01*
%TO.C,D11*%
X45221428Y-94861904D02*
X45221428Y-94061904D01*
X45030952Y-94061904D01*
X44916666Y-94100000D01*
X44840476Y-94176190D01*
X44802380Y-94252380D01*
X44764285Y-94404761D01*
X44764285Y-94519047D01*
X44802380Y-94671428D01*
X44840476Y-94747619D01*
X44916666Y-94823809D01*
X45030952Y-94861904D01*
X45221428Y-94861904D01*
X44002380Y-94861904D02*
X44459523Y-94861904D01*
X44230952Y-94861904D02*
X44230952Y-94061904D01*
X44307142Y-94176190D01*
X44383333Y-94252380D01*
X44459523Y-94290476D01*
X43240476Y-94861904D02*
X43697619Y-94861904D01*
X43469047Y-94861904D02*
X43469047Y-94061904D01*
X43545238Y-94176190D01*
X43621428Y-94252380D01*
X43697619Y-94290476D01*
%TO.C,D12*%
X36671428Y-86261904D02*
X36671428Y-85461904D01*
X36480952Y-85461904D01*
X36366666Y-85500000D01*
X36290476Y-85576190D01*
X36252380Y-85652380D01*
X36214285Y-85804761D01*
X36214285Y-85919047D01*
X36252380Y-86071428D01*
X36290476Y-86147619D01*
X36366666Y-86223809D01*
X36480952Y-86261904D01*
X36671428Y-86261904D01*
X35452380Y-86261904D02*
X35909523Y-86261904D01*
X35680952Y-86261904D02*
X35680952Y-85461904D01*
X35757142Y-85576190D01*
X35833333Y-85652380D01*
X35909523Y-85690476D01*
X35147619Y-85538095D02*
X35109523Y-85500000D01*
X35033333Y-85461904D01*
X34842857Y-85461904D01*
X34766666Y-85500000D01*
X34728571Y-85538095D01*
X34690476Y-85614285D01*
X34690476Y-85690476D01*
X34728571Y-85804761D01*
X35185714Y-86261904D01*
X34690476Y-86261904D01*
%TO.C,D13*%
X37761904Y-86628571D02*
X36961904Y-86628571D01*
X36961904Y-86819047D01*
X37000000Y-86933333D01*
X37076190Y-87009523D01*
X37152380Y-87047619D01*
X37304761Y-87085714D01*
X37419047Y-87085714D01*
X37571428Y-87047619D01*
X37647619Y-87009523D01*
X37723809Y-86933333D01*
X37761904Y-86819047D01*
X37761904Y-86628571D01*
X37761904Y-87847619D02*
X37761904Y-87390476D01*
X37761904Y-87619047D02*
X36961904Y-87619047D01*
X37076190Y-87542857D01*
X37152380Y-87466666D01*
X37190476Y-87390476D01*
X36961904Y-88114285D02*
X36961904Y-88609523D01*
X37266666Y-88342857D01*
X37266666Y-88457142D01*
X37304761Y-88533333D01*
X37342857Y-88571428D01*
X37419047Y-88609523D01*
X37609523Y-88609523D01*
X37685714Y-88571428D01*
X37723809Y-88533333D01*
X37761904Y-88457142D01*
X37761904Y-88228571D01*
X37723809Y-88152380D01*
X37685714Y-88114285D01*
%TO.C,D14*%
X34561904Y-86628571D02*
X33761904Y-86628571D01*
X33761904Y-86819047D01*
X33800000Y-86933333D01*
X33876190Y-87009523D01*
X33952380Y-87047619D01*
X34104761Y-87085714D01*
X34219047Y-87085714D01*
X34371428Y-87047619D01*
X34447619Y-87009523D01*
X34523809Y-86933333D01*
X34561904Y-86819047D01*
X34561904Y-86628571D01*
X34561904Y-87847619D02*
X34561904Y-87390476D01*
X34561904Y-87619047D02*
X33761904Y-87619047D01*
X33876190Y-87542857D01*
X33952380Y-87466666D01*
X33990476Y-87390476D01*
X34028571Y-88533333D02*
X34561904Y-88533333D01*
X33723809Y-88342857D02*
X34295238Y-88152380D01*
X34295238Y-88647619D01*
%TO.C,D15*%
X36721428Y-92061904D02*
X36721428Y-91261904D01*
X36530952Y-91261904D01*
X36416666Y-91300000D01*
X36340476Y-91376190D01*
X36302380Y-91452380D01*
X36264285Y-91604761D01*
X36264285Y-91719047D01*
X36302380Y-91871428D01*
X36340476Y-91947619D01*
X36416666Y-92023809D01*
X36530952Y-92061904D01*
X36721428Y-92061904D01*
X35502380Y-92061904D02*
X35959523Y-92061904D01*
X35730952Y-92061904D02*
X35730952Y-91261904D01*
X35807142Y-91376190D01*
X35883333Y-91452380D01*
X35959523Y-91490476D01*
X34778571Y-91261904D02*
X35159523Y-91261904D01*
X35197619Y-91642857D01*
X35159523Y-91604761D01*
X35083333Y-91566666D01*
X34892857Y-91566666D01*
X34816666Y-91604761D01*
X34778571Y-91642857D01*
X34740476Y-91719047D01*
X34740476Y-91909523D01*
X34778571Y-91985714D01*
X34816666Y-92023809D01*
X34892857Y-92061904D01*
X35083333Y-92061904D01*
X35159523Y-92023809D01*
X35197619Y-91985714D01*
%TO.C,D16*%
X37661904Y-92028571D02*
X36861904Y-92028571D01*
X36861904Y-92219047D01*
X36900000Y-92333333D01*
X36976190Y-92409523D01*
X37052380Y-92447619D01*
X37204761Y-92485714D01*
X37319047Y-92485714D01*
X37471428Y-92447619D01*
X37547619Y-92409523D01*
X37623809Y-92333333D01*
X37661904Y-92219047D01*
X37661904Y-92028571D01*
X37661904Y-93247619D02*
X37661904Y-92790476D01*
X37661904Y-93019047D02*
X36861904Y-93019047D01*
X36976190Y-92942857D01*
X37052380Y-92866666D01*
X37090476Y-92790476D01*
X36861904Y-93933333D02*
X36861904Y-93780952D01*
X36900000Y-93704761D01*
X36938095Y-93666666D01*
X37052380Y-93590476D01*
X37204761Y-93552380D01*
X37509523Y-93552380D01*
X37585714Y-93590476D01*
X37623809Y-93628571D01*
X37661904Y-93704761D01*
X37661904Y-93857142D01*
X37623809Y-93933333D01*
X37585714Y-93971428D01*
X37509523Y-94009523D01*
X37319047Y-94009523D01*
X37242857Y-93971428D01*
X37204761Y-93933333D01*
X37166666Y-93857142D01*
X37166666Y-93704761D01*
X37204761Y-93628571D01*
X37242857Y-93590476D01*
X37319047Y-93552380D01*
%TO.C,D17*%
X34561904Y-92028571D02*
X33761904Y-92028571D01*
X33761904Y-92219047D01*
X33800000Y-92333333D01*
X33876190Y-92409523D01*
X33952380Y-92447619D01*
X34104761Y-92485714D01*
X34219047Y-92485714D01*
X34371428Y-92447619D01*
X34447619Y-92409523D01*
X34523809Y-92333333D01*
X34561904Y-92219047D01*
X34561904Y-92028571D01*
X34561904Y-93247619D02*
X34561904Y-92790476D01*
X34561904Y-93019047D02*
X33761904Y-93019047D01*
X33876190Y-92942857D01*
X33952380Y-92866666D01*
X33990476Y-92790476D01*
X33761904Y-93514285D02*
X33761904Y-94047619D01*
X34561904Y-93704761D01*
%TO.C,D18*%
X36721428Y-94761904D02*
X36721428Y-93961904D01*
X36530952Y-93961904D01*
X36416666Y-94000000D01*
X36340476Y-94076190D01*
X36302380Y-94152380D01*
X36264285Y-94304761D01*
X36264285Y-94419047D01*
X36302380Y-94571428D01*
X36340476Y-94647619D01*
X36416666Y-94723809D01*
X36530952Y-94761904D01*
X36721428Y-94761904D01*
X35502380Y-94761904D02*
X35959523Y-94761904D01*
X35730952Y-94761904D02*
X35730952Y-93961904D01*
X35807142Y-94076190D01*
X35883333Y-94152380D01*
X35959523Y-94190476D01*
X35045238Y-94304761D02*
X35121428Y-94266666D01*
X35159523Y-94228571D01*
X35197619Y-94152380D01*
X35197619Y-94114285D01*
X35159523Y-94038095D01*
X35121428Y-94000000D01*
X35045238Y-93961904D01*
X34892857Y-93961904D01*
X34816666Y-94000000D01*
X34778571Y-94038095D01*
X34740476Y-94114285D01*
X34740476Y-94152380D01*
X34778571Y-94228571D01*
X34816666Y-94266666D01*
X34892857Y-94304761D01*
X35045238Y-94304761D01*
X35121428Y-94342857D01*
X35159523Y-94380952D01*
X35197619Y-94457142D01*
X35197619Y-94609523D01*
X35159523Y-94685714D01*
X35121428Y-94723809D01*
X35045238Y-94761904D01*
X34892857Y-94761904D01*
X34816666Y-94723809D01*
X34778571Y-94685714D01*
X34740476Y-94609523D01*
X34740476Y-94457142D01*
X34778571Y-94380952D01*
X34816666Y-94342857D01*
X34892857Y-94304761D01*
D10*
%TO.C,R7*%
X42616666Y-46752380D02*
X42950000Y-46276190D01*
X43188095Y-46752380D02*
X43188095Y-45752380D01*
X42807142Y-45752380D01*
X42711904Y-45800000D01*
X42664285Y-45847619D01*
X42616666Y-45942857D01*
X42616666Y-46085714D01*
X42664285Y-46180952D01*
X42711904Y-46228571D01*
X42807142Y-46276190D01*
X43188095Y-46276190D01*
X42283333Y-45752380D02*
X41616666Y-45752380D01*
X42045238Y-46752380D01*
%TO.C,R1*%
X43316666Y-49252380D02*
X43650000Y-48776190D01*
X43888095Y-49252380D02*
X43888095Y-48252380D01*
X43507142Y-48252380D01*
X43411904Y-48300000D01*
X43364285Y-48347619D01*
X43316666Y-48442857D01*
X43316666Y-48585714D01*
X43364285Y-48680952D01*
X43411904Y-48728571D01*
X43507142Y-48776190D01*
X43888095Y-48776190D01*
X42364285Y-49252380D02*
X42935714Y-49252380D01*
X42650000Y-49252380D02*
X42650000Y-48252380D01*
X42745238Y-48395238D01*
X42840476Y-48490476D01*
X42935714Y-48538095D01*
%TO.C,C10*%
X44242857Y-52057142D02*
X44290476Y-52104761D01*
X44433333Y-52152380D01*
X44528571Y-52152380D01*
X44671428Y-52104761D01*
X44766666Y-52009523D01*
X44814285Y-51914285D01*
X44861904Y-51723809D01*
X44861904Y-51580952D01*
X44814285Y-51390476D01*
X44766666Y-51295238D01*
X44671428Y-51200000D01*
X44528571Y-51152380D01*
X44433333Y-51152380D01*
X44290476Y-51200000D01*
X44242857Y-51247619D01*
X43290476Y-52152380D02*
X43861904Y-52152380D01*
X43576190Y-52152380D02*
X43576190Y-51152380D01*
X43671428Y-51295238D01*
X43766666Y-51390476D01*
X43861904Y-51438095D01*
X42671428Y-51152380D02*
X42576190Y-51152380D01*
X42480952Y-51200000D01*
X42433333Y-51247619D01*
X42385714Y-51342857D01*
X42338095Y-51533333D01*
X42338095Y-51771428D01*
X42385714Y-51961904D01*
X42433333Y-52057142D01*
X42480952Y-52104761D01*
X42576190Y-52152380D01*
X42671428Y-52152380D01*
X42766666Y-52104761D01*
X42814285Y-52057142D01*
X42861904Y-51961904D01*
X42909523Y-51771428D01*
X42909523Y-51533333D01*
X42861904Y-51342857D01*
X42814285Y-51247619D01*
X42766666Y-51200000D01*
X42671428Y-51152380D01*
%TO.C,R2*%
X43041666Y-45202380D02*
X43375000Y-44726190D01*
X43613095Y-45202380D02*
X43613095Y-44202380D01*
X43232142Y-44202380D01*
X43136904Y-44250000D01*
X43089285Y-44297619D01*
X43041666Y-44392857D01*
X43041666Y-44535714D01*
X43089285Y-44630952D01*
X43136904Y-44678571D01*
X43232142Y-44726190D01*
X43613095Y-44726190D01*
X42660714Y-44297619D02*
X42613095Y-44250000D01*
X42517857Y-44202380D01*
X42279761Y-44202380D01*
X42184523Y-44250000D01*
X42136904Y-44297619D01*
X42089285Y-44392857D01*
X42089285Y-44488095D01*
X42136904Y-44630952D01*
X42708333Y-45202380D01*
X42089285Y-45202380D01*
D11*
%TO.C,D2*%
X40000000Y-42600000D02*
X39950000Y-42600000D01*
X39950000Y-39400000D02*
X40000000Y-39400000D01*
X40500000Y-41100000D02*
X40500000Y-40900000D01*
X39500000Y-42000000D02*
X39500000Y-41800000D01*
X39500000Y-40200000D02*
X39500000Y-40000000D01*
X40100000Y-42900000D02*
X40750000Y-42900000D01*
X39500000Y-41100000D02*
X39500000Y-40900000D01*
X40750000Y-42900000D02*
X40750000Y-42300000D01*
%TO.C,D3*%
X40000000Y-57600000D02*
X39950000Y-57600000D01*
X39500000Y-56100000D02*
X39500000Y-55900000D01*
X39500000Y-55200000D02*
X39500000Y-55000000D01*
X40750000Y-57900000D02*
X40750000Y-57300000D01*
X40500000Y-56100000D02*
X40500000Y-55900000D01*
X39950000Y-54400000D02*
X40000000Y-54400000D01*
X40100000Y-57900000D02*
X40750000Y-57900000D01*
X39500000Y-57000000D02*
X39500000Y-56800000D01*
%TO.C,D4*%
X39950000Y-69400000D02*
X40000000Y-69400000D01*
X39500000Y-71100000D02*
X39500000Y-70900000D01*
X39500000Y-70200000D02*
X39500000Y-70000000D01*
X39500000Y-72000000D02*
X39500000Y-71800000D01*
X40750000Y-72900000D02*
X40750000Y-72300000D01*
X40000000Y-72600000D02*
X39950000Y-72600000D01*
X40500000Y-71100000D02*
X40500000Y-70900000D01*
X40100000Y-72900000D02*
X40750000Y-72900000D01*
%TO.C,D5*%
X44350000Y-85100000D02*
X44150000Y-85100000D01*
X45850000Y-84600000D02*
X45850000Y-84650000D01*
X42650000Y-84650000D02*
X42650000Y-84600000D01*
X45250000Y-85100000D02*
X45050000Y-85100000D01*
X46150000Y-84500000D02*
X46150000Y-83850000D01*
X44350000Y-84100000D02*
X44150000Y-84100000D01*
X46150000Y-83850000D02*
X45550000Y-83850000D01*
X43450000Y-85100000D02*
X43250000Y-85100000D01*
%TO.C,D6*%
X47200000Y-89300000D02*
X47850000Y-89300000D01*
X46600000Y-88400000D02*
X46600000Y-88200000D01*
X46600000Y-87500000D02*
X46600000Y-87300000D01*
X47850000Y-89300000D02*
X47850000Y-88700000D01*
X47600000Y-87500000D02*
X47600000Y-87300000D01*
X47100000Y-89000000D02*
X47050000Y-89000000D01*
X47050000Y-85800000D02*
X47100000Y-85800000D01*
X46600000Y-86600000D02*
X46600000Y-86400000D01*
%TO.C,D7*%
X41900000Y-88200000D02*
X41900000Y-88400000D01*
X40650000Y-85500000D02*
X40650000Y-86100000D01*
X41450000Y-89000000D02*
X41400000Y-89000000D01*
X40900000Y-87300000D02*
X40900000Y-87500000D01*
X41900000Y-86400000D02*
X41900000Y-86600000D01*
X41900000Y-87300000D02*
X41900000Y-87500000D01*
X41300000Y-85500000D02*
X40650000Y-85500000D01*
X41400000Y-85800000D02*
X41450000Y-85800000D01*
%TO.C,D8*%
X46150000Y-89450000D02*
X45550000Y-89450000D01*
X44350000Y-89700000D02*
X44150000Y-89700000D01*
X46150000Y-90100000D02*
X46150000Y-89450000D01*
X45850000Y-90200000D02*
X45850000Y-90250000D01*
X43450000Y-90700000D02*
X43250000Y-90700000D01*
X44350000Y-90700000D02*
X44150000Y-90700000D01*
X42650000Y-90250000D02*
X42650000Y-90200000D01*
X45250000Y-90700000D02*
X45050000Y-90700000D01*
%TO.C,D9*%
X46600000Y-94000000D02*
X46600000Y-93800000D01*
X46600000Y-93100000D02*
X46600000Y-92900000D01*
X47200000Y-94900000D02*
X47850000Y-94900000D01*
X47100000Y-94600000D02*
X47050000Y-94600000D01*
X47600000Y-93100000D02*
X47600000Y-92900000D01*
X47850000Y-94900000D02*
X47850000Y-94300000D01*
X47050000Y-91400000D02*
X47100000Y-91400000D01*
X46600000Y-92200000D02*
X46600000Y-92000000D01*
%TO.C,D10*%
X40900000Y-92900000D02*
X40900000Y-93100000D01*
X41300000Y-91100000D02*
X40650000Y-91100000D01*
X40650000Y-91100000D02*
X40650000Y-91700000D01*
X41900000Y-92900000D02*
X41900000Y-93100000D01*
X41900000Y-93800000D02*
X41900000Y-94000000D01*
X41450000Y-94600000D02*
X41400000Y-94600000D01*
X41900000Y-92000000D02*
X41900000Y-92200000D01*
X41400000Y-91400000D02*
X41450000Y-91400000D01*
%TO.C,D11*%
X45050000Y-95250000D02*
X45250000Y-95250000D01*
X44150000Y-95250000D02*
X44350000Y-95250000D01*
X42350000Y-95850000D02*
X42350000Y-96500000D01*
X45850000Y-95700000D02*
X45850000Y-95750000D01*
X43250000Y-95250000D02*
X43450000Y-95250000D01*
X42650000Y-95750000D02*
X42650000Y-95700000D01*
X44150000Y-96250000D02*
X44350000Y-96250000D01*
X42350000Y-96500000D02*
X42950000Y-96500000D01*
%TO.C,D12*%
X35850000Y-85100000D02*
X35650000Y-85100000D01*
X37350000Y-84600000D02*
X37350000Y-84650000D01*
X37650000Y-84500000D02*
X37650000Y-83850000D01*
X34150000Y-84650000D02*
X34150000Y-84600000D01*
X34950000Y-85100000D02*
X34750000Y-85100000D01*
X35850000Y-84100000D02*
X35650000Y-84100000D01*
X36750000Y-85100000D02*
X36550000Y-85100000D01*
X37650000Y-83850000D02*
X37050000Y-83850000D01*
%TO.C,D13*%
X38550000Y-85800000D02*
X38600000Y-85800000D01*
X39350000Y-89300000D02*
X39350000Y-88700000D01*
X38100000Y-87500000D02*
X38100000Y-87300000D01*
X38600000Y-89000000D02*
X38550000Y-89000000D01*
X38100000Y-88400000D02*
X38100000Y-88200000D01*
X38100000Y-86600000D02*
X38100000Y-86400000D01*
X39100000Y-87500000D02*
X39100000Y-87300000D01*
X38700000Y-89300000D02*
X39350000Y-89300000D01*
%TO.C,D14*%
X32150000Y-85500000D02*
X32150000Y-86100000D01*
X32900000Y-85800000D02*
X32950000Y-85800000D01*
X33400000Y-88200000D02*
X33400000Y-88400000D01*
X32400000Y-87300000D02*
X32400000Y-87500000D01*
X33400000Y-86400000D02*
X33400000Y-86600000D01*
X32800000Y-85500000D02*
X32150000Y-85500000D01*
X33400000Y-87300000D02*
X33400000Y-87500000D01*
X32950000Y-89000000D02*
X32900000Y-89000000D01*
%TO.C,D15*%
X35850000Y-89700000D02*
X35650000Y-89700000D01*
X34950000Y-90700000D02*
X34750000Y-90700000D01*
X36750000Y-90700000D02*
X36550000Y-90700000D01*
X37650000Y-90100000D02*
X37650000Y-89450000D01*
X35850000Y-90700000D02*
X35650000Y-90700000D01*
X37350000Y-90200000D02*
X37350000Y-90250000D01*
X34150000Y-90250000D02*
X34150000Y-90200000D01*
X37650000Y-89450000D02*
X37050000Y-89450000D01*
%TO.C,D16*%
X38700000Y-94900000D02*
X39350000Y-94900000D01*
X38100000Y-94000000D02*
X38100000Y-93800000D01*
X38550000Y-91400000D02*
X38600000Y-91400000D01*
X39350000Y-94900000D02*
X39350000Y-94300000D01*
X38600000Y-94600000D02*
X38550000Y-94600000D01*
X39100000Y-93100000D02*
X39100000Y-92900000D01*
X38100000Y-92200000D02*
X38100000Y-92000000D01*
X38100000Y-93100000D02*
X38100000Y-92900000D01*
%TO.C,D17*%
X32800000Y-91100000D02*
X32150000Y-91100000D01*
X32950000Y-94600000D02*
X32900000Y-94600000D01*
X32400000Y-92900000D02*
X32400000Y-93100000D01*
X32900000Y-91400000D02*
X32950000Y-91400000D01*
X33400000Y-92900000D02*
X33400000Y-93100000D01*
X33400000Y-93800000D02*
X33400000Y-94000000D01*
X33400000Y-92000000D02*
X33400000Y-92200000D01*
X32150000Y-91100000D02*
X32150000Y-91700000D01*
%TO.C,D18*%
X35650000Y-96250000D02*
X35850000Y-96250000D01*
X35650000Y-95250000D02*
X35850000Y-95250000D01*
X36550000Y-95250000D02*
X36750000Y-95250000D01*
X34750000Y-95250000D02*
X34950000Y-95250000D01*
X37350000Y-95700000D02*
X37350000Y-95750000D01*
X34150000Y-95750000D02*
X34150000Y-95700000D01*
X33850000Y-96500000D02*
X34450000Y-96500000D01*
X33850000Y-95850000D02*
X33850000Y-96500000D01*
%TO.C,R7*%
X40187258Y-46822500D02*
X39712742Y-46822500D01*
X40187258Y-45777500D02*
X39712742Y-45777500D01*
D12*
%TO.C,REF\u002A\u002A*%
X39444186Y-32068931D02*
X39360365Y-32513555D01*
X39360365Y-32513555D02*
X39051080Y-32641053D01*
X39051080Y-32641053D02*
X38741794Y-32768551D01*
X38741794Y-32768551D02*
X38370754Y-32516246D01*
X38370754Y-32516246D02*
X38266843Y-32445996D01*
X38266843Y-32445996D02*
X38172913Y-32383272D01*
X38172913Y-32383272D02*
X38093348Y-32330938D01*
X38093348Y-32330938D02*
X38032530Y-32291857D01*
X38032530Y-32291857D02*
X37994843Y-32268893D01*
X37994843Y-32268893D02*
X37984579Y-32263942D01*
X37984579Y-32263942D02*
X37966090Y-32276676D01*
X37966090Y-32276676D02*
X37926580Y-32311882D01*
X37926580Y-32311882D02*
X37870478Y-32365062D01*
X37870478Y-32365062D02*
X37802213Y-32431718D01*
X37802213Y-32431718D02*
X37726214Y-32507354D01*
X37726214Y-32507354D02*
X37646908Y-32587472D01*
X37646908Y-32587472D02*
X37568725Y-32667574D01*
X37568725Y-32667574D02*
X37496093Y-32743164D01*
X37496093Y-32743164D02*
X37433441Y-32809745D01*
X37433441Y-32809745D02*
X37385197Y-32862818D01*
X37385197Y-32862818D02*
X37355790Y-32897887D01*
X37355790Y-32897887D02*
X37348759Y-32909623D01*
X37348759Y-32909623D02*
X37358877Y-32931260D01*
X37358877Y-32931260D02*
X37387241Y-32978662D01*
X37387241Y-32978662D02*
X37430871Y-33047193D01*
X37430871Y-33047193D02*
X37486782Y-33132215D01*
X37486782Y-33132215D02*
X37551994Y-33229093D01*
X37551994Y-33229093D02*
X37589781Y-33284350D01*
X37589781Y-33284350D02*
X37658657Y-33385248D01*
X37658657Y-33385248D02*
X37719860Y-33476299D01*
X37719860Y-33476299D02*
X37770422Y-33552970D01*
X37770422Y-33552970D02*
X37807372Y-33610728D01*
X37807372Y-33610728D02*
X37827742Y-33645043D01*
X37827742Y-33645043D02*
X37830803Y-33652254D01*
X37830803Y-33652254D02*
X37823864Y-33672748D01*
X37823864Y-33672748D02*
X37804949Y-33720513D01*
X37804949Y-33720513D02*
X37776913Y-33788832D01*
X37776913Y-33788832D02*
X37742609Y-33870989D01*
X37742609Y-33870989D02*
X37704891Y-33960270D01*
X37704891Y-33960270D02*
X37666613Y-34049958D01*
X37666613Y-34049958D02*
X37630630Y-34133338D01*
X37630630Y-34133338D02*
X37599794Y-34203694D01*
X37599794Y-34203694D02*
X37576961Y-34254310D01*
X37576961Y-34254310D02*
X37564983Y-34278471D01*
X37564983Y-34278471D02*
X37564276Y-34279422D01*
X37564276Y-34279422D02*
X37545469Y-34284036D01*
X37545469Y-34284036D02*
X37495382Y-34294328D01*
X37495382Y-34294328D02*
X37419207Y-34309287D01*
X37419207Y-34309287D02*
X37322135Y-34327901D01*
X37322135Y-34327901D02*
X37209357Y-34349159D01*
X37209357Y-34349159D02*
X37143558Y-34361418D01*
X37143558Y-34361418D02*
X37023050Y-34384362D01*
X37023050Y-34384362D02*
X36914203Y-34406195D01*
X36914203Y-34406195D02*
X36822524Y-34425722D01*
X36822524Y-34425722D02*
X36753519Y-34441748D01*
X36753519Y-34441748D02*
X36712696Y-34453079D01*
X36712696Y-34453079D02*
X36704489Y-34456674D01*
X36704489Y-34456674D02*
X36696452Y-34481006D01*
X36696452Y-34481006D02*
X36689967Y-34535959D01*
X36689967Y-34535959D02*
X36685030Y-34615108D01*
X36685030Y-34615108D02*
X36681636Y-34712026D01*
X36681636Y-34712026D02*
X36679782Y-34820287D01*
X36679782Y-34820287D02*
X36679462Y-34933465D01*
X36679462Y-34933465D02*
X36680673Y-35045135D01*
X36680673Y-35045135D02*
X36683410Y-35148868D01*
X36683410Y-35148868D02*
X36687669Y-35238241D01*
X36687669Y-35238241D02*
X36693445Y-35306826D01*
X36693445Y-35306826D02*
X36700733Y-35348197D01*
X36700733Y-35348197D02*
X36705105Y-35356810D01*
X36705105Y-35356810D02*
X36731236Y-35367133D01*
X36731236Y-35367133D02*
X36786607Y-35381892D01*
X36786607Y-35381892D02*
X36863893Y-35399352D01*
X36863893Y-35399352D02*
X36955770Y-35417780D01*
X36955770Y-35417780D02*
X36987842Y-35423741D01*
X36987842Y-35423741D02*
X37142476Y-35452066D01*
X37142476Y-35452066D02*
X37264625Y-35474876D01*
X37264625Y-35474876D02*
X37358327Y-35493080D01*
X37358327Y-35493080D02*
X37427616Y-35507583D01*
X37427616Y-35507583D02*
X37476529Y-35519292D01*
X37476529Y-35519292D02*
X37509103Y-35529115D01*
X37509103Y-35529115D02*
X37529372Y-35537956D01*
X37529372Y-35537956D02*
X37541374Y-35546724D01*
X37541374Y-35546724D02*
X37543053Y-35548457D01*
X37543053Y-35548457D02*
X37559816Y-35576371D01*
X37559816Y-35576371D02*
X37585386Y-35630695D01*
X37585386Y-35630695D02*
X37617212Y-35704777D01*
X37617212Y-35704777D02*
X37652740Y-35791965D01*
X37652740Y-35791965D02*
X37689417Y-35885608D01*
X37689417Y-35885608D02*
X37724689Y-35979052D01*
X37724689Y-35979052D02*
X37756004Y-36065647D01*
X37756004Y-36065647D02*
X37780807Y-36138740D01*
X37780807Y-36138740D02*
X37796546Y-36191678D01*
X37796546Y-36191678D02*
X37800668Y-36217811D01*
X37800668Y-36217811D02*
X37800324Y-36218726D01*
X37800324Y-36218726D02*
X37786359Y-36240086D01*
X37786359Y-36240086D02*
X37754678Y-36287084D01*
X37754678Y-36287084D02*
X37708609Y-36354827D01*
X37708609Y-36354827D02*
X37651482Y-36438423D01*
X37651482Y-36438423D02*
X37586627Y-36532982D01*
X37586627Y-36532982D02*
X37568157Y-36559854D01*
X37568157Y-36559854D02*
X37502301Y-36657275D01*
X37502301Y-36657275D02*
X37444350Y-36746163D01*
X37444350Y-36746163D02*
X37397462Y-36821412D01*
X37397462Y-36821412D02*
X37364793Y-36877920D01*
X37364793Y-36877920D02*
X37349500Y-36910581D01*
X37349500Y-36910581D02*
X37348759Y-36914593D01*
X37348759Y-36914593D02*
X37361608Y-36935684D01*
X37361608Y-36935684D02*
X37397112Y-36977464D01*
X37397112Y-36977464D02*
X37450707Y-37035445D01*
X37450707Y-37035445D02*
X37517829Y-37105135D01*
X37517829Y-37105135D02*
X37593913Y-37182045D01*
X37593913Y-37182045D02*
X37674396Y-37261683D01*
X37674396Y-37261683D02*
X37754713Y-37339561D01*
X37754713Y-37339561D02*
X37830301Y-37411186D01*
X37830301Y-37411186D02*
X37896595Y-37472070D01*
X37896595Y-37472070D02*
X37949031Y-37517721D01*
X37949031Y-37517721D02*
X37983045Y-37543650D01*
X37983045Y-37543650D02*
X37992455Y-37547883D01*
X37992455Y-37547883D02*
X38014357Y-37537912D01*
X38014357Y-37537912D02*
X38059200Y-37511020D01*
X38059200Y-37511020D02*
X38119679Y-37471736D01*
X38119679Y-37471736D02*
X38166211Y-37440117D01*
X38166211Y-37440117D02*
X38250525Y-37382098D01*
X38250525Y-37382098D02*
X38350374Y-37313784D01*
X38350374Y-37313784D02*
X38450527Y-37245579D01*
X38450527Y-37245579D02*
X38504373Y-37209075D01*
X38504373Y-37209075D02*
X38686629Y-37085800D01*
X38686629Y-37085800D02*
X38839619Y-37168520D01*
X38839619Y-37168520D02*
X38909318Y-37204759D01*
X38909318Y-37204759D02*
X38968586Y-37232926D01*
X38968586Y-37232926D02*
X39008689Y-37248991D01*
X39008689Y-37248991D02*
X39018897Y-37251226D01*
X39018897Y-37251226D02*
X39031171Y-37234722D01*
X39031171Y-37234722D02*
X39055387Y-37188082D01*
X39055387Y-37188082D02*
X39089737Y-37115609D01*
X39089737Y-37115609D02*
X39132412Y-37021606D01*
X39132412Y-37021606D02*
X39181606Y-36910374D01*
X39181606Y-36910374D02*
X39235510Y-36786215D01*
X39235510Y-36786215D02*
X39292316Y-36653432D01*
X39292316Y-36653432D02*
X39350218Y-36516327D01*
X39350218Y-36516327D02*
X39407407Y-36379202D01*
X39407407Y-36379202D02*
X39462076Y-36246358D01*
X39462076Y-36246358D02*
X39512416Y-36122098D01*
X39512416Y-36122098D02*
X39556620Y-36010725D01*
X39556620Y-36010725D02*
X39592881Y-35916539D01*
X39592881Y-35916539D02*
X39619391Y-35843844D01*
X39619391Y-35843844D02*
X39634342Y-35796941D01*
X39634342Y-35796941D02*
X39636746Y-35780833D01*
X39636746Y-35780833D02*
X39617689Y-35760286D01*
X39617689Y-35760286D02*
X39575964Y-35726933D01*
X39575964Y-35726933D02*
X39520294Y-35687702D01*
X39520294Y-35687702D02*
X39515622Y-35684599D01*
X39515622Y-35684599D02*
X39371736Y-35569423D01*
X39371736Y-35569423D02*
X39255717Y-35435053D01*
X39255717Y-35435053D02*
X39168570Y-35285784D01*
X39168570Y-35285784D02*
X39111301Y-35125913D01*
X39111301Y-35125913D02*
X39084914Y-34959737D01*
X39084914Y-34959737D02*
X39090415Y-34791552D01*
X39090415Y-34791552D02*
X39128810Y-34625655D01*
X39128810Y-34625655D02*
X39201105Y-34466342D01*
X39201105Y-34466342D02*
X39222374Y-34431487D01*
X39222374Y-34431487D02*
X39333004Y-34290737D01*
X39333004Y-34290737D02*
X39463698Y-34177714D01*
X39463698Y-34177714D02*
X39609936Y-34093003D01*
X39609936Y-34093003D02*
X39767192Y-34037194D01*
X39767192Y-34037194D02*
X39930943Y-34010874D01*
X39930943Y-34010874D02*
X40096667Y-34014630D01*
X40096667Y-34014630D02*
X40259838Y-34049050D01*
X40259838Y-34049050D02*
X40415935Y-34114723D01*
X40415935Y-34114723D02*
X40560433Y-34212235D01*
X40560433Y-34212235D02*
X40605131Y-34251813D01*
X40605131Y-34251813D02*
X40718888Y-34375703D01*
X40718888Y-34375703D02*
X40801782Y-34506124D01*
X40801782Y-34506124D02*
X40858644Y-34652315D01*
X40858644Y-34652315D02*
X40890313Y-34797088D01*
X40890313Y-34797088D02*
X40898131Y-34959860D01*
X40898131Y-34959860D02*
X40872062Y-35123440D01*
X40872062Y-35123440D02*
X40814755Y-35282298D01*
X40814755Y-35282298D02*
X40728856Y-35430906D01*
X40728856Y-35430906D02*
X40617014Y-35563735D01*
X40617014Y-35563735D02*
X40481877Y-35675256D01*
X40481877Y-35675256D02*
X40464117Y-35687011D01*
X40464117Y-35687011D02*
X40407850Y-35725508D01*
X40407850Y-35725508D02*
X40365077Y-35758863D01*
X40365077Y-35758863D02*
X40344628Y-35780160D01*
X40344628Y-35780160D02*
X40344331Y-35780833D01*
X40344331Y-35780833D02*
X40348721Y-35803871D01*
X40348721Y-35803871D02*
X40366124Y-35856157D01*
X40366124Y-35856157D02*
X40394732Y-35933390D01*
X40394732Y-35933390D02*
X40432735Y-36031268D01*
X40432735Y-36031268D02*
X40478326Y-36145491D01*
X40478326Y-36145491D02*
X40529697Y-36271758D01*
X40529697Y-36271758D02*
X40585038Y-36405767D01*
X40585038Y-36405767D02*
X40642542Y-36543218D01*
X40642542Y-36543218D02*
X40700399Y-36679808D01*
X40700399Y-36679808D02*
X40756802Y-36811237D01*
X40756802Y-36811237D02*
X40809942Y-36933205D01*
X40809942Y-36933205D02*
X40858010Y-37041409D01*
X40858010Y-37041409D02*
X40899199Y-37131549D01*
X40899199Y-37131549D02*
X40931699Y-37199323D01*
X40931699Y-37199323D02*
X40953703Y-37240430D01*
X40953703Y-37240430D02*
X40962564Y-37251226D01*
X40962564Y-37251226D02*
X40989640Y-37242819D01*
X40989640Y-37242819D02*
X41040303Y-37220272D01*
X41040303Y-37220272D02*
X41105817Y-37187613D01*
X41105817Y-37187613D02*
X41141841Y-37168520D01*
X41141841Y-37168520D02*
X41294832Y-37085800D01*
X41294832Y-37085800D02*
X41477088Y-37209075D01*
X41477088Y-37209075D02*
X41570125Y-37272228D01*
X41570125Y-37272228D02*
X41671985Y-37341727D01*
X41671985Y-37341727D02*
X41767438Y-37407165D01*
X41767438Y-37407165D02*
X41815250Y-37440117D01*
X41815250Y-37440117D02*
X41882495Y-37485273D01*
X41882495Y-37485273D02*
X41939436Y-37521057D01*
X41939436Y-37521057D02*
X41978646Y-37542938D01*
X41978646Y-37542938D02*
X41991381Y-37547563D01*
X41991381Y-37547563D02*
X42009917Y-37535085D01*
X42009917Y-37535085D02*
X42050941Y-37500252D01*
X42050941Y-37500252D02*
X42110475Y-37446678D01*
X42110475Y-37446678D02*
X42184542Y-37377983D01*
X42184542Y-37377983D02*
X42269165Y-37297781D01*
X42269165Y-37297781D02*
X42322685Y-37246286D01*
X42322685Y-37246286D02*
X42416319Y-37154286D01*
X42416319Y-37154286D02*
X42497241Y-37071999D01*
X42497241Y-37071999D02*
X42562177Y-37002945D01*
X42562177Y-37002945D02*
X42607858Y-36950644D01*
X42607858Y-36950644D02*
X42631011Y-36918616D01*
X42631011Y-36918616D02*
X42633232Y-36912116D01*
X42633232Y-36912116D02*
X42622924Y-36887394D01*
X42622924Y-36887394D02*
X42594439Y-36837405D01*
X42594439Y-36837405D02*
X42550937Y-36767212D01*
X42550937Y-36767212D02*
X42495577Y-36681875D01*
X42495577Y-36681875D02*
X42431520Y-36586456D01*
X42431520Y-36586456D02*
X42413303Y-36559854D01*
X42413303Y-36559854D02*
X42346927Y-36463167D01*
X42346927Y-36463167D02*
X42287378Y-36376117D01*
X42287378Y-36376117D02*
X42237984Y-36303595D01*
X42237984Y-36303595D02*
X42202075Y-36250493D01*
X42202075Y-36250493D02*
X42182981Y-36221703D01*
X42182981Y-36221703D02*
X42181136Y-36218726D01*
X42181136Y-36218726D02*
X42183895Y-36195782D01*
X42183895Y-36195782D02*
X42198538Y-36145336D01*
X42198538Y-36145336D02*
X42222513Y-36074041D01*
X42222513Y-36074041D02*
X42253266Y-35988547D01*
X42253266Y-35988547D02*
X42288244Y-35895507D01*
X42288244Y-35895507D02*
X42324893Y-35801574D01*
X42324893Y-35801574D02*
X42360661Y-35713399D01*
X42360661Y-35713399D02*
X42392994Y-35637634D01*
X42392994Y-35637634D02*
X42419338Y-35580931D01*
X42419338Y-35580931D02*
X42437142Y-35549943D01*
X42437142Y-35549943D02*
X42438407Y-35548457D01*
X42438407Y-35548457D02*
X42449294Y-35539601D01*
X42449294Y-35539601D02*
X42467682Y-35530843D01*
X42467682Y-35530843D02*
X42497606Y-35521277D01*
X42497606Y-35521277D02*
X42543103Y-35509996D01*
X42543103Y-35509996D02*
X42608209Y-35496093D01*
X42608209Y-35496093D02*
X42696961Y-35478663D01*
X42696961Y-35478663D02*
X42813393Y-35456798D01*
X42813393Y-35456798D02*
X42961542Y-35429591D01*
X42961542Y-35429591D02*
X42993618Y-35423741D01*
X42993618Y-35423741D02*
X43088686Y-35405374D01*
X43088686Y-35405374D02*
X43171565Y-35387405D01*
X43171565Y-35387405D02*
X43234930Y-35371569D01*
X43234930Y-35371569D02*
X43271458Y-35359600D01*
X43271458Y-35359600D02*
X43276356Y-35356810D01*
X43276356Y-35356810D02*
X43284427Y-35332072D01*
X43284427Y-35332072D02*
X43290987Y-35276790D01*
X43290987Y-35276790D02*
X43296033Y-35197389D01*
X43296033Y-35197389D02*
X43299559Y-35100296D01*
X43299559Y-35100296D02*
X43301561Y-34991938D01*
X43301561Y-34991938D02*
X43302036Y-34878740D01*
X43302036Y-34878740D02*
X43300977Y-34767128D01*
X43300977Y-34767128D02*
X43298382Y-34663529D01*
X43298382Y-34663529D02*
X43294246Y-34574368D01*
X43294246Y-34574368D02*
X43288563Y-34506072D01*
X43288563Y-34506072D02*
X43281331Y-34465066D01*
X43281331Y-34465066D02*
X43276971Y-34456674D01*
X43276971Y-34456674D02*
X43252698Y-34448208D01*
X43252698Y-34448208D02*
X43197426Y-34434435D01*
X43197426Y-34434435D02*
X43116662Y-34416550D01*
X43116662Y-34416550D02*
X43015912Y-34395748D01*
X43015912Y-34395748D02*
X42900683Y-34373223D01*
X42900683Y-34373223D02*
X42837902Y-34361418D01*
X42837902Y-34361418D02*
X42718787Y-34339151D01*
X42718787Y-34339151D02*
X42612565Y-34318979D01*
X42612565Y-34318979D02*
X42524427Y-34301915D01*
X42524427Y-34301915D02*
X42459566Y-34288969D01*
X42459566Y-34288969D02*
X42423174Y-34281155D01*
X42423174Y-34281155D02*
X42417184Y-34279422D01*
X42417184Y-34279422D02*
X42407061Y-34259890D01*
X42407061Y-34259890D02*
X42385662Y-34212843D01*
X42385662Y-34212843D02*
X42355839Y-34145003D01*
X42355839Y-34145003D02*
X42320445Y-34063091D01*
X42320445Y-34063091D02*
X42282332Y-33973828D01*
X42282332Y-33973828D02*
X42244353Y-33883935D01*
X42244353Y-33883935D02*
X42209360Y-33800135D01*
X42209360Y-33800135D02*
X42180206Y-33729147D01*
X42180206Y-33729147D02*
X42159743Y-33677694D01*
X42159743Y-33677694D02*
X42150823Y-33652497D01*
X42150823Y-33652497D02*
X42150657Y-33651396D01*
X42150657Y-33651396D02*
X42160769Y-33631519D01*
X42160769Y-33631519D02*
X42189117Y-33585777D01*
X42189117Y-33585777D02*
X42232723Y-33518717D01*
X42232723Y-33518717D02*
X42288606Y-33434884D01*
X42288606Y-33434884D02*
X42353787Y-33338826D01*
X42353787Y-33338826D02*
X42391679Y-33283650D01*
X42391679Y-33283650D02*
X42460725Y-33182481D01*
X42460725Y-33182481D02*
X42522050Y-33090630D01*
X42522050Y-33090630D02*
X42572663Y-33012744D01*
X42572663Y-33012744D02*
X42609571Y-32953469D01*
X42609571Y-32953469D02*
X42629782Y-32917451D01*
X42629782Y-32917451D02*
X42632701Y-32909377D01*
X42632701Y-32909377D02*
X42620153Y-32890584D01*
X42620153Y-32890584D02*
X42585463Y-32850457D01*
X42585463Y-32850457D02*
X42533063Y-32793493D01*
X42533063Y-32793493D02*
X42467384Y-32724185D01*
X42467384Y-32724185D02*
X42392856Y-32647031D01*
X42392856Y-32647031D02*
X42313913Y-32566525D01*
X42313913Y-32566525D02*
X42234983Y-32487163D01*
X42234983Y-32487163D02*
X42160500Y-32413440D01*
X42160500Y-32413440D02*
X42094894Y-32349852D01*
X42094894Y-32349852D02*
X42042596Y-32300894D01*
X42042596Y-32300894D02*
X42008039Y-32271061D01*
X42008039Y-32271061D02*
X41996478Y-32263942D01*
X41996478Y-32263942D02*
X41977654Y-32273953D01*
X41977654Y-32273953D02*
X41932631Y-32302078D01*
X41932631Y-32302078D02*
X41865787Y-32345454D01*
X41865787Y-32345454D02*
X41781499Y-32401218D01*
X41781499Y-32401218D02*
X41684144Y-32466506D01*
X41684144Y-32466506D02*
X41610707Y-32516246D01*
X41610707Y-32516246D02*
X41239667Y-32768551D01*
X41239667Y-32768551D02*
X40621095Y-32513555D01*
X40621095Y-32513555D02*
X40537275Y-32068931D01*
X40537275Y-32068931D02*
X40453454Y-31624307D01*
X40453454Y-31624307D02*
X39528006Y-31624307D01*
X39528006Y-31624307D02*
X39444186Y-32068931D01*
X39444186Y-32068931D02*
X39444186Y-32068931D01*
G36*
X40537275Y-32068931D02*
G01*
X40621095Y-32513555D01*
X41239667Y-32768551D01*
X41610707Y-32516246D01*
X41684144Y-32466506D01*
X41781499Y-32401218D01*
X41865787Y-32345454D01*
X41932631Y-32302078D01*
X41977654Y-32273953D01*
X41996478Y-32263942D01*
X42008039Y-32271061D01*
X42042596Y-32300894D01*
X42094894Y-32349852D01*
X42160500Y-32413440D01*
X42234983Y-32487163D01*
X42313913Y-32566525D01*
X42392856Y-32647031D01*
X42467384Y-32724185D01*
X42533063Y-32793493D01*
X42585463Y-32850457D01*
X42620153Y-32890584D01*
X42632701Y-32909377D01*
X42629782Y-32917451D01*
X42609571Y-32953469D01*
X42572663Y-33012744D01*
X42522050Y-33090630D01*
X42460725Y-33182481D01*
X42391679Y-33283650D01*
X42353787Y-33338826D01*
X42288606Y-33434884D01*
X42232723Y-33518717D01*
X42189117Y-33585777D01*
X42160769Y-33631519D01*
X42150657Y-33651396D01*
X42150823Y-33652497D01*
X42159743Y-33677694D01*
X42180206Y-33729147D01*
X42209360Y-33800135D01*
X42244353Y-33883935D01*
X42282332Y-33973828D01*
X42320445Y-34063091D01*
X42355839Y-34145003D01*
X42385662Y-34212843D01*
X42407061Y-34259890D01*
X42417184Y-34279422D01*
X42423174Y-34281155D01*
X42459566Y-34288969D01*
X42524427Y-34301915D01*
X42612565Y-34318979D01*
X42718787Y-34339151D01*
X42837902Y-34361418D01*
X42900683Y-34373223D01*
X43015912Y-34395748D01*
X43116662Y-34416550D01*
X43197426Y-34434435D01*
X43252698Y-34448208D01*
X43276971Y-34456674D01*
X43281331Y-34465066D01*
X43288563Y-34506072D01*
X43294246Y-34574368D01*
X43298382Y-34663529D01*
X43300977Y-34767128D01*
X43302036Y-34878740D01*
X43301561Y-34991938D01*
X43299559Y-35100296D01*
X43296033Y-35197389D01*
X43290987Y-35276790D01*
X43284427Y-35332072D01*
X43276356Y-35356810D01*
X43271458Y-35359600D01*
X43234930Y-35371569D01*
X43171565Y-35387405D01*
X43088686Y-35405374D01*
X42993618Y-35423741D01*
X42961542Y-35429591D01*
X42813393Y-35456798D01*
X42696961Y-35478663D01*
X42608209Y-35496093D01*
X42543103Y-35509996D01*
X42497606Y-35521277D01*
X42467682Y-35530843D01*
X42449294Y-35539601D01*
X42438407Y-35548457D01*
X42437142Y-35549943D01*
X42419338Y-35580931D01*
X42392994Y-35637634D01*
X42360661Y-35713399D01*
X42324893Y-35801574D01*
X42288244Y-35895507D01*
X42253266Y-35988547D01*
X42222513Y-36074041D01*
X42198538Y-36145336D01*
X42183895Y-36195782D01*
X42181136Y-36218726D01*
X42182981Y-36221703D01*
X42202075Y-36250493D01*
X42237984Y-36303595D01*
X42287378Y-36376117D01*
X42346927Y-36463167D01*
X42413303Y-36559854D01*
X42431520Y-36586456D01*
X42495577Y-36681875D01*
X42550937Y-36767212D01*
X42594439Y-36837405D01*
X42622924Y-36887394D01*
X42633232Y-36912116D01*
X42631011Y-36918616D01*
X42607858Y-36950644D01*
X42562177Y-37002945D01*
X42497241Y-37071999D01*
X42416319Y-37154286D01*
X42322685Y-37246286D01*
X42269165Y-37297781D01*
X42184542Y-37377983D01*
X42110475Y-37446678D01*
X42050941Y-37500252D01*
X42009917Y-37535085D01*
X41991381Y-37547563D01*
X41978646Y-37542938D01*
X41939436Y-37521057D01*
X41882495Y-37485273D01*
X41815250Y-37440117D01*
X41767438Y-37407165D01*
X41671985Y-37341727D01*
X41570125Y-37272228D01*
X41477088Y-37209075D01*
X41294832Y-37085800D01*
X41141841Y-37168520D01*
X41105817Y-37187613D01*
X41040303Y-37220272D01*
X40989640Y-37242819D01*
X40962564Y-37251226D01*
X40953703Y-37240430D01*
X40931699Y-37199323D01*
X40899199Y-37131549D01*
X40858010Y-37041409D01*
X40809942Y-36933205D01*
X40756802Y-36811237D01*
X40700399Y-36679808D01*
X40642542Y-36543218D01*
X40585038Y-36405767D01*
X40529697Y-36271758D01*
X40478326Y-36145491D01*
X40432735Y-36031268D01*
X40394732Y-35933390D01*
X40366124Y-35856157D01*
X40348721Y-35803871D01*
X40344331Y-35780833D01*
X40344628Y-35780160D01*
X40365077Y-35758863D01*
X40407850Y-35725508D01*
X40464117Y-35687011D01*
X40481877Y-35675256D01*
X40617014Y-35563735D01*
X40728856Y-35430906D01*
X40814755Y-35282298D01*
X40872062Y-35123440D01*
X40898131Y-34959860D01*
X40890313Y-34797088D01*
X40858644Y-34652315D01*
X40801782Y-34506124D01*
X40718888Y-34375703D01*
X40605131Y-34251813D01*
X40560433Y-34212235D01*
X40415935Y-34114723D01*
X40259838Y-34049050D01*
X40096667Y-34014630D01*
X39930943Y-34010874D01*
X39767192Y-34037194D01*
X39609936Y-34093003D01*
X39463698Y-34177714D01*
X39333004Y-34290737D01*
X39222374Y-34431487D01*
X39201105Y-34466342D01*
X39128810Y-34625655D01*
X39090415Y-34791552D01*
X39084914Y-34959737D01*
X39111301Y-35125913D01*
X39168570Y-35285784D01*
X39255717Y-35435053D01*
X39371736Y-35569423D01*
X39515622Y-35684599D01*
X39520294Y-35687702D01*
X39575964Y-35726933D01*
X39617689Y-35760286D01*
X39636746Y-35780833D01*
X39634342Y-35796941D01*
X39619391Y-35843844D01*
X39592881Y-35916539D01*
X39556620Y-36010725D01*
X39512416Y-36122098D01*
X39462076Y-36246358D01*
X39407407Y-36379202D01*
X39350218Y-36516327D01*
X39292316Y-36653432D01*
X39235510Y-36786215D01*
X39181606Y-36910374D01*
X39132412Y-37021606D01*
X39089737Y-37115609D01*
X39055387Y-37188082D01*
X39031171Y-37234722D01*
X39018897Y-37251226D01*
X39008689Y-37248991D01*
X38968586Y-37232926D01*
X38909318Y-37204759D01*
X38839619Y-37168520D01*
X38686629Y-37085800D01*
X38504373Y-37209075D01*
X38450527Y-37245579D01*
X38350374Y-37313784D01*
X38250525Y-37382098D01*
X38166211Y-37440117D01*
X38119679Y-37471736D01*
X38059200Y-37511020D01*
X38014357Y-37537912D01*
X37992455Y-37547883D01*
X37983045Y-37543650D01*
X37949031Y-37517721D01*
X37896595Y-37472070D01*
X37830301Y-37411186D01*
X37754713Y-37339561D01*
X37674396Y-37261683D01*
X37593913Y-37182045D01*
X37517829Y-37105135D01*
X37450707Y-37035445D01*
X37397112Y-36977464D01*
X37361608Y-36935684D01*
X37348759Y-36914593D01*
X37349500Y-36910581D01*
X37364793Y-36877920D01*
X37397462Y-36821412D01*
X37444350Y-36746163D01*
X37502301Y-36657275D01*
X37568157Y-36559854D01*
X37586627Y-36532982D01*
X37651482Y-36438423D01*
X37708609Y-36354827D01*
X37754678Y-36287084D01*
X37786359Y-36240086D01*
X37800324Y-36218726D01*
X37800668Y-36217811D01*
X37796546Y-36191678D01*
X37780807Y-36138740D01*
X37756004Y-36065647D01*
X37724689Y-35979052D01*
X37689417Y-35885608D01*
X37652740Y-35791965D01*
X37617212Y-35704777D01*
X37585386Y-35630695D01*
X37559816Y-35576371D01*
X37543053Y-35548457D01*
X37541374Y-35546724D01*
X37529372Y-35537956D01*
X37509103Y-35529115D01*
X37476529Y-35519292D01*
X37427616Y-35507583D01*
X37358327Y-35493080D01*
X37264625Y-35474876D01*
X37142476Y-35452066D01*
X36987842Y-35423741D01*
X36955770Y-35417780D01*
X36863893Y-35399352D01*
X36786607Y-35381892D01*
X36731236Y-35367133D01*
X36705105Y-35356810D01*
X36700733Y-35348197D01*
X36693445Y-35306826D01*
X36687669Y-35238241D01*
X36683410Y-35148868D01*
X36680673Y-35045135D01*
X36679462Y-34933465D01*
X36679782Y-34820287D01*
X36681636Y-34712026D01*
X36685030Y-34615108D01*
X36689967Y-34535959D01*
X36696452Y-34481006D01*
X36704489Y-34456674D01*
X36712696Y-34453079D01*
X36753519Y-34441748D01*
X36822524Y-34425722D01*
X36914203Y-34406195D01*
X37023050Y-34384362D01*
X37143558Y-34361418D01*
X37209357Y-34349159D01*
X37322135Y-34327901D01*
X37419207Y-34309287D01*
X37495382Y-34294328D01*
X37545469Y-34284036D01*
X37564276Y-34279422D01*
X37564983Y-34278471D01*
X37576961Y-34254310D01*
X37599794Y-34203694D01*
X37630630Y-34133338D01*
X37666613Y-34049958D01*
X37704891Y-33960270D01*
X37742609Y-33870989D01*
X37776913Y-33788832D01*
X37804949Y-33720513D01*
X37823864Y-33672748D01*
X37830803Y-33652254D01*
X37827742Y-33645043D01*
X37807372Y-33610728D01*
X37770422Y-33552970D01*
X37719860Y-33476299D01*
X37658657Y-33385248D01*
X37589781Y-33284350D01*
X37551994Y-33229093D01*
X37486782Y-33132215D01*
X37430871Y-33047193D01*
X37387241Y-32978662D01*
X37358877Y-32931260D01*
X37348759Y-32909623D01*
X37355790Y-32897887D01*
X37385197Y-32862818D01*
X37433441Y-32809745D01*
X37496093Y-32743164D01*
X37568725Y-32667574D01*
X37646908Y-32587472D01*
X37726214Y-32507354D01*
X37802213Y-32431718D01*
X37870478Y-32365062D01*
X37926580Y-32311882D01*
X37966090Y-32276676D01*
X37984579Y-32263942D01*
X37994843Y-32268893D01*
X38032530Y-32291857D01*
X38093348Y-32330938D01*
X38172913Y-32383272D01*
X38266843Y-32445996D01*
X38370754Y-32516246D01*
X38741794Y-32768551D01*
X39051080Y-32641053D01*
X39360365Y-32513555D01*
X39444186Y-32068931D01*
X39528006Y-31624307D01*
X40453454Y-31624307D01*
X40537275Y-32068931D01*
G37*
X40537275Y-32068931D02*
X40621095Y-32513555D01*
X41239667Y-32768551D01*
X41610707Y-32516246D01*
X41684144Y-32466506D01*
X41781499Y-32401218D01*
X41865787Y-32345454D01*
X41932631Y-32302078D01*
X41977654Y-32273953D01*
X41996478Y-32263942D01*
X42008039Y-32271061D01*
X42042596Y-32300894D01*
X42094894Y-32349852D01*
X42160500Y-32413440D01*
X42234983Y-32487163D01*
X42313913Y-32566525D01*
X42392856Y-32647031D01*
X42467384Y-32724185D01*
X42533063Y-32793493D01*
X42585463Y-32850457D01*
X42620153Y-32890584D01*
X42632701Y-32909377D01*
X42629782Y-32917451D01*
X42609571Y-32953469D01*
X42572663Y-33012744D01*
X42522050Y-33090630D01*
X42460725Y-33182481D01*
X42391679Y-33283650D01*
X42353787Y-33338826D01*
X42288606Y-33434884D01*
X42232723Y-33518717D01*
X42189117Y-33585777D01*
X42160769Y-33631519D01*
X42150657Y-33651396D01*
X42150823Y-33652497D01*
X42159743Y-33677694D01*
X42180206Y-33729147D01*
X42209360Y-33800135D01*
X42244353Y-33883935D01*
X42282332Y-33973828D01*
X42320445Y-34063091D01*
X42355839Y-34145003D01*
X42385662Y-34212843D01*
X42407061Y-34259890D01*
X42417184Y-34279422D01*
X42423174Y-34281155D01*
X42459566Y-34288969D01*
X42524427Y-34301915D01*
X42612565Y-34318979D01*
X42718787Y-34339151D01*
X42837902Y-34361418D01*
X42900683Y-34373223D01*
X43015912Y-34395748D01*
X43116662Y-34416550D01*
X43197426Y-34434435D01*
X43252698Y-34448208D01*
X43276971Y-34456674D01*
X43281331Y-34465066D01*
X43288563Y-34506072D01*
X43294246Y-34574368D01*
X43298382Y-34663529D01*
X43300977Y-34767128D01*
X43302036Y-34878740D01*
X43301561Y-34991938D01*
X43299559Y-35100296D01*
X43296033Y-35197389D01*
X43290987Y-35276790D01*
X43284427Y-35332072D01*
X43276356Y-35356810D01*
X43271458Y-35359600D01*
X43234930Y-35371569D01*
X43171565Y-35387405D01*
X43088686Y-35405374D01*
X42993618Y-35423741D01*
X42961542Y-35429591D01*
X42813393Y-35456798D01*
X42696961Y-35478663D01*
X42608209Y-35496093D01*
X42543103Y-35509996D01*
X42497606Y-35521277D01*
X42467682Y-35530843D01*
X42449294Y-35539601D01*
X42438407Y-35548457D01*
X42437142Y-35549943D01*
X42419338Y-35580931D01*
X42392994Y-35637634D01*
X42360661Y-35713399D01*
X42324893Y-35801574D01*
X42288244Y-35895507D01*
X42253266Y-35988547D01*
X42222513Y-36074041D01*
X42198538Y-36145336D01*
X42183895Y-36195782D01*
X42181136Y-36218726D01*
X42182981Y-36221703D01*
X42202075Y-36250493D01*
X42237984Y-36303595D01*
X42287378Y-36376117D01*
X42346927Y-36463167D01*
X42413303Y-36559854D01*
X42431520Y-36586456D01*
X42495577Y-36681875D01*
X42550937Y-36767212D01*
X42594439Y-36837405D01*
X42622924Y-36887394D01*
X42633232Y-36912116D01*
X42631011Y-36918616D01*
X42607858Y-36950644D01*
X42562177Y-37002945D01*
X42497241Y-37071999D01*
X42416319Y-37154286D01*
X42322685Y-37246286D01*
X42269165Y-37297781D01*
X42184542Y-37377983D01*
X42110475Y-37446678D01*
X42050941Y-37500252D01*
X42009917Y-37535085D01*
X41991381Y-37547563D01*
X41978646Y-37542938D01*
X41939436Y-37521057D01*
X41882495Y-37485273D01*
X41815250Y-37440117D01*
X41767438Y-37407165D01*
X41671985Y-37341727D01*
X41570125Y-37272228D01*
X41477088Y-37209075D01*
X41294832Y-37085800D01*
X41141841Y-37168520D01*
X41105817Y-37187613D01*
X41040303Y-37220272D01*
X40989640Y-37242819D01*
X40962564Y-37251226D01*
X40953703Y-37240430D01*
X40931699Y-37199323D01*
X40899199Y-37131549D01*
X40858010Y-37041409D01*
X40809942Y-36933205D01*
X40756802Y-36811237D01*
X40700399Y-36679808D01*
X40642542Y-36543218D01*
X40585038Y-36405767D01*
X40529697Y-36271758D01*
X40478326Y-36145491D01*
X40432735Y-36031268D01*
X40394732Y-35933390D01*
X40366124Y-35856157D01*
X40348721Y-35803871D01*
X40344331Y-35780833D01*
X40344628Y-35780160D01*
X40365077Y-35758863D01*
X40407850Y-35725508D01*
X40464117Y-35687011D01*
X40481877Y-35675256D01*
X40617014Y-35563735D01*
X40728856Y-35430906D01*
X40814755Y-35282298D01*
X40872062Y-35123440D01*
X40898131Y-34959860D01*
X40890313Y-34797088D01*
X40858644Y-34652315D01*
X40801782Y-34506124D01*
X40718888Y-34375703D01*
X40605131Y-34251813D01*
X40560433Y-34212235D01*
X40415935Y-34114723D01*
X40259838Y-34049050D01*
X40096667Y-34014630D01*
X39930943Y-34010874D01*
X39767192Y-34037194D01*
X39609936Y-34093003D01*
X39463698Y-34177714D01*
X39333004Y-34290737D01*
X39222374Y-34431487D01*
X39201105Y-34466342D01*
X39128810Y-34625655D01*
X39090415Y-34791552D01*
X39084914Y-34959737D01*
X39111301Y-35125913D01*
X39168570Y-35285784D01*
X39255717Y-35435053D01*
X39371736Y-35569423D01*
X39515622Y-35684599D01*
X39520294Y-35687702D01*
X39575964Y-35726933D01*
X39617689Y-35760286D01*
X39636746Y-35780833D01*
X39634342Y-35796941D01*
X39619391Y-35843844D01*
X39592881Y-35916539D01*
X39556620Y-36010725D01*
X39512416Y-36122098D01*
X39462076Y-36246358D01*
X39407407Y-36379202D01*
X39350218Y-36516327D01*
X39292316Y-36653432D01*
X39235510Y-36786215D01*
X39181606Y-36910374D01*
X39132412Y-37021606D01*
X39089737Y-37115609D01*
X39055387Y-37188082D01*
X39031171Y-37234722D01*
X39018897Y-37251226D01*
X39008689Y-37248991D01*
X38968586Y-37232926D01*
X38909318Y-37204759D01*
X38839619Y-37168520D01*
X38686629Y-37085800D01*
X38504373Y-37209075D01*
X38450527Y-37245579D01*
X38350374Y-37313784D01*
X38250525Y-37382098D01*
X38166211Y-37440117D01*
X38119679Y-37471736D01*
X38059200Y-37511020D01*
X38014357Y-37537912D01*
X37992455Y-37547883D01*
X37983045Y-37543650D01*
X37949031Y-37517721D01*
X37896595Y-37472070D01*
X37830301Y-37411186D01*
X37754713Y-37339561D01*
X37674396Y-37261683D01*
X37593913Y-37182045D01*
X37517829Y-37105135D01*
X37450707Y-37035445D01*
X37397112Y-36977464D01*
X37361608Y-36935684D01*
X37348759Y-36914593D01*
X37349500Y-36910581D01*
X37364793Y-36877920D01*
X37397462Y-36821412D01*
X37444350Y-36746163D01*
X37502301Y-36657275D01*
X37568157Y-36559854D01*
X37586627Y-36532982D01*
X37651482Y-36438423D01*
X37708609Y-36354827D01*
X37754678Y-36287084D01*
X37786359Y-36240086D01*
X37800324Y-36218726D01*
X37800668Y-36217811D01*
X37796546Y-36191678D01*
X37780807Y-36138740D01*
X37756004Y-36065647D01*
X37724689Y-35979052D01*
X37689417Y-35885608D01*
X37652740Y-35791965D01*
X37617212Y-35704777D01*
X37585386Y-35630695D01*
X37559816Y-35576371D01*
X37543053Y-35548457D01*
X37541374Y-35546724D01*
X37529372Y-35537956D01*
X37509103Y-35529115D01*
X37476529Y-35519292D01*
X37427616Y-35507583D01*
X37358327Y-35493080D01*
X37264625Y-35474876D01*
X37142476Y-35452066D01*
X36987842Y-35423741D01*
X36955770Y-35417780D01*
X36863893Y-35399352D01*
X36786607Y-35381892D01*
X36731236Y-35367133D01*
X36705105Y-35356810D01*
X36700733Y-35348197D01*
X36693445Y-35306826D01*
X36687669Y-35238241D01*
X36683410Y-35148868D01*
X36680673Y-35045135D01*
X36679462Y-34933465D01*
X36679782Y-34820287D01*
X36681636Y-34712026D01*
X36685030Y-34615108D01*
X36689967Y-34535959D01*
X36696452Y-34481006D01*
X36704489Y-34456674D01*
X36712696Y-34453079D01*
X36753519Y-34441748D01*
X36822524Y-34425722D01*
X36914203Y-34406195D01*
X37023050Y-34384362D01*
X37143558Y-34361418D01*
X37209357Y-34349159D01*
X37322135Y-34327901D01*
X37419207Y-34309287D01*
X37495382Y-34294328D01*
X37545469Y-34284036D01*
X37564276Y-34279422D01*
X37564983Y-34278471D01*
X37576961Y-34254310D01*
X37599794Y-34203694D01*
X37630630Y-34133338D01*
X37666613Y-34049958D01*
X37704891Y-33960270D01*
X37742609Y-33870989D01*
X37776913Y-33788832D01*
X37804949Y-33720513D01*
X37823864Y-33672748D01*
X37830803Y-33652254D01*
X37827742Y-33645043D01*
X37807372Y-33610728D01*
X37770422Y-33552970D01*
X37719860Y-33476299D01*
X37658657Y-33385248D01*
X37589781Y-33284350D01*
X37551994Y-33229093D01*
X37486782Y-33132215D01*
X37430871Y-33047193D01*
X37387241Y-32978662D01*
X37358877Y-32931260D01*
X37348759Y-32909623D01*
X37355790Y-32897887D01*
X37385197Y-32862818D01*
X37433441Y-32809745D01*
X37496093Y-32743164D01*
X37568725Y-32667574D01*
X37646908Y-32587472D01*
X37726214Y-32507354D01*
X37802213Y-32431718D01*
X37870478Y-32365062D01*
X37926580Y-32311882D01*
X37966090Y-32276676D01*
X37984579Y-32263942D01*
X37994843Y-32268893D01*
X38032530Y-32291857D01*
X38093348Y-32330938D01*
X38172913Y-32383272D01*
X38266843Y-32445996D01*
X38370754Y-32516246D01*
X38741794Y-32768551D01*
X39051080Y-32641053D01*
X39360365Y-32513555D01*
X39444186Y-32068931D01*
X39528006Y-31624307D01*
X40453454Y-31624307D01*
X40537275Y-32068931D01*
D11*
%TO.C,R1*%
X39176263Y-47445000D02*
X40623737Y-47445000D01*
X39176263Y-50155000D02*
X40623737Y-50155000D01*
%TO.C,C10*%
X40611252Y-52610000D02*
X39188748Y-52610000D01*
X40611252Y-50790000D02*
X39188748Y-50790000D01*
%TO.C,R2*%
X39712742Y-45272500D02*
X40187258Y-45272500D01*
X39712742Y-44227500D02*
X40187258Y-44227500D01*
%TD*%
M02*
