%TF.GenerationSoftware,KiCad,Pcbnew,6.0.2*%
%TF.CreationDate,2022-05-05T15:49:37+02:00*%
%TF.ProjectId,espriktning,65737072-696b-4746-9e69-6e672e6b6963,rev?*%
%TF.SameCoordinates,Original*%
%TF.FileFunction,Legend,Top*%
%TF.FilePolarity,Positive*%
%FSLAX46Y46*%
G04 Gerber Fmt 4.6, Leading zero omitted, Abs format (unit mm)*
G04 Created by KiCad (PCBNEW 6.0.2) date 2022-05-05 15:49:37*
%MOMM*%
%LPD*%
G01*
G04 APERTURE LIST*
%ADD10C,0.135466*%
%ADD11C,0.100000*%
%ADD12C,0.120000*%
%ADD13C,0.150000*%
%ADD14C,0.152400*%
G04 APERTURE END LIST*
D10*
X39601930Y-76208877D02*
X38969035Y-77474666D01*
X38951930Y-75952298D02*
X38088115Y-77645718D01*
X38464431Y-75481904D02*
X37600615Y-77175323D01*
X38181622Y-75249721D02*
X38216404Y-75071377D01*
X38156375Y-75416742D02*
X38181622Y-75249721D01*
X38140333Y-75572672D02*
X38156375Y-75416742D01*
X38133161Y-75717742D02*
X38140333Y-75572672D01*
X38134527Y-75852184D02*
X38133161Y-75717742D01*
X38144100Y-75976230D02*
X38134527Y-75852184D01*
X38161545Y-76090112D02*
X38144100Y-75976230D01*
X38186531Y-76194061D02*
X38161545Y-76090112D01*
X38218725Y-76288309D02*
X38186531Y-76194061D01*
X38257794Y-76373088D02*
X38218725Y-76288309D01*
X38303406Y-76448630D02*
X38257794Y-76373088D01*
X38355227Y-76515166D02*
X38303406Y-76448630D01*
X38412926Y-76572927D02*
X38355227Y-76515166D01*
X38476170Y-76622147D02*
X38412926Y-76572927D01*
X38544626Y-76663055D02*
X38476170Y-76622147D01*
X38617961Y-76695885D02*
X38544626Y-76663055D01*
X38695843Y-76720868D02*
X38617961Y-76695885D01*
X38777940Y-76738235D02*
X38695843Y-76720868D01*
X38863917Y-76748218D02*
X38777940Y-76738235D01*
X38953444Y-76751049D02*
X38863917Y-76748218D01*
X39046187Y-76746960D02*
X38953444Y-76751049D01*
X39141814Y-76736183D02*
X39046187Y-76746960D01*
X39239992Y-76718948D02*
X39141814Y-76736183D01*
X39340389Y-76695488D02*
X39239992Y-76718948D01*
X39442671Y-76666035D02*
X39340389Y-76695488D01*
X39546506Y-76630820D02*
X39442671Y-76666035D01*
X39757506Y-76544031D02*
X39546506Y-76630820D01*
X39970727Y-76436976D02*
X39757506Y-76544031D01*
X40183508Y-76311508D02*
X39970727Y-76436976D01*
X38224957Y-75032891D02*
X38224957Y-75032891D01*
X38224957Y-75032891D02*
X38224957Y-75032891D01*
X38063761Y-75283144D02*
X38224957Y-75032891D01*
X37925338Y-75522587D02*
X38063761Y-75283144D01*
X37808853Y-75750939D02*
X37925338Y-75522587D01*
X37713468Y-75967922D02*
X37808853Y-75750939D01*
X37638347Y-76173257D02*
X37713468Y-75967922D01*
X37582654Y-76366665D02*
X37638347Y-76173257D01*
X37545552Y-76547867D02*
X37582654Y-76366665D01*
X37526205Y-76716582D02*
X37545552Y-76547867D01*
X37523776Y-76872533D02*
X37526205Y-76716582D01*
X37537428Y-77015441D02*
X37523776Y-76872533D01*
X37566326Y-77145025D02*
X37537428Y-77015441D01*
X37609633Y-77261008D02*
X37566326Y-77145025D01*
X37666512Y-77363109D02*
X37609633Y-77261008D01*
X37736127Y-77451050D02*
X37666512Y-77363109D01*
X37817641Y-77524552D02*
X37736127Y-77451050D01*
X37910219Y-77583335D02*
X37817641Y-77524552D01*
X38013022Y-77627121D02*
X37910219Y-77583335D01*
X38125216Y-77655630D02*
X38013022Y-77627121D01*
X38245963Y-77668583D02*
X38125216Y-77655630D01*
X38374427Y-77665702D02*
X38245963Y-77668583D01*
X38509771Y-77646706D02*
X38374427Y-77665702D01*
X38651160Y-77611317D02*
X38509771Y-77646706D01*
X38797756Y-77559256D02*
X38651160Y-77611317D01*
X38948723Y-77490244D02*
X38797756Y-77559256D01*
X39103225Y-77404001D02*
X38948723Y-77490244D01*
X39260424Y-77300249D02*
X39103225Y-77404001D01*
X39419486Y-77178708D02*
X39260424Y-77300249D01*
X39579573Y-77039099D02*
X39419486Y-77178708D01*
X39739848Y-76881143D02*
X39579573Y-77039099D01*
X39899476Y-76704561D02*
X39739848Y-76881143D01*
X40057619Y-76509074D02*
X39899476Y-76704561D01*
X40213442Y-76294403D02*
X40057619Y-76509074D01*
X40213442Y-76294403D02*
X40213442Y-76294403D01*
X40036355Y-76274139D02*
X40213442Y-76294403D01*
X39865823Y-76247273D02*
X40036355Y-76274139D01*
X39701951Y-76213546D02*
X39865823Y-76247273D01*
X39544843Y-76172700D02*
X39701951Y-76213546D01*
X39394602Y-76124474D02*
X39544843Y-76172700D01*
X39322089Y-76097513D02*
X39394602Y-76124474D01*
X39251332Y-76068611D02*
X39322089Y-76097513D01*
X39182345Y-76037734D02*
X39251332Y-76068611D01*
X39115139Y-76004850D02*
X39182345Y-76037734D01*
X39049728Y-75969927D02*
X39115139Y-76004850D01*
X38986124Y-75932933D02*
X39049728Y-75969927D01*
X38924342Y-75893835D02*
X38986124Y-75932933D01*
X38864394Y-75852601D02*
X38924342Y-75893835D01*
X38806292Y-75809198D02*
X38864394Y-75852601D01*
X38750051Y-75763595D02*
X38806292Y-75809198D01*
X38695682Y-75715758D02*
X38750051Y-75763595D01*
X38643200Y-75665655D02*
X38695682Y-75715758D01*
X38592616Y-75613255D02*
X38643200Y-75665655D01*
X38543944Y-75558523D02*
X38592616Y-75613255D01*
X38497197Y-75501429D02*
X38543944Y-75558523D01*
X38452388Y-75441940D02*
X38497197Y-75501429D01*
X38409529Y-75380023D02*
X38452388Y-75441940D01*
X38368635Y-75315646D02*
X38409529Y-75380023D01*
X38329718Y-75248777D02*
X38368635Y-75315646D01*
X38292790Y-75179383D02*
X38329718Y-75248777D01*
X38257866Y-75107432D02*
X38292790Y-75179383D01*
X38224957Y-75032891D02*
X38257866Y-75107432D01*
X40914757Y-75058549D02*
X40859165Y-75537496D01*
X40914757Y-75058549D02*
X40914757Y-75058549D01*
X40102258Y-74763483D02*
X40914757Y-75058549D01*
X40102258Y-74763483D02*
X40102258Y-74763483D01*
X39875614Y-73745721D02*
X40102258Y-74763483D01*
X39875614Y-73745721D02*
X39875614Y-73745721D01*
X39110154Y-73737168D02*
X39875614Y-73745721D01*
X40153995Y-75677002D02*
X40154189Y-75669325D01*
X40154189Y-75669325D02*
X40154765Y-75661749D01*
X40154765Y-75661749D02*
X40155714Y-75654283D01*
X40155714Y-75654283D02*
X40157025Y-75646937D01*
X40157025Y-75646937D02*
X40158691Y-75639719D01*
X40158691Y-75639719D02*
X40160701Y-75632640D01*
X40160701Y-75632640D02*
X40163047Y-75625709D01*
X40163047Y-75625709D02*
X40165718Y-75618934D01*
X40165718Y-75618934D02*
X40168705Y-75612326D01*
X40168705Y-75612326D02*
X40172000Y-75605894D01*
X40172000Y-75605894D02*
X40175592Y-75599647D01*
X40175592Y-75599647D02*
X40179472Y-75593594D01*
X40179472Y-75593594D02*
X40183631Y-75587745D01*
X40183631Y-75587745D02*
X40188060Y-75582110D01*
X40188060Y-75582110D02*
X40192749Y-75576697D01*
X40192749Y-75576697D02*
X40197688Y-75571516D01*
X40197688Y-75571516D02*
X40202869Y-75566576D01*
X40202869Y-75566576D02*
X40208282Y-75561887D01*
X40208282Y-75561887D02*
X40213918Y-75557459D01*
X40213918Y-75557459D02*
X40219767Y-75553300D01*
X40219767Y-75553300D02*
X40225819Y-75549419D01*
X40225819Y-75549419D02*
X40232066Y-75545827D01*
X40232066Y-75545827D02*
X40238499Y-75542533D01*
X40238499Y-75542533D02*
X40245107Y-75539545D01*
X40245107Y-75539545D02*
X40251881Y-75536874D01*
X40251881Y-75536874D02*
X40258813Y-75534529D01*
X40258813Y-75534529D02*
X40265892Y-75532518D01*
X40265892Y-75532518D02*
X40273109Y-75530853D01*
X40273109Y-75530853D02*
X40280456Y-75529541D01*
X40280456Y-75529541D02*
X40287922Y-75528592D01*
X40287922Y-75528592D02*
X40295498Y-75528016D01*
X40295498Y-75528016D02*
X40303174Y-75527822D01*
X40303174Y-75527822D02*
X40310851Y-75528016D01*
X40310851Y-75528016D02*
X40318427Y-75528592D01*
X40318427Y-75528592D02*
X40325893Y-75529541D01*
X40325893Y-75529541D02*
X40333239Y-75530853D01*
X40333239Y-75530853D02*
X40340457Y-75532518D01*
X40340457Y-75532518D02*
X40347536Y-75534529D01*
X40347536Y-75534529D02*
X40354468Y-75536874D01*
X40354468Y-75536874D02*
X40361242Y-75539545D01*
X40361242Y-75539545D02*
X40367850Y-75542533D01*
X40367850Y-75542533D02*
X40374283Y-75545827D01*
X40374283Y-75545827D02*
X40380530Y-75549419D01*
X40380530Y-75549419D02*
X40386582Y-75553300D01*
X40386582Y-75553300D02*
X40392431Y-75557459D01*
X40392431Y-75557459D02*
X40398067Y-75561887D01*
X40398067Y-75561887D02*
X40403480Y-75566576D01*
X40403480Y-75566576D02*
X40408661Y-75571516D01*
X40408661Y-75571516D02*
X40413600Y-75576697D01*
X40413600Y-75576697D02*
X40418289Y-75582110D01*
X40418289Y-75582110D02*
X40422718Y-75587745D01*
X40422718Y-75587745D02*
X40426877Y-75593594D01*
X40426877Y-75593594D02*
X40430757Y-75599647D01*
X40430757Y-75599647D02*
X40434349Y-75605894D01*
X40434349Y-75605894D02*
X40437644Y-75612326D01*
X40437644Y-75612326D02*
X40440631Y-75618934D01*
X40440631Y-75618934D02*
X40443302Y-75625709D01*
X40443302Y-75625709D02*
X40445648Y-75632640D01*
X40445648Y-75632640D02*
X40447658Y-75639719D01*
X40447658Y-75639719D02*
X40449324Y-75646937D01*
X40449324Y-75646937D02*
X40450636Y-75654283D01*
X40450636Y-75654283D02*
X40451584Y-75661749D01*
X40451584Y-75661749D02*
X40452160Y-75669325D01*
X40452160Y-75669325D02*
X40452355Y-75677002D01*
X40452355Y-75677002D02*
X40452160Y-75684679D01*
X40452160Y-75684679D02*
X40451584Y-75692255D01*
X40451584Y-75692255D02*
X40450636Y-75699720D01*
X40450636Y-75699720D02*
X40449324Y-75707067D01*
X40449324Y-75707067D02*
X40447658Y-75714284D01*
X40447658Y-75714284D02*
X40445648Y-75721363D01*
X40445648Y-75721363D02*
X40443302Y-75728295D01*
X40443302Y-75728295D02*
X40440631Y-75735069D01*
X40440631Y-75735069D02*
X40437644Y-75741678D01*
X40437644Y-75741678D02*
X40434349Y-75748110D01*
X40434349Y-75748110D02*
X40430757Y-75754357D01*
X40430757Y-75754357D02*
X40426877Y-75760410D01*
X40426877Y-75760410D02*
X40422718Y-75766259D01*
X40422718Y-75766259D02*
X40418289Y-75771894D01*
X40418289Y-75771894D02*
X40413600Y-75777307D01*
X40413600Y-75777307D02*
X40408661Y-75782488D01*
X40408661Y-75782488D02*
X40403480Y-75787428D01*
X40403480Y-75787428D02*
X40398067Y-75792116D01*
X40398067Y-75792116D02*
X40392431Y-75796545D01*
X40392431Y-75796545D02*
X40386582Y-75800704D01*
X40386582Y-75800704D02*
X40380530Y-75804585D01*
X40380530Y-75804585D02*
X40374283Y-75808177D01*
X40374283Y-75808177D02*
X40367850Y-75811471D01*
X40367850Y-75811471D02*
X40361242Y-75814459D01*
X40361242Y-75814459D02*
X40354468Y-75817130D01*
X40354468Y-75817130D02*
X40347536Y-75819475D01*
X40347536Y-75819475D02*
X40340457Y-75821485D01*
X40340457Y-75821485D02*
X40333239Y-75823151D01*
X40333239Y-75823151D02*
X40325893Y-75824463D01*
X40325893Y-75824463D02*
X40318427Y-75825412D01*
X40318427Y-75825412D02*
X40310851Y-75825988D01*
X40310851Y-75825988D02*
X40303174Y-75826182D01*
X40303174Y-75826182D02*
X40295498Y-75825988D01*
X40295498Y-75825988D02*
X40287922Y-75825412D01*
X40287922Y-75825412D02*
X40280456Y-75824463D01*
X40280456Y-75824463D02*
X40273109Y-75823151D01*
X40273109Y-75823151D02*
X40265892Y-75821485D01*
X40265892Y-75821485D02*
X40258813Y-75819475D01*
X40258813Y-75819475D02*
X40251881Y-75817130D01*
X40251881Y-75817130D02*
X40245107Y-75814459D01*
X40245107Y-75814459D02*
X40238499Y-75811471D01*
X40238499Y-75811471D02*
X40232066Y-75808177D01*
X40232066Y-75808177D02*
X40225819Y-75804585D01*
X40225819Y-75804585D02*
X40219767Y-75800704D01*
X40219767Y-75800704D02*
X40213918Y-75796545D01*
X40213918Y-75796545D02*
X40208282Y-75792116D01*
X40208282Y-75792116D02*
X40202869Y-75787428D01*
X40202869Y-75787428D02*
X40197688Y-75782488D01*
X40197688Y-75782488D02*
X40192749Y-75777307D01*
X40192749Y-75777307D02*
X40188060Y-75771894D01*
X40188060Y-75771894D02*
X40183631Y-75766259D01*
X40183631Y-75766259D02*
X40179472Y-75760410D01*
X40179472Y-75760410D02*
X40175592Y-75754357D01*
X40175592Y-75754357D02*
X40172000Y-75748110D01*
X40172000Y-75748110D02*
X40168705Y-75741678D01*
X40168705Y-75741678D02*
X40165718Y-75735069D01*
X40165718Y-75735069D02*
X40163047Y-75728295D01*
X40163047Y-75728295D02*
X40160701Y-75721363D01*
X40160701Y-75721363D02*
X40158691Y-75714284D01*
X40158691Y-75714284D02*
X40157025Y-75707067D01*
X40157025Y-75707067D02*
X40155714Y-75699720D01*
X40155714Y-75699720D02*
X40154765Y-75692255D01*
X40154765Y-75692255D02*
X40154189Y-75684679D01*
X40154189Y-75684679D02*
X40153995Y-75677002D01*
X40153995Y-75677002D02*
X40153995Y-75677002D01*
G36*
X40310851Y-75528016D02*
G01*
X40318427Y-75528592D01*
X40325893Y-75529541D01*
X40333239Y-75530853D01*
X40340457Y-75532518D01*
X40347536Y-75534529D01*
X40354468Y-75536874D01*
X40361242Y-75539545D01*
X40367850Y-75542533D01*
X40374283Y-75545827D01*
X40380530Y-75549419D01*
X40386582Y-75553300D01*
X40392431Y-75557459D01*
X40398067Y-75561887D01*
X40403480Y-75566576D01*
X40408661Y-75571516D01*
X40413600Y-75576697D01*
X40418289Y-75582110D01*
X40422718Y-75587745D01*
X40426877Y-75593594D01*
X40430757Y-75599647D01*
X40434349Y-75605894D01*
X40437644Y-75612326D01*
X40440631Y-75618934D01*
X40443302Y-75625709D01*
X40445648Y-75632640D01*
X40447658Y-75639719D01*
X40449324Y-75646937D01*
X40450636Y-75654283D01*
X40451584Y-75661749D01*
X40452160Y-75669325D01*
X40452355Y-75677002D01*
X40452160Y-75684679D01*
X40451584Y-75692255D01*
X40450636Y-75699720D01*
X40449324Y-75707067D01*
X40447658Y-75714284D01*
X40445648Y-75721363D01*
X40443302Y-75728295D01*
X40440631Y-75735069D01*
X40437644Y-75741678D01*
X40434349Y-75748110D01*
X40430757Y-75754357D01*
X40426877Y-75760410D01*
X40422718Y-75766259D01*
X40418289Y-75771894D01*
X40413600Y-75777307D01*
X40408661Y-75782488D01*
X40403480Y-75787428D01*
X40398067Y-75792116D01*
X40392431Y-75796545D01*
X40386582Y-75800704D01*
X40380530Y-75804585D01*
X40374283Y-75808177D01*
X40367850Y-75811471D01*
X40361242Y-75814459D01*
X40354468Y-75817130D01*
X40347536Y-75819475D01*
X40340457Y-75821485D01*
X40333239Y-75823151D01*
X40325893Y-75824463D01*
X40318427Y-75825412D01*
X40310851Y-75825988D01*
X40303174Y-75826182D01*
X40295498Y-75825988D01*
X40287922Y-75825412D01*
X40280456Y-75824463D01*
X40273109Y-75823151D01*
X40265892Y-75821485D01*
X40258813Y-75819475D01*
X40251881Y-75817130D01*
X40245107Y-75814459D01*
X40238499Y-75811471D01*
X40232066Y-75808177D01*
X40225819Y-75804585D01*
X40219767Y-75800704D01*
X40213918Y-75796545D01*
X40208282Y-75792116D01*
X40202869Y-75787428D01*
X40197688Y-75782488D01*
X40192749Y-75777307D01*
X40188060Y-75771894D01*
X40183631Y-75766259D01*
X40179472Y-75760410D01*
X40175592Y-75754357D01*
X40172000Y-75748110D01*
X40168705Y-75741678D01*
X40165718Y-75735069D01*
X40163047Y-75728295D01*
X40160701Y-75721363D01*
X40158691Y-75714284D01*
X40157025Y-75707067D01*
X40155714Y-75699720D01*
X40154765Y-75692255D01*
X40154189Y-75684679D01*
X40153995Y-75677002D01*
X40154189Y-75669325D01*
X40154765Y-75661749D01*
X40155714Y-75654283D01*
X40157025Y-75646937D01*
X40158691Y-75639719D01*
X40160701Y-75632640D01*
X40163047Y-75625709D01*
X40165718Y-75618934D01*
X40168705Y-75612326D01*
X40172000Y-75605894D01*
X40175592Y-75599647D01*
X40179472Y-75593594D01*
X40183631Y-75587745D01*
X40188060Y-75582110D01*
X40192749Y-75576697D01*
X40197688Y-75571516D01*
X40202869Y-75566576D01*
X40208282Y-75561887D01*
X40213918Y-75557459D01*
X40219767Y-75553300D01*
X40225819Y-75549419D01*
X40232066Y-75545827D01*
X40238499Y-75542533D01*
X40245107Y-75539545D01*
X40251881Y-75536874D01*
X40258813Y-75534529D01*
X40265892Y-75532518D01*
X40273109Y-75530853D01*
X40280456Y-75529541D01*
X40287922Y-75528592D01*
X40295498Y-75528016D01*
X40303174Y-75527822D01*
X40310851Y-75528016D01*
G37*
X40310851Y-75528016D02*
X40318427Y-75528592D01*
X40325893Y-75529541D01*
X40333239Y-75530853D01*
X40340457Y-75532518D01*
X40347536Y-75534529D01*
X40354468Y-75536874D01*
X40361242Y-75539545D01*
X40367850Y-75542533D01*
X40374283Y-75545827D01*
X40380530Y-75549419D01*
X40386582Y-75553300D01*
X40392431Y-75557459D01*
X40398067Y-75561887D01*
X40403480Y-75566576D01*
X40408661Y-75571516D01*
X40413600Y-75576697D01*
X40418289Y-75582110D01*
X40422718Y-75587745D01*
X40426877Y-75593594D01*
X40430757Y-75599647D01*
X40434349Y-75605894D01*
X40437644Y-75612326D01*
X40440631Y-75618934D01*
X40443302Y-75625709D01*
X40445648Y-75632640D01*
X40447658Y-75639719D01*
X40449324Y-75646937D01*
X40450636Y-75654283D01*
X40451584Y-75661749D01*
X40452160Y-75669325D01*
X40452355Y-75677002D01*
X40452160Y-75684679D01*
X40451584Y-75692255D01*
X40450636Y-75699720D01*
X40449324Y-75707067D01*
X40447658Y-75714284D01*
X40445648Y-75721363D01*
X40443302Y-75728295D01*
X40440631Y-75735069D01*
X40437644Y-75741678D01*
X40434349Y-75748110D01*
X40430757Y-75754357D01*
X40426877Y-75760410D01*
X40422718Y-75766259D01*
X40418289Y-75771894D01*
X40413600Y-75777307D01*
X40408661Y-75782488D01*
X40403480Y-75787428D01*
X40398067Y-75792116D01*
X40392431Y-75796545D01*
X40386582Y-75800704D01*
X40380530Y-75804585D01*
X40374283Y-75808177D01*
X40367850Y-75811471D01*
X40361242Y-75814459D01*
X40354468Y-75817130D01*
X40347536Y-75819475D01*
X40340457Y-75821485D01*
X40333239Y-75823151D01*
X40325893Y-75824463D01*
X40318427Y-75825412D01*
X40310851Y-75825988D01*
X40303174Y-75826182D01*
X40295498Y-75825988D01*
X40287922Y-75825412D01*
X40280456Y-75824463D01*
X40273109Y-75823151D01*
X40265892Y-75821485D01*
X40258813Y-75819475D01*
X40251881Y-75817130D01*
X40245107Y-75814459D01*
X40238499Y-75811471D01*
X40232066Y-75808177D01*
X40225819Y-75804585D01*
X40219767Y-75800704D01*
X40213918Y-75796545D01*
X40208282Y-75792116D01*
X40202869Y-75787428D01*
X40197688Y-75782488D01*
X40192749Y-75777307D01*
X40188060Y-75771894D01*
X40183631Y-75766259D01*
X40179472Y-75760410D01*
X40175592Y-75754357D01*
X40172000Y-75748110D01*
X40168705Y-75741678D01*
X40165718Y-75735069D01*
X40163047Y-75728295D01*
X40160701Y-75721363D01*
X40158691Y-75714284D01*
X40157025Y-75707067D01*
X40155714Y-75699720D01*
X40154765Y-75692255D01*
X40154189Y-75684679D01*
X40153995Y-75677002D01*
X40154189Y-75669325D01*
X40154765Y-75661749D01*
X40155714Y-75654283D01*
X40157025Y-75646937D01*
X40158691Y-75639719D01*
X40160701Y-75632640D01*
X40163047Y-75625709D01*
X40165718Y-75618934D01*
X40168705Y-75612326D01*
X40172000Y-75605894D01*
X40175592Y-75599647D01*
X40179472Y-75593594D01*
X40183631Y-75587745D01*
X40188060Y-75582110D01*
X40192749Y-75576697D01*
X40197688Y-75571516D01*
X40202869Y-75566576D01*
X40208282Y-75561887D01*
X40213918Y-75557459D01*
X40219767Y-75553300D01*
X40225819Y-75549419D01*
X40232066Y-75545827D01*
X40238499Y-75542533D01*
X40245107Y-75539545D01*
X40251881Y-75536874D01*
X40258813Y-75534529D01*
X40265892Y-75532518D01*
X40273109Y-75530853D01*
X40280456Y-75529541D01*
X40287922Y-75528592D01*
X40295498Y-75528016D01*
X40303174Y-75527822D01*
X40310851Y-75528016D01*
X39956864Y-75511838D02*
X39956864Y-75511838D01*
X39956864Y-75511838D02*
X39956864Y-75511838D01*
X39957287Y-75528562D02*
X39956864Y-75511838D01*
X39958542Y-75545067D02*
X39957287Y-75528562D01*
X39960609Y-75561332D02*
X39958542Y-75545067D01*
X39963467Y-75577337D02*
X39960609Y-75561332D01*
X39967096Y-75593060D02*
X39963467Y-75577337D01*
X39971475Y-75608483D02*
X39967096Y-75593060D01*
X39976585Y-75623584D02*
X39971475Y-75608483D01*
X39982404Y-75638343D02*
X39976585Y-75623584D01*
X39988912Y-75652739D02*
X39982404Y-75638343D01*
X39996089Y-75666752D02*
X39988912Y-75652739D01*
X40003915Y-75680362D02*
X39996089Y-75666752D01*
X40012369Y-75693548D02*
X40003915Y-75680362D01*
X40021430Y-75706290D02*
X40012369Y-75693548D01*
X40031078Y-75718568D02*
X40021430Y-75706290D01*
X40041293Y-75730360D02*
X40031078Y-75718568D01*
X40052054Y-75741647D02*
X40041293Y-75730360D01*
X40063341Y-75752409D02*
X40052054Y-75741647D01*
X40075133Y-75762624D02*
X40063341Y-75752409D01*
X40087411Y-75772272D02*
X40075133Y-75762624D01*
X40100153Y-75781333D02*
X40087411Y-75772272D01*
X40113339Y-75789786D02*
X40100153Y-75781333D01*
X40126949Y-75797612D02*
X40113339Y-75789786D01*
X40140962Y-75804789D02*
X40126949Y-75797612D01*
X40155359Y-75811297D02*
X40140962Y-75804789D01*
X40170117Y-75817117D02*
X40155359Y-75811297D01*
X40185218Y-75822226D02*
X40170117Y-75817117D01*
X40200641Y-75826606D02*
X40185218Y-75822226D01*
X40216364Y-75830235D02*
X40200641Y-75826606D01*
X40232369Y-75833093D02*
X40216364Y-75830235D01*
X40248634Y-75835160D02*
X40232369Y-75833093D01*
X40265139Y-75836415D02*
X40248634Y-75835160D01*
X40281863Y-75836838D02*
X40265139Y-75836415D01*
X40281863Y-75836838D02*
X40281863Y-75836838D01*
X40298588Y-75836415D02*
X40281863Y-75836838D01*
X40315093Y-75835160D02*
X40298588Y-75836415D01*
X40331357Y-75833093D02*
X40315093Y-75835160D01*
X40347362Y-75830235D02*
X40331357Y-75833093D01*
X40363086Y-75826606D02*
X40347362Y-75830235D01*
X40378508Y-75822226D02*
X40363086Y-75826606D01*
X40393609Y-75817117D02*
X40378508Y-75822226D01*
X40408368Y-75811297D02*
X40393609Y-75817117D01*
X40422764Y-75804789D02*
X40408368Y-75811297D01*
X40436777Y-75797612D02*
X40422764Y-75804789D01*
X40450387Y-75789786D02*
X40436777Y-75797612D01*
X40463574Y-75781333D02*
X40450387Y-75789786D01*
X40476316Y-75772272D02*
X40463574Y-75781333D01*
X40488593Y-75762624D02*
X40476316Y-75772272D01*
X40500386Y-75752409D02*
X40488593Y-75762624D01*
X40511673Y-75741647D02*
X40500386Y-75752409D01*
X40522434Y-75730360D02*
X40511673Y-75741647D01*
X40532649Y-75718568D02*
X40522434Y-75730360D01*
X40542297Y-75706290D02*
X40532649Y-75718568D01*
X40551358Y-75693548D02*
X40542297Y-75706290D01*
X40559812Y-75680362D02*
X40551358Y-75693548D01*
X40567637Y-75666752D02*
X40559812Y-75680362D01*
X40574814Y-75652739D02*
X40567637Y-75666752D01*
X40581323Y-75638343D02*
X40574814Y-75652739D01*
X40587142Y-75623584D02*
X40581323Y-75638343D01*
X40592252Y-75608483D02*
X40587142Y-75623584D01*
X40596631Y-75593060D02*
X40592252Y-75608483D01*
X40600260Y-75577337D02*
X40596631Y-75593060D01*
X40603118Y-75561332D02*
X40600260Y-75577337D01*
X40605185Y-75545067D02*
X40603118Y-75561332D01*
X40606440Y-75528562D02*
X40605185Y-75545067D01*
X40606863Y-75511838D02*
X40606440Y-75528562D01*
X40606863Y-75511838D02*
X40606863Y-75511838D01*
X40606440Y-75495113D02*
X40606863Y-75511838D01*
X40605185Y-75478609D02*
X40606440Y-75495113D01*
X40603118Y-75462344D02*
X40605185Y-75478609D01*
X40600260Y-75446339D02*
X40603118Y-75462344D01*
X40596631Y-75430615D02*
X40600260Y-75446339D01*
X40592252Y-75415193D02*
X40596631Y-75430615D01*
X40587142Y-75400092D02*
X40592252Y-75415193D01*
X40581323Y-75385333D02*
X40587142Y-75400092D01*
X40574814Y-75370937D02*
X40581323Y-75385333D01*
X40567637Y-75356924D02*
X40574814Y-75370937D01*
X40559812Y-75343314D02*
X40567637Y-75356924D01*
X40551358Y-75330128D02*
X40559812Y-75343314D01*
X40542297Y-75317386D02*
X40551358Y-75330128D01*
X40532649Y-75305108D02*
X40542297Y-75317386D01*
X40522434Y-75293316D02*
X40532649Y-75305108D01*
X40511673Y-75282029D02*
X40522434Y-75293316D01*
X40500386Y-75271267D02*
X40511673Y-75282029D01*
X40488593Y-75261053D02*
X40500386Y-75271267D01*
X40476316Y-75251404D02*
X40488593Y-75261053D01*
X40463574Y-75242343D02*
X40476316Y-75251404D01*
X40450387Y-75233890D02*
X40463574Y-75242343D01*
X40436777Y-75226064D02*
X40450387Y-75233890D01*
X40422764Y-75218887D02*
X40436777Y-75226064D01*
X40408368Y-75212379D02*
X40422764Y-75218887D01*
X40393609Y-75206559D02*
X40408368Y-75212379D01*
X40378508Y-75201450D02*
X40393609Y-75206559D01*
X40363086Y-75197070D02*
X40378508Y-75201450D01*
X40347362Y-75193441D02*
X40363086Y-75197070D01*
X40331357Y-75190583D02*
X40347362Y-75193441D01*
X40315093Y-75188516D02*
X40331357Y-75190583D01*
X40298588Y-75187261D02*
X40315093Y-75188516D01*
X40281863Y-75186839D02*
X40298588Y-75187261D01*
X40281863Y-75186839D02*
X40281863Y-75186839D01*
X40265139Y-75187261D02*
X40281863Y-75186839D01*
X40248634Y-75188516D02*
X40265139Y-75187261D01*
X40232369Y-75190583D02*
X40248634Y-75188516D01*
X40216364Y-75193441D02*
X40232369Y-75190583D01*
X40200641Y-75197070D02*
X40216364Y-75193441D01*
X40185218Y-75201450D02*
X40200641Y-75197070D01*
X40170117Y-75206559D02*
X40185218Y-75201450D01*
X40155359Y-75212379D02*
X40170117Y-75206559D01*
X40140962Y-75218887D02*
X40155359Y-75212379D01*
X40126949Y-75226064D02*
X40140962Y-75218887D01*
X40113339Y-75233890D02*
X40126949Y-75226064D01*
X40100153Y-75242343D02*
X40113339Y-75233890D01*
X40087411Y-75251404D02*
X40100153Y-75242343D01*
X40075133Y-75261053D02*
X40087411Y-75251404D01*
X40063341Y-75271267D02*
X40075133Y-75261053D01*
X40052054Y-75282029D02*
X40063341Y-75271267D01*
X40041293Y-75293316D02*
X40052054Y-75282029D01*
X40031078Y-75305108D02*
X40041293Y-75293316D01*
X40021430Y-75317386D02*
X40031078Y-75305108D01*
X40012369Y-75330128D02*
X40021430Y-75317386D01*
X40003915Y-75343314D02*
X40012369Y-75330128D01*
X39996089Y-75356924D02*
X40003915Y-75343314D01*
X39988912Y-75370937D02*
X39996089Y-75356924D01*
X39982404Y-75385333D02*
X39988912Y-75370937D01*
X39976585Y-75400092D02*
X39982404Y-75385333D01*
X39971475Y-75415193D02*
X39976585Y-75400092D01*
X39967096Y-75430615D02*
X39971475Y-75415193D01*
X39963467Y-75446339D02*
X39967096Y-75430615D01*
X39960609Y-75462344D02*
X39963467Y-75446339D01*
X39958542Y-75478609D02*
X39960609Y-75462344D01*
X39957287Y-75495113D02*
X39958542Y-75478609D01*
X39956864Y-75511838D02*
X39957287Y-75495113D01*
X39353903Y-74335852D02*
X39353592Y-74348176D01*
X39353592Y-74348176D02*
X39352667Y-74360337D01*
X39352667Y-74360337D02*
X39351144Y-74372322D01*
X39351144Y-74372322D02*
X39349038Y-74384115D01*
X39349038Y-74384115D02*
X39346364Y-74395700D01*
X39346364Y-74395700D02*
X39343137Y-74407064D01*
X39343137Y-74407064D02*
X39339372Y-74418191D01*
X39339372Y-74418191D02*
X39335084Y-74429066D01*
X39335084Y-74429066D02*
X39330289Y-74439674D01*
X39330289Y-74439674D02*
X39325000Y-74450000D01*
X39325000Y-74450000D02*
X39319234Y-74460028D01*
X39319234Y-74460028D02*
X39313005Y-74469744D01*
X39313005Y-74469744D02*
X39306328Y-74479133D01*
X39306328Y-74479133D02*
X39299219Y-74488180D01*
X39299219Y-74488180D02*
X39291692Y-74496869D01*
X39291692Y-74496869D02*
X39283763Y-74505186D01*
X39283763Y-74505186D02*
X39275446Y-74513115D01*
X39275446Y-74513115D02*
X39266757Y-74520642D01*
X39266757Y-74520642D02*
X39257711Y-74527751D01*
X39257711Y-74527751D02*
X39248322Y-74534427D01*
X39248322Y-74534427D02*
X39238606Y-74540656D01*
X39238606Y-74540656D02*
X39228577Y-74546423D01*
X39228577Y-74546423D02*
X39218251Y-74551711D01*
X39218251Y-74551711D02*
X39207644Y-74556507D01*
X39207644Y-74556507D02*
X39196769Y-74560795D01*
X39196769Y-74560795D02*
X39185642Y-74564560D01*
X39185642Y-74564560D02*
X39174278Y-74567787D01*
X39174278Y-74567787D02*
X39162692Y-74570461D01*
X39162692Y-74570461D02*
X39150899Y-74572567D01*
X39150899Y-74572567D02*
X39138915Y-74574089D01*
X39138915Y-74574089D02*
X39126753Y-74575014D01*
X39126753Y-74575014D02*
X39114430Y-74575326D01*
X39114430Y-74575326D02*
X39102107Y-74575014D01*
X39102107Y-74575014D02*
X39089945Y-74574089D01*
X39089945Y-74574089D02*
X39077960Y-74572567D01*
X39077960Y-74572567D02*
X39066168Y-74570461D01*
X39066168Y-74570461D02*
X39054582Y-74567787D01*
X39054582Y-74567787D02*
X39043218Y-74564560D01*
X39043218Y-74564560D02*
X39032091Y-74560795D01*
X39032091Y-74560795D02*
X39021216Y-74556507D01*
X39021216Y-74556507D02*
X39010608Y-74551711D01*
X39010608Y-74551711D02*
X39000283Y-74546423D01*
X39000283Y-74546423D02*
X38990254Y-74540656D01*
X38990254Y-74540656D02*
X38980538Y-74534427D01*
X38980538Y-74534427D02*
X38971149Y-74527751D01*
X38971149Y-74527751D02*
X38962103Y-74520642D01*
X38962103Y-74520642D02*
X38953413Y-74513115D01*
X38953413Y-74513115D02*
X38945097Y-74505186D01*
X38945097Y-74505186D02*
X38937167Y-74496869D01*
X38937167Y-74496869D02*
X38929641Y-74488180D01*
X38929641Y-74488180D02*
X38922532Y-74479133D01*
X38922532Y-74479133D02*
X38915855Y-74469744D01*
X38915855Y-74469744D02*
X38909626Y-74460028D01*
X38909626Y-74460028D02*
X38903860Y-74450000D01*
X38903860Y-74450000D02*
X38898571Y-74439674D01*
X38898571Y-74439674D02*
X38893776Y-74429066D01*
X38893776Y-74429066D02*
X38889488Y-74418191D01*
X38889488Y-74418191D02*
X38885723Y-74407064D01*
X38885723Y-74407064D02*
X38882496Y-74395700D01*
X38882496Y-74395700D02*
X38879822Y-74384115D01*
X38879822Y-74384115D02*
X38877716Y-74372322D01*
X38877716Y-74372322D02*
X38876193Y-74360337D01*
X38876193Y-74360337D02*
X38875268Y-74348176D01*
X38875268Y-74348176D02*
X38874957Y-74335852D01*
X38874957Y-74335852D02*
X38875268Y-74323529D01*
X38875268Y-74323529D02*
X38876193Y-74311368D01*
X38876193Y-74311368D02*
X38877716Y-74299383D01*
X38877716Y-74299383D02*
X38879822Y-74287590D01*
X38879822Y-74287590D02*
X38882496Y-74276004D01*
X38882496Y-74276004D02*
X38885723Y-74264640D01*
X38885723Y-74264640D02*
X38889488Y-74253513D01*
X38889488Y-74253513D02*
X38893776Y-74242639D01*
X38893776Y-74242639D02*
X38898571Y-74232031D01*
X38898571Y-74232031D02*
X38903860Y-74221705D01*
X38903860Y-74221705D02*
X38909626Y-74211677D01*
X38909626Y-74211677D02*
X38915855Y-74201961D01*
X38915855Y-74201961D02*
X38922532Y-74192572D01*
X38922532Y-74192572D02*
X38929641Y-74183525D01*
X38929641Y-74183525D02*
X38937167Y-74174836D01*
X38937167Y-74174836D02*
X38945097Y-74166519D01*
X38945097Y-74166519D02*
X38953413Y-74158590D01*
X38953413Y-74158590D02*
X38962103Y-74151063D01*
X38962103Y-74151063D02*
X38971149Y-74143954D01*
X38971149Y-74143954D02*
X38980538Y-74137277D01*
X38980538Y-74137277D02*
X38990254Y-74131048D01*
X38990254Y-74131048D02*
X39000283Y-74125282D01*
X39000283Y-74125282D02*
X39010608Y-74119994D01*
X39010608Y-74119994D02*
X39021216Y-74115198D01*
X39021216Y-74115198D02*
X39032091Y-74110910D01*
X39032091Y-74110910D02*
X39043218Y-74107145D01*
X39043218Y-74107145D02*
X39054582Y-74103918D01*
X39054582Y-74103918D02*
X39066168Y-74101244D01*
X39066168Y-74101244D02*
X39077960Y-74099138D01*
X39077960Y-74099138D02*
X39089945Y-74097615D01*
X39089945Y-74097615D02*
X39102107Y-74096691D01*
X39102107Y-74096691D02*
X39114430Y-74096379D01*
X39114430Y-74096379D02*
X39126753Y-74096691D01*
X39126753Y-74096691D02*
X39138915Y-74097615D01*
X39138915Y-74097615D02*
X39150899Y-74099138D01*
X39150899Y-74099138D02*
X39162692Y-74101244D01*
X39162692Y-74101244D02*
X39174278Y-74103918D01*
X39174278Y-74103918D02*
X39185642Y-74107145D01*
X39185642Y-74107145D02*
X39196769Y-74110910D01*
X39196769Y-74110910D02*
X39207644Y-74115198D01*
X39207644Y-74115198D02*
X39218251Y-74119994D01*
X39218251Y-74119994D02*
X39228577Y-74125282D01*
X39228577Y-74125282D02*
X39238606Y-74131048D01*
X39238606Y-74131048D02*
X39248322Y-74137277D01*
X39248322Y-74137277D02*
X39257711Y-74143954D01*
X39257711Y-74143954D02*
X39266757Y-74151063D01*
X39266757Y-74151063D02*
X39275446Y-74158590D01*
X39275446Y-74158590D02*
X39283763Y-74166519D01*
X39283763Y-74166519D02*
X39291692Y-74174836D01*
X39291692Y-74174836D02*
X39299219Y-74183525D01*
X39299219Y-74183525D02*
X39306328Y-74192572D01*
X39306328Y-74192572D02*
X39313005Y-74201961D01*
X39313005Y-74201961D02*
X39319234Y-74211677D01*
X39319234Y-74211677D02*
X39325000Y-74221705D01*
X39325000Y-74221705D02*
X39330289Y-74232031D01*
X39330289Y-74232031D02*
X39335084Y-74242639D01*
X39335084Y-74242639D02*
X39339372Y-74253513D01*
X39339372Y-74253513D02*
X39343137Y-74264640D01*
X39343137Y-74264640D02*
X39346364Y-74276004D01*
X39346364Y-74276004D02*
X39349038Y-74287590D01*
X39349038Y-74287590D02*
X39351144Y-74299383D01*
X39351144Y-74299383D02*
X39352667Y-74311368D01*
X39352667Y-74311368D02*
X39353592Y-74323529D01*
X39353592Y-74323529D02*
X39353903Y-74335852D01*
X39353903Y-74335852D02*
X39353903Y-74335852D01*
G36*
X39126753Y-74096691D02*
G01*
X39138915Y-74097615D01*
X39150899Y-74099138D01*
X39162692Y-74101244D01*
X39174278Y-74103918D01*
X39185642Y-74107145D01*
X39196769Y-74110910D01*
X39207644Y-74115198D01*
X39218251Y-74119994D01*
X39228577Y-74125282D01*
X39238606Y-74131048D01*
X39248322Y-74137277D01*
X39257711Y-74143954D01*
X39266757Y-74151063D01*
X39275446Y-74158590D01*
X39283763Y-74166519D01*
X39291692Y-74174836D01*
X39299219Y-74183525D01*
X39306328Y-74192572D01*
X39313005Y-74201961D01*
X39319234Y-74211677D01*
X39325000Y-74221705D01*
X39330289Y-74232031D01*
X39335084Y-74242639D01*
X39339372Y-74253513D01*
X39343137Y-74264640D01*
X39346364Y-74276004D01*
X39349038Y-74287590D01*
X39351144Y-74299383D01*
X39352667Y-74311368D01*
X39353592Y-74323529D01*
X39353903Y-74335852D01*
X39353592Y-74348176D01*
X39352667Y-74360337D01*
X39351144Y-74372322D01*
X39349038Y-74384115D01*
X39346364Y-74395700D01*
X39343137Y-74407064D01*
X39339372Y-74418191D01*
X39335084Y-74429066D01*
X39330289Y-74439674D01*
X39325000Y-74450000D01*
X39319234Y-74460028D01*
X39313005Y-74469744D01*
X39306328Y-74479133D01*
X39299219Y-74488180D01*
X39291692Y-74496869D01*
X39283763Y-74505186D01*
X39275446Y-74513115D01*
X39266757Y-74520642D01*
X39257711Y-74527751D01*
X39248322Y-74534427D01*
X39238606Y-74540656D01*
X39228577Y-74546423D01*
X39218251Y-74551711D01*
X39207644Y-74556507D01*
X39196769Y-74560795D01*
X39185642Y-74564560D01*
X39174278Y-74567787D01*
X39162692Y-74570461D01*
X39150899Y-74572567D01*
X39138915Y-74574089D01*
X39126753Y-74575014D01*
X39114430Y-74575326D01*
X39102107Y-74575014D01*
X39089945Y-74574089D01*
X39077960Y-74572567D01*
X39066168Y-74570461D01*
X39054582Y-74567787D01*
X39043218Y-74564560D01*
X39032091Y-74560795D01*
X39021216Y-74556507D01*
X39010608Y-74551711D01*
X39000283Y-74546423D01*
X38990254Y-74540656D01*
X38980538Y-74534427D01*
X38971149Y-74527751D01*
X38962103Y-74520642D01*
X38953413Y-74513115D01*
X38945097Y-74505186D01*
X38937167Y-74496869D01*
X38929641Y-74488180D01*
X38922532Y-74479133D01*
X38915855Y-74469744D01*
X38909626Y-74460028D01*
X38903860Y-74450000D01*
X38898571Y-74439674D01*
X38893776Y-74429066D01*
X38889488Y-74418191D01*
X38885723Y-74407064D01*
X38882496Y-74395700D01*
X38879822Y-74384115D01*
X38877716Y-74372322D01*
X38876193Y-74360337D01*
X38875268Y-74348176D01*
X38874957Y-74335852D01*
X38875268Y-74323529D01*
X38876193Y-74311368D01*
X38877716Y-74299383D01*
X38879822Y-74287590D01*
X38882496Y-74276004D01*
X38885723Y-74264640D01*
X38889488Y-74253513D01*
X38893776Y-74242639D01*
X38898571Y-74232031D01*
X38903860Y-74221705D01*
X38909626Y-74211677D01*
X38915855Y-74201961D01*
X38922532Y-74192572D01*
X38929641Y-74183525D01*
X38937167Y-74174836D01*
X38945097Y-74166519D01*
X38953413Y-74158590D01*
X38962103Y-74151063D01*
X38971149Y-74143954D01*
X38980538Y-74137277D01*
X38990254Y-74131048D01*
X39000283Y-74125282D01*
X39010608Y-74119994D01*
X39021216Y-74115198D01*
X39032091Y-74110910D01*
X39043218Y-74107145D01*
X39054582Y-74103918D01*
X39066168Y-74101244D01*
X39077960Y-74099138D01*
X39089945Y-74097615D01*
X39102107Y-74096691D01*
X39114430Y-74096379D01*
X39126753Y-74096691D01*
G37*
X39126753Y-74096691D02*
X39138915Y-74097615D01*
X39150899Y-74099138D01*
X39162692Y-74101244D01*
X39174278Y-74103918D01*
X39185642Y-74107145D01*
X39196769Y-74110910D01*
X39207644Y-74115198D01*
X39218251Y-74119994D01*
X39228577Y-74125282D01*
X39238606Y-74131048D01*
X39248322Y-74137277D01*
X39257711Y-74143954D01*
X39266757Y-74151063D01*
X39275446Y-74158590D01*
X39283763Y-74166519D01*
X39291692Y-74174836D01*
X39299219Y-74183525D01*
X39306328Y-74192572D01*
X39313005Y-74201961D01*
X39319234Y-74211677D01*
X39325000Y-74221705D01*
X39330289Y-74232031D01*
X39335084Y-74242639D01*
X39339372Y-74253513D01*
X39343137Y-74264640D01*
X39346364Y-74276004D01*
X39349038Y-74287590D01*
X39351144Y-74299383D01*
X39352667Y-74311368D01*
X39353592Y-74323529D01*
X39353903Y-74335852D01*
X39353592Y-74348176D01*
X39352667Y-74360337D01*
X39351144Y-74372322D01*
X39349038Y-74384115D01*
X39346364Y-74395700D01*
X39343137Y-74407064D01*
X39339372Y-74418191D01*
X39335084Y-74429066D01*
X39330289Y-74439674D01*
X39325000Y-74450000D01*
X39319234Y-74460028D01*
X39313005Y-74469744D01*
X39306328Y-74479133D01*
X39299219Y-74488180D01*
X39291692Y-74496869D01*
X39283763Y-74505186D01*
X39275446Y-74513115D01*
X39266757Y-74520642D01*
X39257711Y-74527751D01*
X39248322Y-74534427D01*
X39238606Y-74540656D01*
X39228577Y-74546423D01*
X39218251Y-74551711D01*
X39207644Y-74556507D01*
X39196769Y-74560795D01*
X39185642Y-74564560D01*
X39174278Y-74567787D01*
X39162692Y-74570461D01*
X39150899Y-74572567D01*
X39138915Y-74574089D01*
X39126753Y-74575014D01*
X39114430Y-74575326D01*
X39102107Y-74575014D01*
X39089945Y-74574089D01*
X39077960Y-74572567D01*
X39066168Y-74570461D01*
X39054582Y-74567787D01*
X39043218Y-74564560D01*
X39032091Y-74560795D01*
X39021216Y-74556507D01*
X39010608Y-74551711D01*
X39000283Y-74546423D01*
X38990254Y-74540656D01*
X38980538Y-74534427D01*
X38971149Y-74527751D01*
X38962103Y-74520642D01*
X38953413Y-74513115D01*
X38945097Y-74505186D01*
X38937167Y-74496869D01*
X38929641Y-74488180D01*
X38922532Y-74479133D01*
X38915855Y-74469744D01*
X38909626Y-74460028D01*
X38903860Y-74450000D01*
X38898571Y-74439674D01*
X38893776Y-74429066D01*
X38889488Y-74418191D01*
X38885723Y-74407064D01*
X38882496Y-74395700D01*
X38879822Y-74384115D01*
X38877716Y-74372322D01*
X38876193Y-74360337D01*
X38875268Y-74348176D01*
X38874957Y-74335852D01*
X38875268Y-74323529D01*
X38876193Y-74311368D01*
X38877716Y-74299383D01*
X38879822Y-74287590D01*
X38882496Y-74276004D01*
X38885723Y-74264640D01*
X38889488Y-74253513D01*
X38893776Y-74242639D01*
X38898571Y-74232031D01*
X38903860Y-74221705D01*
X38909626Y-74211677D01*
X38915855Y-74201961D01*
X38922532Y-74192572D01*
X38929641Y-74183525D01*
X38937167Y-74174836D01*
X38945097Y-74166519D01*
X38953413Y-74158590D01*
X38962103Y-74151063D01*
X38971149Y-74143954D01*
X38980538Y-74137277D01*
X38990254Y-74131048D01*
X39000283Y-74125282D01*
X39010608Y-74119994D01*
X39021216Y-74115198D01*
X39032091Y-74110910D01*
X39043218Y-74107145D01*
X39054582Y-74103918D01*
X39066168Y-74101244D01*
X39077960Y-74099138D01*
X39089945Y-74097615D01*
X39102107Y-74096691D01*
X39114430Y-74096379D01*
X39126753Y-74096691D01*
X39670350Y-74600984D02*
X39670350Y-74600984D01*
X39670350Y-74600984D02*
X39670350Y-74600984D01*
X39669671Y-74574137D02*
X39670350Y-74600984D01*
X39667657Y-74547642D02*
X39669671Y-74574137D01*
X39664339Y-74521532D02*
X39667657Y-74547642D01*
X39659751Y-74495841D02*
X39664339Y-74521532D01*
X39653925Y-74470600D02*
X39659751Y-74495841D01*
X39646895Y-74445843D02*
X39653925Y-74470600D01*
X39638693Y-74421602D02*
X39646895Y-74445843D01*
X39629352Y-74397911D02*
X39638693Y-74421602D01*
X39618904Y-74374801D02*
X39629352Y-74397911D01*
X39607383Y-74352306D02*
X39618904Y-74374801D01*
X39594820Y-74330458D02*
X39607383Y-74352306D01*
X39581250Y-74309291D02*
X39594820Y-74330458D01*
X39566705Y-74288836D02*
X39581250Y-74309291D01*
X39551217Y-74269128D02*
X39566705Y-74288836D01*
X39534819Y-74250198D02*
X39551217Y-74269128D01*
X39517545Y-74232079D02*
X39534819Y-74250198D01*
X39499426Y-74214805D02*
X39517545Y-74232079D01*
X39480496Y-74198407D02*
X39499426Y-74214805D01*
X39460788Y-74182919D02*
X39480496Y-74198407D01*
X39440333Y-74168374D02*
X39460788Y-74182919D01*
X39419166Y-74154804D02*
X39440333Y-74168374D01*
X39397318Y-74142241D02*
X39419166Y-74154804D01*
X39374823Y-74130720D02*
X39397318Y-74142241D01*
X39351713Y-74120272D02*
X39374823Y-74130720D01*
X39328022Y-74110931D02*
X39351713Y-74120272D01*
X39303781Y-74102729D02*
X39328022Y-74110931D01*
X39279024Y-74095699D02*
X39303781Y-74102729D01*
X39253783Y-74089873D02*
X39279024Y-74095699D01*
X39228091Y-74085285D02*
X39253783Y-74089873D01*
X39201982Y-74081967D02*
X39228091Y-74085285D01*
X39175487Y-74079953D02*
X39201982Y-74081967D01*
X39148640Y-74079274D02*
X39175487Y-74079953D01*
X39148640Y-74079274D02*
X39148640Y-74079274D01*
X39121793Y-74079953D02*
X39148640Y-74079274D01*
X39095298Y-74081967D02*
X39121793Y-74079953D01*
X39069189Y-74085285D02*
X39095298Y-74081967D01*
X39043497Y-74089873D02*
X39069189Y-74085285D01*
X39018257Y-74095699D02*
X39043497Y-74089873D01*
X38993500Y-74102729D02*
X39018257Y-74095699D01*
X38969259Y-74110931D02*
X38993500Y-74102729D01*
X38945567Y-74120272D02*
X38969259Y-74110931D01*
X38922457Y-74130720D02*
X38945567Y-74120272D01*
X38899962Y-74142241D02*
X38922457Y-74130720D01*
X38878115Y-74154804D02*
X38899962Y-74142241D01*
X38856947Y-74168374D02*
X38878115Y-74154804D01*
X38836493Y-74182919D02*
X38856947Y-74168374D01*
X38816784Y-74198407D02*
X38836493Y-74182919D01*
X38797854Y-74214805D02*
X38816784Y-74198407D01*
X38779735Y-74232079D02*
X38797854Y-74214805D01*
X38762461Y-74250198D02*
X38779735Y-74232079D01*
X38746063Y-74269128D02*
X38762461Y-74250198D01*
X38730575Y-74288836D02*
X38746063Y-74269128D01*
X38716030Y-74309291D02*
X38730575Y-74288836D01*
X38702460Y-74330458D02*
X38716030Y-74309291D01*
X38689898Y-74352306D02*
X38702460Y-74330458D01*
X38678376Y-74374801D02*
X38689898Y-74352306D01*
X38667929Y-74397911D02*
X38678376Y-74374801D01*
X38658587Y-74421602D02*
X38667929Y-74397911D01*
X38650385Y-74445843D02*
X38658587Y-74421602D01*
X38643355Y-74470600D02*
X38650385Y-74445843D01*
X38637529Y-74495841D02*
X38643355Y-74470600D01*
X38632941Y-74521532D02*
X38637529Y-74495841D01*
X38629624Y-74547642D02*
X38632941Y-74521532D01*
X38627609Y-74574137D02*
X38629624Y-74547642D01*
X38626930Y-74600984D02*
X38627609Y-74574137D01*
X38626930Y-74600984D02*
X38626930Y-74600984D01*
X38627609Y-74627831D02*
X38626930Y-74600984D01*
X38629624Y-74654325D02*
X38627609Y-74627831D01*
X38632941Y-74680435D02*
X38629624Y-74654325D01*
X38637529Y-74706126D02*
X38632941Y-74680435D01*
X38643355Y-74731367D02*
X38637529Y-74706126D01*
X38650385Y-74756124D02*
X38643355Y-74731367D01*
X38658587Y-74780365D02*
X38650385Y-74756124D01*
X38667929Y-74804057D02*
X38658587Y-74780365D01*
X38678376Y-74827166D02*
X38667929Y-74804057D01*
X38689898Y-74849662D02*
X38678376Y-74827166D01*
X38702460Y-74871509D02*
X38689898Y-74849662D01*
X38716030Y-74892677D02*
X38702460Y-74871509D01*
X38730575Y-74913131D02*
X38716030Y-74892677D01*
X38746063Y-74932840D02*
X38730575Y-74913131D01*
X38762461Y-74951770D02*
X38746063Y-74932840D01*
X38779735Y-74969888D02*
X38762461Y-74951770D01*
X38797854Y-74987163D02*
X38779735Y-74969888D01*
X38816784Y-75003560D02*
X38797854Y-74987163D01*
X38836493Y-75019048D02*
X38816784Y-75003560D01*
X38856947Y-75033594D02*
X38836493Y-75019048D01*
X38878115Y-75047164D02*
X38856947Y-75033594D01*
X38899962Y-75059726D02*
X38878115Y-75047164D01*
X38922457Y-75071247D02*
X38899962Y-75059726D01*
X38945567Y-75081695D02*
X38922457Y-75071247D01*
X38969259Y-75091036D02*
X38945567Y-75081695D01*
X38993500Y-75099238D02*
X38969259Y-75091036D01*
X39018257Y-75106269D02*
X38993500Y-75099238D01*
X39043497Y-75112094D02*
X39018257Y-75106269D01*
X39069189Y-75116682D02*
X39043497Y-75112094D01*
X39095298Y-75120000D02*
X39069189Y-75116682D01*
X39121793Y-75122015D02*
X39095298Y-75120000D01*
X39148640Y-75122693D02*
X39121793Y-75122015D01*
X39148640Y-75122693D02*
X39148640Y-75122693D01*
X39175487Y-75122015D02*
X39148640Y-75122693D01*
X39201982Y-75120000D02*
X39175487Y-75122015D01*
X39228091Y-75116682D02*
X39201982Y-75120000D01*
X39253783Y-75112094D02*
X39228091Y-75116682D01*
X39279024Y-75106269D02*
X39253783Y-75112094D01*
X39303781Y-75099238D02*
X39279024Y-75106269D01*
X39328022Y-75091036D02*
X39303781Y-75099238D01*
X39351713Y-75081695D02*
X39328022Y-75091036D01*
X39374823Y-75071247D02*
X39351713Y-75081695D01*
X39397318Y-75059726D02*
X39374823Y-75071247D01*
X39419166Y-75047164D02*
X39397318Y-75059726D01*
X39440333Y-75033594D02*
X39419166Y-75047164D01*
X39460788Y-75019048D02*
X39440333Y-75033594D01*
X39480496Y-75003560D02*
X39460788Y-75019048D01*
X39499426Y-74987163D02*
X39480496Y-75003560D01*
X39517545Y-74969888D02*
X39499426Y-74987163D01*
X39534819Y-74951770D02*
X39517545Y-74969888D01*
X39551217Y-74932840D02*
X39534819Y-74951770D01*
X39566705Y-74913131D02*
X39551217Y-74932840D01*
X39581250Y-74892677D02*
X39566705Y-74913131D01*
X39594820Y-74871509D02*
X39581250Y-74892677D01*
X39607383Y-74849662D02*
X39594820Y-74871509D01*
X39618904Y-74827166D02*
X39607383Y-74849662D01*
X39629352Y-74804057D02*
X39618904Y-74827166D01*
X39638693Y-74780365D02*
X39629352Y-74804057D01*
X39646895Y-74756124D02*
X39638693Y-74780365D01*
X39653925Y-74731367D02*
X39646895Y-74756124D01*
X39659751Y-74706126D02*
X39653925Y-74731367D01*
X39664339Y-74680435D02*
X39659751Y-74706126D01*
X39667657Y-74654325D02*
X39664339Y-74680435D01*
X39669671Y-74627831D02*
X39667657Y-74654325D01*
X39670350Y-74600984D02*
X39669671Y-74627831D01*
D11*
X48000000Y-70500000D02*
X38000000Y-70500000D01*
X48000000Y-79925000D02*
X32000000Y-79925000D01*
X32816190Y-65072904D02*
X33273333Y-65072904D01*
X33044761Y-65872904D02*
X33044761Y-65072904D01*
X33463809Y-65072904D02*
X33997142Y-65872904D01*
X33997142Y-65072904D02*
X33463809Y-65872904D01*
X33387619Y-67160904D02*
X33120952Y-66779952D01*
X32930476Y-67160904D02*
X32930476Y-66360904D01*
X33235238Y-66360904D01*
X33311428Y-66399000D01*
X33349523Y-66437095D01*
X33387619Y-66513285D01*
X33387619Y-66627571D01*
X33349523Y-66703761D01*
X33311428Y-66741857D01*
X33235238Y-66779952D01*
X32930476Y-66779952D01*
X33654285Y-66360904D02*
X34187619Y-67160904D01*
X34187619Y-66360904D02*
X33654285Y-67160904D01*
X33349523Y-67687000D02*
X33273333Y-67648904D01*
X33159047Y-67648904D01*
X33044761Y-67687000D01*
X32968571Y-67763190D01*
X32930476Y-67839380D01*
X32892380Y-67991761D01*
X32892380Y-68106047D01*
X32930476Y-68258428D01*
X32968571Y-68334619D01*
X33044761Y-68410809D01*
X33159047Y-68448904D01*
X33235238Y-68448904D01*
X33349523Y-68410809D01*
X33387619Y-68372714D01*
X33387619Y-68106047D01*
X33235238Y-68106047D01*
X34149523Y-68448904D02*
X33692380Y-68448904D01*
X33920952Y-68448904D02*
X33920952Y-67648904D01*
X33844761Y-67763190D01*
X33768571Y-67839380D01*
X33692380Y-67877476D01*
X34835238Y-67915571D02*
X34835238Y-68448904D01*
X34644761Y-67610809D02*
X34454285Y-68182238D01*
X34949523Y-68182238D01*
X32892380Y-69508333D02*
X33273333Y-69508333D01*
X32816190Y-69736904D02*
X33082857Y-68936904D01*
X33349523Y-69736904D01*
X33616190Y-69736904D02*
X33616190Y-68936904D01*
X33806666Y-68936904D01*
X33920952Y-68975000D01*
X33997142Y-69051190D01*
X34035238Y-69127380D01*
X34073333Y-69279761D01*
X34073333Y-69394047D01*
X34035238Y-69546428D01*
X33997142Y-69622619D01*
X33920952Y-69698809D01*
X33806666Y-69736904D01*
X33616190Y-69736904D01*
X34873333Y-69660714D02*
X34835238Y-69698809D01*
X34720952Y-69736904D01*
X34644761Y-69736904D01*
X34530476Y-69698809D01*
X34454285Y-69622619D01*
X34416190Y-69546428D01*
X34378095Y-69394047D01*
X34378095Y-69279761D01*
X34416190Y-69127380D01*
X34454285Y-69051190D01*
X34530476Y-68975000D01*
X34644761Y-68936904D01*
X34720952Y-68936904D01*
X34835238Y-68975000D01*
X34873333Y-69013095D01*
X32930476Y-70720142D02*
X33540000Y-70720142D01*
X33235238Y-71024904D02*
X33235238Y-70415380D01*
X33844761Y-70224904D02*
X34340000Y-70224904D01*
X34073333Y-70529666D01*
X34187619Y-70529666D01*
X34263809Y-70567761D01*
X34301904Y-70605857D01*
X34340000Y-70682047D01*
X34340000Y-70872523D01*
X34301904Y-70948714D01*
X34263809Y-70986809D01*
X34187619Y-71024904D01*
X33959047Y-71024904D01*
X33882857Y-70986809D01*
X33844761Y-70948714D01*
X34568571Y-70224904D02*
X34835238Y-71024904D01*
X35101904Y-70224904D01*
X35292380Y-70224904D02*
X35787619Y-70224904D01*
X35520952Y-70529666D01*
X35635238Y-70529666D01*
X35711428Y-70567761D01*
X35749523Y-70605857D01*
X35787619Y-70682047D01*
X35787619Y-70872523D01*
X35749523Y-70948714D01*
X35711428Y-70986809D01*
X35635238Y-71024904D01*
X35406666Y-71024904D01*
X35330476Y-70986809D01*
X35292380Y-70948714D01*
X32930476Y-72008142D02*
X33540000Y-72008142D01*
X33235238Y-72312904D02*
X33235238Y-71703380D01*
X34301904Y-71512904D02*
X33920952Y-71512904D01*
X33882857Y-71893857D01*
X33920952Y-71855761D01*
X33997142Y-71817666D01*
X34187619Y-71817666D01*
X34263809Y-71855761D01*
X34301904Y-71893857D01*
X34340000Y-71970047D01*
X34340000Y-72160523D01*
X34301904Y-72236714D01*
X34263809Y-72274809D01*
X34187619Y-72312904D01*
X33997142Y-72312904D01*
X33920952Y-72274809D01*
X33882857Y-72236714D01*
X34568571Y-71512904D02*
X34835238Y-72312904D01*
X35101904Y-71512904D01*
X33349523Y-72839000D02*
X33273333Y-72800904D01*
X33159047Y-72800904D01*
X33044761Y-72839000D01*
X32968571Y-72915190D01*
X32930476Y-72991380D01*
X32892380Y-73143761D01*
X32892380Y-73258047D01*
X32930476Y-73410428D01*
X32968571Y-73486619D01*
X33044761Y-73562809D01*
X33159047Y-73600904D01*
X33235238Y-73600904D01*
X33349523Y-73562809D01*
X33387619Y-73524714D01*
X33387619Y-73258047D01*
X33235238Y-73258047D01*
X33730476Y-73600904D02*
X33730476Y-72800904D01*
X34187619Y-73600904D01*
X34187619Y-72800904D01*
X34568571Y-73600904D02*
X34568571Y-72800904D01*
X34759047Y-72800904D01*
X34873333Y-72839000D01*
X34949523Y-72915190D01*
X34987619Y-72991380D01*
X35025714Y-73143761D01*
X35025714Y-73258047D01*
X34987619Y-73410428D01*
X34949523Y-73486619D01*
X34873333Y-73562809D01*
X34759047Y-73600904D01*
X34568571Y-73600904D01*
D12*
X30709523Y-85261904D02*
X30442857Y-84880952D01*
X30252380Y-85261904D02*
X30252380Y-84461904D01*
X30557142Y-84461904D01*
X30633333Y-84500000D01*
X30671428Y-84538095D01*
X30709523Y-84614285D01*
X30709523Y-84728571D01*
X30671428Y-84804761D01*
X30633333Y-84842857D01*
X30557142Y-84880952D01*
X30252380Y-84880952D01*
X31357142Y-85223809D02*
X31280952Y-85261904D01*
X31128571Y-85261904D01*
X31052380Y-85223809D01*
X31014285Y-85147619D01*
X31014285Y-84842857D01*
X31052380Y-84766666D01*
X31128571Y-84728571D01*
X31280952Y-84728571D01*
X31357142Y-84766666D01*
X31395238Y-84842857D01*
X31395238Y-84919047D01*
X31014285Y-84995238D01*
X31700000Y-85223809D02*
X31776190Y-85261904D01*
X31928571Y-85261904D01*
X32004761Y-85223809D01*
X32042857Y-85147619D01*
X32042857Y-85109523D01*
X32004761Y-85033333D01*
X31928571Y-84995238D01*
X31814285Y-84995238D01*
X31738095Y-84957142D01*
X31700000Y-84880952D01*
X31700000Y-84842857D01*
X31738095Y-84766666D01*
X31814285Y-84728571D01*
X31928571Y-84728571D01*
X32004761Y-84766666D01*
X32690476Y-85223809D02*
X32614285Y-85261904D01*
X32461904Y-85261904D01*
X32385714Y-85223809D01*
X32347619Y-85147619D01*
X32347619Y-84842857D01*
X32385714Y-84766666D01*
X32461904Y-84728571D01*
X32614285Y-84728571D01*
X32690476Y-84766666D01*
X32728571Y-84842857D01*
X32728571Y-84919047D01*
X32347619Y-84995238D01*
X32957142Y-84728571D02*
X33261904Y-84728571D01*
X33071428Y-84461904D02*
X33071428Y-85147619D01*
X33109523Y-85223809D01*
X33185714Y-85261904D01*
X33261904Y-85261904D01*
X47157142Y-84842857D02*
X46890476Y-84842857D01*
X46890476Y-85261904D02*
X46890476Y-84461904D01*
X47271428Y-84461904D01*
X47690476Y-85261904D02*
X47614285Y-85223809D01*
X47576190Y-85147619D01*
X47576190Y-84461904D01*
X48338095Y-85261904D02*
X48338095Y-84842857D01*
X48300000Y-84766666D01*
X48223809Y-84728571D01*
X48071428Y-84728571D01*
X47995238Y-84766666D01*
X48338095Y-85223809D02*
X48261904Y-85261904D01*
X48071428Y-85261904D01*
X47995238Y-85223809D01*
X47957142Y-85147619D01*
X47957142Y-85071428D01*
X47995238Y-84995238D01*
X48071428Y-84957142D01*
X48261904Y-84957142D01*
X48338095Y-84919047D01*
X48680952Y-85223809D02*
X48757142Y-85261904D01*
X48909523Y-85261904D01*
X48985714Y-85223809D01*
X49023809Y-85147619D01*
X49023809Y-85109523D01*
X48985714Y-85033333D01*
X48909523Y-84995238D01*
X48795238Y-84995238D01*
X48719047Y-84957142D01*
X48680952Y-84880952D01*
X48680952Y-84842857D01*
X48719047Y-84766666D01*
X48795238Y-84728571D01*
X48909523Y-84728571D01*
X48985714Y-84766666D01*
X49366666Y-85261904D02*
X49366666Y-84461904D01*
X49709523Y-85261904D02*
X49709523Y-84842857D01*
X49671428Y-84766666D01*
X49595238Y-84728571D01*
X49480952Y-84728571D01*
X49404761Y-84766666D01*
X49366666Y-84804761D01*
X33601190Y-75927380D02*
X33525000Y-75889285D01*
X33372619Y-75889285D01*
X33296428Y-75927380D01*
X33220238Y-76003571D01*
X33182142Y-76079761D01*
X33182142Y-76232142D01*
X33220238Y-76308333D01*
X33296428Y-76384523D01*
X33372619Y-76422619D01*
X33525000Y-76422619D01*
X33601190Y-76384523D01*
X33448809Y-75622619D02*
X33258333Y-75660714D01*
X33067857Y-75775000D01*
X32953571Y-75965476D01*
X32915476Y-76155952D01*
X32953571Y-76346428D01*
X33067857Y-76536904D01*
X33258333Y-76651190D01*
X33448809Y-76689285D01*
X33639285Y-76651190D01*
X33829761Y-76536904D01*
X33944047Y-76346428D01*
X33982142Y-76155952D01*
X33944047Y-75965476D01*
X33829761Y-75775000D01*
X33639285Y-75660714D01*
X33448809Y-75622619D01*
X34286904Y-75813095D02*
X34325000Y-75775000D01*
X34401190Y-75736904D01*
X34591666Y-75736904D01*
X34667857Y-75775000D01*
X34705952Y-75813095D01*
X34744047Y-75889285D01*
X34744047Y-75965476D01*
X34705952Y-76079761D01*
X34248809Y-76536904D01*
X34744047Y-76536904D01*
X35239285Y-75736904D02*
X35315476Y-75736904D01*
X35391666Y-75775000D01*
X35429761Y-75813095D01*
X35467857Y-75889285D01*
X35505952Y-76041666D01*
X35505952Y-76232142D01*
X35467857Y-76384523D01*
X35429761Y-76460714D01*
X35391666Y-76498809D01*
X35315476Y-76536904D01*
X35239285Y-76536904D01*
X35163095Y-76498809D01*
X35125000Y-76460714D01*
X35086904Y-76384523D01*
X35048809Y-76232142D01*
X35048809Y-76041666D01*
X35086904Y-75889285D01*
X35125000Y-75813095D01*
X35163095Y-75775000D01*
X35239285Y-75736904D01*
X35810714Y-75813095D02*
X35848809Y-75775000D01*
X35925000Y-75736904D01*
X36115476Y-75736904D01*
X36191666Y-75775000D01*
X36229761Y-75813095D01*
X36267857Y-75889285D01*
X36267857Y-75965476D01*
X36229761Y-76079761D01*
X35772619Y-76536904D01*
X36267857Y-76536904D01*
X36572619Y-75813095D02*
X36610714Y-75775000D01*
X36686904Y-75736904D01*
X36877380Y-75736904D01*
X36953571Y-75775000D01*
X36991666Y-75813095D01*
X37029761Y-75889285D01*
X37029761Y-75965476D01*
X36991666Y-76079761D01*
X36534523Y-76536904D01*
X37029761Y-76536904D01*
X41029761Y-76536904D02*
X41029761Y-75736904D01*
X41296428Y-76308333D01*
X41563095Y-75736904D01*
X41563095Y-76536904D01*
X42286904Y-76536904D02*
X42286904Y-76117857D01*
X42248809Y-76041666D01*
X42172619Y-76003571D01*
X42020238Y-76003571D01*
X41944047Y-76041666D01*
X42286904Y-76498809D02*
X42210714Y-76536904D01*
X42020238Y-76536904D01*
X41944047Y-76498809D01*
X41905952Y-76422619D01*
X41905952Y-76346428D01*
X41944047Y-76270238D01*
X42020238Y-76232142D01*
X42210714Y-76232142D01*
X42286904Y-76194047D01*
X42667857Y-76536904D02*
X42667857Y-76003571D01*
X42667857Y-76155952D02*
X42705952Y-76079761D01*
X42744047Y-76041666D01*
X42820238Y-76003571D01*
X42896428Y-76003571D01*
X43505952Y-76498809D02*
X43429761Y-76536904D01*
X43277380Y-76536904D01*
X43201190Y-76498809D01*
X43163095Y-76460714D01*
X43125000Y-76384523D01*
X43125000Y-76155952D01*
X43163095Y-76079761D01*
X43201190Y-76041666D01*
X43277380Y-76003571D01*
X43429761Y-76003571D01*
X43505952Y-76041666D01*
X43963095Y-76536904D02*
X43886904Y-76498809D01*
X43848809Y-76460714D01*
X43810714Y-76384523D01*
X43810714Y-76155952D01*
X43848809Y-76079761D01*
X43886904Y-76041666D01*
X43963095Y-76003571D01*
X44077380Y-76003571D01*
X44153571Y-76041666D01*
X44191666Y-76079761D01*
X44229761Y-76155952D01*
X44229761Y-76384523D01*
X44191666Y-76460714D01*
X44153571Y-76498809D01*
X44077380Y-76536904D01*
X43963095Y-76536904D01*
X45182142Y-76536904D02*
X45182142Y-75736904D01*
X45448809Y-76308333D01*
X45715476Y-75736904D01*
X45715476Y-76536904D01*
X46439285Y-76536904D02*
X46439285Y-76117857D01*
X46401190Y-76041666D01*
X46325000Y-76003571D01*
X46172619Y-76003571D01*
X46096428Y-76041666D01*
X46439285Y-76498809D02*
X46363095Y-76536904D01*
X46172619Y-76536904D01*
X46096428Y-76498809D01*
X46058333Y-76422619D01*
X46058333Y-76346428D01*
X46096428Y-76270238D01*
X46172619Y-76232142D01*
X46363095Y-76232142D01*
X46439285Y-76194047D01*
X46820238Y-76536904D02*
X46820238Y-76003571D01*
X46820238Y-76155952D02*
X46858333Y-76079761D01*
X46896428Y-76041666D01*
X46972619Y-76003571D01*
X47048809Y-76003571D01*
X47201190Y-76003571D02*
X47505952Y-76003571D01*
X47315476Y-75736904D02*
X47315476Y-76422619D01*
X47353571Y-76498809D01*
X47429761Y-76536904D01*
X47505952Y-76536904D01*
X47772619Y-76536904D02*
X47772619Y-76003571D01*
X47772619Y-75736904D02*
X47734523Y-75775000D01*
X47772619Y-75813095D01*
X47810714Y-75775000D01*
X47772619Y-75736904D01*
X47772619Y-75813095D01*
X48153571Y-76003571D02*
X48153571Y-76536904D01*
X48153571Y-76079761D02*
X48191666Y-76041666D01*
X48267857Y-76003571D01*
X48382142Y-76003571D01*
X48458333Y-76041666D01*
X48496428Y-76117857D01*
X48496428Y-76536904D01*
X32833333Y-44873809D02*
X32947619Y-44911904D01*
X33138095Y-44911904D01*
X33214285Y-44873809D01*
X33252380Y-44835714D01*
X33290476Y-44759523D01*
X33290476Y-44683333D01*
X33252380Y-44607142D01*
X33214285Y-44569047D01*
X33138095Y-44530952D01*
X32985714Y-44492857D01*
X32909523Y-44454761D01*
X32871428Y-44416666D01*
X32833333Y-44340476D01*
X32833333Y-44264285D01*
X32871428Y-44188095D01*
X32909523Y-44150000D01*
X32985714Y-44111904D01*
X33176190Y-44111904D01*
X33290476Y-44150000D01*
X33938095Y-44873809D02*
X33861904Y-44911904D01*
X33709523Y-44911904D01*
X33633333Y-44873809D01*
X33595238Y-44797619D01*
X33595238Y-44492857D01*
X33633333Y-44416666D01*
X33709523Y-44378571D01*
X33861904Y-44378571D01*
X33938095Y-44416666D01*
X33976190Y-44492857D01*
X33976190Y-44569047D01*
X33595238Y-44645238D01*
X34319047Y-44378571D02*
X34319047Y-44911904D01*
X34319047Y-44454761D02*
X34357142Y-44416666D01*
X34433333Y-44378571D01*
X34547619Y-44378571D01*
X34623809Y-44416666D01*
X34661904Y-44492857D01*
X34661904Y-44911904D01*
X35004761Y-44873809D02*
X35080952Y-44911904D01*
X35233333Y-44911904D01*
X35309523Y-44873809D01*
X35347619Y-44797619D01*
X35347619Y-44759523D01*
X35309523Y-44683333D01*
X35233333Y-44645238D01*
X35119047Y-44645238D01*
X35042857Y-44607142D01*
X35004761Y-44530952D01*
X35004761Y-44492857D01*
X35042857Y-44416666D01*
X35119047Y-44378571D01*
X35233333Y-44378571D01*
X35309523Y-44416666D01*
X35804761Y-44911904D02*
X35728571Y-44873809D01*
X35690476Y-44835714D01*
X35652380Y-44759523D01*
X35652380Y-44530952D01*
X35690476Y-44454761D01*
X35728571Y-44416666D01*
X35804761Y-44378571D01*
X35919047Y-44378571D01*
X35995238Y-44416666D01*
X36033333Y-44454761D01*
X36071428Y-44530952D01*
X36071428Y-44759523D01*
X36033333Y-44835714D01*
X35995238Y-44873809D01*
X35919047Y-44911904D01*
X35804761Y-44911904D01*
X36414285Y-44911904D02*
X36414285Y-44378571D01*
X36414285Y-44530952D02*
X36452380Y-44454761D01*
X36490476Y-44416666D01*
X36566666Y-44378571D01*
X36642857Y-44378571D01*
X41315476Y-39767857D02*
X41048809Y-39767857D01*
X41048809Y-40186904D02*
X41048809Y-39386904D01*
X41429761Y-39386904D01*
X42077380Y-40186904D02*
X42077380Y-39767857D01*
X42039285Y-39691666D01*
X41963095Y-39653571D01*
X41810714Y-39653571D01*
X41734523Y-39691666D01*
X42077380Y-40148809D02*
X42001190Y-40186904D01*
X41810714Y-40186904D01*
X41734523Y-40148809D01*
X41696428Y-40072619D01*
X41696428Y-39996428D01*
X41734523Y-39920238D01*
X41810714Y-39882142D01*
X42001190Y-39882142D01*
X42077380Y-39844047D01*
X42458333Y-39653571D02*
X42458333Y-40186904D01*
X42458333Y-39729761D02*
X42496428Y-39691666D01*
X42572619Y-39653571D01*
X42686904Y-39653571D01*
X42763095Y-39691666D01*
X42801190Y-39767857D01*
X42801190Y-40186904D01*
%TO.C,U2*%
X43340476Y-66786904D02*
X43340476Y-67434523D01*
X43378571Y-67510714D01*
X43416666Y-67548809D01*
X43492857Y-67586904D01*
X43645238Y-67586904D01*
X43721428Y-67548809D01*
X43759523Y-67510714D01*
X43797619Y-67434523D01*
X43797619Y-66786904D01*
X44140476Y-66863095D02*
X44178571Y-66825000D01*
X44254761Y-66786904D01*
X44445238Y-66786904D01*
X44521428Y-66825000D01*
X44559523Y-66863095D01*
X44597619Y-66939285D01*
X44597619Y-67015476D01*
X44559523Y-67129761D01*
X44102380Y-67586904D01*
X44597619Y-67586904D01*
D13*
%TO.C,J1*%
X39666666Y-100412380D02*
X39666666Y-101126666D01*
X39619047Y-101269523D01*
X39523809Y-101364761D01*
X39380952Y-101412380D01*
X39285714Y-101412380D01*
X40666666Y-101412380D02*
X40095238Y-101412380D01*
X40380952Y-101412380D02*
X40380952Y-100412380D01*
X40285714Y-100555238D01*
X40190476Y-100650476D01*
X40095238Y-100698095D01*
%TO.C,R3*%
X44702380Y-98966666D02*
X44226190Y-99300000D01*
X44702380Y-99538095D02*
X43702380Y-99538095D01*
X43702380Y-99157142D01*
X43750000Y-99061904D01*
X43797619Y-99014285D01*
X43892857Y-98966666D01*
X44035714Y-98966666D01*
X44130952Y-99014285D01*
X44178571Y-99061904D01*
X44226190Y-99157142D01*
X44226190Y-99538095D01*
X43702380Y-98633333D02*
X43702380Y-98014285D01*
X44083333Y-98347619D01*
X44083333Y-98204761D01*
X44130952Y-98109523D01*
X44178571Y-98061904D01*
X44273809Y-98014285D01*
X44511904Y-98014285D01*
X44607142Y-98061904D01*
X44654761Y-98109523D01*
X44702380Y-98204761D01*
X44702380Y-98490476D01*
X44654761Y-98585714D01*
X44607142Y-98633333D01*
%TO.C,J2*%
X38641666Y-38852380D02*
X38641666Y-39566666D01*
X38594047Y-39709523D01*
X38498809Y-39804761D01*
X38355952Y-39852380D01*
X38260714Y-39852380D01*
X39070238Y-38947619D02*
X39117857Y-38900000D01*
X39213095Y-38852380D01*
X39451190Y-38852380D01*
X39546428Y-38900000D01*
X39594047Y-38947619D01*
X39641666Y-39042857D01*
X39641666Y-39138095D01*
X39594047Y-39280952D01*
X39022619Y-39852380D01*
X39641666Y-39852380D01*
%TO.C,R8*%
X40858333Y-36277380D02*
X40525000Y-35801190D01*
X40286904Y-36277380D02*
X40286904Y-35277380D01*
X40667857Y-35277380D01*
X40763095Y-35325000D01*
X40810714Y-35372619D01*
X40858333Y-35467857D01*
X40858333Y-35610714D01*
X40810714Y-35705952D01*
X40763095Y-35753571D01*
X40667857Y-35801190D01*
X40286904Y-35801190D01*
X41429761Y-35705952D02*
X41334523Y-35658333D01*
X41286904Y-35610714D01*
X41239285Y-35515476D01*
X41239285Y-35467857D01*
X41286904Y-35372619D01*
X41334523Y-35325000D01*
X41429761Y-35277380D01*
X41620238Y-35277380D01*
X41715476Y-35325000D01*
X41763095Y-35372619D01*
X41810714Y-35467857D01*
X41810714Y-35515476D01*
X41763095Y-35610714D01*
X41715476Y-35658333D01*
X41620238Y-35705952D01*
X41429761Y-35705952D01*
X41334523Y-35753571D01*
X41286904Y-35801190D01*
X41239285Y-35896428D01*
X41239285Y-36086904D01*
X41286904Y-36182142D01*
X41334523Y-36229761D01*
X41429761Y-36277380D01*
X41620238Y-36277380D01*
X41715476Y-36229761D01*
X41763095Y-36182142D01*
X41810714Y-36086904D01*
X41810714Y-35896428D01*
X41763095Y-35801190D01*
X41715476Y-35753571D01*
X41620238Y-35705952D01*
%TO.C,R9*%
X40858333Y-34477380D02*
X40525000Y-34001190D01*
X40286904Y-34477380D02*
X40286904Y-33477380D01*
X40667857Y-33477380D01*
X40763095Y-33525000D01*
X40810714Y-33572619D01*
X40858333Y-33667857D01*
X40858333Y-33810714D01*
X40810714Y-33905952D01*
X40763095Y-33953571D01*
X40667857Y-34001190D01*
X40286904Y-34001190D01*
X41334523Y-34477380D02*
X41525000Y-34477380D01*
X41620238Y-34429761D01*
X41667857Y-34382142D01*
X41763095Y-34239285D01*
X41810714Y-34048809D01*
X41810714Y-33667857D01*
X41763095Y-33572619D01*
X41715476Y-33525000D01*
X41620238Y-33477380D01*
X41429761Y-33477380D01*
X41334523Y-33525000D01*
X41286904Y-33572619D01*
X41239285Y-33667857D01*
X41239285Y-33905952D01*
X41286904Y-34001190D01*
X41334523Y-34048809D01*
X41429761Y-34096428D01*
X41620238Y-34096428D01*
X41715476Y-34048809D01*
X41763095Y-34001190D01*
X41810714Y-33905952D01*
D12*
%TO.C,J3*%
X45158333Y-44361904D02*
X45158333Y-44933333D01*
X45120238Y-45047619D01*
X45044047Y-45123809D01*
X44929761Y-45161904D01*
X44853571Y-45161904D01*
X45463095Y-44361904D02*
X45958333Y-44361904D01*
X45691666Y-44666666D01*
X45805952Y-44666666D01*
X45882142Y-44704761D01*
X45920238Y-44742857D01*
X45958333Y-44819047D01*
X45958333Y-45009523D01*
X45920238Y-45085714D01*
X45882142Y-45123809D01*
X45805952Y-45161904D01*
X45577380Y-45161904D01*
X45501190Y-45123809D01*
X45463095Y-45085714D01*
%TO.C,R5*%
X40366666Y-67561904D02*
X40100000Y-67180952D01*
X39909523Y-67561904D02*
X39909523Y-66761904D01*
X40214285Y-66761904D01*
X40290476Y-66800000D01*
X40328571Y-66838095D01*
X40366666Y-66914285D01*
X40366666Y-67028571D01*
X40328571Y-67104761D01*
X40290476Y-67142857D01*
X40214285Y-67180952D01*
X39909523Y-67180952D01*
X41090476Y-66761904D02*
X40709523Y-66761904D01*
X40671428Y-67142857D01*
X40709523Y-67104761D01*
X40785714Y-67066666D01*
X40976190Y-67066666D01*
X41052380Y-67104761D01*
X41090476Y-67142857D01*
X41128571Y-67219047D01*
X41128571Y-67409523D01*
X41090476Y-67485714D01*
X41052380Y-67523809D01*
X40976190Y-67561904D01*
X40785714Y-67561904D01*
X40709523Y-67523809D01*
X40671428Y-67485714D01*
%TO.C,C3*%
X43691666Y-65285714D02*
X43653571Y-65323809D01*
X43539285Y-65361904D01*
X43463095Y-65361904D01*
X43348809Y-65323809D01*
X43272619Y-65247619D01*
X43234523Y-65171428D01*
X43196428Y-65019047D01*
X43196428Y-64904761D01*
X43234523Y-64752380D01*
X43272619Y-64676190D01*
X43348809Y-64600000D01*
X43463095Y-64561904D01*
X43539285Y-64561904D01*
X43653571Y-64600000D01*
X43691666Y-64638095D01*
X43958333Y-64561904D02*
X44453571Y-64561904D01*
X44186904Y-64866666D01*
X44301190Y-64866666D01*
X44377380Y-64904761D01*
X44415476Y-64942857D01*
X44453571Y-65019047D01*
X44453571Y-65209523D01*
X44415476Y-65285714D01*
X44377380Y-65323809D01*
X44301190Y-65361904D01*
X44072619Y-65361904D01*
X43996428Y-65323809D01*
X43958333Y-65285714D01*
D13*
%TO.C,C4*%
X37383333Y-71457142D02*
X37335714Y-71504761D01*
X37192857Y-71552380D01*
X37097619Y-71552380D01*
X36954761Y-71504761D01*
X36859523Y-71409523D01*
X36811904Y-71314285D01*
X36764285Y-71123809D01*
X36764285Y-70980952D01*
X36811904Y-70790476D01*
X36859523Y-70695238D01*
X36954761Y-70600000D01*
X37097619Y-70552380D01*
X37192857Y-70552380D01*
X37335714Y-70600000D01*
X37383333Y-70647619D01*
X38240476Y-70885714D02*
X38240476Y-71552380D01*
X38002380Y-70504761D02*
X37764285Y-71219047D01*
X38383333Y-71219047D01*
D12*
%TO.C,C2*%
X36216666Y-67485714D02*
X36178571Y-67523809D01*
X36064285Y-67561904D01*
X35988095Y-67561904D01*
X35873809Y-67523809D01*
X35797619Y-67447619D01*
X35759523Y-67371428D01*
X35721428Y-67219047D01*
X35721428Y-67104761D01*
X35759523Y-66952380D01*
X35797619Y-66876190D01*
X35873809Y-66800000D01*
X35988095Y-66761904D01*
X36064285Y-66761904D01*
X36178571Y-66800000D01*
X36216666Y-66838095D01*
X36521428Y-66838095D02*
X36559523Y-66800000D01*
X36635714Y-66761904D01*
X36826190Y-66761904D01*
X36902380Y-66800000D01*
X36940476Y-66838095D01*
X36978571Y-66914285D01*
X36978571Y-66990476D01*
X36940476Y-67104761D01*
X36483333Y-67561904D01*
X36978571Y-67561904D01*
%TO.C,C7*%
X49435714Y-59533333D02*
X49473809Y-59571428D01*
X49511904Y-59685714D01*
X49511904Y-59761904D01*
X49473809Y-59876190D01*
X49397619Y-59952380D01*
X49321428Y-59990476D01*
X49169047Y-60028571D01*
X49054761Y-60028571D01*
X48902380Y-59990476D01*
X48826190Y-59952380D01*
X48750000Y-59876190D01*
X48711904Y-59761904D01*
X48711904Y-59685714D01*
X48750000Y-59571428D01*
X48788095Y-59533333D01*
X48711904Y-59266666D02*
X48711904Y-58733333D01*
X49511904Y-59076190D01*
D13*
%TO.C,C5*%
X41437142Y-98716666D02*
X41484761Y-98764285D01*
X41532380Y-98907142D01*
X41532380Y-99002380D01*
X41484761Y-99145238D01*
X41389523Y-99240476D01*
X41294285Y-99288095D01*
X41103809Y-99335714D01*
X40960952Y-99335714D01*
X40770476Y-99288095D01*
X40675238Y-99240476D01*
X40580000Y-99145238D01*
X40532380Y-99002380D01*
X40532380Y-98907142D01*
X40580000Y-98764285D01*
X40627619Y-98716666D01*
X40532380Y-97811904D02*
X40532380Y-98288095D01*
X41008571Y-98335714D01*
X40960952Y-98288095D01*
X40913333Y-98192857D01*
X40913333Y-97954761D01*
X40960952Y-97859523D01*
X41008571Y-97811904D01*
X41103809Y-97764285D01*
X41341904Y-97764285D01*
X41437142Y-97811904D01*
X41484761Y-97859523D01*
X41532380Y-97954761D01*
X41532380Y-98192857D01*
X41484761Y-98288095D01*
X41437142Y-98335714D01*
%TO.C,C6*%
X32182142Y-91766666D02*
X32229761Y-91814285D01*
X32277380Y-91957142D01*
X32277380Y-92052380D01*
X32229761Y-92195238D01*
X32134523Y-92290476D01*
X32039285Y-92338095D01*
X31848809Y-92385714D01*
X31705952Y-92385714D01*
X31515476Y-92338095D01*
X31420238Y-92290476D01*
X31325000Y-92195238D01*
X31277380Y-92052380D01*
X31277380Y-91957142D01*
X31325000Y-91814285D01*
X31372619Y-91766666D01*
X31277380Y-90909523D02*
X31277380Y-91100000D01*
X31325000Y-91195238D01*
X31372619Y-91242857D01*
X31515476Y-91338095D01*
X31705952Y-91385714D01*
X32086904Y-91385714D01*
X32182142Y-91338095D01*
X32229761Y-91290476D01*
X32277380Y-91195238D01*
X32277380Y-91004761D01*
X32229761Y-90909523D01*
X32182142Y-90861904D01*
X32086904Y-90814285D01*
X31848809Y-90814285D01*
X31753571Y-90861904D01*
X31705952Y-90909523D01*
X31658333Y-91004761D01*
X31658333Y-91195238D01*
X31705952Y-91290476D01*
X31753571Y-91338095D01*
X31848809Y-91385714D01*
D12*
%TO.C,Q2*%
X36973809Y-84838095D02*
X36897619Y-84800000D01*
X36821428Y-84723809D01*
X36707142Y-84609523D01*
X36630952Y-84571428D01*
X36554761Y-84571428D01*
X36592857Y-84761904D02*
X36516666Y-84723809D01*
X36440476Y-84647619D01*
X36402380Y-84495238D01*
X36402380Y-84228571D01*
X36440476Y-84076190D01*
X36516666Y-84000000D01*
X36592857Y-83961904D01*
X36745238Y-83961904D01*
X36821428Y-84000000D01*
X36897619Y-84076190D01*
X36935714Y-84228571D01*
X36935714Y-84495238D01*
X36897619Y-84647619D01*
X36821428Y-84723809D01*
X36745238Y-84761904D01*
X36592857Y-84761904D01*
X37240476Y-84038095D02*
X37278571Y-84000000D01*
X37354761Y-83961904D01*
X37545238Y-83961904D01*
X37621428Y-84000000D01*
X37659523Y-84038095D01*
X37697619Y-84114285D01*
X37697619Y-84190476D01*
X37659523Y-84304761D01*
X37202380Y-84761904D01*
X37697619Y-84761904D01*
%TO.C,Q3*%
X42923809Y-84938095D02*
X42847619Y-84900000D01*
X42771428Y-84823809D01*
X42657142Y-84709523D01*
X42580952Y-84671428D01*
X42504761Y-84671428D01*
X42542857Y-84861904D02*
X42466666Y-84823809D01*
X42390476Y-84747619D01*
X42352380Y-84595238D01*
X42352380Y-84328571D01*
X42390476Y-84176190D01*
X42466666Y-84100000D01*
X42542857Y-84061904D01*
X42695238Y-84061904D01*
X42771428Y-84100000D01*
X42847619Y-84176190D01*
X42885714Y-84328571D01*
X42885714Y-84595238D01*
X42847619Y-84747619D01*
X42771428Y-84823809D01*
X42695238Y-84861904D01*
X42542857Y-84861904D01*
X43152380Y-84061904D02*
X43647619Y-84061904D01*
X43380952Y-84366666D01*
X43495238Y-84366666D01*
X43571428Y-84404761D01*
X43609523Y-84442857D01*
X43647619Y-84519047D01*
X43647619Y-84709523D01*
X43609523Y-84785714D01*
X43571428Y-84823809D01*
X43495238Y-84861904D01*
X43266666Y-84861904D01*
X43190476Y-84823809D01*
X43152380Y-84785714D01*
D13*
%TO.C,U3*%
X45352380Y-93786904D02*
X46161904Y-93786904D01*
X46257142Y-93739285D01*
X46304761Y-93691666D01*
X46352380Y-93596428D01*
X46352380Y-93405952D01*
X46304761Y-93310714D01*
X46257142Y-93263095D01*
X46161904Y-93215476D01*
X45352380Y-93215476D01*
X45352380Y-92834523D02*
X45352380Y-92215476D01*
X45733333Y-92548809D01*
X45733333Y-92405952D01*
X45780952Y-92310714D01*
X45828571Y-92263095D01*
X45923809Y-92215476D01*
X46161904Y-92215476D01*
X46257142Y-92263095D01*
X46304761Y-92310714D01*
X46352380Y-92405952D01*
X46352380Y-92691666D01*
X46304761Y-92786904D01*
X46257142Y-92834523D01*
%TO.C,C8*%
X48658333Y-40082142D02*
X48610714Y-40129761D01*
X48467857Y-40177380D01*
X48372619Y-40177380D01*
X48229761Y-40129761D01*
X48134523Y-40034523D01*
X48086904Y-39939285D01*
X48039285Y-39748809D01*
X48039285Y-39605952D01*
X48086904Y-39415476D01*
X48134523Y-39320238D01*
X48229761Y-39225000D01*
X48372619Y-39177380D01*
X48467857Y-39177380D01*
X48610714Y-39225000D01*
X48658333Y-39272619D01*
X49229761Y-39605952D02*
X49134523Y-39558333D01*
X49086904Y-39510714D01*
X49039285Y-39415476D01*
X49039285Y-39367857D01*
X49086904Y-39272619D01*
X49134523Y-39225000D01*
X49229761Y-39177380D01*
X49420238Y-39177380D01*
X49515476Y-39225000D01*
X49563095Y-39272619D01*
X49610714Y-39367857D01*
X49610714Y-39415476D01*
X49563095Y-39510714D01*
X49515476Y-39558333D01*
X49420238Y-39605952D01*
X49229761Y-39605952D01*
X49134523Y-39653571D01*
X49086904Y-39701190D01*
X49039285Y-39796428D01*
X49039285Y-39986904D01*
X49086904Y-40082142D01*
X49134523Y-40129761D01*
X49229761Y-40177380D01*
X49420238Y-40177380D01*
X49515476Y-40129761D01*
X49563095Y-40082142D01*
X49610714Y-39986904D01*
X49610714Y-39796428D01*
X49563095Y-39701190D01*
X49515476Y-39653571D01*
X49420238Y-39605952D01*
D12*
%TO.C,C9*%
X32741666Y-35485714D02*
X32703571Y-35523809D01*
X32589285Y-35561904D01*
X32513095Y-35561904D01*
X32398809Y-35523809D01*
X32322619Y-35447619D01*
X32284523Y-35371428D01*
X32246428Y-35219047D01*
X32246428Y-35104761D01*
X32284523Y-34952380D01*
X32322619Y-34876190D01*
X32398809Y-34800000D01*
X32513095Y-34761904D01*
X32589285Y-34761904D01*
X32703571Y-34800000D01*
X32741666Y-34838095D01*
X33122619Y-35561904D02*
X33275000Y-35561904D01*
X33351190Y-35523809D01*
X33389285Y-35485714D01*
X33465476Y-35371428D01*
X33503571Y-35219047D01*
X33503571Y-34914285D01*
X33465476Y-34838095D01*
X33427380Y-34800000D01*
X33351190Y-34761904D01*
X33198809Y-34761904D01*
X33122619Y-34800000D01*
X33084523Y-34838095D01*
X33046428Y-34914285D01*
X33046428Y-35104761D01*
X33084523Y-35180952D01*
X33122619Y-35219047D01*
X33198809Y-35257142D01*
X33351190Y-35257142D01*
X33427380Y-35219047D01*
X33465476Y-35180952D01*
X33503571Y-35104761D01*
D13*
%TO.C,D19*%
X38352380Y-99914285D02*
X37352380Y-99914285D01*
X37352380Y-99676190D01*
X37400000Y-99533333D01*
X37495238Y-99438095D01*
X37590476Y-99390476D01*
X37780952Y-99342857D01*
X37923809Y-99342857D01*
X38114285Y-99390476D01*
X38209523Y-99438095D01*
X38304761Y-99533333D01*
X38352380Y-99676190D01*
X38352380Y-99914285D01*
X38352380Y-98390476D02*
X38352380Y-98961904D01*
X38352380Y-98676190D02*
X37352380Y-98676190D01*
X37495238Y-98771428D01*
X37590476Y-98866666D01*
X37638095Y-98961904D01*
X38352380Y-97914285D02*
X38352380Y-97723809D01*
X38304761Y-97628571D01*
X38257142Y-97580952D01*
X38114285Y-97485714D01*
X37923809Y-97438095D01*
X37542857Y-97438095D01*
X37447619Y-97485714D01*
X37400000Y-97533333D01*
X37352380Y-97628571D01*
X37352380Y-97819047D01*
X37400000Y-97914285D01*
X37447619Y-97961904D01*
X37542857Y-98009523D01*
X37780952Y-98009523D01*
X37876190Y-97961904D01*
X37923809Y-97914285D01*
X37971428Y-97819047D01*
X37971428Y-97628571D01*
X37923809Y-97533333D01*
X37876190Y-97485714D01*
X37780952Y-97438095D01*
D12*
%TO.C,R10*%
X34611904Y-84614285D02*
X34230952Y-84880952D01*
X34611904Y-85071428D02*
X33811904Y-85071428D01*
X33811904Y-84766666D01*
X33850000Y-84690476D01*
X33888095Y-84652380D01*
X33964285Y-84614285D01*
X34078571Y-84614285D01*
X34154761Y-84652380D01*
X34192857Y-84690476D01*
X34230952Y-84766666D01*
X34230952Y-85071428D01*
X34611904Y-83852380D02*
X34611904Y-84309523D01*
X34611904Y-84080952D02*
X33811904Y-84080952D01*
X33926190Y-84157142D01*
X34002380Y-84233333D01*
X34040476Y-84309523D01*
X33811904Y-83357142D02*
X33811904Y-83280952D01*
X33850000Y-83204761D01*
X33888095Y-83166666D01*
X33964285Y-83128571D01*
X34116666Y-83090476D01*
X34307142Y-83090476D01*
X34459523Y-83128571D01*
X34535714Y-83166666D01*
X34573809Y-83204761D01*
X34611904Y-83280952D01*
X34611904Y-83357142D01*
X34573809Y-83433333D01*
X34535714Y-83471428D01*
X34459523Y-83509523D01*
X34307142Y-83547619D01*
X34116666Y-83547619D01*
X33964285Y-83509523D01*
X33888095Y-83471428D01*
X33850000Y-83433333D01*
X33811904Y-83357142D01*
%TO.C,R13*%
X46161904Y-84614285D02*
X45780952Y-84880952D01*
X46161904Y-85071428D02*
X45361904Y-85071428D01*
X45361904Y-84766666D01*
X45400000Y-84690476D01*
X45438095Y-84652380D01*
X45514285Y-84614285D01*
X45628571Y-84614285D01*
X45704761Y-84652380D01*
X45742857Y-84690476D01*
X45780952Y-84766666D01*
X45780952Y-85071428D01*
X46161904Y-83852380D02*
X46161904Y-84309523D01*
X46161904Y-84080952D02*
X45361904Y-84080952D01*
X45476190Y-84157142D01*
X45552380Y-84233333D01*
X45590476Y-84309523D01*
X45361904Y-83585714D02*
X45361904Y-83090476D01*
X45666666Y-83357142D01*
X45666666Y-83242857D01*
X45704761Y-83166666D01*
X45742857Y-83128571D01*
X45819047Y-83090476D01*
X46009523Y-83090476D01*
X46085714Y-83128571D01*
X46123809Y-83166666D01*
X46161904Y-83242857D01*
X46161904Y-83471428D01*
X46123809Y-83547619D01*
X46085714Y-83585714D01*
D13*
%TO.C,D1*%
X40186904Y-38327380D02*
X40186904Y-37327380D01*
X40425000Y-37327380D01*
X40567857Y-37375000D01*
X40663095Y-37470238D01*
X40710714Y-37565476D01*
X40758333Y-37755952D01*
X40758333Y-37898809D01*
X40710714Y-38089285D01*
X40663095Y-38184523D01*
X40567857Y-38279761D01*
X40425000Y-38327380D01*
X40186904Y-38327380D01*
X41710714Y-38327380D02*
X41139285Y-38327380D01*
X41425000Y-38327380D02*
X41425000Y-37327380D01*
X41329761Y-37470238D01*
X41234523Y-37565476D01*
X41139285Y-37613095D01*
%TO.C,U1*%
X47388095Y-46877380D02*
X47388095Y-47686904D01*
X47435714Y-47782142D01*
X47483333Y-47829761D01*
X47578571Y-47877380D01*
X47769047Y-47877380D01*
X47864285Y-47829761D01*
X47911904Y-47782142D01*
X47959523Y-47686904D01*
X47959523Y-46877380D01*
X48959523Y-47877380D02*
X48388095Y-47877380D01*
X48673809Y-47877380D02*
X48673809Y-46877380D01*
X48578571Y-47020238D01*
X48483333Y-47115476D01*
X48388095Y-47163095D01*
%TO.C,Q1*%
X45529761Y-33122619D02*
X45434523Y-33075000D01*
X45339285Y-32979761D01*
X45196428Y-32836904D01*
X45101190Y-32789285D01*
X45005952Y-32789285D01*
X45053571Y-33027380D02*
X44958333Y-32979761D01*
X44863095Y-32884523D01*
X44815476Y-32694047D01*
X44815476Y-32360714D01*
X44863095Y-32170238D01*
X44958333Y-32075000D01*
X45053571Y-32027380D01*
X45244047Y-32027380D01*
X45339285Y-32075000D01*
X45434523Y-32170238D01*
X45482142Y-32360714D01*
X45482142Y-32694047D01*
X45434523Y-32884523D01*
X45339285Y-32979761D01*
X45244047Y-33027380D01*
X45053571Y-33027380D01*
X46434523Y-33027380D02*
X45863095Y-33027380D01*
X46148809Y-33027380D02*
X46148809Y-32027380D01*
X46053571Y-32170238D01*
X45958333Y-32265476D01*
X45863095Y-32313095D01*
D12*
%TO.C,C1*%
X42141666Y-71360714D02*
X42103571Y-71398809D01*
X41989285Y-71436904D01*
X41913095Y-71436904D01*
X41798809Y-71398809D01*
X41722619Y-71322619D01*
X41684523Y-71246428D01*
X41646428Y-71094047D01*
X41646428Y-70979761D01*
X41684523Y-70827380D01*
X41722619Y-70751190D01*
X41798809Y-70675000D01*
X41913095Y-70636904D01*
X41989285Y-70636904D01*
X42103571Y-70675000D01*
X42141666Y-70713095D01*
X42903571Y-71436904D02*
X42446428Y-71436904D01*
X42675000Y-71436904D02*
X42675000Y-70636904D01*
X42598809Y-70751190D01*
X42522619Y-70827380D01*
X42446428Y-70865476D01*
%TO.C,C11*%
X49335714Y-70839285D02*
X49373809Y-70877380D01*
X49411904Y-70991666D01*
X49411904Y-71067857D01*
X49373809Y-71182142D01*
X49297619Y-71258333D01*
X49221428Y-71296428D01*
X49069047Y-71334523D01*
X48954761Y-71334523D01*
X48802380Y-71296428D01*
X48726190Y-71258333D01*
X48650000Y-71182142D01*
X48611904Y-71067857D01*
X48611904Y-70991666D01*
X48650000Y-70877380D01*
X48688095Y-70839285D01*
X49411904Y-70077380D02*
X49411904Y-70534523D01*
X49411904Y-70305952D02*
X48611904Y-70305952D01*
X48726190Y-70382142D01*
X48802380Y-70458333D01*
X48840476Y-70534523D01*
X49411904Y-69315476D02*
X49411904Y-69772619D01*
X49411904Y-69544047D02*
X48611904Y-69544047D01*
X48726190Y-69620238D01*
X48802380Y-69696428D01*
X48840476Y-69772619D01*
%TO.C,RN1*%
X39397619Y-88711904D02*
X39130952Y-88330952D01*
X38940476Y-88711904D02*
X38940476Y-87911904D01*
X39245238Y-87911904D01*
X39321428Y-87950000D01*
X39359523Y-87988095D01*
X39397619Y-88064285D01*
X39397619Y-88178571D01*
X39359523Y-88254761D01*
X39321428Y-88292857D01*
X39245238Y-88330952D01*
X38940476Y-88330952D01*
X39740476Y-88711904D02*
X39740476Y-87911904D01*
X40197619Y-88711904D01*
X40197619Y-87911904D01*
X40997619Y-88711904D02*
X40540476Y-88711904D01*
X40769047Y-88711904D02*
X40769047Y-87911904D01*
X40692857Y-88026190D01*
X40616666Y-88102380D01*
X40540476Y-88140476D01*
%TO.C,RN2*%
X37947619Y-67311904D02*
X37680952Y-66930952D01*
X37490476Y-67311904D02*
X37490476Y-66511904D01*
X37795238Y-66511904D01*
X37871428Y-66550000D01*
X37909523Y-66588095D01*
X37947619Y-66664285D01*
X37947619Y-66778571D01*
X37909523Y-66854761D01*
X37871428Y-66892857D01*
X37795238Y-66930952D01*
X37490476Y-66930952D01*
X38290476Y-67311904D02*
X38290476Y-66511904D01*
X38747619Y-67311904D01*
X38747619Y-66511904D01*
X39090476Y-66588095D02*
X39128571Y-66550000D01*
X39204761Y-66511904D01*
X39395238Y-66511904D01*
X39471428Y-66550000D01*
X39509523Y-66588095D01*
X39547619Y-66664285D01*
X39547619Y-66740476D01*
X39509523Y-66854761D01*
X39052380Y-67311904D01*
X39547619Y-67311904D01*
%TO.C,R6*%
X36461904Y-34583333D02*
X36080952Y-34850000D01*
X36461904Y-35040476D02*
X35661904Y-35040476D01*
X35661904Y-34735714D01*
X35700000Y-34659523D01*
X35738095Y-34621428D01*
X35814285Y-34583333D01*
X35928571Y-34583333D01*
X36004761Y-34621428D01*
X36042857Y-34659523D01*
X36080952Y-34735714D01*
X36080952Y-35040476D01*
X35661904Y-33897619D02*
X35661904Y-34050000D01*
X35700000Y-34126190D01*
X35738095Y-34164285D01*
X35852380Y-34240476D01*
X36004761Y-34278571D01*
X36309523Y-34278571D01*
X36385714Y-34240476D01*
X36423809Y-34202380D01*
X36461904Y-34126190D01*
X36461904Y-33973809D01*
X36423809Y-33897619D01*
X36385714Y-33859523D01*
X36309523Y-33821428D01*
X36119047Y-33821428D01*
X36042857Y-33859523D01*
X36004761Y-33897619D01*
X35966666Y-33973809D01*
X35966666Y-34126190D01*
X36004761Y-34202380D01*
X36042857Y-34240476D01*
X36119047Y-34278571D01*
%TO.C,R4*%
X38036904Y-34583333D02*
X37655952Y-34850000D01*
X38036904Y-35040476D02*
X37236904Y-35040476D01*
X37236904Y-34735714D01*
X37275000Y-34659523D01*
X37313095Y-34621428D01*
X37389285Y-34583333D01*
X37503571Y-34583333D01*
X37579761Y-34621428D01*
X37617857Y-34659523D01*
X37655952Y-34735714D01*
X37655952Y-35040476D01*
X37503571Y-33897619D02*
X38036904Y-33897619D01*
X37198809Y-34088095D02*
X37770238Y-34278571D01*
X37770238Y-33783333D01*
%TO.C,J7*%
X49525000Y-30325000D02*
X49525000Y-30275000D01*
X49525000Y-30275000D02*
X47675000Y-30275000D01*
X49525000Y-32175000D02*
X49525000Y-30325000D01*
X47675000Y-32175000D02*
X49525000Y-32175000D01*
X47675000Y-30275000D02*
X47675000Y-32175000D01*
%TO.C,J6*%
X49525000Y-73075000D02*
X49525000Y-73025000D01*
X49525000Y-73025000D02*
X47675000Y-73025000D01*
X49525000Y-74925000D02*
X49525000Y-73075000D01*
X47675000Y-74925000D02*
X49525000Y-74925000D01*
X47675000Y-73025000D02*
X47675000Y-74925000D01*
%TO.C,U2*%
X47960000Y-68300000D02*
X47960000Y-67500000D01*
X47960000Y-68300000D02*
X47960000Y-69100000D01*
X44840000Y-68300000D02*
X44840000Y-67500000D01*
X44840000Y-68300000D02*
X44840000Y-70100000D01*
D11*
%TO.C,J1*%
X44500000Y-102000000D02*
X43200000Y-102000000D01*
X44500000Y-105000000D02*
X35500000Y-105000000D01*
X44500000Y-102000000D02*
X44500000Y-102400000D01*
X35500000Y-104550000D02*
X35500000Y-105000000D01*
X44500000Y-105000000D02*
X44500000Y-104600000D01*
X35500000Y-102000000D02*
X35500000Y-102450000D01*
X35500000Y-102000000D02*
X36800000Y-102000000D01*
D12*
X43020156Y-104250000D02*
G75*
G03*
X43020156Y-104250000I-320156J0D01*
G01*
%TO.C,R3*%
X42277500Y-98562742D02*
X42277500Y-99037258D01*
X43322500Y-98562742D02*
X43322500Y-99037258D01*
%TO.C,J2*%
X39575000Y-40450000D02*
X39575000Y-41150000D01*
X30975000Y-40450000D02*
X30975000Y-41150000D01*
X38275000Y-40450000D02*
X39575000Y-40450000D01*
X30975000Y-44200000D02*
X39575000Y-44200000D01*
X32275000Y-40450000D02*
X30975000Y-40450000D01*
X30975000Y-43700000D02*
X30975000Y-44200000D01*
X39575000Y-43700000D02*
X39575000Y-44200000D01*
%TO.C,R8*%
X43662258Y-35252500D02*
X43187742Y-35252500D01*
X43662258Y-36297500D02*
X43187742Y-36297500D01*
%TO.C,R9*%
X43662258Y-33452500D02*
X43187742Y-33452500D01*
X43662258Y-34497500D02*
X43187742Y-34497500D01*
%TO.C,J3*%
X43940000Y-40340000D02*
X43940000Y-39650000D01*
X43360000Y-44260000D02*
X47090000Y-44260000D01*
X42990000Y-41290000D02*
X42990000Y-40340000D01*
X42990000Y-40340000D02*
X43940000Y-40340000D01*
X47460000Y-41290000D02*
X47460000Y-40340000D01*
X47460000Y-40340000D02*
X46510000Y-40340000D01*
%TO.C,R5*%
X39977500Y-65062742D02*
X39977500Y-65537258D01*
X41022500Y-65062742D02*
X41022500Y-65537258D01*
%TO.C,C3*%
X46288748Y-65910000D02*
X47711252Y-65910000D01*
X46288748Y-64090000D02*
X47711252Y-64090000D01*
%TO.C,C4*%
X36838748Y-70110000D02*
X38261252Y-70110000D01*
X36838748Y-68290000D02*
X38261252Y-68290000D01*
%TO.C,SW1*%
X33385000Y-82505000D02*
X33385000Y-83200000D01*
X32015000Y-83895000D02*
X31140000Y-83895000D01*
X31140000Y-82505000D02*
X31140000Y-82805507D01*
X32015000Y-83808276D02*
X32015000Y-83895000D01*
X32015000Y-82505000D02*
X32015000Y-82591724D01*
X31140000Y-83594493D02*
X31140000Y-83895000D01*
X32015000Y-82505000D02*
X31140000Y-82505000D01*
X32700000Y-82505000D02*
X33385000Y-82505000D01*
%TO.C,SW2*%
X47615000Y-83808276D02*
X47615000Y-83895000D01*
X46740000Y-82505000D02*
X46740000Y-82805507D01*
X46740000Y-83594493D02*
X46740000Y-83895000D01*
X47615000Y-83895000D02*
X46740000Y-83895000D01*
X47615000Y-82505000D02*
X46740000Y-82505000D01*
X48985000Y-82505000D02*
X48985000Y-83200000D01*
X47615000Y-82505000D02*
X47615000Y-82591724D01*
X48300000Y-82505000D02*
X48985000Y-82505000D01*
%TO.C,C2*%
X36860000Y-65173931D02*
X36860000Y-65455091D01*
X35840000Y-65173931D02*
X35840000Y-65455091D01*
%TO.C,C7*%
X49435000Y-61638748D02*
X49435000Y-62161252D01*
X47965000Y-61638748D02*
X47965000Y-62161252D01*
%TO.C,C5*%
X38665000Y-98288748D02*
X38665000Y-98811252D01*
X40135000Y-98288748D02*
X40135000Y-98811252D01*
%TO.C,C6*%
X32715000Y-91338748D02*
X32715000Y-91861252D01*
X34185000Y-91338748D02*
X34185000Y-91861252D01*
%TO.C,Q2*%
X37000000Y-85340000D02*
X37650000Y-85340000D01*
X37000000Y-88460000D02*
X36350000Y-88460000D01*
X37000000Y-88460000D02*
X38675000Y-88460000D01*
X37000000Y-85340000D02*
X36350000Y-85340000D01*
%TO.C,Q3*%
X43000000Y-85340000D02*
X43650000Y-85340000D01*
X43000000Y-88460000D02*
X43650000Y-88460000D01*
X43000000Y-88460000D02*
X42350000Y-88460000D01*
X43000000Y-85340000D02*
X41325000Y-85340000D01*
%TO.C,U3*%
X34940000Y-93000000D02*
X34940000Y-91050000D01*
X34940000Y-93000000D02*
X34940000Y-96450000D01*
X45060000Y-93000000D02*
X45060000Y-91050000D01*
X45060000Y-93000000D02*
X45060000Y-94950000D01*
%TO.C,C8*%
X46813748Y-36965000D02*
X48236252Y-36965000D01*
X46813748Y-38785000D02*
X48236252Y-38785000D01*
%TO.C,C9*%
X33636252Y-37835000D02*
X32213748Y-37835000D01*
X33636252Y-36015000D02*
X32213748Y-36015000D01*
%TO.C,D19*%
X36900000Y-97200000D02*
X35200000Y-97200000D01*
X36900000Y-97200000D02*
X36900000Y-99750000D01*
X35200000Y-97200000D02*
X35200000Y-99750000D01*
%TO.C,R10*%
X34772500Y-86612742D02*
X34772500Y-87087258D01*
X33727500Y-86612742D02*
X33727500Y-87087258D01*
%TO.C,R13*%
X45277500Y-86612742D02*
X45277500Y-87087258D01*
X46322500Y-86612742D02*
X46322500Y-87087258D01*
%TO.C,D1*%
X44925000Y-37025000D02*
X42375000Y-37025000D01*
X44925000Y-38725000D02*
X44925000Y-37025000D01*
X44925000Y-38725000D02*
X42375000Y-38725000D01*
D14*
%TO.C,U1*%
X46908500Y-46414000D02*
X46146500Y-46414000D01*
X46146500Y-62416000D02*
X46908500Y-62416000D01*
X46908500Y-62416000D02*
X46908500Y-46414000D01*
D12*
%TO.C,Q1*%
X47175000Y-33365000D02*
X47825000Y-33365000D01*
X47175000Y-33365000D02*
X46525000Y-33365000D01*
X47175000Y-36485000D02*
X48850000Y-36485000D01*
X47175000Y-36485000D02*
X46525000Y-36485000D01*
%TO.C,C1*%
X43011252Y-70110000D02*
X41588748Y-70110000D01*
X43011252Y-68290000D02*
X41588748Y-68290000D01*
%TO.C,C11*%
X48440000Y-67609420D02*
X48440000Y-67890580D01*
X49460000Y-67609420D02*
X49460000Y-67890580D01*
%TO.C,RN1*%
X39750000Y-87680000D02*
X40250000Y-87680000D01*
X39750000Y-86120000D02*
X40250000Y-86120000D01*
%TO.C,RN2*%
X39580000Y-65500000D02*
X39580000Y-65000000D01*
X37220000Y-65500000D02*
X37220000Y-65000000D01*
%TO.C,R6*%
X36622500Y-36862258D02*
X36622500Y-36387742D01*
X35577500Y-36862258D02*
X35577500Y-36387742D01*
%TO.C,R4*%
X37152500Y-36862258D02*
X37152500Y-36387742D01*
X38197500Y-36862258D02*
X38197500Y-36387742D01*
%TD*%
M02*
