%TF.GenerationSoftware,KiCad,Pcbnew,6.0.2*%
%TF.CreationDate,2022-03-25T15:37:28+01:00*%
%TF.ProjectId,espriktning,65737072-696b-4746-9e69-6e672e6b6963,rev?*%
%TF.SameCoordinates,Original*%
%TF.FileFunction,Copper,L1,Top*%
%TF.FilePolarity,Positive*%
%FSLAX46Y46*%
G04 Gerber Fmt 4.6, Leading zero omitted, Abs format (unit mm)*
G04 Created by KiCad (PCBNEW 6.0.2) date 2022-03-25 15:37:28*
%MOMM*%
%LPD*%
G01*
G04 APERTURE LIST*
G04 Aperture macros list*
%AMRoundRect*
0 Rectangle with rounded corners*
0 $1 Rounding radius*
0 $2 $3 $4 $5 $6 $7 $8 $9 X,Y pos of 4 corners*
0 Add a 4 corners polygon primitive as box body*
4,1,4,$2,$3,$4,$5,$6,$7,$8,$9,$2,$3,0*
0 Add four circle primitives for the rounded corners*
1,1,$1+$1,$2,$3*
1,1,$1+$1,$4,$5*
1,1,$1+$1,$6,$7*
1,1,$1+$1,$8,$9*
0 Add four rect primitives between the rounded corners*
20,1,$1+$1,$2,$3,$4,$5,0*
20,1,$1+$1,$4,$5,$6,$7,0*
20,1,$1+$1,$6,$7,$8,$9,0*
20,1,$1+$1,$8,$9,$2,$3,0*%
%AMFreePoly0*
4,1,9,3.862500,-0.866500,0.737500,-0.866500,0.737500,-0.450000,-0.737500,-0.450000,-0.737500,0.450000,0.737500,0.450000,0.737500,0.866500,3.862500,0.866500,3.862500,-0.866500,3.862500,-0.866500,$1*%
G04 Aperture macros list end*
%TA.AperFunction,SMDPad,CuDef*%
%ADD10R,0.900000X1.300000*%
%TD*%
%TA.AperFunction,SMDPad,CuDef*%
%ADD11FreePoly0,270.000000*%
%TD*%
%TA.AperFunction,SMDPad,CuDef*%
%ADD12R,0.600000X1.600000*%
%TD*%
%TA.AperFunction,ComponentPad*%
%ADD13RoundRect,0.500000X0.000000X-0.500000X0.000000X-0.500000X0.000000X0.500000X0.000000X0.500000X0*%
%TD*%
%TA.AperFunction,SMDPad,CuDef*%
%ADD14RoundRect,0.200000X-0.275000X0.200000X-0.275000X-0.200000X0.275000X-0.200000X0.275000X0.200000X0*%
%TD*%
%TA.AperFunction,SMDPad,CuDef*%
%ADD15RoundRect,0.200000X0.450000X-0.200000X0.450000X0.200000X-0.450000X0.200000X-0.450000X-0.200000X0*%
%TD*%
%TA.AperFunction,SMDPad,CuDef*%
%ADD16RoundRect,0.250001X1.249999X-0.799999X1.249999X0.799999X-1.249999X0.799999X-1.249999X-0.799999X0*%
%TD*%
%TA.AperFunction,SMDPad,CuDef*%
%ADD17RoundRect,0.150000X-0.150000X0.587500X-0.150000X-0.587500X0.150000X-0.587500X0.150000X0.587500X0*%
%TD*%
%TA.AperFunction,SMDPad,CuDef*%
%ADD18RoundRect,0.250000X0.325000X0.650000X-0.325000X0.650000X-0.325000X-0.650000X0.325000X-0.650000X0*%
%TD*%
%TA.AperFunction,SMDPad,CuDef*%
%ADD19RoundRect,0.250000X0.650000X-0.325000X0.650000X0.325000X-0.650000X0.325000X-0.650000X-0.325000X0*%
%TD*%
%TA.AperFunction,ComponentPad*%
%ADD20R,0.850000X0.850000*%
%TD*%
%TA.AperFunction,ComponentPad*%
%ADD21O,0.850000X0.850000*%
%TD*%
%TA.AperFunction,SMDPad,CuDef*%
%ADD22RoundRect,0.225000X-0.250000X0.225000X-0.250000X-0.225000X0.250000X-0.225000X0.250000X0.225000X0*%
%TD*%
%TA.AperFunction,SMDPad,CuDef*%
%ADD23RoundRect,0.250000X0.250000X0.475000X-0.250000X0.475000X-0.250000X-0.475000X0.250000X-0.475000X0*%
%TD*%
%TA.AperFunction,SMDPad,CuDef*%
%ADD24RoundRect,0.250000X-0.475000X0.250000X-0.475000X-0.250000X0.475000X-0.250000X0.475000X0.250000X0*%
%TD*%
%TA.AperFunction,SMDPad,CuDef*%
%ADD25RoundRect,0.250000X-0.650000X0.325000X-0.650000X-0.325000X0.650000X-0.325000X0.650000X0.325000X0*%
%TD*%
%TA.AperFunction,SMDPad,CuDef*%
%ADD26RoundRect,0.150000X0.587500X0.150000X-0.587500X0.150000X-0.587500X-0.150000X0.587500X-0.150000X0*%
%TD*%
%TA.AperFunction,SMDPad,CuDef*%
%ADD27RoundRect,0.150000X-0.587500X-0.150000X0.587500X-0.150000X0.587500X0.150000X-0.587500X0.150000X0*%
%TD*%
%TA.AperFunction,SMDPad,CuDef*%
%ADD28RoundRect,0.150000X0.150000X-0.825000X0.150000X0.825000X-0.150000X0.825000X-0.150000X-0.825000X0*%
%TD*%
%TA.AperFunction,SMDPad,CuDef*%
%ADD29R,0.450000X0.600000*%
%TD*%
%TA.AperFunction,SMDPad,CuDef*%
%ADD30R,2.500000X1.100000*%
%TD*%
%TA.AperFunction,SMDPad,CuDef*%
%ADD31R,1.100000X2.500000*%
%TD*%
%TA.AperFunction,SMDPad,CuDef*%
%ADD32RoundRect,0.250000X-0.325000X-0.650000X0.325000X-0.650000X0.325000X0.650000X-0.325000X0.650000X0*%
%TD*%
%TA.AperFunction,SMDPad,CuDef*%
%ADD33R,0.500000X0.400000*%
%TD*%
%TA.AperFunction,SMDPad,CuDef*%
%ADD34R,0.400000X0.500000*%
%TD*%
%TA.AperFunction,SMDPad,CuDef*%
%ADD35R,0.300000X0.500000*%
%TD*%
%TA.AperFunction,ViaPad*%
%ADD36C,0.800000*%
%TD*%
%TA.AperFunction,Conductor*%
%ADD37C,0.350000*%
%TD*%
%TA.AperFunction,Conductor*%
%ADD38C,0.250000*%
%TD*%
%TA.AperFunction,Conductor*%
%ADD39C,0.200000*%
%TD*%
G04 APERTURE END LIST*
D10*
%TO.P,U2,1,OUT*%
%TO.N,+3V3*%
X34250000Y-64550000D03*
D11*
%TO.P,U2,2,GND*%
%TO.N,GND*%
X32750000Y-64637500D03*
D10*
%TO.P,U2,3,IN*%
%TO.N,+5V*%
X31250000Y-64550000D03*
%TD*%
D12*
%TO.P,J1,A1,GND*%
%TO.N,GND*%
X42800000Y-102500000D03*
X37200000Y-102500000D03*
%TO.P,J1,A4,VBUS*%
%TO.N,Net-(D19-Pad2)*%
X38000000Y-102500000D03*
X42000000Y-102500000D03*
%TO.P,J1,A5,CC1*%
%TO.N,Net-(J1-PadA5)*%
X41200000Y-102500000D03*
%TO.P,J1,A8,SBU1*%
%TO.N,unconnected-(J1-PadA8)*%
X38800000Y-102500000D03*
%TO.P,J1,B6,D+*%
%TO.N,/D_P*%
X39600000Y-102500000D03*
%TO.P,J1,B7,D-*%
%TO.N,/D_N*%
X40400000Y-102500000D03*
D13*
%TO.P,J1,S1,SHIELD*%
%TO.N,GND*%
X44320000Y-103500000D03*
X35680000Y-103500000D03*
%TD*%
D14*
%TO.P,R3,1*%
%TO.N,GND*%
X42800000Y-97975000D03*
%TO.P,R3,2*%
%TO.N,Net-(J1-PadA5)*%
X42800000Y-99625000D03*
%TD*%
D15*
%TO.P,J2,1,Pin_1*%
%TO.N,GND*%
X45050000Y-66275000D03*
%TO.P,J2,2,Pin_2*%
%TO.N,+5V*%
X45050000Y-65025000D03*
%TO.P,J2,3,Pin_3*%
%TO.N,GPIO4*%
X45050000Y-63775000D03*
%TO.P,J2,4,Pin_4*%
%TO.N,GPIO5*%
X45050000Y-62525000D03*
D16*
%TO.P,J2,MP*%
%TO.N,N/C*%
X47800000Y-68825000D03*
X47800000Y-59975000D03*
%TD*%
D14*
%TO.P,R8,1*%
%TO.N,Net-(Q1-Pad1)*%
X40500000Y-76175000D03*
%TO.P,R8,2*%
%TO.N,GPIO13*%
X40500000Y-77825000D03*
%TD*%
%TO.P,R9,1*%
%TO.N,Net-(Q1-Pad1)*%
X38700000Y-76175000D03*
%TO.P,R9,2*%
%TO.N,GND*%
X38700000Y-77825000D03*
%TD*%
D15*
%TO.P,J3,1,Pin_1*%
%TO.N,Net-(D1-Pad2)*%
X45050000Y-75825000D03*
%TO.P,J3,2,Pin_2*%
%TO.N,+5V*%
X45050000Y-74575000D03*
D16*
%TO.P,J3,MP*%
%TO.N,N/C*%
X47800000Y-78375000D03*
X47800000Y-72025000D03*
%TD*%
D17*
%TO.P,Q1,1,G*%
%TO.N,Net-(Q1-Pad1)*%
X40550000Y-72362500D03*
%TO.P,Q1,2,S*%
%TO.N,GND*%
X38650000Y-72362500D03*
%TO.P,Q1,3,D*%
%TO.N,Net-(D1-Pad2)*%
X39600000Y-74237500D03*
%TD*%
D14*
%TO.P,R5,1*%
%TO.N,GPIO15*%
X42300000Y-59575000D03*
%TO.P,R5,2*%
%TO.N,GND*%
X42300000Y-61225000D03*
%TD*%
D18*
%TO.P,C3,1*%
%TO.N,+3V3*%
X34175000Y-61600000D03*
%TO.P,C3,2*%
%TO.N,GND*%
X31225000Y-61600000D03*
%TD*%
D19*
%TO.P,C4,1*%
%TO.N,+5V*%
X46700000Y-93075000D03*
%TO.P,C4,2*%
%TO.N,GND*%
X46700000Y-90125000D03*
%TD*%
D20*
%TO.P,SW1,1,1*%
%TO.N,RST*%
X32700000Y-83200000D03*
D21*
%TO.P,SW1,2,2*%
%TO.N,GND*%
X31700000Y-83200000D03*
%TD*%
D20*
%TO.P,SW2,1,1*%
%TO.N,GPIO0*%
X48300000Y-83200000D03*
D21*
%TO.P,SW2,2,2*%
%TO.N,GND*%
X47300000Y-83200000D03*
%TD*%
D22*
%TO.P,C2,1*%
%TO.N,RST*%
X37700000Y-59625000D03*
%TO.P,C2,2*%
%TO.N,GND*%
X37700000Y-61175000D03*
%TD*%
D23*
%TO.P,C7,1*%
%TO.N,+3V3*%
X33150000Y-59400000D03*
%TO.P,C7,2*%
%TO.N,GND*%
X31250000Y-59400000D03*
%TD*%
D24*
%TO.P,C5,1*%
%TO.N,Net-(C5-Pad1)*%
X39400000Y-97600000D03*
%TO.P,C5,2*%
%TO.N,GND*%
X39400000Y-99500000D03*
%TD*%
D25*
%TO.P,C6,1*%
%TO.N,+5V*%
X33450000Y-90125000D03*
%TO.P,C6,2*%
%TO.N,GND*%
X33450000Y-93075000D03*
%TD*%
D26*
%TO.P,Q2,1,E*%
%TO.N,Net-(Q2-Pad1)*%
X37937500Y-87850000D03*
%TO.P,Q2,2,B*%
%TO.N,Net-(Q2-Pad2)*%
X37937500Y-85950000D03*
%TO.P,Q2,3,C*%
%TO.N,RST*%
X36062500Y-86900000D03*
%TD*%
D27*
%TO.P,Q3,1,E*%
%TO.N,Net-(Q3-Pad1)*%
X42062500Y-85950000D03*
%TO.P,Q3,2,B*%
%TO.N,Net-(Q3-Pad2)*%
X42062500Y-87850000D03*
%TO.P,Q3,3,C*%
%TO.N,GPIO0*%
X43937500Y-86900000D03*
%TD*%
D28*
%TO.P,U3,1,GND*%
%TO.N,GND*%
X35555000Y-95475000D03*
%TO.P,U3,2,TXD*%
%TO.N,Net-(R10-Pad2)*%
X36825000Y-95475000D03*
%TO.P,U3,3,RXD*%
%TO.N,Net-(R13-Pad2)*%
X38095000Y-95475000D03*
%TO.P,U3,4,V3*%
%TO.N,Net-(C5-Pad1)*%
X39365000Y-95475000D03*
%TO.P,U3,5,UD+*%
%TO.N,/D_P*%
X40635000Y-95475000D03*
%TO.P,U3,6,UD-*%
%TO.N,/D_N*%
X41905000Y-95475000D03*
%TO.P,U3,7,NC*%
%TO.N,unconnected-(U3-Pad7)*%
X43175000Y-95475000D03*
%TO.P,U3,8,NC*%
%TO.N,unconnected-(U3-Pad8)*%
X44445000Y-95475000D03*
%TO.P,U3,9,~{CTS}*%
%TO.N,unconnected-(U3-Pad9)*%
X44445000Y-90525000D03*
%TO.P,U3,10,~{DSR}*%
%TO.N,unconnected-(U3-Pad10)*%
X43175000Y-90525000D03*
%TO.P,U3,11,~{RI}*%
%TO.N,unconnected-(U3-Pad11)*%
X41905000Y-90525000D03*
%TO.P,U3,12,~{DCD}*%
%TO.N,unconnected-(U3-Pad12)*%
X40635000Y-90525000D03*
%TO.P,U3,13,~{DTR}*%
%TO.N,Net-(Q3-Pad1)*%
X39365000Y-90525000D03*
%TO.P,U3,14,~{RTS}*%
%TO.N,Net-(Q2-Pad1)*%
X38095000Y-90525000D03*
%TO.P,U3,15,R232*%
%TO.N,unconnected-(U3-Pad15)*%
X36825000Y-90525000D03*
%TO.P,U3,16,VCC*%
%TO.N,+5V*%
X35555000Y-90525000D03*
%TD*%
D19*
%TO.P,C8,1*%
%TO.N,+5V*%
X42600000Y-74375000D03*
%TO.P,C8,2*%
%TO.N,GND*%
X42600000Y-71425000D03*
%TD*%
D25*
%TO.P,C9,1*%
%TO.N,+5V*%
X42500000Y-65125000D03*
%TO.P,C9,2*%
%TO.N,GND*%
X42500000Y-68075000D03*
%TD*%
D29*
%TO.P,D19,1,K*%
%TO.N,+5V*%
X36050000Y-97650000D03*
%TO.P,D19,2,A*%
%TO.N,Net-(D19-Pad2)*%
X36050000Y-99750000D03*
%TD*%
D14*
%TO.P,R10,1*%
%TO.N,RX*%
X34250000Y-86025000D03*
%TO.P,R10,2*%
%TO.N,Net-(R10-Pad2)*%
X34250000Y-87675000D03*
%TD*%
%TO.P,R13,1*%
%TO.N,TX*%
X45800000Y-86025000D03*
%TO.P,R13,2*%
%TO.N,Net-(R13-Pad2)*%
X45800000Y-87675000D03*
%TD*%
D29*
%TO.P,D1,1,K*%
%TO.N,+5V*%
X42600000Y-75950000D03*
%TO.P,D1,2,A*%
%TO.N,Net-(D1-Pad2)*%
X42600000Y-78050000D03*
%TD*%
D30*
%TO.P,U1,1,REST*%
%TO.N,RST*%
X32300000Y-41000000D03*
%TO.P,U1,2,ADC*%
%TO.N,unconnected-(U1-Pad2)*%
X32300000Y-43000000D03*
%TO.P,U1,3,CH_PD*%
%TO.N,Net-(RN2-Pad4)*%
X32300000Y-45000000D03*
%TO.P,U1,4,GPIO16*%
%TO.N,GPIO16*%
X32300000Y-47000000D03*
%TO.P,U1,5,GPIO14*%
%TO.N,GPIO14*%
X32300000Y-49000000D03*
%TO.P,U1,6,GPIO12*%
%TO.N,GPIO12*%
X32300000Y-51000000D03*
%TO.P,U1,7,GPIO13*%
%TO.N,GPIO13*%
X32300000Y-53000000D03*
%TO.P,U1,8,VCC*%
%TO.N,+3V3*%
X32300000Y-55000000D03*
%TO.P,U1,9,GND*%
%TO.N,GND*%
X47700000Y-55000000D03*
%TO.P,U1,10,GPIO15*%
%TO.N,GPIO15*%
X47700000Y-53000000D03*
%TO.P,U1,11,GPIO2*%
%TO.N,GPIO2*%
X47700000Y-51000000D03*
%TO.P,U1,12,GPIO0*%
%TO.N,GPIO0*%
X47700000Y-49000000D03*
%TO.P,U1,13,GPIO4*%
%TO.N,GPIO4*%
X47700000Y-47000000D03*
%TO.P,U1,14,GPIO5*%
%TO.N,GPIO5*%
X47700000Y-45000000D03*
%TO.P,U1,15,RXD*%
%TO.N,RX*%
X47700000Y-43000000D03*
%TO.P,U1,16,TXD*%
%TO.N,TX*%
X47700000Y-41000000D03*
D31*
%TO.P,U1,17,CS0*%
%TO.N,unconnected-(U1-Pad17)*%
X34990000Y-56700000D03*
%TO.P,U1,18,MISO*%
%TO.N,unconnected-(U1-Pad18)*%
X36990000Y-56700000D03*
%TO.P,U1,19,GPIO9*%
%TO.N,GPIO9*%
X38990000Y-56700000D03*
%TO.P,U1,20,GPIO10*%
%TO.N,GPIO10*%
X40990000Y-56700000D03*
%TO.P,U1,21,MOSI*%
%TO.N,unconnected-(U1-Pad21)*%
X42990000Y-56700000D03*
%TO.P,U1,22,SCLK*%
%TO.N,unconnected-(U1-Pad22)*%
X44990000Y-56700000D03*
%TD*%
D32*
%TO.P,C1,1*%
%TO.N,+5V*%
X31225000Y-70100000D03*
%TO.P,C1,2*%
%TO.N,GND*%
X34175000Y-70100000D03*
%TD*%
D33*
%TO.P,RN1,1,R1.1*%
%TO.N,Net-(Q3-Pad1)*%
X39500000Y-86550000D03*
%TO.P,RN1,2,R1.2*%
%TO.N,Net-(Q2-Pad2)*%
X40500000Y-86550000D03*
%TO.P,RN1,3,R2.1*%
%TO.N,Net-(Q2-Pad1)*%
X39500000Y-87250000D03*
%TO.P,RN1,4,R2.2*%
%TO.N,Net-(Q3-Pad2)*%
X40500000Y-87250000D03*
%TD*%
D34*
%TO.P,RN2,1,R1.1*%
%TO.N,GPIO2*%
X40750000Y-59900000D03*
D35*
%TO.P,RN2,2,R2.1*%
%TO.N,GPIO0*%
X40250000Y-59900000D03*
%TO.P,RN2,3,R3.1*%
%TO.N,RST*%
X39750000Y-59900000D03*
D34*
%TO.P,RN2,4,R4.1*%
%TO.N,Net-(RN2-Pad4)*%
X39250000Y-59900000D03*
%TO.P,RN2,5,R4.2*%
%TO.N,+3V3*%
X39250000Y-60900000D03*
D35*
%TO.P,RN2,6,R3.2*%
X39750000Y-60900000D03*
%TO.P,RN2,7,R2.2*%
X40250000Y-60900000D03*
D34*
%TO.P,RN2,8,R1.2*%
X40750000Y-60900000D03*
%TD*%
D20*
%TO.P,J4,1,Pin_1*%
%TO.N,GPIO16*%
X32100000Y-73700000D03*
D21*
%TO.P,J4,2,Pin_2*%
%TO.N,GPIO14*%
X32100000Y-74700000D03*
%TO.P,J4,3,Pin_3*%
%TO.N,GPIO12*%
X32100000Y-75700000D03*
%TO.P,J4,4,Pin_4*%
%TO.N,GPIO9*%
X32100000Y-76700000D03*
%TO.P,J4,5,Pin_5*%
%TO.N,GPIO10*%
X32100000Y-77700000D03*
%TO.P,J4,6,Pin_6*%
%TO.N,GPIO15*%
X32100000Y-78700000D03*
%TO.P,J4,7,Pin_7*%
%TO.N,GPIO2*%
X32100000Y-79700000D03*
%TO.P,J4,8,Pin_8*%
%TO.N,GPIO0*%
X32100000Y-80700000D03*
%TD*%
D36*
%TO.N,GND*%
X47700000Y-57600000D03*
X34400000Y-91700000D03*
X40400000Y-43400000D03*
X39500000Y-82700000D03*
X42500000Y-42900000D03*
X44000000Y-60300000D03*
X43000000Y-97000000D03*
X44800000Y-54000000D03*
X44400000Y-72800000D03*
X47500000Y-95800000D03*
X47700000Y-81200000D03*
X36800000Y-42900000D03*
X36600000Y-85800000D03*
X48800000Y-86900000D03*
X31900000Y-81900000D03*
X31800000Y-86800000D03*
X36600000Y-87800000D03*
X39600000Y-77000000D03*
X32700000Y-70000000D03*
X43300000Y-86100000D03*
X34600000Y-77600000D03*
X30500000Y-95200000D03*
X32000000Y-57600000D03*
X49300000Y-95800000D03*
X32300000Y-63000000D03*
X36300000Y-92200000D03*
X42700000Y-92000000D03*
X36600000Y-53200000D03*
X34700000Y-94300000D03*
X43900000Y-88100000D03*
X40200000Y-58500000D03*
%TO.N,+5V*%
X45250000Y-97150000D03*
X45075000Y-92550000D03*
X37300000Y-97800000D03*
X41000000Y-74000000D03*
%TO.N,GPIO2*%
X36775500Y-64600000D03*
%TO.N,GPIO10*%
X41400000Y-79200000D03*
X41400000Y-53600000D03*
%TO.N,GPIO9*%
X38975500Y-53600000D03*
%TO.N,GPIO4*%
X43725000Y-63775000D03*
X45100000Y-47000000D03*
%TO.N,GPIO13*%
X37600000Y-78800000D03*
X36699989Y-58900000D03*
%TO.N,GPIO12*%
X36600000Y-48800000D03*
%TO.N,GPIO14*%
X35300000Y-49000000D03*
%TO.N,GPIO16*%
X34400000Y-47000000D03*
%TO.N,Net-(D11-Pad4)*%
X43900000Y-93900000D03*
X45100000Y-100000000D03*
%TO.N,RX*%
X42700000Y-46000000D03*
X41100000Y-82900000D03*
%TO.N,TX*%
X45500000Y-81800000D03*
X44400000Y-43000000D03*
%TO.N,RST*%
X36800000Y-61900000D03*
%TO.N,GPIO0*%
X37341589Y-63841589D03*
%TO.N,Net-(D19-Pad2)*%
X40000000Y-104400000D03*
X36050000Y-100800000D03*
%TO.N,GPIO5*%
X45800000Y-45000000D03*
X44200000Y-61400000D03*
%TD*%
D37*
%TO.N,+5V*%
X37312500Y-71112500D02*
X37512500Y-71112500D01*
X33450000Y-90125000D02*
X32175480Y-91399520D01*
X37150000Y-70950000D02*
X37150000Y-70475000D01*
X30900000Y-70825000D02*
X31250000Y-70475000D01*
X36512500Y-71112500D02*
X36912500Y-70712500D01*
X42600000Y-75950000D02*
X42600000Y-74375000D01*
X33450000Y-90125000D02*
X32825000Y-90125000D01*
X32499520Y-71374520D02*
X36250480Y-71374520D01*
X45400000Y-92900000D02*
X45400000Y-97000000D01*
X45400000Y-97000000D02*
X45250000Y-97150000D01*
X41224520Y-73775480D02*
X41224520Y-71557737D01*
X37150000Y-97650000D02*
X36050000Y-97650000D01*
X40779283Y-71112500D02*
X37512500Y-71112500D01*
X42600000Y-74375000D02*
X44850000Y-74375000D01*
X35475000Y-97650000D02*
X36050000Y-97650000D01*
X45075000Y-92550000D02*
X45075000Y-92575000D01*
X42600000Y-74375000D02*
X41375000Y-74375000D01*
X32175480Y-91399520D02*
X32175480Y-94350480D01*
X41000000Y-74000000D02*
X41224520Y-73775480D01*
X37150000Y-70950000D02*
X37312500Y-71112500D01*
X31225000Y-70100000D02*
X32499520Y-71374520D01*
X31250000Y-70475000D02*
X31250000Y-64550000D01*
X45600000Y-93075000D02*
X45075000Y-92550000D01*
X33450000Y-90125000D02*
X35155000Y-90125000D01*
X41224520Y-71557737D02*
X40779283Y-71112500D01*
X41375000Y-74375000D02*
X41000000Y-74000000D01*
X46700000Y-93075000D02*
X45600000Y-93075000D01*
X44950000Y-65125000D02*
X45050000Y-65025000D01*
X37312500Y-70312500D02*
X42500000Y-65125000D01*
X45075000Y-92575000D02*
X45400000Y-92900000D01*
X32175480Y-94350480D02*
X35475000Y-97650000D01*
X44850000Y-74375000D02*
X45050000Y-74575000D01*
X30900000Y-88200000D02*
X30900000Y-70825000D01*
X36912500Y-70712500D02*
X37150000Y-70950000D01*
X32825000Y-90125000D02*
X30900000Y-88200000D01*
X36912500Y-70712500D02*
X37312500Y-70312500D01*
X37512500Y-71112500D02*
X36512500Y-71112500D01*
X35155000Y-90125000D02*
X35555000Y-90525000D01*
X37150000Y-70475000D02*
X37312500Y-70312500D01*
X36250480Y-71374520D02*
X36512500Y-71112500D01*
X37300000Y-97800000D02*
X37150000Y-97650000D01*
X42500000Y-65125000D02*
X44950000Y-65125000D01*
D38*
%TO.N,GPIO2*%
X46100000Y-51000000D02*
X47000000Y-51000000D01*
X41850000Y-58800000D02*
X43300000Y-58800000D01*
X36775500Y-64600000D02*
X38594296Y-64600000D01*
X40750000Y-59900000D02*
X41125000Y-59525000D01*
X41143317Y-59900000D02*
X41143317Y-59543317D01*
X41143317Y-59900000D02*
X40750000Y-59900000D01*
X41600000Y-61594296D02*
X41600000Y-60356683D01*
X44000000Y-58100000D02*
X44000000Y-53100000D01*
X41125000Y-59525000D02*
X41850000Y-58800000D01*
X41143317Y-59543317D02*
X41125000Y-59525000D01*
X44000000Y-53100000D02*
X46100000Y-51000000D01*
X41600000Y-60356683D02*
X41143317Y-59900000D01*
X43300000Y-58800000D02*
X44000000Y-58100000D01*
X38594296Y-64600000D02*
X41600000Y-61594296D01*
%TO.N,Net-(J1-PadA5)*%
X41200000Y-102500000D02*
X41200000Y-101350978D01*
X42800000Y-99750978D02*
X42800000Y-99625000D01*
X41200000Y-101350978D02*
X42800000Y-99750978D01*
%TO.N,Net-(D1-Pad2)*%
X42600000Y-77199639D02*
X42600000Y-78050000D01*
X39637861Y-74237500D02*
X42600000Y-77199639D01*
X42825000Y-78050000D02*
X45050000Y-75825000D01*
X42600000Y-78050000D02*
X42825000Y-78050000D01*
X39600000Y-74237500D02*
X39637861Y-74237500D01*
%TO.N,Net-(Q1-Pad1)*%
X40207849Y-72362500D02*
X38700000Y-73870349D01*
X38700000Y-73870349D02*
X38700000Y-76175000D01*
X40500000Y-76175000D02*
X38700000Y-76175000D01*
X40550000Y-72362500D02*
X40207849Y-72362500D01*
%TO.N,GPIO15*%
X32100000Y-78700000D02*
X33400000Y-80000000D01*
X46125489Y-53874511D02*
X47000000Y-53000000D01*
X33400000Y-80000000D02*
X42125361Y-80000000D01*
X42300000Y-59575000D02*
X44564022Y-59575000D01*
X44564022Y-59575000D02*
X44719511Y-59419511D01*
X42125361Y-80000000D02*
X46024520Y-76100841D01*
X44719511Y-59419511D02*
X46125489Y-58013533D01*
X44744511Y-59755489D02*
X44564022Y-59575000D01*
X46024520Y-61035498D02*
X44744511Y-59755489D01*
X44719511Y-59419511D02*
X44719511Y-59730489D01*
X44719511Y-59730489D02*
X44744511Y-59755489D01*
X46125489Y-58013533D02*
X46125489Y-53874511D01*
X46024520Y-76100841D02*
X46024520Y-61035498D01*
%TO.N,Net-(RN2-Pad4)*%
X33000000Y-45000000D02*
X34983193Y-45000000D01*
X37824511Y-47841318D02*
X37824511Y-48358682D01*
X39100000Y-59900000D02*
X39250000Y-59900000D01*
X37824511Y-48358682D02*
X37800000Y-48383193D01*
X34983193Y-45000000D02*
X37824511Y-47841318D01*
X37800000Y-58600000D02*
X39100000Y-59900000D01*
X37800000Y-48383193D02*
X37800000Y-58600000D01*
%TO.N,GPIO10*%
X33824511Y-79424511D02*
X41175489Y-79424511D01*
X41400000Y-53600000D02*
X40990000Y-54010000D01*
X32100000Y-77700000D02*
X33824511Y-79424511D01*
X41175489Y-79424511D02*
X41400000Y-79200000D01*
X40990000Y-54010000D02*
X40990000Y-56000000D01*
%TO.N,GPIO9*%
X38990000Y-53614500D02*
X38990000Y-56000000D01*
X38975500Y-53600000D02*
X38990000Y-53614500D01*
%TO.N,GPIO4*%
X47000000Y-47000000D02*
X45100000Y-47000000D01*
X45050000Y-63775000D02*
X43725000Y-63775000D01*
%TO.N,GPIO13*%
X35764511Y-57964522D02*
X35764511Y-55064511D01*
X36699989Y-58900000D02*
X35764511Y-57964522D01*
X40500000Y-77825000D02*
X39525000Y-78800000D01*
X39525000Y-78800000D02*
X37600000Y-78800000D01*
X33700000Y-53000000D02*
X33000000Y-53000000D01*
X35764511Y-55064511D02*
X33700000Y-53000000D01*
%TO.N,GPIO12*%
X36600000Y-48800000D02*
X34400000Y-51000000D01*
X34400000Y-51000000D02*
X33000000Y-51000000D01*
%TO.N,GPIO14*%
X33000000Y-49000000D02*
X35300000Y-49000000D01*
%TO.N,GPIO16*%
X33000000Y-47000000D02*
X34400000Y-47000000D01*
%TO.N,Net-(D11-Pad4)*%
X45100000Y-100000000D02*
X43799520Y-98699520D01*
X43799520Y-98699520D02*
X43799520Y-94000480D01*
X43799520Y-94000480D02*
X43900000Y-93900000D01*
%TO.N,Net-(C5-Pad1)*%
X39400000Y-95510000D02*
X39365000Y-95475000D01*
X39400000Y-97600000D02*
X39400000Y-95510000D01*
%TO.N,RX*%
X40400000Y-83600000D02*
X36675000Y-83600000D01*
X36675000Y-83600000D02*
X34250000Y-86025000D01*
X41100000Y-82900000D02*
X40400000Y-83600000D01*
X42700000Y-46000000D02*
X45700000Y-43000000D01*
X45700000Y-43000000D02*
X47000000Y-43000000D01*
%TO.N,TX*%
X45500000Y-85725000D02*
X45800000Y-86025000D01*
X46400000Y-41000000D02*
X47000000Y-41000000D01*
X44400000Y-43000000D02*
X46400000Y-41000000D01*
X45500000Y-81800000D02*
X45500000Y-85725000D01*
%TO.N,Net-(Q2-Pad1)*%
X38095000Y-88007500D02*
X37937500Y-87850000D01*
X37937500Y-87850000D02*
X38900000Y-87850000D01*
X38095000Y-90525000D02*
X38095000Y-88007500D01*
X38900000Y-87850000D02*
X39500000Y-87250000D01*
%TO.N,RST*%
X39625489Y-60374511D02*
X39750000Y-60250000D01*
X32800000Y-85650361D02*
X32800000Y-83200000D01*
X39400000Y-59425489D02*
X38175478Y-58200967D01*
X34049639Y-86900000D02*
X32800000Y-85650361D01*
X38175478Y-46175478D02*
X33000000Y-41000000D01*
X36062500Y-86900000D02*
X34049639Y-86900000D01*
X36800000Y-60525000D02*
X37700000Y-59625000D01*
X39750000Y-60250000D02*
X39750000Y-59900000D01*
X38175478Y-58200967D02*
X38175478Y-46175478D01*
X37700000Y-59625000D02*
X37764511Y-59560489D01*
X39674511Y-59425489D02*
X39400000Y-59425489D01*
X37700000Y-59625000D02*
X38449511Y-60374511D01*
X39750000Y-59500978D02*
X39674511Y-59425489D01*
X37864511Y-59460489D02*
X37700000Y-59625000D01*
X36800000Y-61900000D02*
X36800000Y-60525000D01*
X38449511Y-60374511D02*
X39625489Y-60374511D01*
X39750000Y-59900000D02*
X39750000Y-59500978D01*
%TO.N,Net-(Q2-Pad2)*%
X39900000Y-85950000D02*
X37937500Y-85950000D01*
X40500000Y-86550000D02*
X39900000Y-85950000D01*
%TO.N,Net-(Q3-Pad1)*%
X40828653Y-88826697D02*
X40777675Y-88877675D01*
X39500000Y-86550000D02*
X40000000Y-86550000D01*
X39365000Y-90290349D02*
X40777675Y-88877675D01*
X40777675Y-88877675D02*
X41177675Y-88477675D01*
X42062500Y-86292151D02*
X42062500Y-85950000D01*
X40828653Y-88477675D02*
X41177675Y-88477675D01*
X43024520Y-88275480D02*
X43024520Y-87254171D01*
X41280829Y-88374520D02*
X42925480Y-88374520D01*
X40025489Y-86575489D02*
X40025489Y-87674511D01*
X40025489Y-87674511D02*
X40828653Y-88477675D01*
X39365000Y-90525000D02*
X39365000Y-90290349D01*
X42925480Y-88374520D02*
X43024520Y-88275480D01*
X41177675Y-88477675D02*
X41280829Y-88374520D01*
X43024520Y-87254171D02*
X42062500Y-86292151D01*
X40000000Y-86550000D02*
X40025489Y-86575489D01*
X40828653Y-88477675D02*
X40828653Y-88826697D01*
%TO.N,GPIO0*%
X40250000Y-59500978D02*
X40325489Y-59425489D01*
X40500000Y-80700000D02*
X32100000Y-80700000D01*
X43937500Y-84137500D02*
X40500000Y-80700000D01*
X41174511Y-61525489D02*
X41174511Y-60425489D01*
X40250000Y-59900000D02*
X40250000Y-59500978D01*
X40325489Y-59425489D02*
X40574511Y-59425489D01*
X40250000Y-60299022D02*
X40250000Y-59900000D01*
X43937500Y-86900000D02*
X43937500Y-84137500D01*
X38858411Y-63841589D02*
X41174511Y-61525489D01*
X42215489Y-53784511D02*
X47000000Y-49000000D01*
X48300000Y-84700000D02*
X48300000Y-83200000D01*
X46100000Y-86900000D02*
X43937500Y-86900000D01*
X37341589Y-63841589D02*
X38858411Y-63841589D01*
X40376467Y-60425489D02*
X40250000Y-60299022D01*
X48300000Y-84700000D02*
X46100000Y-86900000D01*
X40574511Y-59425489D02*
X42215489Y-57784511D01*
X42215489Y-57784511D02*
X42215489Y-53784511D01*
X41174511Y-60425489D02*
X40376467Y-60425489D01*
%TO.N,Net-(Q3-Pad2)*%
X42062500Y-87850000D02*
X41100000Y-87850000D01*
X41100000Y-87850000D02*
X40500000Y-87250000D01*
%TO.N,+3V3*%
X39250000Y-62150000D02*
X39250000Y-60900000D01*
X38182922Y-63217078D02*
X39250000Y-62150000D01*
X39750000Y-60900000D02*
X40250000Y-60900000D01*
X36099985Y-64200000D02*
X37082907Y-63217078D01*
X34400000Y-64400000D02*
X34250000Y-64550000D01*
X40250000Y-60900000D02*
X40750000Y-60900000D01*
X34600000Y-64200000D02*
X36099985Y-64200000D01*
X37082907Y-63217078D02*
X38182922Y-63217078D01*
X33150000Y-55150000D02*
X33000000Y-55000000D01*
X34250000Y-64550000D02*
X34600000Y-64200000D01*
X34175000Y-61600000D02*
X34175000Y-60425000D01*
X34250000Y-64550000D02*
X34250000Y-61675000D01*
X39250000Y-60900000D02*
X39750000Y-60900000D01*
X34250000Y-61675000D02*
X34175000Y-61600000D01*
X33150000Y-59400000D02*
X33150000Y-55150000D01*
X34175000Y-60425000D02*
X33150000Y-59400000D01*
D37*
%TO.N,Net-(D19-Pad2)*%
X42000000Y-102500000D02*
X42000000Y-103749022D01*
X41349022Y-104400000D02*
X40000000Y-104400000D01*
X36050000Y-100800000D02*
X36050000Y-99750000D01*
X42000000Y-103749022D02*
X41349022Y-104400000D01*
X38000000Y-102500000D02*
X38000000Y-101250978D01*
X38000000Y-101250978D02*
X36499022Y-99750000D01*
X36499022Y-99750000D02*
X36050000Y-99750000D01*
D38*
%TO.N,GPIO5*%
X45050000Y-62250000D02*
X44200000Y-61400000D01*
X47000000Y-45000000D02*
X45800000Y-45000000D01*
X45050000Y-62525000D02*
X45050000Y-62250000D01*
%TO.N,Net-(R10-Pad2)*%
X37130131Y-89325480D02*
X37125480Y-89325480D01*
X35475000Y-87675000D02*
X34250000Y-87675000D01*
X37449520Y-89644869D02*
X37130131Y-89325480D01*
X37125480Y-89325480D02*
X35475000Y-87675000D01*
X36825000Y-95475000D02*
X36825000Y-94458036D01*
X36825000Y-94458036D02*
X37449520Y-93833516D01*
X37449520Y-93833516D02*
X37449520Y-89644869D01*
%TO.N,Net-(R13-Pad2)*%
X38827032Y-94000000D02*
X42700000Y-94000000D01*
X45648928Y-87675000D02*
X45800000Y-87675000D01*
X38095000Y-94732032D02*
X38827032Y-94000000D01*
X42700000Y-94000000D02*
X43799520Y-92900480D01*
X38095000Y-95475000D02*
X38095000Y-94732032D01*
X43799520Y-92900480D02*
X43799520Y-89524408D01*
X43799520Y-89524408D02*
X45648928Y-87675000D01*
D39*
%TO.N,/D_P*%
X39775000Y-101124999D02*
X39775000Y-100627138D01*
X40635000Y-96108603D02*
X40635000Y-95475000D01*
X39600000Y-102500000D02*
X39600000Y-101299999D01*
X39775000Y-100627138D02*
X40424520Y-99977618D01*
X39600000Y-101299999D02*
X39775000Y-101124999D01*
X40424520Y-99977618D02*
X40424520Y-96319083D01*
X40424520Y-96319083D02*
X40635000Y-96108603D01*
%TO.N,/D_N*%
X41234520Y-96145480D02*
X41905000Y-95475000D01*
X41234520Y-96486197D02*
X41234520Y-96145480D01*
X40874511Y-100164010D02*
X40874511Y-96846206D01*
X40225000Y-101124999D02*
X40225000Y-100813521D01*
X40225000Y-100813521D02*
X40874511Y-100164010D01*
X40400000Y-102500000D02*
X40400000Y-101299999D01*
X40400000Y-101299999D02*
X40225000Y-101124999D01*
X40874511Y-96846206D02*
X41234520Y-96486197D01*
%TD*%
%TA.AperFunction,Conductor*%
%TO.N,GND*%
G36*
X49759191Y-39818907D02*
G01*
X49795155Y-39868407D01*
X49800000Y-39899000D01*
X49800000Y-101701000D01*
X49781093Y-101759191D01*
X49731593Y-101795155D01*
X49701000Y-101800000D01*
X47005877Y-101800000D01*
X46954551Y-101799955D01*
X46944502Y-101804781D01*
X46944500Y-101804781D01*
X46943659Y-101805185D01*
X46922817Y-101812463D01*
X46921907Y-101812670D01*
X46921904Y-101812672D01*
X46911038Y-101815150D01*
X46902320Y-101822097D01*
X46901789Y-101822520D01*
X46882954Y-101834334D01*
X46882347Y-101834625D01*
X46882343Y-101834628D01*
X46872295Y-101839453D01*
X46864746Y-101848893D01*
X46849128Y-101864484D01*
X46839677Y-101872015D01*
X46834593Y-101882555D01*
X46834541Y-101882663D01*
X46822692Y-101901478D01*
X46822270Y-101902005D01*
X46822268Y-101902010D01*
X46815306Y-101910715D01*
X46812808Y-101921581D01*
X46812598Y-101922492D01*
X46805285Y-101943318D01*
X46800035Y-101954202D01*
X46800015Y-101977213D01*
X46798270Y-101977211D01*
X46798276Y-101977277D01*
X46800000Y-101977277D01*
X46800000Y-101994123D01*
X46799955Y-102045449D01*
X46799997Y-102045537D01*
X46800000Y-102045561D01*
X46800000Y-104701000D01*
X46781093Y-104759191D01*
X46731593Y-104795155D01*
X46701000Y-104800000D01*
X44882928Y-104800000D01*
X44824737Y-104781093D01*
X44788773Y-104731593D01*
X44788773Y-104670407D01*
X44821164Y-104623629D01*
X44884937Y-104572720D01*
X44892720Y-104564937D01*
X44997785Y-104433324D01*
X45003648Y-104424012D01*
X45076943Y-104272396D01*
X45080598Y-104262017D01*
X45118786Y-104096610D01*
X45119937Y-104088570D01*
X45120000Y-104086374D01*
X45120000Y-103665680D01*
X45115878Y-103652995D01*
X45111757Y-103650000D01*
X43535681Y-103650000D01*
X43522996Y-103654122D01*
X43520001Y-103658243D01*
X43520001Y-104086382D01*
X43520064Y-104088559D01*
X43521217Y-104096619D01*
X43559402Y-104262017D01*
X43563057Y-104272396D01*
X43636352Y-104424012D01*
X43642215Y-104433324D01*
X43747280Y-104564937D01*
X43755063Y-104572720D01*
X43818836Y-104623629D01*
X43852517Y-104674710D01*
X43849742Y-104735832D01*
X43811570Y-104783650D01*
X43757072Y-104800000D01*
X41719067Y-104800000D01*
X41660876Y-104781093D01*
X41624912Y-104731593D01*
X41624912Y-104670407D01*
X41649063Y-104630996D01*
X42229725Y-104050334D01*
X42246025Y-104037170D01*
X42256210Y-104030594D01*
X42277719Y-104003311D01*
X42282964Y-103997407D01*
X42284695Y-103995364D01*
X42287575Y-103992484D01*
X42289945Y-103989168D01*
X42289948Y-103989164D01*
X42299024Y-103976463D01*
X42301826Y-103972730D01*
X42328538Y-103938847D01*
X42328538Y-103938846D01*
X42333603Y-103932422D01*
X42336138Y-103925204D01*
X42337424Y-103922727D01*
X42341872Y-103916503D01*
X42352964Y-103879415D01*
X42356578Y-103867331D01*
X42358019Y-103862897D01*
X42372960Y-103820350D01*
X42372961Y-103820346D01*
X42375023Y-103814474D01*
X42375500Y-103808967D01*
X42375500Y-103806826D01*
X42375551Y-103805642D01*
X42375758Y-103803199D01*
X42377691Y-103796735D01*
X42375576Y-103742907D01*
X42375500Y-103739020D01*
X42375500Y-103699000D01*
X42394407Y-103640809D01*
X42443907Y-103604845D01*
X42474500Y-103600000D01*
X42634320Y-103600000D01*
X42647005Y-103595878D01*
X42650000Y-103591757D01*
X42650000Y-103584320D01*
X42950000Y-103584320D01*
X42954122Y-103597005D01*
X42958243Y-103600000D01*
X43141639Y-103600000D01*
X43147485Y-103599654D01*
X43163353Y-103597766D01*
X43177519Y-103593872D01*
X43264514Y-103555230D01*
X43279321Y-103545054D01*
X43345367Y-103478892D01*
X43355518Y-103464067D01*
X43386112Y-103394863D01*
X43426933Y-103349286D01*
X43486748Y-103336408D01*
X43518413Y-103348515D01*
X43527789Y-103350000D01*
X44154320Y-103350000D01*
X44167005Y-103345878D01*
X44170000Y-103341757D01*
X44170000Y-103334320D01*
X44470000Y-103334320D01*
X44474122Y-103347005D01*
X44478243Y-103350000D01*
X45104319Y-103350000D01*
X45117004Y-103345878D01*
X45119999Y-103341757D01*
X45119999Y-102913618D01*
X45119936Y-102911441D01*
X45118783Y-102903381D01*
X45080598Y-102737983D01*
X45076943Y-102727604D01*
X45003648Y-102575988D01*
X44997785Y-102566676D01*
X44892720Y-102435063D01*
X44884937Y-102427280D01*
X44753324Y-102322215D01*
X44744012Y-102316352D01*
X44592396Y-102243057D01*
X44582018Y-102239402D01*
X44485277Y-102217068D01*
X44472447Y-102218190D01*
X44470000Y-102227015D01*
X44470000Y-103334320D01*
X44170000Y-103334320D01*
X44170000Y-102229221D01*
X44166020Y-102216971D01*
X44156873Y-102216572D01*
X44057982Y-102239402D01*
X44047604Y-102243057D01*
X43895988Y-102316352D01*
X43886676Y-102322215D01*
X43755063Y-102427280D01*
X43747280Y-102435063D01*
X43642215Y-102566676D01*
X43636352Y-102575988D01*
X43584759Y-102682711D01*
X43542410Y-102726872D01*
X43482192Y-102737707D01*
X43427105Y-102711077D01*
X43401473Y-102670214D01*
X43395878Y-102652995D01*
X43391757Y-102650000D01*
X42965680Y-102650000D01*
X42952995Y-102654122D01*
X42950000Y-102658243D01*
X42950000Y-103584320D01*
X42650000Y-103584320D01*
X42650000Y-102334320D01*
X42950000Y-102334320D01*
X42954122Y-102347005D01*
X42958243Y-102350000D01*
X43384320Y-102350000D01*
X43397005Y-102345878D01*
X43400000Y-102341757D01*
X43400000Y-101658361D01*
X43399654Y-101652515D01*
X43397766Y-101636647D01*
X43393872Y-101622481D01*
X43355230Y-101535486D01*
X43345054Y-101520679D01*
X43278892Y-101454633D01*
X43264069Y-101444483D01*
X43177020Y-101406000D01*
X43162815Y-101402127D01*
X43147420Y-101400332D01*
X43141708Y-101400000D01*
X42965680Y-101400000D01*
X42952995Y-101404122D01*
X42950000Y-101408243D01*
X42950000Y-102334320D01*
X42650000Y-102334320D01*
X42650000Y-101415680D01*
X42645878Y-101402995D01*
X42641757Y-101400000D01*
X42458361Y-101400000D01*
X42452515Y-101400346D01*
X42436647Y-101402234D01*
X42422481Y-101406128D01*
X42335486Y-101444770D01*
X42320679Y-101454947D01*
X42305209Y-101470443D01*
X42250717Y-101498268D01*
X42235145Y-101499500D01*
X41750812Y-101499500D01*
X41692621Y-101480593D01*
X41656657Y-101431093D01*
X41656657Y-101369907D01*
X41680808Y-101330496D01*
X42756808Y-100254496D01*
X42811325Y-100226719D01*
X42826812Y-100225500D01*
X43078698Y-100225499D01*
X43106518Y-100225499D01*
X43110361Y-100224890D01*
X43110366Y-100224890D01*
X43147217Y-100219053D01*
X43200304Y-100210646D01*
X43280296Y-100169888D01*
X43306403Y-100156586D01*
X43306405Y-100156585D01*
X43313342Y-100153050D01*
X43403050Y-100063342D01*
X43438604Y-99993565D01*
X43457110Y-99957244D01*
X43457110Y-99957243D01*
X43460646Y-99950304D01*
X43465453Y-99919958D01*
X43474891Y-99860365D01*
X43474892Y-99860356D01*
X43475500Y-99856519D01*
X43475499Y-99393482D01*
X43472569Y-99374977D01*
X43466129Y-99334320D01*
X43460646Y-99299696D01*
X43431848Y-99243177D01*
X43406586Y-99193597D01*
X43406585Y-99193595D01*
X43403050Y-99186658D01*
X43313342Y-99096950D01*
X43306405Y-99093415D01*
X43306403Y-99093414D01*
X43207244Y-99042890D01*
X43207243Y-99042890D01*
X43200304Y-99039354D01*
X43192610Y-99038135D01*
X43192609Y-99038135D01*
X43110365Y-99025109D01*
X43110363Y-99025109D01*
X43106519Y-99024500D01*
X42800040Y-99024500D01*
X42493482Y-99024501D01*
X42489639Y-99025110D01*
X42489634Y-99025110D01*
X42452783Y-99030947D01*
X42399696Y-99039354D01*
X42343177Y-99068152D01*
X42293597Y-99093414D01*
X42293595Y-99093415D01*
X42286658Y-99096950D01*
X42196950Y-99186658D01*
X42193415Y-99193595D01*
X42193414Y-99193597D01*
X42159003Y-99261133D01*
X42139354Y-99299696D01*
X42138135Y-99307390D01*
X42138135Y-99307391D01*
X42127431Y-99374977D01*
X42124500Y-99393481D01*
X42124501Y-99856518D01*
X42131600Y-99901341D01*
X42122027Y-99961773D01*
X42103822Y-99986830D01*
X40982943Y-101107709D01*
X40976576Y-101113543D01*
X40946806Y-101138523D01*
X40942477Y-101146022D01*
X40927373Y-101172183D01*
X40922732Y-101179467D01*
X40900446Y-101211294D01*
X40898203Y-101219664D01*
X40895742Y-101224942D01*
X40893746Y-101230427D01*
X40889412Y-101237933D01*
X40887907Y-101246468D01*
X40887023Y-101248897D01*
X40849354Y-101297112D01*
X40790539Y-101313978D01*
X40733044Y-101293052D01*
X40698437Y-101238418D01*
X40698226Y-101232790D01*
X40693681Y-101222211D01*
X40687317Y-101201262D01*
X40686884Y-101198935D01*
X40686882Y-101198930D01*
X40685209Y-101189946D01*
X40671232Y-101167270D01*
X40664548Y-101154403D01*
X40656795Y-101136357D01*
X40656794Y-101136356D01*
X40654036Y-101129936D01*
X40650022Y-101125050D01*
X40645658Y-101120686D01*
X40631387Y-101102631D01*
X40631264Y-101102432D01*
X40626468Y-101094651D01*
X40603231Y-101076981D01*
X40593161Y-101068189D01*
X40564236Y-101039264D01*
X40536459Y-100984747D01*
X40546030Y-100924315D01*
X40564237Y-100899256D01*
X41049168Y-100414326D01*
X41052294Y-100411628D01*
X41056780Y-100409435D01*
X41090392Y-100373201D01*
X41092968Y-100370525D01*
X41106759Y-100356734D01*
X41109304Y-100353023D01*
X41112745Y-100349104D01*
X41126696Y-100334065D01*
X41126696Y-100334064D01*
X41132912Y-100327364D01*
X41136298Y-100318876D01*
X41136300Y-100318873D01*
X41137178Y-100316672D01*
X41147492Y-100297356D01*
X41148833Y-100295401D01*
X41148834Y-100295399D01*
X41154003Y-100287864D01*
X41160152Y-100261951D01*
X41164525Y-100248126D01*
X41171805Y-100229878D01*
X41171805Y-100229876D01*
X41174394Y-100223388D01*
X41175011Y-100217095D01*
X41175011Y-100210926D01*
X41177686Y-100188067D01*
X41177741Y-100187837D01*
X41177741Y-100187835D01*
X41179851Y-100178944D01*
X41175915Y-100150022D01*
X41175011Y-100136673D01*
X41175011Y-98219657D01*
X42025000Y-98219657D01*
X42025289Y-98224991D01*
X42030971Y-98277298D01*
X42033822Y-98289287D01*
X42079443Y-98410982D01*
X42086143Y-98423219D01*
X42163581Y-98526545D01*
X42173455Y-98536419D01*
X42276781Y-98613857D01*
X42289018Y-98620557D01*
X42410713Y-98666178D01*
X42422702Y-98669029D01*
X42475009Y-98674711D01*
X42480343Y-98675000D01*
X42634320Y-98675000D01*
X42647005Y-98670878D01*
X42650000Y-98666757D01*
X42650000Y-98140680D01*
X42645878Y-98127995D01*
X42641757Y-98125000D01*
X42040680Y-98125000D01*
X42027995Y-98129122D01*
X42025000Y-98133243D01*
X42025000Y-98219657D01*
X41175011Y-98219657D01*
X41175011Y-97809320D01*
X42025000Y-97809320D01*
X42029122Y-97822005D01*
X42033243Y-97825000D01*
X42634320Y-97825000D01*
X42647005Y-97820878D01*
X42650000Y-97816757D01*
X42650000Y-97290680D01*
X42645878Y-97277995D01*
X42641757Y-97275000D01*
X42480343Y-97275000D01*
X42475009Y-97275289D01*
X42422702Y-97280971D01*
X42410713Y-97283822D01*
X42289018Y-97329443D01*
X42276781Y-97336143D01*
X42173455Y-97413581D01*
X42163581Y-97423455D01*
X42086143Y-97526781D01*
X42079443Y-97539018D01*
X42033822Y-97660713D01*
X42030971Y-97672702D01*
X42025289Y-97725009D01*
X42025000Y-97730343D01*
X42025000Y-97809320D01*
X41175011Y-97809320D01*
X41175011Y-97011685D01*
X41193918Y-96953494D01*
X41204007Y-96941681D01*
X41409171Y-96736517D01*
X41412300Y-96733817D01*
X41416789Y-96731622D01*
X41450413Y-96695375D01*
X41452989Y-96692699D01*
X41466768Y-96678920D01*
X41469313Y-96675210D01*
X41472749Y-96671297D01*
X41492921Y-96649551D01*
X41493995Y-96650547D01*
X41533320Y-96617901D01*
X41594378Y-96613954D01*
X41613399Y-96620943D01*
X41653482Y-96640536D01*
X41661084Y-96641645D01*
X41661087Y-96641646D01*
X41718237Y-96649983D01*
X41718239Y-96649983D01*
X41721782Y-96650500D01*
X42088218Y-96650500D01*
X42091801Y-96649972D01*
X42091808Y-96649972D01*
X42149499Y-96641479D01*
X42149501Y-96641478D01*
X42157112Y-96640358D01*
X42261855Y-96588932D01*
X42344293Y-96506350D01*
X42395536Y-96401518D01*
X42396645Y-96393916D01*
X42396646Y-96393913D01*
X42404983Y-96336763D01*
X42404983Y-96336761D01*
X42405500Y-96333218D01*
X42405500Y-94616782D01*
X42402840Y-94598709D01*
X42396479Y-94555501D01*
X42396478Y-94555499D01*
X42395358Y-94547888D01*
X42356199Y-94468129D01*
X42347525Y-94407564D01*
X42376109Y-94353466D01*
X42431031Y-94326500D01*
X42445066Y-94325500D01*
X42634873Y-94325500D01*
X42693064Y-94344407D01*
X42729028Y-94393907D01*
X42729028Y-94455093D01*
X42723816Y-94467976D01*
X42684464Y-94548482D01*
X42683355Y-94556084D01*
X42683354Y-94556087D01*
X42675024Y-94613192D01*
X42674500Y-94616782D01*
X42674500Y-96333218D01*
X42675028Y-96336801D01*
X42675028Y-96336808D01*
X42677795Y-96355601D01*
X42684642Y-96402112D01*
X42688032Y-96409017D01*
X42688033Y-96409019D01*
X42698465Y-96430266D01*
X42736068Y-96506855D01*
X42818650Y-96589293D01*
X42923482Y-96640536D01*
X42931084Y-96641645D01*
X42931087Y-96641646D01*
X42988237Y-96649983D01*
X42988239Y-96649983D01*
X42991782Y-96650500D01*
X43358218Y-96650500D01*
X43361808Y-96649972D01*
X43365406Y-96649708D01*
X43365499Y-96650982D01*
X43420918Y-96660376D01*
X43463712Y-96704107D01*
X43474020Y-96748093D01*
X43474020Y-97251637D01*
X43455113Y-97309828D01*
X43405613Y-97345792D01*
X43344427Y-97345792D01*
X43327480Y-97338476D01*
X43310976Y-97329441D01*
X43189287Y-97283822D01*
X43177298Y-97280971D01*
X43124991Y-97275289D01*
X43119657Y-97275000D01*
X42965680Y-97275000D01*
X42952995Y-97279122D01*
X42950000Y-97283243D01*
X42950000Y-98659320D01*
X42954122Y-98672005D01*
X42958243Y-98675000D01*
X43119657Y-98675000D01*
X43124991Y-98674711D01*
X43177298Y-98669029D01*
X43189287Y-98666178D01*
X43310978Y-98620558D01*
X43325882Y-98612399D01*
X43386004Y-98601040D01*
X43441320Y-98627189D01*
X43470702Y-98680858D01*
X43472046Y-98707865D01*
X43471011Y-98719697D01*
X43470256Y-98728327D01*
X43472498Y-98736694D01*
X43480316Y-98765869D01*
X43482186Y-98774303D01*
X43488932Y-98812565D01*
X43493262Y-98820064D01*
X43495258Y-98825549D01*
X43497724Y-98830836D01*
X43499966Y-98839204D01*
X43520533Y-98868576D01*
X43522252Y-98871031D01*
X43526891Y-98878312D01*
X43546326Y-98911975D01*
X43576091Y-98936951D01*
X43582459Y-98942785D01*
X44476706Y-99837033D01*
X44504483Y-99891550D01*
X44504855Y-99919958D01*
X44496052Y-99986830D01*
X44494318Y-100000000D01*
X44514956Y-100156762D01*
X44575464Y-100302841D01*
X44671718Y-100428282D01*
X44797159Y-100524536D01*
X44943238Y-100585044D01*
X45100000Y-100605682D01*
X45256762Y-100585044D01*
X45402841Y-100524536D01*
X45528282Y-100428282D01*
X45624536Y-100302841D01*
X45685044Y-100156762D01*
X45705682Y-100000000D01*
X45685044Y-99843238D01*
X45624536Y-99697159D01*
X45528282Y-99571718D01*
X45434817Y-99500000D01*
X46194532Y-99500000D01*
X46214365Y-99726692D01*
X46273261Y-99946496D01*
X46369432Y-100152734D01*
X46371913Y-100156277D01*
X46371914Y-100156279D01*
X46485763Y-100318873D01*
X46499953Y-100339139D01*
X46660861Y-100500047D01*
X46664399Y-100502524D01*
X46664401Y-100502526D01*
X46843721Y-100628086D01*
X46847266Y-100630568D01*
X47053504Y-100726739D01*
X47142563Y-100750602D01*
X47269131Y-100784516D01*
X47269133Y-100784516D01*
X47273308Y-100785635D01*
X47317795Y-100789527D01*
X47441050Y-100800311D01*
X47441061Y-100800311D01*
X47443216Y-100800500D01*
X47556784Y-100800500D01*
X47558939Y-100800311D01*
X47558950Y-100800311D01*
X47682205Y-100789527D01*
X47726692Y-100785635D01*
X47730867Y-100784516D01*
X47730869Y-100784516D01*
X47857437Y-100750602D01*
X47946496Y-100726739D01*
X48152734Y-100630568D01*
X48156279Y-100628086D01*
X48335599Y-100502526D01*
X48335601Y-100502524D01*
X48339139Y-100500047D01*
X48500047Y-100339139D01*
X48514238Y-100318873D01*
X48628086Y-100156279D01*
X48628087Y-100156277D01*
X48630568Y-100152734D01*
X48726739Y-99946496D01*
X48785635Y-99726692D01*
X48805468Y-99500000D01*
X48785635Y-99273308D01*
X48726739Y-99053504D01*
X48630568Y-98847266D01*
X48615087Y-98825157D01*
X48502526Y-98664401D01*
X48502524Y-98664399D01*
X48500047Y-98660861D01*
X48339139Y-98499953D01*
X48229551Y-98423219D01*
X48156279Y-98371914D01*
X48156277Y-98371913D01*
X48152734Y-98369432D01*
X47946496Y-98273261D01*
X47793388Y-98232236D01*
X47730869Y-98215484D01*
X47730867Y-98215484D01*
X47726692Y-98214365D01*
X47682205Y-98210473D01*
X47558950Y-98199689D01*
X47558939Y-98199689D01*
X47556784Y-98199500D01*
X47443216Y-98199500D01*
X47441061Y-98199689D01*
X47441050Y-98199689D01*
X47317795Y-98210473D01*
X47273308Y-98214365D01*
X47269133Y-98215484D01*
X47269131Y-98215484D01*
X47206612Y-98232236D01*
X47053504Y-98273261D01*
X46847266Y-98369432D01*
X46843723Y-98371913D01*
X46843721Y-98371914D01*
X46770450Y-98423219D01*
X46660861Y-98499953D01*
X46499953Y-98660861D01*
X46497476Y-98664399D01*
X46497474Y-98664401D01*
X46384913Y-98825157D01*
X46369432Y-98847266D01*
X46273261Y-99053504D01*
X46214365Y-99273308D01*
X46194532Y-99500000D01*
X45434817Y-99500000D01*
X45402841Y-99475464D01*
X45256762Y-99414956D01*
X45100000Y-99394318D01*
X45093566Y-99395165D01*
X45093565Y-99395165D01*
X45019958Y-99404855D01*
X44959798Y-99393705D01*
X44937033Y-99376706D01*
X44154016Y-98593690D01*
X44126239Y-98539173D01*
X44125020Y-98523686D01*
X44125020Y-96745039D01*
X44143927Y-96686848D01*
X44193427Y-96650884D01*
X44238311Y-96647076D01*
X44258237Y-96649983D01*
X44258239Y-96649983D01*
X44261782Y-96650500D01*
X44628218Y-96650500D01*
X44666311Y-96644892D01*
X44726633Y-96655124D01*
X44769422Y-96698858D01*
X44778333Y-96759391D01*
X44759271Y-96803101D01*
X44725464Y-96847159D01*
X44664956Y-96993238D01*
X44644318Y-97150000D01*
X44664956Y-97306762D01*
X44725464Y-97452841D01*
X44821718Y-97578282D01*
X44947159Y-97674536D01*
X45093238Y-97735044D01*
X45250000Y-97755682D01*
X45406762Y-97735044D01*
X45552841Y-97674536D01*
X45678282Y-97578282D01*
X45774536Y-97452841D01*
X45835044Y-97306762D01*
X45855682Y-97150000D01*
X45835044Y-96993238D01*
X45783036Y-96867679D01*
X45775500Y-96829794D01*
X45775500Y-93920795D01*
X45794407Y-93862604D01*
X45843907Y-93826640D01*
X45907302Y-93827387D01*
X45948790Y-93841956D01*
X45964631Y-93847519D01*
X45970638Y-93848087D01*
X45970639Y-93848087D01*
X45993855Y-93850282D01*
X45993865Y-93850282D01*
X45996166Y-93850500D01*
X47403834Y-93850500D01*
X47406135Y-93850282D01*
X47406145Y-93850282D01*
X47429361Y-93848087D01*
X47429362Y-93848087D01*
X47435369Y-93847519D01*
X47563184Y-93802634D01*
X47571289Y-93796648D01*
X47666193Y-93726550D01*
X47672150Y-93722150D01*
X47707345Y-93674500D01*
X47748238Y-93619136D01*
X47748239Y-93619135D01*
X47752634Y-93613184D01*
X47797519Y-93485369D01*
X47798322Y-93476871D01*
X47800282Y-93456145D01*
X47800282Y-93456135D01*
X47800500Y-93453834D01*
X47800500Y-92696166D01*
X47797519Y-92664631D01*
X47752634Y-92536816D01*
X47672150Y-92427850D01*
X47634003Y-92399674D01*
X47569136Y-92351762D01*
X47569135Y-92351761D01*
X47563184Y-92347366D01*
X47435369Y-92302481D01*
X47429362Y-92301913D01*
X47429361Y-92301913D01*
X47406145Y-92299718D01*
X47406135Y-92299718D01*
X47403834Y-92299500D01*
X45996166Y-92299500D01*
X45993865Y-92299718D01*
X45993855Y-92299718D01*
X45970639Y-92301913D01*
X45970638Y-92301913D01*
X45964631Y-92302481D01*
X45836816Y-92347366D01*
X45830865Y-92351761D01*
X45830864Y-92351762D01*
X45788741Y-92382875D01*
X45730701Y-92402239D01*
X45672363Y-92383789D01*
X45638459Y-92341127D01*
X45602021Y-92253156D01*
X45602018Y-92253150D01*
X45599536Y-92247159D01*
X45503282Y-92121718D01*
X45377841Y-92025464D01*
X45231762Y-91964956D01*
X45075000Y-91944318D01*
X44918238Y-91964956D01*
X44772159Y-92025464D01*
X44646718Y-92121718D01*
X44550464Y-92247159D01*
X44511541Y-92341127D01*
X44494249Y-92382875D01*
X44489956Y-92393238D01*
X44469318Y-92550000D01*
X44489956Y-92706762D01*
X44550464Y-92852841D01*
X44646718Y-92978282D01*
X44772159Y-93074536D01*
X44918238Y-93135044D01*
X44938422Y-93137701D01*
X44993646Y-93164041D01*
X45022842Y-93217811D01*
X45024500Y-93235854D01*
X45024500Y-94344755D01*
X45005593Y-94402946D01*
X44956093Y-94438910D01*
X44894907Y-94438910D01*
X44855558Y-94414820D01*
X44807141Y-94366488D01*
X44801350Y-94360707D01*
X44696518Y-94309464D01*
X44688916Y-94308355D01*
X44688913Y-94308354D01*
X44631763Y-94300017D01*
X44631761Y-94300017D01*
X44628218Y-94299500D01*
X44532663Y-94299500D01*
X44474472Y-94280593D01*
X44438508Y-94231093D01*
X44438508Y-94169907D01*
X44441199Y-94162615D01*
X44482559Y-94062762D01*
X44482561Y-94062756D01*
X44485044Y-94056762D01*
X44505682Y-93900000D01*
X44485044Y-93743238D01*
X44478473Y-93727373D01*
X44465369Y-93695738D01*
X44424536Y-93597159D01*
X44328282Y-93471718D01*
X44202841Y-93375464D01*
X44056762Y-93314956D01*
X44053758Y-93314560D01*
X44003667Y-93282031D01*
X43981741Y-93224909D01*
X43997577Y-93165809D01*
X44010601Y-93149725D01*
X44016577Y-93143749D01*
X44022945Y-93137914D01*
X44029326Y-93132560D01*
X44052714Y-93112935D01*
X44072149Y-93079272D01*
X44076788Y-93071991D01*
X44079249Y-93068476D01*
X44099074Y-93040164D01*
X44101316Y-93031799D01*
X44103778Y-93026519D01*
X44105777Y-93021028D01*
X44110108Y-93013525D01*
X44116857Y-92975251D01*
X44118726Y-92966824D01*
X44126542Y-92937653D01*
X44126542Y-92937650D01*
X44128783Y-92929287D01*
X44125397Y-92890583D01*
X44125020Y-92881955D01*
X44125020Y-91795039D01*
X44143927Y-91736848D01*
X44193427Y-91700884D01*
X44238311Y-91697076D01*
X44258237Y-91699983D01*
X44258239Y-91699983D01*
X44261782Y-91700500D01*
X44628218Y-91700500D01*
X44631801Y-91699972D01*
X44631808Y-91699972D01*
X44689499Y-91691479D01*
X44689501Y-91691478D01*
X44697112Y-91690358D01*
X44801855Y-91638932D01*
X44884293Y-91556350D01*
X44935536Y-91451518D01*
X44936645Y-91443916D01*
X44936646Y-91443913D01*
X44944983Y-91386763D01*
X44944983Y-91386761D01*
X44945500Y-91383218D01*
X44945500Y-90489743D01*
X45500000Y-90489743D01*
X45500359Y-90495699D01*
X45510090Y-90576113D01*
X45513195Y-90588340D01*
X45563842Y-90716260D01*
X45570408Y-90727913D01*
X45653352Y-90837186D01*
X45662814Y-90846648D01*
X45772087Y-90929592D01*
X45783740Y-90936158D01*
X45911660Y-90986805D01*
X45923887Y-90989910D01*
X46004301Y-90999641D01*
X46010257Y-91000000D01*
X46534320Y-91000000D01*
X46547005Y-90995878D01*
X46550000Y-90991757D01*
X46550000Y-90984320D01*
X46850000Y-90984320D01*
X46854122Y-90997005D01*
X46858243Y-91000000D01*
X47389743Y-91000000D01*
X47395699Y-90999641D01*
X47476113Y-90989910D01*
X47488340Y-90986805D01*
X47616260Y-90936158D01*
X47627913Y-90929592D01*
X47737186Y-90846648D01*
X47746648Y-90837186D01*
X47829592Y-90727913D01*
X47836158Y-90716260D01*
X47886805Y-90588340D01*
X47889910Y-90576113D01*
X47899641Y-90495699D01*
X47900000Y-90489743D01*
X47900000Y-90290680D01*
X47895878Y-90277995D01*
X47891757Y-90275000D01*
X46865680Y-90275000D01*
X46852995Y-90279122D01*
X46850000Y-90283243D01*
X46850000Y-90984320D01*
X46550000Y-90984320D01*
X46550000Y-90290680D01*
X46545878Y-90277995D01*
X46541757Y-90275000D01*
X45515680Y-90275000D01*
X45502995Y-90279122D01*
X45500000Y-90283243D01*
X45500000Y-90489743D01*
X44945500Y-90489743D01*
X44945500Y-89959320D01*
X45500000Y-89959320D01*
X45504122Y-89972005D01*
X45508243Y-89975000D01*
X46534320Y-89975000D01*
X46547005Y-89970878D01*
X46550000Y-89966757D01*
X46550000Y-89959320D01*
X46850000Y-89959320D01*
X46854122Y-89972005D01*
X46858243Y-89975000D01*
X47884320Y-89975000D01*
X47897005Y-89970878D01*
X47900000Y-89966757D01*
X47900000Y-89760257D01*
X47899641Y-89754301D01*
X47889910Y-89673887D01*
X47886805Y-89661660D01*
X47836158Y-89533740D01*
X47829592Y-89522087D01*
X47746648Y-89412814D01*
X47737186Y-89403352D01*
X47627913Y-89320408D01*
X47616260Y-89313842D01*
X47488340Y-89263195D01*
X47476113Y-89260090D01*
X47395699Y-89250359D01*
X47389743Y-89250000D01*
X46865680Y-89250000D01*
X46852995Y-89254122D01*
X46850000Y-89258243D01*
X46850000Y-89959320D01*
X46550000Y-89959320D01*
X46550000Y-89265680D01*
X46545878Y-89252995D01*
X46541757Y-89250000D01*
X46010257Y-89250000D01*
X46004301Y-89250359D01*
X45923887Y-89260090D01*
X45911660Y-89263195D01*
X45783740Y-89313842D01*
X45772087Y-89320408D01*
X45662814Y-89403352D01*
X45653352Y-89412814D01*
X45570408Y-89522087D01*
X45563842Y-89533740D01*
X45513195Y-89661660D01*
X45510090Y-89673887D01*
X45500359Y-89754301D01*
X45500000Y-89760257D01*
X45500000Y-89959320D01*
X44945500Y-89959320D01*
X44945500Y-89666782D01*
X44935358Y-89597888D01*
X44883932Y-89493145D01*
X44801350Y-89410707D01*
X44696518Y-89359464D01*
X44654587Y-89353347D01*
X44599735Y-89326238D01*
X44571293Y-89272065D01*
X44580126Y-89211520D01*
X44598874Y-89185380D01*
X45479758Y-88304496D01*
X45534275Y-88276719D01*
X45549762Y-88275500D01*
X46054679Y-88275499D01*
X46106518Y-88275499D01*
X46110361Y-88274890D01*
X46110366Y-88274890D01*
X46147217Y-88269053D01*
X46200304Y-88260646D01*
X46275444Y-88222360D01*
X46306403Y-88206586D01*
X46306405Y-88206585D01*
X46313342Y-88203050D01*
X46403050Y-88113342D01*
X46406588Y-88106400D01*
X46457110Y-88007244D01*
X46457110Y-88007243D01*
X46460646Y-88000304D01*
X46475500Y-87906519D01*
X46475499Y-87443482D01*
X46471977Y-87421239D01*
X46467086Y-87390358D01*
X46460646Y-87349696D01*
X46409338Y-87248999D01*
X46406586Y-87243597D01*
X46406585Y-87243595D01*
X46403050Y-87236658D01*
X46383363Y-87216971D01*
X46355586Y-87162454D01*
X46365157Y-87102022D01*
X46383363Y-87076963D01*
X48517057Y-84943269D01*
X48523425Y-84937434D01*
X48553194Y-84912455D01*
X48572629Y-84878792D01*
X48577268Y-84871511D01*
X48578987Y-84869056D01*
X48599554Y-84839684D01*
X48601796Y-84831316D01*
X48604262Y-84826029D01*
X48606258Y-84820544D01*
X48610588Y-84813045D01*
X48617334Y-84774783D01*
X48619204Y-84766349D01*
X48627022Y-84737174D01*
X48629264Y-84728807D01*
X48625877Y-84690091D01*
X48625500Y-84681463D01*
X48625500Y-83924500D01*
X48644407Y-83866309D01*
X48693907Y-83830345D01*
X48724500Y-83825500D01*
X48744748Y-83825500D01*
X48771840Y-83820111D01*
X48793666Y-83815770D01*
X48793668Y-83815769D01*
X48803231Y-83813867D01*
X48869552Y-83769552D01*
X48913867Y-83703231D01*
X48925500Y-83644748D01*
X48925500Y-82755252D01*
X48913867Y-82696769D01*
X48869552Y-82630448D01*
X48803231Y-82586133D01*
X48793668Y-82584231D01*
X48793666Y-82584230D01*
X48770995Y-82579721D01*
X48744748Y-82574500D01*
X47855252Y-82574500D01*
X47829005Y-82579721D01*
X47806334Y-82584230D01*
X47806332Y-82584231D01*
X47796769Y-82586133D01*
X47788660Y-82591551D01*
X47779654Y-82595282D01*
X47778115Y-82591568D01*
X47737397Y-82603029D01*
X47688287Y-82587696D01*
X47624500Y-82547215D01*
X47614619Y-82542396D01*
X47471816Y-82491546D01*
X47464380Y-82489802D01*
X47452485Y-82492157D01*
X47451045Y-82493712D01*
X47450000Y-82498463D01*
X47450000Y-83897934D01*
X47453521Y-83908769D01*
X47464912Y-83908769D01*
X47596135Y-83866132D01*
X47606148Y-83861590D01*
X47690932Y-83811049D01*
X47750597Y-83797493D01*
X47778539Y-83807409D01*
X47779654Y-83804718D01*
X47788660Y-83808449D01*
X47796769Y-83813867D01*
X47806332Y-83815769D01*
X47806334Y-83815770D01*
X47828160Y-83820111D01*
X47855252Y-83825500D01*
X47875500Y-83825500D01*
X47933691Y-83844407D01*
X47969655Y-83893907D01*
X47974500Y-83924500D01*
X47974500Y-84524166D01*
X47955593Y-84582357D01*
X47945504Y-84594170D01*
X46644503Y-85895171D01*
X46589986Y-85922948D01*
X46529554Y-85913377D01*
X46486289Y-85870112D01*
X46475499Y-85825167D01*
X46475499Y-85793482D01*
X46473496Y-85780831D01*
X46465911Y-85732943D01*
X46460646Y-85699696D01*
X46422332Y-85624500D01*
X46406586Y-85593597D01*
X46406585Y-85593595D01*
X46403050Y-85586658D01*
X46313342Y-85496950D01*
X46306405Y-85493415D01*
X46306403Y-85493414D01*
X46207244Y-85442890D01*
X46207243Y-85442890D01*
X46200304Y-85439354D01*
X46192610Y-85438135D01*
X46192609Y-85438135D01*
X46110365Y-85425109D01*
X46110363Y-85425109D01*
X46106519Y-85424500D01*
X45924500Y-85424500D01*
X45866309Y-85405593D01*
X45830345Y-85356093D01*
X45825500Y-85325500D01*
X45825500Y-83355912D01*
X46587884Y-83355912D01*
X46588102Y-83356938D01*
X46635950Y-83500775D01*
X46640564Y-83510761D01*
X46719087Y-83640417D01*
X46725805Y-83649140D01*
X46831099Y-83758174D01*
X46839572Y-83765185D01*
X46966420Y-83848192D01*
X46976228Y-83853146D01*
X47118310Y-83905986D01*
X47128986Y-83908647D01*
X47134456Y-83909377D01*
X47147577Y-83906969D01*
X47148783Y-83905702D01*
X47150000Y-83900347D01*
X47150000Y-83365680D01*
X47145878Y-83352995D01*
X47141757Y-83350000D01*
X46601870Y-83350000D01*
X46589185Y-83354122D01*
X46587884Y-83355912D01*
X45825500Y-83355912D01*
X45825500Y-83034445D01*
X46590112Y-83034445D01*
X46592611Y-83047545D01*
X46594022Y-83048870D01*
X46599078Y-83050000D01*
X47134320Y-83050000D01*
X47147005Y-83045878D01*
X47150000Y-83041757D01*
X47150000Y-82502412D01*
X47145878Y-82489727D01*
X47143864Y-82488263D01*
X47142894Y-82488161D01*
X47138092Y-82489217D01*
X46994599Y-82538065D01*
X46984642Y-82542750D01*
X46855530Y-82622181D01*
X46846871Y-82628946D01*
X46738561Y-82735012D01*
X46731616Y-82743527D01*
X46649495Y-82870953D01*
X46644609Y-82880795D01*
X46592761Y-83023247D01*
X46590177Y-83033929D01*
X46590112Y-83034445D01*
X45825500Y-83034445D01*
X45825500Y-82355970D01*
X45844407Y-82297779D01*
X45864233Y-82277428D01*
X45923129Y-82232236D01*
X45928282Y-82228282D01*
X46024536Y-82102841D01*
X46085044Y-81956762D01*
X46105682Y-81800000D01*
X46085044Y-81643238D01*
X46024536Y-81497159D01*
X45928282Y-81371718D01*
X45802841Y-81275464D01*
X45680573Y-81224819D01*
X45662759Y-81217440D01*
X45656762Y-81214956D01*
X45500000Y-81194318D01*
X45343238Y-81214956D01*
X45337241Y-81217440D01*
X45319427Y-81224819D01*
X45197159Y-81275464D01*
X45071718Y-81371718D01*
X44975464Y-81497159D01*
X44914956Y-81643238D01*
X44894318Y-81800000D01*
X44914956Y-81956762D01*
X44975464Y-82102841D01*
X45071718Y-82228282D01*
X45076871Y-82232236D01*
X45135767Y-82277428D01*
X45170423Y-82327852D01*
X45174500Y-82355970D01*
X45174500Y-85606950D01*
X45163710Y-85651895D01*
X45143795Y-85690981D01*
X45139354Y-85699696D01*
X45138135Y-85707390D01*
X45138135Y-85707391D01*
X45125109Y-85789634D01*
X45124500Y-85793481D01*
X45124501Y-86256518D01*
X45125110Y-86260361D01*
X45125110Y-86260366D01*
X45130947Y-86297217D01*
X45139354Y-86350304D01*
X45161051Y-86392886D01*
X45180244Y-86430555D01*
X45189815Y-86490987D01*
X45162038Y-86545504D01*
X45107521Y-86573281D01*
X45092034Y-86574500D01*
X44885606Y-86574500D01*
X44827415Y-86555593D01*
X44814495Y-86542581D01*
X44813932Y-86543145D01*
X44737140Y-86466487D01*
X44731350Y-86460707D01*
X44626518Y-86409464D01*
X44618916Y-86408355D01*
X44618913Y-86408354D01*
X44561763Y-86400017D01*
X44561761Y-86400017D01*
X44558218Y-86399500D01*
X44362000Y-86399500D01*
X44303809Y-86380593D01*
X44267845Y-86331093D01*
X44263000Y-86300500D01*
X44263000Y-84156026D01*
X44263377Y-84147398D01*
X44266008Y-84117320D01*
X44266763Y-84108693D01*
X44264522Y-84100330D01*
X44264522Y-84100327D01*
X44256706Y-84071156D01*
X44254837Y-84062728D01*
X44249592Y-84032985D01*
X44248088Y-84024455D01*
X44243757Y-84016952D01*
X44241758Y-84011461D01*
X44239296Y-84006181D01*
X44237054Y-83997816D01*
X44214768Y-83965989D01*
X44210127Y-83958705D01*
X44195023Y-83932544D01*
X44190694Y-83925045D01*
X44160929Y-83900069D01*
X44154561Y-83894235D01*
X40754830Y-80494504D01*
X40727053Y-80439987D01*
X40736624Y-80379555D01*
X40779889Y-80336290D01*
X40824834Y-80325500D01*
X42106827Y-80325500D01*
X42115456Y-80325877D01*
X42154168Y-80329264D01*
X42191711Y-80319204D01*
X42200145Y-80317334D01*
X42229878Y-80312092D01*
X42229880Y-80312091D01*
X42238406Y-80310588D01*
X42245905Y-80306258D01*
X42251390Y-80304262D01*
X42256677Y-80301796D01*
X42265045Y-80299554D01*
X42296872Y-80277268D01*
X42304156Y-80272627D01*
X42308661Y-80270026D01*
X42337816Y-80253194D01*
X42362792Y-80223429D01*
X42368626Y-80217061D01*
X45064520Y-77521167D01*
X46099500Y-77521167D01*
X46099501Y-79228832D01*
X46102481Y-79260368D01*
X46104478Y-79266055D01*
X46104479Y-79266059D01*
X46124477Y-79323004D01*
X46147366Y-79388183D01*
X46151761Y-79394134D01*
X46151762Y-79394135D01*
X46208628Y-79471125D01*
X46227850Y-79497150D01*
X46233807Y-79501550D01*
X46298345Y-79549218D01*
X46336817Y-79577634D01*
X46464632Y-79622519D01*
X46470639Y-79623087D01*
X46470640Y-79623087D01*
X46493856Y-79625282D01*
X46493866Y-79625282D01*
X46496167Y-79625500D01*
X47799439Y-79625500D01*
X49103832Y-79625499D01*
X49135368Y-79622519D01*
X49141055Y-79620522D01*
X49141059Y-79620521D01*
X49198004Y-79600523D01*
X49263183Y-79577634D01*
X49301656Y-79549218D01*
X49366193Y-79501550D01*
X49372150Y-79497150D01*
X49391372Y-79471125D01*
X49448238Y-79394135D01*
X49448239Y-79394134D01*
X49452634Y-79388183D01*
X49497519Y-79260368D01*
X49498087Y-79254360D01*
X49500282Y-79231144D01*
X49500282Y-79231134D01*
X49500500Y-79228833D01*
X49500499Y-77521168D01*
X49497519Y-77489632D01*
X49495522Y-77483945D01*
X49495521Y-77483941D01*
X49467152Y-77403160D01*
X49452634Y-77361817D01*
X49442390Y-77347947D01*
X49376550Y-77258807D01*
X49372150Y-77252850D01*
X49358665Y-77242890D01*
X49269135Y-77176762D01*
X49269134Y-77176761D01*
X49263183Y-77172366D01*
X49135368Y-77127481D01*
X49129361Y-77126913D01*
X49129360Y-77126913D01*
X49106144Y-77124718D01*
X49106134Y-77124718D01*
X49103833Y-77124500D01*
X47800561Y-77124500D01*
X46496168Y-77124501D01*
X46464632Y-77127481D01*
X46458945Y-77129478D01*
X46458941Y-77129479D01*
X46427046Y-77140680D01*
X46336817Y-77172366D01*
X46330866Y-77176761D01*
X46330865Y-77176762D01*
X46241335Y-77242890D01*
X46227850Y-77252850D01*
X46223450Y-77258807D01*
X46157611Y-77347947D01*
X46147366Y-77361817D01*
X46102481Y-77489632D01*
X46101913Y-77495639D01*
X46101913Y-77495640D01*
X46099719Y-77518852D01*
X46099500Y-77521167D01*
X45064520Y-77521167D01*
X46241577Y-76344110D01*
X46247945Y-76338275D01*
X46259915Y-76328231D01*
X46277714Y-76313296D01*
X46297149Y-76279633D01*
X46301788Y-76272352D01*
X46307013Y-76264890D01*
X46324074Y-76240525D01*
X46326316Y-76232158D01*
X46328779Y-76226877D01*
X46330777Y-76221387D01*
X46335108Y-76213886D01*
X46341856Y-76175619D01*
X46343725Y-76167190D01*
X46351543Y-76138011D01*
X46353784Y-76129647D01*
X46350397Y-76090931D01*
X46350020Y-76082303D01*
X46350020Y-73369699D01*
X46368927Y-73311508D01*
X46418427Y-73275544D01*
X46464560Y-73273278D01*
X46464632Y-73272519D01*
X46469889Y-73273016D01*
X46474255Y-73273429D01*
X46493856Y-73275282D01*
X46493866Y-73275282D01*
X46496167Y-73275500D01*
X47799439Y-73275500D01*
X49103832Y-73275499D01*
X49135368Y-73272519D01*
X49141055Y-73270522D01*
X49141059Y-73270521D01*
X49219751Y-73242886D01*
X49263183Y-73227634D01*
X49359011Y-73156855D01*
X49366193Y-73151550D01*
X49372150Y-73147150D01*
X49388489Y-73125029D01*
X49448238Y-73044135D01*
X49448239Y-73044134D01*
X49452634Y-73038183D01*
X49497519Y-72910368D01*
X49500500Y-72878833D01*
X49500499Y-71171168D01*
X49497519Y-71139632D01*
X49495522Y-71133945D01*
X49495521Y-71133941D01*
X49459904Y-71032519D01*
X49452634Y-71011817D01*
X49372150Y-70902850D01*
X49344681Y-70882561D01*
X49269135Y-70826762D01*
X49269134Y-70826761D01*
X49263183Y-70822366D01*
X49135368Y-70777481D01*
X49129361Y-70776913D01*
X49129360Y-70776913D01*
X49106144Y-70774718D01*
X49106134Y-70774718D01*
X49103833Y-70774500D01*
X47800561Y-70774500D01*
X46496168Y-70774501D01*
X46488186Y-70775255D01*
X46470638Y-70776913D01*
X46470634Y-70776914D01*
X46464632Y-70777481D01*
X46464534Y-70776439D01*
X46409348Y-70771006D01*
X46363611Y-70730364D01*
X46350020Y-70680302D01*
X46350020Y-70169699D01*
X46368927Y-70111508D01*
X46418427Y-70075544D01*
X46464560Y-70073278D01*
X46464632Y-70072519D01*
X46469889Y-70073016D01*
X46474255Y-70073429D01*
X46493856Y-70075282D01*
X46493866Y-70075282D01*
X46496167Y-70075500D01*
X47799439Y-70075500D01*
X49103832Y-70075499D01*
X49135368Y-70072519D01*
X49141055Y-70070522D01*
X49141059Y-70070521D01*
X49198004Y-70050523D01*
X49263183Y-70027634D01*
X49372150Y-69947150D01*
X49452634Y-69838183D01*
X49497519Y-69710368D01*
X49500500Y-69678833D01*
X49500499Y-67971168D01*
X49497519Y-67939632D01*
X49495522Y-67933945D01*
X49495521Y-67933941D01*
X49475523Y-67876996D01*
X49452634Y-67811817D01*
X49372150Y-67702850D01*
X49263183Y-67622366D01*
X49135368Y-67577481D01*
X49129361Y-67576913D01*
X49129360Y-67576913D01*
X49106144Y-67574718D01*
X49106134Y-67574718D01*
X49103833Y-67574500D01*
X47800561Y-67574500D01*
X46496168Y-67574501D01*
X46488186Y-67575255D01*
X46470638Y-67576913D01*
X46470634Y-67576914D01*
X46464632Y-67577481D01*
X46464534Y-67576439D01*
X46409348Y-67571006D01*
X46363611Y-67530364D01*
X46350020Y-67480302D01*
X46350020Y-61319699D01*
X46368927Y-61261508D01*
X46418427Y-61225544D01*
X46464560Y-61223278D01*
X46464632Y-61222519D01*
X46469889Y-61223016D01*
X46474255Y-61223429D01*
X46493856Y-61225282D01*
X46493866Y-61225282D01*
X46496167Y-61225500D01*
X47799439Y-61225500D01*
X49103832Y-61225499D01*
X49135368Y-61222519D01*
X49141055Y-61220522D01*
X49141059Y-61220521D01*
X49211325Y-61195845D01*
X49263183Y-61177634D01*
X49372150Y-61097150D01*
X49452634Y-60988183D01*
X49497519Y-60860368D01*
X49500500Y-60828833D01*
X49500499Y-59121168D01*
X49497519Y-59089632D01*
X49495522Y-59083945D01*
X49495521Y-59083941D01*
X49467058Y-59002891D01*
X49452634Y-58961817D01*
X49406976Y-58900000D01*
X49376550Y-58858807D01*
X49372150Y-58852850D01*
X49346544Y-58833937D01*
X49269135Y-58776762D01*
X49269134Y-58776761D01*
X49263183Y-58772366D01*
X49135368Y-58727481D01*
X49129361Y-58726913D01*
X49129360Y-58726913D01*
X49106144Y-58724718D01*
X49106134Y-58724718D01*
X49103833Y-58724500D01*
X47800561Y-58724500D01*
X46496168Y-58724501D01*
X46464632Y-58727481D01*
X46458945Y-58729478D01*
X46458941Y-58729479D01*
X46419762Y-58743238D01*
X46336817Y-58772366D01*
X46330866Y-58776761D01*
X46330865Y-58776762D01*
X46253456Y-58833937D01*
X46227850Y-58852850D01*
X46223450Y-58858807D01*
X46193025Y-58900000D01*
X46147366Y-58961817D01*
X46102481Y-59089632D01*
X46101913Y-59095639D01*
X46101913Y-59095640D01*
X46099719Y-59118852D01*
X46099500Y-59121167D01*
X46099501Y-59869169D01*
X46099501Y-60411145D01*
X46080594Y-60469336D01*
X46031094Y-60505300D01*
X45969908Y-60505300D01*
X45930497Y-60481149D01*
X45094352Y-59645004D01*
X45066575Y-59590487D01*
X45076146Y-59530055D01*
X45094352Y-59504996D01*
X45699349Y-58900000D01*
X46342558Y-58256791D01*
X46348913Y-58250968D01*
X46378683Y-58225988D01*
X46398125Y-58192314D01*
X46402750Y-58185055D01*
X46420076Y-58160311D01*
X46420076Y-58160310D01*
X46425043Y-58153217D01*
X46427284Y-58144855D01*
X46429747Y-58139573D01*
X46431746Y-58134079D01*
X46436077Y-58126578D01*
X46442826Y-58088304D01*
X46444695Y-58079877D01*
X46452511Y-58050706D01*
X46452511Y-58050703D01*
X46454752Y-58042340D01*
X46451366Y-58003636D01*
X46450989Y-57995008D01*
X46450989Y-55949000D01*
X46469896Y-55890809D01*
X46519396Y-55854845D01*
X46549989Y-55850000D01*
X47534320Y-55850000D01*
X47547005Y-55845878D01*
X47550000Y-55841757D01*
X47550000Y-55834320D01*
X47850000Y-55834320D01*
X47854122Y-55847005D01*
X47858243Y-55850000D01*
X48991639Y-55850000D01*
X48997485Y-55849654D01*
X49013353Y-55847766D01*
X49027519Y-55843872D01*
X49114514Y-55805230D01*
X49129321Y-55795054D01*
X49195367Y-55728892D01*
X49205517Y-55714069D01*
X49244000Y-55627020D01*
X49247873Y-55612815D01*
X49249668Y-55597420D01*
X49250000Y-55591708D01*
X49250000Y-55165680D01*
X49245878Y-55152995D01*
X49241757Y-55150000D01*
X47865680Y-55150000D01*
X47852995Y-55154122D01*
X47850000Y-55158243D01*
X47850000Y-55834320D01*
X47550000Y-55834320D01*
X47550000Y-54834320D01*
X47850000Y-54834320D01*
X47854122Y-54847005D01*
X47858243Y-54850000D01*
X49234320Y-54850000D01*
X49247005Y-54845878D01*
X49250000Y-54841757D01*
X49250000Y-54408361D01*
X49249654Y-54402515D01*
X49247766Y-54386647D01*
X49243872Y-54372481D01*
X49205230Y-54285486D01*
X49195054Y-54270679D01*
X49128892Y-54204633D01*
X49114069Y-54194483D01*
X49027020Y-54156000D01*
X49012815Y-54152127D01*
X48997420Y-54150332D01*
X48991708Y-54150000D01*
X47865680Y-54150000D01*
X47852995Y-54154122D01*
X47850000Y-54158243D01*
X47850000Y-54834320D01*
X47550000Y-54834320D01*
X47550000Y-54165680D01*
X47545878Y-54152995D01*
X47541757Y-54150000D01*
X46549989Y-54150000D01*
X46491798Y-54131093D01*
X46455834Y-54081593D01*
X46450989Y-54051000D01*
X46450989Y-54050345D01*
X46469896Y-53992154D01*
X46479985Y-53980341D01*
X46680830Y-53779496D01*
X46735347Y-53751719D01*
X46750834Y-53750500D01*
X48969748Y-53750500D01*
X48995995Y-53745279D01*
X49018666Y-53740770D01*
X49018668Y-53740769D01*
X49028231Y-53738867D01*
X49094552Y-53694552D01*
X49138867Y-53628231D01*
X49144483Y-53600000D01*
X49149552Y-53574512D01*
X49150500Y-53569748D01*
X49150500Y-52430252D01*
X49138867Y-52371769D01*
X49094552Y-52305448D01*
X49028231Y-52261133D01*
X49018668Y-52259231D01*
X49018666Y-52259230D01*
X48995995Y-52254721D01*
X48969748Y-52249500D01*
X46430252Y-52249500D01*
X46404005Y-52254721D01*
X46381334Y-52259230D01*
X46381332Y-52259231D01*
X46371769Y-52261133D01*
X46305448Y-52305448D01*
X46261133Y-52371769D01*
X46249500Y-52430252D01*
X46249500Y-53249167D01*
X46230593Y-53307358D01*
X46220503Y-53319171D01*
X45908435Y-53631238D01*
X45902069Y-53637072D01*
X45872295Y-53662056D01*
X45858216Y-53686442D01*
X45852862Y-53695716D01*
X45848221Y-53703000D01*
X45825935Y-53734827D01*
X45823693Y-53743195D01*
X45821227Y-53748482D01*
X45819231Y-53753967D01*
X45814901Y-53761466D01*
X45813398Y-53769992D01*
X45813397Y-53769994D01*
X45808155Y-53799727D01*
X45806285Y-53808161D01*
X45796225Y-53845704D01*
X45796980Y-53854333D01*
X45799612Y-53884416D01*
X45799989Y-53893045D01*
X45799989Y-55197364D01*
X45781082Y-55255555D01*
X45731582Y-55291519D01*
X45670396Y-55291519D01*
X45645987Y-55279679D01*
X45626341Y-55266552D01*
X45618231Y-55261133D01*
X45608668Y-55259231D01*
X45608666Y-55259230D01*
X45585995Y-55254721D01*
X45559748Y-55249500D01*
X44424500Y-55249500D01*
X44366309Y-55230593D01*
X44330345Y-55181093D01*
X44325500Y-55150500D01*
X44325500Y-53275834D01*
X44344407Y-53217643D01*
X44354496Y-53205830D01*
X46080496Y-51479831D01*
X46135013Y-51452054D01*
X46195445Y-51461625D01*
X46238710Y-51504890D01*
X46249500Y-51549835D01*
X46249500Y-51569748D01*
X46261133Y-51628231D01*
X46305448Y-51694552D01*
X46371769Y-51738867D01*
X46381332Y-51740769D01*
X46381334Y-51740770D01*
X46404005Y-51745279D01*
X46430252Y-51750500D01*
X48969748Y-51750500D01*
X48995995Y-51745279D01*
X49018666Y-51740770D01*
X49018668Y-51740769D01*
X49028231Y-51738867D01*
X49094552Y-51694552D01*
X49138867Y-51628231D01*
X49150500Y-51569748D01*
X49150500Y-50430252D01*
X49138867Y-50371769D01*
X49094552Y-50305448D01*
X49028231Y-50261133D01*
X49018668Y-50259231D01*
X49018666Y-50259230D01*
X48995995Y-50254721D01*
X48969748Y-50249500D01*
X46449835Y-50249500D01*
X46391644Y-50230593D01*
X46355680Y-50181093D01*
X46355680Y-50119907D01*
X46379831Y-50080496D01*
X46680831Y-49779496D01*
X46735348Y-49751719D01*
X46750835Y-49750500D01*
X48969748Y-49750500D01*
X48995995Y-49745279D01*
X49018666Y-49740770D01*
X49018668Y-49740769D01*
X49028231Y-49738867D01*
X49094552Y-49694552D01*
X49138867Y-49628231D01*
X49140909Y-49617969D01*
X49149552Y-49574512D01*
X49150500Y-49569748D01*
X49150500Y-48430252D01*
X49138867Y-48371769D01*
X49094552Y-48305448D01*
X49028231Y-48261133D01*
X49018668Y-48259231D01*
X49018666Y-48259230D01*
X48995995Y-48254721D01*
X48969748Y-48249500D01*
X46430252Y-48249500D01*
X46404005Y-48254721D01*
X46381334Y-48259230D01*
X46381332Y-48259231D01*
X46371769Y-48261133D01*
X46305448Y-48305448D01*
X46261133Y-48371769D01*
X46249500Y-48430252D01*
X46249500Y-49249165D01*
X46230593Y-49307356D01*
X46220504Y-49319169D01*
X42122438Y-53417236D01*
X42067921Y-53445013D01*
X42007489Y-53435442D01*
X41964224Y-53392177D01*
X41960970Y-53385118D01*
X41933654Y-53319171D01*
X41924536Y-53297159D01*
X41828282Y-53171718D01*
X41702841Y-53075464D01*
X41556762Y-53014956D01*
X41400000Y-52994318D01*
X41243238Y-53014956D01*
X41097159Y-53075464D01*
X40971718Y-53171718D01*
X40875464Y-53297159D01*
X40814956Y-53443238D01*
X40794318Y-53600000D01*
X40804856Y-53680042D01*
X40793706Y-53740201D01*
X40776707Y-53762967D01*
X40772943Y-53766731D01*
X40766576Y-53772565D01*
X40736806Y-53797545D01*
X40717373Y-53831205D01*
X40712732Y-53838489D01*
X40690446Y-53870316D01*
X40688204Y-53878684D01*
X40685738Y-53883971D01*
X40683742Y-53889456D01*
X40679412Y-53896955D01*
X40677909Y-53905481D01*
X40677908Y-53905483D01*
X40672666Y-53935216D01*
X40670796Y-53943650D01*
X40660736Y-53981193D01*
X40661491Y-53989822D01*
X40664123Y-54019905D01*
X40664500Y-54028534D01*
X40664500Y-55150500D01*
X40645593Y-55208691D01*
X40596093Y-55244655D01*
X40565500Y-55249500D01*
X40420252Y-55249500D01*
X40394005Y-55254721D01*
X40371334Y-55259230D01*
X40371332Y-55259231D01*
X40361769Y-55261133D01*
X40295448Y-55305448D01*
X40251133Y-55371769D01*
X40249231Y-55381332D01*
X40249230Y-55381334D01*
X40244721Y-55404005D01*
X40239500Y-55430252D01*
X40239500Y-57969748D01*
X40251133Y-58028231D01*
X40295448Y-58094552D01*
X40361769Y-58138867D01*
X40371332Y-58140769D01*
X40371334Y-58140770D01*
X40394005Y-58145279D01*
X40420252Y-58150500D01*
X41150165Y-58150500D01*
X41208356Y-58169407D01*
X41244320Y-58218907D01*
X41244320Y-58280093D01*
X41220169Y-58319504D01*
X40468681Y-59070993D01*
X40414164Y-59098770D01*
X40398677Y-59099989D01*
X40344023Y-59099989D01*
X40335394Y-59099612D01*
X40305311Y-59096980D01*
X40296682Y-59096225D01*
X40288315Y-59098467D01*
X40259140Y-59106285D01*
X40250705Y-59108155D01*
X40220972Y-59113397D01*
X40220970Y-59113398D01*
X40212444Y-59114901D01*
X40204945Y-59119231D01*
X40199460Y-59121227D01*
X40194173Y-59123693D01*
X40185805Y-59125935D01*
X40156433Y-59146502D01*
X40153978Y-59148221D01*
X40146697Y-59152860D01*
X40113034Y-59172295D01*
X40107467Y-59178930D01*
X40088058Y-59202060D01*
X40082224Y-59208428D01*
X40070004Y-59220648D01*
X40015487Y-59248425D01*
X39955055Y-59238854D01*
X39929996Y-59220648D01*
X39917780Y-59208432D01*
X39911945Y-59202064D01*
X39911463Y-59201490D01*
X39886966Y-59172295D01*
X39853303Y-59152860D01*
X39846022Y-59148221D01*
X39843567Y-59146502D01*
X39814195Y-59125935D01*
X39805827Y-59123693D01*
X39800540Y-59121227D01*
X39795055Y-59119231D01*
X39787556Y-59114901D01*
X39779030Y-59113398D01*
X39779028Y-59113397D01*
X39749295Y-59108155D01*
X39740860Y-59106285D01*
X39711685Y-59098467D01*
X39703318Y-59096225D01*
X39694689Y-59096980D01*
X39664606Y-59099612D01*
X39655977Y-59099989D01*
X39575834Y-59099989D01*
X39517643Y-59081082D01*
X39505830Y-59070993D01*
X38754341Y-58319504D01*
X38726564Y-58264987D01*
X38736135Y-58204555D01*
X38779400Y-58161290D01*
X38824345Y-58150500D01*
X39559748Y-58150500D01*
X39585995Y-58145279D01*
X39608666Y-58140770D01*
X39608668Y-58140769D01*
X39618231Y-58138867D01*
X39684552Y-58094552D01*
X39728867Y-58028231D01*
X39740500Y-57969748D01*
X39740500Y-55430252D01*
X39735279Y-55404005D01*
X39730770Y-55381334D01*
X39730769Y-55381332D01*
X39728867Y-55371769D01*
X39684552Y-55305448D01*
X39618231Y-55261133D01*
X39608668Y-55259231D01*
X39608666Y-55259230D01*
X39585995Y-55254721D01*
X39559748Y-55249500D01*
X39414500Y-55249500D01*
X39356309Y-55230593D01*
X39320345Y-55181093D01*
X39315500Y-55150500D01*
X39315500Y-54144844D01*
X39334407Y-54086653D01*
X39354233Y-54066302D01*
X39398629Y-54032236D01*
X39403782Y-54028282D01*
X39500036Y-53902841D01*
X39560544Y-53756762D01*
X39581182Y-53600000D01*
X39560544Y-53443238D01*
X39500036Y-53297159D01*
X39403782Y-53171718D01*
X39278341Y-53075464D01*
X39132262Y-53014956D01*
X38975500Y-52994318D01*
X38818738Y-53014956D01*
X38672659Y-53075464D01*
X38660245Y-53084990D01*
X38602572Y-53105414D01*
X38543905Y-53088038D01*
X38506657Y-53039497D01*
X38500978Y-53006448D01*
X38500978Y-47000000D01*
X44494318Y-47000000D01*
X44514956Y-47156762D01*
X44575464Y-47302841D01*
X44671718Y-47428282D01*
X44797159Y-47524536D01*
X44943238Y-47585044D01*
X45100000Y-47605682D01*
X45256762Y-47585044D01*
X45402841Y-47524536D01*
X45528282Y-47428282D01*
X45577429Y-47364233D01*
X45627852Y-47329577D01*
X45655970Y-47325500D01*
X46150500Y-47325500D01*
X46208691Y-47344407D01*
X46244655Y-47393907D01*
X46249500Y-47424500D01*
X46249500Y-47569748D01*
X46261133Y-47628231D01*
X46305448Y-47694552D01*
X46371769Y-47738867D01*
X46381332Y-47740769D01*
X46381334Y-47740770D01*
X46404005Y-47745279D01*
X46430252Y-47750500D01*
X48969748Y-47750500D01*
X48995995Y-47745279D01*
X49018666Y-47740770D01*
X49018668Y-47740769D01*
X49028231Y-47738867D01*
X49094552Y-47694552D01*
X49138867Y-47628231D01*
X49150500Y-47569748D01*
X49150500Y-46430252D01*
X49138867Y-46371769D01*
X49094552Y-46305448D01*
X49028231Y-46261133D01*
X49018668Y-46259231D01*
X49018666Y-46259230D01*
X48995995Y-46254721D01*
X48969748Y-46249500D01*
X46430252Y-46249500D01*
X46404005Y-46254721D01*
X46381334Y-46259230D01*
X46381332Y-46259231D01*
X46371769Y-46261133D01*
X46305448Y-46305448D01*
X46261133Y-46371769D01*
X46249500Y-46430252D01*
X46249500Y-46575500D01*
X46230593Y-46633691D01*
X46181093Y-46669655D01*
X46150500Y-46674500D01*
X45655970Y-46674500D01*
X45597779Y-46655593D01*
X45577428Y-46635767D01*
X45568741Y-46624445D01*
X45528282Y-46571718D01*
X45402841Y-46475464D01*
X45256762Y-46414956D01*
X45100000Y-46394318D01*
X44943238Y-46414956D01*
X44797159Y-46475464D01*
X44671718Y-46571718D01*
X44575464Y-46697159D01*
X44514956Y-46843238D01*
X44494318Y-47000000D01*
X38500978Y-47000000D01*
X38500978Y-46194004D01*
X38501355Y-46185376D01*
X38501646Y-46182054D01*
X38504741Y-46146671D01*
X38502500Y-46138308D01*
X38502500Y-46138305D01*
X38494684Y-46109134D01*
X38492815Y-46100706D01*
X38487570Y-46070963D01*
X38486066Y-46062433D01*
X38481735Y-46054932D01*
X38479736Y-46049438D01*
X38477273Y-46044156D01*
X38475032Y-46035794D01*
X38452737Y-46003953D01*
X38450218Y-46000000D01*
X42094318Y-46000000D01*
X42114956Y-46156762D01*
X42175464Y-46302841D01*
X42271718Y-46428282D01*
X42397159Y-46524536D01*
X42543238Y-46585044D01*
X42700000Y-46605682D01*
X42856762Y-46585044D01*
X43002841Y-46524536D01*
X43128282Y-46428282D01*
X43224536Y-46302841D01*
X43285044Y-46156762D01*
X43305682Y-46000000D01*
X43295144Y-45919958D01*
X43306294Y-45859799D01*
X43323293Y-45837033D01*
X44160326Y-45000000D01*
X45194318Y-45000000D01*
X45214956Y-45156762D01*
X45275464Y-45302841D01*
X45371718Y-45428282D01*
X45497159Y-45524536D01*
X45643238Y-45585044D01*
X45800000Y-45605682D01*
X45956762Y-45585044D01*
X46102841Y-45524536D01*
X46107013Y-45521334D01*
X46166356Y-45508722D01*
X46222251Y-45533609D01*
X46253104Y-45587866D01*
X46261133Y-45628231D01*
X46305448Y-45694552D01*
X46371769Y-45738867D01*
X46381332Y-45740769D01*
X46381334Y-45740770D01*
X46404005Y-45745279D01*
X46430252Y-45750500D01*
X48969748Y-45750500D01*
X48995995Y-45745279D01*
X49018666Y-45740770D01*
X49018668Y-45740769D01*
X49028231Y-45738867D01*
X49094552Y-45694552D01*
X49138867Y-45628231D01*
X49150500Y-45569748D01*
X49150500Y-44430252D01*
X49138867Y-44371769D01*
X49094552Y-44305448D01*
X49028231Y-44261133D01*
X49018668Y-44259231D01*
X49018666Y-44259230D01*
X48995995Y-44254721D01*
X48969748Y-44249500D01*
X46430252Y-44249500D01*
X46404005Y-44254721D01*
X46381334Y-44259230D01*
X46381332Y-44259231D01*
X46371769Y-44261133D01*
X46305448Y-44305448D01*
X46261133Y-44371769D01*
X46259231Y-44381332D01*
X46259230Y-44381334D01*
X46253104Y-44412134D01*
X46223208Y-44465518D01*
X46167643Y-44491135D01*
X46107007Y-44478661D01*
X46102841Y-44475464D01*
X45956762Y-44414956D01*
X45800000Y-44394318D01*
X45643238Y-44414956D01*
X45497159Y-44475464D01*
X45371718Y-44571718D01*
X45275464Y-44697159D01*
X45214956Y-44843238D01*
X45194318Y-45000000D01*
X44160326Y-45000000D01*
X45805830Y-43354496D01*
X45860347Y-43326719D01*
X45875834Y-43325500D01*
X46150500Y-43325500D01*
X46208691Y-43344407D01*
X46244655Y-43393907D01*
X46249500Y-43424500D01*
X46249500Y-43569748D01*
X46252543Y-43585044D01*
X46256745Y-43606169D01*
X46261133Y-43628231D01*
X46305448Y-43694552D01*
X46371769Y-43738867D01*
X46381332Y-43740769D01*
X46381334Y-43740770D01*
X46404005Y-43745279D01*
X46430252Y-43750500D01*
X48969748Y-43750500D01*
X48995995Y-43745279D01*
X49018666Y-43740770D01*
X49018668Y-43740769D01*
X49028231Y-43738867D01*
X49094552Y-43694552D01*
X49138867Y-43628231D01*
X49143256Y-43606169D01*
X49147457Y-43585044D01*
X49150500Y-43569748D01*
X49150500Y-42430252D01*
X49138867Y-42371769D01*
X49094552Y-42305448D01*
X49028231Y-42261133D01*
X49018668Y-42259231D01*
X49018666Y-42259230D01*
X48995995Y-42254721D01*
X48969748Y-42249500D01*
X46430252Y-42249500D01*
X46404005Y-42254721D01*
X46381334Y-42259230D01*
X46381332Y-42259231D01*
X46371769Y-42261133D01*
X46305448Y-42305448D01*
X46261133Y-42371769D01*
X46249500Y-42430252D01*
X46249500Y-42575500D01*
X46230593Y-42633691D01*
X46181093Y-42669655D01*
X46150500Y-42674500D01*
X45718534Y-42674500D01*
X45709905Y-42674123D01*
X45679822Y-42671491D01*
X45671193Y-42670736D01*
X45662826Y-42672978D01*
X45633651Y-42680796D01*
X45625216Y-42682666D01*
X45595483Y-42687908D01*
X45595481Y-42687909D01*
X45586955Y-42689412D01*
X45579456Y-42693742D01*
X45573971Y-42695738D01*
X45568684Y-42698204D01*
X45560316Y-42700446D01*
X45530944Y-42721013D01*
X45528489Y-42722732D01*
X45521208Y-42727371D01*
X45487545Y-42746806D01*
X45481978Y-42753441D01*
X45462569Y-42776571D01*
X45456735Y-42782939D01*
X45173839Y-43065835D01*
X45119322Y-43093612D01*
X45058890Y-43084041D01*
X45015625Y-43040776D01*
X45005831Y-42999981D01*
X45005682Y-43000001D01*
X45005495Y-42998580D01*
X44995144Y-42919958D01*
X45006294Y-42859799D01*
X45023293Y-42837033D01*
X46166953Y-41693374D01*
X46221470Y-41665597D01*
X46281902Y-41675168D01*
X46302491Y-41690126D01*
X46305448Y-41694552D01*
X46371769Y-41738867D01*
X46381332Y-41740769D01*
X46381334Y-41740770D01*
X46404005Y-41745279D01*
X46430252Y-41750500D01*
X48969748Y-41750500D01*
X48995995Y-41745279D01*
X49018666Y-41740770D01*
X49018668Y-41740769D01*
X49028231Y-41738867D01*
X49094552Y-41694552D01*
X49138867Y-41628231D01*
X49150500Y-41569748D01*
X49150500Y-40430252D01*
X49138867Y-40371769D01*
X49094552Y-40305448D01*
X49028231Y-40261133D01*
X49018668Y-40259231D01*
X49018666Y-40259230D01*
X48995995Y-40254721D01*
X48969748Y-40249500D01*
X46430252Y-40249500D01*
X46404005Y-40254721D01*
X46381334Y-40259230D01*
X46381332Y-40259231D01*
X46371769Y-40261133D01*
X46305448Y-40305448D01*
X46261133Y-40371769D01*
X46249500Y-40430252D01*
X46249500Y-40653879D01*
X46230593Y-40712070D01*
X46199998Y-40739616D01*
X46195047Y-40742474D01*
X46195044Y-40742477D01*
X46187545Y-40746806D01*
X46181978Y-40753441D01*
X46162569Y-40776571D01*
X46156735Y-40782939D01*
X44562967Y-42376707D01*
X44508450Y-42404484D01*
X44480045Y-42404856D01*
X44400000Y-42394318D01*
X44243238Y-42414956D01*
X44097159Y-42475464D01*
X43971718Y-42571718D01*
X43875464Y-42697159D01*
X43814956Y-42843238D01*
X43794318Y-43000000D01*
X43814956Y-43156762D01*
X43875464Y-43302841D01*
X43971718Y-43428282D01*
X44097159Y-43524536D01*
X44243238Y-43585044D01*
X44374431Y-43602316D01*
X44393566Y-43604835D01*
X44400000Y-43605682D01*
X44399936Y-43606169D01*
X44454022Y-43623742D01*
X44489986Y-43673242D01*
X44489986Y-43734428D01*
X44465835Y-43773839D01*
X42862967Y-45376707D01*
X42808450Y-45404484D01*
X42780045Y-45404856D01*
X42700000Y-45394318D01*
X42543238Y-45414956D01*
X42397159Y-45475464D01*
X42271718Y-45571718D01*
X42175464Y-45697159D01*
X42114956Y-45843238D01*
X42094318Y-46000000D01*
X38450218Y-46000000D01*
X38448114Y-45996697D01*
X38428672Y-45963023D01*
X38398914Y-45938053D01*
X38392546Y-45932219D01*
X36088558Y-43628231D01*
X33779496Y-41319170D01*
X33751719Y-41264653D01*
X33750500Y-41249166D01*
X33750500Y-40430252D01*
X33738867Y-40371769D01*
X33694552Y-40305448D01*
X33628231Y-40261133D01*
X33618668Y-40259231D01*
X33618666Y-40259230D01*
X33595995Y-40254721D01*
X33569748Y-40249500D01*
X31030252Y-40249500D01*
X31004005Y-40254721D01*
X30981334Y-40259230D01*
X30981332Y-40259231D01*
X30971769Y-40261133D01*
X30905448Y-40305448D01*
X30861133Y-40371769D01*
X30849500Y-40430252D01*
X30849500Y-41569748D01*
X30861133Y-41628231D01*
X30905448Y-41694552D01*
X30971769Y-41738867D01*
X30981332Y-41740769D01*
X30981334Y-41740770D01*
X31004005Y-41745279D01*
X31030252Y-41750500D01*
X33249166Y-41750500D01*
X33307357Y-41769407D01*
X33319170Y-41779496D01*
X33620170Y-42080496D01*
X33647947Y-42135013D01*
X33638376Y-42195445D01*
X33595111Y-42238710D01*
X33550166Y-42249500D01*
X31030252Y-42249500D01*
X31004005Y-42254721D01*
X30981334Y-42259230D01*
X30981332Y-42259231D01*
X30971769Y-42261133D01*
X30905448Y-42305448D01*
X30861133Y-42371769D01*
X30849500Y-42430252D01*
X30849500Y-43569748D01*
X30852543Y-43585044D01*
X30856745Y-43606169D01*
X30861133Y-43628231D01*
X30905448Y-43694552D01*
X30971769Y-43738867D01*
X30981332Y-43740769D01*
X30981334Y-43740770D01*
X31004005Y-43745279D01*
X31030252Y-43750500D01*
X33569748Y-43750500D01*
X33595995Y-43745279D01*
X33618666Y-43740770D01*
X33618668Y-43740769D01*
X33628231Y-43738867D01*
X33694552Y-43694552D01*
X33738867Y-43628231D01*
X33743256Y-43606169D01*
X33747457Y-43585044D01*
X33750500Y-43569748D01*
X33750500Y-42449834D01*
X33769407Y-42391643D01*
X33818907Y-42355679D01*
X33880093Y-42355679D01*
X33919504Y-42379830D01*
X35903333Y-44363660D01*
X37820982Y-46281309D01*
X37848759Y-46335826D01*
X37849978Y-46351313D01*
X37849978Y-47167450D01*
X37831071Y-47225641D01*
X37781571Y-47261605D01*
X37720385Y-47261605D01*
X37680974Y-47237454D01*
X35226462Y-44782943D01*
X35220627Y-44776575D01*
X35195648Y-44746806D01*
X35161985Y-44727371D01*
X35154704Y-44722732D01*
X35152249Y-44721013D01*
X35122877Y-44700446D01*
X35114509Y-44698204D01*
X35109222Y-44695738D01*
X35103737Y-44693742D01*
X35096238Y-44689412D01*
X35087712Y-44687909D01*
X35087710Y-44687908D01*
X35057977Y-44682666D01*
X35049542Y-44680796D01*
X35020367Y-44672978D01*
X35012000Y-44670736D01*
X35003371Y-44671491D01*
X34973288Y-44674123D01*
X34964659Y-44674500D01*
X33849500Y-44674500D01*
X33791309Y-44655593D01*
X33755345Y-44606093D01*
X33750500Y-44575500D01*
X33750500Y-44430252D01*
X33738867Y-44371769D01*
X33694552Y-44305448D01*
X33628231Y-44261133D01*
X33618668Y-44259231D01*
X33618666Y-44259230D01*
X33595995Y-44254721D01*
X33569748Y-44249500D01*
X31030252Y-44249500D01*
X31004005Y-44254721D01*
X30981334Y-44259230D01*
X30981332Y-44259231D01*
X30971769Y-44261133D01*
X30905448Y-44305448D01*
X30861133Y-44371769D01*
X30849500Y-44430252D01*
X30849500Y-45569748D01*
X30861133Y-45628231D01*
X30905448Y-45694552D01*
X30971769Y-45738867D01*
X30981332Y-45740769D01*
X30981334Y-45740770D01*
X31004005Y-45745279D01*
X31030252Y-45750500D01*
X33569748Y-45750500D01*
X33595995Y-45745279D01*
X33618666Y-45740770D01*
X33618668Y-45740769D01*
X33628231Y-45738867D01*
X33694552Y-45694552D01*
X33738867Y-45628231D01*
X33750500Y-45569748D01*
X33750500Y-45424500D01*
X33769407Y-45366309D01*
X33818907Y-45330345D01*
X33849500Y-45325500D01*
X34807359Y-45325500D01*
X34865550Y-45344407D01*
X34877363Y-45354496D01*
X37470015Y-47947149D01*
X37497792Y-48001666D01*
X37499011Y-48017153D01*
X37499011Y-48230717D01*
X37493222Y-48263548D01*
X37489412Y-48270148D01*
X37487908Y-48278680D01*
X37487907Y-48278682D01*
X37482666Y-48308409D01*
X37480796Y-48316843D01*
X37470736Y-48354386D01*
X37471491Y-48363015D01*
X37474123Y-48393098D01*
X37474500Y-48401727D01*
X37474500Y-55150500D01*
X37455593Y-55208691D01*
X37406093Y-55244655D01*
X37375500Y-55249500D01*
X36420252Y-55249500D01*
X36394005Y-55254721D01*
X36371334Y-55259230D01*
X36371332Y-55259231D01*
X36361769Y-55261133D01*
X36295448Y-55305448D01*
X36290029Y-55313558D01*
X36271326Y-55341549D01*
X36223276Y-55379428D01*
X36162138Y-55381830D01*
X36111265Y-55347837D01*
X36090011Y-55286547D01*
X36090011Y-55083033D01*
X36090388Y-55074404D01*
X36093019Y-55044333D01*
X36093774Y-55035704D01*
X36083716Y-54998168D01*
X36081848Y-54989742D01*
X36080227Y-54980549D01*
X36075099Y-54951466D01*
X36070766Y-54943961D01*
X36068773Y-54938484D01*
X36066306Y-54933193D01*
X36064064Y-54924827D01*
X36041775Y-54892995D01*
X36037139Y-54885717D01*
X36022035Y-54859555D01*
X36022034Y-54859553D01*
X36017705Y-54852056D01*
X35987946Y-54827085D01*
X35981578Y-54821251D01*
X33943269Y-52782943D01*
X33937434Y-52776575D01*
X33912455Y-52746806D01*
X33878792Y-52727371D01*
X33871511Y-52722732D01*
X33869056Y-52721013D01*
X33839684Y-52700446D01*
X33831315Y-52698203D01*
X33826039Y-52695743D01*
X33820551Y-52693745D01*
X33813045Y-52689412D01*
X33812188Y-52689261D01*
X33767425Y-52654288D01*
X33750500Y-52598928D01*
X33750500Y-52430252D01*
X33738867Y-52371769D01*
X33694552Y-52305448D01*
X33628231Y-52261133D01*
X33618668Y-52259231D01*
X33618666Y-52259230D01*
X33595995Y-52254721D01*
X33569748Y-52249500D01*
X31030252Y-52249500D01*
X31004005Y-52254721D01*
X30981334Y-52259230D01*
X30981332Y-52259231D01*
X30971769Y-52261133D01*
X30905448Y-52305448D01*
X30861133Y-52371769D01*
X30849500Y-52430252D01*
X30849500Y-53569748D01*
X30850448Y-53574512D01*
X30855518Y-53600000D01*
X30861133Y-53628231D01*
X30905448Y-53694552D01*
X30971769Y-53738867D01*
X30981332Y-53740769D01*
X30981334Y-53740770D01*
X31004005Y-53745279D01*
X31030252Y-53750500D01*
X33569748Y-53750500D01*
X33595995Y-53745279D01*
X33618666Y-53740770D01*
X33618668Y-53740769D01*
X33628231Y-53738867D01*
X33694552Y-53694552D01*
X33711255Y-53669555D01*
X33723533Y-53651180D01*
X33771584Y-53613301D01*
X33832722Y-53610899D01*
X33875852Y-53636178D01*
X35320169Y-55080496D01*
X35347946Y-55135013D01*
X35338375Y-55195445D01*
X35295110Y-55238710D01*
X35250165Y-55249500D01*
X34420252Y-55249500D01*
X34394005Y-55254721D01*
X34371334Y-55259230D01*
X34371332Y-55259231D01*
X34361769Y-55261133D01*
X34295448Y-55305448D01*
X34251133Y-55371769D01*
X34249231Y-55381332D01*
X34249230Y-55381334D01*
X34244721Y-55404005D01*
X34239500Y-55430252D01*
X34239500Y-57969748D01*
X34251133Y-58028231D01*
X34295448Y-58094552D01*
X34361769Y-58138867D01*
X34371332Y-58140769D01*
X34371334Y-58140770D01*
X34394005Y-58145279D01*
X34420252Y-58150500D01*
X35444899Y-58150500D01*
X35503090Y-58169407D01*
X35511269Y-58177034D01*
X35511317Y-58176977D01*
X35541082Y-58201953D01*
X35547450Y-58207787D01*
X36076696Y-58737033D01*
X36104473Y-58791550D01*
X36104845Y-58819955D01*
X36094307Y-58900000D01*
X36114945Y-59056762D01*
X36175453Y-59202841D01*
X36271707Y-59328282D01*
X36397148Y-59424536D01*
X36543227Y-59485044D01*
X36699989Y-59505682D01*
X36856751Y-59485044D01*
X36887614Y-59472260D01*
X36948611Y-59467459D01*
X37000780Y-59499428D01*
X37024195Y-59555956D01*
X37024500Y-59563724D01*
X37024500Y-59799165D01*
X37005593Y-59857356D01*
X36995504Y-59869169D01*
X36582941Y-60281732D01*
X36576574Y-60287566D01*
X36546806Y-60312545D01*
X36532974Y-60336503D01*
X36527373Y-60346205D01*
X36522732Y-60353489D01*
X36500446Y-60385316D01*
X36498204Y-60393684D01*
X36495738Y-60398971D01*
X36493742Y-60404456D01*
X36489412Y-60411955D01*
X36487909Y-60420481D01*
X36487908Y-60420483D01*
X36482666Y-60450216D01*
X36480796Y-60458650D01*
X36470736Y-60496193D01*
X36471491Y-60504822D01*
X36474123Y-60534905D01*
X36474500Y-60543534D01*
X36474500Y-61344030D01*
X36455593Y-61402221D01*
X36435768Y-61422571D01*
X36371718Y-61471718D01*
X36275464Y-61597159D01*
X36214956Y-61743238D01*
X36194318Y-61900000D01*
X36214956Y-62056762D01*
X36275464Y-62202841D01*
X36371718Y-62328282D01*
X36497159Y-62424536D01*
X36643238Y-62485044D01*
X36800000Y-62505682D01*
X36956762Y-62485044D01*
X37102841Y-62424536D01*
X37228282Y-62328282D01*
X37324536Y-62202841D01*
X37385044Y-62056762D01*
X37388869Y-62027706D01*
X37391059Y-62011077D01*
X37417401Y-61955852D01*
X37471172Y-61926658D01*
X37489212Y-61925000D01*
X37534320Y-61925000D01*
X37547005Y-61920878D01*
X37550000Y-61916757D01*
X37550000Y-61909319D01*
X37850000Y-61909319D01*
X37854122Y-61922004D01*
X37858243Y-61924999D01*
X37987799Y-61924999D01*
X37993757Y-61924640D01*
X38070094Y-61915403D01*
X38082319Y-61912298D01*
X38203872Y-61864173D01*
X38215525Y-61857607D01*
X38319342Y-61778804D01*
X38328804Y-61769342D01*
X38407607Y-61665525D01*
X38414173Y-61653872D01*
X38462297Y-61532321D01*
X38465403Y-61520093D01*
X38474641Y-61443755D01*
X38475000Y-61437801D01*
X38475000Y-61340680D01*
X38470878Y-61327995D01*
X38466757Y-61325000D01*
X37865680Y-61325000D01*
X37852995Y-61329122D01*
X37850000Y-61333243D01*
X37850000Y-61909319D01*
X37550000Y-61909319D01*
X37550000Y-61124000D01*
X37568907Y-61065809D01*
X37618407Y-61029845D01*
X37649000Y-61025000D01*
X38459319Y-61025000D01*
X38472004Y-61020878D01*
X38474999Y-61016757D01*
X38474999Y-60912201D01*
X38474640Y-60906243D01*
X38465403Y-60829911D01*
X38463745Y-60823381D01*
X38467746Y-60762327D01*
X38506870Y-60715285D01*
X38559699Y-60700011D01*
X38750500Y-60700011D01*
X38808691Y-60718918D01*
X38844655Y-60768418D01*
X38849500Y-60799011D01*
X38849500Y-61169748D01*
X38850448Y-61174512D01*
X38857772Y-61211332D01*
X38861133Y-61228231D01*
X38905448Y-61294552D01*
X38902832Y-61296300D01*
X38923281Y-61336434D01*
X38924500Y-61351921D01*
X38924500Y-61974165D01*
X38905593Y-62032356D01*
X38895504Y-62044169D01*
X38077092Y-62862582D01*
X38022575Y-62890359D01*
X38007088Y-62891578D01*
X37101441Y-62891578D01*
X37092812Y-62891201D01*
X37062729Y-62888569D01*
X37054100Y-62887814D01*
X37045733Y-62890056D01*
X37016558Y-62897874D01*
X37008123Y-62899744D01*
X36978390Y-62904986D01*
X36978388Y-62904987D01*
X36969862Y-62906490D01*
X36962363Y-62910820D01*
X36956878Y-62912816D01*
X36951591Y-62915282D01*
X36943223Y-62917524D01*
X36913851Y-62938091D01*
X36911396Y-62939810D01*
X36904115Y-62944449D01*
X36870452Y-62963884D01*
X36864885Y-62970519D01*
X36845476Y-62993649D01*
X36839642Y-63000017D01*
X35994155Y-63845504D01*
X35939638Y-63873281D01*
X35924151Y-63874500D01*
X34974799Y-63874500D01*
X34916608Y-63855593D01*
X34889573Y-63821297D01*
X34888867Y-63821769D01*
X34849971Y-63763558D01*
X34844552Y-63755448D01*
X34778231Y-63711133D01*
X34768668Y-63709231D01*
X34768666Y-63709230D01*
X34745995Y-63704721D01*
X34719748Y-63699500D01*
X34674500Y-63699500D01*
X34616309Y-63680593D01*
X34580345Y-63631093D01*
X34575500Y-63600500D01*
X34575500Y-62771146D01*
X34594407Y-62712955D01*
X34641698Y-62677738D01*
X34655643Y-62672841D01*
X34713184Y-62652634D01*
X34721289Y-62646648D01*
X34816193Y-62576550D01*
X34822150Y-62572150D01*
X34902634Y-62463184D01*
X34947519Y-62335369D01*
X34950500Y-62303834D01*
X34950500Y-60896166D01*
X34947519Y-60864631D01*
X34902634Y-60736816D01*
X34878230Y-60703775D01*
X34826550Y-60633807D01*
X34822150Y-60627850D01*
X34816193Y-60623450D01*
X34719136Y-60551762D01*
X34719135Y-60551761D01*
X34713184Y-60547366D01*
X34648005Y-60524477D01*
X34591060Y-60504479D01*
X34591056Y-60504478D01*
X34585369Y-60502481D01*
X34581028Y-60502071D01*
X34528808Y-60471465D01*
X34504287Y-60415409D01*
X34504276Y-60413450D01*
X34504264Y-60413451D01*
X34503509Y-60404822D01*
X34504264Y-60396193D01*
X34494204Y-60358650D01*
X34492334Y-60350216D01*
X34487092Y-60320483D01*
X34487091Y-60320481D01*
X34485588Y-60311955D01*
X34481258Y-60304456D01*
X34479262Y-60298971D01*
X34476796Y-60293684D01*
X34474554Y-60285316D01*
X34452268Y-60253489D01*
X34447627Y-60246205D01*
X34443479Y-60239020D01*
X34428194Y-60212545D01*
X34398429Y-60187569D01*
X34392061Y-60181735D01*
X33879496Y-59669170D01*
X33851719Y-59614653D01*
X33850500Y-59599166D01*
X33850500Y-58871166D01*
X33850258Y-58868596D01*
X33848087Y-58845639D01*
X33848087Y-58845638D01*
X33847519Y-58839631D01*
X33802634Y-58711816D01*
X33769052Y-58666349D01*
X33726550Y-58608807D01*
X33722150Y-58602850D01*
X33634099Y-58537814D01*
X33619136Y-58526762D01*
X33619135Y-58526761D01*
X33613184Y-58522366D01*
X33541698Y-58497262D01*
X33493059Y-58460142D01*
X33475500Y-58403854D01*
X33475500Y-55849032D01*
X33494407Y-55790841D01*
X33543907Y-55754877D01*
X33564798Y-55750509D01*
X33564889Y-55750500D01*
X33569748Y-55750500D01*
X33595995Y-55745279D01*
X33618666Y-55740770D01*
X33618668Y-55740769D01*
X33628231Y-55738867D01*
X33694552Y-55694552D01*
X33738867Y-55628231D01*
X33741934Y-55612815D01*
X33749552Y-55574512D01*
X33750500Y-55569748D01*
X33750500Y-54430252D01*
X33744983Y-54402515D01*
X33740770Y-54381334D01*
X33740769Y-54381332D01*
X33738867Y-54371769D01*
X33694552Y-54305448D01*
X33628231Y-54261133D01*
X33618668Y-54259231D01*
X33618666Y-54259230D01*
X33595995Y-54254721D01*
X33569748Y-54249500D01*
X31030252Y-54249500D01*
X31004005Y-54254721D01*
X30981334Y-54259230D01*
X30981332Y-54259231D01*
X30971769Y-54261133D01*
X30905448Y-54305448D01*
X30861133Y-54371769D01*
X30859231Y-54381332D01*
X30859230Y-54381334D01*
X30855017Y-54402515D01*
X30849500Y-54430252D01*
X30849500Y-55569748D01*
X30850448Y-55574512D01*
X30858067Y-55612815D01*
X30861133Y-55628231D01*
X30905448Y-55694552D01*
X30971769Y-55738867D01*
X30981332Y-55740769D01*
X30981334Y-55740770D01*
X31004005Y-55745279D01*
X31030252Y-55750500D01*
X32725500Y-55750500D01*
X32783691Y-55769407D01*
X32819655Y-55818907D01*
X32824500Y-55849500D01*
X32824500Y-58403854D01*
X32805593Y-58462045D01*
X32758302Y-58497262D01*
X32686816Y-58522366D01*
X32680865Y-58526761D01*
X32680864Y-58526762D01*
X32665901Y-58537814D01*
X32577850Y-58602850D01*
X32573450Y-58608807D01*
X32530949Y-58666349D01*
X32497366Y-58711816D01*
X32452481Y-58839631D01*
X32451913Y-58845638D01*
X32451913Y-58845639D01*
X32449743Y-58868596D01*
X32449500Y-58871166D01*
X32449500Y-59928834D01*
X32449718Y-59931135D01*
X32449718Y-59931145D01*
X32450834Y-59942944D01*
X32452481Y-59960369D01*
X32497366Y-60088184D01*
X32501761Y-60094135D01*
X32501762Y-60094136D01*
X32551787Y-60161864D01*
X32577850Y-60197150D01*
X32583807Y-60201550D01*
X32678712Y-60271648D01*
X32686816Y-60277634D01*
X32814631Y-60322519D01*
X32820638Y-60323087D01*
X32820639Y-60323087D01*
X32843855Y-60325282D01*
X32843865Y-60325282D01*
X32846166Y-60325500D01*
X33453834Y-60325500D01*
X33456135Y-60325282D01*
X33456145Y-60325282D01*
X33479361Y-60323087D01*
X33479362Y-60323087D01*
X33485369Y-60322519D01*
X33497811Y-60318150D01*
X33520466Y-60310194D01*
X33581634Y-60308753D01*
X33623272Y-60333598D01*
X33673763Y-60384089D01*
X33701540Y-60438606D01*
X33691969Y-60499038D01*
X33650085Y-60541585D01*
X33643796Y-60544915D01*
X33636816Y-60547366D01*
X33630865Y-60551761D01*
X33630864Y-60551762D01*
X33533807Y-60623450D01*
X33527850Y-60627850D01*
X33523450Y-60633807D01*
X33471771Y-60703775D01*
X33447366Y-60736816D01*
X33402481Y-60864631D01*
X33399500Y-60896166D01*
X33399500Y-62303834D01*
X33402481Y-62335369D01*
X33447366Y-62463184D01*
X33527850Y-62572150D01*
X33533807Y-62576550D01*
X33628712Y-62646648D01*
X33636816Y-62652634D01*
X33764631Y-62697519D01*
X33770638Y-62698087D01*
X33770639Y-62698087D01*
X33793855Y-62700282D01*
X33793865Y-62700282D01*
X33796166Y-62700500D01*
X33825500Y-62700500D01*
X33883691Y-62719407D01*
X33919655Y-62768907D01*
X33924500Y-62799500D01*
X33924500Y-63600500D01*
X33905593Y-63658691D01*
X33856093Y-63694655D01*
X33825500Y-63699500D01*
X33780252Y-63699500D01*
X33754005Y-63704721D01*
X33731334Y-63709230D01*
X33731332Y-63709231D01*
X33721769Y-63711133D01*
X33655448Y-63755448D01*
X33611133Y-63821769D01*
X33599500Y-63880252D01*
X33599500Y-65219748D01*
X33611133Y-65278231D01*
X33655448Y-65344552D01*
X33721769Y-65388867D01*
X33731332Y-65390769D01*
X33731334Y-65390770D01*
X33754005Y-65395279D01*
X33780252Y-65400500D01*
X34719748Y-65400500D01*
X34745995Y-65395279D01*
X34768666Y-65390770D01*
X34768668Y-65390769D01*
X34778231Y-65388867D01*
X34844552Y-65344552D01*
X34888867Y-65278231D01*
X34900500Y-65219748D01*
X34900500Y-64624500D01*
X34919407Y-64566309D01*
X34968907Y-64530345D01*
X34999500Y-64525500D01*
X36073189Y-64525500D01*
X36131380Y-64544407D01*
X36167344Y-64593907D01*
X36171342Y-64611578D01*
X36190456Y-64756762D01*
X36250964Y-64902841D01*
X36347218Y-65028282D01*
X36472659Y-65124536D01*
X36618738Y-65185044D01*
X36775500Y-65205682D01*
X36932262Y-65185044D01*
X37078341Y-65124536D01*
X37203782Y-65028282D01*
X37252929Y-64964233D01*
X37303352Y-64929577D01*
X37331470Y-64925500D01*
X38575762Y-64925500D01*
X38584391Y-64925877D01*
X38623103Y-64929264D01*
X38660646Y-64919204D01*
X38669080Y-64917334D01*
X38698813Y-64912092D01*
X38698815Y-64912091D01*
X38707341Y-64910588D01*
X38714840Y-64906258D01*
X38720325Y-64904262D01*
X38725612Y-64901796D01*
X38733980Y-64899554D01*
X38765807Y-64877268D01*
X38773091Y-64872627D01*
X38806751Y-64853194D01*
X38831727Y-64823429D01*
X38837561Y-64817061D01*
X41740346Y-61914277D01*
X41794863Y-61886500D01*
X41845102Y-61891581D01*
X41910720Y-61916180D01*
X41922696Y-61919028D01*
X41975009Y-61924711D01*
X41980343Y-61925000D01*
X42134320Y-61925000D01*
X42147005Y-61920878D01*
X42150000Y-61916757D01*
X42150000Y-61909320D01*
X42450000Y-61909320D01*
X42454122Y-61922005D01*
X42458243Y-61925000D01*
X42619657Y-61925000D01*
X42624991Y-61924711D01*
X42677298Y-61919029D01*
X42689287Y-61916178D01*
X42810982Y-61870557D01*
X42823219Y-61863857D01*
X42926545Y-61786419D01*
X42936419Y-61776545D01*
X43013857Y-61673219D01*
X43020557Y-61660982D01*
X43066178Y-61539287D01*
X43069029Y-61527298D01*
X43074711Y-61474991D01*
X43075000Y-61469657D01*
X43075000Y-61390680D01*
X43070878Y-61377995D01*
X43066757Y-61375000D01*
X42465680Y-61375000D01*
X42452995Y-61379122D01*
X42450000Y-61383243D01*
X42450000Y-61909320D01*
X42150000Y-61909320D01*
X42150000Y-61059320D01*
X42450000Y-61059320D01*
X42454122Y-61072005D01*
X42458243Y-61075000D01*
X43059320Y-61075000D01*
X43072005Y-61070878D01*
X43075000Y-61066757D01*
X43075000Y-60980343D01*
X43074711Y-60975009D01*
X43069029Y-60922702D01*
X43066178Y-60910713D01*
X43020557Y-60789018D01*
X43013857Y-60776781D01*
X42936419Y-60673455D01*
X42926545Y-60663581D01*
X42823219Y-60586143D01*
X42810982Y-60579443D01*
X42689287Y-60533822D01*
X42677298Y-60530971D01*
X42624991Y-60525289D01*
X42619657Y-60525000D01*
X42465680Y-60525000D01*
X42452995Y-60529122D01*
X42450000Y-60533243D01*
X42450000Y-61059320D01*
X42150000Y-61059320D01*
X42150000Y-60540680D01*
X42145878Y-60527995D01*
X42141757Y-60525000D01*
X42024500Y-60525000D01*
X41966309Y-60506093D01*
X41930345Y-60456593D01*
X41925500Y-60426000D01*
X41925500Y-60375209D01*
X41925877Y-60366581D01*
X41927174Y-60351757D01*
X41929263Y-60327876D01*
X41927022Y-60319513D01*
X41927022Y-60319510D01*
X41921827Y-60300121D01*
X41925030Y-60239020D01*
X41963537Y-60191470D01*
X42017454Y-60175500D01*
X42520855Y-60175499D01*
X42606518Y-60175499D01*
X42610361Y-60174890D01*
X42610366Y-60174890D01*
X42647217Y-60169053D01*
X42700304Y-60160646D01*
X42768883Y-60125703D01*
X42806403Y-60106586D01*
X42806405Y-60106585D01*
X42813342Y-60103050D01*
X42903050Y-60013342D01*
X42906585Y-60006404D01*
X42906588Y-60006400D01*
X42933005Y-59954554D01*
X42976270Y-59911290D01*
X43021214Y-59900500D01*
X44386501Y-59900500D01*
X44444692Y-59919407D01*
X44462102Y-59935643D01*
X44466317Y-59942944D01*
X44472950Y-59948510D01*
X44472952Y-59948512D01*
X44496084Y-59967922D01*
X44502454Y-59973759D01*
X44534470Y-60005776D01*
X44534478Y-60005783D01*
X44534482Y-60005787D01*
X44534485Y-60005789D01*
X45670024Y-61141328D01*
X45697801Y-61195845D01*
X45699020Y-61211332D01*
X45699020Y-61835116D01*
X45680113Y-61893307D01*
X45630613Y-61929271D01*
X45584535Y-61932897D01*
X45531519Y-61924500D01*
X45225834Y-61924500D01*
X45167643Y-61905593D01*
X45155830Y-61895504D01*
X44823293Y-61562967D01*
X44795516Y-61508450D01*
X44795144Y-61480045D01*
X44805682Y-61400000D01*
X44785044Y-61243238D01*
X44724536Y-61097159D01*
X44628282Y-60971718D01*
X44502841Y-60875464D01*
X44356762Y-60814956D01*
X44200000Y-60794318D01*
X44043238Y-60814956D01*
X43897159Y-60875464D01*
X43771718Y-60971718D01*
X43675464Y-61097159D01*
X43614956Y-61243238D01*
X43594318Y-61400000D01*
X43614956Y-61556762D01*
X43675464Y-61702841D01*
X43771718Y-61828282D01*
X43897159Y-61924536D01*
X44043238Y-61985044D01*
X44167209Y-62001365D01*
X44222434Y-62027706D01*
X44251629Y-62081477D01*
X44242496Y-62144464D01*
X44217891Y-62192753D01*
X44217890Y-62192757D01*
X44214354Y-62199696D01*
X44213135Y-62207390D01*
X44213135Y-62207391D01*
X44202326Y-62275638D01*
X44199500Y-62293481D01*
X44199501Y-62756518D01*
X44200110Y-62760361D01*
X44200110Y-62760366D01*
X44204789Y-62789910D01*
X44214354Y-62850304D01*
X44233851Y-62888569D01*
X44262325Y-62944451D01*
X44271950Y-62963342D01*
X44361658Y-63053050D01*
X44368596Y-63056585D01*
X44368600Y-63056588D01*
X44378812Y-63061791D01*
X44422076Y-63105055D01*
X44431647Y-63165488D01*
X44403869Y-63220004D01*
X44378812Y-63238209D01*
X44368600Y-63243412D01*
X44368596Y-63243415D01*
X44361658Y-63246950D01*
X44276127Y-63332481D01*
X44221610Y-63360258D01*
X44161178Y-63350687D01*
X44145856Y-63341019D01*
X44032990Y-63254415D01*
X44027841Y-63250464D01*
X43881762Y-63189956D01*
X43725000Y-63169318D01*
X43568238Y-63189956D01*
X43422159Y-63250464D01*
X43296718Y-63346718D01*
X43200464Y-63472159D01*
X43139956Y-63618238D01*
X43119318Y-63775000D01*
X43139956Y-63931762D01*
X43200464Y-64077841D01*
X43204415Y-64082990D01*
X43286868Y-64190445D01*
X43307292Y-64248121D01*
X43289914Y-64306786D01*
X43241373Y-64344034D01*
X43204149Y-64349530D01*
X43203834Y-64349500D01*
X41796166Y-64349500D01*
X41793865Y-64349718D01*
X41793855Y-64349718D01*
X41770639Y-64351913D01*
X41770638Y-64351913D01*
X41764631Y-64352481D01*
X41636816Y-64397366D01*
X41630865Y-64401761D01*
X41630864Y-64401762D01*
X41533807Y-64473450D01*
X41527850Y-64477850D01*
X41447366Y-64586816D01*
X41402481Y-64714631D01*
X41401913Y-64720638D01*
X41401913Y-64720639D01*
X41400205Y-64738710D01*
X41399500Y-64746166D01*
X41399500Y-65503834D01*
X41399718Y-65506135D01*
X41399718Y-65506145D01*
X41400972Y-65519407D01*
X41402481Y-65535369D01*
X41404481Y-65541064D01*
X41422418Y-65592143D01*
X41423859Y-65653312D01*
X41399014Y-65694949D01*
X36920275Y-70173688D01*
X36903975Y-70186852D01*
X36893790Y-70193428D01*
X36872281Y-70220711D01*
X36864546Y-70229417D01*
X36661687Y-70432276D01*
X36655386Y-70438054D01*
X36623020Y-70465261D01*
X36618800Y-70472270D01*
X36613486Y-70478492D01*
X36613420Y-70478436D01*
X36605862Y-70488101D01*
X36289801Y-70804162D01*
X36284547Y-70808793D01*
X36279171Y-70811694D01*
X36258792Y-70833740D01*
X36242630Y-70851224D01*
X36239936Y-70854027D01*
X36123939Y-70970024D01*
X36069422Y-70997801D01*
X36053935Y-70999020D01*
X35135981Y-70999020D01*
X35077790Y-70980113D01*
X35041826Y-70930613D01*
X35040255Y-70882561D01*
X35039146Y-70882427D01*
X35049641Y-70795699D01*
X35050000Y-70789743D01*
X35050000Y-70265680D01*
X35045878Y-70252995D01*
X35041757Y-70250000D01*
X33315680Y-70250000D01*
X33302995Y-70254122D01*
X33300000Y-70258243D01*
X33300000Y-70789743D01*
X33300359Y-70795699D01*
X33310854Y-70882427D01*
X33309516Y-70882589D01*
X33305973Y-70936699D01*
X33266852Y-70983744D01*
X33214019Y-70999020D01*
X32696065Y-70999020D01*
X32637874Y-70980113D01*
X32626061Y-70970024D01*
X32029496Y-70373459D01*
X32001719Y-70318942D01*
X32000500Y-70303455D01*
X32000500Y-69934320D01*
X33300000Y-69934320D01*
X33304122Y-69947005D01*
X33308243Y-69950000D01*
X34009320Y-69950000D01*
X34022005Y-69945878D01*
X34025000Y-69941757D01*
X34025000Y-69934320D01*
X34325000Y-69934320D01*
X34329122Y-69947005D01*
X34333243Y-69950000D01*
X35034320Y-69950000D01*
X35047005Y-69945878D01*
X35050000Y-69941757D01*
X35050000Y-69410257D01*
X35049641Y-69404301D01*
X35039910Y-69323887D01*
X35036805Y-69311660D01*
X34986158Y-69183740D01*
X34979592Y-69172087D01*
X34896648Y-69062814D01*
X34887186Y-69053352D01*
X34777913Y-68970408D01*
X34766260Y-68963842D01*
X34638340Y-68913195D01*
X34626113Y-68910090D01*
X34545699Y-68900359D01*
X34539743Y-68900000D01*
X34340680Y-68900000D01*
X34327995Y-68904122D01*
X34325000Y-68908243D01*
X34325000Y-69934320D01*
X34025000Y-69934320D01*
X34025000Y-68915680D01*
X34020878Y-68902995D01*
X34016757Y-68900000D01*
X33810257Y-68900000D01*
X33804301Y-68900359D01*
X33723887Y-68910090D01*
X33711660Y-68913195D01*
X33583740Y-68963842D01*
X33572087Y-68970408D01*
X33462814Y-69053352D01*
X33453352Y-69062814D01*
X33370408Y-69172087D01*
X33363842Y-69183740D01*
X33313195Y-69311660D01*
X33310090Y-69323887D01*
X33300359Y-69404301D01*
X33300000Y-69410257D01*
X33300000Y-69934320D01*
X32000500Y-69934320D01*
X32000500Y-69396166D01*
X31997519Y-69364631D01*
X31952634Y-69236816D01*
X31872150Y-69127850D01*
X31784099Y-69062814D01*
X31769136Y-69051762D01*
X31769135Y-69051761D01*
X31763184Y-69047366D01*
X31691698Y-69022262D01*
X31643059Y-68985142D01*
X31625500Y-68928854D01*
X31625500Y-65499032D01*
X31644407Y-65440841D01*
X31693907Y-65404877D01*
X31714798Y-65400509D01*
X31714889Y-65400500D01*
X31719748Y-65400500D01*
X31745995Y-65395279D01*
X31768666Y-65390770D01*
X31768668Y-65390769D01*
X31778231Y-65388867D01*
X31844552Y-65344552D01*
X31888867Y-65278231D01*
X31900500Y-65219748D01*
X31900500Y-63880252D01*
X31888867Y-63821769D01*
X31844552Y-63755448D01*
X31778231Y-63711133D01*
X31768668Y-63709231D01*
X31768666Y-63709230D01*
X31745995Y-63704721D01*
X31719748Y-63699500D01*
X30780252Y-63699500D01*
X30754005Y-63704721D01*
X30731334Y-63709230D01*
X30731332Y-63709231D01*
X30721769Y-63711133D01*
X30655448Y-63755448D01*
X30611133Y-63821769D01*
X30599500Y-63880252D01*
X30599500Y-65219748D01*
X30611133Y-65278231D01*
X30655448Y-65344552D01*
X30721769Y-65388867D01*
X30731332Y-65390769D01*
X30731334Y-65390770D01*
X30754005Y-65395279D01*
X30780252Y-65400500D01*
X30785111Y-65400500D01*
X30785202Y-65400509D01*
X30841260Y-65425028D01*
X30872199Y-65477814D01*
X30874500Y-65499032D01*
X30874500Y-68911296D01*
X30855593Y-68969487D01*
X30808303Y-69004703D01*
X30686816Y-69047366D01*
X30680865Y-69051761D01*
X30680864Y-69051762D01*
X30665901Y-69062814D01*
X30577850Y-69127850D01*
X30497366Y-69236816D01*
X30452481Y-69364631D01*
X30449500Y-69396166D01*
X30449500Y-70803834D01*
X30449718Y-70806135D01*
X30449718Y-70806145D01*
X30450243Y-70811694D01*
X30452481Y-70835369D01*
X30497366Y-70963184D01*
X30501759Y-70969132D01*
X30501762Y-70969137D01*
X30505134Y-70973702D01*
X30524500Y-71032519D01*
X30524500Y-88149376D01*
X30522283Y-88170212D01*
X30519731Y-88182066D01*
X30520692Y-88190187D01*
X30520692Y-88190190D01*
X30523814Y-88216564D01*
X30524275Y-88224387D01*
X30524500Y-88227110D01*
X30524500Y-88231193D01*
X30525170Y-88235219D01*
X30525171Y-88235230D01*
X30527735Y-88250633D01*
X30528391Y-88255240D01*
X30534424Y-88306210D01*
X30537735Y-88313105D01*
X30538578Y-88315770D01*
X30539833Y-88323313D01*
X30564219Y-88368507D01*
X30566312Y-88372616D01*
X30588537Y-88418900D01*
X30592094Y-88423131D01*
X30593603Y-88424640D01*
X30594423Y-88425534D01*
X30595991Y-88427392D01*
X30599194Y-88433329D01*
X30638724Y-88469870D01*
X30641527Y-88472564D01*
X32320504Y-90151541D01*
X32348281Y-90206058D01*
X32349500Y-90221545D01*
X32349500Y-90503834D01*
X32349718Y-90506135D01*
X32349718Y-90506145D01*
X32350972Y-90519407D01*
X32352481Y-90535369D01*
X32354481Y-90541064D01*
X32372418Y-90592143D01*
X32373859Y-90653312D01*
X32349014Y-90694949D01*
X31945755Y-91098208D01*
X31929455Y-91111372D01*
X31919270Y-91117948D01*
X31897761Y-91145231D01*
X31892516Y-91151135D01*
X31890785Y-91153178D01*
X31887905Y-91156058D01*
X31885535Y-91159374D01*
X31885532Y-91159378D01*
X31876456Y-91172079D01*
X31873659Y-91175805D01*
X31841877Y-91216120D01*
X31839342Y-91223338D01*
X31838056Y-91225815D01*
X31833608Y-91232039D01*
X31831263Y-91239880D01*
X31831262Y-91239882D01*
X31818905Y-91281202D01*
X31817464Y-91285638D01*
X31800457Y-91334068D01*
X31799980Y-91339575D01*
X31799980Y-91341713D01*
X31799928Y-91342919D01*
X31799722Y-91345345D01*
X31797790Y-91351807D01*
X31798111Y-91359979D01*
X31798111Y-91359980D01*
X31799904Y-91405610D01*
X31799980Y-91409497D01*
X31799980Y-94299856D01*
X31797763Y-94320692D01*
X31795211Y-94332546D01*
X31796172Y-94340667D01*
X31796172Y-94340670D01*
X31799294Y-94367044D01*
X31799755Y-94374867D01*
X31799980Y-94377590D01*
X31799980Y-94381673D01*
X31800650Y-94385699D01*
X31800651Y-94385710D01*
X31803215Y-94401113D01*
X31803871Y-94405720D01*
X31805255Y-94417410D01*
X31808361Y-94443650D01*
X31809904Y-94456690D01*
X31813215Y-94463585D01*
X31814058Y-94466250D01*
X31815313Y-94473793D01*
X31839699Y-94518987D01*
X31841792Y-94523096D01*
X31864017Y-94569380D01*
X31867574Y-94573611D01*
X31869083Y-94575120D01*
X31869903Y-94576014D01*
X31871471Y-94577872D01*
X31874674Y-94583809D01*
X31912150Y-94618451D01*
X31914204Y-94620350D01*
X31917007Y-94623044D01*
X35173688Y-97879725D01*
X35186852Y-97896025D01*
X35193428Y-97906210D01*
X35220711Y-97927719D01*
X35226615Y-97932964D01*
X35228658Y-97934695D01*
X35231538Y-97937575D01*
X35234854Y-97939945D01*
X35234858Y-97939948D01*
X35247559Y-97949024D01*
X35251285Y-97951821D01*
X35291600Y-97983603D01*
X35298818Y-97986138D01*
X35301295Y-97987424D01*
X35307519Y-97991872D01*
X35339363Y-98001396D01*
X35356691Y-98006578D01*
X35361125Y-98008019D01*
X35403672Y-98022960D01*
X35403676Y-98022961D01*
X35409548Y-98025023D01*
X35415055Y-98025500D01*
X35417196Y-98025500D01*
X35418380Y-98025551D01*
X35420823Y-98025758D01*
X35427287Y-98027691D01*
X35435460Y-98027370D01*
X35435462Y-98027370D01*
X35481104Y-98025576D01*
X35484992Y-98025500D01*
X35581392Y-98025500D01*
X35639583Y-98044407D01*
X35663707Y-98069498D01*
X35680448Y-98094552D01*
X35746769Y-98138867D01*
X35756332Y-98140769D01*
X35756334Y-98140770D01*
X35779005Y-98145279D01*
X35805252Y-98150500D01*
X36294748Y-98150500D01*
X36320995Y-98145279D01*
X36343666Y-98140770D01*
X36343668Y-98140769D01*
X36353231Y-98138867D01*
X36419552Y-98094552D01*
X36436293Y-98069498D01*
X36484344Y-98031619D01*
X36518608Y-98025500D01*
X36677278Y-98025500D01*
X36735469Y-98044407D01*
X36768741Y-98086612D01*
X36772979Y-98096844D01*
X36772982Y-98096850D01*
X36775464Y-98102841D01*
X36871718Y-98228282D01*
X36997159Y-98324536D01*
X37143238Y-98385044D01*
X37300000Y-98405682D01*
X37456762Y-98385044D01*
X37602841Y-98324536D01*
X37728282Y-98228282D01*
X37824536Y-98102841D01*
X37885044Y-97956762D01*
X37905682Y-97800000D01*
X37885044Y-97643238D01*
X37824536Y-97497159D01*
X37728282Y-97371718D01*
X37602841Y-97275464D01*
X37456762Y-97214956D01*
X37300000Y-97194318D01*
X37143238Y-97214956D01*
X37037059Y-97258937D01*
X37017680Y-97266964D01*
X36979794Y-97274500D01*
X36518608Y-97274500D01*
X36460417Y-97255593D01*
X36436293Y-97230502D01*
X36424971Y-97213558D01*
X36419552Y-97205448D01*
X36353231Y-97161133D01*
X36343668Y-97159231D01*
X36343666Y-97159230D01*
X36320995Y-97154721D01*
X36294748Y-97149500D01*
X35805252Y-97149500D01*
X35779005Y-97154721D01*
X35756334Y-97159230D01*
X35756332Y-97159231D01*
X35746769Y-97161133D01*
X35680448Y-97205448D01*
X35678888Y-97203113D01*
X35637799Y-97224048D01*
X35577367Y-97214477D01*
X35552308Y-97196271D01*
X35274735Y-96918698D01*
X35246958Y-96864181D01*
X35256529Y-96803749D01*
X35299794Y-96760484D01*
X35349402Y-96749804D01*
X35353559Y-96750000D01*
X35389320Y-96750000D01*
X35402005Y-96745878D01*
X35405000Y-96741757D01*
X35405000Y-95640680D01*
X35400878Y-95627995D01*
X35396757Y-95625000D01*
X34970681Y-95625000D01*
X34957996Y-95629122D01*
X34955001Y-95633243D01*
X34955001Y-96351443D01*
X34955197Y-96355601D01*
X34939051Y-96414617D01*
X34891299Y-96452872D01*
X34830181Y-96455753D01*
X34786303Y-96430266D01*
X33665357Y-95309320D01*
X34955000Y-95309320D01*
X34959122Y-95322005D01*
X34963243Y-95325000D01*
X35389320Y-95325000D01*
X35402005Y-95320878D01*
X35405000Y-95316757D01*
X35405000Y-94215681D01*
X35400878Y-94202996D01*
X35396757Y-94200001D01*
X35353557Y-94200001D01*
X35348914Y-94200220D01*
X35325731Y-94202411D01*
X35314035Y-94204976D01*
X35199034Y-94245362D01*
X35186101Y-94252209D01*
X35089165Y-94323808D01*
X35078808Y-94334165D01*
X35007209Y-94431101D01*
X35000362Y-94444034D01*
X34959978Y-94559031D01*
X34957410Y-94570734D01*
X34955218Y-94593918D01*
X34955000Y-94598554D01*
X34955000Y-95309320D01*
X33665357Y-95309320D01*
X32579976Y-94223939D01*
X32552199Y-94169422D01*
X32550980Y-94153935D01*
X32550980Y-94035981D01*
X32569887Y-93977790D01*
X32619387Y-93941826D01*
X32667439Y-93940255D01*
X32667573Y-93939146D01*
X32754301Y-93949641D01*
X32760257Y-93950000D01*
X33284320Y-93950000D01*
X33297005Y-93945878D01*
X33300000Y-93941757D01*
X33300000Y-93934320D01*
X33600000Y-93934320D01*
X33604122Y-93947005D01*
X33608243Y-93950000D01*
X34139743Y-93950000D01*
X34145699Y-93949641D01*
X34226113Y-93939910D01*
X34238340Y-93936805D01*
X34366260Y-93886158D01*
X34377913Y-93879592D01*
X34487186Y-93796648D01*
X34496648Y-93787186D01*
X34579592Y-93677913D01*
X34586158Y-93666260D01*
X34636805Y-93538340D01*
X34639910Y-93526113D01*
X34649641Y-93445699D01*
X34650000Y-93439743D01*
X34650000Y-93240680D01*
X34645878Y-93227995D01*
X34641757Y-93225000D01*
X33615680Y-93225000D01*
X33602995Y-93229122D01*
X33600000Y-93233243D01*
X33600000Y-93934320D01*
X33300000Y-93934320D01*
X33300000Y-92909320D01*
X33600000Y-92909320D01*
X33604122Y-92922005D01*
X33608243Y-92925000D01*
X34634320Y-92925000D01*
X34647005Y-92920878D01*
X34650000Y-92916757D01*
X34650000Y-92710257D01*
X34649641Y-92704301D01*
X34639910Y-92623887D01*
X34636805Y-92611660D01*
X34586158Y-92483740D01*
X34579592Y-92472087D01*
X34496648Y-92362814D01*
X34487186Y-92353352D01*
X34377913Y-92270408D01*
X34366260Y-92263842D01*
X34238340Y-92213195D01*
X34226113Y-92210090D01*
X34145699Y-92200359D01*
X34139743Y-92200000D01*
X33615680Y-92200000D01*
X33602995Y-92204122D01*
X33600000Y-92208243D01*
X33600000Y-92909320D01*
X33300000Y-92909320D01*
X33300000Y-92215680D01*
X33295878Y-92202995D01*
X33291757Y-92200000D01*
X32760257Y-92200000D01*
X32754301Y-92200359D01*
X32667573Y-92210854D01*
X32667411Y-92209516D01*
X32613301Y-92205973D01*
X32566256Y-92166852D01*
X32550980Y-92114019D01*
X32550980Y-91596065D01*
X32569887Y-91537874D01*
X32579976Y-91526061D01*
X33176541Y-90929496D01*
X33231058Y-90901719D01*
X33246545Y-90900500D01*
X34153834Y-90900500D01*
X34156135Y-90900282D01*
X34156145Y-90900282D01*
X34179361Y-90898087D01*
X34179362Y-90898087D01*
X34185369Y-90897519D01*
X34313184Y-90852634D01*
X34321289Y-90846648D01*
X34416193Y-90776550D01*
X34422150Y-90772150D01*
X34502634Y-90663184D01*
X34536517Y-90566698D01*
X34573637Y-90518059D01*
X34629925Y-90500500D01*
X34955500Y-90500500D01*
X35013691Y-90519407D01*
X35049655Y-90568907D01*
X35054500Y-90599500D01*
X35054500Y-91383218D01*
X35055028Y-91386801D01*
X35055028Y-91386808D01*
X35063435Y-91443913D01*
X35064642Y-91452112D01*
X35116068Y-91556855D01*
X35198650Y-91639293D01*
X35303482Y-91690536D01*
X35311084Y-91691645D01*
X35311087Y-91691646D01*
X35368237Y-91699983D01*
X35368239Y-91699983D01*
X35371782Y-91700500D01*
X35738218Y-91700500D01*
X35741801Y-91699972D01*
X35741808Y-91699972D01*
X35799499Y-91691479D01*
X35799501Y-91691478D01*
X35807112Y-91690358D01*
X35911855Y-91638932D01*
X35994293Y-91556350D01*
X36045536Y-91451518D01*
X36046645Y-91443916D01*
X36046646Y-91443913D01*
X36054983Y-91386763D01*
X36054983Y-91386761D01*
X36055500Y-91383218D01*
X36055500Y-89666782D01*
X36045358Y-89597888D01*
X35993932Y-89493145D01*
X35911350Y-89410707D01*
X35806518Y-89359464D01*
X35798916Y-89358355D01*
X35798913Y-89358354D01*
X35741763Y-89350017D01*
X35741761Y-89350017D01*
X35738218Y-89349500D01*
X35371782Y-89349500D01*
X35368199Y-89350028D01*
X35368192Y-89350028D01*
X35310501Y-89358521D01*
X35310499Y-89358522D01*
X35302888Y-89359642D01*
X35198145Y-89411068D01*
X35115707Y-89493650D01*
X35064464Y-89598482D01*
X35063355Y-89606087D01*
X35054790Y-89664792D01*
X35027680Y-89719644D01*
X34973507Y-89748085D01*
X34956827Y-89749500D01*
X34629925Y-89749500D01*
X34571734Y-89730593D01*
X34536517Y-89683302D01*
X34531989Y-89670408D01*
X34502634Y-89586816D01*
X34422150Y-89477850D01*
X34360635Y-89432414D01*
X34319136Y-89401762D01*
X34319135Y-89401761D01*
X34313184Y-89397366D01*
X34185369Y-89352481D01*
X34179362Y-89351913D01*
X34179361Y-89351913D01*
X34156145Y-89349718D01*
X34156135Y-89349718D01*
X34153834Y-89349500D01*
X32746166Y-89349500D01*
X32743865Y-89349718D01*
X32743855Y-89349718D01*
X32720639Y-89351913D01*
X32720638Y-89351913D01*
X32714631Y-89352481D01*
X32676358Y-89365921D01*
X32615192Y-89367362D01*
X32573554Y-89342517D01*
X31304496Y-88073459D01*
X31276719Y-88018942D01*
X31275500Y-88003455D01*
X31275500Y-83958128D01*
X31294407Y-83899937D01*
X31343907Y-83863973D01*
X31409009Y-83865337D01*
X31518310Y-83905986D01*
X31528986Y-83908647D01*
X31534456Y-83909377D01*
X31547577Y-83906969D01*
X31548783Y-83905702D01*
X31550000Y-83900347D01*
X31550000Y-82502412D01*
X31545878Y-82489727D01*
X31543864Y-82488263D01*
X31542894Y-82488161D01*
X31538092Y-82489217D01*
X31406404Y-82534047D01*
X31345225Y-82534902D01*
X31295228Y-82499632D01*
X31275500Y-82440329D01*
X31275500Y-80731087D01*
X31285650Y-80699847D01*
X31275500Y-80659880D01*
X31275500Y-79731087D01*
X31285650Y-79699847D01*
X31275500Y-79659880D01*
X31275500Y-78731087D01*
X31285650Y-78699847D01*
X31275500Y-78659880D01*
X31275500Y-77731087D01*
X31285650Y-77699847D01*
X31275500Y-77659880D01*
X31275500Y-76731087D01*
X31285650Y-76699847D01*
X31275500Y-76659880D01*
X31275500Y-75731087D01*
X31285650Y-75699847D01*
X31275500Y-75659880D01*
X31275500Y-74731087D01*
X31285650Y-74699847D01*
X31275500Y-74659880D01*
X31275500Y-71299500D01*
X31294407Y-71241309D01*
X31343907Y-71205345D01*
X31374500Y-71200500D01*
X31603834Y-71200500D01*
X31606135Y-71200282D01*
X31606145Y-71200282D01*
X31629361Y-71198087D01*
X31629362Y-71198087D01*
X31635369Y-71197519D01*
X31649292Y-71192629D01*
X31692143Y-71177582D01*
X31753312Y-71176141D01*
X31794949Y-71200986D01*
X32198208Y-71604245D01*
X32211372Y-71620545D01*
X32217948Y-71630730D01*
X32245231Y-71652239D01*
X32251135Y-71657484D01*
X32253178Y-71659215D01*
X32256058Y-71662095D01*
X32259374Y-71664465D01*
X32259378Y-71664468D01*
X32272079Y-71673544D01*
X32275805Y-71676341D01*
X32316120Y-71708123D01*
X32323338Y-71710658D01*
X32325815Y-71711944D01*
X32332039Y-71716392D01*
X32339882Y-71718738D01*
X32339883Y-71718738D01*
X32381205Y-71731096D01*
X32385641Y-71732537D01*
X32428195Y-71747481D01*
X32428198Y-71747482D01*
X32434068Y-71749543D01*
X32439575Y-71750020D01*
X32441712Y-71750020D01*
X32442918Y-71750072D01*
X32445344Y-71750278D01*
X32451806Y-71752210D01*
X32459978Y-71751889D01*
X32459979Y-71751889D01*
X32505609Y-71750096D01*
X32509496Y-71750020D01*
X36199856Y-71750020D01*
X36220692Y-71752237D01*
X36224550Y-71753068D01*
X36224553Y-71753068D01*
X36232546Y-71754789D01*
X36240667Y-71753828D01*
X36240670Y-71753828D01*
X36267044Y-71750706D01*
X36274867Y-71750245D01*
X36277590Y-71750020D01*
X36281673Y-71750020D01*
X36285699Y-71749350D01*
X36285710Y-71749349D01*
X36301113Y-71746785D01*
X36305720Y-71746129D01*
X36330013Y-71743253D01*
X36348564Y-71741058D01*
X36348565Y-71741058D01*
X36356690Y-71740096D01*
X36363585Y-71736785D01*
X36366250Y-71735942D01*
X36373793Y-71734687D01*
X36418987Y-71710301D01*
X36423096Y-71708208D01*
X36469380Y-71685983D01*
X36473611Y-71682426D01*
X36475120Y-71680917D01*
X36476014Y-71680097D01*
X36477872Y-71678529D01*
X36483809Y-71675326D01*
X36520351Y-71635795D01*
X36523044Y-71632993D01*
X36639041Y-71516996D01*
X36693558Y-71489219D01*
X36709045Y-71488000D01*
X37251934Y-71488000D01*
X37258934Y-71488441D01*
X37264787Y-71490191D01*
X37272960Y-71489870D01*
X37272961Y-71489870D01*
X37318615Y-71488076D01*
X37322502Y-71488000D01*
X37984125Y-71488000D01*
X38042316Y-71506907D01*
X38078280Y-71556407D01*
X38077533Y-71619802D01*
X38054978Y-71684031D01*
X38052410Y-71695734D01*
X38050218Y-71718918D01*
X38050000Y-71723554D01*
X38050000Y-72196820D01*
X38054122Y-72209505D01*
X38058243Y-72212500D01*
X39234319Y-72212500D01*
X39247004Y-72208378D01*
X39249999Y-72204257D01*
X39249999Y-71723557D01*
X39249780Y-71718914D01*
X39247589Y-71695731D01*
X39245024Y-71684035D01*
X39222467Y-71619802D01*
X39221026Y-71558633D01*
X39255814Y-71508300D01*
X39315875Y-71488000D01*
X39991543Y-71488000D01*
X40049734Y-71506907D01*
X40085698Y-71556407D01*
X40085698Y-71617593D01*
X40080489Y-71630469D01*
X40059464Y-71673482D01*
X40058355Y-71681084D01*
X40058354Y-71681087D01*
X40050318Y-71736174D01*
X40049500Y-71741782D01*
X40049500Y-72020910D01*
X40030593Y-72079101D01*
X40008890Y-72098643D01*
X40009531Y-72099407D01*
X40002895Y-72104975D01*
X39995394Y-72109306D01*
X39989827Y-72115941D01*
X39970418Y-72139071D01*
X39964584Y-72145439D01*
X39419004Y-72691019D01*
X39364487Y-72718796D01*
X39304055Y-72709225D01*
X39260790Y-72665960D01*
X39250000Y-72621015D01*
X39250000Y-72528180D01*
X39245878Y-72515495D01*
X39241757Y-72512500D01*
X38065681Y-72512500D01*
X38052996Y-72516622D01*
X38050001Y-72520743D01*
X38050001Y-73001443D01*
X38050220Y-73006086D01*
X38052411Y-73029269D01*
X38054976Y-73040965D01*
X38095362Y-73155966D01*
X38102209Y-73168899D01*
X38173808Y-73265835D01*
X38184165Y-73276192D01*
X38281101Y-73347791D01*
X38294034Y-73354638D01*
X38409031Y-73395022D01*
X38420734Y-73397590D01*
X38443918Y-73399782D01*
X38448554Y-73400000D01*
X38471015Y-73400000D01*
X38529206Y-73418907D01*
X38565170Y-73468407D01*
X38565170Y-73529593D01*
X38541019Y-73569004D01*
X38482943Y-73627080D01*
X38476576Y-73632914D01*
X38446806Y-73657894D01*
X38442477Y-73665393D01*
X38427373Y-73691554D01*
X38422732Y-73698838D01*
X38400446Y-73730665D01*
X38398204Y-73739033D01*
X38395738Y-73744320D01*
X38393742Y-73749805D01*
X38389412Y-73757304D01*
X38387909Y-73765830D01*
X38387908Y-73765832D01*
X38382666Y-73795565D01*
X38380796Y-73803999D01*
X38370736Y-73841542D01*
X38371491Y-73850171D01*
X38374123Y-73880254D01*
X38374500Y-73888883D01*
X38374500Y-75494403D01*
X38355593Y-75552594D01*
X38306473Y-75588281D01*
X38299696Y-75589354D01*
X38283956Y-75597374D01*
X38193597Y-75643414D01*
X38193595Y-75643415D01*
X38186658Y-75646950D01*
X38096950Y-75736658D01*
X38093415Y-75743595D01*
X38093414Y-75743597D01*
X38045339Y-75837950D01*
X38039354Y-75849696D01*
X38024500Y-75943481D01*
X38024501Y-76406518D01*
X38025110Y-76410361D01*
X38025110Y-76410366D01*
X38030947Y-76447217D01*
X38039354Y-76500304D01*
X38064277Y-76549218D01*
X38093413Y-76606400D01*
X38096950Y-76613342D01*
X38186658Y-76703050D01*
X38193595Y-76706585D01*
X38193597Y-76706586D01*
X38241683Y-76731087D01*
X38299696Y-76760646D01*
X38307390Y-76761865D01*
X38307391Y-76761865D01*
X38389635Y-76774891D01*
X38389637Y-76774891D01*
X38393481Y-76775500D01*
X38699960Y-76775500D01*
X39006518Y-76775499D01*
X39010361Y-76774890D01*
X39010366Y-76774890D01*
X39047217Y-76769053D01*
X39100304Y-76760646D01*
X39158317Y-76731087D01*
X39206403Y-76706586D01*
X39206405Y-76706585D01*
X39213342Y-76703050D01*
X39303050Y-76613342D01*
X39306586Y-76606403D01*
X39306588Y-76606400D01*
X39333005Y-76554554D01*
X39376270Y-76511290D01*
X39421214Y-76500500D01*
X39778786Y-76500500D01*
X39836977Y-76519407D01*
X39866995Y-76554554D01*
X39893412Y-76606400D01*
X39893414Y-76606403D01*
X39896950Y-76613342D01*
X39986658Y-76703050D01*
X39993595Y-76706585D01*
X39993597Y-76706586D01*
X40041683Y-76731087D01*
X40099696Y-76760646D01*
X40107390Y-76761865D01*
X40107391Y-76761865D01*
X40189635Y-76774891D01*
X40189637Y-76774891D01*
X40193481Y-76775500D01*
X40499960Y-76775500D01*
X40806518Y-76775499D01*
X40810361Y-76774890D01*
X40810366Y-76774890D01*
X40847217Y-76769053D01*
X40900304Y-76760646D01*
X40958317Y-76731087D01*
X41006403Y-76706586D01*
X41006405Y-76706585D01*
X41013342Y-76703050D01*
X41103050Y-76613342D01*
X41106588Y-76606400D01*
X41157110Y-76507244D01*
X41157110Y-76507243D01*
X41160646Y-76500304D01*
X41168493Y-76450760D01*
X41196270Y-76396243D01*
X41250787Y-76368466D01*
X41311219Y-76378037D01*
X41336278Y-76396243D01*
X42245504Y-77305469D01*
X42273281Y-77359986D01*
X42274500Y-77375473D01*
X42274500Y-77523097D01*
X42255593Y-77581288D01*
X42244375Y-77592062D01*
X42245450Y-77593137D01*
X42238558Y-77600029D01*
X42230448Y-77605448D01*
X42186133Y-77671769D01*
X42184231Y-77681332D01*
X42184230Y-77681334D01*
X42179875Y-77703232D01*
X42174500Y-77730252D01*
X42174500Y-78369748D01*
X42186133Y-78428231D01*
X42230448Y-78494552D01*
X42296769Y-78538867D01*
X42306332Y-78540769D01*
X42306334Y-78540770D01*
X42329005Y-78545279D01*
X42355252Y-78550500D01*
X42844748Y-78550500D01*
X42861434Y-78547181D01*
X42922196Y-78554373D01*
X42967125Y-78595906D01*
X42979062Y-78655915D01*
X42950752Y-78714283D01*
X42108419Y-79556616D01*
X42053902Y-79584393D01*
X41993470Y-79574822D01*
X41950205Y-79531557D01*
X41940634Y-79471125D01*
X41946951Y-79448726D01*
X41982560Y-79362759D01*
X41985044Y-79356762D01*
X42005682Y-79200000D01*
X41985044Y-79043238D01*
X41924536Y-78897159D01*
X41828282Y-78771718D01*
X41702841Y-78675464D01*
X41556762Y-78614956D01*
X41400000Y-78594318D01*
X41243238Y-78614956D01*
X41097159Y-78675464D01*
X40971718Y-78771718D01*
X40875464Y-78897159D01*
X40850776Y-78956762D01*
X40817168Y-79037897D01*
X40777431Y-79084423D01*
X40725704Y-79099011D01*
X39925323Y-79099011D01*
X39867132Y-79080104D01*
X39831168Y-79030604D01*
X39831168Y-78969418D01*
X39855320Y-78930007D01*
X40330832Y-78454496D01*
X40385348Y-78426719D01*
X40400835Y-78425500D01*
X40767780Y-78425499D01*
X40806518Y-78425499D01*
X40810361Y-78424890D01*
X40810366Y-78424890D01*
X40849663Y-78418666D01*
X40900304Y-78410646D01*
X40976704Y-78371718D01*
X41006403Y-78356586D01*
X41006405Y-78356585D01*
X41013342Y-78353050D01*
X41103050Y-78263342D01*
X41126439Y-78217440D01*
X41157110Y-78157244D01*
X41157110Y-78157243D01*
X41160646Y-78150304D01*
X41164290Y-78127301D01*
X41174891Y-78060365D01*
X41174891Y-78060363D01*
X41175500Y-78056519D01*
X41175499Y-77593482D01*
X41172733Y-77576013D01*
X41164415Y-77523495D01*
X41160646Y-77499696D01*
X41131848Y-77443177D01*
X41106586Y-77393597D01*
X41106585Y-77393595D01*
X41103050Y-77386658D01*
X41013342Y-77296950D01*
X41006405Y-77293415D01*
X41006403Y-77293414D01*
X40907244Y-77242890D01*
X40907243Y-77242890D01*
X40900304Y-77239354D01*
X40892610Y-77238135D01*
X40892609Y-77238135D01*
X40810365Y-77225109D01*
X40810363Y-77225109D01*
X40806519Y-77224500D01*
X40500040Y-77224500D01*
X40193482Y-77224501D01*
X40189639Y-77225110D01*
X40189634Y-77225110D01*
X40152783Y-77230947D01*
X40099696Y-77239354D01*
X40073209Y-77252850D01*
X39993597Y-77293414D01*
X39993595Y-77293415D01*
X39986658Y-77296950D01*
X39896950Y-77386658D01*
X39893415Y-77393595D01*
X39893414Y-77393597D01*
X39844715Y-77489174D01*
X39839354Y-77499696D01*
X39838135Y-77507390D01*
X39838135Y-77507391D01*
X39826581Y-77580343D01*
X39824500Y-77593481D01*
X39824501Y-77801165D01*
X39824501Y-77999165D01*
X39805594Y-78057356D01*
X39795505Y-78069168D01*
X39632501Y-78232173D01*
X39577985Y-78259950D01*
X39517553Y-78250379D01*
X39474288Y-78207114D01*
X39464717Y-78146682D01*
X39466183Y-78139268D01*
X39469028Y-78127301D01*
X39474711Y-78074991D01*
X39475000Y-78069657D01*
X39475000Y-77990680D01*
X39470878Y-77977995D01*
X39466757Y-77975000D01*
X37940680Y-77975000D01*
X37927995Y-77979122D01*
X37925000Y-77983243D01*
X37925000Y-78069657D01*
X37925289Y-78074991D01*
X37931108Y-78128556D01*
X37918596Y-78188448D01*
X37873270Y-78229548D01*
X37812442Y-78236156D01*
X37794802Y-78230712D01*
X37762762Y-78217441D01*
X37762760Y-78217440D01*
X37756762Y-78214956D01*
X37600000Y-78194318D01*
X37443238Y-78214956D01*
X37297159Y-78275464D01*
X37171718Y-78371718D01*
X37075464Y-78497159D01*
X37014956Y-78643238D01*
X36994318Y-78800000D01*
X37014956Y-78956762D01*
X37017440Y-78962760D01*
X37019119Y-78969025D01*
X37017751Y-78969392D01*
X37021976Y-79023129D01*
X36990003Y-79075296D01*
X36933474Y-79098706D01*
X36925713Y-79099011D01*
X34000345Y-79099011D01*
X33942154Y-79080104D01*
X33930341Y-79070015D01*
X32745444Y-77885118D01*
X32717667Y-77830601D01*
X32717436Y-77801165D01*
X32729500Y-77716401D01*
X32729500Y-77716399D01*
X32729956Y-77713196D01*
X32730094Y-77700000D01*
X32725171Y-77659320D01*
X37925000Y-77659320D01*
X37929122Y-77672005D01*
X37933243Y-77675000D01*
X38534320Y-77675000D01*
X38547005Y-77670878D01*
X38550000Y-77666757D01*
X38550000Y-77659320D01*
X38850000Y-77659320D01*
X38854122Y-77672005D01*
X38858243Y-77675000D01*
X39459320Y-77675000D01*
X39472005Y-77670878D01*
X39475000Y-77666757D01*
X39475000Y-77580343D01*
X39474711Y-77575009D01*
X39469029Y-77522702D01*
X39466178Y-77510713D01*
X39420557Y-77389018D01*
X39413857Y-77376781D01*
X39336419Y-77273455D01*
X39326545Y-77263581D01*
X39223219Y-77186143D01*
X39210982Y-77179443D01*
X39089287Y-77133822D01*
X39077298Y-77130971D01*
X39024991Y-77125289D01*
X39019657Y-77125000D01*
X38865680Y-77125000D01*
X38852995Y-77129122D01*
X38850000Y-77133243D01*
X38850000Y-77659320D01*
X38550000Y-77659320D01*
X38550000Y-77140680D01*
X38545878Y-77127995D01*
X38541757Y-77125000D01*
X38380343Y-77125000D01*
X38375009Y-77125289D01*
X38322702Y-77130971D01*
X38310713Y-77133822D01*
X38189018Y-77179443D01*
X38176781Y-77186143D01*
X38073455Y-77263581D01*
X38063581Y-77273455D01*
X37986143Y-77376781D01*
X37979443Y-77389018D01*
X37933822Y-77510713D01*
X37930971Y-77522702D01*
X37925289Y-77575009D01*
X37925000Y-77580343D01*
X37925000Y-77659320D01*
X32725171Y-77659320D01*
X32723909Y-77648892D01*
X32712623Y-77555623D01*
X32712622Y-77555620D01*
X32711906Y-77549701D01*
X32702003Y-77523492D01*
X32660502Y-77413664D01*
X32658392Y-77408080D01*
X32610485Y-77338376D01*
X32576024Y-77288234D01*
X32576022Y-77288231D01*
X32572640Y-77283311D01*
X32563078Y-77274791D01*
X32532207Y-77221966D01*
X32538283Y-77161083D01*
X32556061Y-77133863D01*
X32559272Y-77130371D01*
X32563810Y-77126495D01*
X32652156Y-77003550D01*
X32708624Y-76863080D01*
X32729956Y-76713196D01*
X32730094Y-76700000D01*
X32711906Y-76549701D01*
X32695863Y-76507243D01*
X32660502Y-76413664D01*
X32658392Y-76408080D01*
X32596939Y-76318666D01*
X32576024Y-76288234D01*
X32576022Y-76288231D01*
X32572640Y-76283311D01*
X32563078Y-76274791D01*
X32532207Y-76221966D01*
X32538283Y-76161083D01*
X32556061Y-76133863D01*
X32559272Y-76130371D01*
X32563810Y-76126495D01*
X32652156Y-76003550D01*
X32708624Y-75863080D01*
X32726617Y-75736658D01*
X32729500Y-75716401D01*
X32729500Y-75716399D01*
X32729956Y-75713196D01*
X32730094Y-75700000D01*
X32717133Y-75592893D01*
X32712623Y-75555623D01*
X32712622Y-75555620D01*
X32711906Y-75549701D01*
X32700852Y-75520446D01*
X32660502Y-75413664D01*
X32658392Y-75408080D01*
X32582014Y-75296950D01*
X32576024Y-75288234D01*
X32576022Y-75288231D01*
X32572640Y-75283311D01*
X32563078Y-75274791D01*
X32532207Y-75221966D01*
X32538283Y-75161083D01*
X32556061Y-75133863D01*
X32559272Y-75130371D01*
X32563810Y-75126495D01*
X32635629Y-75026550D01*
X32648672Y-75008399D01*
X32648673Y-75008397D01*
X32652156Y-75003550D01*
X32708624Y-74863080D01*
X32729956Y-74713196D01*
X32730094Y-74700000D01*
X32719466Y-74612173D01*
X32712623Y-74555623D01*
X32712622Y-74555620D01*
X32711906Y-74549701D01*
X32658392Y-74408080D01*
X32652051Y-74398854D01*
X32634674Y-74340188D01*
X32655099Y-74282513D01*
X32662094Y-74274535D01*
X32669552Y-74269552D01*
X32713867Y-74203231D01*
X32725500Y-74144748D01*
X32725500Y-73255252D01*
X32713867Y-73196769D01*
X32669552Y-73130448D01*
X32603231Y-73086133D01*
X32593668Y-73084231D01*
X32593666Y-73084230D01*
X32570995Y-73079721D01*
X32544748Y-73074500D01*
X31655252Y-73074500D01*
X31629005Y-73079721D01*
X31606334Y-73084230D01*
X31606332Y-73084231D01*
X31596769Y-73086133D01*
X31530448Y-73130448D01*
X31486133Y-73196769D01*
X31474500Y-73255252D01*
X31474500Y-74144748D01*
X31486133Y-74203231D01*
X31530448Y-74269552D01*
X31536544Y-74273625D01*
X31563627Y-74326780D01*
X31554056Y-74387212D01*
X31549622Y-74394578D01*
X31548125Y-74397369D01*
X31544696Y-74402249D01*
X31534546Y-74428282D01*
X31497019Y-74524536D01*
X31489702Y-74543302D01*
X31488923Y-74549217D01*
X31488923Y-74549218D01*
X31472653Y-74672802D01*
X31462661Y-74693751D01*
X31472902Y-74720223D01*
X31486554Y-74843883D01*
X31488606Y-74849490D01*
X31536530Y-74980451D01*
X31536532Y-74980455D01*
X31538582Y-74986057D01*
X31623022Y-75111716D01*
X31638623Y-75125912D01*
X31668939Y-75179057D01*
X31662226Y-75239873D01*
X31639996Y-75269806D01*
X31640240Y-75270026D01*
X31637917Y-75272607D01*
X31637077Y-75273737D01*
X31631749Y-75278385D01*
X31628318Y-75283267D01*
X31628317Y-75283268D01*
X31550777Y-75393597D01*
X31544696Y-75402249D01*
X31542529Y-75407807D01*
X31542528Y-75407809D01*
X31540245Y-75413664D01*
X31489702Y-75543302D01*
X31488923Y-75549217D01*
X31488923Y-75549218D01*
X31472653Y-75672802D01*
X31462661Y-75693751D01*
X31472902Y-75720223D01*
X31486554Y-75843883D01*
X31488606Y-75849490D01*
X31536530Y-75980451D01*
X31536532Y-75980455D01*
X31538582Y-75986057D01*
X31623022Y-76111716D01*
X31638623Y-76125912D01*
X31668939Y-76179057D01*
X31662226Y-76239873D01*
X31639996Y-76269806D01*
X31640240Y-76270026D01*
X31637917Y-76272607D01*
X31637077Y-76273737D01*
X31631749Y-76278385D01*
X31628318Y-76283267D01*
X31628317Y-76283268D01*
X31548917Y-76396243D01*
X31544696Y-76402249D01*
X31542529Y-76407807D01*
X31542528Y-76407809D01*
X31529677Y-76440770D01*
X31489702Y-76543302D01*
X31488923Y-76549217D01*
X31488923Y-76549218D01*
X31472653Y-76672802D01*
X31462661Y-76693751D01*
X31472902Y-76720223D01*
X31486554Y-76843883D01*
X31488606Y-76849490D01*
X31536530Y-76980451D01*
X31536532Y-76980455D01*
X31538582Y-76986057D01*
X31623022Y-77111716D01*
X31638623Y-77125912D01*
X31668939Y-77179057D01*
X31662226Y-77239873D01*
X31639996Y-77269806D01*
X31640240Y-77270026D01*
X31637917Y-77272607D01*
X31637077Y-77273737D01*
X31631749Y-77278385D01*
X31628318Y-77283267D01*
X31628317Y-77283268D01*
X31553995Y-77389018D01*
X31544696Y-77402249D01*
X31542529Y-77407807D01*
X31542528Y-77407809D01*
X31497424Y-77523495D01*
X31489702Y-77543302D01*
X31488923Y-77549217D01*
X31488923Y-77549218D01*
X31472653Y-77672802D01*
X31462661Y-77693751D01*
X31472902Y-77720223D01*
X31486554Y-77843883D01*
X31488606Y-77849490D01*
X31536530Y-77980451D01*
X31536532Y-77980455D01*
X31538582Y-77986057D01*
X31623022Y-78111716D01*
X31638623Y-78125912D01*
X31668939Y-78179057D01*
X31662226Y-78239873D01*
X31639996Y-78269806D01*
X31640240Y-78270026D01*
X31637917Y-78272607D01*
X31637077Y-78273737D01*
X31631749Y-78278385D01*
X31628318Y-78283267D01*
X31628317Y-78283268D01*
X31564190Y-78374512D01*
X31544696Y-78402249D01*
X31542529Y-78407807D01*
X31542528Y-78407809D01*
X31509700Y-78492010D01*
X31489702Y-78543302D01*
X31488923Y-78549217D01*
X31488923Y-78549218D01*
X31472653Y-78672802D01*
X31462661Y-78693751D01*
X31472902Y-78720223D01*
X31486554Y-78843883D01*
X31488606Y-78849490D01*
X31536530Y-78980451D01*
X31536532Y-78980455D01*
X31538582Y-78986057D01*
X31623022Y-79111716D01*
X31638623Y-79125912D01*
X31668939Y-79179057D01*
X31662226Y-79239873D01*
X31639996Y-79269806D01*
X31640240Y-79270026D01*
X31637917Y-79272607D01*
X31637077Y-79273737D01*
X31631749Y-79278385D01*
X31628318Y-79283267D01*
X31628317Y-79283268D01*
X31548127Y-79397367D01*
X31544696Y-79402249D01*
X31489702Y-79543302D01*
X31488923Y-79549217D01*
X31488923Y-79549218D01*
X31472653Y-79672802D01*
X31462661Y-79693751D01*
X31472902Y-79720223D01*
X31486554Y-79843883D01*
X31488606Y-79849490D01*
X31536530Y-79980451D01*
X31536532Y-79980455D01*
X31538582Y-79986057D01*
X31623022Y-80111716D01*
X31638623Y-80125912D01*
X31668939Y-80179057D01*
X31662226Y-80239873D01*
X31639996Y-80269806D01*
X31640240Y-80270026D01*
X31637917Y-80272607D01*
X31637077Y-80273737D01*
X31631749Y-80278385D01*
X31628318Y-80283267D01*
X31628317Y-80283268D01*
X31548127Y-80397367D01*
X31544696Y-80402249D01*
X31542529Y-80407807D01*
X31542528Y-80407809D01*
X31527324Y-80446806D01*
X31489702Y-80543302D01*
X31488923Y-80549217D01*
X31488923Y-80549218D01*
X31472653Y-80672802D01*
X31462661Y-80693751D01*
X31472902Y-80720223D01*
X31486554Y-80843883D01*
X31488606Y-80849490D01*
X31536530Y-80980451D01*
X31536532Y-80980455D01*
X31538582Y-80986057D01*
X31623022Y-81111716D01*
X31627434Y-81115731D01*
X31627437Y-81115734D01*
X31730582Y-81209589D01*
X31734998Y-81213607D01*
X31793137Y-81245174D01*
X31862801Y-81282999D01*
X31862803Y-81283000D01*
X31868047Y-81285847D01*
X31944798Y-81305982D01*
X32008717Y-81322751D01*
X32008721Y-81322751D01*
X32014486Y-81324264D01*
X32020447Y-81324358D01*
X32020450Y-81324358D01*
X32090174Y-81325453D01*
X32165863Y-81326642D01*
X32171679Y-81325310D01*
X32307614Y-81294177D01*
X32307617Y-81294176D01*
X32313437Y-81292843D01*
X32324337Y-81287361D01*
X32443355Y-81227502D01*
X32443357Y-81227501D01*
X32448689Y-81224819D01*
X32563810Y-81126495D01*
X32606757Y-81066729D01*
X32656069Y-81030507D01*
X32687153Y-81025500D01*
X40324166Y-81025500D01*
X40382357Y-81044407D01*
X40394170Y-81054496D01*
X43583004Y-84243330D01*
X43610781Y-84297847D01*
X43612000Y-84313334D01*
X43612000Y-86300500D01*
X43593093Y-86358691D01*
X43543593Y-86394655D01*
X43513000Y-86399500D01*
X43316782Y-86399500D01*
X43313199Y-86400028D01*
X43313192Y-86400028D01*
X43255501Y-86408521D01*
X43255499Y-86408522D01*
X43247888Y-86409642D01*
X43143145Y-86461068D01*
X43137364Y-86466859D01*
X43113795Y-86490469D01*
X43060707Y-86543650D01*
X43046223Y-86573281D01*
X43027577Y-86611427D01*
X42985036Y-86655403D01*
X42924771Y-86665976D01*
X42868630Y-86637955D01*
X42795603Y-86564928D01*
X42767826Y-86510411D01*
X42777397Y-86449979D01*
X42821975Y-86406058D01*
X42849507Y-86392540D01*
X42849510Y-86392538D01*
X42856855Y-86388932D01*
X42865180Y-86380593D01*
X42933513Y-86312140D01*
X42939293Y-86306350D01*
X42990536Y-86201518D01*
X42991645Y-86193916D01*
X42991646Y-86193913D01*
X42999983Y-86136763D01*
X42999983Y-86136761D01*
X43000500Y-86133218D01*
X43000500Y-85766782D01*
X42990358Y-85697888D01*
X42938932Y-85593145D01*
X42856350Y-85510707D01*
X42751518Y-85459464D01*
X42743916Y-85458355D01*
X42743913Y-85458354D01*
X42686763Y-85450017D01*
X42686761Y-85450017D01*
X42683218Y-85449500D01*
X41441782Y-85449500D01*
X41438199Y-85450028D01*
X41438192Y-85450028D01*
X41380501Y-85458521D01*
X41380499Y-85458522D01*
X41372888Y-85459642D01*
X41268145Y-85511068D01*
X41185707Y-85593650D01*
X41134464Y-85698482D01*
X41133355Y-85706084D01*
X41133354Y-85706087D01*
X41125024Y-85763192D01*
X41124500Y-85766782D01*
X41124500Y-86133218D01*
X41125028Y-86136801D01*
X41125028Y-86136808D01*
X41127036Y-86150448D01*
X41134642Y-86202112D01*
X41186068Y-86306855D01*
X41191859Y-86312636D01*
X41209506Y-86330252D01*
X41268650Y-86389293D01*
X41373482Y-86440536D01*
X41381084Y-86441645D01*
X41381087Y-86441646D01*
X41438237Y-86449983D01*
X41438239Y-86449983D01*
X41441782Y-86450500D01*
X41720910Y-86450500D01*
X41779101Y-86469407D01*
X41798643Y-86491110D01*
X41799407Y-86490469D01*
X41804975Y-86497105D01*
X41809306Y-86504606D01*
X41839071Y-86529582D01*
X41845439Y-86535416D01*
X42490519Y-87180496D01*
X42518296Y-87235013D01*
X42508725Y-87295445D01*
X42465460Y-87338710D01*
X42420515Y-87349500D01*
X41441782Y-87349500D01*
X41438199Y-87350028D01*
X41438192Y-87350028D01*
X41380501Y-87358521D01*
X41380499Y-87358522D01*
X41372888Y-87359642D01*
X41268145Y-87411068D01*
X41262364Y-87416859D01*
X41255710Y-87421623D01*
X41254357Y-87419733D01*
X41210349Y-87442206D01*
X41149908Y-87432689D01*
X41124769Y-87414443D01*
X40979496Y-87269170D01*
X40951719Y-87214653D01*
X40950500Y-87199166D01*
X40950500Y-87030252D01*
X40938867Y-86971769D01*
X40927663Y-86955002D01*
X40911054Y-86896116D01*
X40927663Y-86844998D01*
X40938867Y-86828231D01*
X40950500Y-86769748D01*
X40950500Y-86330252D01*
X40938867Y-86271769D01*
X40894552Y-86205448D01*
X40828231Y-86161133D01*
X40818668Y-86159231D01*
X40818666Y-86159230D01*
X40795995Y-86154721D01*
X40769748Y-86149500D01*
X40600834Y-86149500D01*
X40542643Y-86130593D01*
X40530830Y-86120504D01*
X40143269Y-85732943D01*
X40137434Y-85726575D01*
X40129156Y-85716710D01*
X40112455Y-85696806D01*
X40078792Y-85677371D01*
X40071511Y-85672732D01*
X40068379Y-85670539D01*
X40039684Y-85650446D01*
X40031316Y-85648204D01*
X40026029Y-85645738D01*
X40020544Y-85643742D01*
X40013045Y-85639412D01*
X40004519Y-85637909D01*
X40004517Y-85637908D01*
X39974784Y-85632666D01*
X39966349Y-85630796D01*
X39937174Y-85622978D01*
X39928807Y-85620736D01*
X39920178Y-85621491D01*
X39890095Y-85624123D01*
X39881466Y-85624500D01*
X38885606Y-85624500D01*
X38827415Y-85605593D01*
X38814495Y-85592581D01*
X38813932Y-85593145D01*
X38737140Y-85516487D01*
X38731350Y-85510707D01*
X38626518Y-85459464D01*
X38618916Y-85458355D01*
X38618913Y-85458354D01*
X38561763Y-85450017D01*
X38561761Y-85450017D01*
X38558218Y-85449500D01*
X37316782Y-85449500D01*
X37313199Y-85450028D01*
X37313192Y-85450028D01*
X37255501Y-85458521D01*
X37255499Y-85458522D01*
X37247888Y-85459642D01*
X37143145Y-85511068D01*
X37060707Y-85593650D01*
X37009464Y-85698482D01*
X37008355Y-85706084D01*
X37008354Y-85706087D01*
X37000024Y-85763192D01*
X36999500Y-85766782D01*
X36999500Y-86133218D01*
X37000028Y-86136801D01*
X37000028Y-86136808D01*
X37002036Y-86150448D01*
X37009642Y-86202112D01*
X37061068Y-86306855D01*
X37066859Y-86312636D01*
X37084506Y-86330252D01*
X37143650Y-86389293D01*
X37248482Y-86440536D01*
X37256084Y-86441645D01*
X37256087Y-86441646D01*
X37313237Y-86449983D01*
X37313239Y-86449983D01*
X37316782Y-86450500D01*
X38558218Y-86450500D01*
X38561801Y-86449972D01*
X38561808Y-86449972D01*
X38619499Y-86441479D01*
X38619501Y-86441478D01*
X38627112Y-86440358D01*
X38647079Y-86430555D01*
X38710330Y-86399500D01*
X38731855Y-86388932D01*
X38740180Y-86380593D01*
X38814293Y-86306350D01*
X38816487Y-86308541D01*
X38854215Y-86280619D01*
X38885636Y-86275500D01*
X38950500Y-86275500D01*
X39008691Y-86294407D01*
X39044655Y-86343907D01*
X39049500Y-86374500D01*
X39049500Y-86769748D01*
X39061133Y-86828231D01*
X39072337Y-86844998D01*
X39088946Y-86903884D01*
X39072337Y-86955002D01*
X39061133Y-86971769D01*
X39049500Y-87030252D01*
X39049500Y-87199166D01*
X39030593Y-87257357D01*
X39020504Y-87269170D01*
X38875165Y-87414509D01*
X38820648Y-87442286D01*
X38760216Y-87432715D01*
X38744009Y-87420949D01*
X38743802Y-87421239D01*
X38737141Y-87416488D01*
X38731350Y-87410707D01*
X38626518Y-87359464D01*
X38618916Y-87358355D01*
X38618913Y-87358354D01*
X38561763Y-87350017D01*
X38561761Y-87350017D01*
X38558218Y-87349500D01*
X37316782Y-87349500D01*
X37313199Y-87350028D01*
X37313192Y-87350028D01*
X37255501Y-87358521D01*
X37255499Y-87358522D01*
X37247888Y-87359642D01*
X37143145Y-87411068D01*
X37137364Y-87416859D01*
X37106902Y-87447374D01*
X37060707Y-87493650D01*
X37009464Y-87598482D01*
X37008355Y-87606084D01*
X37008354Y-87606087D01*
X37001875Y-87650500D01*
X36999500Y-87666782D01*
X36999500Y-88033218D01*
X37000028Y-88036801D01*
X37000028Y-88036808D01*
X37005424Y-88073459D01*
X37009642Y-88102112D01*
X37013033Y-88109018D01*
X37013033Y-88109019D01*
X37017859Y-88118848D01*
X37061068Y-88206855D01*
X37066859Y-88212636D01*
X37089493Y-88235230D01*
X37143650Y-88289293D01*
X37248482Y-88340536D01*
X37256084Y-88341645D01*
X37256087Y-88341646D01*
X37313237Y-88349983D01*
X37313239Y-88349983D01*
X37316782Y-88350500D01*
X37670500Y-88350500D01*
X37728691Y-88369407D01*
X37764655Y-88418907D01*
X37769500Y-88449500D01*
X37769500Y-89265515D01*
X37750593Y-89323706D01*
X37701093Y-89359670D01*
X37639907Y-89359670D01*
X37600497Y-89335519D01*
X37373406Y-89108429D01*
X37367570Y-89102061D01*
X37348151Y-89078918D01*
X37342586Y-89072286D01*
X37330278Y-89065180D01*
X37309774Y-89049447D01*
X36570305Y-88309978D01*
X35829830Y-87569504D01*
X35802053Y-87514987D01*
X35811624Y-87454555D01*
X35854889Y-87411290D01*
X35899834Y-87400500D01*
X36683218Y-87400500D01*
X36686801Y-87399972D01*
X36686808Y-87399972D01*
X36744499Y-87391479D01*
X36744501Y-87391478D01*
X36752112Y-87390358D01*
X36856855Y-87338932D01*
X36939293Y-87256350D01*
X36990536Y-87151518D01*
X36991645Y-87143916D01*
X36991646Y-87143913D01*
X36999983Y-87086763D01*
X36999983Y-87086761D01*
X37000500Y-87083218D01*
X37000500Y-86716782D01*
X36990358Y-86647888D01*
X36938932Y-86543145D01*
X36931190Y-86535416D01*
X36862140Y-86466487D01*
X36856350Y-86460707D01*
X36751518Y-86409464D01*
X36743916Y-86408355D01*
X36743913Y-86408354D01*
X36686763Y-86400017D01*
X36686761Y-86400017D01*
X36683218Y-86399500D01*
X35441782Y-86399500D01*
X35438199Y-86400028D01*
X35438192Y-86400028D01*
X35380501Y-86408521D01*
X35380499Y-86408522D01*
X35372888Y-86409642D01*
X35268145Y-86461068D01*
X35262364Y-86466859D01*
X35219126Y-86510173D01*
X35185707Y-86543650D01*
X35183513Y-86541459D01*
X35145785Y-86569381D01*
X35114364Y-86574500D01*
X34957966Y-86574500D01*
X34899775Y-86555593D01*
X34863811Y-86506093D01*
X34863811Y-86444907D01*
X34869756Y-86430555D01*
X34907110Y-86357244D01*
X34907110Y-86357243D01*
X34910646Y-86350304D01*
X34913053Y-86335110D01*
X34924891Y-86260365D01*
X34924891Y-86260363D01*
X34925500Y-86256519D01*
X34925499Y-85850835D01*
X34944406Y-85792644D01*
X34954495Y-85780831D01*
X36780830Y-83954496D01*
X36835347Y-83926719D01*
X36850834Y-83925500D01*
X40381466Y-83925500D01*
X40390095Y-83925877D01*
X40428807Y-83929264D01*
X40438305Y-83926719D01*
X40458601Y-83921280D01*
X40466350Y-83919204D01*
X40474784Y-83917334D01*
X40504517Y-83912092D01*
X40504519Y-83912091D01*
X40513045Y-83910588D01*
X40520544Y-83906258D01*
X40526029Y-83904262D01*
X40531316Y-83901796D01*
X40539684Y-83899554D01*
X40571511Y-83877268D01*
X40578795Y-83872627D01*
X40612455Y-83853194D01*
X40637436Y-83823423D01*
X40643258Y-83817068D01*
X40937036Y-83523291D01*
X40991549Y-83495516D01*
X41019956Y-83495144D01*
X41100000Y-83505682D01*
X41256762Y-83485044D01*
X41402841Y-83424536D01*
X41528282Y-83328282D01*
X41624536Y-83202841D01*
X41685044Y-83056762D01*
X41705682Y-82900000D01*
X41685044Y-82743238D01*
X41624536Y-82597159D01*
X41528282Y-82471718D01*
X41402841Y-82375464D01*
X41256762Y-82314956D01*
X41100000Y-82294318D01*
X40943238Y-82314956D01*
X40797159Y-82375464D01*
X40671718Y-82471718D01*
X40575464Y-82597159D01*
X40514956Y-82743238D01*
X40494318Y-82900000D01*
X40495165Y-82906433D01*
X40504856Y-82980042D01*
X40493706Y-83040202D01*
X40476712Y-83062961D01*
X40294169Y-83245505D01*
X40239654Y-83273281D01*
X40224167Y-83274500D01*
X36693534Y-83274500D01*
X36684905Y-83274123D01*
X36654822Y-83271491D01*
X36646193Y-83270736D01*
X36637826Y-83272978D01*
X36608651Y-83280796D01*
X36600216Y-83282666D01*
X36570483Y-83287908D01*
X36570481Y-83287909D01*
X36561955Y-83289412D01*
X36554456Y-83293742D01*
X36548971Y-83295738D01*
X36543684Y-83298204D01*
X36535316Y-83300446D01*
X36505944Y-83321013D01*
X36503489Y-83322732D01*
X36496208Y-83327371D01*
X36462545Y-83346806D01*
X36446708Y-83365680D01*
X36437569Y-83376571D01*
X36431735Y-83382939D01*
X34419170Y-85395504D01*
X34364653Y-85423281D01*
X34349166Y-85424500D01*
X33982220Y-85424501D01*
X33943482Y-85424501D01*
X33939639Y-85425110D01*
X33939634Y-85425110D01*
X33902783Y-85430947D01*
X33849696Y-85439354D01*
X33812407Y-85458354D01*
X33743597Y-85493414D01*
X33743595Y-85493415D01*
X33736658Y-85496950D01*
X33646950Y-85586658D01*
X33643415Y-85593595D01*
X33643414Y-85593597D01*
X33593490Y-85691578D01*
X33589354Y-85699696D01*
X33588135Y-85707390D01*
X33588135Y-85707391D01*
X33581507Y-85749240D01*
X33553730Y-85803757D01*
X33499213Y-85831534D01*
X33438781Y-85821963D01*
X33413722Y-85803757D01*
X33154496Y-85544531D01*
X33126719Y-85490014D01*
X33125500Y-85474527D01*
X33125500Y-83910155D01*
X33144407Y-83851964D01*
X33186614Y-83818691D01*
X33193667Y-83815769D01*
X33203231Y-83813867D01*
X33269552Y-83769552D01*
X33313867Y-83703231D01*
X33325500Y-83644748D01*
X33325500Y-82755252D01*
X33313867Y-82696769D01*
X33269552Y-82630448D01*
X33203231Y-82586133D01*
X33193668Y-82584231D01*
X33193666Y-82584230D01*
X33170995Y-82579721D01*
X33144748Y-82574500D01*
X32255252Y-82574500D01*
X32229005Y-82579721D01*
X32206334Y-82584230D01*
X32206332Y-82584231D01*
X32196769Y-82586133D01*
X32188660Y-82591551D01*
X32179654Y-82595282D01*
X32178115Y-82591568D01*
X32137397Y-82603029D01*
X32088287Y-82587696D01*
X32024500Y-82547215D01*
X32014619Y-82542396D01*
X31871816Y-82491546D01*
X31864380Y-82489802D01*
X31852485Y-82492157D01*
X31851045Y-82493712D01*
X31850000Y-82498463D01*
X31850000Y-83897934D01*
X31853521Y-83908769D01*
X31864912Y-83908769D01*
X31996135Y-83866132D01*
X32006148Y-83861590D01*
X32090932Y-83811049D01*
X32150597Y-83797493D01*
X32178539Y-83807409D01*
X32179654Y-83804718D01*
X32188660Y-83808449D01*
X32196769Y-83813867D01*
X32206332Y-83815769D01*
X32206334Y-83815770D01*
X32228160Y-83820111D01*
X32255252Y-83825500D01*
X32375500Y-83825500D01*
X32433691Y-83844407D01*
X32469655Y-83893907D01*
X32474500Y-83924500D01*
X32474500Y-85631827D01*
X32474123Y-85640456D01*
X32470736Y-85679168D01*
X32472978Y-85687535D01*
X32480796Y-85716710D01*
X32482666Y-85725144D01*
X32489412Y-85763406D01*
X32493742Y-85770905D01*
X32495738Y-85776390D01*
X32498204Y-85781677D01*
X32500446Y-85790045D01*
X32510048Y-85803757D01*
X32522732Y-85821872D01*
X32527371Y-85829153D01*
X32546806Y-85862816D01*
X32576581Y-85887801D01*
X32582937Y-85893625D01*
X33716456Y-87027144D01*
X33744233Y-87081661D01*
X33734662Y-87142093D01*
X33716456Y-87167152D01*
X33646950Y-87236658D01*
X33643415Y-87243595D01*
X33643414Y-87243597D01*
X33593001Y-87342538D01*
X33589354Y-87349696D01*
X33588136Y-87357387D01*
X33588135Y-87357391D01*
X33579099Y-87414443D01*
X33574500Y-87443481D01*
X33574501Y-87906518D01*
X33575110Y-87910361D01*
X33575110Y-87910366D01*
X33580947Y-87947217D01*
X33589354Y-88000304D01*
X33594952Y-88011290D01*
X33643413Y-88106400D01*
X33646950Y-88113342D01*
X33736658Y-88203050D01*
X33743595Y-88206585D01*
X33743597Y-88206586D01*
X33842428Y-88256943D01*
X33849696Y-88260646D01*
X33857390Y-88261865D01*
X33857391Y-88261865D01*
X33939635Y-88274891D01*
X33939637Y-88274891D01*
X33943481Y-88275500D01*
X34249960Y-88275500D01*
X34556518Y-88275499D01*
X34560361Y-88274890D01*
X34560366Y-88274890D01*
X34597217Y-88269053D01*
X34650304Y-88260646D01*
X34725444Y-88222360D01*
X34756403Y-88206586D01*
X34756405Y-88206585D01*
X34763342Y-88203050D01*
X34853050Y-88113342D01*
X34856586Y-88106403D01*
X34856588Y-88106400D01*
X34883005Y-88054554D01*
X34926270Y-88011290D01*
X34971214Y-88000500D01*
X35299166Y-88000500D01*
X35357357Y-88019407D01*
X35369170Y-88029496D01*
X36559812Y-89220139D01*
X36587589Y-89274656D01*
X36578018Y-89335088D01*
X36533440Y-89379010D01*
X36468145Y-89411068D01*
X36385707Y-89493650D01*
X36334464Y-89598482D01*
X36333355Y-89606084D01*
X36333354Y-89606087D01*
X36325247Y-89661660D01*
X36324500Y-89666782D01*
X36324500Y-91383218D01*
X36325028Y-91386801D01*
X36325028Y-91386808D01*
X36333435Y-91443913D01*
X36334642Y-91452112D01*
X36386068Y-91556855D01*
X36468650Y-91639293D01*
X36573482Y-91690536D01*
X36581084Y-91691645D01*
X36581087Y-91691646D01*
X36638237Y-91699983D01*
X36638239Y-91699983D01*
X36641782Y-91700500D01*
X37008218Y-91700500D01*
X37011808Y-91699972D01*
X37015406Y-91699708D01*
X37015499Y-91700982D01*
X37070918Y-91710376D01*
X37113712Y-91754107D01*
X37124020Y-91798093D01*
X37124020Y-93657682D01*
X37105113Y-93715873D01*
X37095024Y-93727686D01*
X36607943Y-94214767D01*
X36601576Y-94220601D01*
X36571806Y-94245581D01*
X36554371Y-94275780D01*
X36552373Y-94279241D01*
X36547732Y-94286525D01*
X36525447Y-94318351D01*
X36522232Y-94316100D01*
X36487443Y-94351593D01*
X36468145Y-94361068D01*
X36462364Y-94366859D01*
X36454370Y-94374867D01*
X36385707Y-94443650D01*
X36334464Y-94548482D01*
X36334118Y-94550854D01*
X36300389Y-94598709D01*
X36242476Y-94618451D01*
X36184020Y-94600382D01*
X36147645Y-94552263D01*
X36109638Y-94444033D01*
X36102791Y-94431101D01*
X36031192Y-94334165D01*
X36020835Y-94323808D01*
X35923899Y-94252209D01*
X35910966Y-94245362D01*
X35795969Y-94204978D01*
X35784266Y-94202410D01*
X35761082Y-94200218D01*
X35756446Y-94200000D01*
X35720680Y-94200000D01*
X35707995Y-94204122D01*
X35705000Y-94208243D01*
X35705000Y-96734319D01*
X35709122Y-96747004D01*
X35713243Y-96749999D01*
X35756443Y-96749999D01*
X35761086Y-96749780D01*
X35784269Y-96747589D01*
X35795965Y-96745024D01*
X35910966Y-96704638D01*
X35923899Y-96697791D01*
X36020835Y-96626192D01*
X36031192Y-96615835D01*
X36102791Y-96518899D01*
X36109638Y-96505966D01*
X36147644Y-96397741D01*
X36184764Y-96349102D01*
X36243384Y-96331570D01*
X36301113Y-96351843D01*
X36334212Y-96399192D01*
X36334642Y-96402112D01*
X36338032Y-96409016D01*
X36338032Y-96409017D01*
X36348465Y-96430266D01*
X36386068Y-96506855D01*
X36468650Y-96589293D01*
X36573482Y-96640536D01*
X36581084Y-96641645D01*
X36581087Y-96641646D01*
X36638237Y-96649983D01*
X36638239Y-96649983D01*
X36641782Y-96650500D01*
X37008218Y-96650500D01*
X37011801Y-96649972D01*
X37011808Y-96649972D01*
X37069499Y-96641479D01*
X37069501Y-96641478D01*
X37077112Y-96640358D01*
X37181855Y-96588932D01*
X37264293Y-96506350D01*
X37315536Y-96401518D01*
X37316645Y-96393916D01*
X37316646Y-96393913D01*
X37324983Y-96336763D01*
X37324983Y-96336761D01*
X37325500Y-96333218D01*
X37325500Y-94616782D01*
X37322840Y-94598709D01*
X37316479Y-94555501D01*
X37316478Y-94555499D01*
X37315358Y-94547888D01*
X37311968Y-94540983D01*
X37311967Y-94540980D01*
X37307088Y-94531043D01*
X37298416Y-94470476D01*
X37325952Y-94417410D01*
X37666577Y-94076785D01*
X37672945Y-94070950D01*
X37682710Y-94062756D01*
X37702714Y-94045971D01*
X37722149Y-94012308D01*
X37726788Y-94005027D01*
X37735633Y-93992395D01*
X37749074Y-93973200D01*
X37751316Y-93964832D01*
X37753782Y-93959545D01*
X37755778Y-93954060D01*
X37760108Y-93946561D01*
X37762267Y-93934320D01*
X37766854Y-93908300D01*
X37768724Y-93899865D01*
X37776542Y-93870690D01*
X37778784Y-93862323D01*
X37775397Y-93823607D01*
X37775020Y-93814979D01*
X37775020Y-91795039D01*
X37793927Y-91736848D01*
X37843427Y-91700884D01*
X37888311Y-91697076D01*
X37908237Y-91699983D01*
X37908239Y-91699983D01*
X37911782Y-91700500D01*
X38278218Y-91700500D01*
X38281801Y-91699972D01*
X38281808Y-91699972D01*
X38339499Y-91691479D01*
X38339501Y-91691478D01*
X38347112Y-91690358D01*
X38451855Y-91638932D01*
X38534293Y-91556350D01*
X38585536Y-91451518D01*
X38586645Y-91443916D01*
X38586646Y-91443913D01*
X38594983Y-91386763D01*
X38594983Y-91386761D01*
X38595500Y-91383218D01*
X38595500Y-89666782D01*
X38585358Y-89597888D01*
X38533932Y-89493145D01*
X38451350Y-89410707D01*
X38453541Y-89408513D01*
X38425619Y-89370785D01*
X38420500Y-89339364D01*
X38420500Y-88449500D01*
X38439407Y-88391309D01*
X38488907Y-88355345D01*
X38519500Y-88350500D01*
X38558218Y-88350500D01*
X38561801Y-88349972D01*
X38561808Y-88349972D01*
X38619499Y-88341479D01*
X38619501Y-88341478D01*
X38627112Y-88340358D01*
X38731855Y-88288932D01*
X38814293Y-88206350D01*
X38816582Y-88208635D01*
X38853954Y-88180967D01*
X38894019Y-88176220D01*
X38928807Y-88179264D01*
X38966350Y-88169204D01*
X38974784Y-88167334D01*
X39004517Y-88162092D01*
X39004519Y-88162091D01*
X39013045Y-88160588D01*
X39020544Y-88156258D01*
X39026029Y-88154262D01*
X39031316Y-88151796D01*
X39039684Y-88149554D01*
X39071511Y-88127268D01*
X39078795Y-88122627D01*
X39112455Y-88103194D01*
X39137431Y-88073429D01*
X39143265Y-88067061D01*
X39530830Y-87679496D01*
X39585347Y-87651719D01*
X39600834Y-87650500D01*
X39606108Y-87650500D01*
X39664299Y-87669407D01*
X39701734Y-87723877D01*
X39705814Y-87739101D01*
X39706286Y-87740863D01*
X39708155Y-87749294D01*
X39714901Y-87787556D01*
X39719231Y-87795055D01*
X39721227Y-87800540D01*
X39723693Y-87805827D01*
X39725935Y-87814195D01*
X39746502Y-87843567D01*
X39748221Y-87846022D01*
X39752860Y-87853303D01*
X39772295Y-87886966D01*
X39790958Y-87902626D01*
X39802059Y-87911941D01*
X39808427Y-87917775D01*
X40472833Y-88582182D01*
X40500610Y-88636699D01*
X40491039Y-88697131D01*
X40472833Y-88722190D01*
X39813622Y-89381401D01*
X39759105Y-89409178D01*
X39700142Y-89400340D01*
X39639678Y-89370785D01*
X39616518Y-89359464D01*
X39608916Y-89358355D01*
X39608913Y-89358354D01*
X39551763Y-89350017D01*
X39551761Y-89350017D01*
X39548218Y-89349500D01*
X39181782Y-89349500D01*
X39178199Y-89350028D01*
X39178192Y-89350028D01*
X39120501Y-89358521D01*
X39120499Y-89358522D01*
X39112888Y-89359642D01*
X39008145Y-89411068D01*
X38925707Y-89493650D01*
X38874464Y-89598482D01*
X38873355Y-89606084D01*
X38873354Y-89606087D01*
X38865247Y-89661660D01*
X38864500Y-89666782D01*
X38864500Y-91383218D01*
X38865028Y-91386801D01*
X38865028Y-91386808D01*
X38873435Y-91443913D01*
X38874642Y-91452112D01*
X38926068Y-91556855D01*
X39008650Y-91639293D01*
X39113482Y-91690536D01*
X39121084Y-91691645D01*
X39121087Y-91691646D01*
X39178237Y-91699983D01*
X39178239Y-91699983D01*
X39181782Y-91700500D01*
X39548218Y-91700500D01*
X39551801Y-91699972D01*
X39551808Y-91699972D01*
X39609499Y-91691479D01*
X39609501Y-91691478D01*
X39617112Y-91690358D01*
X39721855Y-91638932D01*
X39804293Y-91556350D01*
X39855536Y-91451518D01*
X39856645Y-91443916D01*
X39856646Y-91443913D01*
X39864983Y-91386763D01*
X39864983Y-91386761D01*
X39865500Y-91383218D01*
X39865500Y-90291182D01*
X39884407Y-90232991D01*
X39894490Y-90221186D01*
X39965499Y-90150177D01*
X40020013Y-90122401D01*
X40080445Y-90131972D01*
X40123710Y-90175237D01*
X40134500Y-90220182D01*
X40134500Y-91383218D01*
X40135028Y-91386801D01*
X40135028Y-91386808D01*
X40143435Y-91443913D01*
X40144642Y-91452112D01*
X40196068Y-91556855D01*
X40278650Y-91639293D01*
X40383482Y-91690536D01*
X40391084Y-91691645D01*
X40391087Y-91691646D01*
X40448237Y-91699983D01*
X40448239Y-91699983D01*
X40451782Y-91700500D01*
X40818218Y-91700500D01*
X40821801Y-91699972D01*
X40821808Y-91699972D01*
X40879499Y-91691479D01*
X40879501Y-91691478D01*
X40887112Y-91690358D01*
X40991855Y-91638932D01*
X41074293Y-91556350D01*
X41125536Y-91451518D01*
X41126645Y-91443916D01*
X41126646Y-91443913D01*
X41134983Y-91386763D01*
X41134983Y-91386761D01*
X41135500Y-91383218D01*
X41404500Y-91383218D01*
X41405028Y-91386801D01*
X41405028Y-91386808D01*
X41413435Y-91443913D01*
X41414642Y-91452112D01*
X41466068Y-91556855D01*
X41548650Y-91639293D01*
X41653482Y-91690536D01*
X41661084Y-91691645D01*
X41661087Y-91691646D01*
X41718237Y-91699983D01*
X41718239Y-91699983D01*
X41721782Y-91700500D01*
X42088218Y-91700500D01*
X42091801Y-91699972D01*
X42091808Y-91699972D01*
X42149499Y-91691479D01*
X42149501Y-91691478D01*
X42157112Y-91690358D01*
X42261855Y-91638932D01*
X42344293Y-91556350D01*
X42395536Y-91451518D01*
X42396645Y-91443916D01*
X42396646Y-91443913D01*
X42404983Y-91386763D01*
X42404983Y-91386761D01*
X42405500Y-91383218D01*
X42405500Y-89666782D01*
X42395358Y-89597888D01*
X42343932Y-89493145D01*
X42261350Y-89410707D01*
X42156518Y-89359464D01*
X42148916Y-89358355D01*
X42148913Y-89358354D01*
X42091763Y-89350017D01*
X42091761Y-89350017D01*
X42088218Y-89349500D01*
X41721782Y-89349500D01*
X41718199Y-89350028D01*
X41718192Y-89350028D01*
X41660501Y-89358521D01*
X41660499Y-89358522D01*
X41652888Y-89359642D01*
X41548145Y-89411068D01*
X41465707Y-89493650D01*
X41414464Y-89598482D01*
X41413355Y-89606084D01*
X41413354Y-89606087D01*
X41405247Y-89661660D01*
X41404500Y-89666782D01*
X41404500Y-91383218D01*
X41135500Y-91383218D01*
X41135500Y-89666782D01*
X41125358Y-89597888D01*
X41073932Y-89493145D01*
X40991350Y-89410707D01*
X40976304Y-89403352D01*
X40960596Y-89395674D01*
X40923573Y-89377577D01*
X40879598Y-89335037D01*
X40869025Y-89274772D01*
X40897046Y-89218631D01*
X41027973Y-89087704D01*
X41027975Y-89087701D01*
X41045710Y-89069966D01*
X41052078Y-89064131D01*
X41081847Y-89039152D01*
X41086178Y-89031650D01*
X41091744Y-89025017D01*
X41092170Y-89025375D01*
X41098335Y-89017341D01*
X41368323Y-88747354D01*
X41376354Y-88741191D01*
X41375996Y-88740765D01*
X41382628Y-88735200D01*
X41390130Y-88730869D01*
X41395697Y-88724235D01*
X41396954Y-88723180D01*
X41453684Y-88700261D01*
X41460588Y-88700020D01*
X42906946Y-88700020D01*
X42915575Y-88700397D01*
X42954287Y-88703784D01*
X42991830Y-88693724D01*
X43000264Y-88691854D01*
X43029997Y-88686612D01*
X43029999Y-88686611D01*
X43038525Y-88685108D01*
X43046024Y-88680778D01*
X43051509Y-88678782D01*
X43056796Y-88676316D01*
X43065164Y-88674074D01*
X43096991Y-88651788D01*
X43104275Y-88647147D01*
X43122372Y-88636699D01*
X43137935Y-88627714D01*
X43162911Y-88597949D01*
X43168745Y-88591581D01*
X43241577Y-88518749D01*
X43247945Y-88512914D01*
X43277714Y-88487935D01*
X43297149Y-88454272D01*
X43301788Y-88446991D01*
X43303507Y-88444536D01*
X43324074Y-88415164D01*
X43326316Y-88406796D01*
X43328782Y-88401509D01*
X43330778Y-88396024D01*
X43335108Y-88388525D01*
X43341854Y-88350263D01*
X43343724Y-88341829D01*
X43344071Y-88340536D01*
X43353784Y-88304287D01*
X43350397Y-88265571D01*
X43350020Y-88256943D01*
X43350020Y-87499500D01*
X43368927Y-87441309D01*
X43418427Y-87405345D01*
X43449020Y-87400500D01*
X44558218Y-87400500D01*
X44561801Y-87399972D01*
X44561808Y-87399972D01*
X44619499Y-87391479D01*
X44619501Y-87391478D01*
X44627112Y-87390358D01*
X44731855Y-87338932D01*
X44776802Y-87293907D01*
X44814293Y-87256350D01*
X44816487Y-87258541D01*
X44854215Y-87230619D01*
X44885636Y-87225500D01*
X45044727Y-87225500D01*
X45102918Y-87244407D01*
X45138882Y-87293907D01*
X45138883Y-87349621D01*
X45139354Y-87349696D01*
X45138135Y-87357391D01*
X45129599Y-87411290D01*
X45124500Y-87443481D01*
X45124500Y-87447374D01*
X45124501Y-87698093D01*
X45105594Y-87756283D01*
X45095505Y-87768097D01*
X43582463Y-89281139D01*
X43576096Y-89286973D01*
X43546326Y-89311953D01*
X43541995Y-89319455D01*
X43536429Y-89326088D01*
X43534635Y-89324582D01*
X43498331Y-89357273D01*
X43437481Y-89363670D01*
X43432439Y-89362358D01*
X43426518Y-89359464D01*
X43418916Y-89358355D01*
X43418913Y-89358354D01*
X43361763Y-89350017D01*
X43361761Y-89350017D01*
X43358218Y-89349500D01*
X42991782Y-89349500D01*
X42988199Y-89350028D01*
X42988192Y-89350028D01*
X42930501Y-89358521D01*
X42930499Y-89358522D01*
X42922888Y-89359642D01*
X42818145Y-89411068D01*
X42735707Y-89493650D01*
X42684464Y-89598482D01*
X42683355Y-89606084D01*
X42683354Y-89606087D01*
X42675247Y-89661660D01*
X42674500Y-89666782D01*
X42674500Y-91383218D01*
X42675028Y-91386801D01*
X42675028Y-91386808D01*
X42683435Y-91443913D01*
X42684642Y-91452112D01*
X42736068Y-91556855D01*
X42818650Y-91639293D01*
X42923482Y-91690536D01*
X42931084Y-91691645D01*
X42931087Y-91691646D01*
X42988237Y-91699983D01*
X42988239Y-91699983D01*
X42991782Y-91700500D01*
X43358218Y-91700500D01*
X43361808Y-91699972D01*
X43365406Y-91699708D01*
X43365499Y-91700982D01*
X43420918Y-91710376D01*
X43463712Y-91754107D01*
X43474020Y-91798093D01*
X43474020Y-92724646D01*
X43455113Y-92782837D01*
X43445024Y-92794650D01*
X42594170Y-93645504D01*
X42539653Y-93673281D01*
X42524166Y-93674500D01*
X38845566Y-93674500D01*
X38836937Y-93674123D01*
X38806854Y-93671491D01*
X38798225Y-93670736D01*
X38789858Y-93672978D01*
X38760683Y-93680796D01*
X38752248Y-93682666D01*
X38722515Y-93687908D01*
X38722513Y-93687909D01*
X38713987Y-93689412D01*
X38706488Y-93693742D01*
X38701003Y-93695738D01*
X38695716Y-93698204D01*
X38687348Y-93700446D01*
X38665317Y-93715873D01*
X38655521Y-93722732D01*
X38648240Y-93727371D01*
X38614577Y-93746806D01*
X38609010Y-93753441D01*
X38589601Y-93776571D01*
X38583767Y-93782939D01*
X38096202Y-94270504D01*
X38041685Y-94298281D01*
X38026198Y-94299500D01*
X37911782Y-94299500D01*
X37908199Y-94300028D01*
X37908192Y-94300028D01*
X37850501Y-94308521D01*
X37850499Y-94308522D01*
X37842888Y-94309642D01*
X37835982Y-94313033D01*
X37835981Y-94313033D01*
X37814035Y-94323808D01*
X37738145Y-94361068D01*
X37732364Y-94366859D01*
X37724370Y-94374867D01*
X37655707Y-94443650D01*
X37604464Y-94548482D01*
X37603355Y-94556084D01*
X37603354Y-94556087D01*
X37595024Y-94613192D01*
X37594500Y-94616782D01*
X37594500Y-96333218D01*
X37595028Y-96336801D01*
X37595028Y-96336808D01*
X37597795Y-96355601D01*
X37604642Y-96402112D01*
X37608032Y-96409017D01*
X37608033Y-96409019D01*
X37618465Y-96430266D01*
X37656068Y-96506855D01*
X37738650Y-96589293D01*
X37843482Y-96640536D01*
X37851084Y-96641645D01*
X37851087Y-96641646D01*
X37908237Y-96649983D01*
X37908239Y-96649983D01*
X37911782Y-96650500D01*
X38278218Y-96650500D01*
X38281801Y-96649972D01*
X38281808Y-96649972D01*
X38339499Y-96641479D01*
X38339501Y-96641478D01*
X38347112Y-96640358D01*
X38451855Y-96588932D01*
X38534293Y-96506350D01*
X38585536Y-96401518D01*
X38586645Y-96393916D01*
X38586646Y-96393913D01*
X38594983Y-96336763D01*
X38594983Y-96336761D01*
X38595500Y-96333218D01*
X38595500Y-94732866D01*
X38614407Y-94674675D01*
X38624496Y-94662862D01*
X38695496Y-94591862D01*
X38750013Y-94564085D01*
X38810445Y-94573656D01*
X38853710Y-94616921D01*
X38864500Y-94661866D01*
X38864500Y-96333218D01*
X38865028Y-96336801D01*
X38865028Y-96336808D01*
X38867795Y-96355601D01*
X38874642Y-96402112D01*
X38878032Y-96409017D01*
X38878033Y-96409019D01*
X38888465Y-96430266D01*
X38926068Y-96506855D01*
X39008650Y-96589293D01*
X39015998Y-96592885D01*
X39016001Y-96592887D01*
X39018973Y-96594339D01*
X39021600Y-96596880D01*
X39022664Y-96597639D01*
X39022550Y-96597799D01*
X39062951Y-96636878D01*
X39074500Y-96683283D01*
X39074500Y-96800500D01*
X39055593Y-96858691D01*
X39006093Y-96894655D01*
X38975500Y-96899500D01*
X38871166Y-96899500D01*
X38868865Y-96899718D01*
X38868855Y-96899718D01*
X38845639Y-96901913D01*
X38845638Y-96901913D01*
X38839631Y-96902481D01*
X38711816Y-96947366D01*
X38705865Y-96951761D01*
X38705864Y-96951762D01*
X38608807Y-97023450D01*
X38602850Y-97027850D01*
X38522366Y-97136816D01*
X38477481Y-97264631D01*
X38476913Y-97270638D01*
X38476913Y-97270639D01*
X38475019Y-97290680D01*
X38474500Y-97296166D01*
X38474500Y-97903834D01*
X38474718Y-97906135D01*
X38474718Y-97906145D01*
X38475203Y-97911275D01*
X38477481Y-97935369D01*
X38522366Y-98063184D01*
X38526761Y-98069135D01*
X38526762Y-98069136D01*
X38539545Y-98086442D01*
X38602850Y-98172150D01*
X38608807Y-98176550D01*
X38674391Y-98224991D01*
X38711816Y-98252634D01*
X38839631Y-98297519D01*
X38845638Y-98298087D01*
X38845639Y-98298087D01*
X38868855Y-98300282D01*
X38868865Y-98300282D01*
X38871166Y-98300500D01*
X39928834Y-98300500D01*
X39931135Y-98300282D01*
X39931145Y-98300282D01*
X39954361Y-98298087D01*
X39954362Y-98298087D01*
X39960369Y-98297519D01*
X39966060Y-98295521D01*
X39966067Y-98295519D01*
X39992219Y-98286335D01*
X40053387Y-98284894D01*
X40103720Y-98319683D01*
X40124020Y-98379743D01*
X40124020Y-98614019D01*
X40105113Y-98672210D01*
X40055613Y-98708174D01*
X40007561Y-98709745D01*
X40007427Y-98710854D01*
X39920699Y-98700359D01*
X39914743Y-98700000D01*
X39565680Y-98700000D01*
X39552995Y-98704122D01*
X39550000Y-98708243D01*
X39550000Y-100284320D01*
X39562058Y-100321431D01*
X39569310Y-100331413D01*
X39569309Y-100392598D01*
X39548175Y-100427087D01*
X39548891Y-100427682D01*
X39545971Y-100431196D01*
X39542752Y-100434415D01*
X39540207Y-100438125D01*
X39536771Y-100442038D01*
X39516599Y-100463784D01*
X39513212Y-100472272D01*
X39513212Y-100472273D01*
X39512334Y-100474474D01*
X39502020Y-100493790D01*
X39500679Y-100495745D01*
X39500678Y-100495748D01*
X39495508Y-100503284D01*
X39493398Y-100512176D01*
X39489359Y-100529196D01*
X39484986Y-100543022D01*
X39477706Y-100561270D01*
X39475117Y-100567760D01*
X39474500Y-100574053D01*
X39474500Y-100580222D01*
X39471825Y-100603081D01*
X39469660Y-100612204D01*
X39473596Y-100641125D01*
X39474500Y-100654475D01*
X39474500Y-100959520D01*
X39455593Y-101017711D01*
X39445504Y-101029524D01*
X39425349Y-101049679D01*
X39422220Y-101052379D01*
X39417731Y-101054574D01*
X39411513Y-101061277D01*
X39384107Y-101090821D01*
X39381531Y-101093497D01*
X39367752Y-101107276D01*
X39365207Y-101110986D01*
X39361771Y-101114899D01*
X39341599Y-101136645D01*
X39338212Y-101145133D01*
X39338212Y-101145134D01*
X39337334Y-101147335D01*
X39327020Y-101166651D01*
X39325679Y-101168606D01*
X39325678Y-101168609D01*
X39320508Y-101176145D01*
X39318398Y-101185037D01*
X39314359Y-101202057D01*
X39309986Y-101215883D01*
X39304906Y-101228617D01*
X39300117Y-101240621D01*
X39299500Y-101246914D01*
X39299500Y-101253083D01*
X39296825Y-101275942D01*
X39294660Y-101285065D01*
X39296300Y-101297112D01*
X39298596Y-101313986D01*
X39299500Y-101327336D01*
X39299500Y-101414845D01*
X39280593Y-101473036D01*
X39238369Y-101506316D01*
X39237869Y-101506523D01*
X39178328Y-101511198D01*
X39178231Y-101511133D01*
X39173309Y-101510154D01*
X39173306Y-101510153D01*
X39149734Y-101505465D01*
X39119748Y-101499500D01*
X38480252Y-101499500D01*
X38480252Y-101498725D01*
X38424432Y-101486472D01*
X38383794Y-101440732D01*
X38375500Y-101401066D01*
X38375500Y-101301597D01*
X38377718Y-101280760D01*
X38378547Y-101276912D01*
X38378547Y-101276909D01*
X38380269Y-101268911D01*
X38376186Y-101234413D01*
X38375725Y-101226594D01*
X38375500Y-101223870D01*
X38375500Y-101219785D01*
X38374830Y-101215759D01*
X38374829Y-101215748D01*
X38372265Y-101200345D01*
X38371607Y-101195726D01*
X38366538Y-101152894D01*
X38366538Y-101152893D01*
X38365576Y-101144768D01*
X38362265Y-101137873D01*
X38361422Y-101135208D01*
X38360167Y-101127665D01*
X38335781Y-101082471D01*
X38333688Y-101078362D01*
X38311463Y-101032078D01*
X38307906Y-101027847D01*
X38306397Y-101026338D01*
X38305577Y-101025444D01*
X38304009Y-101023586D01*
X38300806Y-101017649D01*
X38261275Y-100981107D01*
X38258473Y-100978414D01*
X37069802Y-99789743D01*
X38375000Y-99789743D01*
X38375359Y-99795699D01*
X38385090Y-99876113D01*
X38388195Y-99888340D01*
X38438842Y-100016260D01*
X38445408Y-100027913D01*
X38528352Y-100137186D01*
X38537814Y-100146648D01*
X38647087Y-100229592D01*
X38658740Y-100236158D01*
X38786660Y-100286805D01*
X38798887Y-100289910D01*
X38879301Y-100299641D01*
X38885257Y-100300000D01*
X39234320Y-100300000D01*
X39247005Y-100295878D01*
X39250000Y-100291757D01*
X39250000Y-99665680D01*
X39245878Y-99652995D01*
X39241757Y-99650000D01*
X38390680Y-99650000D01*
X38377995Y-99654122D01*
X38375000Y-99658243D01*
X38375000Y-99789743D01*
X37069802Y-99789743D01*
X36800334Y-99520275D01*
X36787168Y-99503972D01*
X36785032Y-99500664D01*
X36780594Y-99493790D01*
X36753311Y-99472281D01*
X36747407Y-99467036D01*
X36745364Y-99465305D01*
X36742484Y-99462425D01*
X36739168Y-99460055D01*
X36739164Y-99460052D01*
X36726463Y-99450976D01*
X36722730Y-99448174D01*
X36688847Y-99421462D01*
X36688846Y-99421462D01*
X36682422Y-99416397D01*
X36675204Y-99413862D01*
X36672727Y-99412576D01*
X36666503Y-99408128D01*
X36658662Y-99405783D01*
X36658660Y-99405782D01*
X36617340Y-99393425D01*
X36612904Y-99391984D01*
X36570347Y-99377039D01*
X36570344Y-99377038D01*
X36564474Y-99374977D01*
X36558967Y-99374500D01*
X36556829Y-99374500D01*
X36555623Y-99374448D01*
X36553197Y-99374242D01*
X36546735Y-99372310D01*
X36538563Y-99372631D01*
X36538562Y-99372631D01*
X36521738Y-99373292D01*
X36462850Y-99356683D01*
X36440487Y-99334320D01*
X38375000Y-99334320D01*
X38379122Y-99347005D01*
X38383243Y-99350000D01*
X39234320Y-99350000D01*
X39247005Y-99345878D01*
X39250000Y-99341757D01*
X39250000Y-98715680D01*
X39245878Y-98702995D01*
X39241757Y-98700000D01*
X38885257Y-98700000D01*
X38879301Y-98700359D01*
X38798887Y-98710090D01*
X38786660Y-98713195D01*
X38658740Y-98763842D01*
X38647087Y-98770408D01*
X38537814Y-98853352D01*
X38528352Y-98862814D01*
X38445408Y-98972087D01*
X38438842Y-98983740D01*
X38388195Y-99111660D01*
X38385090Y-99123887D01*
X38375359Y-99204301D01*
X38375000Y-99210257D01*
X38375000Y-99334320D01*
X36440487Y-99334320D01*
X36435538Y-99329371D01*
X36424973Y-99313560D01*
X36424971Y-99313558D01*
X36419552Y-99305448D01*
X36353231Y-99261133D01*
X36343668Y-99259231D01*
X36343666Y-99259230D01*
X36320995Y-99254721D01*
X36294748Y-99249500D01*
X35805252Y-99249500D01*
X35779005Y-99254721D01*
X35756334Y-99259230D01*
X35756332Y-99259231D01*
X35746769Y-99261133D01*
X35680448Y-99305448D01*
X35636133Y-99371769D01*
X35634231Y-99381332D01*
X35634230Y-99381334D01*
X35631648Y-99394318D01*
X35624500Y-99430252D01*
X35624500Y-100069748D01*
X35636133Y-100128231D01*
X35657815Y-100160680D01*
X35674500Y-100215682D01*
X35674500Y-100282396D01*
X35655593Y-100340587D01*
X35635768Y-100360937D01*
X35621718Y-100371718D01*
X35525464Y-100497159D01*
X35464956Y-100643238D01*
X35444318Y-100800000D01*
X35464956Y-100956762D01*
X35525464Y-101102841D01*
X35621718Y-101228282D01*
X35747159Y-101324536D01*
X35893238Y-101385044D01*
X36006841Y-101400000D01*
X36038151Y-101404122D01*
X36050000Y-101405682D01*
X36061850Y-101404122D01*
X36093159Y-101400000D01*
X36206762Y-101385044D01*
X36352841Y-101324536D01*
X36478282Y-101228282D01*
X36574536Y-101102841D01*
X36635044Y-100956762D01*
X36655682Y-100800000D01*
X36654835Y-100793566D01*
X36638820Y-100671918D01*
X36649970Y-100611757D01*
X36694353Y-100569640D01*
X36755015Y-100561654D01*
X36806977Y-100588992D01*
X37448981Y-101230996D01*
X37476758Y-101285513D01*
X37467187Y-101345945D01*
X37423922Y-101389210D01*
X37378977Y-101400000D01*
X37365680Y-101400000D01*
X37352995Y-101404122D01*
X37350000Y-101408243D01*
X37350000Y-103584320D01*
X37354122Y-103597005D01*
X37358243Y-103600000D01*
X37541639Y-103600000D01*
X37547485Y-103599654D01*
X37563353Y-103597766D01*
X37577519Y-103593872D01*
X37664514Y-103555230D01*
X37679321Y-103545053D01*
X37694791Y-103529557D01*
X37749283Y-103501732D01*
X37764855Y-103500500D01*
X38319748Y-103500500D01*
X38378231Y-103488867D01*
X38378887Y-103492164D01*
X38421664Y-103488797D01*
X38421769Y-103488867D01*
X38480252Y-103500500D01*
X39119748Y-103500500D01*
X39178231Y-103488867D01*
X39178887Y-103492164D01*
X39221664Y-103488797D01*
X39221769Y-103488867D01*
X39280252Y-103500500D01*
X39919748Y-103500500D01*
X39978231Y-103488867D01*
X39978887Y-103492164D01*
X40021664Y-103488797D01*
X40021769Y-103488867D01*
X40080252Y-103500500D01*
X40719748Y-103500500D01*
X40778231Y-103488867D01*
X40778887Y-103492164D01*
X40821664Y-103488797D01*
X40821769Y-103488867D01*
X40880252Y-103500500D01*
X41478477Y-103500500D01*
X41536668Y-103519407D01*
X41572632Y-103568907D01*
X41572632Y-103630093D01*
X41548481Y-103669504D01*
X41222481Y-103995504D01*
X41167964Y-104023281D01*
X41152477Y-104024500D01*
X40517604Y-104024500D01*
X40459413Y-104005593D01*
X40439062Y-103985767D01*
X40432236Y-103976871D01*
X40428282Y-103971718D01*
X40302841Y-103875464D01*
X40156762Y-103814956D01*
X40000000Y-103794318D01*
X39843238Y-103814956D01*
X39697159Y-103875464D01*
X39571718Y-103971718D01*
X39475464Y-104097159D01*
X39414956Y-104243238D01*
X39394318Y-104400000D01*
X39414956Y-104556762D01*
X39442654Y-104623629D01*
X39459009Y-104663114D01*
X39463810Y-104724111D01*
X39431841Y-104776280D01*
X39375313Y-104799695D01*
X39367545Y-104800000D01*
X36242928Y-104800000D01*
X36184737Y-104781093D01*
X36148773Y-104731593D01*
X36148773Y-104670407D01*
X36181164Y-104623629D01*
X36244937Y-104572720D01*
X36252720Y-104564937D01*
X36357785Y-104433324D01*
X36363648Y-104424012D01*
X36436943Y-104272396D01*
X36440598Y-104262017D01*
X36478786Y-104096610D01*
X36479937Y-104088570D01*
X36480000Y-104086374D01*
X36480000Y-103665680D01*
X36475878Y-103652995D01*
X36471757Y-103650000D01*
X34895681Y-103650000D01*
X34882996Y-103654122D01*
X34880001Y-103658243D01*
X34880001Y-104086382D01*
X34880064Y-104088559D01*
X34881217Y-104096619D01*
X34919402Y-104262017D01*
X34923057Y-104272396D01*
X34996352Y-104424012D01*
X35002215Y-104433324D01*
X35107280Y-104564937D01*
X35115063Y-104572720D01*
X35178836Y-104623629D01*
X35212517Y-104674710D01*
X35209742Y-104735832D01*
X35171570Y-104783650D01*
X35117072Y-104800000D01*
X33299000Y-104800000D01*
X33240809Y-104781093D01*
X33204845Y-104731593D01*
X33200000Y-104701000D01*
X33200000Y-103334320D01*
X34880000Y-103334320D01*
X34884122Y-103347005D01*
X34888243Y-103350000D01*
X35514320Y-103350000D01*
X35527005Y-103345878D01*
X35530000Y-103341757D01*
X35530000Y-103334320D01*
X35830000Y-103334320D01*
X35834122Y-103347005D01*
X35838243Y-103350000D01*
X36464317Y-103350000D01*
X36492709Y-103340775D01*
X36553895Y-103340775D01*
X36603395Y-103376739D01*
X36613778Y-103394742D01*
X36644769Y-103464514D01*
X36654946Y-103479321D01*
X36721108Y-103545367D01*
X36735931Y-103555517D01*
X36822980Y-103594000D01*
X36837185Y-103597873D01*
X36852580Y-103599668D01*
X36858292Y-103600000D01*
X37034320Y-103600000D01*
X37047005Y-103595878D01*
X37050000Y-103591757D01*
X37050000Y-102665680D01*
X37045878Y-102652995D01*
X37041757Y-102650000D01*
X36615680Y-102650000D01*
X36602995Y-102654122D01*
X36592909Y-102668004D01*
X36573075Y-102706932D01*
X36518559Y-102734711D01*
X36458127Y-102725141D01*
X36413939Y-102680018D01*
X36363648Y-102575988D01*
X36357785Y-102566676D01*
X36252720Y-102435063D01*
X36244937Y-102427280D01*
X36128488Y-102334320D01*
X36600000Y-102334320D01*
X36604122Y-102347005D01*
X36608243Y-102350000D01*
X37034320Y-102350000D01*
X37047005Y-102345878D01*
X37050000Y-102341757D01*
X37050000Y-101415680D01*
X37045878Y-101402995D01*
X37041757Y-101400000D01*
X36858361Y-101400000D01*
X36852515Y-101400346D01*
X36836647Y-101402234D01*
X36822481Y-101406128D01*
X36735486Y-101444770D01*
X36720679Y-101454946D01*
X36654633Y-101521108D01*
X36644483Y-101535931D01*
X36606000Y-101622980D01*
X36602127Y-101637185D01*
X36600332Y-101652580D01*
X36600000Y-101658292D01*
X36600000Y-102334320D01*
X36128488Y-102334320D01*
X36113324Y-102322215D01*
X36104012Y-102316352D01*
X35952396Y-102243057D01*
X35942018Y-102239402D01*
X35845277Y-102217068D01*
X35832447Y-102218190D01*
X35830000Y-102227015D01*
X35830000Y-103334320D01*
X35530000Y-103334320D01*
X35530000Y-102229221D01*
X35526020Y-102216971D01*
X35516873Y-102216572D01*
X35417982Y-102239402D01*
X35407604Y-102243057D01*
X35255988Y-102316352D01*
X35246676Y-102322215D01*
X35115063Y-102427280D01*
X35107280Y-102435063D01*
X35002215Y-102566676D01*
X34996352Y-102575988D01*
X34923057Y-102727604D01*
X34919402Y-102737983D01*
X34881214Y-102903390D01*
X34880063Y-102911430D01*
X34880000Y-102913627D01*
X34880000Y-103334320D01*
X33200000Y-103334320D01*
X33200000Y-102005877D01*
X33200035Y-101965700D01*
X33200045Y-101954551D01*
X33195058Y-101944164D01*
X33194815Y-101943659D01*
X33187537Y-101922817D01*
X33187330Y-101921907D01*
X33187328Y-101921904D01*
X33184850Y-101911038D01*
X33177480Y-101901789D01*
X33165666Y-101882954D01*
X33165375Y-101882347D01*
X33165372Y-101882343D01*
X33160547Y-101872295D01*
X33151107Y-101864746D01*
X33135516Y-101849128D01*
X33127985Y-101839677D01*
X33117337Y-101834541D01*
X33098522Y-101822692D01*
X33097995Y-101822270D01*
X33097990Y-101822268D01*
X33089285Y-101815306D01*
X33077508Y-101812598D01*
X33056682Y-101805285D01*
X33055836Y-101804877D01*
X33045798Y-101800035D01*
X33034653Y-101800025D01*
X33034652Y-101800025D01*
X33022787Y-101800015D01*
X33022789Y-101798270D01*
X33022723Y-101798276D01*
X33022723Y-101800000D01*
X33005877Y-101800000D01*
X32954840Y-101799955D01*
X32954551Y-101799955D01*
X32954463Y-101799997D01*
X32954439Y-101800000D01*
X30299000Y-101800000D01*
X30240809Y-101781093D01*
X30204845Y-101731593D01*
X30200000Y-101701000D01*
X30200000Y-99500000D01*
X31194532Y-99500000D01*
X31214365Y-99726692D01*
X31273261Y-99946496D01*
X31369432Y-100152734D01*
X31371913Y-100156277D01*
X31371914Y-100156279D01*
X31485763Y-100318873D01*
X31499953Y-100339139D01*
X31660861Y-100500047D01*
X31664399Y-100502524D01*
X31664401Y-100502526D01*
X31843721Y-100628086D01*
X31847266Y-100630568D01*
X32053504Y-100726739D01*
X32142563Y-100750602D01*
X32269131Y-100784516D01*
X32269133Y-100784516D01*
X32273308Y-100785635D01*
X32317795Y-100789527D01*
X32441050Y-100800311D01*
X32441061Y-100800311D01*
X32443216Y-100800500D01*
X32556784Y-100800500D01*
X32558939Y-100800311D01*
X32558950Y-100800311D01*
X32682205Y-100789527D01*
X32726692Y-100785635D01*
X32730867Y-100784516D01*
X32730869Y-100784516D01*
X32857437Y-100750602D01*
X32946496Y-100726739D01*
X33152734Y-100630568D01*
X33156279Y-100628086D01*
X33335599Y-100502526D01*
X33335601Y-100502524D01*
X33339139Y-100500047D01*
X33500047Y-100339139D01*
X33514238Y-100318873D01*
X33628086Y-100156279D01*
X33628087Y-100156277D01*
X33630568Y-100152734D01*
X33726739Y-99946496D01*
X33785635Y-99726692D01*
X33805468Y-99500000D01*
X33785635Y-99273308D01*
X33726739Y-99053504D01*
X33630568Y-98847266D01*
X33615087Y-98825157D01*
X33502526Y-98664401D01*
X33502524Y-98664399D01*
X33500047Y-98660861D01*
X33339139Y-98499953D01*
X33229551Y-98423219D01*
X33156279Y-98371914D01*
X33156277Y-98371913D01*
X33152734Y-98369432D01*
X32946496Y-98273261D01*
X32793388Y-98232236D01*
X32730869Y-98215484D01*
X32730867Y-98215484D01*
X32726692Y-98214365D01*
X32682205Y-98210473D01*
X32558950Y-98199689D01*
X32558939Y-98199689D01*
X32556784Y-98199500D01*
X32443216Y-98199500D01*
X32441061Y-98199689D01*
X32441050Y-98199689D01*
X32317795Y-98210473D01*
X32273308Y-98214365D01*
X32269133Y-98215484D01*
X32269131Y-98215484D01*
X32206612Y-98232236D01*
X32053504Y-98273261D01*
X31847266Y-98369432D01*
X31843723Y-98371913D01*
X31843721Y-98371914D01*
X31770450Y-98423219D01*
X31660861Y-98499953D01*
X31499953Y-98660861D01*
X31497476Y-98664399D01*
X31497474Y-98664401D01*
X31384913Y-98825157D01*
X31369432Y-98847266D01*
X31273261Y-99053504D01*
X31214365Y-99273308D01*
X31194532Y-99500000D01*
X30200000Y-99500000D01*
X30200000Y-62495132D01*
X30218907Y-62436941D01*
X30268407Y-62400977D01*
X30329593Y-62400977D01*
X30379093Y-62436941D01*
X30391048Y-62458688D01*
X30413842Y-62516260D01*
X30420408Y-62527913D01*
X30503352Y-62637186D01*
X30512814Y-62646648D01*
X30622087Y-62729592D01*
X30633740Y-62736158D01*
X30761660Y-62786805D01*
X30773887Y-62789910D01*
X30854301Y-62799641D01*
X30860257Y-62800000D01*
X31059320Y-62800000D01*
X31072005Y-62795878D01*
X31075000Y-62791757D01*
X31075000Y-62784320D01*
X31375000Y-62784320D01*
X31379122Y-62797005D01*
X31383243Y-62800000D01*
X31589743Y-62800000D01*
X31595699Y-62799641D01*
X31676113Y-62789910D01*
X31688340Y-62786805D01*
X31816260Y-62736158D01*
X31827913Y-62729592D01*
X31937186Y-62646648D01*
X31946648Y-62637186D01*
X32029592Y-62527913D01*
X32036158Y-62516260D01*
X32086805Y-62388340D01*
X32089910Y-62376113D01*
X32099641Y-62295699D01*
X32100000Y-62289743D01*
X32100000Y-61765680D01*
X32095878Y-61752995D01*
X32091757Y-61750000D01*
X31390680Y-61750000D01*
X31377995Y-61754122D01*
X31375000Y-61758243D01*
X31375000Y-62784320D01*
X31075000Y-62784320D01*
X31075000Y-61434320D01*
X31375000Y-61434320D01*
X31379122Y-61447005D01*
X31383243Y-61450000D01*
X32084320Y-61450000D01*
X32097005Y-61445878D01*
X32100000Y-61441757D01*
X32100000Y-60910257D01*
X32099641Y-60904301D01*
X32089910Y-60823887D01*
X32086805Y-60811660D01*
X32036158Y-60683740D01*
X32029592Y-60672087D01*
X31946648Y-60562814D01*
X31937186Y-60553352D01*
X31830510Y-60472380D01*
X31795591Y-60422138D01*
X31796873Y-60360966D01*
X31830510Y-60314668D01*
X31887186Y-60271648D01*
X31896648Y-60262186D01*
X31979592Y-60152913D01*
X31986158Y-60141260D01*
X32036805Y-60013340D01*
X32039910Y-60001113D01*
X32049641Y-59920699D01*
X32050000Y-59914743D01*
X32050000Y-59565680D01*
X32045878Y-59552995D01*
X32041757Y-59550000D01*
X31415680Y-59550000D01*
X31402995Y-59554122D01*
X31400000Y-59558243D01*
X31400000Y-60406666D01*
X31381093Y-60464857D01*
X31375000Y-60473243D01*
X31375000Y-61434320D01*
X31075000Y-61434320D01*
X31075000Y-60418334D01*
X31093907Y-60360143D01*
X31100000Y-60351757D01*
X31100000Y-59565680D01*
X31095878Y-59552995D01*
X31091757Y-59550000D01*
X30465680Y-59550000D01*
X30452995Y-59554122D01*
X30450000Y-59558243D01*
X30450000Y-59914743D01*
X30450359Y-59920699D01*
X30460090Y-60001113D01*
X30463195Y-60013340D01*
X30513842Y-60141260D01*
X30520408Y-60152913D01*
X30603352Y-60262186D01*
X30612814Y-60271648D01*
X30647008Y-60297603D01*
X30681927Y-60347846D01*
X30680645Y-60409017D01*
X30643652Y-60457753D01*
X30635750Y-60462710D01*
X30622087Y-60470408D01*
X30512814Y-60553352D01*
X30503352Y-60562814D01*
X30420408Y-60672087D01*
X30413842Y-60683740D01*
X30391048Y-60741312D01*
X30352047Y-60788456D01*
X30292784Y-60803673D01*
X30235895Y-60781149D01*
X30203110Y-60729489D01*
X30200000Y-60704868D01*
X30200000Y-59234320D01*
X30450000Y-59234320D01*
X30454122Y-59247005D01*
X30458243Y-59250000D01*
X31084320Y-59250000D01*
X31097005Y-59245878D01*
X31100000Y-59241757D01*
X31100000Y-59234320D01*
X31400000Y-59234320D01*
X31404122Y-59247005D01*
X31408243Y-59250000D01*
X32034320Y-59250000D01*
X32047005Y-59245878D01*
X32050000Y-59241757D01*
X32050000Y-58885257D01*
X32049641Y-58879301D01*
X32039910Y-58798887D01*
X32036805Y-58786660D01*
X31986158Y-58658740D01*
X31979592Y-58647087D01*
X31896648Y-58537814D01*
X31887186Y-58528352D01*
X31777913Y-58445408D01*
X31766260Y-58438842D01*
X31638340Y-58388195D01*
X31626113Y-58385090D01*
X31545699Y-58375359D01*
X31539743Y-58375000D01*
X31415680Y-58375000D01*
X31402995Y-58379122D01*
X31400000Y-58383243D01*
X31400000Y-59234320D01*
X31100000Y-59234320D01*
X31100000Y-58390680D01*
X31095878Y-58377995D01*
X31091757Y-58375000D01*
X30960257Y-58375000D01*
X30954301Y-58375359D01*
X30873887Y-58385090D01*
X30861660Y-58388195D01*
X30733740Y-58438842D01*
X30722087Y-58445408D01*
X30612814Y-58528352D01*
X30603352Y-58537814D01*
X30520408Y-58647087D01*
X30513842Y-58658740D01*
X30463195Y-58786660D01*
X30460090Y-58798887D01*
X30450359Y-58879301D01*
X30450000Y-58885257D01*
X30450000Y-59234320D01*
X30200000Y-59234320D01*
X30200000Y-51569748D01*
X30849500Y-51569748D01*
X30861133Y-51628231D01*
X30905448Y-51694552D01*
X30971769Y-51738867D01*
X30981332Y-51740769D01*
X30981334Y-51740770D01*
X31004005Y-51745279D01*
X31030252Y-51750500D01*
X33569748Y-51750500D01*
X33595995Y-51745279D01*
X33618666Y-51740770D01*
X33618668Y-51740769D01*
X33628231Y-51738867D01*
X33694552Y-51694552D01*
X33738867Y-51628231D01*
X33750500Y-51569748D01*
X33750500Y-51424500D01*
X33769407Y-51366309D01*
X33818907Y-51330345D01*
X33849500Y-51325500D01*
X34381466Y-51325500D01*
X34390095Y-51325877D01*
X34428807Y-51329264D01*
X34466350Y-51319204D01*
X34474784Y-51317334D01*
X34504517Y-51312092D01*
X34504519Y-51312091D01*
X34513045Y-51310588D01*
X34520544Y-51306258D01*
X34526029Y-51304262D01*
X34531316Y-51301796D01*
X34539684Y-51299554D01*
X34571511Y-51277268D01*
X34578795Y-51272627D01*
X34612455Y-51253194D01*
X34637431Y-51223429D01*
X34643265Y-51217061D01*
X36437033Y-49423293D01*
X36491550Y-49395516D01*
X36519955Y-49395144D01*
X36600000Y-49405682D01*
X36756762Y-49385044D01*
X36902841Y-49324536D01*
X37028282Y-49228282D01*
X37124536Y-49102841D01*
X37185044Y-48956762D01*
X37205682Y-48800000D01*
X37185044Y-48643238D01*
X37124536Y-48497159D01*
X37028282Y-48371718D01*
X36902841Y-48275464D01*
X36756762Y-48214956D01*
X36600000Y-48194318D01*
X36443238Y-48214956D01*
X36297159Y-48275464D01*
X36171718Y-48371718D01*
X36075464Y-48497159D01*
X36014956Y-48643238D01*
X36014109Y-48649671D01*
X36014108Y-48649675D01*
X36011703Y-48667949D01*
X35985363Y-48723175D01*
X35931593Y-48752371D01*
X35870931Y-48744386D01*
X35827815Y-48704531D01*
X35827017Y-48703150D01*
X35824536Y-48697159D01*
X35728282Y-48571718D01*
X35602841Y-48475464D01*
X35456762Y-48414956D01*
X35300000Y-48394318D01*
X35143238Y-48414956D01*
X34997159Y-48475464D01*
X34871718Y-48571718D01*
X34867764Y-48576871D01*
X34822572Y-48635767D01*
X34772148Y-48670423D01*
X34744030Y-48674500D01*
X33849500Y-48674500D01*
X33791309Y-48655593D01*
X33755345Y-48606093D01*
X33750500Y-48575500D01*
X33750500Y-48430252D01*
X33738867Y-48371769D01*
X33694552Y-48305448D01*
X33628231Y-48261133D01*
X33618668Y-48259231D01*
X33618666Y-48259230D01*
X33595995Y-48254721D01*
X33569748Y-48249500D01*
X31030252Y-48249500D01*
X31004005Y-48254721D01*
X30981334Y-48259230D01*
X30981332Y-48259231D01*
X30971769Y-48261133D01*
X30905448Y-48305448D01*
X30861133Y-48371769D01*
X30849500Y-48430252D01*
X30849500Y-49569748D01*
X30850448Y-49574512D01*
X30859092Y-49617969D01*
X30861133Y-49628231D01*
X30905448Y-49694552D01*
X30971769Y-49738867D01*
X30981332Y-49740769D01*
X30981334Y-49740770D01*
X31004005Y-49745279D01*
X31030252Y-49750500D01*
X33569748Y-49750500D01*
X33595995Y-49745279D01*
X33618666Y-49740770D01*
X33618668Y-49740769D01*
X33628231Y-49738867D01*
X33694552Y-49694552D01*
X33738867Y-49628231D01*
X33740909Y-49617969D01*
X33749552Y-49574512D01*
X33750500Y-49569748D01*
X33750500Y-49424500D01*
X33769407Y-49366309D01*
X33818907Y-49330345D01*
X33849500Y-49325500D01*
X34744030Y-49325500D01*
X34802221Y-49344407D01*
X34822571Y-49364232D01*
X34871718Y-49428282D01*
X34997159Y-49524536D01*
X35143238Y-49585044D01*
X35146242Y-49585440D01*
X35196333Y-49617969D01*
X35218259Y-49675091D01*
X35202423Y-49734191D01*
X35189399Y-49750275D01*
X34294170Y-50645504D01*
X34239653Y-50673281D01*
X34224166Y-50674500D01*
X33849500Y-50674500D01*
X33791309Y-50655593D01*
X33755345Y-50606093D01*
X33750500Y-50575500D01*
X33750500Y-50430252D01*
X33738867Y-50371769D01*
X33694552Y-50305448D01*
X33628231Y-50261133D01*
X33618668Y-50259231D01*
X33618666Y-50259230D01*
X33595995Y-50254721D01*
X33569748Y-50249500D01*
X31030252Y-50249500D01*
X31004005Y-50254721D01*
X30981334Y-50259230D01*
X30981332Y-50259231D01*
X30971769Y-50261133D01*
X30905448Y-50305448D01*
X30861133Y-50371769D01*
X30849500Y-50430252D01*
X30849500Y-51569748D01*
X30200000Y-51569748D01*
X30200000Y-47569748D01*
X30849500Y-47569748D01*
X30861133Y-47628231D01*
X30905448Y-47694552D01*
X30971769Y-47738867D01*
X30981332Y-47740769D01*
X30981334Y-47740770D01*
X31004005Y-47745279D01*
X31030252Y-47750500D01*
X33569748Y-47750500D01*
X33595995Y-47745279D01*
X33618666Y-47740770D01*
X33618668Y-47740769D01*
X33628231Y-47738867D01*
X33694552Y-47694552D01*
X33738867Y-47628231D01*
X33750500Y-47569748D01*
X33750500Y-47431629D01*
X33769407Y-47373438D01*
X33818907Y-47337474D01*
X33880093Y-47337474D01*
X33928042Y-47371362D01*
X33971718Y-47428282D01*
X34097159Y-47524536D01*
X34243238Y-47585044D01*
X34400000Y-47605682D01*
X34556762Y-47585044D01*
X34702841Y-47524536D01*
X34828282Y-47428282D01*
X34924536Y-47302841D01*
X34985044Y-47156762D01*
X35005682Y-47000000D01*
X34985044Y-46843238D01*
X34924536Y-46697159D01*
X34828282Y-46571718D01*
X34702841Y-46475464D01*
X34556762Y-46414956D01*
X34400000Y-46394318D01*
X34243238Y-46414956D01*
X34097159Y-46475464D01*
X33971718Y-46571718D01*
X33967764Y-46576871D01*
X33928042Y-46628638D01*
X33877618Y-46663294D01*
X33816453Y-46661693D01*
X33767912Y-46624445D01*
X33750500Y-46568371D01*
X33750500Y-46430252D01*
X33738867Y-46371769D01*
X33694552Y-46305448D01*
X33628231Y-46261133D01*
X33618668Y-46259231D01*
X33618666Y-46259230D01*
X33595995Y-46254721D01*
X33569748Y-46249500D01*
X31030252Y-46249500D01*
X31004005Y-46254721D01*
X30981334Y-46259230D01*
X30981332Y-46259231D01*
X30971769Y-46261133D01*
X30905448Y-46305448D01*
X30861133Y-46371769D01*
X30849500Y-46430252D01*
X30849500Y-47569748D01*
X30200000Y-47569748D01*
X30200000Y-39899000D01*
X30218907Y-39840809D01*
X30268407Y-39804845D01*
X30299000Y-39800000D01*
X49701000Y-39800000D01*
X49759191Y-39818907D01*
G37*
%TD.AperFunction*%
%TA.AperFunction,Conductor*%
G36*
X44293787Y-65519407D02*
G01*
X44329751Y-65568907D01*
X44329751Y-65630093D01*
X44294968Y-65678721D01*
X44248458Y-65713578D01*
X44238581Y-65723455D01*
X44161143Y-65826781D01*
X44154443Y-65839018D01*
X44108822Y-65960713D01*
X44105971Y-65972702D01*
X44100289Y-66025009D01*
X44100000Y-66030343D01*
X44100000Y-66109320D01*
X44104122Y-66122005D01*
X44108243Y-66125000D01*
X45101000Y-66125000D01*
X45159191Y-66143907D01*
X45195155Y-66193407D01*
X45200000Y-66224000D01*
X45200000Y-66959320D01*
X45204122Y-66972005D01*
X45208243Y-66975000D01*
X45544657Y-66975000D01*
X45549993Y-66974711D01*
X45589329Y-66970438D01*
X45649221Y-66982950D01*
X45690320Y-67028277D01*
X45699020Y-67068859D01*
X45699020Y-73885116D01*
X45680113Y-73943307D01*
X45630613Y-73979271D01*
X45584535Y-73982897D01*
X45531519Y-73974500D01*
X45050062Y-73974500D01*
X44568482Y-73974501D01*
X44564639Y-73975110D01*
X44564634Y-73975110D01*
X44482392Y-73988135D01*
X44482391Y-73988135D01*
X44474696Y-73989354D01*
X44467754Y-73992891D01*
X44462325Y-73994655D01*
X44431734Y-73999500D01*
X43779925Y-73999500D01*
X43721734Y-73980593D01*
X43686517Y-73933302D01*
X43670918Y-73888883D01*
X43652634Y-73836816D01*
X43622166Y-73795565D01*
X43576550Y-73733807D01*
X43572150Y-73727850D01*
X43566193Y-73723450D01*
X43469136Y-73651762D01*
X43469135Y-73651761D01*
X43463184Y-73647366D01*
X43335369Y-73602481D01*
X43329362Y-73601913D01*
X43329361Y-73601913D01*
X43306145Y-73599718D01*
X43306135Y-73599718D01*
X43303834Y-73599500D01*
X41896166Y-73599500D01*
X41893865Y-73599718D01*
X41893855Y-73599718D01*
X41870639Y-73601913D01*
X41870638Y-73601913D01*
X41864631Y-73602481D01*
X41736816Y-73647366D01*
X41736226Y-73645687D01*
X41685068Y-73654614D01*
X41630123Y-73627694D01*
X41601494Y-73573620D01*
X41600020Y-73556602D01*
X41600020Y-72348685D01*
X41618927Y-72290494D01*
X41668427Y-72254530D01*
X41735464Y-72256637D01*
X41811660Y-72286805D01*
X41823887Y-72289910D01*
X41904301Y-72299641D01*
X41910257Y-72300000D01*
X42434320Y-72300000D01*
X42447005Y-72295878D01*
X42450000Y-72291757D01*
X42450000Y-72284320D01*
X42750000Y-72284320D01*
X42754122Y-72297005D01*
X42758243Y-72300000D01*
X43289743Y-72300000D01*
X43295699Y-72299641D01*
X43376113Y-72289910D01*
X43388340Y-72286805D01*
X43516260Y-72236158D01*
X43527913Y-72229592D01*
X43637186Y-72146648D01*
X43646648Y-72137186D01*
X43729592Y-72027913D01*
X43736158Y-72016260D01*
X43786805Y-71888340D01*
X43789910Y-71876113D01*
X43799641Y-71795699D01*
X43800000Y-71789743D01*
X43800000Y-71590680D01*
X43795878Y-71577995D01*
X43791757Y-71575000D01*
X42765680Y-71575000D01*
X42752995Y-71579122D01*
X42750000Y-71583243D01*
X42750000Y-72284320D01*
X42450000Y-72284320D01*
X42450000Y-71259320D01*
X42750000Y-71259320D01*
X42754122Y-71272005D01*
X42758243Y-71275000D01*
X43784320Y-71275000D01*
X43797005Y-71270878D01*
X43800000Y-71266757D01*
X43800000Y-71060257D01*
X43799641Y-71054301D01*
X43789910Y-70973887D01*
X43786805Y-70961660D01*
X43736158Y-70833740D01*
X43729592Y-70822087D01*
X43646648Y-70712814D01*
X43637186Y-70703352D01*
X43527913Y-70620408D01*
X43516260Y-70613842D01*
X43388340Y-70563195D01*
X43376113Y-70560090D01*
X43295699Y-70550359D01*
X43289743Y-70550000D01*
X42765680Y-70550000D01*
X42752995Y-70554122D01*
X42750000Y-70558243D01*
X42750000Y-71259320D01*
X42450000Y-71259320D01*
X42450000Y-70565680D01*
X42445878Y-70552995D01*
X42441757Y-70550000D01*
X41910257Y-70550000D01*
X41904301Y-70550359D01*
X41823887Y-70560090D01*
X41811660Y-70563195D01*
X41683740Y-70613842D01*
X41672087Y-70620408D01*
X41562814Y-70703352D01*
X41553352Y-70712814D01*
X41470408Y-70822087D01*
X41463842Y-70833740D01*
X41413195Y-70961660D01*
X41410090Y-70973886D01*
X41408796Y-70984580D01*
X41383034Y-71040077D01*
X41329572Y-71069833D01*
X41268830Y-71062482D01*
X41240509Y-71042689D01*
X41080595Y-70882775D01*
X41067429Y-70866472D01*
X41065293Y-70863164D01*
X41060855Y-70856290D01*
X41033572Y-70834781D01*
X41027668Y-70829536D01*
X41025625Y-70827805D01*
X41022745Y-70824925D01*
X41019429Y-70822555D01*
X41019425Y-70822552D01*
X41006724Y-70813476D01*
X41002991Y-70810674D01*
X40999681Y-70808064D01*
X40962683Y-70778897D01*
X40955465Y-70776362D01*
X40952988Y-70775076D01*
X40946764Y-70770628D01*
X40938923Y-70768283D01*
X40938921Y-70768282D01*
X40897601Y-70755925D01*
X40893165Y-70754484D01*
X40850608Y-70739539D01*
X40850605Y-70739538D01*
X40844735Y-70737477D01*
X40839228Y-70737000D01*
X40837090Y-70737000D01*
X40835884Y-70736948D01*
X40833458Y-70736742D01*
X40826996Y-70734810D01*
X40818824Y-70735131D01*
X40818823Y-70735131D01*
X40773193Y-70736924D01*
X40769306Y-70737000D01*
X37658046Y-70737000D01*
X37599855Y-70718093D01*
X37563891Y-70668593D01*
X37563891Y-70607407D01*
X37588042Y-70567996D01*
X37600076Y-70555962D01*
X37600079Y-70555958D01*
X39716294Y-68439743D01*
X41300000Y-68439743D01*
X41300359Y-68445699D01*
X41310090Y-68526113D01*
X41313195Y-68538340D01*
X41363842Y-68666260D01*
X41370408Y-68677913D01*
X41453352Y-68787186D01*
X41462814Y-68796648D01*
X41572087Y-68879592D01*
X41583740Y-68886158D01*
X41711660Y-68936805D01*
X41723887Y-68939910D01*
X41804301Y-68949641D01*
X41810257Y-68950000D01*
X42334320Y-68950000D01*
X42347005Y-68945878D01*
X42350000Y-68941757D01*
X42350000Y-68934320D01*
X42650000Y-68934320D01*
X42654122Y-68947005D01*
X42658243Y-68950000D01*
X43189743Y-68950000D01*
X43195699Y-68949641D01*
X43276113Y-68939910D01*
X43288340Y-68936805D01*
X43416260Y-68886158D01*
X43427913Y-68879592D01*
X43537186Y-68796648D01*
X43546648Y-68787186D01*
X43629592Y-68677913D01*
X43636158Y-68666260D01*
X43686805Y-68538340D01*
X43689910Y-68526113D01*
X43699641Y-68445699D01*
X43700000Y-68439743D01*
X43700000Y-68240680D01*
X43695878Y-68227995D01*
X43691757Y-68225000D01*
X42665680Y-68225000D01*
X42652995Y-68229122D01*
X42650000Y-68233243D01*
X42650000Y-68934320D01*
X42350000Y-68934320D01*
X42350000Y-68240680D01*
X42345878Y-68227995D01*
X42341757Y-68225000D01*
X41315680Y-68225000D01*
X41302995Y-68229122D01*
X41300000Y-68233243D01*
X41300000Y-68439743D01*
X39716294Y-68439743D01*
X40246717Y-67909320D01*
X41300000Y-67909320D01*
X41304122Y-67922005D01*
X41308243Y-67925000D01*
X42334320Y-67925000D01*
X42347005Y-67920878D01*
X42350000Y-67916757D01*
X42350000Y-67909320D01*
X42650000Y-67909320D01*
X42654122Y-67922005D01*
X42658243Y-67925000D01*
X43684320Y-67925000D01*
X43697005Y-67920878D01*
X43700000Y-67916757D01*
X43700000Y-67710257D01*
X43699641Y-67704301D01*
X43689910Y-67623887D01*
X43686805Y-67611660D01*
X43636158Y-67483740D01*
X43629592Y-67472087D01*
X43546648Y-67362814D01*
X43537186Y-67353352D01*
X43427913Y-67270408D01*
X43416260Y-67263842D01*
X43288340Y-67213195D01*
X43276113Y-67210090D01*
X43195699Y-67200359D01*
X43189743Y-67200000D01*
X42665680Y-67200000D01*
X42652995Y-67204122D01*
X42650000Y-67208243D01*
X42650000Y-67909320D01*
X42350000Y-67909320D01*
X42350000Y-67215680D01*
X42345878Y-67202995D01*
X42341757Y-67200000D01*
X41810257Y-67200000D01*
X41804301Y-67200359D01*
X41723887Y-67210090D01*
X41711660Y-67213195D01*
X41583740Y-67263842D01*
X41572087Y-67270408D01*
X41462814Y-67353352D01*
X41453352Y-67362814D01*
X41370408Y-67472087D01*
X41363842Y-67483740D01*
X41313195Y-67611660D01*
X41310090Y-67623887D01*
X41300359Y-67704301D01*
X41300000Y-67710257D01*
X41300000Y-67909320D01*
X40246717Y-67909320D01*
X41636380Y-66519657D01*
X44100000Y-66519657D01*
X44100289Y-66524991D01*
X44105971Y-66577298D01*
X44108822Y-66589287D01*
X44154443Y-66710982D01*
X44161143Y-66723219D01*
X44238581Y-66826545D01*
X44248455Y-66836419D01*
X44351781Y-66913857D01*
X44364018Y-66920557D01*
X44485713Y-66966178D01*
X44497702Y-66969029D01*
X44550009Y-66974711D01*
X44555343Y-66975000D01*
X44884320Y-66975000D01*
X44897005Y-66970878D01*
X44900000Y-66966757D01*
X44900000Y-66440680D01*
X44895878Y-66427995D01*
X44891757Y-66425000D01*
X44115680Y-66425000D01*
X44102995Y-66429122D01*
X44100000Y-66433243D01*
X44100000Y-66519657D01*
X41636380Y-66519657D01*
X42226541Y-65929496D01*
X42281058Y-65901719D01*
X42296545Y-65900500D01*
X43203834Y-65900500D01*
X43206135Y-65900282D01*
X43206145Y-65900282D01*
X43229361Y-65898087D01*
X43229362Y-65898087D01*
X43235369Y-65897519D01*
X43363184Y-65852634D01*
X43381619Y-65839018D01*
X43466193Y-65776550D01*
X43472150Y-65772150D01*
X43552634Y-65663184D01*
X43586517Y-65566698D01*
X43623637Y-65518059D01*
X43679925Y-65500500D01*
X44235596Y-65500500D01*
X44293787Y-65519407D01*
G37*
%TD.AperFunction*%
%TD*%
M02*
