%TF.GenerationSoftware,KiCad,Pcbnew,6.0.2*%
%TF.CreationDate,2022-03-25T15:37:28+01:00*%
%TF.ProjectId,espriktning,65737072-696b-4746-9e69-6e672e6b6963,rev?*%
%TF.SameCoordinates,Original*%
%TF.FileFunction,Copper,L2,Bot*%
%TF.FilePolarity,Positive*%
%FSLAX46Y46*%
G04 Gerber Fmt 4.6, Leading zero omitted, Abs format (unit mm)*
G04 Created by KiCad (PCBNEW 6.0.2) date 2022-03-25 15:37:28*
%MOMM*%
%LPD*%
G01*
G04 APERTURE LIST*
G04 Aperture macros list*
%AMRoundRect*
0 Rectangle with rounded corners*
0 $1 Rounding radius*
0 $2 $3 $4 $5 $6 $7 $8 $9 X,Y pos of 4 corners*
0 Add a 4 corners polygon primitive as box body*
4,1,4,$2,$3,$4,$5,$6,$7,$8,$9,$2,$3,0*
0 Add four circle primitives for the rounded corners*
1,1,$1+$1,$2,$3*
1,1,$1+$1,$4,$5*
1,1,$1+$1,$6,$7*
1,1,$1+$1,$8,$9*
0 Add four rect primitives between the rounded corners*
20,1,$1+$1,$2,$3,$4,$5,0*
20,1,$1+$1,$4,$5,$6,$7,0*
20,1,$1+$1,$6,$7,$8,$9,0*
20,1,$1+$1,$8,$9,$2,$3,0*%
G04 Aperture macros list end*
%ADD10C,0.200000*%
%TA.AperFunction,NonConductor*%
%ADD11C,0.200000*%
%TD*%
%TA.AperFunction,ComponentPad*%
%ADD12RoundRect,0.500000X0.000000X-0.500000X0.000000X-0.500000X0.000000X0.500000X0.000000X0.500000X0*%
%TD*%
%TA.AperFunction,ComponentPad*%
%ADD13R,0.850000X0.850000*%
%TD*%
%TA.AperFunction,ComponentPad*%
%ADD14O,0.850000X0.850000*%
%TD*%
%TA.AperFunction,SMDPad,CuDef*%
%ADD15R,0.600000X0.500000*%
%TD*%
%TA.AperFunction,SMDPad,CuDef*%
%ADD16R,0.600000X1.620000*%
%TD*%
%TA.AperFunction,SMDPad,CuDef*%
%ADD17R,0.600000X0.700000*%
%TD*%
%TA.AperFunction,SMDPad,CuDef*%
%ADD18R,1.620000X0.600000*%
%TD*%
%TA.AperFunction,SMDPad,CuDef*%
%ADD19R,0.500000X0.600000*%
%TD*%
%TA.AperFunction,SMDPad,CuDef*%
%ADD20R,0.700000X0.600000*%
%TD*%
%TA.AperFunction,SMDPad,CuDef*%
%ADD21RoundRect,0.250000X0.312500X1.075000X-0.312500X1.075000X-0.312500X-1.075000X0.312500X-1.075000X0*%
%TD*%
%TA.AperFunction,SMDPad,CuDef*%
%ADD22RoundRect,0.250000X0.325000X0.650000X-0.325000X0.650000X-0.325000X-0.650000X0.325000X-0.650000X0*%
%TD*%
%TA.AperFunction,SMDPad,CuDef*%
%ADD23RoundRect,0.200000X-0.200000X-0.275000X0.200000X-0.275000X0.200000X0.275000X-0.200000X0.275000X0*%
%TD*%
%TA.AperFunction,ViaPad*%
%ADD24C,0.800000*%
%TD*%
%TA.AperFunction,Conductor*%
%ADD25C,0.250000*%
%TD*%
%TA.AperFunction,Conductor*%
%ADD26C,0.350000*%
%TD*%
G04 APERTURE END LIST*
D10*
D11*
X48497619Y-62723809D02*
X49597619Y-63090476D01*
X48497619Y-63457142D01*
X49597619Y-64400000D02*
X49597619Y-63771428D01*
X49597619Y-64085714D02*
X48497619Y-64085714D01*
X48654761Y-63980952D01*
X48759523Y-63876190D01*
X48811904Y-63771428D01*
X49492857Y-64871428D02*
X49545238Y-64923809D01*
X49597619Y-64871428D01*
X49545238Y-64819047D01*
X49492857Y-64871428D01*
X49597619Y-64871428D01*
X48497619Y-65604761D02*
X48497619Y-65709523D01*
X48550000Y-65814285D01*
X48602380Y-65866666D01*
X48707142Y-65919047D01*
X48916666Y-65971428D01*
X49178571Y-65971428D01*
X49388095Y-65919047D01*
X49492857Y-65866666D01*
X49545238Y-65814285D01*
X49597619Y-65709523D01*
X49597619Y-65604761D01*
X49545238Y-65500000D01*
X49492857Y-65447619D01*
X49388095Y-65395238D01*
X49178571Y-65342857D01*
X48916666Y-65342857D01*
X48707142Y-65395238D01*
X48602380Y-65447619D01*
X48550000Y-65500000D01*
X48497619Y-65604761D01*
D12*
%TO.P,J1,S1,SHIELD*%
%TO.N,GND*%
X44320000Y-103500000D03*
X35680000Y-103500000D03*
%TD*%
D13*
%TO.P,SW1,1,1*%
%TO.N,RST*%
X32700000Y-83200000D03*
D14*
%TO.P,SW1,2,2*%
%TO.N,GND*%
X31700000Y-83200000D03*
%TD*%
D13*
%TO.P,SW2,1,1*%
%TO.N,GPIO0*%
X48300000Y-83200000D03*
D14*
%TO.P,SW2,2,2*%
%TO.N,GND*%
X47300000Y-83200000D03*
%TD*%
D13*
%TO.P,J4,1,Pin_1*%
%TO.N,GPIO16*%
X32100000Y-73700000D03*
D14*
%TO.P,J4,2,Pin_2*%
%TO.N,GPIO14*%
X32100000Y-74700000D03*
%TO.P,J4,3,Pin_3*%
%TO.N,GPIO12*%
X32100000Y-75700000D03*
%TO.P,J4,4,Pin_4*%
%TO.N,GPIO9*%
X32100000Y-76700000D03*
%TO.P,J4,5,Pin_5*%
%TO.N,GPIO10*%
X32100000Y-77700000D03*
%TO.P,J4,6,Pin_6*%
%TO.N,GPIO15*%
X32100000Y-78700000D03*
%TO.P,J4,7,Pin_7*%
%TO.N,GPIO2*%
X32100000Y-79700000D03*
%TO.P,J4,8,Pin_8*%
%TO.N,GPIO0*%
X32100000Y-80700000D03*
%TD*%
D15*
%TO.P,D2,1,VSS*%
%TO.N,GND*%
X39575000Y-41450000D03*
D16*
X40375000Y-42000000D03*
D17*
%TO.P,D2,2,DIN*%
%TO.N,GPIO14*%
X39575000Y-39550000D03*
D16*
%TO.P,D2,3,VDD*%
%TO.N,+5V*%
X40375000Y-40000000D03*
D15*
X39575000Y-40550000D03*
D17*
%TO.P,D2,4,DOUT*%
%TO.N,Net-(D2-Pad4)*%
X39575000Y-42450000D03*
%TD*%
D15*
%TO.P,D3,1,VSS*%
%TO.N,GND*%
X39575000Y-56450000D03*
D16*
X40375000Y-57000000D03*
D17*
%TO.P,D3,2,DIN*%
%TO.N,Net-(D2-Pad4)*%
X39575000Y-54550000D03*
D15*
%TO.P,D3,3,VDD*%
%TO.N,+5V*%
X39575000Y-55550000D03*
D16*
X40375000Y-55000000D03*
D17*
%TO.P,D3,4,DOUT*%
%TO.N,Net-(D3-Pad4)*%
X39575000Y-57450000D03*
%TD*%
D15*
%TO.P,D4,1,VSS*%
%TO.N,GND*%
X39575000Y-71450000D03*
D16*
X40375000Y-72000000D03*
D17*
%TO.P,D4,2,DIN*%
%TO.N,Net-(D3-Pad4)*%
X39575000Y-69550000D03*
D16*
%TO.P,D4,3,VDD*%
%TO.N,+5V*%
X40375000Y-70000000D03*
D15*
X39575000Y-70550000D03*
D17*
%TO.P,D4,4,DOUT*%
%TO.N,Net-(D4-Pad4)*%
X39575000Y-72450000D03*
%TD*%
D18*
%TO.P,D5,1,VSS*%
%TO.N,GND*%
X45250000Y-84225000D03*
D19*
X44700000Y-85025000D03*
D20*
%TO.P,D5,2,DIN*%
%TO.N,Net-(D4-Pad4)*%
X42800000Y-85025000D03*
D19*
%TO.P,D5,3,VDD*%
%TO.N,+5V*%
X43800000Y-85025000D03*
D18*
X43250000Y-84225000D03*
D20*
%TO.P,D5,4,DOUT*%
%TO.N,Net-(D5-Pad4)*%
X45700000Y-85025000D03*
%TD*%
D16*
%TO.P,D6,1,VSS*%
%TO.N,GND*%
X47475000Y-88400000D03*
D15*
X46675000Y-87850000D03*
D17*
%TO.P,D6,2,DIN*%
%TO.N,Net-(D5-Pad4)*%
X46675000Y-85950000D03*
D15*
%TO.P,D6,3,VDD*%
%TO.N,+5V*%
X46675000Y-86950000D03*
D16*
X47475000Y-86400000D03*
D17*
%TO.P,D6,4,DOUT*%
%TO.N,Net-(D6-Pad4)*%
X46675000Y-88850000D03*
%TD*%
D16*
%TO.P,D7,1,VSS*%
%TO.N,GND*%
X41025000Y-86400000D03*
D15*
X41825000Y-86950000D03*
D17*
%TO.P,D7,2,DIN*%
%TO.N,Net-(D6-Pad4)*%
X41825000Y-88850000D03*
D16*
%TO.P,D7,3,VDD*%
%TO.N,+5V*%
X41025000Y-88400000D03*
D15*
X41825000Y-87850000D03*
D17*
%TO.P,D7,4,DOUT*%
%TO.N,Net-(D7-Pad4)*%
X41825000Y-85950000D03*
%TD*%
D18*
%TO.P,D8,1,VSS*%
%TO.N,GND*%
X45250000Y-89825000D03*
D19*
X44700000Y-90625000D03*
D20*
%TO.P,D8,2,DIN*%
%TO.N,Net-(D7-Pad4)*%
X42800000Y-90625000D03*
D19*
%TO.P,D8,3,VDD*%
%TO.N,+5V*%
X43800000Y-90625000D03*
D18*
X43250000Y-89825000D03*
D20*
%TO.P,D8,4,DOUT*%
%TO.N,Net-(D8-Pad4)*%
X45700000Y-90625000D03*
%TD*%
D15*
%TO.P,D9,1,VSS*%
%TO.N,GND*%
X46675000Y-93450000D03*
D16*
X47475000Y-94000000D03*
D17*
%TO.P,D9,2,DIN*%
%TO.N,Net-(D8-Pad4)*%
X46675000Y-91550000D03*
D16*
%TO.P,D9,3,VDD*%
%TO.N,+5V*%
X47475000Y-92000000D03*
D15*
X46675000Y-92550000D03*
D17*
%TO.P,D9,4,DOUT*%
%TO.N,Net-(D10-Pad2)*%
X46675000Y-94450000D03*
%TD*%
D15*
%TO.P,D10,1,VSS*%
%TO.N,GND*%
X41825000Y-92550000D03*
D16*
X41025000Y-92000000D03*
D17*
%TO.P,D10,2,DIN*%
%TO.N,Net-(D10-Pad2)*%
X41825000Y-94450000D03*
D15*
%TO.P,D10,3,VDD*%
%TO.N,+5V*%
X41825000Y-93450000D03*
D16*
X41025000Y-94000000D03*
D17*
%TO.P,D10,4,DOUT*%
%TO.N,Net-(D10-Pad4)*%
X41825000Y-91550000D03*
%TD*%
D19*
%TO.P,D11,1,VSS*%
%TO.N,GND*%
X43800000Y-95325000D03*
D18*
X43250000Y-96125000D03*
D20*
%TO.P,D11,2,DIN*%
%TO.N,Net-(D10-Pad4)*%
X45700000Y-95325000D03*
D18*
%TO.P,D11,3,VDD*%
%TO.N,+5V*%
X45250000Y-96125000D03*
D19*
X44700000Y-95325000D03*
D20*
%TO.P,D11,4,DOUT*%
%TO.N,Net-(D11-Pad4)*%
X42800000Y-95325000D03*
%TD*%
D19*
%TO.P,D12,1,VSS*%
%TO.N,GND*%
X36200000Y-85025000D03*
D18*
X36750000Y-84225000D03*
D20*
%TO.P,D12,2,DIN*%
%TO.N,Net-(D11-Pad4)*%
X34300000Y-85025000D03*
D19*
%TO.P,D12,3,VDD*%
%TO.N,+5V*%
X35300000Y-85025000D03*
D18*
X34750000Y-84225000D03*
D20*
%TO.P,D12,4,DOUT*%
%TO.N,Net-(D12-Pad4)*%
X37200000Y-85025000D03*
%TD*%
D15*
%TO.P,D13,1,VSS*%
%TO.N,GND*%
X38175000Y-87850000D03*
D16*
X38975000Y-88400000D03*
D17*
%TO.P,D13,2,DIN*%
%TO.N,Net-(D12-Pad4)*%
X38175000Y-85950000D03*
D15*
%TO.P,D13,3,VDD*%
%TO.N,+5V*%
X38175000Y-86950000D03*
D16*
X38975000Y-86400000D03*
D17*
%TO.P,D13,4,DOUT*%
%TO.N,Net-(D13-Pad4)*%
X38175000Y-88850000D03*
%TD*%
D16*
%TO.P,D14,1,VSS*%
%TO.N,GND*%
X32525000Y-86400000D03*
D15*
X33325000Y-86950000D03*
D17*
%TO.P,D14,2,DIN*%
%TO.N,Net-(D13-Pad4)*%
X33325000Y-88850000D03*
D16*
%TO.P,D14,3,VDD*%
%TO.N,+5V*%
X32525000Y-88400000D03*
D15*
X33325000Y-87850000D03*
D17*
%TO.P,D14,4,DOUT*%
%TO.N,Net-(D14-Pad4)*%
X33325000Y-85950000D03*
%TD*%
D18*
%TO.P,D15,1,VSS*%
%TO.N,GND*%
X36750000Y-89825000D03*
D19*
X36200000Y-90625000D03*
D20*
%TO.P,D15,2,DIN*%
%TO.N,Net-(D14-Pad4)*%
X34300000Y-90625000D03*
D19*
%TO.P,D15,3,VDD*%
%TO.N,+5V*%
X35300000Y-90625000D03*
D18*
X34750000Y-89825000D03*
D20*
%TO.P,D15,4,DOUT*%
%TO.N,Net-(D15-Pad4)*%
X37200000Y-90625000D03*
%TD*%
D15*
%TO.P,D16,1,VSS*%
%TO.N,GND*%
X38175000Y-93450000D03*
D16*
X38975000Y-94000000D03*
D17*
%TO.P,D16,2,DIN*%
%TO.N,Net-(D15-Pad4)*%
X38175000Y-91550000D03*
D15*
%TO.P,D16,3,VDD*%
%TO.N,+5V*%
X38175000Y-92550000D03*
D16*
X38975000Y-92000000D03*
D17*
%TO.P,D16,4,DOUT*%
%TO.N,Net-(D16-Pad4)*%
X38175000Y-94450000D03*
%TD*%
D16*
%TO.P,D17,1,VSS*%
%TO.N,GND*%
X32525000Y-92000000D03*
D15*
X33325000Y-92550000D03*
D17*
%TO.P,D17,2,DIN*%
%TO.N,Net-(D16-Pad4)*%
X33325000Y-94450000D03*
D16*
%TO.P,D17,3,VDD*%
%TO.N,+5V*%
X32525000Y-94000000D03*
D15*
X33325000Y-93450000D03*
D17*
%TO.P,D17,4,DOUT*%
%TO.N,Net-(D17-Pad4)*%
X33325000Y-91550000D03*
%TD*%
D19*
%TO.P,D18,1,VSS*%
%TO.N,GND*%
X35300000Y-95325000D03*
D18*
X34750000Y-96125000D03*
D20*
%TO.P,D18,2,DIN*%
%TO.N,Net-(D17-Pad4)*%
X37200000Y-95325000D03*
D18*
%TO.P,D18,3,VDD*%
%TO.N,+5V*%
X36750000Y-96125000D03*
D19*
X36200000Y-95325000D03*
D20*
%TO.P,D18,4,DOUT*%
%TO.N,unconnected-(D18-Pad4)*%
X34300000Y-95325000D03*
%TD*%
D21*
%TO.P,R1,1*%
%TO.N,+5V*%
X41362500Y-48800000D03*
%TO.P,R1,2*%
%TO.N,GPIO12*%
X38437500Y-48800000D03*
%TD*%
D22*
%TO.P,C10,1*%
%TO.N,+5V*%
X41375000Y-51700000D03*
%TO.P,C10,2*%
%TO.N,GND*%
X38425000Y-51700000D03*
%TD*%
D23*
%TO.P,R2,1*%
%TO.N,GPIO12*%
X39050000Y-46300000D03*
%TO.P,R2,2*%
%TO.N,GND*%
X40700000Y-46300000D03*
%TD*%
D24*
%TO.N,GND*%
X47700000Y-57600000D03*
X34400000Y-91700000D03*
X40400000Y-43400000D03*
X39500000Y-82700000D03*
X42500000Y-42900000D03*
X44000000Y-60300000D03*
X43000000Y-97000000D03*
X44800000Y-54000000D03*
X44400000Y-72800000D03*
X47500000Y-95800000D03*
X47700000Y-81200000D03*
X36800000Y-42900000D03*
X36600000Y-85800000D03*
X48800000Y-86900000D03*
X31900000Y-81900000D03*
X31800000Y-86800000D03*
X36600000Y-87800000D03*
X39600000Y-77000000D03*
X32700000Y-70000000D03*
X43300000Y-86100000D03*
X34600000Y-77600000D03*
X30500000Y-95200000D03*
X32000000Y-57600000D03*
X49300000Y-95800000D03*
X32300000Y-63000000D03*
X36300000Y-92200000D03*
X42700000Y-92000000D03*
X36600000Y-53200000D03*
X34700000Y-94300000D03*
X43900000Y-88100000D03*
X40200000Y-58500000D03*
%TO.N,+5V*%
X45250000Y-97150000D03*
X45075000Y-92550000D03*
X37300000Y-97800000D03*
X41000000Y-74000000D03*
%TO.N,GPIO2*%
X36775500Y-64600000D03*
%TO.N,GPIO10*%
X41400000Y-79200000D03*
X41400000Y-53600000D03*
%TO.N,GPIO9*%
X38975500Y-53600000D03*
%TO.N,GPIO4*%
X43725000Y-63775000D03*
X45100000Y-47000000D03*
%TO.N,GPIO13*%
X37600000Y-78800000D03*
X36699989Y-58900000D03*
%TO.N,GPIO12*%
X36600000Y-48800000D03*
%TO.N,GPIO14*%
X35300000Y-49000000D03*
%TO.N,GPIO16*%
X34400000Y-47000000D03*
%TO.N,Net-(D11-Pad4)*%
X43900000Y-93900000D03*
X45100000Y-100000000D03*
%TO.N,RX*%
X42700000Y-46000000D03*
X41100000Y-82900000D03*
%TO.N,TX*%
X45500000Y-81800000D03*
X44400000Y-43000000D03*
%TO.N,RST*%
X36800000Y-61900000D03*
%TO.N,GPIO0*%
X37341589Y-63841589D03*
%TO.N,Net-(D19-Pad2)*%
X40000000Y-104400000D03*
X36050000Y-100800000D03*
%TO.N,GPIO5*%
X45800000Y-45000000D03*
X44200000Y-61400000D03*
%TD*%
D25*
%TO.N,GND*%
X35300000Y-95575000D02*
X34750000Y-96125000D01*
X38175000Y-93450000D02*
X38425000Y-93450000D01*
X33075000Y-92550000D02*
X32525000Y-92000000D01*
X38425000Y-87850000D02*
X38975000Y-88400000D01*
X39825000Y-41450000D02*
X40375000Y-42000000D01*
X44700000Y-85025000D02*
X44700000Y-84775000D01*
X36200000Y-90375000D02*
X36750000Y-89825000D01*
X36200000Y-84775000D02*
X36200000Y-85025000D01*
X39575000Y-56450000D02*
X39825000Y-56450000D01*
X39825000Y-56450000D02*
X40375000Y-57000000D01*
X44700000Y-90375000D02*
X45250000Y-89825000D01*
X39825000Y-71450000D02*
X40375000Y-72000000D01*
X46675000Y-87850000D02*
X46925000Y-87850000D01*
X41575000Y-92550000D02*
X41025000Y-92000000D01*
X33325000Y-86950000D02*
X33075000Y-86950000D01*
X35300000Y-95325000D02*
X35300000Y-95575000D01*
X38175000Y-87850000D02*
X38425000Y-87850000D01*
X33075000Y-86950000D02*
X32525000Y-86400000D01*
X41825000Y-86950000D02*
X41575000Y-86950000D01*
X33325000Y-92550000D02*
X33075000Y-92550000D01*
X46675000Y-93450000D02*
X46925000Y-93450000D01*
X39575000Y-71450000D02*
X39825000Y-71450000D01*
X41825000Y-92550000D02*
X41575000Y-92550000D01*
X38425000Y-93450000D02*
X38975000Y-94000000D01*
X43800000Y-95325000D02*
X43800000Y-95575000D01*
X36200000Y-90625000D02*
X36200000Y-90375000D01*
X43800000Y-95575000D02*
X43250000Y-96125000D01*
X41575000Y-86950000D02*
X41025000Y-86400000D01*
X44700000Y-84775000D02*
X45250000Y-84225000D01*
X36750000Y-84225000D02*
X36200000Y-84775000D01*
X39575000Y-41450000D02*
X39825000Y-41450000D01*
X44700000Y-90625000D02*
X44700000Y-90375000D01*
X46925000Y-87850000D02*
X47475000Y-88400000D01*
X46925000Y-93450000D02*
X47475000Y-94000000D01*
D26*
%TO.N,+5V*%
X34565978Y-97800000D02*
X32525000Y-95759022D01*
X35150000Y-89825000D02*
X34750000Y-89825000D01*
X35300000Y-93100000D02*
X36495325Y-93100000D01*
X41025000Y-89649022D02*
X41192427Y-89816449D01*
X41375000Y-48812500D02*
X41362500Y-48800000D01*
X44824511Y-96099511D02*
X44700000Y-95975000D01*
X36200000Y-95325000D02*
X36200000Y-95975000D01*
X38175000Y-86950000D02*
X38825000Y-86950000D01*
X35300000Y-85675000D02*
X36575000Y-86950000D01*
X41000000Y-74000000D02*
X41049511Y-73950489D01*
X37300000Y-96675000D02*
X36750000Y-96125000D01*
X46675000Y-86950000D02*
X47325000Y-86950000D01*
X45075000Y-92550000D02*
X46675000Y-92550000D01*
X39649511Y-95349511D02*
X42700000Y-98400000D01*
X47325000Y-92550000D02*
X47475000Y-92400000D01*
X41225978Y-87850000D02*
X41025000Y-88050978D01*
X35300000Y-85025000D02*
X35300000Y-85675000D01*
X41362500Y-48800000D02*
X41600000Y-48562500D01*
X48300000Y-96300000D02*
X48300000Y-92825000D01*
X32550489Y-89674511D02*
X34599511Y-89674511D01*
X44100000Y-86800000D02*
X43050000Y-87850000D01*
X38950000Y-92550000D02*
X38175000Y-92550000D01*
X35300000Y-92700000D02*
X35300000Y-93100000D01*
X43800000Y-90625000D02*
X43800000Y-89975000D01*
X41225978Y-93450000D02*
X41025000Y-93650978D01*
X41600000Y-48562500D02*
X41600000Y-41225000D01*
X35300000Y-92700000D02*
X35300000Y-90625000D01*
X36495325Y-93100000D02*
X37045325Y-92550000D01*
X38975000Y-92525000D02*
X38950000Y-92550000D01*
X39825000Y-70550000D02*
X40375000Y-70000000D01*
X47475000Y-92400000D02*
X47475000Y-92000000D01*
X45250000Y-96125000D02*
X45250000Y-96100000D01*
X44100000Y-86324022D02*
X44100000Y-86950000D01*
X41049511Y-70674511D02*
X40375000Y-70000000D01*
X40375000Y-70000000D02*
X41049511Y-69325489D01*
X37045325Y-92550000D02*
X38175000Y-92550000D01*
X46675000Y-92550000D02*
X47325000Y-92550000D01*
X32525000Y-88000000D02*
X32525000Y-88400000D01*
X35300000Y-84474511D02*
X35050489Y-84225000D01*
X35050489Y-84225000D02*
X34750000Y-84225000D01*
X44700000Y-95975000D02*
X44700000Y-95325000D01*
X40375000Y-55000000D02*
X40375000Y-52700000D01*
X41825000Y-93450000D02*
X41225978Y-93450000D01*
X46200000Y-98400000D02*
X48300000Y-96300000D01*
X45250000Y-96100000D02*
X45249511Y-96099511D01*
X35300000Y-92700000D02*
X35300000Y-93100480D01*
X45249511Y-96099511D02*
X44824511Y-96099511D01*
X33924022Y-93450000D02*
X33325000Y-93450000D01*
X39575000Y-55550000D02*
X39825000Y-55550000D01*
X39575000Y-40550000D02*
X39825000Y-40550000D01*
X41192427Y-89816449D02*
X43241449Y-89816449D01*
X43800000Y-90625000D02*
X43800000Y-92074022D01*
X43800000Y-92074022D02*
X42424022Y-93450000D01*
X44100000Y-86950000D02*
X46675000Y-86950000D01*
X35300000Y-85025000D02*
X35300000Y-84474511D01*
X39649511Y-92674511D02*
X39649511Y-95349511D01*
X35300000Y-85025000D02*
X35300000Y-87500000D01*
X43800000Y-89975000D02*
X43650000Y-89825000D01*
X32525000Y-88400000D02*
X32525000Y-89649022D01*
X43650000Y-84225000D02*
X43250000Y-84225000D01*
X35300000Y-89975000D02*
X35150000Y-89825000D01*
X35300000Y-90625000D02*
X35300000Y-89975000D01*
X41049511Y-73950489D02*
X41049511Y-70674511D01*
X36200000Y-95975000D02*
X36350000Y-96125000D01*
X43800000Y-85025000D02*
X43800000Y-84375000D01*
X44100000Y-85804675D02*
X44100000Y-86324022D01*
X45250000Y-96125000D02*
X45250000Y-97150000D01*
X32525000Y-89649022D02*
X32550489Y-89674511D01*
X43050000Y-87850000D02*
X41825000Y-87850000D01*
X38975000Y-92000000D02*
X39649511Y-92674511D01*
X42700000Y-98400000D02*
X46200000Y-98400000D01*
X34273541Y-93100481D02*
X33924022Y-93450000D01*
X32675000Y-87850000D02*
X32525000Y-88000000D01*
X47325000Y-86950000D02*
X47475000Y-86800000D01*
X41025000Y-93650978D02*
X41025000Y-94000000D01*
X35300000Y-93100480D02*
X34273541Y-93100481D01*
X47475000Y-86800000D02*
X47475000Y-86400000D01*
X43650000Y-89825000D02*
X43250000Y-89825000D01*
X34950000Y-87850000D02*
X33325000Y-87850000D01*
X32525000Y-95759022D02*
X32525000Y-94000000D01*
X36350000Y-96125000D02*
X36750000Y-96125000D01*
X41600000Y-41225000D02*
X40375000Y-40000000D01*
X38975000Y-92000000D02*
X38975000Y-92525000D01*
X41825000Y-87850000D02*
X41225978Y-87850000D01*
X44100000Y-86324022D02*
X44100000Y-86800000D01*
X37300000Y-97800000D02*
X34565978Y-97800000D01*
X41025000Y-88050978D02*
X41025000Y-88400000D01*
X39825000Y-55550000D02*
X40375000Y-55000000D01*
X43800000Y-85504675D02*
X44100000Y-85804675D01*
X40375000Y-52700000D02*
X41375000Y-51700000D01*
X43800000Y-90625000D02*
X43800000Y-91275000D01*
X41049511Y-55674511D02*
X40375000Y-55000000D01*
X42424022Y-93450000D02*
X41825000Y-93450000D01*
X38825000Y-86950000D02*
X38975000Y-86800000D01*
X35300000Y-87500000D02*
X34950000Y-87850000D01*
X34599511Y-89674511D02*
X34750000Y-89825000D01*
X38975000Y-86800000D02*
X38975000Y-86400000D01*
X39825000Y-40550000D02*
X40375000Y-40000000D01*
X43241449Y-89816449D02*
X43250000Y-89825000D01*
X41025000Y-88400000D02*
X41025000Y-89649022D01*
X39575000Y-70550000D02*
X39825000Y-70550000D01*
X43800000Y-84375000D02*
X43650000Y-84225000D01*
X41049511Y-69325489D02*
X41049511Y-55674511D01*
X33325000Y-93450000D02*
X33075000Y-93450000D01*
X41375000Y-51700000D02*
X41375000Y-48812500D01*
X43800000Y-85025000D02*
X43800000Y-85504675D01*
X36575000Y-86950000D02*
X38175000Y-86950000D01*
X48300000Y-92825000D02*
X47475000Y-92000000D01*
X33325000Y-87850000D02*
X32675000Y-87850000D01*
X43800000Y-91275000D02*
X45075000Y-92550000D01*
X37300000Y-97800000D02*
X37300000Y-96675000D01*
X33075000Y-93450000D02*
X32525000Y-94000000D01*
D25*
%TO.N,GPIO2*%
X36800000Y-64624500D02*
X36800000Y-77300000D01*
X36800000Y-77300000D02*
X34400000Y-79700000D01*
X36775500Y-64600000D02*
X36800000Y-64624500D01*
X34400000Y-79700000D02*
X32100000Y-79700000D01*
%TO.N,GPIO10*%
X41724511Y-78875489D02*
X41400000Y-79200000D01*
X41400000Y-53600000D02*
X41724511Y-53924511D01*
X41724511Y-53924511D02*
X41724511Y-78875489D01*
%TO.N,GPIO9*%
X38100000Y-53600000D02*
X36075489Y-55624511D01*
X38975500Y-53600000D02*
X38100000Y-53600000D01*
X36075489Y-55624511D02*
X36075489Y-74484511D01*
X36075489Y-74484511D02*
X33860000Y-76700000D01*
X33860000Y-76700000D02*
X32100000Y-76700000D01*
%TO.N,GPIO4*%
X43249520Y-51586373D02*
X45100000Y-49735893D01*
X45100000Y-49735893D02*
X45100000Y-47000000D01*
X43725000Y-63775000D02*
X43249520Y-63299520D01*
X43249520Y-63299520D02*
X43249520Y-51586373D01*
%TO.N,GPIO13*%
X38450480Y-77949520D02*
X37600000Y-78800000D01*
X38450480Y-60650491D02*
X38450480Y-77949520D01*
X36699989Y-58900000D02*
X38450480Y-60650491D01*
%TO.N,GPIO12*%
X35725969Y-73674031D02*
X33700000Y-75700000D01*
X38437500Y-46912500D02*
X39050000Y-46300000D01*
X36600000Y-48800000D02*
X35725969Y-49674031D01*
X36600000Y-48800000D02*
X38437500Y-48800000D01*
X38437500Y-48800000D02*
X38437500Y-46912500D01*
X33700000Y-75700000D02*
X32100000Y-75700000D01*
X35725969Y-49674031D02*
X35725969Y-73674031D01*
%TO.N,GPIO14*%
X35300000Y-48600000D02*
X38600000Y-45300000D01*
X35300000Y-49000000D02*
X35300000Y-48600000D01*
X39150000Y-39550000D02*
X39575000Y-39550000D01*
X35376449Y-49076449D02*
X35300000Y-49000000D01*
X33600000Y-74700000D02*
X35376449Y-72923551D01*
X35376449Y-72923551D02*
X35376449Y-49076449D01*
X38600000Y-45300000D02*
X38600000Y-40100000D01*
X38600000Y-40100000D02*
X39150000Y-39550000D01*
X32100000Y-74700000D02*
X33600000Y-74700000D01*
%TO.N,GPIO16*%
X34400000Y-47000000D02*
X34500000Y-47100000D01*
X34500000Y-47100000D02*
X34500000Y-49083193D01*
X34500000Y-49083193D02*
X35026929Y-49610122D01*
X35026929Y-71723071D02*
X33050000Y-73700000D01*
X35026929Y-49610122D02*
X35026929Y-71723071D01*
X33050000Y-73700000D02*
X32100000Y-73700000D01*
%TO.N,Net-(D2-Pad4)*%
X39575000Y-54090489D02*
X39800000Y-53865489D01*
X39800000Y-53865489D02*
X39800000Y-43683193D01*
X39575000Y-54550000D02*
X39575000Y-54090489D01*
X39800000Y-43683193D02*
X39575000Y-43458193D01*
X39575000Y-43458193D02*
X39575000Y-42450000D01*
%TO.N,Net-(D10-Pad4)*%
X40300489Y-90965489D02*
X40400489Y-90865489D01*
X46384511Y-95500489D02*
X46384511Y-97315489D01*
X42940489Y-97874511D02*
X40300489Y-95234511D01*
X40400489Y-90865489D02*
X41740489Y-90865489D01*
X46384511Y-97315489D02*
X45825489Y-97874511D01*
X40300489Y-95234511D02*
X40300489Y-90965489D01*
X45700000Y-95325000D02*
X46209022Y-95325000D01*
X41825000Y-90950000D02*
X41825000Y-91550000D01*
X45825489Y-97874511D02*
X42940489Y-97874511D01*
X41740489Y-90865489D02*
X41825000Y-90950000D01*
X46209022Y-95325000D02*
X46384511Y-95500489D01*
%TO.N,Net-(D11-Pad4)*%
X31764283Y-84800000D02*
X33515489Y-84800000D01*
X33515489Y-84800000D02*
X33740489Y-85025000D01*
X31200000Y-89894296D02*
X30750480Y-89444775D01*
X42800000Y-95000000D02*
X43900000Y-93900000D01*
X45100000Y-100000000D02*
X35014578Y-100000000D01*
X31200000Y-96185422D02*
X31200000Y-89894296D01*
X35014578Y-100000000D02*
X31200000Y-96185422D01*
X33740489Y-85025000D02*
X34300000Y-85025000D01*
X30750480Y-85813803D02*
X31764283Y-84800000D01*
X42800000Y-95325000D02*
X42800000Y-95000000D01*
X30750480Y-89444775D02*
X30750480Y-85813803D01*
%TO.N,Net-(D7-Pad4)*%
X41675000Y-85200000D02*
X40500000Y-85200000D01*
X41825000Y-85950000D02*
X41825000Y-85350000D01*
X41926686Y-90415969D02*
X42135717Y-90625000D01*
X41825000Y-85350000D02*
X41675000Y-85200000D01*
X40300489Y-90100489D02*
X40615969Y-90415969D01*
X40500000Y-85200000D02*
X40300489Y-85399511D01*
X42135717Y-90625000D02*
X42800000Y-90625000D01*
X40615969Y-90415969D02*
X41926686Y-90415969D01*
X40300489Y-85399511D02*
X40300489Y-90100489D01*
%TO.N,Net-(D10-Pad2)*%
X46675000Y-94450000D02*
X45500489Y-93275489D01*
X43446383Y-93275489D02*
X42271872Y-94450000D01*
X42271872Y-94450000D02*
X41825000Y-94450000D01*
X45500489Y-93275489D02*
X43446383Y-93275489D01*
%TO.N,Net-(D14-Pad4)*%
X33361198Y-90350480D02*
X33635718Y-90625000D01*
X33124520Y-85149520D02*
X32050480Y-85149520D01*
X33325000Y-85950000D02*
X33325000Y-85350000D01*
X33325000Y-85350000D02*
X33124520Y-85149520D01*
X31100000Y-86100000D02*
X31100000Y-89300000D01*
X31100000Y-89300000D02*
X32150480Y-90350480D01*
X32150480Y-90350480D02*
X33361198Y-90350480D01*
X33635718Y-90625000D02*
X34300000Y-90625000D01*
X32050480Y-85149520D02*
X31100000Y-86100000D01*
%TO.N,Net-(D12-Pad4)*%
X38175000Y-85950000D02*
X38125000Y-85950000D01*
X38125000Y-85950000D02*
X37200000Y-85025000D01*
%TO.N,Net-(D13-Pad4)*%
X38175000Y-88850000D02*
X33325000Y-88850000D01*
%TO.N,Net-(D15-Pad4)*%
X38125000Y-91550000D02*
X37200000Y-90625000D01*
X38175000Y-91550000D02*
X38125000Y-91550000D01*
%TO.N,Net-(D16-Pad4)*%
X33630450Y-94450000D02*
X33325000Y-94450000D01*
X38175000Y-94450000D02*
X37325000Y-93600000D01*
X34480450Y-93600000D02*
X33630450Y-94450000D01*
X37325000Y-93600000D02*
X34480450Y-93600000D01*
%TO.N,Net-(D3-Pad4)*%
X39575000Y-69550000D02*
X39575000Y-57450000D01*
%TO.N,Net-(D4-Pad4)*%
X38800000Y-73225000D02*
X39575000Y-72450000D01*
X42800000Y-85025000D02*
X41994296Y-85025000D01*
X41994296Y-85025000D02*
X41669296Y-84700000D01*
X41669296Y-84700000D02*
X38800000Y-84700000D01*
X38800000Y-84700000D02*
X38800000Y-73225000D01*
%TO.N,Net-(D5-Pad4)*%
X45750000Y-85025000D02*
X46675000Y-85950000D01*
X45700000Y-85025000D02*
X45750000Y-85025000D01*
%TO.N,Net-(D6-Pad4)*%
X46675000Y-88850000D02*
X41825000Y-88850000D01*
%TO.N,Net-(D8-Pad4)*%
X45750000Y-90625000D02*
X46675000Y-91550000D01*
X45700000Y-90625000D02*
X45750000Y-90625000D01*
%TO.N,Net-(D17-Pad4)*%
X33325000Y-90950000D02*
X33325000Y-91550000D01*
X37900000Y-98600000D02*
X34400000Y-98600000D01*
X37909022Y-95325000D02*
X38600000Y-96015978D01*
X31800489Y-90965489D02*
X31965978Y-90800000D01*
X38600000Y-96015978D02*
X38600000Y-97900000D01*
X34400000Y-98600000D02*
X31800489Y-96000489D01*
X31800489Y-96000489D02*
X31800489Y-90965489D01*
X33175000Y-90800000D02*
X33325000Y-90950000D01*
X31965978Y-90800000D02*
X33175000Y-90800000D01*
X37200000Y-95325000D02*
X37909022Y-95325000D01*
X38600000Y-97900000D02*
X37900000Y-98600000D01*
%TO.N,RX*%
X42700000Y-46000000D02*
X42300000Y-46400000D01*
X42300000Y-81700000D02*
X41100000Y-82900000D01*
X42300000Y-46400000D02*
X42300000Y-81700000D01*
%TO.N,TX*%
X42900000Y-79200000D02*
X42900000Y-51441597D01*
X45500000Y-81800000D02*
X42900000Y-79200000D01*
X42900000Y-51441597D02*
X44400000Y-49941597D01*
X44400000Y-49941597D02*
X44400000Y-43000000D01*
%TO.N,RST*%
X38100960Y-77224040D02*
X32800000Y-82525000D01*
X32800000Y-82525000D02*
X32800000Y-83200000D01*
X36800000Y-61900000D02*
X36800000Y-62000000D01*
X36800000Y-62000000D02*
X36700000Y-62100000D01*
X36800000Y-61900000D02*
X38100960Y-63200960D01*
X38100960Y-63200960D02*
X38100960Y-77224040D01*
%TO.N,GPIO0*%
X37400000Y-63900000D02*
X37400000Y-77194295D01*
X37400000Y-77194295D02*
X33894295Y-80700000D01*
X33894295Y-80700000D02*
X32100000Y-80700000D01*
X37341589Y-63841589D02*
X37400000Y-63900000D01*
D26*
%TO.N,Net-(D19-Pad2)*%
X36050000Y-100800000D02*
X36050000Y-101991821D01*
X38458179Y-104400000D02*
X40000000Y-104400000D01*
X36050000Y-101991821D02*
X38458179Y-104400000D01*
D25*
%TO.N,GPIO5*%
X45724511Y-45075489D02*
X45800000Y-45000000D01*
X45724511Y-59875489D02*
X45724511Y-45075489D01*
X44200000Y-61400000D02*
X45724511Y-59875489D01*
%TD*%
%TA.AperFunction,Conductor*%
%TO.N,GND*%
G36*
X38280715Y-39818907D02*
G01*
X38316679Y-39868407D01*
X38316679Y-39929593D01*
X38308861Y-39945271D01*
X38309075Y-39945371D01*
X38305415Y-39953220D01*
X38300446Y-39960316D01*
X38298204Y-39968683D01*
X38295738Y-39973971D01*
X38293742Y-39979456D01*
X38289412Y-39986955D01*
X38287909Y-39995481D01*
X38287908Y-39995483D01*
X38282666Y-40025216D01*
X38280796Y-40033650D01*
X38270736Y-40071193D01*
X38271491Y-40079822D01*
X38274123Y-40109905D01*
X38274500Y-40118534D01*
X38274500Y-45124166D01*
X38255593Y-45182357D01*
X38245504Y-45194170D01*
X35082943Y-48356731D01*
X35076576Y-48362565D01*
X35046806Y-48387545D01*
X35042477Y-48395044D01*
X35027373Y-48421205D01*
X35022732Y-48428489D01*
X35005595Y-48452963D01*
X34956732Y-48489784D01*
X34895556Y-48490852D01*
X34845435Y-48455758D01*
X34825500Y-48396178D01*
X34825500Y-47465513D01*
X34845958Y-47405246D01*
X34920585Y-47307990D01*
X34924536Y-47302841D01*
X34985044Y-47156762D01*
X35005682Y-47000000D01*
X34985044Y-46843238D01*
X34924536Y-46697159D01*
X34828282Y-46571718D01*
X34702841Y-46475464D01*
X34556762Y-46414956D01*
X34400000Y-46394318D01*
X34243238Y-46414956D01*
X34097159Y-46475464D01*
X33971718Y-46571718D01*
X33875464Y-46697159D01*
X33814956Y-46843238D01*
X33794318Y-47000000D01*
X33814956Y-47156762D01*
X33875464Y-47302841D01*
X33971718Y-47428282D01*
X34097159Y-47524536D01*
X34103150Y-47527018D01*
X34103156Y-47527021D01*
X34113388Y-47531259D01*
X34159913Y-47570997D01*
X34174500Y-47622722D01*
X34174500Y-49064659D01*
X34174123Y-49073288D01*
X34170736Y-49112000D01*
X34172978Y-49120367D01*
X34180796Y-49149542D01*
X34182666Y-49157976D01*
X34189412Y-49196238D01*
X34193742Y-49203737D01*
X34195738Y-49209222D01*
X34198204Y-49214509D01*
X34200446Y-49222877D01*
X34221013Y-49252249D01*
X34222732Y-49254704D01*
X34227371Y-49261985D01*
X34246806Y-49295648D01*
X34276525Y-49320585D01*
X34276571Y-49320624D01*
X34282939Y-49326458D01*
X34672433Y-49715952D01*
X34700210Y-49770469D01*
X34701429Y-49785956D01*
X34701429Y-71547237D01*
X34682522Y-71605428D01*
X34672433Y-71617241D01*
X32944170Y-73345504D01*
X32889653Y-73373281D01*
X32874166Y-73374500D01*
X32824500Y-73374500D01*
X32766309Y-73355593D01*
X32730345Y-73306093D01*
X32725500Y-73275500D01*
X32725500Y-73255252D01*
X32713867Y-73196769D01*
X32669552Y-73130448D01*
X32603231Y-73086133D01*
X32593668Y-73084231D01*
X32593666Y-73084230D01*
X32570995Y-73079721D01*
X32544748Y-73074500D01*
X31655252Y-73074500D01*
X31629005Y-73079721D01*
X31606334Y-73084230D01*
X31606332Y-73084231D01*
X31596769Y-73086133D01*
X31530448Y-73130448D01*
X31486133Y-73196769D01*
X31474500Y-73255252D01*
X31474500Y-74144748D01*
X31486133Y-74203231D01*
X31530448Y-74269552D01*
X31536544Y-74273625D01*
X31563627Y-74326780D01*
X31554056Y-74387212D01*
X31549622Y-74394578D01*
X31548125Y-74397369D01*
X31544696Y-74402249D01*
X31518167Y-74470293D01*
X31497019Y-74524536D01*
X31489702Y-74543302D01*
X31469941Y-74693402D01*
X31470596Y-74699335D01*
X31470596Y-74699339D01*
X31473092Y-74721945D01*
X31486554Y-74843883D01*
X31488606Y-74849490D01*
X31536530Y-74980451D01*
X31536532Y-74980455D01*
X31538582Y-74986057D01*
X31623022Y-75111716D01*
X31638623Y-75125912D01*
X31668939Y-75179057D01*
X31662226Y-75239873D01*
X31639996Y-75269806D01*
X31640240Y-75270026D01*
X31637917Y-75272607D01*
X31637077Y-75273737D01*
X31631749Y-75278385D01*
X31544696Y-75402249D01*
X31489702Y-75543302D01*
X31469941Y-75693402D01*
X31486554Y-75843883D01*
X31488606Y-75849490D01*
X31536530Y-75980451D01*
X31536532Y-75980455D01*
X31538582Y-75986057D01*
X31623022Y-76111716D01*
X31638623Y-76125912D01*
X31668939Y-76179057D01*
X31662226Y-76239873D01*
X31639996Y-76269806D01*
X31640240Y-76270026D01*
X31637917Y-76272607D01*
X31637077Y-76273737D01*
X31631749Y-76278385D01*
X31544696Y-76402249D01*
X31489702Y-76543302D01*
X31469941Y-76693402D01*
X31486554Y-76843883D01*
X31488606Y-76849490D01*
X31536530Y-76980451D01*
X31536532Y-76980455D01*
X31538582Y-76986057D01*
X31623022Y-77111716D01*
X31638623Y-77125912D01*
X31668939Y-77179057D01*
X31662226Y-77239873D01*
X31639996Y-77269806D01*
X31640240Y-77270026D01*
X31637917Y-77272607D01*
X31637077Y-77273737D01*
X31631749Y-77278385D01*
X31544696Y-77402249D01*
X31542529Y-77407807D01*
X31542528Y-77407809D01*
X31540245Y-77413664D01*
X31489702Y-77543302D01*
X31488923Y-77549217D01*
X31488923Y-77549218D01*
X31488080Y-77555623D01*
X31469941Y-77693402D01*
X31470596Y-77699335D01*
X31470596Y-77699339D01*
X31472126Y-77713196D01*
X31486554Y-77843883D01*
X31488606Y-77849490D01*
X31536530Y-77980451D01*
X31536532Y-77980455D01*
X31538582Y-77986057D01*
X31623022Y-78111716D01*
X31638623Y-78125912D01*
X31668939Y-78179057D01*
X31662226Y-78239873D01*
X31639996Y-78269806D01*
X31640240Y-78270026D01*
X31637917Y-78272607D01*
X31637077Y-78273737D01*
X31631749Y-78278385D01*
X31628318Y-78283267D01*
X31628317Y-78283268D01*
X31548127Y-78397367D01*
X31544696Y-78402249D01*
X31542529Y-78407807D01*
X31542528Y-78407809D01*
X31540245Y-78413664D01*
X31489702Y-78543302D01*
X31488923Y-78549217D01*
X31488923Y-78549218D01*
X31488184Y-78554831D01*
X31469941Y-78693402D01*
X31470596Y-78699335D01*
X31470596Y-78699339D01*
X31478587Y-78771718D01*
X31486554Y-78843883D01*
X31488606Y-78849490D01*
X31536530Y-78980451D01*
X31536532Y-78980455D01*
X31538582Y-78986057D01*
X31623022Y-79111716D01*
X31638623Y-79125912D01*
X31668939Y-79179057D01*
X31662226Y-79239873D01*
X31639996Y-79269806D01*
X31640240Y-79270026D01*
X31637917Y-79272607D01*
X31637077Y-79273737D01*
X31631749Y-79278385D01*
X31628318Y-79283267D01*
X31628317Y-79283268D01*
X31548127Y-79397367D01*
X31544696Y-79402249D01*
X31542529Y-79407807D01*
X31542528Y-79407809D01*
X31494623Y-79530679D01*
X31489702Y-79543302D01*
X31469941Y-79693402D01*
X31486554Y-79843883D01*
X31488606Y-79849490D01*
X31536530Y-79980451D01*
X31536532Y-79980455D01*
X31538582Y-79986057D01*
X31623022Y-80111716D01*
X31638623Y-80125912D01*
X31668939Y-80179057D01*
X31662226Y-80239873D01*
X31639996Y-80269806D01*
X31640240Y-80270026D01*
X31637917Y-80272607D01*
X31637077Y-80273737D01*
X31631749Y-80278385D01*
X31544696Y-80402249D01*
X31489702Y-80543302D01*
X31469941Y-80693402D01*
X31486554Y-80843883D01*
X31488606Y-80849490D01*
X31536530Y-80980451D01*
X31536532Y-80980455D01*
X31538582Y-80986057D01*
X31623022Y-81111716D01*
X31627434Y-81115731D01*
X31627437Y-81115734D01*
X31730582Y-81209589D01*
X31734998Y-81213607D01*
X31793137Y-81245174D01*
X31862801Y-81282999D01*
X31862803Y-81283000D01*
X31868047Y-81285847D01*
X31944798Y-81305982D01*
X32008717Y-81322751D01*
X32008721Y-81322751D01*
X32014486Y-81324264D01*
X32020447Y-81324358D01*
X32020450Y-81324358D01*
X32090174Y-81325453D01*
X32165863Y-81326642D01*
X32171679Y-81325310D01*
X32307614Y-81294177D01*
X32307617Y-81294176D01*
X32313437Y-81292843D01*
X32324337Y-81287361D01*
X32443355Y-81227502D01*
X32443357Y-81227501D01*
X32448689Y-81224819D01*
X32563810Y-81126495D01*
X32606757Y-81066729D01*
X32656069Y-81030507D01*
X32687153Y-81025500D01*
X33600166Y-81025500D01*
X33658357Y-81044407D01*
X33694321Y-81093907D01*
X33694321Y-81155093D01*
X33670170Y-81194504D01*
X32582943Y-82281731D01*
X32576576Y-82287565D01*
X32546806Y-82312545D01*
X32538450Y-82327019D01*
X32527373Y-82346205D01*
X32522732Y-82353489D01*
X32500446Y-82385316D01*
X32498204Y-82393684D01*
X32495738Y-82398971D01*
X32493742Y-82404456D01*
X32489412Y-82411955D01*
X32487909Y-82420481D01*
X32487908Y-82420483D01*
X32482666Y-82450216D01*
X32480796Y-82458650D01*
X32470736Y-82496193D01*
X32468443Y-82495578D01*
X32449388Y-82540457D01*
X32396938Y-82571965D01*
X32374678Y-82574500D01*
X32255252Y-82574500D01*
X32229005Y-82579721D01*
X32206334Y-82584230D01*
X32206332Y-82584231D01*
X32196769Y-82586133D01*
X32188660Y-82591551D01*
X32179654Y-82595282D01*
X32178115Y-82591568D01*
X32137397Y-82603029D01*
X32088287Y-82587696D01*
X32024500Y-82547215D01*
X32014619Y-82542396D01*
X31871816Y-82491546D01*
X31864380Y-82489802D01*
X31852485Y-82492157D01*
X31851045Y-82493712D01*
X31850000Y-82498463D01*
X31850000Y-83897934D01*
X31853521Y-83908769D01*
X31864912Y-83908769D01*
X31996135Y-83866132D01*
X32006148Y-83861590D01*
X32090932Y-83811049D01*
X32150597Y-83797493D01*
X32178539Y-83807409D01*
X32179654Y-83804718D01*
X32188660Y-83808449D01*
X32196769Y-83813867D01*
X32206332Y-83815769D01*
X32206334Y-83815770D01*
X32229005Y-83820279D01*
X32255252Y-83825500D01*
X33144748Y-83825500D01*
X33170995Y-83820279D01*
X33193666Y-83815770D01*
X33193668Y-83815769D01*
X33203231Y-83813867D01*
X33269552Y-83769552D01*
X33313867Y-83703231D01*
X33325500Y-83644748D01*
X33325500Y-82755252D01*
X33313867Y-82696769D01*
X33269552Y-82630448D01*
X33272672Y-82628363D01*
X33253097Y-82589944D01*
X33262668Y-82529512D01*
X33280874Y-82504453D01*
X36855595Y-78929731D01*
X36910112Y-78901954D01*
X36970544Y-78911525D01*
X37013809Y-78954790D01*
X37017063Y-78961849D01*
X37075464Y-79102841D01*
X37171718Y-79228282D01*
X37297159Y-79324536D01*
X37443238Y-79385044D01*
X37600000Y-79405682D01*
X37756762Y-79385044D01*
X37902841Y-79324536D01*
X38028282Y-79228282D01*
X38124536Y-79102841D01*
X38185044Y-78956762D01*
X38205682Y-78800000D01*
X38201438Y-78767764D01*
X38195145Y-78719958D01*
X38206295Y-78659798D01*
X38223294Y-78637033D01*
X38305496Y-78554831D01*
X38360013Y-78527054D01*
X38420445Y-78536625D01*
X38463710Y-78579890D01*
X38474500Y-78624835D01*
X38474500Y-84757394D01*
X38481431Y-84776438D01*
X38485895Y-84793097D01*
X38489412Y-84813045D01*
X38493742Y-84820544D01*
X38493743Y-84820548D01*
X38499539Y-84830587D01*
X38506831Y-84846225D01*
X38510796Y-84857117D01*
X38513760Y-84865260D01*
X38526785Y-84880784D01*
X38536674Y-84894906D01*
X38546806Y-84912455D01*
X38553440Y-84918021D01*
X38553441Y-84918023D01*
X38562325Y-84925478D01*
X38574523Y-84937675D01*
X38587545Y-84953194D01*
X38595044Y-84957523D01*
X38595047Y-84957526D01*
X38605083Y-84963320D01*
X38619219Y-84973218D01*
X38628102Y-84980671D01*
X38634739Y-84986240D01*
X38653783Y-84993171D01*
X38669415Y-85000461D01*
X38686955Y-85010588D01*
X38695484Y-85012092D01*
X38706901Y-85014105D01*
X38723569Y-85018571D01*
X38742606Y-85025500D01*
X39972514Y-85025500D01*
X40030705Y-85044407D01*
X40066669Y-85093907D01*
X40066669Y-85155093D01*
X40050392Y-85184457D01*
X40047295Y-85187056D01*
X40042964Y-85194558D01*
X40027862Y-85220716D01*
X40023221Y-85228000D01*
X40000935Y-85259827D01*
X39998693Y-85268195D01*
X39996227Y-85273482D01*
X39994231Y-85278967D01*
X39989901Y-85286466D01*
X39988398Y-85294992D01*
X39988397Y-85294994D01*
X39983155Y-85324727D01*
X39981285Y-85333161D01*
X39971225Y-85370704D01*
X39971980Y-85379333D01*
X39974612Y-85409416D01*
X39974989Y-85418045D01*
X39974989Y-90081955D01*
X39974612Y-90090584D01*
X39971225Y-90129296D01*
X39973467Y-90137663D01*
X39981285Y-90166838D01*
X39983155Y-90175272D01*
X39989901Y-90213534D01*
X39994231Y-90221033D01*
X39996227Y-90226518D01*
X39998693Y-90231805D01*
X40000935Y-90240173D01*
X40021502Y-90269545D01*
X40023221Y-90272000D01*
X40027860Y-90279281D01*
X40047295Y-90312944D01*
X40067468Y-90329871D01*
X40077060Y-90337920D01*
X40083428Y-90343754D01*
X40201845Y-90462171D01*
X40229622Y-90516688D01*
X40220051Y-90577120D01*
X40195498Y-90607985D01*
X40188034Y-90612295D01*
X40165078Y-90639653D01*
X40163057Y-90642061D01*
X40157223Y-90648428D01*
X40083429Y-90722222D01*
X40077062Y-90728056D01*
X40047295Y-90753034D01*
X40042966Y-90760533D01*
X40027862Y-90786694D01*
X40023221Y-90793978D01*
X40000935Y-90825805D01*
X39998693Y-90834173D01*
X39996227Y-90839460D01*
X39994231Y-90844945D01*
X39989901Y-90852444D01*
X39988398Y-90860970D01*
X39988397Y-90860972D01*
X39983155Y-90890705D01*
X39981285Y-90899139D01*
X39971225Y-90936682D01*
X39971980Y-90945311D01*
X39974612Y-90975394D01*
X39974989Y-90984023D01*
X39974989Y-92229944D01*
X39956082Y-92288135D01*
X39906582Y-92324099D01*
X39845396Y-92324099D01*
X39805985Y-92299948D01*
X39504496Y-91998459D01*
X39476719Y-91943942D01*
X39475500Y-91928455D01*
X39475500Y-91170252D01*
X39468282Y-91133963D01*
X39465770Y-91121334D01*
X39465769Y-91121332D01*
X39463867Y-91111769D01*
X39419552Y-91045448D01*
X39353231Y-91001133D01*
X39343668Y-90999231D01*
X39343666Y-90999230D01*
X39320995Y-90994721D01*
X39294748Y-90989500D01*
X38655252Y-90989500D01*
X38629005Y-90994721D01*
X38606334Y-90999230D01*
X38606332Y-90999231D01*
X38596769Y-91001133D01*
X38593526Y-91003300D01*
X38540240Y-91008549D01*
X38494748Y-90999500D01*
X38075834Y-90999500D01*
X38017643Y-90980593D01*
X38005830Y-90970504D01*
X37779496Y-90744170D01*
X37751719Y-90689653D01*
X37750500Y-90674166D01*
X37750500Y-90399813D01*
X37769407Y-90341622D01*
X37779435Y-90329871D01*
X37805365Y-90303895D01*
X37815517Y-90289068D01*
X37854000Y-90202020D01*
X37857873Y-90187815D01*
X37859668Y-90172420D01*
X37860000Y-90166708D01*
X37860000Y-89990680D01*
X37855878Y-89977995D01*
X37851757Y-89975000D01*
X36699000Y-89975000D01*
X36640809Y-89956093D01*
X36604845Y-89906593D01*
X36600000Y-89876000D01*
X36600000Y-89774000D01*
X36618907Y-89715809D01*
X36668407Y-89679845D01*
X36699000Y-89675000D01*
X37844320Y-89675000D01*
X37857005Y-89670878D01*
X37860000Y-89666757D01*
X37860000Y-89499500D01*
X37878907Y-89441309D01*
X37928407Y-89405345D01*
X37959000Y-89400500D01*
X38400187Y-89400500D01*
X38458378Y-89419407D01*
X38470129Y-89429435D01*
X38496105Y-89455365D01*
X38510932Y-89465517D01*
X38597980Y-89504000D01*
X38612185Y-89507873D01*
X38627580Y-89509668D01*
X38633292Y-89510000D01*
X38809320Y-89510000D01*
X38822005Y-89505878D01*
X38825000Y-89501757D01*
X38825000Y-89494320D01*
X39125000Y-89494320D01*
X39129122Y-89507005D01*
X39133243Y-89510000D01*
X39316639Y-89510000D01*
X39322485Y-89509654D01*
X39338353Y-89507766D01*
X39352519Y-89503872D01*
X39439514Y-89465230D01*
X39454321Y-89455054D01*
X39520367Y-89388892D01*
X39530517Y-89374069D01*
X39569000Y-89287020D01*
X39572873Y-89272815D01*
X39574668Y-89257420D01*
X39575000Y-89251708D01*
X39575000Y-88565680D01*
X39570878Y-88552995D01*
X39566757Y-88550000D01*
X39140680Y-88550000D01*
X39127995Y-88554122D01*
X39125000Y-88558243D01*
X39125000Y-89494320D01*
X38825000Y-89494320D01*
X38825000Y-88349000D01*
X38843907Y-88290809D01*
X38893407Y-88254845D01*
X38924000Y-88250000D01*
X39559320Y-88250000D01*
X39572005Y-88245878D01*
X39575000Y-88241757D01*
X39575000Y-87548361D01*
X39574654Y-87542515D01*
X39572766Y-87526647D01*
X39568872Y-87512481D01*
X39530230Y-87425486D01*
X39520054Y-87410679D01*
X39489825Y-87380503D01*
X39461999Y-87326010D01*
X39466393Y-87288733D01*
X39463867Y-87288231D01*
X39466826Y-87273353D01*
X39475500Y-87229748D01*
X39475500Y-85570252D01*
X39468184Y-85533472D01*
X39465770Y-85521334D01*
X39465769Y-85521332D01*
X39463867Y-85511769D01*
X39419552Y-85445448D01*
X39353231Y-85401133D01*
X39343668Y-85399231D01*
X39343666Y-85399230D01*
X39320995Y-85394721D01*
X39294748Y-85389500D01*
X38655252Y-85389500D01*
X38629005Y-85394721D01*
X38606334Y-85399230D01*
X38606332Y-85399231D01*
X38596769Y-85401133D01*
X38593526Y-85403300D01*
X38540240Y-85408549D01*
X38494748Y-85399500D01*
X38075834Y-85399500D01*
X38017643Y-85380593D01*
X38005830Y-85370504D01*
X37779496Y-85144170D01*
X37751719Y-85089653D01*
X37750500Y-85074166D01*
X37750500Y-84799813D01*
X37769407Y-84741622D01*
X37779435Y-84729871D01*
X37805365Y-84703895D01*
X37815517Y-84689068D01*
X37854000Y-84602020D01*
X37857873Y-84587815D01*
X37859668Y-84572420D01*
X37860000Y-84566708D01*
X37860000Y-84390680D01*
X37855878Y-84377995D01*
X37851757Y-84375000D01*
X36699000Y-84375000D01*
X36640809Y-84356093D01*
X36604845Y-84306593D01*
X36600000Y-84276000D01*
X36600000Y-84059320D01*
X36900000Y-84059320D01*
X36904122Y-84072005D01*
X36908243Y-84075000D01*
X37844320Y-84075000D01*
X37857005Y-84070878D01*
X37860000Y-84066757D01*
X37860000Y-83883361D01*
X37859654Y-83877515D01*
X37857766Y-83861647D01*
X37853872Y-83847481D01*
X37815230Y-83760486D01*
X37805054Y-83745679D01*
X37738892Y-83679633D01*
X37724069Y-83669483D01*
X37637020Y-83631000D01*
X37622815Y-83627127D01*
X37607420Y-83625332D01*
X37601708Y-83625000D01*
X36915680Y-83625000D01*
X36902995Y-83629122D01*
X36900000Y-83633243D01*
X36900000Y-84059320D01*
X36600000Y-84059320D01*
X36600000Y-83640680D01*
X36595878Y-83627995D01*
X36591757Y-83625000D01*
X35898361Y-83625000D01*
X35892515Y-83625346D01*
X35876647Y-83627234D01*
X35862481Y-83631128D01*
X35775486Y-83669770D01*
X35760679Y-83679946D01*
X35730503Y-83710175D01*
X35676010Y-83738001D01*
X35638733Y-83733607D01*
X35638231Y-83736133D01*
X35579748Y-83724500D01*
X33920252Y-83724500D01*
X33894005Y-83729721D01*
X33871334Y-83734230D01*
X33871332Y-83734231D01*
X33861769Y-83736133D01*
X33795448Y-83780448D01*
X33751133Y-83846769D01*
X33749231Y-83856332D01*
X33749230Y-83856334D01*
X33747281Y-83866132D01*
X33739500Y-83905252D01*
X33739500Y-84390995D01*
X33720593Y-84449186D01*
X33671093Y-84485150D01*
X33623310Y-84488491D01*
X33620004Y-84487908D01*
X33590272Y-84482666D01*
X33581838Y-84480796D01*
X33552663Y-84472978D01*
X33544296Y-84470736D01*
X33535667Y-84471491D01*
X33505584Y-84474123D01*
X33496955Y-84474500D01*
X31782817Y-84474500D01*
X31774188Y-84474123D01*
X31744105Y-84471491D01*
X31735476Y-84470736D01*
X31727109Y-84472978D01*
X31697934Y-84480796D01*
X31689499Y-84482666D01*
X31659766Y-84487908D01*
X31659764Y-84487909D01*
X31651238Y-84489412D01*
X31643739Y-84493742D01*
X31638254Y-84495738D01*
X31632967Y-84498204D01*
X31624599Y-84500446D01*
X31595227Y-84521013D01*
X31592772Y-84522732D01*
X31585491Y-84527371D01*
X31551828Y-84546806D01*
X31546261Y-84553441D01*
X31526852Y-84576571D01*
X31521018Y-84582939D01*
X30533423Y-85570534D01*
X30527056Y-85576368D01*
X30497286Y-85601348D01*
X30484137Y-85624123D01*
X30477853Y-85635008D01*
X30473212Y-85642292D01*
X30450926Y-85674119D01*
X30448684Y-85682487D01*
X30446218Y-85687774D01*
X30444222Y-85693259D01*
X30439892Y-85700758D01*
X30438389Y-85709284D01*
X30438388Y-85709286D01*
X30433146Y-85739019D01*
X30431276Y-85747454D01*
X30424017Y-85774545D01*
X30421216Y-85784996D01*
X30421971Y-85793625D01*
X30424603Y-85823708D01*
X30424980Y-85832337D01*
X30424980Y-89426240D01*
X30424603Y-89434869D01*
X30421216Y-89473581D01*
X30423457Y-89481945D01*
X30431275Y-89511124D01*
X30433144Y-89519553D01*
X30439892Y-89557820D01*
X30444223Y-89565321D01*
X30446221Y-89570811D01*
X30448684Y-89576092D01*
X30450926Y-89584459D01*
X30471493Y-89613831D01*
X30473212Y-89616286D01*
X30477851Y-89623567D01*
X30497286Y-89657230D01*
X30527056Y-89682210D01*
X30533424Y-89688045D01*
X30845504Y-90000127D01*
X30873281Y-90054643D01*
X30874500Y-90070130D01*
X30874500Y-96166888D01*
X30874123Y-96175517D01*
X30870736Y-96214229D01*
X30872978Y-96222596D01*
X30880796Y-96251771D01*
X30882666Y-96260206D01*
X30886728Y-96283243D01*
X30889412Y-96298467D01*
X30893742Y-96305966D01*
X30895738Y-96311451D01*
X30898204Y-96316738D01*
X30900446Y-96325106D01*
X30921013Y-96354478D01*
X30922732Y-96356933D01*
X30927371Y-96364214D01*
X30946806Y-96397877D01*
X30968492Y-96416074D01*
X30976571Y-96422853D01*
X30982939Y-96428687D01*
X32584748Y-98030496D01*
X32612525Y-98085013D01*
X32602954Y-98145445D01*
X32559689Y-98188710D01*
X32514744Y-98199500D01*
X32443216Y-98199500D01*
X32441061Y-98199689D01*
X32441050Y-98199689D01*
X32317795Y-98210473D01*
X32273308Y-98214365D01*
X32269133Y-98215484D01*
X32269131Y-98215484D01*
X32154968Y-98246074D01*
X32053504Y-98273261D01*
X31847266Y-98369432D01*
X31660861Y-98499953D01*
X31499953Y-98660861D01*
X31497476Y-98664399D01*
X31497474Y-98664401D01*
X31371914Y-98843721D01*
X31369432Y-98847266D01*
X31273261Y-99053504D01*
X31214365Y-99273308D01*
X31194532Y-99500000D01*
X31214365Y-99726692D01*
X31273261Y-99946496D01*
X31369432Y-100152734D01*
X31371913Y-100156277D01*
X31371914Y-100156279D01*
X31493039Y-100329264D01*
X31499953Y-100339139D01*
X31660861Y-100500047D01*
X31664399Y-100502524D01*
X31664401Y-100502526D01*
X31843721Y-100628086D01*
X31847266Y-100630568D01*
X32053504Y-100726739D01*
X32142563Y-100750602D01*
X32269131Y-100784516D01*
X32269133Y-100784516D01*
X32273308Y-100785635D01*
X32317795Y-100789527D01*
X32441050Y-100800311D01*
X32441061Y-100800311D01*
X32443216Y-100800500D01*
X32556784Y-100800500D01*
X32558939Y-100800311D01*
X32558950Y-100800311D01*
X32682205Y-100789527D01*
X32726692Y-100785635D01*
X32730867Y-100784516D01*
X32730869Y-100784516D01*
X32857437Y-100750602D01*
X32946496Y-100726739D01*
X33152734Y-100630568D01*
X33156279Y-100628086D01*
X33335599Y-100502526D01*
X33335601Y-100502524D01*
X33339139Y-100500047D01*
X33500047Y-100339139D01*
X33506962Y-100329264D01*
X33628086Y-100156279D01*
X33628087Y-100156277D01*
X33630568Y-100152734D01*
X33726739Y-99946496D01*
X33785635Y-99726692D01*
X33805468Y-99500000D01*
X33805091Y-99495691D01*
X33805091Y-99491372D01*
X33806925Y-99491372D01*
X33819091Y-99438702D01*
X33865273Y-99398567D01*
X33926226Y-99393241D01*
X33973949Y-99419697D01*
X34771309Y-100217057D01*
X34777143Y-100223424D01*
X34802123Y-100253194D01*
X34835783Y-100272627D01*
X34843067Y-100277268D01*
X34874894Y-100299554D01*
X34883262Y-100301796D01*
X34888549Y-100304262D01*
X34894034Y-100306258D01*
X34901533Y-100310588D01*
X34910059Y-100312091D01*
X34910061Y-100312092D01*
X34939794Y-100317334D01*
X34948228Y-100319204D01*
X34985771Y-100329264D01*
X34994400Y-100328509D01*
X35024483Y-100325877D01*
X35033112Y-100325500D01*
X35456431Y-100325500D01*
X35514622Y-100344407D01*
X35550586Y-100393907D01*
X35550586Y-100455093D01*
X35534974Y-100484765D01*
X35525464Y-100497159D01*
X35464956Y-100643238D01*
X35444318Y-100800000D01*
X35464956Y-100956762D01*
X35525464Y-101102841D01*
X35621718Y-101228282D01*
X35626871Y-101232236D01*
X35635767Y-101239062D01*
X35670423Y-101289486D01*
X35674500Y-101317604D01*
X35674500Y-101941197D01*
X35672283Y-101962033D01*
X35671494Y-101965700D01*
X35669731Y-101973887D01*
X35670692Y-101982008D01*
X35670692Y-101982011D01*
X35673814Y-102008385D01*
X35674275Y-102016208D01*
X35674500Y-102018931D01*
X35674500Y-102023014D01*
X35675170Y-102027040D01*
X35675171Y-102027051D01*
X35677735Y-102042454D01*
X35678393Y-102047074D01*
X35683427Y-102089610D01*
X35671490Y-102149619D01*
X35626559Y-102191152D01*
X35595729Y-102198850D01*
X35595813Y-102199438D01*
X35583381Y-102201217D01*
X35417983Y-102239402D01*
X35407604Y-102243057D01*
X35255988Y-102316352D01*
X35246676Y-102322215D01*
X35115063Y-102427280D01*
X35107280Y-102435063D01*
X35002215Y-102566676D01*
X34996352Y-102575988D01*
X34923057Y-102727604D01*
X34919402Y-102737983D01*
X34881214Y-102903390D01*
X34880063Y-102911430D01*
X34880000Y-102913627D01*
X34880000Y-103334320D01*
X34884122Y-103347005D01*
X34888243Y-103350000D01*
X36464319Y-103350000D01*
X36477004Y-103345878D01*
X36479999Y-103341757D01*
X36479999Y-103191865D01*
X36498906Y-103133674D01*
X36548406Y-103097710D01*
X36609592Y-103097710D01*
X36649003Y-103121861D01*
X38156867Y-104629725D01*
X38170019Y-104646007D01*
X38170845Y-104647286D01*
X38186535Y-104706422D01*
X38164469Y-104763490D01*
X38113074Y-104796689D01*
X38087684Y-104800000D01*
X36242928Y-104800000D01*
X36184737Y-104781093D01*
X36148773Y-104731593D01*
X36148773Y-104670407D01*
X36181164Y-104623629D01*
X36244937Y-104572720D01*
X36252720Y-104564937D01*
X36357785Y-104433324D01*
X36363648Y-104424012D01*
X36436943Y-104272396D01*
X36440598Y-104262017D01*
X36478786Y-104096610D01*
X36479937Y-104088570D01*
X36480000Y-104086374D01*
X36480000Y-103665680D01*
X36475878Y-103652995D01*
X36471757Y-103650000D01*
X34895681Y-103650000D01*
X34882996Y-103654122D01*
X34880001Y-103658243D01*
X34880001Y-104086382D01*
X34880064Y-104088559D01*
X34881217Y-104096619D01*
X34919402Y-104262017D01*
X34923057Y-104272396D01*
X34996352Y-104424012D01*
X35002215Y-104433324D01*
X35107280Y-104564937D01*
X35115063Y-104572720D01*
X35178836Y-104623629D01*
X35212517Y-104674710D01*
X35209742Y-104735832D01*
X35171570Y-104783650D01*
X35117072Y-104800000D01*
X33299000Y-104800000D01*
X33240809Y-104781093D01*
X33204845Y-104731593D01*
X33200000Y-104701000D01*
X33200000Y-102005877D01*
X33200035Y-101965700D01*
X33200045Y-101954551D01*
X33195058Y-101944164D01*
X33194815Y-101943659D01*
X33187537Y-101922817D01*
X33187330Y-101921907D01*
X33187328Y-101921904D01*
X33184850Y-101911038D01*
X33177480Y-101901789D01*
X33165666Y-101882954D01*
X33165375Y-101882347D01*
X33165372Y-101882343D01*
X33160547Y-101872295D01*
X33151107Y-101864746D01*
X33135516Y-101849128D01*
X33127985Y-101839677D01*
X33117337Y-101834541D01*
X33098522Y-101822692D01*
X33097995Y-101822270D01*
X33097990Y-101822268D01*
X33089285Y-101815306D01*
X33077508Y-101812598D01*
X33056682Y-101805285D01*
X33055836Y-101804877D01*
X33045798Y-101800035D01*
X33034653Y-101800025D01*
X33034652Y-101800025D01*
X33022787Y-101800015D01*
X33022789Y-101798270D01*
X33022723Y-101798276D01*
X33022723Y-101800000D01*
X33005877Y-101800000D01*
X32954840Y-101799955D01*
X32954551Y-101799955D01*
X32954463Y-101799997D01*
X32954439Y-101800000D01*
X30299000Y-101800000D01*
X30240809Y-101781093D01*
X30204845Y-101731593D01*
X30200000Y-101701000D01*
X30200000Y-83355912D01*
X30987884Y-83355912D01*
X30988102Y-83356938D01*
X31035950Y-83500775D01*
X31040564Y-83510761D01*
X31119087Y-83640417D01*
X31125805Y-83649140D01*
X31231099Y-83758174D01*
X31239572Y-83765185D01*
X31366420Y-83848192D01*
X31376228Y-83853146D01*
X31518310Y-83905986D01*
X31528986Y-83908647D01*
X31534456Y-83909377D01*
X31547577Y-83906969D01*
X31548783Y-83905702D01*
X31550000Y-83900347D01*
X31550000Y-83365680D01*
X31545878Y-83352995D01*
X31541757Y-83350000D01*
X31001870Y-83350000D01*
X30989185Y-83354122D01*
X30987884Y-83355912D01*
X30200000Y-83355912D01*
X30200000Y-83034445D01*
X30990112Y-83034445D01*
X30992611Y-83047545D01*
X30994022Y-83048870D01*
X30999078Y-83050000D01*
X31534320Y-83050000D01*
X31547005Y-83045878D01*
X31550000Y-83041757D01*
X31550000Y-82502412D01*
X31545878Y-82489727D01*
X31543864Y-82488263D01*
X31542894Y-82488161D01*
X31538092Y-82489217D01*
X31394599Y-82538065D01*
X31384642Y-82542750D01*
X31255530Y-82622181D01*
X31246871Y-82628946D01*
X31138561Y-82735012D01*
X31131616Y-82743527D01*
X31049495Y-82870953D01*
X31044609Y-82880795D01*
X30992761Y-83023247D01*
X30990177Y-83033929D01*
X30990112Y-83034445D01*
X30200000Y-83034445D01*
X30200000Y-39899000D01*
X30218907Y-39840809D01*
X30268407Y-39804845D01*
X30299000Y-39800000D01*
X38222524Y-39800000D01*
X38280715Y-39818907D01*
G37*
%TD.AperFunction*%
%TA.AperFunction,Conductor*%
G36*
X49759191Y-39818907D02*
G01*
X49795155Y-39868407D01*
X49800000Y-39899000D01*
X49800000Y-62220047D01*
X49781093Y-62278238D01*
X49731593Y-62314202D01*
X49701000Y-62319047D01*
X47864500Y-62319047D01*
X47864500Y-66480952D01*
X49701000Y-66480952D01*
X49759191Y-66499859D01*
X49795155Y-66549359D01*
X49800000Y-66579952D01*
X49800000Y-101701000D01*
X49781093Y-101759191D01*
X49731593Y-101795155D01*
X49701000Y-101800000D01*
X47005877Y-101800000D01*
X46954551Y-101799955D01*
X46944502Y-101804781D01*
X46944500Y-101804781D01*
X46943659Y-101805185D01*
X46922817Y-101812463D01*
X46921907Y-101812670D01*
X46921904Y-101812672D01*
X46911038Y-101815150D01*
X46902320Y-101822097D01*
X46901789Y-101822520D01*
X46882954Y-101834334D01*
X46882347Y-101834625D01*
X46882343Y-101834628D01*
X46872295Y-101839453D01*
X46864746Y-101848893D01*
X46849128Y-101864484D01*
X46839677Y-101872015D01*
X46834593Y-101882555D01*
X46834541Y-101882663D01*
X46822692Y-101901478D01*
X46822270Y-101902005D01*
X46822268Y-101902010D01*
X46815306Y-101910715D01*
X46812808Y-101921581D01*
X46812598Y-101922492D01*
X46805285Y-101943318D01*
X46800035Y-101954202D01*
X46800015Y-101977213D01*
X46798270Y-101977211D01*
X46798276Y-101977277D01*
X46800000Y-101977277D01*
X46800000Y-101994123D01*
X46799956Y-102044752D01*
X46799955Y-102045449D01*
X46799997Y-102045537D01*
X46800000Y-102045561D01*
X46800000Y-104701000D01*
X46781093Y-104759191D01*
X46731593Y-104795155D01*
X46701000Y-104800000D01*
X44882928Y-104800000D01*
X44824737Y-104781093D01*
X44788773Y-104731593D01*
X44788773Y-104670407D01*
X44821164Y-104623629D01*
X44884937Y-104572720D01*
X44892720Y-104564937D01*
X44997785Y-104433324D01*
X45003648Y-104424012D01*
X45076943Y-104272396D01*
X45080598Y-104262017D01*
X45118786Y-104096610D01*
X45119937Y-104088570D01*
X45120000Y-104086374D01*
X45120000Y-103665680D01*
X45115878Y-103652995D01*
X45111757Y-103650000D01*
X43535681Y-103650000D01*
X43522996Y-103654122D01*
X43520001Y-103658243D01*
X43520001Y-104086382D01*
X43520064Y-104088559D01*
X43521217Y-104096619D01*
X43559402Y-104262017D01*
X43563057Y-104272396D01*
X43636352Y-104424012D01*
X43642215Y-104433324D01*
X43747280Y-104564937D01*
X43755063Y-104572720D01*
X43818836Y-104623629D01*
X43852517Y-104674710D01*
X43849742Y-104735832D01*
X43811570Y-104783650D01*
X43757072Y-104800000D01*
X40632455Y-104800000D01*
X40574264Y-104781093D01*
X40538300Y-104731593D01*
X40538300Y-104670407D01*
X40540991Y-104663114D01*
X40551737Y-104637173D01*
X40585044Y-104556762D01*
X40605682Y-104400000D01*
X40585044Y-104243238D01*
X40524536Y-104097159D01*
X40428282Y-103971718D01*
X40302841Y-103875464D01*
X40156762Y-103814956D01*
X40000000Y-103794318D01*
X39843238Y-103814956D01*
X39697159Y-103875464D01*
X39571718Y-103971718D01*
X39567764Y-103976871D01*
X39560938Y-103985767D01*
X39510514Y-104020423D01*
X39482396Y-104024500D01*
X38654724Y-104024500D01*
X38596533Y-104005593D01*
X38584720Y-103995504D01*
X37923536Y-103334320D01*
X43520000Y-103334320D01*
X43524122Y-103347005D01*
X43528243Y-103350000D01*
X44154320Y-103350000D01*
X44167005Y-103345878D01*
X44170000Y-103341757D01*
X44170000Y-103334320D01*
X44470000Y-103334320D01*
X44474122Y-103347005D01*
X44478243Y-103350000D01*
X45104319Y-103350000D01*
X45117004Y-103345878D01*
X45119999Y-103341757D01*
X45119999Y-102913618D01*
X45119936Y-102911441D01*
X45118783Y-102903381D01*
X45080598Y-102737983D01*
X45076943Y-102727604D01*
X45003648Y-102575988D01*
X44997785Y-102566676D01*
X44892720Y-102435063D01*
X44884937Y-102427280D01*
X44753324Y-102322215D01*
X44744012Y-102316352D01*
X44592396Y-102243057D01*
X44582018Y-102239402D01*
X44485277Y-102217068D01*
X44472447Y-102218190D01*
X44470000Y-102227015D01*
X44470000Y-103334320D01*
X44170000Y-103334320D01*
X44170000Y-102229221D01*
X44166020Y-102216971D01*
X44156873Y-102216572D01*
X44057982Y-102239402D01*
X44047604Y-102243057D01*
X43895988Y-102316352D01*
X43886676Y-102322215D01*
X43755063Y-102427280D01*
X43747280Y-102435063D01*
X43642215Y-102566676D01*
X43636352Y-102575988D01*
X43563057Y-102727604D01*
X43559402Y-102737983D01*
X43521214Y-102903390D01*
X43520063Y-102911430D01*
X43520000Y-102913627D01*
X43520000Y-103334320D01*
X37923536Y-103334320D01*
X36454496Y-101865280D01*
X36426719Y-101810763D01*
X36425500Y-101795276D01*
X36425500Y-101317604D01*
X36444407Y-101259413D01*
X36464233Y-101239062D01*
X36473129Y-101232236D01*
X36478282Y-101228282D01*
X36574536Y-101102841D01*
X36635044Y-100956762D01*
X36655682Y-100800000D01*
X36635044Y-100643238D01*
X36574536Y-100497159D01*
X36565027Y-100484767D01*
X36544603Y-100427093D01*
X36561980Y-100368427D01*
X36610521Y-100331179D01*
X36643569Y-100325500D01*
X44544030Y-100325500D01*
X44602221Y-100344407D01*
X44622571Y-100364232D01*
X44671718Y-100428282D01*
X44797159Y-100524536D01*
X44943238Y-100585044D01*
X45100000Y-100605682D01*
X45256762Y-100585044D01*
X45402841Y-100524536D01*
X45528282Y-100428282D01*
X45624536Y-100302841D01*
X45685044Y-100156762D01*
X45705682Y-100000000D01*
X45685044Y-99843238D01*
X45624536Y-99697159D01*
X45528282Y-99571718D01*
X45402841Y-99475464D01*
X45256762Y-99414956D01*
X45100000Y-99394318D01*
X44943238Y-99414956D01*
X44797159Y-99475464D01*
X44671718Y-99571718D01*
X44667764Y-99576871D01*
X44622572Y-99635767D01*
X44572148Y-99670423D01*
X44544030Y-99674500D01*
X35190412Y-99674500D01*
X35132221Y-99655593D01*
X35120408Y-99645504D01*
X34569408Y-99094504D01*
X34541631Y-99039987D01*
X34551202Y-98979555D01*
X34594467Y-98936290D01*
X34639412Y-98925500D01*
X37881466Y-98925500D01*
X37890095Y-98925877D01*
X37928807Y-98929264D01*
X37966350Y-98919204D01*
X37974784Y-98917334D01*
X38004517Y-98912092D01*
X38004519Y-98912091D01*
X38013045Y-98910588D01*
X38020544Y-98906258D01*
X38026029Y-98904262D01*
X38031316Y-98901796D01*
X38039684Y-98899554D01*
X38071511Y-98877268D01*
X38078795Y-98872627D01*
X38112455Y-98853194D01*
X38137430Y-98823430D01*
X38143264Y-98817062D01*
X38817069Y-98143258D01*
X38823424Y-98137435D01*
X38853194Y-98112455D01*
X38872629Y-98078792D01*
X38877269Y-98071509D01*
X38894585Y-98046779D01*
X38899553Y-98039684D01*
X38901795Y-98031318D01*
X38904262Y-98026027D01*
X38906255Y-98020550D01*
X38910588Y-98013045D01*
X38917337Y-97974769D01*
X38919206Y-97966337D01*
X38921772Y-97956762D01*
X38929263Y-97928807D01*
X38925877Y-97890103D01*
X38925500Y-97881475D01*
X38925500Y-96034500D01*
X38925877Y-96025871D01*
X38928508Y-95995800D01*
X38929263Y-95987171D01*
X38919205Y-95949635D01*
X38917337Y-95941209D01*
X38915282Y-95929557D01*
X38910588Y-95902933D01*
X38906255Y-95895428D01*
X38904262Y-95889951D01*
X38901795Y-95884660D01*
X38899553Y-95876294D01*
X38877264Y-95844462D01*
X38872628Y-95837184D01*
X38857524Y-95811022D01*
X38857523Y-95811020D01*
X38853194Y-95803523D01*
X38823435Y-95778552D01*
X38817067Y-95772718D01*
X38516031Y-95471682D01*
X38213852Y-95169504D01*
X38186075Y-95114987D01*
X38195646Y-95054555D01*
X38238911Y-95011290D01*
X38283856Y-95000500D01*
X38400187Y-95000500D01*
X38458378Y-95019407D01*
X38470129Y-95029435D01*
X38496105Y-95055365D01*
X38510932Y-95065517D01*
X38597980Y-95104000D01*
X38612185Y-95107873D01*
X38627580Y-95109668D01*
X38633292Y-95110000D01*
X38809320Y-95110000D01*
X38822005Y-95105878D01*
X38825000Y-95101757D01*
X38825000Y-93949000D01*
X38843907Y-93890809D01*
X38893407Y-93854845D01*
X38924000Y-93850000D01*
X39026000Y-93850000D01*
X39084191Y-93868907D01*
X39120155Y-93918407D01*
X39125000Y-93949000D01*
X39125000Y-95094320D01*
X39129122Y-95107005D01*
X39133243Y-95110000D01*
X39175011Y-95110000D01*
X39233202Y-95128907D01*
X39269166Y-95178407D01*
X39274011Y-95209000D01*
X39274011Y-95298887D01*
X39271794Y-95319723D01*
X39271370Y-95321694D01*
X39269242Y-95331577D01*
X39270203Y-95339698D01*
X39270203Y-95339701D01*
X39273325Y-95366075D01*
X39273786Y-95373898D01*
X39274011Y-95376621D01*
X39274011Y-95380704D01*
X39274681Y-95384730D01*
X39274682Y-95384741D01*
X39277246Y-95400144D01*
X39277902Y-95404751D01*
X39283935Y-95455721D01*
X39287246Y-95462616D01*
X39288089Y-95465281D01*
X39289344Y-95472824D01*
X39313730Y-95518018D01*
X39315823Y-95522127D01*
X39338048Y-95568411D01*
X39341605Y-95572642D01*
X39343114Y-95574151D01*
X39343934Y-95575045D01*
X39345502Y-95576903D01*
X39348705Y-95582840D01*
X39371039Y-95603485D01*
X39388235Y-95619381D01*
X39391038Y-95622075D01*
X42398688Y-98629725D01*
X42411852Y-98646025D01*
X42418428Y-98656210D01*
X42445711Y-98677719D01*
X42451615Y-98682964D01*
X42453658Y-98684695D01*
X42456538Y-98687575D01*
X42459854Y-98689945D01*
X42459858Y-98689948D01*
X42472559Y-98699024D01*
X42476285Y-98701821D01*
X42516600Y-98733603D01*
X42523818Y-98736138D01*
X42526295Y-98737424D01*
X42532519Y-98741872D01*
X42564363Y-98751396D01*
X42581691Y-98756578D01*
X42586125Y-98758019D01*
X42628672Y-98772960D01*
X42628676Y-98772961D01*
X42634548Y-98775023D01*
X42640055Y-98775500D01*
X42642196Y-98775500D01*
X42643380Y-98775551D01*
X42645823Y-98775758D01*
X42652287Y-98777691D01*
X42660461Y-98777370D01*
X42660462Y-98777370D01*
X42706115Y-98775576D01*
X42710002Y-98775500D01*
X46149376Y-98775500D01*
X46170212Y-98777717D01*
X46174070Y-98778548D01*
X46174073Y-98778548D01*
X46182066Y-98780269D01*
X46190187Y-98779308D01*
X46190190Y-98779308D01*
X46216564Y-98776186D01*
X46224387Y-98775725D01*
X46227110Y-98775500D01*
X46231193Y-98775500D01*
X46235220Y-98774830D01*
X46239295Y-98774493D01*
X46239461Y-98776501D01*
X46292472Y-98784495D01*
X46336056Y-98827438D01*
X46346075Y-98887797D01*
X46337907Y-98914870D01*
X46273261Y-99053504D01*
X46214365Y-99273308D01*
X46194532Y-99500000D01*
X46214365Y-99726692D01*
X46273261Y-99946496D01*
X46369432Y-100152734D01*
X46371913Y-100156277D01*
X46371914Y-100156279D01*
X46493039Y-100329264D01*
X46499953Y-100339139D01*
X46660861Y-100500047D01*
X46664399Y-100502524D01*
X46664401Y-100502526D01*
X46843721Y-100628086D01*
X46847266Y-100630568D01*
X47053504Y-100726739D01*
X47142563Y-100750602D01*
X47269131Y-100784516D01*
X47269133Y-100784516D01*
X47273308Y-100785635D01*
X47317795Y-100789527D01*
X47441050Y-100800311D01*
X47441061Y-100800311D01*
X47443216Y-100800500D01*
X47556784Y-100800500D01*
X47558939Y-100800311D01*
X47558950Y-100800311D01*
X47682205Y-100789527D01*
X47726692Y-100785635D01*
X47730867Y-100784516D01*
X47730869Y-100784516D01*
X47857437Y-100750602D01*
X47946496Y-100726739D01*
X48152734Y-100630568D01*
X48156279Y-100628086D01*
X48335599Y-100502526D01*
X48335601Y-100502524D01*
X48339139Y-100500047D01*
X48500047Y-100339139D01*
X48506962Y-100329264D01*
X48628086Y-100156279D01*
X48628087Y-100156277D01*
X48630568Y-100152734D01*
X48726739Y-99946496D01*
X48785635Y-99726692D01*
X48805468Y-99500000D01*
X48785635Y-99273308D01*
X48726739Y-99053504D01*
X48630568Y-98847266D01*
X48628086Y-98843721D01*
X48502526Y-98664401D01*
X48502524Y-98664399D01*
X48500047Y-98660861D01*
X48339139Y-98499953D01*
X48152734Y-98369432D01*
X47946496Y-98273261D01*
X47845032Y-98246074D01*
X47730869Y-98215484D01*
X47730867Y-98215484D01*
X47726692Y-98214365D01*
X47682205Y-98210473D01*
X47558950Y-98199689D01*
X47558939Y-98199689D01*
X47556784Y-98199500D01*
X47443216Y-98199500D01*
X47441061Y-98199689D01*
X47441050Y-98199689D01*
X47317795Y-98210473D01*
X47273308Y-98214365D01*
X47269133Y-98215484D01*
X47269131Y-98215484D01*
X47221369Y-98228282D01*
X47143018Y-98249276D01*
X47081918Y-98246074D01*
X47034368Y-98207568D01*
X47018532Y-98148468D01*
X47040458Y-98091346D01*
X47047392Y-98083645D01*
X48529725Y-96601312D01*
X48546025Y-96588148D01*
X48556210Y-96581572D01*
X48577719Y-96554289D01*
X48582964Y-96548385D01*
X48584695Y-96546342D01*
X48587575Y-96543462D01*
X48589945Y-96540146D01*
X48589948Y-96540142D01*
X48599024Y-96527441D01*
X48601826Y-96523708D01*
X48611577Y-96511340D01*
X48633603Y-96483400D01*
X48636138Y-96476182D01*
X48637424Y-96473705D01*
X48641872Y-96467481D01*
X48648671Y-96444748D01*
X48656576Y-96418315D01*
X48658017Y-96413879D01*
X48672961Y-96371325D01*
X48672962Y-96371322D01*
X48675023Y-96365452D01*
X48675500Y-96359945D01*
X48675500Y-96357808D01*
X48675552Y-96356602D01*
X48675758Y-96354176D01*
X48677690Y-96347714D01*
X48677081Y-96332201D01*
X48675576Y-96293911D01*
X48675500Y-96290024D01*
X48675500Y-92875620D01*
X48677718Y-92854783D01*
X48678547Y-92850935D01*
X48678547Y-92850932D01*
X48680269Y-92842934D01*
X48676186Y-92808436D01*
X48675725Y-92800613D01*
X48675500Y-92797890D01*
X48675500Y-92793807D01*
X48674830Y-92789781D01*
X48674829Y-92789770D01*
X48672265Y-92774367D01*
X48671607Y-92769748D01*
X48671259Y-92766802D01*
X48667483Y-92734904D01*
X48666538Y-92726916D01*
X48666538Y-92726915D01*
X48665576Y-92718790D01*
X48662265Y-92711895D01*
X48661422Y-92709230D01*
X48660167Y-92701687D01*
X48635781Y-92656493D01*
X48633688Y-92652384D01*
X48611463Y-92606100D01*
X48607906Y-92601869D01*
X48606397Y-92600360D01*
X48605577Y-92599466D01*
X48604009Y-92597608D01*
X48600806Y-92591671D01*
X48561275Y-92555129D01*
X48558473Y-92552436D01*
X48004496Y-91998459D01*
X47976719Y-91943942D01*
X47975500Y-91928455D01*
X47975500Y-91170252D01*
X47968282Y-91133963D01*
X47965770Y-91121334D01*
X47965769Y-91121332D01*
X47963867Y-91111769D01*
X47919552Y-91045448D01*
X47853231Y-91001133D01*
X47843668Y-90999231D01*
X47843666Y-90999230D01*
X47820995Y-90994721D01*
X47794748Y-90989500D01*
X47155252Y-90989500D01*
X47129005Y-90994721D01*
X47106334Y-90999230D01*
X47106332Y-90999231D01*
X47096769Y-91001133D01*
X47093526Y-91003300D01*
X47040240Y-91008549D01*
X46994748Y-90999500D01*
X46625834Y-90999500D01*
X46567643Y-90980593D01*
X46555830Y-90970504D01*
X46279496Y-90694170D01*
X46251719Y-90639653D01*
X46250500Y-90624166D01*
X46250500Y-90399813D01*
X46269407Y-90341622D01*
X46279435Y-90329871D01*
X46305365Y-90303895D01*
X46315517Y-90289068D01*
X46354000Y-90202020D01*
X46357873Y-90187815D01*
X46359668Y-90172420D01*
X46360000Y-90166708D01*
X46360000Y-89990680D01*
X46355878Y-89977995D01*
X46351757Y-89975000D01*
X45199000Y-89975000D01*
X45140809Y-89956093D01*
X45104845Y-89906593D01*
X45100000Y-89876000D01*
X45100000Y-89774000D01*
X45118907Y-89715809D01*
X45168407Y-89679845D01*
X45199000Y-89675000D01*
X46344320Y-89675000D01*
X46357005Y-89670878D01*
X46360000Y-89666757D01*
X46360000Y-89499500D01*
X46378907Y-89441309D01*
X46428407Y-89405345D01*
X46459000Y-89400500D01*
X46900187Y-89400500D01*
X46958378Y-89419407D01*
X46970129Y-89429435D01*
X46996105Y-89455365D01*
X47010932Y-89465517D01*
X47097980Y-89504000D01*
X47112185Y-89507873D01*
X47127580Y-89509668D01*
X47133292Y-89510000D01*
X47309320Y-89510000D01*
X47322005Y-89505878D01*
X47325000Y-89501757D01*
X47325000Y-89494320D01*
X47625000Y-89494320D01*
X47629122Y-89507005D01*
X47633243Y-89510000D01*
X47816639Y-89510000D01*
X47822485Y-89509654D01*
X47838353Y-89507766D01*
X47852519Y-89503872D01*
X47939514Y-89465230D01*
X47954321Y-89455054D01*
X48020367Y-89388892D01*
X48030517Y-89374069D01*
X48069000Y-89287020D01*
X48072873Y-89272815D01*
X48074668Y-89257420D01*
X48075000Y-89251708D01*
X48075000Y-88565680D01*
X48070878Y-88552995D01*
X48066757Y-88550000D01*
X47640680Y-88550000D01*
X47627995Y-88554122D01*
X47625000Y-88558243D01*
X47625000Y-89494320D01*
X47325000Y-89494320D01*
X47325000Y-88349000D01*
X47343907Y-88290809D01*
X47393407Y-88254845D01*
X47424000Y-88250000D01*
X48059320Y-88250000D01*
X48072005Y-88245878D01*
X48075000Y-88241757D01*
X48075000Y-87548361D01*
X48074654Y-87542515D01*
X48072766Y-87526647D01*
X48068872Y-87512481D01*
X48030230Y-87425486D01*
X48020054Y-87410679D01*
X47989825Y-87380503D01*
X47961999Y-87326010D01*
X47966393Y-87288733D01*
X47963867Y-87288231D01*
X47966826Y-87273353D01*
X47975500Y-87229748D01*
X47975500Y-85570252D01*
X47968184Y-85533472D01*
X47965770Y-85521334D01*
X47965769Y-85521332D01*
X47963867Y-85511769D01*
X47919552Y-85445448D01*
X47853231Y-85401133D01*
X47843668Y-85399231D01*
X47843666Y-85399230D01*
X47820995Y-85394721D01*
X47794748Y-85389500D01*
X47155252Y-85389500D01*
X47129005Y-85394721D01*
X47106334Y-85399230D01*
X47106332Y-85399231D01*
X47096769Y-85401133D01*
X47093526Y-85403300D01*
X47040240Y-85408549D01*
X46994748Y-85399500D01*
X46625834Y-85399500D01*
X46567643Y-85380593D01*
X46555830Y-85370504D01*
X46279496Y-85094170D01*
X46251719Y-85039653D01*
X46250500Y-85024166D01*
X46250500Y-84799813D01*
X46269407Y-84741622D01*
X46279435Y-84729871D01*
X46305365Y-84703895D01*
X46315517Y-84689068D01*
X46354000Y-84602020D01*
X46357873Y-84587815D01*
X46359668Y-84572420D01*
X46360000Y-84566708D01*
X46360000Y-84390680D01*
X46355878Y-84377995D01*
X46351757Y-84375000D01*
X45199000Y-84375000D01*
X45140809Y-84356093D01*
X45104845Y-84306593D01*
X45100000Y-84276000D01*
X45100000Y-84059320D01*
X45400000Y-84059320D01*
X45404122Y-84072005D01*
X45408243Y-84075000D01*
X46344320Y-84075000D01*
X46357005Y-84070878D01*
X46360000Y-84066757D01*
X46360000Y-83883361D01*
X46359654Y-83877515D01*
X46357766Y-83861647D01*
X46353872Y-83847481D01*
X46315230Y-83760486D01*
X46305054Y-83745679D01*
X46238892Y-83679633D01*
X46224069Y-83669483D01*
X46137020Y-83631000D01*
X46122815Y-83627127D01*
X46107420Y-83625332D01*
X46101708Y-83625000D01*
X45415680Y-83625000D01*
X45402995Y-83629122D01*
X45400000Y-83633243D01*
X45400000Y-84059320D01*
X45100000Y-84059320D01*
X45100000Y-83640680D01*
X45095878Y-83627995D01*
X45091757Y-83625000D01*
X44398361Y-83625000D01*
X44392515Y-83625346D01*
X44376647Y-83627234D01*
X44362481Y-83631128D01*
X44275486Y-83669770D01*
X44260679Y-83679946D01*
X44230503Y-83710175D01*
X44176010Y-83738001D01*
X44138733Y-83733607D01*
X44138231Y-83736133D01*
X44079748Y-83724500D01*
X42420252Y-83724500D01*
X42394005Y-83729721D01*
X42371334Y-83734230D01*
X42371332Y-83734231D01*
X42361769Y-83736133D01*
X42295448Y-83780448D01*
X42251133Y-83846769D01*
X42249231Y-83856332D01*
X42249230Y-83856334D01*
X42247281Y-83866132D01*
X42239500Y-83905252D01*
X42239500Y-84544748D01*
X42240447Y-84549511D01*
X42240448Y-84549517D01*
X42241662Y-84555619D01*
X42234472Y-84616381D01*
X42192940Y-84661311D01*
X42132931Y-84673249D01*
X42074562Y-84644939D01*
X41912571Y-84482949D01*
X41906735Y-84476581D01*
X41901830Y-84470736D01*
X41881751Y-84446806D01*
X41848088Y-84427371D01*
X41840807Y-84422732D01*
X41838352Y-84421013D01*
X41808980Y-84400446D01*
X41800612Y-84398204D01*
X41795325Y-84395738D01*
X41789840Y-84393742D01*
X41782341Y-84389412D01*
X41773815Y-84387909D01*
X41773813Y-84387908D01*
X41744080Y-84382666D01*
X41735645Y-84380796D01*
X41706470Y-84372978D01*
X41698103Y-84370736D01*
X41689474Y-84371491D01*
X41659391Y-84374123D01*
X41650762Y-84374500D01*
X39224500Y-84374500D01*
X39166309Y-84355593D01*
X39130345Y-84306093D01*
X39125500Y-84275500D01*
X39125500Y-73400834D01*
X39144407Y-73342643D01*
X39154496Y-73330830D01*
X39455830Y-73029496D01*
X39510347Y-73001719D01*
X39525834Y-73000500D01*
X39800187Y-73000500D01*
X39858378Y-73019407D01*
X39870129Y-73029435D01*
X39896105Y-73055365D01*
X39910932Y-73065517D01*
X39997980Y-73104000D01*
X40012185Y-73107873D01*
X40027580Y-73109668D01*
X40033292Y-73110000D01*
X40209320Y-73110000D01*
X40222005Y-73105878D01*
X40225000Y-73101757D01*
X40225000Y-71949000D01*
X40243907Y-71890809D01*
X40293407Y-71854845D01*
X40324000Y-71850000D01*
X40426000Y-71850000D01*
X40484191Y-71868907D01*
X40520155Y-71918407D01*
X40525000Y-71949000D01*
X40525000Y-73094320D01*
X40529122Y-73107005D01*
X40533243Y-73110000D01*
X40575011Y-73110000D01*
X40633202Y-73128907D01*
X40669166Y-73178407D01*
X40674011Y-73209000D01*
X40674011Y-73444405D01*
X40655104Y-73502596D01*
X40635279Y-73522946D01*
X40571718Y-73571718D01*
X40475464Y-73697159D01*
X40414956Y-73843238D01*
X40394318Y-74000000D01*
X40414956Y-74156762D01*
X40475464Y-74302841D01*
X40571718Y-74428282D01*
X40697159Y-74524536D01*
X40843238Y-74585044D01*
X41000000Y-74605682D01*
X41156762Y-74585044D01*
X41262125Y-74541401D01*
X41323122Y-74536600D01*
X41375291Y-74568570D01*
X41398706Y-74625097D01*
X41399011Y-74632865D01*
X41399011Y-78507627D01*
X41380104Y-78565818D01*
X41330604Y-78601782D01*
X41312934Y-78605780D01*
X41273788Y-78610934D01*
X41243238Y-78614956D01*
X41097159Y-78675464D01*
X40971718Y-78771718D01*
X40875464Y-78897159D01*
X40814956Y-79043238D01*
X40794318Y-79200000D01*
X40814956Y-79356762D01*
X40875464Y-79502841D01*
X40971718Y-79628282D01*
X41097159Y-79724536D01*
X41243238Y-79785044D01*
X41400000Y-79805682D01*
X41556762Y-79785044D01*
X41702841Y-79724536D01*
X41815233Y-79638295D01*
X41872909Y-79617871D01*
X41931574Y-79635249D01*
X41968822Y-79683790D01*
X41974500Y-79716837D01*
X41974500Y-81524165D01*
X41955593Y-81582356D01*
X41945504Y-81594169D01*
X41602251Y-81937423D01*
X41262967Y-82276707D01*
X41208450Y-82304484D01*
X41180045Y-82304856D01*
X41100000Y-82294318D01*
X40943238Y-82314956D01*
X40937241Y-82317440D01*
X40929648Y-82320585D01*
X40797159Y-82375464D01*
X40671718Y-82471718D01*
X40575464Y-82597159D01*
X40514956Y-82743238D01*
X40494318Y-82900000D01*
X40514956Y-83056762D01*
X40575464Y-83202841D01*
X40671718Y-83328282D01*
X40797159Y-83424536D01*
X40943238Y-83485044D01*
X41100000Y-83505682D01*
X41256762Y-83485044D01*
X41402841Y-83424536D01*
X41492274Y-83355912D01*
X46587884Y-83355912D01*
X46588102Y-83356938D01*
X46635950Y-83500775D01*
X46640564Y-83510761D01*
X46719087Y-83640417D01*
X46725805Y-83649140D01*
X46831099Y-83758174D01*
X46839572Y-83765185D01*
X46966420Y-83848192D01*
X46976228Y-83853146D01*
X47118310Y-83905986D01*
X47128986Y-83908647D01*
X47134456Y-83909377D01*
X47147577Y-83906969D01*
X47148783Y-83905702D01*
X47150000Y-83900347D01*
X47150000Y-83897934D01*
X47450000Y-83897934D01*
X47453521Y-83908769D01*
X47464912Y-83908769D01*
X47596135Y-83866132D01*
X47606148Y-83861590D01*
X47690932Y-83811049D01*
X47750597Y-83797493D01*
X47778539Y-83807409D01*
X47779654Y-83804718D01*
X47788660Y-83808449D01*
X47796769Y-83813867D01*
X47806332Y-83815769D01*
X47806334Y-83815770D01*
X47829005Y-83820279D01*
X47855252Y-83825500D01*
X48744748Y-83825500D01*
X48770995Y-83820279D01*
X48793666Y-83815770D01*
X48793668Y-83815769D01*
X48803231Y-83813867D01*
X48869552Y-83769552D01*
X48913867Y-83703231D01*
X48925500Y-83644748D01*
X48925500Y-82755252D01*
X48913867Y-82696769D01*
X48869552Y-82630448D01*
X48803231Y-82586133D01*
X48793668Y-82584231D01*
X48793666Y-82584230D01*
X48770995Y-82579721D01*
X48744748Y-82574500D01*
X47855252Y-82574500D01*
X47829005Y-82579721D01*
X47806334Y-82584230D01*
X47806332Y-82584231D01*
X47796769Y-82586133D01*
X47788660Y-82591551D01*
X47779654Y-82595282D01*
X47778115Y-82591568D01*
X47737397Y-82603029D01*
X47688287Y-82587696D01*
X47624500Y-82547215D01*
X47614619Y-82542396D01*
X47471816Y-82491546D01*
X47464380Y-82489802D01*
X47452485Y-82492157D01*
X47451045Y-82493712D01*
X47450000Y-82498463D01*
X47450000Y-83897934D01*
X47150000Y-83897934D01*
X47150000Y-83365680D01*
X47145878Y-83352995D01*
X47141757Y-83350000D01*
X46601870Y-83350000D01*
X46589185Y-83354122D01*
X46587884Y-83355912D01*
X41492274Y-83355912D01*
X41528282Y-83328282D01*
X41624536Y-83202841D01*
X41685044Y-83056762D01*
X41687982Y-83034445D01*
X46590112Y-83034445D01*
X46592611Y-83047545D01*
X46594022Y-83048870D01*
X46599078Y-83050000D01*
X47134320Y-83050000D01*
X47147005Y-83045878D01*
X47150000Y-83041757D01*
X47150000Y-82502412D01*
X47145878Y-82489727D01*
X47143864Y-82488263D01*
X47142894Y-82488161D01*
X47138092Y-82489217D01*
X46994599Y-82538065D01*
X46984642Y-82542750D01*
X46855530Y-82622181D01*
X46846871Y-82628946D01*
X46738561Y-82735012D01*
X46731616Y-82743527D01*
X46649495Y-82870953D01*
X46644609Y-82880795D01*
X46592761Y-83023247D01*
X46590177Y-83033929D01*
X46590112Y-83034445D01*
X41687982Y-83034445D01*
X41705682Y-82900000D01*
X41695144Y-82819958D01*
X41706294Y-82759799D01*
X41723293Y-82737033D01*
X42106838Y-82353489D01*
X42517069Y-81943258D01*
X42523424Y-81937435D01*
X42553194Y-81912455D01*
X42572636Y-81878781D01*
X42577261Y-81871522D01*
X42594587Y-81846778D01*
X42594587Y-81846777D01*
X42599554Y-81839684D01*
X42601795Y-81831322D01*
X42604258Y-81826040D01*
X42606257Y-81820546D01*
X42610588Y-81813045D01*
X42617337Y-81774771D01*
X42619206Y-81766344D01*
X42627022Y-81737173D01*
X42627022Y-81737170D01*
X42629263Y-81728807D01*
X42625877Y-81690103D01*
X42625500Y-81681475D01*
X42625500Y-79624834D01*
X42644407Y-79566643D01*
X42693907Y-79530679D01*
X42755093Y-79530679D01*
X42794504Y-79554830D01*
X44876706Y-81637033D01*
X44904483Y-81691550D01*
X44904855Y-81719958D01*
X44902589Y-81737173D01*
X44894318Y-81800000D01*
X44914956Y-81956762D01*
X44975464Y-82102841D01*
X45071718Y-82228282D01*
X45197159Y-82324536D01*
X45343238Y-82385044D01*
X45500000Y-82405682D01*
X45656762Y-82385044D01*
X45802841Y-82324536D01*
X45928282Y-82228282D01*
X46024536Y-82102841D01*
X46085044Y-81956762D01*
X46105682Y-81800000D01*
X46085044Y-81643238D01*
X46024536Y-81497159D01*
X45928282Y-81371718D01*
X45802841Y-81275464D01*
X45680573Y-81224819D01*
X45662759Y-81217440D01*
X45656762Y-81214956D01*
X45500000Y-81194318D01*
X45493566Y-81195165D01*
X45493565Y-81195165D01*
X45419958Y-81204855D01*
X45359798Y-81193705D01*
X45337033Y-81176706D01*
X43254496Y-79094170D01*
X43226719Y-79039653D01*
X43225500Y-79024166D01*
X43225500Y-64349386D01*
X43244407Y-64291195D01*
X43293907Y-64255231D01*
X43355093Y-64255231D01*
X43384764Y-64270842D01*
X43422159Y-64299536D01*
X43568238Y-64360044D01*
X43725000Y-64380682D01*
X43881762Y-64360044D01*
X44027841Y-64299536D01*
X44153282Y-64203282D01*
X44249536Y-64077841D01*
X44310044Y-63931762D01*
X44330682Y-63775000D01*
X44310044Y-63618238D01*
X44249536Y-63472159D01*
X44153282Y-63346718D01*
X44027841Y-63250464D01*
X43881762Y-63189956D01*
X43725000Y-63169318D01*
X43718566Y-63170165D01*
X43718565Y-63170165D01*
X43686941Y-63174328D01*
X43626780Y-63163177D01*
X43584664Y-63118795D01*
X43575020Y-63076175D01*
X43575020Y-61863584D01*
X43593927Y-61805393D01*
X43643427Y-61769429D01*
X43704613Y-61769429D01*
X43752561Y-61803317D01*
X43771718Y-61828282D01*
X43897159Y-61924536D01*
X44043238Y-61985044D01*
X44200000Y-62005682D01*
X44356762Y-61985044D01*
X44502841Y-61924536D01*
X44628282Y-61828282D01*
X44724536Y-61702841D01*
X44785044Y-61556762D01*
X44805682Y-61400000D01*
X44795144Y-61319958D01*
X44806294Y-61259799D01*
X44823293Y-61237033D01*
X45941568Y-60118758D01*
X45947936Y-60112923D01*
X45977705Y-60087944D01*
X45997140Y-60054281D01*
X46001779Y-60047000D01*
X46004240Y-60043485D01*
X46024065Y-60015173D01*
X46026307Y-60006808D01*
X46028769Y-60001528D01*
X46030768Y-59996037D01*
X46035099Y-59988534D01*
X46041848Y-59950260D01*
X46043717Y-59941833D01*
X46051533Y-59912662D01*
X46051533Y-59912659D01*
X46053774Y-59904296D01*
X46050388Y-59865592D01*
X46050011Y-59856964D01*
X46050011Y-45611217D01*
X46068918Y-45553026D01*
X46098618Y-45526285D01*
X46102841Y-45524536D01*
X46228282Y-45428282D01*
X46324536Y-45302841D01*
X46385044Y-45156762D01*
X46405682Y-45000000D01*
X46385044Y-44843238D01*
X46324536Y-44697159D01*
X46228282Y-44571718D01*
X46102841Y-44475464D01*
X45956762Y-44414956D01*
X45800000Y-44394318D01*
X45643238Y-44414956D01*
X45497159Y-44475464D01*
X45371718Y-44571718D01*
X45275464Y-44697159D01*
X45214956Y-44843238D01*
X45194318Y-45000000D01*
X45214956Y-45156762D01*
X45275464Y-45302841D01*
X45371049Y-45427410D01*
X45371050Y-45427412D01*
X45371718Y-45428282D01*
X45371557Y-45428406D01*
X45397792Y-45479897D01*
X45399011Y-45495384D01*
X45399011Y-46325713D01*
X45380104Y-46383904D01*
X45330604Y-46419868D01*
X45269418Y-46419868D01*
X45263044Y-46417516D01*
X45262756Y-46417439D01*
X45256762Y-46414956D01*
X45100000Y-46394318D01*
X44943238Y-46414956D01*
X44937241Y-46417440D01*
X44862386Y-46448446D01*
X44801389Y-46453247D01*
X44749220Y-46421277D01*
X44725805Y-46364749D01*
X44725500Y-46356982D01*
X44725500Y-43555970D01*
X44744407Y-43497779D01*
X44764233Y-43477428D01*
X44802210Y-43448288D01*
X44828282Y-43428282D01*
X44924536Y-43302841D01*
X44985044Y-43156762D01*
X45005682Y-43000000D01*
X44985044Y-42843238D01*
X44924536Y-42697159D01*
X44828282Y-42571718D01*
X44702841Y-42475464D01*
X44556762Y-42414956D01*
X44400000Y-42394318D01*
X44243238Y-42414956D01*
X44097159Y-42475464D01*
X43971718Y-42571718D01*
X43875464Y-42697159D01*
X43814956Y-42843238D01*
X43794318Y-43000000D01*
X43814956Y-43156762D01*
X43875464Y-43302841D01*
X43971718Y-43428282D01*
X43997791Y-43448288D01*
X44035767Y-43477428D01*
X44070423Y-43527852D01*
X44074500Y-43555970D01*
X44074500Y-49765762D01*
X44055593Y-49823953D01*
X44045504Y-49835766D01*
X43377594Y-50503677D01*
X42794504Y-51086767D01*
X42739987Y-51114544D01*
X42679555Y-51104973D01*
X42636290Y-51061708D01*
X42625500Y-51016763D01*
X42625500Y-46702311D01*
X42644407Y-46644120D01*
X42693907Y-46608156D01*
X42711578Y-46604158D01*
X42775356Y-46595761D01*
X42856762Y-46585044D01*
X43002841Y-46524536D01*
X43128282Y-46428282D01*
X43224536Y-46302841D01*
X43285044Y-46156762D01*
X43305682Y-46000000D01*
X43285044Y-45843238D01*
X43224536Y-45697159D01*
X43128282Y-45571718D01*
X43002841Y-45475464D01*
X42856762Y-45414956D01*
X42700000Y-45394318D01*
X42543238Y-45414956D01*
X42397159Y-45475464D01*
X42271718Y-45571718D01*
X42175464Y-45697159D01*
X42172981Y-45703154D01*
X42165964Y-45720094D01*
X42126227Y-45766619D01*
X42066733Y-45780903D01*
X42010205Y-45757488D01*
X41978235Y-45705319D01*
X41975500Y-45682208D01*
X41975500Y-41275624D01*
X41977718Y-41254786D01*
X41978548Y-41250933D01*
X41978548Y-41250932D01*
X41980270Y-41242934D01*
X41976186Y-41208428D01*
X41975725Y-41200615D01*
X41975500Y-41197892D01*
X41975500Y-41193807D01*
X41972266Y-41174378D01*
X41971612Y-41169784D01*
X41966538Y-41126913D01*
X41965577Y-41118791D01*
X41962266Y-41111896D01*
X41961423Y-41109231D01*
X41960167Y-41101687D01*
X41935789Y-41056507D01*
X41933680Y-41052367D01*
X41914161Y-41011718D01*
X41914158Y-41011714D01*
X41911463Y-41006101D01*
X41907906Y-41001869D01*
X41906382Y-41000345D01*
X41905575Y-40999465D01*
X41904011Y-40997611D01*
X41900806Y-40991671D01*
X41861275Y-40955129D01*
X41858473Y-40952436D01*
X40904496Y-39998459D01*
X40876719Y-39943942D01*
X40875500Y-39928455D01*
X40875500Y-39899000D01*
X40894407Y-39840809D01*
X40943907Y-39804845D01*
X40974500Y-39800000D01*
X49701000Y-39800000D01*
X49759191Y-39818907D01*
G37*
%TD.AperFunction*%
%TA.AperFunction,Conductor*%
G36*
X41505252Y-95000500D02*
G01*
X42144748Y-95000500D01*
X42144748Y-95001275D01*
X42200568Y-95013528D01*
X42241206Y-95059268D01*
X42249500Y-95098934D01*
X42249500Y-95550187D01*
X42230593Y-95608378D01*
X42220565Y-95620129D01*
X42194635Y-95646105D01*
X42184483Y-95660932D01*
X42146000Y-95747980D01*
X42142127Y-95762185D01*
X42140332Y-95777580D01*
X42140000Y-95783292D01*
X42140000Y-95959320D01*
X42144122Y-95972005D01*
X42148243Y-95975000D01*
X43301000Y-95975000D01*
X43359191Y-95993907D01*
X43395155Y-96043407D01*
X43400000Y-96074000D01*
X43400000Y-96709320D01*
X43404122Y-96722005D01*
X43408243Y-96725000D01*
X44101639Y-96725000D01*
X44107485Y-96724654D01*
X44123353Y-96722766D01*
X44137519Y-96718872D01*
X44224514Y-96680230D01*
X44239321Y-96670054D01*
X44269497Y-96639825D01*
X44323990Y-96611999D01*
X44361267Y-96616393D01*
X44361769Y-96613867D01*
X44420252Y-96625500D01*
X44694797Y-96625500D01*
X44752988Y-96644407D01*
X44788952Y-96693907D01*
X44788952Y-96755093D01*
X44773339Y-96784767D01*
X44725464Y-96847159D01*
X44664956Y-96993238D01*
X44644318Y-97150000D01*
X44664956Y-97306762D01*
X44687397Y-97360938D01*
X44708599Y-97412125D01*
X44713400Y-97473122D01*
X44681430Y-97525291D01*
X44624903Y-97548706D01*
X44617135Y-97549011D01*
X43116323Y-97549011D01*
X43058132Y-97530104D01*
X43046319Y-97520015D01*
X42420308Y-96894004D01*
X42392531Y-96839487D01*
X42402102Y-96779055D01*
X42445367Y-96735790D01*
X42490312Y-96725000D01*
X43084320Y-96725000D01*
X43097005Y-96720878D01*
X43100000Y-96716757D01*
X43100000Y-96290680D01*
X43095878Y-96277995D01*
X43091757Y-96275000D01*
X42155680Y-96275000D01*
X42142995Y-96279122D01*
X42140000Y-96283243D01*
X42140000Y-96374688D01*
X42121093Y-96432879D01*
X42071593Y-96468843D01*
X42010407Y-96468843D01*
X41970996Y-96444692D01*
X40705808Y-95179504D01*
X40678031Y-95124987D01*
X40687602Y-95064555D01*
X40730867Y-95021290D01*
X40775812Y-95010500D01*
X41344748Y-95010500D01*
X41371131Y-95005252D01*
X41393666Y-95000770D01*
X41393668Y-95000769D01*
X41403231Y-94998867D01*
X41406474Y-94996700D01*
X41459760Y-94991451D01*
X41505252Y-95000500D01*
G37*
%TD.AperFunction*%
%TA.AperFunction,Conductor*%
G36*
X33644748Y-95001275D02*
G01*
X33700568Y-95013528D01*
X33741206Y-95059268D01*
X33749500Y-95098934D01*
X33749500Y-95550187D01*
X33730593Y-95608378D01*
X33720565Y-95620129D01*
X33694635Y-95646105D01*
X33684483Y-95660932D01*
X33646000Y-95747980D01*
X33642127Y-95762185D01*
X33640332Y-95777580D01*
X33640000Y-95783292D01*
X33640000Y-95959320D01*
X33644122Y-95972005D01*
X33648243Y-95975000D01*
X34801000Y-95975000D01*
X34859191Y-95993907D01*
X34895155Y-96043407D01*
X34900000Y-96074000D01*
X34900000Y-96709320D01*
X34904122Y-96722005D01*
X34908243Y-96725000D01*
X35601639Y-96725000D01*
X35607485Y-96724654D01*
X35623353Y-96722766D01*
X35637519Y-96718872D01*
X35724514Y-96680230D01*
X35739321Y-96670054D01*
X35769497Y-96639825D01*
X35823990Y-96611999D01*
X35861267Y-96616393D01*
X35861769Y-96613867D01*
X35920252Y-96625500D01*
X36678455Y-96625500D01*
X36736646Y-96644407D01*
X36748459Y-96654496D01*
X36895504Y-96801541D01*
X36923281Y-96856058D01*
X36924500Y-96871545D01*
X36924500Y-97282396D01*
X36905593Y-97340587D01*
X36885768Y-97360937D01*
X36871718Y-97371718D01*
X36867764Y-97376871D01*
X36860938Y-97385767D01*
X36810514Y-97420423D01*
X36782396Y-97424500D01*
X34762523Y-97424500D01*
X34704332Y-97405593D01*
X34692519Y-97395504D01*
X34191019Y-96894004D01*
X34163242Y-96839487D01*
X34172813Y-96779055D01*
X34216078Y-96735790D01*
X34261023Y-96725000D01*
X34584320Y-96725000D01*
X34597005Y-96720878D01*
X34600000Y-96716757D01*
X34600000Y-96290680D01*
X34595878Y-96277995D01*
X34591757Y-96275000D01*
X33655680Y-96275000D01*
X33650233Y-96276770D01*
X33589048Y-96276771D01*
X33549635Y-96252620D01*
X32929496Y-95632481D01*
X32901719Y-95577964D01*
X32900500Y-95562477D01*
X32900500Y-95098934D01*
X32919407Y-95040743D01*
X32968907Y-95004779D01*
X33005252Y-95000838D01*
X33005252Y-95000500D01*
X33644748Y-95000500D01*
X33644748Y-95001275D01*
G37*
%TD.AperFunction*%
%TA.AperFunction,Conductor*%
G36*
X47584191Y-93868907D02*
G01*
X47620155Y-93918407D01*
X47625000Y-93949000D01*
X47625000Y-95094320D01*
X47629122Y-95107005D01*
X47633243Y-95110000D01*
X47816641Y-95110000D01*
X47819646Y-95109822D01*
X47878853Y-95125256D01*
X47917681Y-95172543D01*
X47924500Y-95208649D01*
X47924500Y-96103455D01*
X47905593Y-96161646D01*
X47895504Y-96173459D01*
X46879015Y-97189948D01*
X46824498Y-97217725D01*
X46764066Y-97208154D01*
X46720801Y-97164889D01*
X46710011Y-97119944D01*
X46710011Y-95519023D01*
X46710388Y-95510394D01*
X46713020Y-95480311D01*
X46713775Y-95471682D01*
X46703715Y-95434139D01*
X46701845Y-95425705D01*
X46696603Y-95395972D01*
X46696602Y-95395970D01*
X46695099Y-95387444D01*
X46690769Y-95379945D01*
X46688773Y-95374460D01*
X46686307Y-95369173D01*
X46684065Y-95360805D01*
X46661779Y-95328978D01*
X46657138Y-95321694D01*
X46650055Y-95309425D01*
X46637705Y-95288034D01*
X46607940Y-95263058D01*
X46601572Y-95257224D01*
X46513852Y-95169504D01*
X46486075Y-95114987D01*
X46495646Y-95054555D01*
X46538911Y-95011290D01*
X46583856Y-95000500D01*
X46900187Y-95000500D01*
X46958378Y-95019407D01*
X46970129Y-95029435D01*
X46996105Y-95055365D01*
X47010932Y-95065517D01*
X47097980Y-95104000D01*
X47112185Y-95107873D01*
X47127580Y-95109668D01*
X47133292Y-95110000D01*
X47309320Y-95110000D01*
X47322005Y-95105878D01*
X47325000Y-95101757D01*
X47325000Y-93949000D01*
X47343907Y-93890809D01*
X47393407Y-93854845D01*
X47424000Y-93850000D01*
X47526000Y-93850000D01*
X47584191Y-93868907D01*
G37*
%TD.AperFunction*%
%TA.AperFunction,Conductor*%
G36*
X37207357Y-93944407D02*
G01*
X37219170Y-93954496D01*
X37645504Y-94380830D01*
X37673281Y-94435347D01*
X37674500Y-94450834D01*
X37674500Y-94726066D01*
X37655593Y-94784257D01*
X37606093Y-94820221D01*
X37569748Y-94824162D01*
X37569748Y-94824500D01*
X36830252Y-94824500D01*
X36804005Y-94829721D01*
X36781334Y-94834230D01*
X36781332Y-94834231D01*
X36771769Y-94836133D01*
X36705448Y-94880448D01*
X36703230Y-94877129D01*
X36665487Y-94896360D01*
X36605055Y-94886789D01*
X36595132Y-94879580D01*
X36594552Y-94880448D01*
X36528231Y-94836133D01*
X36518668Y-94834231D01*
X36518666Y-94834230D01*
X36495995Y-94829721D01*
X36469748Y-94824500D01*
X35930252Y-94824500D01*
X35904005Y-94829721D01*
X35881334Y-94834230D01*
X35881332Y-94834231D01*
X35871769Y-94836133D01*
X35869151Y-94837882D01*
X35812311Y-94842356D01*
X35765478Y-94816156D01*
X35728889Y-94779631D01*
X35714069Y-94769483D01*
X35627020Y-94731000D01*
X35612815Y-94727127D01*
X35597420Y-94725332D01*
X35591708Y-94725000D01*
X35465680Y-94725000D01*
X35452995Y-94729122D01*
X35450000Y-94733243D01*
X35450000Y-95376000D01*
X35431093Y-95434191D01*
X35381593Y-95470155D01*
X35351000Y-95475000D01*
X35249000Y-95475000D01*
X35190809Y-95456093D01*
X35154845Y-95406593D01*
X35150000Y-95376000D01*
X35150000Y-94740680D01*
X35145878Y-94727995D01*
X35141757Y-94725000D01*
X35008361Y-94725000D01*
X35002515Y-94725346D01*
X34986647Y-94727234D01*
X34972481Y-94731128D01*
X34885486Y-94769770D01*
X34870679Y-94779946D01*
X34834651Y-94816037D01*
X34780159Y-94843862D01*
X34731149Y-94838082D01*
X34728231Y-94836133D01*
X34669748Y-94824500D01*
X33955284Y-94824500D01*
X33897093Y-94805593D01*
X33861129Y-94756093D01*
X33861129Y-94694907D01*
X33885280Y-94655496D01*
X34586280Y-93954496D01*
X34640797Y-93926719D01*
X34656284Y-93925500D01*
X37149166Y-93925500D01*
X37207357Y-93944407D01*
G37*
%TD.AperFunction*%
%TA.AperFunction,Conductor*%
G36*
X45382846Y-93619896D02*
G01*
X45394659Y-93629985D01*
X46145504Y-94380831D01*
X46173281Y-94435348D01*
X46174500Y-94450835D01*
X46174500Y-94726066D01*
X46155593Y-94784257D01*
X46106093Y-94820221D01*
X46069748Y-94824162D01*
X46069748Y-94824500D01*
X45330252Y-94824500D01*
X45304005Y-94829721D01*
X45281334Y-94834230D01*
X45281332Y-94834231D01*
X45271769Y-94836133D01*
X45205448Y-94880448D01*
X45203230Y-94877129D01*
X45165487Y-94896360D01*
X45105055Y-94886789D01*
X45095132Y-94879580D01*
X45094552Y-94880448D01*
X45028231Y-94836133D01*
X45018668Y-94834231D01*
X45018666Y-94834230D01*
X44995995Y-94829721D01*
X44969748Y-94824500D01*
X44430252Y-94824500D01*
X44404005Y-94829721D01*
X44381334Y-94834230D01*
X44381332Y-94834231D01*
X44371769Y-94836133D01*
X44369151Y-94837882D01*
X44312311Y-94842356D01*
X44265478Y-94816156D01*
X44228889Y-94779631D01*
X44214069Y-94769483D01*
X44127020Y-94731000D01*
X44112815Y-94727127D01*
X44097420Y-94725332D01*
X44091708Y-94725000D01*
X43965680Y-94725000D01*
X43952995Y-94729122D01*
X43950000Y-94733243D01*
X43950000Y-95376000D01*
X43931093Y-95434191D01*
X43881593Y-95470155D01*
X43851000Y-95475000D01*
X43749000Y-95475000D01*
X43690809Y-95456093D01*
X43654845Y-95406593D01*
X43650000Y-95376000D01*
X43650000Y-94740679D01*
X43636780Y-94699990D01*
X43636781Y-94638805D01*
X43660931Y-94599395D01*
X43737033Y-94523293D01*
X43791550Y-94495516D01*
X43819955Y-94495144D01*
X43900000Y-94505682D01*
X44056762Y-94485044D01*
X44202841Y-94424536D01*
X44328282Y-94328282D01*
X44424536Y-94202841D01*
X44485044Y-94056762D01*
X44505682Y-93900000D01*
X44485044Y-93743238D01*
X44482560Y-93737240D01*
X44480881Y-93730975D01*
X44482249Y-93730608D01*
X44478024Y-93676871D01*
X44509997Y-93624704D01*
X44566526Y-93601294D01*
X44574287Y-93600989D01*
X45324655Y-93600989D01*
X45382846Y-93619896D01*
G37*
%TD.AperFunction*%
%TA.AperFunction,Conductor*%
G36*
X34886790Y-91090194D02*
G01*
X34920783Y-91141067D01*
X34924500Y-91167940D01*
X34924500Y-92625980D01*
X34905593Y-92684171D01*
X34856093Y-92720135D01*
X34825500Y-92724980D01*
X34372383Y-92724981D01*
X34324165Y-92724981D01*
X34303329Y-92722763D01*
X34301166Y-92722297D01*
X34299474Y-92721933D01*
X34299473Y-92721933D01*
X34291475Y-92720211D01*
X34257427Y-92724241D01*
X34256969Y-92724295D01*
X34249156Y-92724756D01*
X34246433Y-92724981D01*
X34242348Y-92724981D01*
X34222919Y-92728215D01*
X34218333Y-92728868D01*
X34167332Y-92734904D01*
X34160437Y-92738215D01*
X34157772Y-92739058D01*
X34150228Y-92740314D01*
X34105048Y-92764692D01*
X34100925Y-92766793D01*
X34089938Y-92772069D01*
X34065141Y-92783976D01*
X34004500Y-92792120D01*
X33950654Y-92763065D01*
X33928133Y-92725323D01*
X33920878Y-92702995D01*
X33916757Y-92700000D01*
X33274000Y-92700000D01*
X33215809Y-92681093D01*
X33179845Y-92631593D01*
X33175000Y-92601000D01*
X33175000Y-92499000D01*
X33193907Y-92440809D01*
X33243407Y-92404845D01*
X33274000Y-92400000D01*
X33909320Y-92400000D01*
X33922005Y-92395878D01*
X33925000Y-92391757D01*
X33925000Y-92258361D01*
X33924654Y-92252515D01*
X33922766Y-92236647D01*
X33918872Y-92222481D01*
X33880230Y-92135486D01*
X33870054Y-92120679D01*
X33833963Y-92084651D01*
X33806138Y-92030159D01*
X33811918Y-91981149D01*
X33813867Y-91978231D01*
X33825500Y-91919748D01*
X33825500Y-91223934D01*
X33844407Y-91165743D01*
X33893907Y-91129779D01*
X33930252Y-91125838D01*
X33930252Y-91125500D01*
X34669748Y-91125500D01*
X34700098Y-91119463D01*
X34718666Y-91115770D01*
X34718668Y-91115769D01*
X34728231Y-91113867D01*
X34763660Y-91090194D01*
X34770498Y-91085625D01*
X34829387Y-91069016D01*
X34886790Y-91090194D01*
G37*
%TD.AperFunction*%
%TA.AperFunction,Conductor*%
G36*
X43386790Y-91090194D02*
G01*
X43420783Y-91141067D01*
X43424500Y-91167940D01*
X43424500Y-91224376D01*
X43422283Y-91245212D01*
X43419731Y-91257066D01*
X43420692Y-91265187D01*
X43420692Y-91265190D01*
X43423814Y-91291564D01*
X43424500Y-91303200D01*
X43424500Y-91877477D01*
X43405593Y-91935668D01*
X43395504Y-91947481D01*
X42588848Y-92754137D01*
X42534331Y-92781914D01*
X42473899Y-92772343D01*
X42430634Y-92729078D01*
X42424689Y-92714724D01*
X42420878Y-92702994D01*
X42416757Y-92700000D01*
X41774000Y-92700000D01*
X41715809Y-92681093D01*
X41679845Y-92631593D01*
X41675000Y-92601000D01*
X41675000Y-92499000D01*
X41693907Y-92440809D01*
X41743407Y-92404845D01*
X41774000Y-92400000D01*
X42409320Y-92400000D01*
X42422005Y-92395878D01*
X42425000Y-92391757D01*
X42425000Y-92258361D01*
X42424654Y-92252515D01*
X42422766Y-92236647D01*
X42418872Y-92222481D01*
X42380230Y-92135486D01*
X42370054Y-92120679D01*
X42333963Y-92084651D01*
X42306138Y-92030159D01*
X42311918Y-91981149D01*
X42313867Y-91978231D01*
X42325500Y-91919748D01*
X42325500Y-91223934D01*
X42344407Y-91165743D01*
X42393907Y-91129779D01*
X42430252Y-91125838D01*
X42430252Y-91125500D01*
X43169748Y-91125500D01*
X43200098Y-91119463D01*
X43218666Y-91115770D01*
X43218668Y-91115769D01*
X43228231Y-91113867D01*
X43263660Y-91090194D01*
X43270498Y-91085625D01*
X43329387Y-91069016D01*
X43386790Y-91090194D01*
G37*
%TD.AperFunction*%
%TA.AperFunction,Conductor*%
G36*
X36309191Y-90493907D02*
G01*
X36345155Y-90543407D01*
X36350000Y-90574000D01*
X36350000Y-91209320D01*
X36354122Y-91222005D01*
X36358243Y-91225000D01*
X36491639Y-91225000D01*
X36497485Y-91224654D01*
X36513353Y-91222766D01*
X36527519Y-91218872D01*
X36614514Y-91180230D01*
X36629321Y-91170054D01*
X36665349Y-91133963D01*
X36719841Y-91106138D01*
X36768851Y-91111918D01*
X36771769Y-91113867D01*
X36830252Y-91125500D01*
X37199166Y-91125500D01*
X37257357Y-91144407D01*
X37269170Y-91154496D01*
X37645504Y-91530830D01*
X37673281Y-91585347D01*
X37674500Y-91600834D01*
X37674500Y-91919748D01*
X37679387Y-91944318D01*
X37683987Y-91967440D01*
X37686133Y-91978231D01*
X37691552Y-91986341D01*
X37714375Y-92020498D01*
X37730984Y-92079387D01*
X37709806Y-92136790D01*
X37658933Y-92170783D01*
X37632060Y-92174500D01*
X37095944Y-92174500D01*
X37075107Y-92172282D01*
X37071259Y-92171453D01*
X37071256Y-92171453D01*
X37063258Y-92169731D01*
X37030167Y-92173647D01*
X37028760Y-92173814D01*
X37020941Y-92174275D01*
X37018217Y-92174500D01*
X37014132Y-92174500D01*
X37010106Y-92175170D01*
X37010095Y-92175171D01*
X36994692Y-92177735D01*
X36990080Y-92178392D01*
X36971865Y-92180548D01*
X36947241Y-92183462D01*
X36947240Y-92183462D01*
X36939115Y-92184424D01*
X36932220Y-92187735D01*
X36929555Y-92188578D01*
X36922012Y-92189833D01*
X36876818Y-92214219D01*
X36872709Y-92216312D01*
X36826425Y-92238537D01*
X36822194Y-92242094D01*
X36820685Y-92243603D01*
X36819791Y-92244423D01*
X36817933Y-92245991D01*
X36811996Y-92249194D01*
X36792451Y-92270338D01*
X36775455Y-92288724D01*
X36772761Y-92291527D01*
X36368784Y-92695504D01*
X36314267Y-92723281D01*
X36298780Y-92724500D01*
X35774500Y-92724500D01*
X35716309Y-92705593D01*
X35680345Y-92656093D01*
X35675500Y-92625500D01*
X35675500Y-91283706D01*
X35694407Y-91225515D01*
X35743907Y-91189551D01*
X35805093Y-91189551D01*
X35814530Y-91193160D01*
X35872980Y-91219000D01*
X35887185Y-91222873D01*
X35902580Y-91224668D01*
X35908292Y-91225000D01*
X36034320Y-91225000D01*
X36047005Y-91220878D01*
X36050000Y-91216757D01*
X36050000Y-90574000D01*
X36068907Y-90515809D01*
X36118407Y-90479845D01*
X36149000Y-90475000D01*
X36251000Y-90475000D01*
X36309191Y-90493907D01*
G37*
%TD.AperFunction*%
%TA.AperFunction,Conductor*%
G36*
X44809191Y-90493907D02*
G01*
X44845155Y-90543407D01*
X44850000Y-90574000D01*
X44850000Y-91209320D01*
X44854122Y-91222005D01*
X44858243Y-91225000D01*
X44991639Y-91225000D01*
X44997485Y-91224654D01*
X45013353Y-91222766D01*
X45027519Y-91218872D01*
X45114514Y-91180230D01*
X45129321Y-91170054D01*
X45165349Y-91133963D01*
X45219841Y-91106138D01*
X45268851Y-91111918D01*
X45271769Y-91113867D01*
X45330252Y-91125500D01*
X45749166Y-91125500D01*
X45807357Y-91144407D01*
X45819170Y-91154496D01*
X46145504Y-91480830D01*
X46173281Y-91535347D01*
X46174500Y-91550834D01*
X46174500Y-91919748D01*
X46179387Y-91944318D01*
X46183987Y-91967440D01*
X46186133Y-91978231D01*
X46191552Y-91986341D01*
X46214375Y-92020498D01*
X46230984Y-92079387D01*
X46209806Y-92136790D01*
X46158933Y-92170783D01*
X46132060Y-92174500D01*
X45592604Y-92174500D01*
X45534413Y-92155593D01*
X45514062Y-92135767D01*
X45513847Y-92135486D01*
X45503282Y-92121718D01*
X45377841Y-92025464D01*
X45231762Y-91964956D01*
X45100569Y-91947684D01*
X45081434Y-91945165D01*
X45075000Y-91944318D01*
X45068566Y-91945165D01*
X45068563Y-91945165D01*
X45057441Y-91946629D01*
X44997280Y-91935478D01*
X44974517Y-91918480D01*
X44450041Y-91394004D01*
X44422264Y-91339487D01*
X44431835Y-91279055D01*
X44475100Y-91235790D01*
X44520045Y-91225000D01*
X44534320Y-91225000D01*
X44547005Y-91220878D01*
X44550000Y-91216757D01*
X44550000Y-90574000D01*
X44568907Y-90515809D01*
X44618407Y-90479845D01*
X44649000Y-90475000D01*
X44751000Y-90475000D01*
X44809191Y-90493907D01*
G37*
%TD.AperFunction*%
%TA.AperFunction,Conductor*%
G36*
X31870945Y-85886124D02*
G01*
X31914210Y-85929389D01*
X31925000Y-85974334D01*
X31925000Y-86234320D01*
X31929122Y-86247005D01*
X31933243Y-86250000D01*
X32576000Y-86250000D01*
X32634191Y-86268907D01*
X32670155Y-86318407D01*
X32675000Y-86349000D01*
X32675000Y-86451000D01*
X32656093Y-86509191D01*
X32606593Y-86545155D01*
X32576000Y-86550000D01*
X31940680Y-86550000D01*
X31927995Y-86554122D01*
X31925000Y-86558243D01*
X31925000Y-87251639D01*
X31925346Y-87257485D01*
X31927234Y-87273353D01*
X31931128Y-87287519D01*
X31969770Y-87374514D01*
X31979946Y-87389321D01*
X32010175Y-87419497D01*
X32038001Y-87473990D01*
X32033607Y-87511267D01*
X32036133Y-87511769D01*
X32024500Y-87570252D01*
X32024500Y-89229748D01*
X32025448Y-89234512D01*
X32034144Y-89278231D01*
X32036133Y-89288231D01*
X32080448Y-89354552D01*
X32088558Y-89359971D01*
X32105502Y-89371293D01*
X32143381Y-89419344D01*
X32149500Y-89453608D01*
X32149500Y-89598398D01*
X32147283Y-89619234D01*
X32144731Y-89631088D01*
X32145692Y-89639211D01*
X32145307Y-89647387D01*
X32142722Y-89647265D01*
X32133246Y-89694906D01*
X32088317Y-89736440D01*
X32027555Y-89743632D01*
X31976864Y-89716538D01*
X31454496Y-89194170D01*
X31426719Y-89139653D01*
X31425500Y-89124166D01*
X31425500Y-86275834D01*
X31444407Y-86217643D01*
X31454496Y-86205830D01*
X31755996Y-85904330D01*
X31810513Y-85876553D01*
X31870945Y-85886124D01*
G37*
%TD.AperFunction*%
%TA.AperFunction,Conductor*%
G36*
X46074485Y-87344407D02*
G01*
X46110449Y-87393907D01*
X46110449Y-87455093D01*
X46106840Y-87464530D01*
X46081000Y-87522980D01*
X46077127Y-87537185D01*
X46075332Y-87552580D01*
X46075000Y-87558292D01*
X46075000Y-87684320D01*
X46079122Y-87697005D01*
X46083243Y-87700000D01*
X46726000Y-87700000D01*
X46784191Y-87718907D01*
X46820155Y-87768407D01*
X46825000Y-87799000D01*
X46825000Y-87901000D01*
X46806093Y-87959191D01*
X46756593Y-87995155D01*
X46726000Y-88000000D01*
X46090680Y-88000000D01*
X46077995Y-88004122D01*
X46075000Y-88008243D01*
X46075000Y-88141639D01*
X46075346Y-88147485D01*
X46077234Y-88163353D01*
X46081128Y-88177519D01*
X46119770Y-88264514D01*
X46129946Y-88279321D01*
X46166037Y-88315349D01*
X46193862Y-88369841D01*
X46188082Y-88418851D01*
X46186133Y-88421769D01*
X46184231Y-88431331D01*
X46181549Y-88444814D01*
X46151652Y-88498198D01*
X46096087Y-88523814D01*
X46084451Y-88524500D01*
X42415549Y-88524500D01*
X42357358Y-88505593D01*
X42321394Y-88456093D01*
X42318451Y-88444814D01*
X42315770Y-88431334D01*
X42315769Y-88431331D01*
X42313867Y-88421769D01*
X42285625Y-88379502D01*
X42269016Y-88320613D01*
X42290194Y-88263210D01*
X42341067Y-88229217D01*
X42367940Y-88225500D01*
X42999376Y-88225500D01*
X43020212Y-88227717D01*
X43024070Y-88228548D01*
X43024073Y-88228548D01*
X43032066Y-88230269D01*
X43040187Y-88229308D01*
X43040190Y-88229308D01*
X43066564Y-88226186D01*
X43074387Y-88225725D01*
X43077110Y-88225500D01*
X43081193Y-88225500D01*
X43085219Y-88224830D01*
X43085230Y-88224829D01*
X43100633Y-88222265D01*
X43105240Y-88221609D01*
X43129532Y-88218733D01*
X43148084Y-88216538D01*
X43148085Y-88216538D01*
X43156210Y-88215576D01*
X43163105Y-88212265D01*
X43165770Y-88211422D01*
X43173313Y-88210167D01*
X43218507Y-88185781D01*
X43222616Y-88183688D01*
X43268900Y-88161463D01*
X43273131Y-88157906D01*
X43274640Y-88156397D01*
X43275534Y-88155577D01*
X43277392Y-88154009D01*
X43283329Y-88150806D01*
X43319882Y-88111263D01*
X43322564Y-88108473D01*
X44074735Y-87356302D01*
X44127676Y-87329328D01*
X44129869Y-87329518D01*
X44137813Y-87327545D01*
X44145968Y-87326903D01*
X44145975Y-87326990D01*
X44158155Y-87325500D01*
X46016294Y-87325500D01*
X46074485Y-87344407D01*
G37*
%TD.AperFunction*%
%TA.AperFunction,Conductor*%
G36*
X35844504Y-86750541D02*
G01*
X36273688Y-87179725D01*
X36286852Y-87196025D01*
X36293428Y-87206210D01*
X36320711Y-87227719D01*
X36326615Y-87232964D01*
X36328658Y-87234695D01*
X36331538Y-87237575D01*
X36334854Y-87239945D01*
X36334858Y-87239948D01*
X36347559Y-87249024D01*
X36351292Y-87251826D01*
X36383250Y-87277020D01*
X36391600Y-87283603D01*
X36398818Y-87286138D01*
X36401295Y-87287424D01*
X36407519Y-87291872D01*
X36415362Y-87294218D01*
X36415363Y-87294218D01*
X36456685Y-87306576D01*
X36461121Y-87308017D01*
X36503675Y-87322961D01*
X36503678Y-87322962D01*
X36509548Y-87325023D01*
X36515055Y-87325500D01*
X36517192Y-87325500D01*
X36518398Y-87325552D01*
X36520824Y-87325758D01*
X36527286Y-87327690D01*
X36535458Y-87327369D01*
X36535459Y-87327369D01*
X36581089Y-87325576D01*
X36584976Y-87325500D01*
X37516294Y-87325500D01*
X37574485Y-87344407D01*
X37610449Y-87393907D01*
X37610449Y-87455093D01*
X37606840Y-87464530D01*
X37581000Y-87522980D01*
X37577127Y-87537185D01*
X37575332Y-87552580D01*
X37575000Y-87558292D01*
X37575000Y-87684320D01*
X37579122Y-87697005D01*
X37583243Y-87700000D01*
X38226000Y-87700000D01*
X38284191Y-87718907D01*
X38320155Y-87768407D01*
X38325000Y-87799000D01*
X38325000Y-87901000D01*
X38306093Y-87959191D01*
X38256593Y-87995155D01*
X38226000Y-88000000D01*
X37590680Y-88000000D01*
X37577995Y-88004122D01*
X37575000Y-88008243D01*
X37575000Y-88141639D01*
X37575346Y-88147485D01*
X37577234Y-88163353D01*
X37581128Y-88177519D01*
X37619770Y-88264514D01*
X37629946Y-88279321D01*
X37666037Y-88315349D01*
X37693862Y-88369841D01*
X37688082Y-88418851D01*
X37686133Y-88421769D01*
X37684231Y-88431331D01*
X37681549Y-88444814D01*
X37651652Y-88498198D01*
X37596087Y-88523814D01*
X37584451Y-88524500D01*
X33915549Y-88524500D01*
X33857358Y-88505593D01*
X33821394Y-88456093D01*
X33818451Y-88444814D01*
X33815770Y-88431334D01*
X33815769Y-88431331D01*
X33813867Y-88421769D01*
X33785625Y-88379502D01*
X33769016Y-88320613D01*
X33790194Y-88263210D01*
X33841067Y-88229217D01*
X33867940Y-88225500D01*
X34899376Y-88225500D01*
X34920212Y-88227717D01*
X34924070Y-88228548D01*
X34924073Y-88228548D01*
X34932066Y-88230269D01*
X34940187Y-88229308D01*
X34940190Y-88229308D01*
X34966564Y-88226186D01*
X34974387Y-88225725D01*
X34977110Y-88225500D01*
X34981193Y-88225500D01*
X34985219Y-88224830D01*
X34985230Y-88224829D01*
X35000633Y-88222265D01*
X35005240Y-88221609D01*
X35029532Y-88218733D01*
X35048084Y-88216538D01*
X35048085Y-88216538D01*
X35056210Y-88215576D01*
X35063105Y-88212265D01*
X35065770Y-88211422D01*
X35073313Y-88210167D01*
X35118507Y-88185781D01*
X35122616Y-88183688D01*
X35168900Y-88161463D01*
X35173131Y-88157906D01*
X35174640Y-88156397D01*
X35175534Y-88155577D01*
X35177392Y-88154009D01*
X35183329Y-88150806D01*
X35219882Y-88111263D01*
X35222564Y-88108473D01*
X35529732Y-87801306D01*
X35546024Y-87788149D01*
X35548061Y-87786834D01*
X35549339Y-87786009D01*
X35549340Y-87786008D01*
X35556210Y-87781572D01*
X35577713Y-87754296D01*
X35582968Y-87748382D01*
X35584698Y-87746340D01*
X35587576Y-87743462D01*
X35589945Y-87740146D01*
X35589949Y-87740142D01*
X35599035Y-87727428D01*
X35601834Y-87723699D01*
X35620516Y-87700000D01*
X35633603Y-87683400D01*
X35636137Y-87676184D01*
X35637427Y-87673701D01*
X35641872Y-87667481D01*
X35656578Y-87618309D01*
X35658019Y-87613875D01*
X35672960Y-87571328D01*
X35672961Y-87571324D01*
X35675023Y-87565452D01*
X35675500Y-87559945D01*
X35675500Y-87557804D01*
X35675551Y-87556620D01*
X35675758Y-87554177D01*
X35677691Y-87547713D01*
X35677278Y-87537185D01*
X35675576Y-87493885D01*
X35675500Y-87489998D01*
X35675500Y-86820545D01*
X35694407Y-86762354D01*
X35743907Y-86726390D01*
X35805093Y-86726390D01*
X35844504Y-86750541D01*
G37*
%TD.AperFunction*%
%TA.AperFunction,Conductor*%
G36*
X43390368Y-85487802D02*
G01*
X43424361Y-85538676D01*
X43426734Y-85549291D01*
X43427601Y-85554496D01*
X43427736Y-85555309D01*
X43428391Y-85559915D01*
X43434424Y-85610885D01*
X43437735Y-85617780D01*
X43438578Y-85620445D01*
X43439833Y-85627988D01*
X43464219Y-85673182D01*
X43466312Y-85677291D01*
X43488537Y-85723575D01*
X43492094Y-85727806D01*
X43493603Y-85729315D01*
X43494423Y-85730209D01*
X43495991Y-85732067D01*
X43499194Y-85738004D01*
X43514058Y-85751744D01*
X43538724Y-85774545D01*
X43541527Y-85777239D01*
X43695504Y-85931216D01*
X43723281Y-85985733D01*
X43724500Y-86001220D01*
X43724500Y-86603455D01*
X43705593Y-86661646D01*
X43695504Y-86673459D01*
X42923459Y-87445504D01*
X42868942Y-87473281D01*
X42853455Y-87474500D01*
X42483706Y-87474500D01*
X42425515Y-87455593D01*
X42389551Y-87406093D01*
X42389551Y-87344907D01*
X42393160Y-87335470D01*
X42419000Y-87277020D01*
X42422873Y-87262815D01*
X42424668Y-87247420D01*
X42425000Y-87241708D01*
X42425000Y-87115680D01*
X42420878Y-87102995D01*
X42416757Y-87100000D01*
X41774000Y-87100000D01*
X41715809Y-87081093D01*
X41679845Y-87031593D01*
X41675000Y-87001000D01*
X41675000Y-86899000D01*
X41693907Y-86840809D01*
X41743407Y-86804845D01*
X41774000Y-86800000D01*
X42409320Y-86800000D01*
X42422005Y-86795878D01*
X42425000Y-86791757D01*
X42425000Y-86658361D01*
X42424654Y-86652515D01*
X42422766Y-86636647D01*
X42418872Y-86622481D01*
X42380230Y-86535486D01*
X42370054Y-86520679D01*
X42333963Y-86484651D01*
X42306138Y-86430159D01*
X42311918Y-86381149D01*
X42313867Y-86378231D01*
X42325500Y-86319748D01*
X42325500Y-85623934D01*
X42344407Y-85565743D01*
X42393907Y-85529779D01*
X42430252Y-85525838D01*
X42430252Y-85525500D01*
X43169748Y-85525500D01*
X43200098Y-85519463D01*
X43218666Y-85515770D01*
X43218668Y-85515769D01*
X43228231Y-85513867D01*
X43263660Y-85490194D01*
X43274076Y-85483234D01*
X43332964Y-85466625D01*
X43390368Y-85487802D01*
G37*
%TD.AperFunction*%
%TA.AperFunction,Conductor*%
G36*
X34886790Y-85490194D02*
G01*
X34920783Y-85541067D01*
X34924500Y-85567940D01*
X34924500Y-85624376D01*
X34922283Y-85645212D01*
X34919731Y-85657066D01*
X34920692Y-85665187D01*
X34920692Y-85665190D01*
X34923814Y-85691564D01*
X34924500Y-85703200D01*
X34924500Y-87303455D01*
X34905593Y-87361646D01*
X34895504Y-87373459D01*
X34823459Y-87445504D01*
X34768942Y-87473281D01*
X34753455Y-87474500D01*
X33983706Y-87474500D01*
X33925515Y-87455593D01*
X33889551Y-87406093D01*
X33889551Y-87344907D01*
X33893160Y-87335470D01*
X33919000Y-87277020D01*
X33922873Y-87262815D01*
X33924668Y-87247420D01*
X33925000Y-87241708D01*
X33925000Y-87115680D01*
X33920878Y-87102995D01*
X33916757Y-87100000D01*
X33274000Y-87100000D01*
X33215809Y-87081093D01*
X33179845Y-87031593D01*
X33175000Y-87001000D01*
X33175000Y-86899000D01*
X33193907Y-86840809D01*
X33243407Y-86804845D01*
X33274000Y-86800000D01*
X33909320Y-86800000D01*
X33922005Y-86795878D01*
X33925000Y-86791757D01*
X33925000Y-86658361D01*
X33924654Y-86652515D01*
X33922766Y-86636647D01*
X33918872Y-86622481D01*
X33880230Y-86535486D01*
X33870054Y-86520679D01*
X33833963Y-86484651D01*
X33806138Y-86430159D01*
X33811918Y-86381149D01*
X33813867Y-86378231D01*
X33825500Y-86319748D01*
X33825500Y-85623934D01*
X33844407Y-85565743D01*
X33893907Y-85529779D01*
X33930252Y-85525838D01*
X33930252Y-85525500D01*
X34669748Y-85525500D01*
X34700098Y-85519463D01*
X34718666Y-85515770D01*
X34718668Y-85515769D01*
X34728231Y-85513867D01*
X34763660Y-85490194D01*
X34770498Y-85485625D01*
X34829387Y-85469016D01*
X34886790Y-85490194D01*
G37*
%TD.AperFunction*%
%TA.AperFunction,Conductor*%
G36*
X44809191Y-84893907D02*
G01*
X44845155Y-84943407D01*
X44850000Y-84974000D01*
X44850000Y-85609320D01*
X44854122Y-85622005D01*
X44858243Y-85625000D01*
X44991639Y-85625000D01*
X44997485Y-85624654D01*
X45013353Y-85622766D01*
X45027519Y-85618872D01*
X45114514Y-85580230D01*
X45129321Y-85570054D01*
X45165349Y-85533963D01*
X45219841Y-85506138D01*
X45268851Y-85511918D01*
X45271769Y-85513867D01*
X45330252Y-85525500D01*
X45749166Y-85525500D01*
X45807357Y-85544407D01*
X45819170Y-85554496D01*
X46145504Y-85880830D01*
X46173281Y-85935347D01*
X46174500Y-85950834D01*
X46174500Y-86319748D01*
X46186133Y-86378231D01*
X46191552Y-86386341D01*
X46214375Y-86420498D01*
X46230984Y-86479387D01*
X46209806Y-86536790D01*
X46158933Y-86570783D01*
X46132060Y-86574500D01*
X44574500Y-86574500D01*
X44516309Y-86555593D01*
X44480345Y-86506093D01*
X44475500Y-86475500D01*
X44475500Y-85855299D01*
X44477717Y-85834463D01*
X44478548Y-85830605D01*
X44478548Y-85830602D01*
X44480269Y-85822609D01*
X44479308Y-85814488D01*
X44479308Y-85814485D01*
X44476186Y-85788111D01*
X44475725Y-85780288D01*
X44475500Y-85777565D01*
X44475500Y-85773482D01*
X44474830Y-85769456D01*
X44474829Y-85769445D01*
X44472265Y-85754042D01*
X44471607Y-85749423D01*
X44470256Y-85738004D01*
X44469298Y-85729913D01*
X44481235Y-85669904D01*
X44526165Y-85628372D01*
X44537019Y-85624123D01*
X44547005Y-85620878D01*
X44550000Y-85616757D01*
X44550000Y-84974000D01*
X44568907Y-84915809D01*
X44618407Y-84879845D01*
X44649000Y-84875000D01*
X44751000Y-84875000D01*
X44809191Y-84893907D01*
G37*
%TD.AperFunction*%
%TA.AperFunction,Conductor*%
G36*
X36309191Y-84893907D02*
G01*
X36345155Y-84943407D01*
X36350000Y-84974000D01*
X36350000Y-85609320D01*
X36354122Y-85622005D01*
X36358243Y-85625000D01*
X36491639Y-85625000D01*
X36497485Y-85624654D01*
X36513353Y-85622766D01*
X36527519Y-85618872D01*
X36614514Y-85580230D01*
X36629321Y-85570054D01*
X36665349Y-85533963D01*
X36719841Y-85506138D01*
X36768851Y-85511918D01*
X36771769Y-85513867D01*
X36830252Y-85525500D01*
X37199166Y-85525500D01*
X37257357Y-85544407D01*
X37269170Y-85554496D01*
X37645504Y-85930830D01*
X37673281Y-85985347D01*
X37674500Y-86000834D01*
X37674500Y-86319748D01*
X37686133Y-86378231D01*
X37691552Y-86386341D01*
X37714375Y-86420498D01*
X37730984Y-86479387D01*
X37709806Y-86536790D01*
X37658933Y-86570783D01*
X37632060Y-86574500D01*
X36771545Y-86574500D01*
X36713354Y-86555593D01*
X36701541Y-86545504D01*
X35950041Y-85794004D01*
X35922264Y-85739487D01*
X35931835Y-85679055D01*
X35975100Y-85635790D01*
X36020045Y-85625000D01*
X36034320Y-85625000D01*
X36047005Y-85620878D01*
X36050000Y-85616757D01*
X36050000Y-84974000D01*
X36068907Y-84915809D01*
X36118407Y-84879845D01*
X36149000Y-84875000D01*
X36251000Y-84875000D01*
X36309191Y-84893907D01*
G37*
%TD.AperFunction*%
%TA.AperFunction,Conductor*%
G36*
X36427963Y-74702962D02*
G01*
X36467292Y-74749833D01*
X36474500Y-74786918D01*
X36474500Y-77124166D01*
X36455593Y-77182357D01*
X36445504Y-77194170D01*
X34294170Y-79345504D01*
X34239653Y-79373281D01*
X34224166Y-79374500D01*
X32687399Y-79374500D01*
X32629208Y-79355593D01*
X32605811Y-79331574D01*
X32576027Y-79288238D01*
X32576024Y-79288234D01*
X32572640Y-79283311D01*
X32563078Y-79274791D01*
X32532207Y-79221966D01*
X32538283Y-79161083D01*
X32556061Y-79133863D01*
X32559272Y-79130371D01*
X32563810Y-79126495D01*
X32652156Y-79003550D01*
X32708624Y-78863080D01*
X32729956Y-78713196D01*
X32730094Y-78700000D01*
X32718692Y-78605780D01*
X32712623Y-78555623D01*
X32712622Y-78555620D01*
X32711906Y-78549701D01*
X32703349Y-78527054D01*
X32660502Y-78413664D01*
X32658392Y-78408080D01*
X32572640Y-78283311D01*
X32563078Y-78274791D01*
X32532207Y-78221966D01*
X32538283Y-78161083D01*
X32556061Y-78133863D01*
X32559272Y-78130371D01*
X32563810Y-78126495D01*
X32652156Y-78003550D01*
X32708624Y-77863080D01*
X32729956Y-77713196D01*
X32730094Y-77700000D01*
X32711906Y-77549701D01*
X32658392Y-77408080D01*
X32572640Y-77283311D01*
X32563078Y-77274791D01*
X32532207Y-77221966D01*
X32538283Y-77161083D01*
X32556061Y-77133863D01*
X32559274Y-77130370D01*
X32563810Y-77126495D01*
X32571545Y-77115732D01*
X32606757Y-77066729D01*
X32656069Y-77030507D01*
X32687153Y-77025500D01*
X33841466Y-77025500D01*
X33850095Y-77025877D01*
X33888807Y-77029264D01*
X33926350Y-77019204D01*
X33934784Y-77017334D01*
X33964517Y-77012092D01*
X33964519Y-77012091D01*
X33973045Y-77010588D01*
X33980544Y-77006258D01*
X33986029Y-77004262D01*
X33991316Y-77001796D01*
X33999684Y-76999554D01*
X34031511Y-76977268D01*
X34038795Y-76972627D01*
X34072455Y-76953194D01*
X34097431Y-76923429D01*
X34103265Y-76917061D01*
X36292546Y-74727780D01*
X36298915Y-74721945D01*
X36311865Y-74711079D01*
X36368596Y-74688159D01*
X36427963Y-74702962D01*
G37*
%TD.AperFunction*%
%TA.AperFunction,Conductor*%
G36*
X38477721Y-53944407D02*
G01*
X38498071Y-53964232D01*
X38547218Y-54028282D01*
X38672659Y-54124536D01*
X38818738Y-54185044D01*
X38949931Y-54202316D01*
X38969066Y-54204835D01*
X38975500Y-54205682D01*
X38977355Y-54205438D01*
X39033691Y-54223742D01*
X39069655Y-54273242D01*
X39074500Y-54303835D01*
X39074500Y-54919748D01*
X39086133Y-54978231D01*
X39113509Y-55019201D01*
X39130448Y-55044552D01*
X39127129Y-55046770D01*
X39146360Y-55084513D01*
X39136789Y-55144945D01*
X39129580Y-55154868D01*
X39130448Y-55155448D01*
X39086133Y-55221769D01*
X39074500Y-55280252D01*
X39074500Y-55819748D01*
X39086133Y-55878231D01*
X39087882Y-55880849D01*
X39092356Y-55937689D01*
X39066156Y-55984522D01*
X39029631Y-56021111D01*
X39019483Y-56035931D01*
X38981000Y-56122980D01*
X38977127Y-56137185D01*
X38975332Y-56152580D01*
X38975000Y-56158292D01*
X38975000Y-56284320D01*
X38979122Y-56297005D01*
X38983243Y-56300000D01*
X39626000Y-56300000D01*
X39684191Y-56318907D01*
X39720155Y-56368407D01*
X39725000Y-56399000D01*
X39725000Y-56501000D01*
X39706093Y-56559191D01*
X39656593Y-56595155D01*
X39626000Y-56600000D01*
X38990680Y-56600000D01*
X38977995Y-56604122D01*
X38975000Y-56608243D01*
X38975000Y-56741639D01*
X38975346Y-56747485D01*
X38977234Y-56763353D01*
X38981128Y-56777519D01*
X39019770Y-56864514D01*
X39029946Y-56879321D01*
X39066037Y-56915349D01*
X39093862Y-56969841D01*
X39088082Y-57018851D01*
X39086133Y-57021769D01*
X39074500Y-57080252D01*
X39074500Y-57819748D01*
X39086133Y-57878231D01*
X39130448Y-57944552D01*
X39138558Y-57949971D01*
X39196769Y-57988867D01*
X39196076Y-57989904D01*
X39234910Y-58023069D01*
X39249500Y-58074799D01*
X39249500Y-68925201D01*
X39230593Y-68983392D01*
X39196297Y-69010427D01*
X39196769Y-69011133D01*
X39130448Y-69055448D01*
X39086133Y-69121769D01*
X39074500Y-69180252D01*
X39074500Y-69919748D01*
X39086133Y-69978231D01*
X39100679Y-70000000D01*
X39130448Y-70044552D01*
X39127129Y-70046770D01*
X39146360Y-70084513D01*
X39136789Y-70144945D01*
X39129580Y-70154868D01*
X39130448Y-70155448D01*
X39086133Y-70221769D01*
X39074500Y-70280252D01*
X39074500Y-70819748D01*
X39086133Y-70878231D01*
X39087882Y-70880849D01*
X39092356Y-70937689D01*
X39066156Y-70984522D01*
X39029631Y-71021111D01*
X39019483Y-71035931D01*
X38981000Y-71122980D01*
X38977127Y-71137185D01*
X38975332Y-71152580D01*
X38975000Y-71158292D01*
X38975000Y-71284320D01*
X38979122Y-71297005D01*
X38983243Y-71300000D01*
X39626000Y-71300000D01*
X39684191Y-71318907D01*
X39720155Y-71368407D01*
X39725000Y-71399000D01*
X39725000Y-71501000D01*
X39706093Y-71559191D01*
X39656593Y-71595155D01*
X39626000Y-71600000D01*
X38990680Y-71600000D01*
X38977995Y-71604122D01*
X38975000Y-71608243D01*
X38975000Y-71741639D01*
X38975346Y-71747485D01*
X38977234Y-71763353D01*
X38981128Y-71777519D01*
X39019770Y-71864514D01*
X39029946Y-71879321D01*
X39066037Y-71915349D01*
X39093862Y-71969841D01*
X39088082Y-72018851D01*
X39086133Y-72021769D01*
X39074500Y-72080252D01*
X39074500Y-72449166D01*
X39055593Y-72507357D01*
X39045504Y-72519170D01*
X38944984Y-72619690D01*
X38890467Y-72647467D01*
X38830035Y-72637896D01*
X38786770Y-72594631D01*
X38775980Y-72549686D01*
X38775980Y-60669017D01*
X38776357Y-60660389D01*
X38778988Y-60630311D01*
X38779743Y-60621684D01*
X38777502Y-60613321D01*
X38777502Y-60613318D01*
X38769686Y-60584147D01*
X38767817Y-60575719D01*
X38762572Y-60545976D01*
X38761068Y-60537446D01*
X38756737Y-60529943D01*
X38754738Y-60524452D01*
X38752276Y-60519172D01*
X38750034Y-60510807D01*
X38727748Y-60478980D01*
X38723107Y-60471696D01*
X38708003Y-60445535D01*
X38703674Y-60438036D01*
X38673909Y-60413060D01*
X38667541Y-60407226D01*
X37323282Y-59062967D01*
X37295505Y-59008450D01*
X37295133Y-58980045D01*
X37305671Y-58900000D01*
X37285033Y-58743238D01*
X37224525Y-58597159D01*
X37128271Y-58471718D01*
X37002830Y-58375464D01*
X36856751Y-58314956D01*
X36699989Y-58294318D01*
X36543227Y-58314956D01*
X36537229Y-58317440D01*
X36530964Y-58319119D01*
X36530596Y-58317745D01*
X36476880Y-58321974D01*
X36424710Y-58290006D01*
X36401294Y-58233478D01*
X36400989Y-58225709D01*
X36400989Y-55800345D01*
X36419896Y-55742154D01*
X36429985Y-55730341D01*
X38205830Y-53954496D01*
X38260347Y-53926719D01*
X38275834Y-53925500D01*
X38419530Y-53925500D01*
X38477721Y-53944407D01*
G37*
%TD.AperFunction*%
%TA.AperFunction,Conductor*%
G36*
X40484191Y-56868907D02*
G01*
X40520155Y-56918407D01*
X40525000Y-56949000D01*
X40525000Y-58094320D01*
X40529122Y-58107005D01*
X40533243Y-58110000D01*
X40575011Y-58110000D01*
X40633202Y-58128907D01*
X40669166Y-58178407D01*
X40674011Y-58209000D01*
X40674011Y-68890500D01*
X40655104Y-68948691D01*
X40605604Y-68984655D01*
X40575011Y-68989500D01*
X40055252Y-68989500D01*
X40018814Y-68996748D01*
X39958053Y-68989556D01*
X39913123Y-68948024D01*
X39900500Y-68899650D01*
X39900500Y-58206065D01*
X39919407Y-58147874D01*
X39968907Y-58111910D01*
X40010965Y-58107731D01*
X40027580Y-58109668D01*
X40033292Y-58110000D01*
X40209320Y-58110000D01*
X40222005Y-58105878D01*
X40225000Y-58101757D01*
X40225000Y-56949000D01*
X40243907Y-56890809D01*
X40293407Y-56854845D01*
X40324000Y-56850000D01*
X40426000Y-56850000D01*
X40484191Y-56868907D01*
G37*
%TD.AperFunction*%
%TA.AperFunction,Conductor*%
G36*
X45344956Y-50048006D02*
G01*
X45388221Y-50091271D01*
X45399011Y-50136216D01*
X45399011Y-59699655D01*
X45380104Y-59757846D01*
X45370015Y-59769659D01*
X44362967Y-60776707D01*
X44308450Y-60804484D01*
X44280045Y-60804856D01*
X44200000Y-60794318D01*
X44043238Y-60814956D01*
X43897159Y-60875464D01*
X43771718Y-60971718D01*
X43755779Y-60992491D01*
X43752562Y-60996683D01*
X43702138Y-61031339D01*
X43640974Y-61029738D01*
X43592432Y-60992491D01*
X43575020Y-60936416D01*
X43575020Y-51762207D01*
X43593927Y-51704016D01*
X43604016Y-51692203D01*
X45230007Y-50066212D01*
X45284524Y-50038435D01*
X45344956Y-50048006D01*
G37*
%TD.AperFunction*%
%TA.AperFunction,Conductor*%
G36*
X37633691Y-49144407D02*
G01*
X37669655Y-49193907D01*
X37674500Y-49224500D01*
X37674500Y-49928834D01*
X37674718Y-49931135D01*
X37674718Y-49931145D01*
X37676913Y-49954361D01*
X37677481Y-49960369D01*
X37722366Y-50088184D01*
X37802850Y-50197150D01*
X37911816Y-50277634D01*
X37953195Y-50292165D01*
X38019415Y-50315420D01*
X38068054Y-50352540D01*
X38085586Y-50411160D01*
X38065313Y-50468890D01*
X38014979Y-50503677D01*
X37998506Y-50507111D01*
X37973886Y-50510090D01*
X37961660Y-50513195D01*
X37833740Y-50563842D01*
X37822087Y-50570408D01*
X37712814Y-50653352D01*
X37703352Y-50662814D01*
X37620408Y-50772087D01*
X37613842Y-50783740D01*
X37563195Y-50911660D01*
X37560090Y-50923887D01*
X37550359Y-51004301D01*
X37550000Y-51010257D01*
X37550000Y-51534320D01*
X37554122Y-51547005D01*
X37558243Y-51550000D01*
X38476000Y-51550000D01*
X38534191Y-51568907D01*
X38570155Y-51618407D01*
X38575000Y-51649000D01*
X38575000Y-52884320D01*
X38579122Y-52897005D01*
X38583243Y-52900000D01*
X38609684Y-52900000D01*
X38667875Y-52918907D01*
X38703839Y-52968407D01*
X38703839Y-53029593D01*
X38669951Y-53077542D01*
X38547218Y-53171718D01*
X38506760Y-53224445D01*
X38498072Y-53235767D01*
X38447648Y-53270423D01*
X38419530Y-53274500D01*
X38118534Y-53274500D01*
X38109905Y-53274123D01*
X38079822Y-53271491D01*
X38071193Y-53270736D01*
X38062826Y-53272978D01*
X38033651Y-53280796D01*
X38025216Y-53282666D01*
X37995483Y-53287908D01*
X37995481Y-53287909D01*
X37986955Y-53289412D01*
X37979456Y-53293742D01*
X37973971Y-53295738D01*
X37968684Y-53298204D01*
X37960316Y-53300446D01*
X37930944Y-53321013D01*
X37928489Y-53322732D01*
X37921208Y-53327371D01*
X37887545Y-53346806D01*
X37881978Y-53353441D01*
X37862569Y-53376571D01*
X37856735Y-53382939D01*
X36220473Y-55019201D01*
X36165956Y-55046978D01*
X36105524Y-55037407D01*
X36062259Y-54994142D01*
X36051469Y-54949197D01*
X36051469Y-52389743D01*
X37550000Y-52389743D01*
X37550359Y-52395699D01*
X37560090Y-52476113D01*
X37563195Y-52488340D01*
X37613842Y-52616260D01*
X37620408Y-52627913D01*
X37703352Y-52737186D01*
X37712814Y-52746648D01*
X37822087Y-52829592D01*
X37833740Y-52836158D01*
X37961660Y-52886805D01*
X37973887Y-52889910D01*
X38054301Y-52899641D01*
X38060257Y-52900000D01*
X38259320Y-52900000D01*
X38272005Y-52895878D01*
X38275000Y-52891757D01*
X38275000Y-51865680D01*
X38270878Y-51852995D01*
X38266757Y-51850000D01*
X37565680Y-51850000D01*
X37552995Y-51854122D01*
X37550000Y-51858243D01*
X37550000Y-52389743D01*
X36051469Y-52389743D01*
X36051469Y-49849864D01*
X36070376Y-49791673D01*
X36080466Y-49779860D01*
X36437034Y-49423293D01*
X36491550Y-49395516D01*
X36519956Y-49395144D01*
X36600000Y-49405682D01*
X36756762Y-49385044D01*
X36902841Y-49324536D01*
X37028282Y-49228282D01*
X37077429Y-49164233D01*
X37127852Y-49129577D01*
X37155970Y-49125500D01*
X37575500Y-49125500D01*
X37633691Y-49144407D01*
G37*
%TD.AperFunction*%
%TA.AperFunction,Conductor*%
G36*
X41144004Y-41300042D02*
G01*
X41195504Y-41351542D01*
X41223281Y-41406059D01*
X41224500Y-41421546D01*
X41224500Y-45469786D01*
X41205593Y-45527977D01*
X41156093Y-45563941D01*
X41090748Y-45562486D01*
X41014287Y-45533822D01*
X41002298Y-45530971D01*
X40949991Y-45525289D01*
X40944657Y-45525000D01*
X40865680Y-45525000D01*
X40852995Y-45529122D01*
X40850000Y-45533243D01*
X40850000Y-47059320D01*
X40854122Y-47072005D01*
X40858243Y-47075000D01*
X40944657Y-47075000D01*
X40949991Y-47074711D01*
X41002298Y-47069029D01*
X41014287Y-47066178D01*
X41090748Y-47037514D01*
X41151873Y-47034791D01*
X41202924Y-47068517D01*
X41224500Y-47130214D01*
X41224500Y-47175500D01*
X41205593Y-47233691D01*
X41156093Y-47269655D01*
X41125500Y-47274500D01*
X40996166Y-47274500D01*
X40993865Y-47274718D01*
X40993855Y-47274718D01*
X40970639Y-47276913D01*
X40970638Y-47276913D01*
X40964631Y-47277481D01*
X40836816Y-47322366D01*
X40727850Y-47402850D01*
X40723450Y-47408807D01*
X40707489Y-47430417D01*
X40647366Y-47511816D01*
X40602481Y-47639631D01*
X40599500Y-47671166D01*
X40599500Y-49928834D01*
X40599718Y-49931135D01*
X40599718Y-49931145D01*
X40601913Y-49954361D01*
X40602481Y-49960369D01*
X40647366Y-50088184D01*
X40727850Y-50197150D01*
X40836816Y-50277634D01*
X40933302Y-50311517D01*
X40981941Y-50348637D01*
X40999500Y-50404925D01*
X40999500Y-50520075D01*
X40980593Y-50578266D01*
X40933302Y-50613483D01*
X40836816Y-50647366D01*
X40830865Y-50651761D01*
X40830864Y-50651762D01*
X40815901Y-50662814D01*
X40727850Y-50727850D01*
X40647366Y-50836816D01*
X40602481Y-50964631D01*
X40599500Y-50996166D01*
X40599500Y-51903455D01*
X40580593Y-51961646D01*
X40570504Y-51973459D01*
X40294504Y-52249459D01*
X40239987Y-52277236D01*
X40179555Y-52267665D01*
X40136290Y-52224400D01*
X40125500Y-52179455D01*
X40125500Y-47111470D01*
X40144407Y-47053279D01*
X40193907Y-47017315D01*
X40259252Y-47018770D01*
X40385713Y-47066178D01*
X40397702Y-47069029D01*
X40450009Y-47074711D01*
X40455343Y-47075000D01*
X40534320Y-47075000D01*
X40547005Y-47070878D01*
X40550000Y-47066757D01*
X40550000Y-45540680D01*
X40545878Y-45527995D01*
X40541757Y-45525000D01*
X40455343Y-45525000D01*
X40450009Y-45525289D01*
X40397702Y-45530971D01*
X40385713Y-45533822D01*
X40259252Y-45581230D01*
X40198127Y-45583953D01*
X40147076Y-45550227D01*
X40125500Y-45488530D01*
X40125500Y-43701727D01*
X40125877Y-43693098D01*
X40128509Y-43663015D01*
X40129264Y-43654386D01*
X40119204Y-43616843D01*
X40117334Y-43608409D01*
X40112092Y-43578676D01*
X40112091Y-43578674D01*
X40110588Y-43570148D01*
X40106258Y-43562649D01*
X40104262Y-43557164D01*
X40101796Y-43551877D01*
X40099554Y-43543509D01*
X40077268Y-43511682D01*
X40072627Y-43504398D01*
X40067413Y-43495367D01*
X40053194Y-43470738D01*
X40023429Y-43445762D01*
X40017061Y-43439928D01*
X39929496Y-43352363D01*
X39901719Y-43297846D01*
X39900500Y-43282359D01*
X39900500Y-43206065D01*
X39919407Y-43147874D01*
X39968907Y-43111910D01*
X40010965Y-43107731D01*
X40027580Y-43109668D01*
X40033292Y-43110000D01*
X40209320Y-43110000D01*
X40222005Y-43105878D01*
X40225000Y-43101757D01*
X40225000Y-43094320D01*
X40525000Y-43094320D01*
X40529122Y-43107005D01*
X40533243Y-43110000D01*
X40716639Y-43110000D01*
X40722485Y-43109654D01*
X40738353Y-43107766D01*
X40752519Y-43103872D01*
X40839514Y-43065230D01*
X40854321Y-43055054D01*
X40920367Y-42988892D01*
X40930517Y-42974069D01*
X40969000Y-42887020D01*
X40972873Y-42872815D01*
X40974668Y-42857420D01*
X40975000Y-42851708D01*
X40975000Y-42165680D01*
X40970878Y-42152995D01*
X40966757Y-42150000D01*
X40540680Y-42150000D01*
X40527995Y-42154122D01*
X40525000Y-42158243D01*
X40525000Y-43094320D01*
X40225000Y-43094320D01*
X40225000Y-41949000D01*
X40243907Y-41890809D01*
X40293407Y-41854845D01*
X40324000Y-41850000D01*
X40959320Y-41850000D01*
X40972005Y-41845878D01*
X40975000Y-41841757D01*
X40975000Y-41370046D01*
X40993907Y-41311855D01*
X41043407Y-41275891D01*
X41104593Y-41275891D01*
X41144004Y-41300042D01*
G37*
%TD.AperFunction*%
%TD*%
M02*
