%TF.GenerationSoftware,KiCad,Pcbnew,6.0.2*%
%TF.CreationDate,2022-03-25T15:37:29+01:00*%
%TF.ProjectId,espriktning,65737072-696b-4746-9e69-6e672e6b6963,rev?*%
%TF.SameCoordinates,Original*%
%TF.FileFunction,Legend,Top*%
%TF.FilePolarity,Positive*%
%FSLAX46Y46*%
G04 Gerber Fmt 4.6, Leading zero omitted, Abs format (unit mm)*
G04 Created by KiCad (PCBNEW 6.0.2) date 2022-03-25 15:37:29*
%MOMM*%
%LPD*%
G01*
G04 APERTURE LIST*
%ADD10C,0.045155*%
%ADD11C,0.100000*%
%ADD12C,0.120000*%
%ADD13C,0.150000*%
%ADD14C,0.152400*%
G04 APERTURE END LIST*
D10*
X39077889Y-30976250D02*
X39082922Y-30977953D01*
X38570702Y-30631891D02*
X38577758Y-30627368D01*
X38421562Y-31035774D02*
X38435849Y-31056413D01*
X38667933Y-30602191D02*
X38667933Y-30602191D01*
X38133570Y-31425056D02*
X38145937Y-31364655D01*
X38969071Y-31156316D02*
X38965484Y-31152553D01*
X38499453Y-31130985D02*
X38516947Y-31147686D01*
X38790901Y-30653126D02*
X38796659Y-30659166D01*
X38422695Y-31433409D02*
X38403462Y-31414155D01*
X38127121Y-31481294D02*
X38133570Y-31425056D01*
X38650152Y-30949100D02*
X38641449Y-30947994D01*
X38563884Y-30636740D02*
X38570702Y-30631891D01*
X38943914Y-31116961D02*
X38942211Y-31111928D01*
X38497562Y-30741047D02*
X38499504Y-30732633D01*
X39013459Y-31183175D02*
X39008425Y-31181472D01*
X39153448Y-31068636D02*
X39153866Y-31074138D01*
X38499504Y-30819556D02*
X38497562Y-30811142D01*
X38676882Y-30602418D02*
X38685713Y-30603089D01*
X38958863Y-31144530D02*
X38955842Y-31140283D01*
X38937341Y-31079713D02*
X38937341Y-31079713D01*
X38807288Y-30672045D02*
X38812136Y-30678864D01*
X38173890Y-31696803D02*
X38154930Y-31662769D01*
X38494927Y-30758314D02*
X38496033Y-30749611D01*
X38608139Y-30939445D02*
X38600242Y-30936332D01*
X38403462Y-31414155D02*
X38386188Y-31391977D01*
X38634962Y-31232409D02*
X38656766Y-31244050D01*
X39022867Y-31340568D02*
X39022867Y-31340568D01*
X38910257Y-30491007D02*
X38910257Y-30491007D01*
X38608139Y-30612744D02*
X38616219Y-30610010D01*
X38496033Y-30802578D02*
X38494927Y-30793875D01*
X39003506Y-30979893D02*
X39008425Y-30977953D01*
X38585040Y-30623180D02*
X38592538Y-30619340D01*
X38557314Y-30910287D02*
X38551004Y-30904821D01*
X38676882Y-30949772D02*
X38667933Y-30949998D01*
X38154930Y-31662769D02*
X38140495Y-31624108D01*
X38828170Y-30708404D02*
X38831284Y-30716301D01*
X38528578Y-30880144D02*
X38523729Y-30873326D01*
X38544964Y-30653126D02*
X38551004Y-30647368D01*
X39012889Y-31346269D02*
X38941962Y-31388092D01*
X38743327Y-30619340D02*
X38750825Y-30623180D01*
X38852370Y-31313615D02*
X38906994Y-31324858D01*
X39013459Y-30976250D02*
X39018600Y-30974790D01*
X39135505Y-31140283D02*
X39132485Y-31144530D01*
X38836361Y-30732633D02*
X38838303Y-30741047D01*
X39149137Y-31111928D02*
X39147433Y-31116961D01*
X38802125Y-30665476D02*
X38807288Y-30672045D01*
X38758215Y-31635336D02*
X38705194Y-31675850D01*
X38945854Y-31121881D02*
X38943914Y-31116961D01*
X38994036Y-30984455D02*
X38998707Y-30982062D01*
X38409862Y-31797667D02*
X38367040Y-31798628D01*
X39092641Y-30982062D02*
X39097312Y-30984455D01*
X38632885Y-30946465D02*
X38624472Y-30944523D01*
X38260165Y-31083296D02*
X38306306Y-31003481D01*
X39045674Y-31188046D02*
X39045674Y-31188046D01*
X38941962Y-31388092D02*
X38870888Y-31423777D01*
X38331830Y-31099991D02*
X38337178Y-31048014D01*
X38698383Y-31482083D02*
X38665657Y-31487828D01*
X39040099Y-30971520D02*
X39045674Y-30971380D01*
X38224266Y-31750617D02*
X38197095Y-31726117D01*
X38989499Y-31172362D02*
X38985104Y-31169544D01*
X39138323Y-31023538D02*
X39140932Y-31028075D01*
X39122277Y-31156316D02*
X39118515Y-31159903D01*
X38338901Y-31272471D02*
X38333086Y-31234510D01*
X38650152Y-30603089D02*
X38658984Y-30602418D01*
X39256638Y-30928616D02*
X39238108Y-31088265D01*
X38989499Y-30987063D02*
X38994036Y-30984455D01*
X39087842Y-31179532D02*
X39082922Y-31181472D01*
X38940751Y-31106787D02*
X38939542Y-31101546D01*
X38980856Y-30992901D02*
X38985104Y-30989881D01*
X38824687Y-30851489D02*
X38820847Y-30858987D01*
X39056750Y-31187487D02*
X39051249Y-31187905D01*
X38955842Y-31019143D02*
X38958863Y-31014895D01*
X39125864Y-31152553D02*
X39122277Y-31156316D01*
X38550971Y-31762185D02*
X38502106Y-31779539D01*
X38164502Y-31300186D02*
X38189542Y-31231741D01*
X38515019Y-30693202D02*
X38519206Y-30685919D01*
X39106244Y-30989881D02*
X39110491Y-30992901D01*
X39143324Y-31126680D02*
X39140932Y-31131351D01*
X39114584Y-31163308D02*
X39110491Y-31166524D01*
X38937900Y-31068636D02*
X38938589Y-31063215D01*
X39023841Y-31185845D02*
X39018600Y-31184635D01*
X38435849Y-31056413D02*
X38450785Y-31076243D01*
X39029176Y-31186798D02*
X39023841Y-31185845D01*
X38771982Y-30915449D02*
X38765164Y-30920298D01*
X38511178Y-30851489D02*
X38507696Y-30843786D01*
X38347230Y-31307120D02*
X38338901Y-31272471D01*
X39077889Y-31183175D02*
X39072748Y-31184635D01*
X38812136Y-30678864D02*
X38816659Y-30685919D01*
X38585040Y-30929009D02*
X38577758Y-30924821D01*
X38841610Y-30785044D02*
X38840938Y-30793875D01*
X38386188Y-31391977D02*
X38370984Y-31366796D01*
X39110491Y-31166524D02*
X39106244Y-31169544D01*
X38831284Y-30716301D02*
X38834018Y-30724381D01*
X39092641Y-31177363D02*
X39087842Y-31179532D01*
X38727727Y-30939445D02*
X38719646Y-30942179D01*
X39101848Y-30987063D02*
X39106244Y-30989881D01*
X38819029Y-31312059D02*
X38608064Y-31733989D01*
X38577758Y-30924821D02*
X38570702Y-30920298D01*
X38834018Y-30724381D02*
X38836361Y-30732633D01*
X39023841Y-30973580D02*
X39029176Y-30972628D01*
X39067507Y-30973580D02*
X39072748Y-30974790D01*
X38655104Y-30488156D02*
X38910257Y-30491007D01*
X38942211Y-31111928D02*
X38940751Y-31106787D01*
X38980856Y-31166524D02*
X38976764Y-31163308D01*
X38326791Y-31794310D02*
X38289393Y-31784807D01*
X38950416Y-31131351D02*
X38948023Y-31126680D01*
X38963838Y-31333813D02*
X39022867Y-31340568D01*
X38725749Y-31274938D02*
X38749920Y-31283925D01*
X38758108Y-30924821D02*
X38750825Y-30929009D01*
X39153448Y-31090789D02*
X39152759Y-31096211D01*
X38641449Y-30947994D02*
X38632885Y-30946465D01*
X38802125Y-30886713D02*
X38796659Y-30893023D01*
X38750825Y-30929009D02*
X38743327Y-30932849D01*
X38370984Y-31366796D02*
X38357961Y-31338536D01*
X38834018Y-30827808D02*
X38831284Y-30835888D01*
X38836361Y-30819556D02*
X38834018Y-30827808D01*
X39154007Y-31079713D02*
X39153866Y-31085287D01*
X38945854Y-31037544D02*
X38948023Y-31032746D01*
X38507696Y-30708404D02*
X38511178Y-30700700D01*
X38796659Y-30893023D02*
X38790901Y-30899063D01*
X38937341Y-31079713D02*
X38937482Y-31074138D01*
X39056750Y-30971939D02*
X39062172Y-30972628D01*
X38735624Y-30615857D02*
X38743327Y-30619340D01*
X38517000Y-31482723D02*
X38491040Y-31474395D01*
X39143324Y-31032746D02*
X39145494Y-31037544D01*
X38221337Y-31159413D02*
X38260165Y-31083296D01*
X38743327Y-30932849D02*
X38735624Y-30936332D01*
X38652794Y-31710434D02*
X38601294Y-31739181D01*
X38731849Y-31474263D02*
X38698383Y-31482083D01*
X38998707Y-30982062D02*
X39003506Y-30979893D01*
X38976764Y-30996118D02*
X38980856Y-30992901D01*
X38658984Y-30602418D02*
X38667933Y-30602191D01*
X38633782Y-31491420D02*
X38602867Y-31492783D01*
X39129269Y-31148623D02*
X39125864Y-31152553D01*
X38937482Y-31085287D02*
X38937341Y-31079713D01*
X39118515Y-31159903D02*
X39114584Y-31163308D01*
X39045674Y-30971380D02*
X39045674Y-30971380D01*
X38800555Y-31452707D02*
X38765943Y-31464445D01*
X38950416Y-31028075D02*
X38953024Y-31023538D01*
X39097312Y-30984455D02*
X39101848Y-30987063D01*
X39132485Y-31144530D02*
X39129269Y-31148623D01*
X38702980Y-30946465D02*
X38694416Y-30947994D01*
X38955842Y-31140283D02*
X38953024Y-31135887D01*
X38357961Y-31338536D02*
X38347230Y-31307120D01*
X38749920Y-31283925D02*
X38800000Y-31300000D01*
X38466367Y-31095274D02*
X38482591Y-31113518D01*
X38667933Y-30949998D02*
X38658984Y-30949772D01*
X38551004Y-30904821D02*
X38544964Y-30899063D01*
X38758108Y-30627368D02*
X38765164Y-30631891D01*
X39101848Y-31172362D02*
X39097312Y-31174971D01*
X38840938Y-30793875D02*
X38839832Y-30802578D01*
X39034597Y-31187487D02*
X39029176Y-31186798D01*
X38255126Y-31770212D02*
X38224266Y-31750617D01*
X38938589Y-31063215D02*
X38939542Y-31057880D01*
X39153866Y-31074138D02*
X39154007Y-31079713D01*
X38985104Y-30989881D02*
X38989499Y-30987063D01*
X38711394Y-30944523D02*
X38702980Y-30946465D01*
X38679168Y-31255011D02*
X38702163Y-31265304D01*
X38962079Y-31010803D02*
X38965484Y-31006872D01*
X39051249Y-31187905D02*
X39045674Y-31188046D01*
X39018600Y-30974790D02*
X39023841Y-30973580D01*
X38702163Y-31265304D02*
X38725749Y-31274938D01*
X38906994Y-31324858D02*
X38963838Y-31333813D01*
X38360038Y-30920064D02*
X38360038Y-30920064D01*
X38958863Y-31014895D02*
X38962079Y-31010803D01*
X39051249Y-30971520D02*
X39056750Y-30971939D01*
X38632885Y-30605724D02*
X38641449Y-30604195D01*
X38557314Y-30641902D02*
X38563884Y-30636740D01*
X38840938Y-30758314D02*
X38841610Y-30767146D01*
X38515019Y-30858987D02*
X38511178Y-30851489D01*
X39045674Y-30971380D02*
X39051249Y-30971520D01*
X38494927Y-30793875D02*
X38494256Y-30785044D01*
X38553817Y-31178833D02*
X38573184Y-31193300D01*
X38439863Y-31069735D02*
X38151924Y-31634208D01*
X38450785Y-31076243D02*
X38466367Y-31095274D01*
X38494256Y-30767146D02*
X38494927Y-30758314D01*
X38841836Y-30776095D02*
X38841836Y-30776095D01*
X38523729Y-30873326D02*
X38519206Y-30866270D01*
X38502106Y-31779539D02*
X38454976Y-31791335D01*
X38727727Y-30612744D02*
X38735624Y-30615857D01*
X38969071Y-31003110D02*
X38972833Y-30999522D01*
X39067507Y-31185845D02*
X39062172Y-31186798D01*
X38140495Y-31624108D02*
X38130862Y-31580914D01*
X38765943Y-31464445D02*
X38731849Y-31474263D01*
X38939542Y-31101546D02*
X38938589Y-31096211D01*
X38494029Y-30776095D02*
X38494029Y-30776095D01*
X38778551Y-30641902D02*
X38784861Y-30647368D01*
X39150596Y-31052638D02*
X39151806Y-31057880D01*
X38511178Y-30700700D02*
X38515019Y-30693202D01*
X39008425Y-30977953D02*
X39013459Y-30976250D01*
X38918211Y-31477287D02*
X38865002Y-31536148D01*
X38504582Y-30716301D02*
X38507696Y-30708404D01*
X38454976Y-31791335D02*
X38409862Y-31797667D01*
X38811577Y-31588800D02*
X38758215Y-31635336D01*
X38994036Y-31174971D02*
X38989499Y-31172362D01*
X38624472Y-30944523D02*
X38616219Y-30942179D01*
X39062172Y-30972628D02*
X39067507Y-30973580D01*
X39029176Y-30972628D02*
X39034597Y-30971939D01*
X38360038Y-30920064D02*
X38371008Y-30944911D01*
X38765164Y-30920298D02*
X38758108Y-30924821D01*
X39256638Y-30928616D02*
X39256638Y-30928616D01*
X38533740Y-30886713D02*
X38528578Y-30880144D01*
X38685713Y-30603089D02*
X38694416Y-30604195D01*
X39153866Y-31085287D02*
X39153448Y-31090789D01*
X39118515Y-30999522D02*
X39122277Y-31003110D01*
X38394959Y-30992026D02*
X38407931Y-31014315D01*
X38831284Y-30835888D02*
X38828170Y-30843786D01*
X38494029Y-30776095D02*
X38494256Y-30767146D01*
X39135505Y-31019143D02*
X39138323Y-31023538D01*
X38443776Y-31449816D02*
X38422695Y-31433409D01*
X38602363Y-31226533D02*
X38314424Y-31791006D01*
X38482591Y-31113518D02*
X38499453Y-31130985D01*
X39145494Y-31037544D02*
X39147433Y-31042464D01*
X38528578Y-30672045D02*
X38533740Y-30665476D01*
X38600242Y-30615857D02*
X38608139Y-30612744D01*
X39154007Y-31079713D02*
X39154007Y-31079713D01*
X38577758Y-30627368D02*
X38585040Y-30623180D01*
X38694416Y-30604195D02*
X38702980Y-30605724D01*
X38289393Y-31784807D02*
X38255126Y-31770212D01*
X38656766Y-31244050D02*
X38679168Y-31255011D01*
X38965484Y-31006872D02*
X38969071Y-31003110D01*
X38838303Y-30741047D02*
X38839832Y-30749611D01*
X39150596Y-31106787D02*
X39149137Y-31111928D01*
X38962079Y-31148623D02*
X38958863Y-31144530D01*
X38736354Y-30687717D02*
X38736250Y-30691825D01*
X38736250Y-30691825D02*
X38735942Y-30695879D01*
X38735942Y-30695879D02*
X38735434Y-30699874D01*
X38735434Y-30699874D02*
X38734732Y-30703805D01*
X38734732Y-30703805D02*
X38733841Y-30707667D01*
X38733841Y-30707667D02*
X38732765Y-30711455D01*
X38732765Y-30711455D02*
X38731510Y-30715164D01*
X38731510Y-30715164D02*
X38730081Y-30718789D01*
X38730081Y-30718789D02*
X38728482Y-30722325D01*
X38728482Y-30722325D02*
X38726719Y-30725767D01*
X38726719Y-30725767D02*
X38724797Y-30729109D01*
X38724797Y-30729109D02*
X38722721Y-30732348D01*
X38722721Y-30732348D02*
X38720495Y-30735478D01*
X38720495Y-30735478D02*
X38718126Y-30738493D01*
X38718126Y-30738493D02*
X38715617Y-30741390D01*
X38715617Y-30741390D02*
X38712974Y-30744162D01*
X38712974Y-30744162D02*
X38710201Y-30746805D01*
X38710201Y-30746805D02*
X38707305Y-30749314D01*
X38707305Y-30749314D02*
X38704290Y-30751684D01*
X38704290Y-30751684D02*
X38701160Y-30753909D01*
X38701160Y-30753909D02*
X38697921Y-30755985D01*
X38697921Y-30755985D02*
X38694578Y-30757908D01*
X38694578Y-30757908D02*
X38691136Y-30759670D01*
X38691136Y-30759670D02*
X38687601Y-30761269D01*
X38687601Y-30761269D02*
X38683976Y-30762698D01*
X38683976Y-30762698D02*
X38680267Y-30763953D01*
X38680267Y-30763953D02*
X38676479Y-30765029D01*
X38676479Y-30765029D02*
X38672617Y-30765920D01*
X38672617Y-30765920D02*
X38668686Y-30766622D01*
X38668686Y-30766622D02*
X38664691Y-30767130D01*
X38664691Y-30767130D02*
X38660637Y-30767438D01*
X38660637Y-30767438D02*
X38656529Y-30767542D01*
X38656529Y-30767542D02*
X38652422Y-30767438D01*
X38652422Y-30767438D02*
X38648368Y-30767130D01*
X38648368Y-30767130D02*
X38644373Y-30766622D01*
X38644373Y-30766622D02*
X38640442Y-30765920D01*
X38640442Y-30765920D02*
X38636580Y-30765029D01*
X38636580Y-30765029D02*
X38632792Y-30763953D01*
X38632792Y-30763953D02*
X38629083Y-30762698D01*
X38629083Y-30762698D02*
X38625458Y-30761269D01*
X38625458Y-30761269D02*
X38621922Y-30759670D01*
X38621922Y-30759670D02*
X38618480Y-30757908D01*
X38618480Y-30757908D02*
X38615137Y-30755985D01*
X38615137Y-30755985D02*
X38611899Y-30753909D01*
X38611899Y-30753909D02*
X38608769Y-30751684D01*
X38608769Y-30751684D02*
X38605754Y-30749314D01*
X38605754Y-30749314D02*
X38602857Y-30746805D01*
X38602857Y-30746805D02*
X38600085Y-30744162D01*
X38600085Y-30744162D02*
X38597442Y-30741390D01*
X38597442Y-30741390D02*
X38594933Y-30738493D01*
X38594933Y-30738493D02*
X38592563Y-30735478D01*
X38592563Y-30735478D02*
X38590338Y-30732348D01*
X38590338Y-30732348D02*
X38588261Y-30729109D01*
X38588261Y-30729109D02*
X38586339Y-30725767D01*
X38586339Y-30725767D02*
X38584576Y-30722325D01*
X38584576Y-30722325D02*
X38582978Y-30718789D01*
X38582978Y-30718789D02*
X38581549Y-30715164D01*
X38581549Y-30715164D02*
X38580294Y-30711455D01*
X38580294Y-30711455D02*
X38579218Y-30707667D01*
X38579218Y-30707667D02*
X38578327Y-30703805D01*
X38578327Y-30703805D02*
X38577625Y-30699874D01*
X38577625Y-30699874D02*
X38577117Y-30695879D01*
X38577117Y-30695879D02*
X38576809Y-30691825D01*
X38576809Y-30691825D02*
X38576705Y-30687717D01*
X38576705Y-30687717D02*
X38576809Y-30683610D01*
X38576809Y-30683610D02*
X38577117Y-30679556D01*
X38577117Y-30679556D02*
X38577625Y-30675561D01*
X38577625Y-30675561D02*
X38578327Y-30671630D01*
X38578327Y-30671630D02*
X38579218Y-30667768D01*
X38579218Y-30667768D02*
X38580294Y-30663980D01*
X38580294Y-30663980D02*
X38581549Y-30660271D01*
X38581549Y-30660271D02*
X38582978Y-30656646D01*
X38582978Y-30656646D02*
X38584576Y-30653110D01*
X38584576Y-30653110D02*
X38586339Y-30649668D01*
X38586339Y-30649668D02*
X38588261Y-30646326D01*
X38588261Y-30646326D02*
X38590338Y-30643087D01*
X38590338Y-30643087D02*
X38592563Y-30639957D01*
X38592563Y-30639957D02*
X38594933Y-30636942D01*
X38594933Y-30636942D02*
X38597442Y-30634045D01*
X38597442Y-30634045D02*
X38600085Y-30631273D01*
X38600085Y-30631273D02*
X38602857Y-30628630D01*
X38602857Y-30628630D02*
X38605754Y-30626121D01*
X38605754Y-30626121D02*
X38608769Y-30623751D01*
X38608769Y-30623751D02*
X38611899Y-30621526D01*
X38611899Y-30621526D02*
X38615137Y-30619449D01*
X38615137Y-30619449D02*
X38618480Y-30617527D01*
X38618480Y-30617527D02*
X38621922Y-30615765D01*
X38621922Y-30615765D02*
X38625458Y-30614166D01*
X38625458Y-30614166D02*
X38629083Y-30612737D01*
X38629083Y-30612737D02*
X38632792Y-30611482D01*
X38632792Y-30611482D02*
X38636580Y-30610406D01*
X38636580Y-30610406D02*
X38640442Y-30609515D01*
X38640442Y-30609515D02*
X38644373Y-30608813D01*
X38644373Y-30608813D02*
X38648368Y-30608305D01*
X38648368Y-30608305D02*
X38652422Y-30607997D01*
X38652422Y-30607997D02*
X38656529Y-30607893D01*
X38656529Y-30607893D02*
X38660637Y-30607997D01*
X38660637Y-30607997D02*
X38664691Y-30608305D01*
X38664691Y-30608305D02*
X38668686Y-30608813D01*
X38668686Y-30608813D02*
X38672617Y-30609515D01*
X38672617Y-30609515D02*
X38676479Y-30610406D01*
X38676479Y-30610406D02*
X38680267Y-30611482D01*
X38680267Y-30611482D02*
X38683976Y-30612737D01*
X38683976Y-30612737D02*
X38687601Y-30614166D01*
X38687601Y-30614166D02*
X38691136Y-30615765D01*
X38691136Y-30615765D02*
X38694578Y-30617527D01*
X38694578Y-30617527D02*
X38697921Y-30619449D01*
X38697921Y-30619449D02*
X38701160Y-30621526D01*
X38701160Y-30621526D02*
X38704290Y-30623751D01*
X38704290Y-30623751D02*
X38707305Y-30626121D01*
X38707305Y-30626121D02*
X38710201Y-30628630D01*
X38710201Y-30628630D02*
X38712974Y-30631273D01*
X38712974Y-30631273D02*
X38715617Y-30634045D01*
X38715617Y-30634045D02*
X38718126Y-30636942D01*
X38718126Y-30636942D02*
X38720495Y-30639957D01*
X38720495Y-30639957D02*
X38722721Y-30643087D01*
X38722721Y-30643087D02*
X38724797Y-30646326D01*
X38724797Y-30646326D02*
X38726719Y-30649668D01*
X38726719Y-30649668D02*
X38728482Y-30653110D01*
X38728482Y-30653110D02*
X38730081Y-30656646D01*
X38730081Y-30656646D02*
X38731510Y-30660271D01*
X38731510Y-30660271D02*
X38732765Y-30663980D01*
X38732765Y-30663980D02*
X38733841Y-30667768D01*
X38733841Y-30667768D02*
X38734732Y-30671630D01*
X38734732Y-30671630D02*
X38735434Y-30675561D01*
X38735434Y-30675561D02*
X38735942Y-30679556D01*
X38735942Y-30679556D02*
X38736250Y-30683610D01*
X38736250Y-30683610D02*
X38736354Y-30687717D01*
X38736354Y-30687717D02*
X38736354Y-30687717D01*
G36*
X38660637Y-30607997D02*
G01*
X38664691Y-30608305D01*
X38668686Y-30608813D01*
X38672617Y-30609515D01*
X38676479Y-30610406D01*
X38680267Y-30611482D01*
X38683976Y-30612737D01*
X38687601Y-30614166D01*
X38691136Y-30615765D01*
X38694578Y-30617527D01*
X38697921Y-30619449D01*
X38701160Y-30621526D01*
X38704290Y-30623751D01*
X38707305Y-30626121D01*
X38710201Y-30628630D01*
X38712974Y-30631273D01*
X38715617Y-30634045D01*
X38718126Y-30636942D01*
X38720495Y-30639957D01*
X38722721Y-30643087D01*
X38724797Y-30646326D01*
X38726719Y-30649668D01*
X38728482Y-30653110D01*
X38730081Y-30656646D01*
X38731510Y-30660271D01*
X38732765Y-30663980D01*
X38733841Y-30667768D01*
X38734732Y-30671630D01*
X38735434Y-30675561D01*
X38735942Y-30679556D01*
X38736250Y-30683610D01*
X38736354Y-30687717D01*
X38736250Y-30691825D01*
X38735942Y-30695879D01*
X38735434Y-30699874D01*
X38734732Y-30703805D01*
X38733841Y-30707667D01*
X38732765Y-30711455D01*
X38731510Y-30715164D01*
X38730081Y-30718789D01*
X38728482Y-30722325D01*
X38726719Y-30725767D01*
X38724797Y-30729109D01*
X38722721Y-30732348D01*
X38720495Y-30735478D01*
X38718126Y-30738493D01*
X38715617Y-30741390D01*
X38712974Y-30744162D01*
X38710201Y-30746805D01*
X38707305Y-30749314D01*
X38704290Y-30751684D01*
X38701160Y-30753909D01*
X38697921Y-30755985D01*
X38694578Y-30757908D01*
X38691136Y-30759670D01*
X38687601Y-30761269D01*
X38683976Y-30762698D01*
X38680267Y-30763953D01*
X38676479Y-30765029D01*
X38672617Y-30765920D01*
X38668686Y-30766622D01*
X38664691Y-30767130D01*
X38660637Y-30767438D01*
X38656529Y-30767542D01*
X38652422Y-30767438D01*
X38648368Y-30767130D01*
X38644373Y-30766622D01*
X38640442Y-30765920D01*
X38636580Y-30765029D01*
X38632792Y-30763953D01*
X38629083Y-30762698D01*
X38625458Y-30761269D01*
X38621922Y-30759670D01*
X38618480Y-30757908D01*
X38615137Y-30755985D01*
X38611899Y-30753909D01*
X38608769Y-30751684D01*
X38605754Y-30749314D01*
X38602857Y-30746805D01*
X38600085Y-30744162D01*
X38597442Y-30741390D01*
X38594933Y-30738493D01*
X38592563Y-30735478D01*
X38590338Y-30732348D01*
X38588261Y-30729109D01*
X38586339Y-30725767D01*
X38584576Y-30722325D01*
X38582978Y-30718789D01*
X38581549Y-30715164D01*
X38580294Y-30711455D01*
X38579218Y-30707667D01*
X38578327Y-30703805D01*
X38577625Y-30699874D01*
X38577117Y-30695879D01*
X38576809Y-30691825D01*
X38576705Y-30687717D01*
X38576809Y-30683610D01*
X38577117Y-30679556D01*
X38577625Y-30675561D01*
X38578327Y-30671630D01*
X38579218Y-30667768D01*
X38580294Y-30663980D01*
X38581549Y-30660271D01*
X38582978Y-30656646D01*
X38584576Y-30653110D01*
X38586339Y-30649668D01*
X38588261Y-30646326D01*
X38590338Y-30643087D01*
X38592563Y-30639957D01*
X38594933Y-30636942D01*
X38597442Y-30634045D01*
X38600085Y-30631273D01*
X38602857Y-30628630D01*
X38605754Y-30626121D01*
X38608769Y-30623751D01*
X38611899Y-30621526D01*
X38615137Y-30619449D01*
X38618480Y-30617527D01*
X38621922Y-30615765D01*
X38625458Y-30614166D01*
X38629083Y-30612737D01*
X38632792Y-30611482D01*
X38636580Y-30610406D01*
X38640442Y-30609515D01*
X38644373Y-30608813D01*
X38648368Y-30608305D01*
X38652422Y-30607997D01*
X38656529Y-30607893D01*
X38660637Y-30607997D01*
G37*
X38660637Y-30607997D02*
X38664691Y-30608305D01*
X38668686Y-30608813D01*
X38672617Y-30609515D01*
X38676479Y-30610406D01*
X38680267Y-30611482D01*
X38683976Y-30612737D01*
X38687601Y-30614166D01*
X38691136Y-30615765D01*
X38694578Y-30617527D01*
X38697921Y-30619449D01*
X38701160Y-30621526D01*
X38704290Y-30623751D01*
X38707305Y-30626121D01*
X38710201Y-30628630D01*
X38712974Y-30631273D01*
X38715617Y-30634045D01*
X38718126Y-30636942D01*
X38720495Y-30639957D01*
X38722721Y-30643087D01*
X38724797Y-30646326D01*
X38726719Y-30649668D01*
X38728482Y-30653110D01*
X38730081Y-30656646D01*
X38731510Y-30660271D01*
X38732765Y-30663980D01*
X38733841Y-30667768D01*
X38734732Y-30671630D01*
X38735434Y-30675561D01*
X38735942Y-30679556D01*
X38736250Y-30683610D01*
X38736354Y-30687717D01*
X38736250Y-30691825D01*
X38735942Y-30695879D01*
X38735434Y-30699874D01*
X38734732Y-30703805D01*
X38733841Y-30707667D01*
X38732765Y-30711455D01*
X38731510Y-30715164D01*
X38730081Y-30718789D01*
X38728482Y-30722325D01*
X38726719Y-30725767D01*
X38724797Y-30729109D01*
X38722721Y-30732348D01*
X38720495Y-30735478D01*
X38718126Y-30738493D01*
X38715617Y-30741390D01*
X38712974Y-30744162D01*
X38710201Y-30746805D01*
X38707305Y-30749314D01*
X38704290Y-30751684D01*
X38701160Y-30753909D01*
X38697921Y-30755985D01*
X38694578Y-30757908D01*
X38691136Y-30759670D01*
X38687601Y-30761269D01*
X38683976Y-30762698D01*
X38680267Y-30763953D01*
X38676479Y-30765029D01*
X38672617Y-30765920D01*
X38668686Y-30766622D01*
X38664691Y-30767130D01*
X38660637Y-30767438D01*
X38656529Y-30767542D01*
X38652422Y-30767438D01*
X38648368Y-30767130D01*
X38644373Y-30766622D01*
X38640442Y-30765920D01*
X38636580Y-30765029D01*
X38632792Y-30763953D01*
X38629083Y-30762698D01*
X38625458Y-30761269D01*
X38621922Y-30759670D01*
X38618480Y-30757908D01*
X38615137Y-30755985D01*
X38611899Y-30753909D01*
X38608769Y-30751684D01*
X38605754Y-30749314D01*
X38602857Y-30746805D01*
X38600085Y-30744162D01*
X38597442Y-30741390D01*
X38594933Y-30738493D01*
X38592563Y-30735478D01*
X38590338Y-30732348D01*
X38588261Y-30729109D01*
X38586339Y-30725767D01*
X38584576Y-30722325D01*
X38582978Y-30718789D01*
X38581549Y-30715164D01*
X38580294Y-30711455D01*
X38579218Y-30707667D01*
X38578327Y-30703805D01*
X38577625Y-30699874D01*
X38577117Y-30695879D01*
X38576809Y-30691825D01*
X38576705Y-30687717D01*
X38576809Y-30683610D01*
X38577117Y-30679556D01*
X38577625Y-30675561D01*
X38578327Y-30671630D01*
X38579218Y-30667768D01*
X38580294Y-30663980D01*
X38581549Y-30660271D01*
X38582978Y-30656646D01*
X38584576Y-30653110D01*
X38586339Y-30649668D01*
X38588261Y-30646326D01*
X38590338Y-30643087D01*
X38592563Y-30639957D01*
X38594933Y-30636942D01*
X38597442Y-30634045D01*
X38600085Y-30631273D01*
X38602857Y-30628630D01*
X38605754Y-30626121D01*
X38608769Y-30623751D01*
X38611899Y-30621526D01*
X38615137Y-30619449D01*
X38618480Y-30617527D01*
X38621922Y-30615765D01*
X38625458Y-30614166D01*
X38629083Y-30612737D01*
X38632792Y-30611482D01*
X38636580Y-30610406D01*
X38640442Y-30609515D01*
X38644373Y-30608813D01*
X38648368Y-30608305D01*
X38652422Y-30607997D01*
X38656529Y-30607893D01*
X38660637Y-30607997D01*
X39022867Y-31340568D02*
X38970926Y-31412125D01*
X38570702Y-30920298D02*
X38563884Y-30915449D01*
X38828170Y-30843786D02*
X38824687Y-30851489D01*
X39062172Y-31186798D02*
X39056750Y-31187487D01*
X38816659Y-30685919D02*
X38820847Y-30693202D01*
X38665657Y-31487828D02*
X38633782Y-31491420D01*
X38551004Y-30647368D02*
X38557314Y-30641902D01*
X38306306Y-31003481D02*
X38360038Y-30920064D01*
X38519206Y-30685919D02*
X38523729Y-30678864D01*
X39110491Y-30992901D02*
X39114584Y-30996118D01*
X38838303Y-30811142D02*
X38836361Y-30819556D01*
X39082922Y-30977953D02*
X39087842Y-30979893D01*
X38616219Y-30610010D02*
X38624472Y-30607666D01*
X38667933Y-30949998D02*
X38667933Y-30949998D01*
X38820847Y-30693202D02*
X38824687Y-30700700D01*
X39125864Y-31006872D02*
X39129269Y-31010803D01*
X38943914Y-31042464D02*
X38945854Y-31037544D01*
X38494256Y-30785044D02*
X38494029Y-30776095D01*
X38539206Y-30893023D02*
X38533740Y-30886713D01*
X38972833Y-31159903D02*
X38969071Y-31156316D01*
X38816659Y-30866270D02*
X38812136Y-30873326D01*
X38778551Y-30910287D02*
X38771982Y-30915449D01*
X38953024Y-31135887D02*
X38950416Y-31131351D01*
X38750825Y-30623180D02*
X38758108Y-30627368D01*
X38812136Y-30873326D02*
X38807288Y-30880144D01*
X38865002Y-31536148D02*
X38811577Y-31588800D01*
X38719646Y-30610010D02*
X38727727Y-30612744D01*
X39149137Y-31047498D02*
X39150596Y-31052638D01*
X38382649Y-30968894D02*
X38394959Y-30992026D01*
X39003051Y-31134767D02*
X39003116Y-31132208D01*
X39003116Y-31132208D02*
X39003308Y-31129683D01*
X39003308Y-31129683D02*
X39003624Y-31127194D01*
X39003624Y-31127194D02*
X39004061Y-31124746D01*
X39004061Y-31124746D02*
X39004616Y-31122340D01*
X39004616Y-31122340D02*
X39005286Y-31119980D01*
X39005286Y-31119980D02*
X39006068Y-31117670D01*
X39006068Y-31117670D02*
X39006959Y-31115411D01*
X39006959Y-31115411D02*
X39007954Y-31113209D01*
X39007954Y-31113209D02*
X39009053Y-31111065D01*
X39009053Y-31111065D02*
X39010250Y-31108982D01*
X39010250Y-31108982D02*
X39011543Y-31106965D01*
X39011543Y-31106965D02*
X39012930Y-31105015D01*
X39012930Y-31105015D02*
X39014406Y-31103137D01*
X39014406Y-31103137D02*
X39015969Y-31101332D01*
X39015969Y-31101332D02*
X39017615Y-31099605D01*
X39017615Y-31099605D02*
X39019342Y-31097959D01*
X39019342Y-31097959D02*
X39021147Y-31096396D01*
X39021147Y-31096396D02*
X39023025Y-31094920D01*
X39023025Y-31094920D02*
X39024975Y-31093533D01*
X39024975Y-31093533D02*
X39026992Y-31092240D01*
X39026992Y-31092240D02*
X39029075Y-31091042D01*
X39029075Y-31091042D02*
X39031219Y-31089944D01*
X39031219Y-31089944D02*
X39033422Y-31088948D01*
X39033422Y-31088948D02*
X39035680Y-31088058D01*
X39035680Y-31088058D02*
X39037990Y-31087276D01*
X39037990Y-31087276D02*
X39040350Y-31086606D01*
X39040350Y-31086606D02*
X39042756Y-31086051D01*
X39042756Y-31086051D02*
X39045205Y-31085614D01*
X39045205Y-31085614D02*
X39047693Y-31085297D01*
X39047693Y-31085297D02*
X39050219Y-31085105D01*
X39050219Y-31085105D02*
X39052777Y-31085041D01*
X39052777Y-31085041D02*
X39055336Y-31085105D01*
X39055336Y-31085105D02*
X39057862Y-31085297D01*
X39057862Y-31085297D02*
X39060350Y-31085614D01*
X39060350Y-31085614D02*
X39062799Y-31086051D01*
X39062799Y-31086051D02*
X39065205Y-31086606D01*
X39065205Y-31086606D02*
X39067565Y-31087276D01*
X39067565Y-31087276D02*
X39069875Y-31088058D01*
X39069875Y-31088058D02*
X39072133Y-31088948D01*
X39072133Y-31088948D02*
X39074336Y-31089944D01*
X39074336Y-31089944D02*
X39076480Y-31091042D01*
X39076480Y-31091042D02*
X39078563Y-31092240D01*
X39078563Y-31092240D02*
X39080580Y-31093533D01*
X39080580Y-31093533D02*
X39082530Y-31094920D01*
X39082530Y-31094920D02*
X39084408Y-31096396D01*
X39084408Y-31096396D02*
X39086213Y-31097959D01*
X39086213Y-31097959D02*
X39087940Y-31099605D01*
X39087940Y-31099605D02*
X39089586Y-31101332D01*
X39089586Y-31101332D02*
X39091149Y-31103137D01*
X39091149Y-31103137D02*
X39092625Y-31105015D01*
X39092625Y-31105015D02*
X39094012Y-31106965D01*
X39094012Y-31106965D02*
X39095305Y-31108982D01*
X39095305Y-31108982D02*
X39096502Y-31111065D01*
X39096502Y-31111065D02*
X39097601Y-31113209D01*
X39097601Y-31113209D02*
X39098596Y-31115411D01*
X39098596Y-31115411D02*
X39099487Y-31117670D01*
X39099487Y-31117670D02*
X39100269Y-31119980D01*
X39100269Y-31119980D02*
X39100939Y-31122340D01*
X39100939Y-31122340D02*
X39101494Y-31124746D01*
X39101494Y-31124746D02*
X39101931Y-31127194D01*
X39101931Y-31127194D02*
X39102247Y-31129683D01*
X39102247Y-31129683D02*
X39102439Y-31132208D01*
X39102439Y-31132208D02*
X39102504Y-31134767D01*
X39102504Y-31134767D02*
X39102439Y-31137326D01*
X39102439Y-31137326D02*
X39102247Y-31139852D01*
X39102247Y-31139852D02*
X39101931Y-31142340D01*
X39101931Y-31142340D02*
X39101494Y-31144789D01*
X39101494Y-31144789D02*
X39100939Y-31147195D01*
X39100939Y-31147195D02*
X39100269Y-31149554D01*
X39100269Y-31149554D02*
X39099487Y-31151865D01*
X39099487Y-31151865D02*
X39098596Y-31154123D01*
X39098596Y-31154123D02*
X39097601Y-31156326D01*
X39097601Y-31156326D02*
X39096502Y-31158470D01*
X39096502Y-31158470D02*
X39095305Y-31160552D01*
X39095305Y-31160552D02*
X39094012Y-31162570D01*
X39094012Y-31162570D02*
X39092625Y-31164520D01*
X39092625Y-31164520D02*
X39091149Y-31166398D01*
X39091149Y-31166398D02*
X39089586Y-31168202D01*
X39089586Y-31168202D02*
X39087940Y-31169929D01*
X39087940Y-31169929D02*
X39086213Y-31171576D01*
X39086213Y-31171576D02*
X39084408Y-31173139D01*
X39084408Y-31173139D02*
X39082530Y-31174615D01*
X39082530Y-31174615D02*
X39080580Y-31176001D01*
X39080580Y-31176001D02*
X39078563Y-31177295D01*
X39078563Y-31177295D02*
X39076480Y-31178492D01*
X39076480Y-31178492D02*
X39074336Y-31179590D01*
X39074336Y-31179590D02*
X39072133Y-31180586D01*
X39072133Y-31180586D02*
X39069875Y-31181477D01*
X39069875Y-31181477D02*
X39067565Y-31182258D01*
X39067565Y-31182258D02*
X39065205Y-31182928D01*
X39065205Y-31182928D02*
X39062799Y-31183484D01*
X39062799Y-31183484D02*
X39060350Y-31183921D01*
X39060350Y-31183921D02*
X39057862Y-31184237D01*
X39057862Y-31184237D02*
X39055336Y-31184429D01*
X39055336Y-31184429D02*
X39052777Y-31184494D01*
X39052777Y-31184494D02*
X39050219Y-31184429D01*
X39050219Y-31184429D02*
X39047693Y-31184237D01*
X39047693Y-31184237D02*
X39045205Y-31183921D01*
X39045205Y-31183921D02*
X39042756Y-31183484D01*
X39042756Y-31183484D02*
X39040350Y-31182928D01*
X39040350Y-31182928D02*
X39037990Y-31182258D01*
X39037990Y-31182258D02*
X39035680Y-31181477D01*
X39035680Y-31181477D02*
X39033422Y-31180586D01*
X39033422Y-31180586D02*
X39031219Y-31179590D01*
X39031219Y-31179590D02*
X39029075Y-31178492D01*
X39029075Y-31178492D02*
X39026992Y-31177295D01*
X39026992Y-31177295D02*
X39024975Y-31176001D01*
X39024975Y-31176001D02*
X39023025Y-31174615D01*
X39023025Y-31174615D02*
X39021147Y-31173139D01*
X39021147Y-31173139D02*
X39019342Y-31171576D01*
X39019342Y-31171576D02*
X39017615Y-31169929D01*
X39017615Y-31169929D02*
X39015969Y-31168202D01*
X39015969Y-31168202D02*
X39014406Y-31166398D01*
X39014406Y-31166398D02*
X39012930Y-31164520D01*
X39012930Y-31164520D02*
X39011543Y-31162570D01*
X39011543Y-31162570D02*
X39010250Y-31160552D01*
X39010250Y-31160552D02*
X39009053Y-31158470D01*
X39009053Y-31158470D02*
X39007954Y-31156326D01*
X39007954Y-31156326D02*
X39006959Y-31154123D01*
X39006959Y-31154123D02*
X39006068Y-31151865D01*
X39006068Y-31151865D02*
X39005286Y-31149554D01*
X39005286Y-31149554D02*
X39004616Y-31147195D01*
X39004616Y-31147195D02*
X39004061Y-31144789D01*
X39004061Y-31144789D02*
X39003624Y-31142340D01*
X39003624Y-31142340D02*
X39003308Y-31139852D01*
X39003308Y-31139852D02*
X39003116Y-31137326D01*
X39003116Y-31137326D02*
X39003051Y-31134767D01*
X39003051Y-31134767D02*
X39003051Y-31134767D01*
G36*
X39055336Y-31085105D02*
G01*
X39057862Y-31085297D01*
X39060350Y-31085614D01*
X39062799Y-31086051D01*
X39065205Y-31086606D01*
X39067565Y-31087276D01*
X39069875Y-31088058D01*
X39072133Y-31088948D01*
X39074336Y-31089944D01*
X39076480Y-31091042D01*
X39078563Y-31092240D01*
X39080580Y-31093533D01*
X39082530Y-31094920D01*
X39084408Y-31096396D01*
X39086213Y-31097959D01*
X39087940Y-31099605D01*
X39089586Y-31101332D01*
X39091149Y-31103137D01*
X39092625Y-31105015D01*
X39094012Y-31106965D01*
X39095305Y-31108982D01*
X39096502Y-31111065D01*
X39097601Y-31113209D01*
X39098596Y-31115411D01*
X39099487Y-31117670D01*
X39100269Y-31119980D01*
X39100939Y-31122340D01*
X39101494Y-31124746D01*
X39101931Y-31127194D01*
X39102247Y-31129683D01*
X39102439Y-31132208D01*
X39102504Y-31134767D01*
X39102439Y-31137326D01*
X39102247Y-31139852D01*
X39101931Y-31142340D01*
X39101494Y-31144789D01*
X39100939Y-31147195D01*
X39100269Y-31149554D01*
X39099487Y-31151865D01*
X39098596Y-31154123D01*
X39097601Y-31156326D01*
X39096502Y-31158470D01*
X39095305Y-31160552D01*
X39094012Y-31162570D01*
X39092625Y-31164520D01*
X39091149Y-31166398D01*
X39089586Y-31168202D01*
X39087940Y-31169929D01*
X39086213Y-31171576D01*
X39084408Y-31173139D01*
X39082530Y-31174615D01*
X39080580Y-31176001D01*
X39078563Y-31177295D01*
X39076480Y-31178492D01*
X39074336Y-31179590D01*
X39072133Y-31180586D01*
X39069875Y-31181477D01*
X39067565Y-31182258D01*
X39065205Y-31182928D01*
X39062799Y-31183484D01*
X39060350Y-31183921D01*
X39057862Y-31184237D01*
X39055336Y-31184429D01*
X39052777Y-31184494D01*
X39050219Y-31184429D01*
X39047693Y-31184237D01*
X39045205Y-31183921D01*
X39042756Y-31183484D01*
X39040350Y-31182928D01*
X39037990Y-31182258D01*
X39035680Y-31181477D01*
X39033422Y-31180586D01*
X39031219Y-31179590D01*
X39029075Y-31178492D01*
X39026992Y-31177295D01*
X39024975Y-31176001D01*
X39023025Y-31174615D01*
X39021147Y-31173139D01*
X39019342Y-31171576D01*
X39017615Y-31169929D01*
X39015969Y-31168202D01*
X39014406Y-31166398D01*
X39012930Y-31164520D01*
X39011543Y-31162570D01*
X39010250Y-31160552D01*
X39009053Y-31158470D01*
X39007954Y-31156326D01*
X39006959Y-31154123D01*
X39006068Y-31151865D01*
X39005286Y-31149554D01*
X39004616Y-31147195D01*
X39004061Y-31144789D01*
X39003624Y-31142340D01*
X39003308Y-31139852D01*
X39003116Y-31137326D01*
X39003051Y-31134767D01*
X39003116Y-31132208D01*
X39003308Y-31129683D01*
X39003624Y-31127194D01*
X39004061Y-31124746D01*
X39004616Y-31122340D01*
X39005286Y-31119980D01*
X39006068Y-31117670D01*
X39006959Y-31115411D01*
X39007954Y-31113209D01*
X39009053Y-31111065D01*
X39010250Y-31108982D01*
X39011543Y-31106965D01*
X39012930Y-31105015D01*
X39014406Y-31103137D01*
X39015969Y-31101332D01*
X39017615Y-31099605D01*
X39019342Y-31097959D01*
X39021147Y-31096396D01*
X39023025Y-31094920D01*
X39024975Y-31093533D01*
X39026992Y-31092240D01*
X39029075Y-31091042D01*
X39031219Y-31089944D01*
X39033422Y-31088948D01*
X39035680Y-31088058D01*
X39037990Y-31087276D01*
X39040350Y-31086606D01*
X39042756Y-31086051D01*
X39045205Y-31085614D01*
X39047693Y-31085297D01*
X39050219Y-31085105D01*
X39052777Y-31085041D01*
X39055336Y-31085105D01*
G37*
X39055336Y-31085105D02*
X39057862Y-31085297D01*
X39060350Y-31085614D01*
X39062799Y-31086051D01*
X39065205Y-31086606D01*
X39067565Y-31087276D01*
X39069875Y-31088058D01*
X39072133Y-31088948D01*
X39074336Y-31089944D01*
X39076480Y-31091042D01*
X39078563Y-31092240D01*
X39080580Y-31093533D01*
X39082530Y-31094920D01*
X39084408Y-31096396D01*
X39086213Y-31097959D01*
X39087940Y-31099605D01*
X39089586Y-31101332D01*
X39091149Y-31103137D01*
X39092625Y-31105015D01*
X39094012Y-31106965D01*
X39095305Y-31108982D01*
X39096502Y-31111065D01*
X39097601Y-31113209D01*
X39098596Y-31115411D01*
X39099487Y-31117670D01*
X39100269Y-31119980D01*
X39100939Y-31122340D01*
X39101494Y-31124746D01*
X39101931Y-31127194D01*
X39102247Y-31129683D01*
X39102439Y-31132208D01*
X39102504Y-31134767D01*
X39102439Y-31137326D01*
X39102247Y-31139852D01*
X39101931Y-31142340D01*
X39101494Y-31144789D01*
X39100939Y-31147195D01*
X39100269Y-31149554D01*
X39099487Y-31151865D01*
X39098596Y-31154123D01*
X39097601Y-31156326D01*
X39096502Y-31158470D01*
X39095305Y-31160552D01*
X39094012Y-31162570D01*
X39092625Y-31164520D01*
X39091149Y-31166398D01*
X39089586Y-31168202D01*
X39087940Y-31169929D01*
X39086213Y-31171576D01*
X39084408Y-31173139D01*
X39082530Y-31174615D01*
X39080580Y-31176001D01*
X39078563Y-31177295D01*
X39076480Y-31178492D01*
X39074336Y-31179590D01*
X39072133Y-31180586D01*
X39069875Y-31181477D01*
X39067565Y-31182258D01*
X39065205Y-31182928D01*
X39062799Y-31183484D01*
X39060350Y-31183921D01*
X39057862Y-31184237D01*
X39055336Y-31184429D01*
X39052777Y-31184494D01*
X39050219Y-31184429D01*
X39047693Y-31184237D01*
X39045205Y-31183921D01*
X39042756Y-31183484D01*
X39040350Y-31182928D01*
X39037990Y-31182258D01*
X39035680Y-31181477D01*
X39033422Y-31180586D01*
X39031219Y-31179590D01*
X39029075Y-31178492D01*
X39026992Y-31177295D01*
X39024975Y-31176001D01*
X39023025Y-31174615D01*
X39021147Y-31173139D01*
X39019342Y-31171576D01*
X39017615Y-31169929D01*
X39015969Y-31168202D01*
X39014406Y-31166398D01*
X39012930Y-31164520D01*
X39011543Y-31162570D01*
X39010250Y-31160552D01*
X39009053Y-31158470D01*
X39007954Y-31156326D01*
X39006959Y-31154123D01*
X39006068Y-31151865D01*
X39005286Y-31149554D01*
X39004616Y-31147195D01*
X39004061Y-31144789D01*
X39003624Y-31142340D01*
X39003308Y-31139852D01*
X39003116Y-31137326D01*
X39003051Y-31134767D01*
X39003116Y-31132208D01*
X39003308Y-31129683D01*
X39003624Y-31127194D01*
X39004061Y-31124746D01*
X39004616Y-31122340D01*
X39005286Y-31119980D01*
X39006068Y-31117670D01*
X39006959Y-31115411D01*
X39007954Y-31113209D01*
X39009053Y-31111065D01*
X39010250Y-31108982D01*
X39011543Y-31106965D01*
X39012930Y-31105015D01*
X39014406Y-31103137D01*
X39015969Y-31101332D01*
X39017615Y-31099605D01*
X39019342Y-31097959D01*
X39021147Y-31096396D01*
X39023025Y-31094920D01*
X39024975Y-31093533D01*
X39026992Y-31092240D01*
X39029075Y-31091042D01*
X39031219Y-31089944D01*
X39033422Y-31088948D01*
X39035680Y-31088058D01*
X39037990Y-31087276D01*
X39040350Y-31086606D01*
X39042756Y-31086051D01*
X39045205Y-31085614D01*
X39047693Y-31085297D01*
X39050219Y-31085105D01*
X39052777Y-31085041D01*
X39055336Y-31085105D01*
X38497562Y-30811142D02*
X38496033Y-30802578D01*
X38501848Y-30724381D02*
X38504582Y-30716301D01*
X38613761Y-31220078D02*
X38634962Y-31232409D01*
X38953024Y-31023538D02*
X38955842Y-31019143D01*
X39034597Y-30971939D02*
X39040099Y-30971520D01*
X38145937Y-31364655D02*
X38164502Y-31300186D01*
X38970926Y-31412125D02*
X38918211Y-31477287D01*
X38719646Y-30942179D02*
X38711394Y-30944523D01*
X38735624Y-30936332D02*
X38727727Y-30939445D01*
X38593167Y-31207045D02*
X38613761Y-31220078D01*
X38367040Y-31798628D02*
X38326791Y-31794310D01*
X38407931Y-31014315D02*
X38421562Y-31035774D01*
X38491040Y-31474395D02*
X38466595Y-31463452D01*
X39008425Y-31181472D02*
X39003506Y-31179532D01*
X39132485Y-31014895D02*
X39135505Y-31019143D01*
X38507696Y-30843786D02*
X38504582Y-30835888D01*
X38839832Y-30749611D02*
X38840938Y-30758314D01*
X38501848Y-30827808D02*
X38499504Y-30819556D01*
X39152759Y-31096211D02*
X39151806Y-31101546D01*
X39082922Y-31181472D02*
X39077889Y-31183175D01*
X38602867Y-31492783D02*
X38573025Y-31491839D01*
X38130862Y-31580914D02*
X38126311Y-31533278D01*
X38658984Y-30949772D02*
X38650152Y-30949100D01*
X38624472Y-30607666D02*
X38632885Y-30605724D01*
X39151806Y-31057880D02*
X39152759Y-31063215D01*
X38544964Y-30899063D02*
X38539206Y-30893023D01*
X38910257Y-30491007D02*
X38985805Y-30830261D01*
X38600242Y-30936332D02*
X38592538Y-30932849D01*
X38641449Y-30604195D02*
X38650152Y-30603089D01*
X38694416Y-30947994D02*
X38685713Y-30949100D01*
X38937482Y-31074138D02*
X38937900Y-31068636D01*
X38939542Y-31057880D02*
X38940751Y-31052638D01*
X39140932Y-31131351D02*
X39138323Y-31135887D01*
X38544366Y-31488512D02*
X38517000Y-31482723D01*
X38466595Y-31463452D02*
X38443776Y-31449816D01*
X38711394Y-30607666D02*
X38719646Y-30610010D01*
X38535070Y-31163632D02*
X38553817Y-31178833D01*
X38771982Y-30636740D02*
X38778551Y-30641902D01*
X38937341Y-31079713D02*
X38937341Y-31079713D01*
X38841610Y-30767146D02*
X38841836Y-30776095D01*
X38702980Y-30605724D02*
X38711394Y-30607666D01*
X38870888Y-31423777D02*
X38800555Y-31452707D01*
X38189542Y-31231741D02*
X38221337Y-31159413D01*
X38948023Y-31126680D02*
X38945854Y-31121881D01*
X39140932Y-31028075D02*
X39143324Y-31032746D01*
X38998707Y-31177363D02*
X38994036Y-31174971D01*
X39087842Y-30979893D02*
X39092641Y-30982062D01*
X38126311Y-31533278D02*
X38127121Y-31481294D01*
X39145494Y-31121881D02*
X39143324Y-31126680D01*
X38942211Y-31047498D02*
X38943914Y-31042464D01*
X38839832Y-30802578D02*
X38838303Y-30811142D01*
X38333086Y-31234510D02*
X38329895Y-31193161D01*
X38504582Y-30835888D02*
X38501848Y-30827808D01*
X38523729Y-30678864D02*
X38528578Y-30672045D01*
X38539206Y-30659166D02*
X38544964Y-30653126D01*
X39003506Y-31179532D02*
X38998707Y-31177363D01*
X39147433Y-31042464D02*
X39149137Y-31047498D01*
X39072748Y-31184635D02*
X39067507Y-31185845D01*
X38592538Y-30619340D02*
X38600242Y-30615857D01*
X38371008Y-30944911D02*
X38382649Y-30968894D01*
X38938589Y-31096211D02*
X38937900Y-31090789D01*
X38360038Y-30920064D02*
X38360038Y-30920064D01*
X38841836Y-30776095D02*
X38841610Y-30785044D01*
X39106244Y-31169544D02*
X39101848Y-31172362D01*
X38965484Y-31152553D02*
X38962079Y-31148623D01*
X39114584Y-30996118D02*
X39118515Y-30999522D01*
X38705194Y-31675850D02*
X38652794Y-31710434D01*
X38796659Y-30659166D02*
X38802125Y-30665476D01*
X38345593Y-30992340D02*
X38357187Y-30932892D01*
X38573184Y-31193300D02*
X38593167Y-31207045D01*
X38824687Y-30700700D02*
X38828170Y-30708404D01*
X38519206Y-30866270D02*
X38515019Y-30858987D01*
X38790901Y-30899063D02*
X38784861Y-30904821D01*
X39129269Y-31010803D02*
X39132485Y-31014895D01*
X38800000Y-31300000D02*
X38852370Y-31313615D01*
X38937900Y-31090789D02*
X38937482Y-31085287D01*
X38499504Y-30732633D02*
X38501848Y-30724381D01*
X38940751Y-31052638D02*
X38942211Y-31047498D01*
X38337178Y-31048014D02*
X38345593Y-30992340D01*
X39018600Y-31184635D02*
X39013459Y-31183175D01*
X38496033Y-30749611D02*
X38497562Y-30741047D01*
X38329895Y-31193161D02*
X38329440Y-31148347D01*
X39040099Y-31187905D02*
X39034597Y-31187487D01*
X39151806Y-31101546D02*
X39150596Y-31106787D01*
X39097312Y-31174971D02*
X39092641Y-31177363D01*
X38592538Y-30932849D02*
X38585040Y-30929009D01*
X38976764Y-31163308D02*
X38972833Y-31159903D01*
X38784861Y-30904821D02*
X38778551Y-30910287D01*
X38807288Y-30880144D02*
X38802125Y-30886713D01*
X38784861Y-30647368D02*
X38790901Y-30653126D01*
X38985104Y-31169544D02*
X38980856Y-31166524D01*
X38197095Y-31726117D02*
X38173890Y-31696803D01*
X39045674Y-31188046D02*
X39040099Y-31187905D01*
X38616219Y-30942179D02*
X38608139Y-30939445D01*
X39072748Y-30974790D02*
X39077889Y-30976250D01*
X38329440Y-31148347D02*
X38331830Y-31099991D01*
X38516947Y-31147686D02*
X38535070Y-31163632D01*
X38765164Y-30631891D02*
X38771982Y-30636740D01*
X39122277Y-31003110D02*
X39125864Y-31006872D01*
X38948023Y-31032746D02*
X38950416Y-31028075D01*
X38533740Y-30665476D02*
X38539206Y-30659166D01*
X38667933Y-30602191D02*
X38676882Y-30602418D01*
X38820847Y-30858987D02*
X38816659Y-30866270D01*
X38573025Y-31491839D02*
X38544366Y-31488512D01*
X38563884Y-30915449D02*
X38557314Y-30910287D01*
X38685713Y-30949100D02*
X38676882Y-30949772D01*
X39138323Y-31135887D02*
X39135505Y-31140283D01*
X39147433Y-31116961D02*
X39145494Y-31121881D01*
X38841836Y-30776095D02*
X38841836Y-30776095D01*
X39152759Y-31063215D02*
X39153448Y-31068636D01*
X38601294Y-31739181D02*
X38550971Y-31762185D01*
X38985805Y-30830261D02*
X38985805Y-30830261D01*
X38985805Y-30830261D02*
X39256638Y-30928616D01*
X38972833Y-30999522D02*
X38976764Y-30996118D01*
D11*
X33385714Y-73619000D02*
X33328571Y-73590428D01*
X33242857Y-73590428D01*
X33157142Y-73619000D01*
X33100000Y-73676142D01*
X33071428Y-73733285D01*
X33042857Y-73847571D01*
X33042857Y-73933285D01*
X33071428Y-74047571D01*
X33100000Y-74104714D01*
X33157142Y-74161857D01*
X33242857Y-74190428D01*
X33300000Y-74190428D01*
X33385714Y-74161857D01*
X33414285Y-74133285D01*
X33414285Y-73933285D01*
X33300000Y-73933285D01*
X33985714Y-74190428D02*
X33642857Y-74190428D01*
X33814285Y-74190428D02*
X33814285Y-73590428D01*
X33757142Y-73676142D01*
X33700000Y-73733285D01*
X33642857Y-73761857D01*
X34500000Y-73590428D02*
X34385714Y-73590428D01*
X34328571Y-73619000D01*
X34300000Y-73647571D01*
X34242857Y-73733285D01*
X34214285Y-73847571D01*
X34214285Y-74076142D01*
X34242857Y-74133285D01*
X34271428Y-74161857D01*
X34328571Y-74190428D01*
X34442857Y-74190428D01*
X34500000Y-74161857D01*
X34528571Y-74133285D01*
X34557142Y-74076142D01*
X34557142Y-73933285D01*
X34528571Y-73876142D01*
X34500000Y-73847571D01*
X34442857Y-73819000D01*
X34328571Y-73819000D01*
X34271428Y-73847571D01*
X34242857Y-73876142D01*
X34214285Y-73933285D01*
X33385714Y-74585000D02*
X33328571Y-74556428D01*
X33242857Y-74556428D01*
X33157142Y-74585000D01*
X33100000Y-74642142D01*
X33071428Y-74699285D01*
X33042857Y-74813571D01*
X33042857Y-74899285D01*
X33071428Y-75013571D01*
X33100000Y-75070714D01*
X33157142Y-75127857D01*
X33242857Y-75156428D01*
X33300000Y-75156428D01*
X33385714Y-75127857D01*
X33414285Y-75099285D01*
X33414285Y-74899285D01*
X33300000Y-74899285D01*
X33985714Y-75156428D02*
X33642857Y-75156428D01*
X33814285Y-75156428D02*
X33814285Y-74556428D01*
X33757142Y-74642142D01*
X33700000Y-74699285D01*
X33642857Y-74727857D01*
X34500000Y-74756428D02*
X34500000Y-75156428D01*
X34357142Y-74527857D02*
X34214285Y-74956428D01*
X34585714Y-74956428D01*
X33385714Y-75551000D02*
X33328571Y-75522428D01*
X33242857Y-75522428D01*
X33157142Y-75551000D01*
X33100000Y-75608142D01*
X33071428Y-75665285D01*
X33042857Y-75779571D01*
X33042857Y-75865285D01*
X33071428Y-75979571D01*
X33100000Y-76036714D01*
X33157142Y-76093857D01*
X33242857Y-76122428D01*
X33300000Y-76122428D01*
X33385714Y-76093857D01*
X33414285Y-76065285D01*
X33414285Y-75865285D01*
X33300000Y-75865285D01*
X33985714Y-76122428D02*
X33642857Y-76122428D01*
X33814285Y-76122428D02*
X33814285Y-75522428D01*
X33757142Y-75608142D01*
X33700000Y-75665285D01*
X33642857Y-75693857D01*
X34214285Y-75579571D02*
X34242857Y-75551000D01*
X34300000Y-75522428D01*
X34442857Y-75522428D01*
X34500000Y-75551000D01*
X34528571Y-75579571D01*
X34557142Y-75636714D01*
X34557142Y-75693857D01*
X34528571Y-75779571D01*
X34185714Y-76122428D01*
X34557142Y-76122428D01*
X33385714Y-76517000D02*
X33328571Y-76488428D01*
X33242857Y-76488428D01*
X33157142Y-76517000D01*
X33100000Y-76574142D01*
X33071428Y-76631285D01*
X33042857Y-76745571D01*
X33042857Y-76831285D01*
X33071428Y-76945571D01*
X33100000Y-77002714D01*
X33157142Y-77059857D01*
X33242857Y-77088428D01*
X33300000Y-77088428D01*
X33385714Y-77059857D01*
X33414285Y-77031285D01*
X33414285Y-76831285D01*
X33300000Y-76831285D01*
X33785714Y-76488428D02*
X33842857Y-76488428D01*
X33900000Y-76517000D01*
X33928571Y-76545571D01*
X33957142Y-76602714D01*
X33985714Y-76717000D01*
X33985714Y-76859857D01*
X33957142Y-76974142D01*
X33928571Y-77031285D01*
X33900000Y-77059857D01*
X33842857Y-77088428D01*
X33785714Y-77088428D01*
X33728571Y-77059857D01*
X33700000Y-77031285D01*
X33671428Y-76974142D01*
X33642857Y-76859857D01*
X33642857Y-76717000D01*
X33671428Y-76602714D01*
X33700000Y-76545571D01*
X33728571Y-76517000D01*
X33785714Y-76488428D01*
X34271428Y-77088428D02*
X34385714Y-77088428D01*
X34442857Y-77059857D01*
X34471428Y-77031285D01*
X34528571Y-76945571D01*
X34557142Y-76831285D01*
X34557142Y-76602714D01*
X34528571Y-76545571D01*
X34500000Y-76517000D01*
X34442857Y-76488428D01*
X34328571Y-76488428D01*
X34271428Y-76517000D01*
X34242857Y-76545571D01*
X34214285Y-76602714D01*
X34214285Y-76745571D01*
X34242857Y-76802714D01*
X34271428Y-76831285D01*
X34328571Y-76859857D01*
X34442857Y-76859857D01*
X34500000Y-76831285D01*
X34528571Y-76802714D01*
X34557142Y-76745571D01*
X33385714Y-77483000D02*
X33328571Y-77454428D01*
X33242857Y-77454428D01*
X33157142Y-77483000D01*
X33100000Y-77540142D01*
X33071428Y-77597285D01*
X33042857Y-77711571D01*
X33042857Y-77797285D01*
X33071428Y-77911571D01*
X33100000Y-77968714D01*
X33157142Y-78025857D01*
X33242857Y-78054428D01*
X33300000Y-78054428D01*
X33385714Y-78025857D01*
X33414285Y-77997285D01*
X33414285Y-77797285D01*
X33300000Y-77797285D01*
X33985714Y-78054428D02*
X33642857Y-78054428D01*
X33814285Y-78054428D02*
X33814285Y-77454428D01*
X33757142Y-77540142D01*
X33700000Y-77597285D01*
X33642857Y-77625857D01*
X34357142Y-77454428D02*
X34414285Y-77454428D01*
X34471428Y-77483000D01*
X34500000Y-77511571D01*
X34528571Y-77568714D01*
X34557142Y-77683000D01*
X34557142Y-77825857D01*
X34528571Y-77940142D01*
X34500000Y-77997285D01*
X34471428Y-78025857D01*
X34414285Y-78054428D01*
X34357142Y-78054428D01*
X34300000Y-78025857D01*
X34271428Y-77997285D01*
X34242857Y-77940142D01*
X34214285Y-77825857D01*
X34214285Y-77683000D01*
X34242857Y-77568714D01*
X34271428Y-77511571D01*
X34300000Y-77483000D01*
X34357142Y-77454428D01*
X33385714Y-78449000D02*
X33328571Y-78420428D01*
X33242857Y-78420428D01*
X33157142Y-78449000D01*
X33100000Y-78506142D01*
X33071428Y-78563285D01*
X33042857Y-78677571D01*
X33042857Y-78763285D01*
X33071428Y-78877571D01*
X33100000Y-78934714D01*
X33157142Y-78991857D01*
X33242857Y-79020428D01*
X33300000Y-79020428D01*
X33385714Y-78991857D01*
X33414285Y-78963285D01*
X33414285Y-78763285D01*
X33300000Y-78763285D01*
X33985714Y-79020428D02*
X33642857Y-79020428D01*
X33814285Y-79020428D02*
X33814285Y-78420428D01*
X33757142Y-78506142D01*
X33700000Y-78563285D01*
X33642857Y-78591857D01*
X34528571Y-78420428D02*
X34242857Y-78420428D01*
X34214285Y-78706142D01*
X34242857Y-78677571D01*
X34300000Y-78649000D01*
X34442857Y-78649000D01*
X34500000Y-78677571D01*
X34528571Y-78706142D01*
X34557142Y-78763285D01*
X34557142Y-78906142D01*
X34528571Y-78963285D01*
X34500000Y-78991857D01*
X34442857Y-79020428D01*
X34300000Y-79020428D01*
X34242857Y-78991857D01*
X34214285Y-78963285D01*
X33385714Y-79415000D02*
X33328571Y-79386428D01*
X33242857Y-79386428D01*
X33157142Y-79415000D01*
X33100000Y-79472142D01*
X33071428Y-79529285D01*
X33042857Y-79643571D01*
X33042857Y-79729285D01*
X33071428Y-79843571D01*
X33100000Y-79900714D01*
X33157142Y-79957857D01*
X33242857Y-79986428D01*
X33300000Y-79986428D01*
X33385714Y-79957857D01*
X33414285Y-79929285D01*
X33414285Y-79729285D01*
X33300000Y-79729285D01*
X33785714Y-79386428D02*
X33842857Y-79386428D01*
X33900000Y-79415000D01*
X33928571Y-79443571D01*
X33957142Y-79500714D01*
X33985714Y-79615000D01*
X33985714Y-79757857D01*
X33957142Y-79872142D01*
X33928571Y-79929285D01*
X33900000Y-79957857D01*
X33842857Y-79986428D01*
X33785714Y-79986428D01*
X33728571Y-79957857D01*
X33700000Y-79929285D01*
X33671428Y-79872142D01*
X33642857Y-79757857D01*
X33642857Y-79615000D01*
X33671428Y-79500714D01*
X33700000Y-79443571D01*
X33728571Y-79415000D01*
X33785714Y-79386428D01*
X34214285Y-79443571D02*
X34242857Y-79415000D01*
X34300000Y-79386428D01*
X34442857Y-79386428D01*
X34500000Y-79415000D01*
X34528571Y-79443571D01*
X34557142Y-79500714D01*
X34557142Y-79557857D01*
X34528571Y-79643571D01*
X34185714Y-79986428D01*
X34557142Y-79986428D01*
X33385714Y-80381000D02*
X33328571Y-80352428D01*
X33242857Y-80352428D01*
X33157142Y-80381000D01*
X33100000Y-80438142D01*
X33071428Y-80495285D01*
X33042857Y-80609571D01*
X33042857Y-80695285D01*
X33071428Y-80809571D01*
X33100000Y-80866714D01*
X33157142Y-80923857D01*
X33242857Y-80952428D01*
X33300000Y-80952428D01*
X33385714Y-80923857D01*
X33414285Y-80895285D01*
X33414285Y-80695285D01*
X33300000Y-80695285D01*
X33785714Y-80352428D02*
X33842857Y-80352428D01*
X33900000Y-80381000D01*
X33928571Y-80409571D01*
X33957142Y-80466714D01*
X33985714Y-80581000D01*
X33985714Y-80723857D01*
X33957142Y-80838142D01*
X33928571Y-80895285D01*
X33900000Y-80923857D01*
X33842857Y-80952428D01*
X33785714Y-80952428D01*
X33728571Y-80923857D01*
X33700000Y-80895285D01*
X33671428Y-80838142D01*
X33642857Y-80723857D01*
X33642857Y-80581000D01*
X33671428Y-80466714D01*
X33700000Y-80409571D01*
X33728571Y-80381000D01*
X33785714Y-80352428D01*
X34357142Y-80352428D02*
X34414285Y-80352428D01*
X34471428Y-80381000D01*
X34500000Y-80409571D01*
X34528571Y-80466714D01*
X34557142Y-80581000D01*
X34557142Y-80723857D01*
X34528571Y-80838142D01*
X34500000Y-80895285D01*
X34471428Y-80923857D01*
X34414285Y-80952428D01*
X34357142Y-80952428D01*
X34300000Y-80923857D01*
X34271428Y-80895285D01*
X34242857Y-80838142D01*
X34214285Y-80723857D01*
X34214285Y-80581000D01*
X34242857Y-80466714D01*
X34271428Y-80409571D01*
X34300000Y-80381000D01*
X34357142Y-80352428D01*
D12*
X30709523Y-85261904D02*
X30442857Y-84880952D01*
X30252380Y-85261904D02*
X30252380Y-84461904D01*
X30557142Y-84461904D01*
X30633333Y-84500000D01*
X30671428Y-84538095D01*
X30709523Y-84614285D01*
X30709523Y-84728571D01*
X30671428Y-84804761D01*
X30633333Y-84842857D01*
X30557142Y-84880952D01*
X30252380Y-84880952D01*
X31357142Y-85223809D02*
X31280952Y-85261904D01*
X31128571Y-85261904D01*
X31052380Y-85223809D01*
X31014285Y-85147619D01*
X31014285Y-84842857D01*
X31052380Y-84766666D01*
X31128571Y-84728571D01*
X31280952Y-84728571D01*
X31357142Y-84766666D01*
X31395238Y-84842857D01*
X31395238Y-84919047D01*
X31014285Y-84995238D01*
X31700000Y-85223809D02*
X31776190Y-85261904D01*
X31928571Y-85261904D01*
X32004761Y-85223809D01*
X32042857Y-85147619D01*
X32042857Y-85109523D01*
X32004761Y-85033333D01*
X31928571Y-84995238D01*
X31814285Y-84995238D01*
X31738095Y-84957142D01*
X31700000Y-84880952D01*
X31700000Y-84842857D01*
X31738095Y-84766666D01*
X31814285Y-84728571D01*
X31928571Y-84728571D01*
X32004761Y-84766666D01*
X32690476Y-85223809D02*
X32614285Y-85261904D01*
X32461904Y-85261904D01*
X32385714Y-85223809D01*
X32347619Y-85147619D01*
X32347619Y-84842857D01*
X32385714Y-84766666D01*
X32461904Y-84728571D01*
X32614285Y-84728571D01*
X32690476Y-84766666D01*
X32728571Y-84842857D01*
X32728571Y-84919047D01*
X32347619Y-84995238D01*
X32957142Y-84728571D02*
X33261904Y-84728571D01*
X33071428Y-84461904D02*
X33071428Y-85147619D01*
X33109523Y-85223809D01*
X33185714Y-85261904D01*
X33261904Y-85261904D01*
X47157142Y-84842857D02*
X46890476Y-84842857D01*
X46890476Y-85261904D02*
X46890476Y-84461904D01*
X47271428Y-84461904D01*
X47690476Y-85261904D02*
X47614285Y-85223809D01*
X47576190Y-85147619D01*
X47576190Y-84461904D01*
X48338095Y-85261904D02*
X48338095Y-84842857D01*
X48300000Y-84766666D01*
X48223809Y-84728571D01*
X48071428Y-84728571D01*
X47995238Y-84766666D01*
X48338095Y-85223809D02*
X48261904Y-85261904D01*
X48071428Y-85261904D01*
X47995238Y-85223809D01*
X47957142Y-85147619D01*
X47957142Y-85071428D01*
X47995238Y-84995238D01*
X48071428Y-84957142D01*
X48261904Y-84957142D01*
X48338095Y-84919047D01*
X48680952Y-85223809D02*
X48757142Y-85261904D01*
X48909523Y-85261904D01*
X48985714Y-85223809D01*
X49023809Y-85147619D01*
X49023809Y-85109523D01*
X48985714Y-85033333D01*
X48909523Y-84995238D01*
X48795238Y-84995238D01*
X48719047Y-84957142D01*
X48680952Y-84880952D01*
X48680952Y-84842857D01*
X48719047Y-84766666D01*
X48795238Y-84728571D01*
X48909523Y-84728571D01*
X48985714Y-84766666D01*
X49366666Y-85261904D02*
X49366666Y-84461904D01*
X49709523Y-85261904D02*
X49709523Y-84842857D01*
X49671428Y-84766666D01*
X49595238Y-84728571D01*
X49480952Y-84728571D01*
X49404761Y-84766666D01*
X49366666Y-84804761D01*
D11*
X35042455Y-31022689D02*
X34985312Y-30994118D01*
X34871027Y-30994118D01*
X34813884Y-31022689D01*
X34756741Y-31079832D01*
X34728170Y-31136975D01*
X34728170Y-31251261D01*
X34756741Y-31308404D01*
X34813884Y-31365546D01*
X34871027Y-31394118D01*
X34985312Y-31394118D01*
X35042455Y-31365546D01*
X34928170Y-30794118D02*
X34785312Y-30822689D01*
X34642455Y-30908404D01*
X34556741Y-31051261D01*
X34528170Y-31194118D01*
X34556741Y-31336975D01*
X34642455Y-31479832D01*
X34785312Y-31565546D01*
X34928170Y-31594118D01*
X35071027Y-31565546D01*
X35213884Y-31479832D01*
X35299598Y-31336975D01*
X35328170Y-31194118D01*
X35299598Y-31051261D01*
X35213884Y-30908404D01*
X35071027Y-30822689D01*
X34928170Y-30794118D01*
X35556741Y-30936975D02*
X35585312Y-30908404D01*
X35642455Y-30879832D01*
X35785312Y-30879832D01*
X35842455Y-30908404D01*
X35871027Y-30936975D01*
X35899598Y-30994118D01*
X35899598Y-31051261D01*
X35871027Y-31136975D01*
X35528170Y-31479832D01*
X35899598Y-31479832D01*
X36271027Y-30879832D02*
X36328170Y-30879832D01*
X36385312Y-30908404D01*
X36413884Y-30936975D01*
X36442455Y-30994118D01*
X36471027Y-31108404D01*
X36471027Y-31251261D01*
X36442455Y-31365546D01*
X36413884Y-31422689D01*
X36385312Y-31451261D01*
X36328170Y-31479832D01*
X36271027Y-31479832D01*
X36213884Y-31451261D01*
X36185312Y-31422689D01*
X36156741Y-31365546D01*
X36128170Y-31251261D01*
X36128170Y-31108404D01*
X36156741Y-30994118D01*
X36185312Y-30936975D01*
X36213884Y-30908404D01*
X36271027Y-30879832D01*
X36699598Y-30936975D02*
X36728170Y-30908404D01*
X36785312Y-30879832D01*
X36928170Y-30879832D01*
X36985312Y-30908404D01*
X37013884Y-30936975D01*
X37042455Y-30994118D01*
X37042455Y-31051261D01*
X37013884Y-31136975D01*
X36671027Y-31479832D01*
X37042455Y-31479832D01*
X37271027Y-30936975D02*
X37299598Y-30908404D01*
X37356741Y-30879832D01*
X37499598Y-30879832D01*
X37556741Y-30908404D01*
X37585312Y-30936975D01*
X37613884Y-30994118D01*
X37613884Y-31051261D01*
X37585312Y-31136975D01*
X37242455Y-31479832D01*
X37613884Y-31479832D01*
X39699598Y-31479832D02*
X39699598Y-30879832D01*
X39899598Y-31308404D01*
X40099598Y-30879832D01*
X40099598Y-31479832D01*
X40642455Y-31479832D02*
X40642455Y-31165546D01*
X40613884Y-31108404D01*
X40556741Y-31079832D01*
X40442455Y-31079832D01*
X40385312Y-31108404D01*
X40642455Y-31451261D02*
X40585312Y-31479832D01*
X40442455Y-31479832D01*
X40385312Y-31451261D01*
X40356741Y-31394118D01*
X40356741Y-31336975D01*
X40385312Y-31279832D01*
X40442455Y-31251261D01*
X40585312Y-31251261D01*
X40642455Y-31222689D01*
X40928170Y-31479832D02*
X40928170Y-31079832D01*
X40928170Y-31194118D02*
X40956741Y-31136975D01*
X40985312Y-31108404D01*
X41042455Y-31079832D01*
X41099598Y-31079832D01*
X41556741Y-31451261D02*
X41499598Y-31479832D01*
X41385312Y-31479832D01*
X41328170Y-31451261D01*
X41299598Y-31422689D01*
X41271027Y-31365546D01*
X41271027Y-31194118D01*
X41299598Y-31136975D01*
X41328170Y-31108404D01*
X41385312Y-31079832D01*
X41499598Y-31079832D01*
X41556741Y-31108404D01*
X41899598Y-31479832D02*
X41842455Y-31451261D01*
X41813884Y-31422689D01*
X41785312Y-31365546D01*
X41785312Y-31194118D01*
X41813884Y-31136975D01*
X41842455Y-31108404D01*
X41899598Y-31079832D01*
X41985312Y-31079832D01*
X42042455Y-31108404D01*
X42071027Y-31136975D01*
X42099598Y-31194118D01*
X42099598Y-31365546D01*
X42071027Y-31422689D01*
X42042455Y-31451261D01*
X41985312Y-31479832D01*
X41899598Y-31479832D01*
X42813884Y-31479832D02*
X42813884Y-30879832D01*
X43013884Y-31308404D01*
X43213884Y-30879832D01*
X43213884Y-31479832D01*
X43756741Y-31479832D02*
X43756741Y-31165546D01*
X43728170Y-31108404D01*
X43671027Y-31079832D01*
X43556741Y-31079832D01*
X43499598Y-31108404D01*
X43756741Y-31451261D02*
X43699598Y-31479832D01*
X43556741Y-31479832D01*
X43499598Y-31451261D01*
X43471027Y-31394118D01*
X43471027Y-31336975D01*
X43499598Y-31279832D01*
X43556741Y-31251261D01*
X43699598Y-31251261D01*
X43756741Y-31222689D01*
X44042455Y-31479832D02*
X44042455Y-31079832D01*
X44042455Y-31194118D02*
X44071027Y-31136975D01*
X44099598Y-31108404D01*
X44156741Y-31079832D01*
X44213884Y-31079832D01*
X44328170Y-31079832D02*
X44556741Y-31079832D01*
X44413884Y-30879832D02*
X44413884Y-31394118D01*
X44442455Y-31451261D01*
X44499598Y-31479832D01*
X44556741Y-31479832D01*
X44756741Y-31479832D02*
X44756741Y-31079832D01*
X44756741Y-30879832D02*
X44728170Y-30908404D01*
X44756741Y-30936975D01*
X44785312Y-30908404D01*
X44756741Y-30879832D01*
X44756741Y-30936975D01*
X45042455Y-31079832D02*
X45042455Y-31479832D01*
X45042455Y-31136975D02*
X45071027Y-31108404D01*
X45128170Y-31079832D01*
X45213884Y-31079832D01*
X45271027Y-31108404D01*
X45299598Y-31165546D01*
X45299598Y-31479832D01*
D12*
X44823809Y-69857142D02*
X44861904Y-69742857D01*
X44861904Y-69552380D01*
X44823809Y-69476190D01*
X44785714Y-69438095D01*
X44709523Y-69400000D01*
X44633333Y-69400000D01*
X44557142Y-69438095D01*
X44519047Y-69476190D01*
X44480952Y-69552380D01*
X44442857Y-69704761D01*
X44404761Y-69780952D01*
X44366666Y-69819047D01*
X44290476Y-69857142D01*
X44214285Y-69857142D01*
X44138095Y-69819047D01*
X44100000Y-69780952D01*
X44061904Y-69704761D01*
X44061904Y-69514285D01*
X44100000Y-69400000D01*
X44823809Y-68752380D02*
X44861904Y-68828571D01*
X44861904Y-68980952D01*
X44823809Y-69057142D01*
X44747619Y-69095238D01*
X44442857Y-69095238D01*
X44366666Y-69057142D01*
X44328571Y-68980952D01*
X44328571Y-68828571D01*
X44366666Y-68752380D01*
X44442857Y-68714285D01*
X44519047Y-68714285D01*
X44595238Y-69095238D01*
X44328571Y-68371428D02*
X44861904Y-68371428D01*
X44404761Y-68371428D02*
X44366666Y-68333333D01*
X44328571Y-68257142D01*
X44328571Y-68142857D01*
X44366666Y-68066666D01*
X44442857Y-68028571D01*
X44861904Y-68028571D01*
X44823809Y-67685714D02*
X44861904Y-67609523D01*
X44861904Y-67457142D01*
X44823809Y-67380952D01*
X44747619Y-67342857D01*
X44709523Y-67342857D01*
X44633333Y-67380952D01*
X44595238Y-67457142D01*
X44595238Y-67571428D01*
X44557142Y-67647619D01*
X44480952Y-67685714D01*
X44442857Y-67685714D01*
X44366666Y-67647619D01*
X44328571Y-67571428D01*
X44328571Y-67457142D01*
X44366666Y-67380952D01*
X44442857Y-79209523D02*
X44442857Y-79476190D01*
X44861904Y-79476190D02*
X44061904Y-79476190D01*
X44061904Y-79095238D01*
X44861904Y-78447619D02*
X44442857Y-78447619D01*
X44366666Y-78485714D01*
X44328571Y-78561904D01*
X44328571Y-78714285D01*
X44366666Y-78790476D01*
X44823809Y-78447619D02*
X44861904Y-78523809D01*
X44861904Y-78714285D01*
X44823809Y-78790476D01*
X44747619Y-78828571D01*
X44671428Y-78828571D01*
X44595238Y-78790476D01*
X44557142Y-78714285D01*
X44557142Y-78523809D01*
X44519047Y-78447619D01*
X44328571Y-78066666D02*
X44861904Y-78066666D01*
X44404761Y-78066666D02*
X44366666Y-78028571D01*
X44328571Y-77952380D01*
X44328571Y-77838095D01*
X44366666Y-77761904D01*
X44442857Y-77723809D01*
X44861904Y-77723809D01*
D13*
%TO.C,U2*%
X35438095Y-65552380D02*
X35438095Y-66361904D01*
X35485714Y-66457142D01*
X35533333Y-66504761D01*
X35628571Y-66552380D01*
X35819047Y-66552380D01*
X35914285Y-66504761D01*
X35961904Y-66457142D01*
X36009523Y-66361904D01*
X36009523Y-65552380D01*
X36438095Y-65647619D02*
X36485714Y-65600000D01*
X36580952Y-65552380D01*
X36819047Y-65552380D01*
X36914285Y-65600000D01*
X36961904Y-65647619D01*
X37009523Y-65742857D01*
X37009523Y-65838095D01*
X36961904Y-65980952D01*
X36390476Y-66552380D01*
X37009523Y-66552380D01*
%TO.C,J1*%
X39666666Y-100412380D02*
X39666666Y-101126666D01*
X39619047Y-101269523D01*
X39523809Y-101364761D01*
X39380952Y-101412380D01*
X39285714Y-101412380D01*
X40666666Y-101412380D02*
X40095238Y-101412380D01*
X40380952Y-101412380D02*
X40380952Y-100412380D01*
X40285714Y-100555238D01*
X40190476Y-100650476D01*
X40095238Y-100698095D01*
%TO.C,R3*%
X44702380Y-98966666D02*
X44226190Y-99300000D01*
X44702380Y-99538095D02*
X43702380Y-99538095D01*
X43702380Y-99157142D01*
X43750000Y-99061904D01*
X43797619Y-99014285D01*
X43892857Y-98966666D01*
X44035714Y-98966666D01*
X44130952Y-99014285D01*
X44178571Y-99061904D01*
X44226190Y-99157142D01*
X44226190Y-99538095D01*
X43702380Y-98633333D02*
X43702380Y-98014285D01*
X44083333Y-98347619D01*
X44083333Y-98204761D01*
X44130952Y-98109523D01*
X44178571Y-98061904D01*
X44273809Y-98014285D01*
X44511904Y-98014285D01*
X44607142Y-98061904D01*
X44654761Y-98109523D01*
X44702380Y-98204761D01*
X44702380Y-98490476D01*
X44654761Y-98585714D01*
X44607142Y-98633333D01*
D12*
%TO.C,J2*%
X44261904Y-59866666D02*
X44833333Y-59866666D01*
X44947619Y-59904761D01*
X45023809Y-59980952D01*
X45061904Y-60095238D01*
X45061904Y-60171428D01*
X44338095Y-59523809D02*
X44300000Y-59485714D01*
X44261904Y-59409523D01*
X44261904Y-59219047D01*
X44300000Y-59142857D01*
X44338095Y-59104761D01*
X44414285Y-59066666D01*
X44490476Y-59066666D01*
X44604761Y-59104761D01*
X45061904Y-59561904D01*
X45061904Y-59066666D01*
D13*
%TO.C,R8*%
X41002380Y-79566666D02*
X40526190Y-79900000D01*
X41002380Y-80138095D02*
X40002380Y-80138095D01*
X40002380Y-79757142D01*
X40050000Y-79661904D01*
X40097619Y-79614285D01*
X40192857Y-79566666D01*
X40335714Y-79566666D01*
X40430952Y-79614285D01*
X40478571Y-79661904D01*
X40526190Y-79757142D01*
X40526190Y-80138095D01*
X40430952Y-78995238D02*
X40383333Y-79090476D01*
X40335714Y-79138095D01*
X40240476Y-79185714D01*
X40192857Y-79185714D01*
X40097619Y-79138095D01*
X40050000Y-79090476D01*
X40002380Y-78995238D01*
X40002380Y-78804761D01*
X40050000Y-78709523D01*
X40097619Y-78661904D01*
X40192857Y-78614285D01*
X40240476Y-78614285D01*
X40335714Y-78661904D01*
X40383333Y-78709523D01*
X40430952Y-78804761D01*
X40430952Y-78995238D01*
X40478571Y-79090476D01*
X40526190Y-79138095D01*
X40621428Y-79185714D01*
X40811904Y-79185714D01*
X40907142Y-79138095D01*
X40954761Y-79090476D01*
X41002380Y-78995238D01*
X41002380Y-78804761D01*
X40954761Y-78709523D01*
X40907142Y-78661904D01*
X40811904Y-78614285D01*
X40621428Y-78614285D01*
X40526190Y-78661904D01*
X40478571Y-78709523D01*
X40430952Y-78804761D01*
%TO.C,R9*%
X39202380Y-79566666D02*
X38726190Y-79900000D01*
X39202380Y-80138095D02*
X38202380Y-80138095D01*
X38202380Y-79757142D01*
X38250000Y-79661904D01*
X38297619Y-79614285D01*
X38392857Y-79566666D01*
X38535714Y-79566666D01*
X38630952Y-79614285D01*
X38678571Y-79661904D01*
X38726190Y-79757142D01*
X38726190Y-80138095D01*
X39202380Y-79090476D02*
X39202380Y-78900000D01*
X39154761Y-78804761D01*
X39107142Y-78757142D01*
X38964285Y-78661904D01*
X38773809Y-78614285D01*
X38392857Y-78614285D01*
X38297619Y-78661904D01*
X38250000Y-78709523D01*
X38202380Y-78804761D01*
X38202380Y-78995238D01*
X38250000Y-79090476D01*
X38297619Y-79138095D01*
X38392857Y-79185714D01*
X38630952Y-79185714D01*
X38726190Y-79138095D01*
X38773809Y-79090476D01*
X38821428Y-78995238D01*
X38821428Y-78804761D01*
X38773809Y-78709523D01*
X38726190Y-78661904D01*
X38630952Y-78614285D01*
D12*
%TO.C,J3*%
X44161904Y-71866666D02*
X44733333Y-71866666D01*
X44847619Y-71904761D01*
X44923809Y-71980952D01*
X44961904Y-72095238D01*
X44961904Y-72171428D01*
X44161904Y-71561904D02*
X44161904Y-71066666D01*
X44466666Y-71333333D01*
X44466666Y-71219047D01*
X44504761Y-71142857D01*
X44542857Y-71104761D01*
X44619047Y-71066666D01*
X44809523Y-71066666D01*
X44885714Y-71104761D01*
X44923809Y-71142857D01*
X44961904Y-71219047D01*
X44961904Y-71447619D01*
X44923809Y-71523809D01*
X44885714Y-71561904D01*
D13*
%TO.C,Q1*%
X39404761Y-71247619D02*
X39309523Y-71200000D01*
X39214285Y-71104761D01*
X39071428Y-70961904D01*
X38976190Y-70914285D01*
X38880952Y-70914285D01*
X38928571Y-71152380D02*
X38833333Y-71104761D01*
X38738095Y-71009523D01*
X38690476Y-70819047D01*
X38690476Y-70485714D01*
X38738095Y-70295238D01*
X38833333Y-70200000D01*
X38928571Y-70152380D01*
X39119047Y-70152380D01*
X39214285Y-70200000D01*
X39309523Y-70295238D01*
X39357142Y-70485714D01*
X39357142Y-70819047D01*
X39309523Y-71009523D01*
X39214285Y-71104761D01*
X39119047Y-71152380D01*
X38928571Y-71152380D01*
X40309523Y-71152380D02*
X39738095Y-71152380D01*
X40023809Y-71152380D02*
X40023809Y-70152380D01*
X39928571Y-70295238D01*
X39833333Y-70390476D01*
X39738095Y-70438095D01*
D12*
%TO.C,R5*%
X42661904Y-62933333D02*
X42280952Y-63200000D01*
X42661904Y-63390476D02*
X41861904Y-63390476D01*
X41861904Y-63085714D01*
X41900000Y-63009523D01*
X41938095Y-62971428D01*
X42014285Y-62933333D01*
X42128571Y-62933333D01*
X42204761Y-62971428D01*
X42242857Y-63009523D01*
X42280952Y-63085714D01*
X42280952Y-63390476D01*
X41861904Y-62209523D02*
X41861904Y-62590476D01*
X42242857Y-62628571D01*
X42204761Y-62590476D01*
X42166666Y-62514285D01*
X42166666Y-62323809D01*
X42204761Y-62247619D01*
X42242857Y-62209523D01*
X42319047Y-62171428D01*
X42509523Y-62171428D01*
X42585714Y-62209523D01*
X42623809Y-62247619D01*
X42661904Y-62323809D01*
X42661904Y-62514285D01*
X42623809Y-62590476D01*
X42585714Y-62628571D01*
%TO.C,C3*%
X35566666Y-61885714D02*
X35528571Y-61923809D01*
X35414285Y-61961904D01*
X35338095Y-61961904D01*
X35223809Y-61923809D01*
X35147619Y-61847619D01*
X35109523Y-61771428D01*
X35071428Y-61619047D01*
X35071428Y-61504761D01*
X35109523Y-61352380D01*
X35147619Y-61276190D01*
X35223809Y-61200000D01*
X35338095Y-61161904D01*
X35414285Y-61161904D01*
X35528571Y-61200000D01*
X35566666Y-61238095D01*
X35833333Y-61161904D02*
X36328571Y-61161904D01*
X36061904Y-61466666D01*
X36176190Y-61466666D01*
X36252380Y-61504761D01*
X36290476Y-61542857D01*
X36328571Y-61619047D01*
X36328571Y-61809523D01*
X36290476Y-61885714D01*
X36252380Y-61923809D01*
X36176190Y-61961904D01*
X35947619Y-61961904D01*
X35871428Y-61923809D01*
X35833333Y-61885714D01*
D13*
%TO.C,C4*%
X48957142Y-91766666D02*
X49004761Y-91814285D01*
X49052380Y-91957142D01*
X49052380Y-92052380D01*
X49004761Y-92195238D01*
X48909523Y-92290476D01*
X48814285Y-92338095D01*
X48623809Y-92385714D01*
X48480952Y-92385714D01*
X48290476Y-92338095D01*
X48195238Y-92290476D01*
X48100000Y-92195238D01*
X48052380Y-92052380D01*
X48052380Y-91957142D01*
X48100000Y-91814285D01*
X48147619Y-91766666D01*
X48385714Y-90909523D02*
X49052380Y-90909523D01*
X48004761Y-91147619D02*
X48719047Y-91385714D01*
X48719047Y-90766666D01*
D12*
%TO.C,C2*%
X37985714Y-62933333D02*
X38023809Y-62971428D01*
X38061904Y-63085714D01*
X38061904Y-63161904D01*
X38023809Y-63276190D01*
X37947619Y-63352380D01*
X37871428Y-63390476D01*
X37719047Y-63428571D01*
X37604761Y-63428571D01*
X37452380Y-63390476D01*
X37376190Y-63352380D01*
X37300000Y-63276190D01*
X37261904Y-63161904D01*
X37261904Y-63085714D01*
X37300000Y-62971428D01*
X37338095Y-62933333D01*
X37338095Y-62628571D02*
X37300000Y-62590476D01*
X37261904Y-62514285D01*
X37261904Y-62323809D01*
X37300000Y-62247619D01*
X37338095Y-62209523D01*
X37414285Y-62171428D01*
X37490476Y-62171428D01*
X37604761Y-62209523D01*
X38061904Y-62666666D01*
X38061904Y-62171428D01*
%TO.C,C7*%
X34566666Y-59685714D02*
X34528571Y-59723809D01*
X34414285Y-59761904D01*
X34338095Y-59761904D01*
X34223809Y-59723809D01*
X34147619Y-59647619D01*
X34109523Y-59571428D01*
X34071428Y-59419047D01*
X34071428Y-59304761D01*
X34109523Y-59152380D01*
X34147619Y-59076190D01*
X34223809Y-59000000D01*
X34338095Y-58961904D01*
X34414285Y-58961904D01*
X34528571Y-59000000D01*
X34566666Y-59038095D01*
X34833333Y-58961904D02*
X35366666Y-58961904D01*
X35023809Y-59761904D01*
D13*
%TO.C,C5*%
X41437142Y-98716666D02*
X41484761Y-98764285D01*
X41532380Y-98907142D01*
X41532380Y-99002380D01*
X41484761Y-99145238D01*
X41389523Y-99240476D01*
X41294285Y-99288095D01*
X41103809Y-99335714D01*
X40960952Y-99335714D01*
X40770476Y-99288095D01*
X40675238Y-99240476D01*
X40580000Y-99145238D01*
X40532380Y-99002380D01*
X40532380Y-98907142D01*
X40580000Y-98764285D01*
X40627619Y-98716666D01*
X40532380Y-97811904D02*
X40532380Y-98288095D01*
X41008571Y-98335714D01*
X40960952Y-98288095D01*
X40913333Y-98192857D01*
X40913333Y-97954761D01*
X40960952Y-97859523D01*
X41008571Y-97811904D01*
X41103809Y-97764285D01*
X41341904Y-97764285D01*
X41437142Y-97811904D01*
X41484761Y-97859523D01*
X41532380Y-97954761D01*
X41532380Y-98192857D01*
X41484761Y-98288095D01*
X41437142Y-98335714D01*
%TO.C,C6*%
X32057142Y-91766666D02*
X32104761Y-91814285D01*
X32152380Y-91957142D01*
X32152380Y-92052380D01*
X32104761Y-92195238D01*
X32009523Y-92290476D01*
X31914285Y-92338095D01*
X31723809Y-92385714D01*
X31580952Y-92385714D01*
X31390476Y-92338095D01*
X31295238Y-92290476D01*
X31200000Y-92195238D01*
X31152380Y-92052380D01*
X31152380Y-91957142D01*
X31200000Y-91814285D01*
X31247619Y-91766666D01*
X31152380Y-90909523D02*
X31152380Y-91100000D01*
X31200000Y-91195238D01*
X31247619Y-91242857D01*
X31390476Y-91338095D01*
X31580952Y-91385714D01*
X31961904Y-91385714D01*
X32057142Y-91338095D01*
X32104761Y-91290476D01*
X32152380Y-91195238D01*
X32152380Y-91004761D01*
X32104761Y-90909523D01*
X32057142Y-90861904D01*
X31961904Y-90814285D01*
X31723809Y-90814285D01*
X31628571Y-90861904D01*
X31580952Y-90909523D01*
X31533333Y-91004761D01*
X31533333Y-91195238D01*
X31580952Y-91290476D01*
X31628571Y-91338095D01*
X31723809Y-91385714D01*
D12*
%TO.C,Q2*%
X36973809Y-84838095D02*
X36897619Y-84800000D01*
X36821428Y-84723809D01*
X36707142Y-84609523D01*
X36630952Y-84571428D01*
X36554761Y-84571428D01*
X36592857Y-84761904D02*
X36516666Y-84723809D01*
X36440476Y-84647619D01*
X36402380Y-84495238D01*
X36402380Y-84228571D01*
X36440476Y-84076190D01*
X36516666Y-84000000D01*
X36592857Y-83961904D01*
X36745238Y-83961904D01*
X36821428Y-84000000D01*
X36897619Y-84076190D01*
X36935714Y-84228571D01*
X36935714Y-84495238D01*
X36897619Y-84647619D01*
X36821428Y-84723809D01*
X36745238Y-84761904D01*
X36592857Y-84761904D01*
X37240476Y-84038095D02*
X37278571Y-84000000D01*
X37354761Y-83961904D01*
X37545238Y-83961904D01*
X37621428Y-84000000D01*
X37659523Y-84038095D01*
X37697619Y-84114285D01*
X37697619Y-84190476D01*
X37659523Y-84304761D01*
X37202380Y-84761904D01*
X37697619Y-84761904D01*
%TO.C,Q3*%
X42923809Y-84938095D02*
X42847619Y-84900000D01*
X42771428Y-84823809D01*
X42657142Y-84709523D01*
X42580952Y-84671428D01*
X42504761Y-84671428D01*
X42542857Y-84861904D02*
X42466666Y-84823809D01*
X42390476Y-84747619D01*
X42352380Y-84595238D01*
X42352380Y-84328571D01*
X42390476Y-84176190D01*
X42466666Y-84100000D01*
X42542857Y-84061904D01*
X42695238Y-84061904D01*
X42771428Y-84100000D01*
X42847619Y-84176190D01*
X42885714Y-84328571D01*
X42885714Y-84595238D01*
X42847619Y-84747619D01*
X42771428Y-84823809D01*
X42695238Y-84861904D01*
X42542857Y-84861904D01*
X43152380Y-84061904D02*
X43647619Y-84061904D01*
X43380952Y-84366666D01*
X43495238Y-84366666D01*
X43571428Y-84404761D01*
X43609523Y-84442857D01*
X43647619Y-84519047D01*
X43647619Y-84709523D01*
X43609523Y-84785714D01*
X43571428Y-84823809D01*
X43495238Y-84861904D01*
X43266666Y-84861904D01*
X43190476Y-84823809D01*
X43152380Y-84785714D01*
D13*
%TO.C,U3*%
X33552380Y-95861904D02*
X34361904Y-95861904D01*
X34457142Y-95814285D01*
X34504761Y-95766666D01*
X34552380Y-95671428D01*
X34552380Y-95480952D01*
X34504761Y-95385714D01*
X34457142Y-95338095D01*
X34361904Y-95290476D01*
X33552380Y-95290476D01*
X33552380Y-94909523D02*
X33552380Y-94290476D01*
X33933333Y-94623809D01*
X33933333Y-94480952D01*
X33980952Y-94385714D01*
X34028571Y-94338095D01*
X34123809Y-94290476D01*
X34361904Y-94290476D01*
X34457142Y-94338095D01*
X34504761Y-94385714D01*
X34552380Y-94480952D01*
X34552380Y-94766666D01*
X34504761Y-94861904D01*
X34457142Y-94909523D01*
%TO.C,C8*%
X42433333Y-70457142D02*
X42385714Y-70504761D01*
X42242857Y-70552380D01*
X42147619Y-70552380D01*
X42004761Y-70504761D01*
X41909523Y-70409523D01*
X41861904Y-70314285D01*
X41814285Y-70123809D01*
X41814285Y-69980952D01*
X41861904Y-69790476D01*
X41909523Y-69695238D01*
X42004761Y-69600000D01*
X42147619Y-69552380D01*
X42242857Y-69552380D01*
X42385714Y-69600000D01*
X42433333Y-69647619D01*
X43004761Y-69980952D02*
X42909523Y-69933333D01*
X42861904Y-69885714D01*
X42814285Y-69790476D01*
X42814285Y-69742857D01*
X42861904Y-69647619D01*
X42909523Y-69600000D01*
X43004761Y-69552380D01*
X43195238Y-69552380D01*
X43290476Y-69600000D01*
X43338095Y-69647619D01*
X43385714Y-69742857D01*
X43385714Y-69790476D01*
X43338095Y-69885714D01*
X43290476Y-69933333D01*
X43195238Y-69980952D01*
X43004761Y-69980952D01*
X42909523Y-70028571D01*
X42861904Y-70076190D01*
X42814285Y-70171428D01*
X42814285Y-70361904D01*
X42861904Y-70457142D01*
X42909523Y-70504761D01*
X43004761Y-70552380D01*
X43195238Y-70552380D01*
X43290476Y-70504761D01*
X43338095Y-70457142D01*
X43385714Y-70361904D01*
X43385714Y-70171428D01*
X43338095Y-70076190D01*
X43290476Y-70028571D01*
X43195238Y-69980952D01*
%TO.C,C9*%
X41157142Y-66766666D02*
X41204761Y-66814285D01*
X41252380Y-66957142D01*
X41252380Y-67052380D01*
X41204761Y-67195238D01*
X41109523Y-67290476D01*
X41014285Y-67338095D01*
X40823809Y-67385714D01*
X40680952Y-67385714D01*
X40490476Y-67338095D01*
X40395238Y-67290476D01*
X40300000Y-67195238D01*
X40252380Y-67052380D01*
X40252380Y-66957142D01*
X40300000Y-66814285D01*
X40347619Y-66766666D01*
X41252380Y-66290476D02*
X41252380Y-66100000D01*
X41204761Y-66004761D01*
X41157142Y-65957142D01*
X41014285Y-65861904D01*
X40823809Y-65814285D01*
X40442857Y-65814285D01*
X40347619Y-65861904D01*
X40300000Y-65909523D01*
X40252380Y-66004761D01*
X40252380Y-66195238D01*
X40300000Y-66290476D01*
X40347619Y-66338095D01*
X40442857Y-66385714D01*
X40680952Y-66385714D01*
X40776190Y-66338095D01*
X40823809Y-66290476D01*
X40871428Y-66195238D01*
X40871428Y-66004761D01*
X40823809Y-65909523D01*
X40776190Y-65861904D01*
X40680952Y-65814285D01*
%TO.C,D19*%
X38352380Y-99914285D02*
X37352380Y-99914285D01*
X37352380Y-99676190D01*
X37400000Y-99533333D01*
X37495238Y-99438095D01*
X37590476Y-99390476D01*
X37780952Y-99342857D01*
X37923809Y-99342857D01*
X38114285Y-99390476D01*
X38209523Y-99438095D01*
X38304761Y-99533333D01*
X38352380Y-99676190D01*
X38352380Y-99914285D01*
X38352380Y-98390476D02*
X38352380Y-98961904D01*
X38352380Y-98676190D02*
X37352380Y-98676190D01*
X37495238Y-98771428D01*
X37590476Y-98866666D01*
X37638095Y-98961904D01*
X38352380Y-97914285D02*
X38352380Y-97723809D01*
X38304761Y-97628571D01*
X38257142Y-97580952D01*
X38114285Y-97485714D01*
X37923809Y-97438095D01*
X37542857Y-97438095D01*
X37447619Y-97485714D01*
X37400000Y-97533333D01*
X37352380Y-97628571D01*
X37352380Y-97819047D01*
X37400000Y-97914285D01*
X37447619Y-97961904D01*
X37542857Y-98009523D01*
X37780952Y-98009523D01*
X37876190Y-97961904D01*
X37923809Y-97914285D01*
X37971428Y-97819047D01*
X37971428Y-97628571D01*
X37923809Y-97533333D01*
X37876190Y-97485714D01*
X37780952Y-97438095D01*
D12*
%TO.C,R10*%
X34611904Y-84614285D02*
X34230952Y-84880952D01*
X34611904Y-85071428D02*
X33811904Y-85071428D01*
X33811904Y-84766666D01*
X33850000Y-84690476D01*
X33888095Y-84652380D01*
X33964285Y-84614285D01*
X34078571Y-84614285D01*
X34154761Y-84652380D01*
X34192857Y-84690476D01*
X34230952Y-84766666D01*
X34230952Y-85071428D01*
X34611904Y-83852380D02*
X34611904Y-84309523D01*
X34611904Y-84080952D02*
X33811904Y-84080952D01*
X33926190Y-84157142D01*
X34002380Y-84233333D01*
X34040476Y-84309523D01*
X33811904Y-83357142D02*
X33811904Y-83280952D01*
X33850000Y-83204761D01*
X33888095Y-83166666D01*
X33964285Y-83128571D01*
X34116666Y-83090476D01*
X34307142Y-83090476D01*
X34459523Y-83128571D01*
X34535714Y-83166666D01*
X34573809Y-83204761D01*
X34611904Y-83280952D01*
X34611904Y-83357142D01*
X34573809Y-83433333D01*
X34535714Y-83471428D01*
X34459523Y-83509523D01*
X34307142Y-83547619D01*
X34116666Y-83547619D01*
X33964285Y-83509523D01*
X33888095Y-83471428D01*
X33850000Y-83433333D01*
X33811904Y-83357142D01*
%TO.C,R13*%
X46161904Y-84614285D02*
X45780952Y-84880952D01*
X46161904Y-85071428D02*
X45361904Y-85071428D01*
X45361904Y-84766666D01*
X45400000Y-84690476D01*
X45438095Y-84652380D01*
X45514285Y-84614285D01*
X45628571Y-84614285D01*
X45704761Y-84652380D01*
X45742857Y-84690476D01*
X45780952Y-84766666D01*
X45780952Y-85071428D01*
X46161904Y-83852380D02*
X46161904Y-84309523D01*
X46161904Y-84080952D02*
X45361904Y-84080952D01*
X45476190Y-84157142D01*
X45552380Y-84233333D01*
X45590476Y-84309523D01*
X45361904Y-83585714D02*
X45361904Y-83090476D01*
X45666666Y-83357142D01*
X45666666Y-83242857D01*
X45704761Y-83166666D01*
X45742857Y-83128571D01*
X45819047Y-83090476D01*
X46009523Y-83090476D01*
X46085714Y-83128571D01*
X46123809Y-83166666D01*
X46161904Y-83242857D01*
X46161904Y-83471428D01*
X46123809Y-83547619D01*
X46085714Y-83585714D01*
D13*
%TO.C,D1*%
X43052380Y-80238095D02*
X42052380Y-80238095D01*
X42052380Y-80000000D01*
X42100000Y-79857142D01*
X42195238Y-79761904D01*
X42290476Y-79714285D01*
X42480952Y-79666666D01*
X42623809Y-79666666D01*
X42814285Y-79714285D01*
X42909523Y-79761904D01*
X43004761Y-79857142D01*
X43052380Y-80000000D01*
X43052380Y-80238095D01*
X43052380Y-78714285D02*
X43052380Y-79285714D01*
X43052380Y-79000000D02*
X42052380Y-79000000D01*
X42195238Y-79095238D01*
X42290476Y-79190476D01*
X42338095Y-79285714D01*
%TO.C,U1*%
X39438095Y-46052380D02*
X39438095Y-46861904D01*
X39485714Y-46957142D01*
X39533333Y-47004761D01*
X39628571Y-47052380D01*
X39819047Y-47052380D01*
X39914285Y-47004761D01*
X39961904Y-46957142D01*
X40009523Y-46861904D01*
X40009523Y-46052380D01*
X41009523Y-47052380D02*
X40438095Y-47052380D01*
X40723809Y-47052380D02*
X40723809Y-46052380D01*
X40628571Y-46195238D01*
X40533333Y-46290476D01*
X40438095Y-46338095D01*
%TO.C,C1*%
X32533333Y-72357142D02*
X32485714Y-72404761D01*
X32342857Y-72452380D01*
X32247619Y-72452380D01*
X32104761Y-72404761D01*
X32009523Y-72309523D01*
X31961904Y-72214285D01*
X31914285Y-72023809D01*
X31914285Y-71880952D01*
X31961904Y-71690476D01*
X32009523Y-71595238D01*
X32104761Y-71500000D01*
X32247619Y-71452380D01*
X32342857Y-71452380D01*
X32485714Y-71500000D01*
X32533333Y-71547619D01*
X33485714Y-72452380D02*
X32914285Y-72452380D01*
X33200000Y-72452380D02*
X33200000Y-71452380D01*
X33104761Y-71595238D01*
X33009523Y-71690476D01*
X32914285Y-71738095D01*
D12*
%TO.C,RN1*%
X39497619Y-85811904D02*
X39230952Y-85430952D01*
X39040476Y-85811904D02*
X39040476Y-85011904D01*
X39345238Y-85011904D01*
X39421428Y-85050000D01*
X39459523Y-85088095D01*
X39497619Y-85164285D01*
X39497619Y-85278571D01*
X39459523Y-85354761D01*
X39421428Y-85392857D01*
X39345238Y-85430952D01*
X39040476Y-85430952D01*
X39840476Y-85811904D02*
X39840476Y-85011904D01*
X40297619Y-85811904D01*
X40297619Y-85011904D01*
X41097619Y-85811904D02*
X40640476Y-85811904D01*
X40869047Y-85811904D02*
X40869047Y-85011904D01*
X40792857Y-85126190D01*
X40716666Y-85202380D01*
X40640476Y-85240476D01*
%TO.C,RN2*%
X39547619Y-62461904D02*
X39280952Y-62080952D01*
X39090476Y-62461904D02*
X39090476Y-61661904D01*
X39395238Y-61661904D01*
X39471428Y-61700000D01*
X39509523Y-61738095D01*
X39547619Y-61814285D01*
X39547619Y-61928571D01*
X39509523Y-62004761D01*
X39471428Y-62042857D01*
X39395238Y-62080952D01*
X39090476Y-62080952D01*
X39890476Y-62461904D02*
X39890476Y-61661904D01*
X40347619Y-62461904D01*
X40347619Y-61661904D01*
X40690476Y-61738095D02*
X40728571Y-61700000D01*
X40804761Y-61661904D01*
X40995238Y-61661904D01*
X41071428Y-61700000D01*
X41109523Y-61738095D01*
X41147619Y-61814285D01*
X41147619Y-61890476D01*
X41109523Y-62004761D01*
X40652380Y-62461904D01*
X41147619Y-62461904D01*
%TO.C,U2*%
X31700000Y-67860000D02*
X30390000Y-67860000D01*
X30390000Y-65140000D02*
X30620000Y-65140000D01*
X34880000Y-64000000D02*
X34880000Y-65140000D01*
X35110000Y-65140000D02*
X34880000Y-65140000D01*
X35110000Y-65140000D02*
X35110000Y-67860000D01*
X30390000Y-67860000D02*
X30390000Y-65140000D01*
X35110000Y-67860000D02*
X33800000Y-67860000D01*
D11*
%TO.C,J1*%
X44500000Y-102000000D02*
X43200000Y-102000000D01*
X44500000Y-105000000D02*
X35500000Y-105000000D01*
X44500000Y-102000000D02*
X44500000Y-102400000D01*
X35500000Y-104550000D02*
X35500000Y-105000000D01*
X44500000Y-105000000D02*
X44500000Y-104600000D01*
X35500000Y-102000000D02*
X35500000Y-102450000D01*
X35500000Y-102000000D02*
X36800000Y-102000000D01*
D12*
X43020156Y-104250000D02*
G75*
G03*
X43020156Y-104250000I-320156J0D01*
G01*
%TO.C,R3*%
X42277500Y-98562742D02*
X42277500Y-99037258D01*
X43322500Y-98562742D02*
X43322500Y-99037258D01*
%TO.C,J2*%
X46040000Y-67885000D02*
X45090000Y-67885000D01*
X46040000Y-60915000D02*
X45090000Y-60915000D01*
X49010000Y-67515000D02*
X49010000Y-61285000D01*
X45090000Y-67885000D02*
X45090000Y-66935000D01*
X45090000Y-66935000D02*
X44400000Y-66935000D01*
X45090000Y-60915000D02*
X45090000Y-61865000D01*
%TO.C,R8*%
X39977500Y-76762742D02*
X39977500Y-77237258D01*
X41022500Y-76762742D02*
X41022500Y-77237258D01*
%TO.C,R9*%
X38177500Y-76762742D02*
X38177500Y-77237258D01*
X39222500Y-76762742D02*
X39222500Y-77237258D01*
%TO.C,J3*%
X45090000Y-76485000D02*
X44400000Y-76485000D01*
X49010000Y-77065000D02*
X49010000Y-73335000D01*
X46040000Y-77435000D02*
X45090000Y-77435000D01*
X45090000Y-77435000D02*
X45090000Y-76485000D01*
X46040000Y-72965000D02*
X45090000Y-72965000D01*
X45090000Y-72965000D02*
X45090000Y-73915000D01*
%TO.C,Q1*%
X41160000Y-73300000D02*
X41160000Y-71625000D01*
X38040000Y-73300000D02*
X38040000Y-72650000D01*
X41160000Y-73300000D02*
X41160000Y-73950000D01*
X38040000Y-73300000D02*
X38040000Y-73950000D01*
%TO.C,R5*%
X41777500Y-60162742D02*
X41777500Y-60637258D01*
X42822500Y-60162742D02*
X42822500Y-60637258D01*
%TO.C,C3*%
X33411252Y-60690000D02*
X31988748Y-60690000D01*
X33411252Y-62510000D02*
X31988748Y-62510000D01*
%TO.C,C4*%
X47610000Y-92311252D02*
X47610000Y-90888748D01*
X45790000Y-92311252D02*
X45790000Y-90888748D01*
%TO.C,SW1*%
X33385000Y-82505000D02*
X33385000Y-83200000D01*
X32015000Y-83895000D02*
X31140000Y-83895000D01*
X31140000Y-82505000D02*
X31140000Y-82805507D01*
X32015000Y-83808276D02*
X32015000Y-83895000D01*
X32015000Y-82505000D02*
X32015000Y-82591724D01*
X31140000Y-83594493D02*
X31140000Y-83895000D01*
X32015000Y-82505000D02*
X31140000Y-82505000D01*
X32700000Y-82505000D02*
X33385000Y-82505000D01*
%TO.C,SW2*%
X47615000Y-83808276D02*
X47615000Y-83895000D01*
X46740000Y-82505000D02*
X46740000Y-82805507D01*
X46740000Y-83594493D02*
X46740000Y-83895000D01*
X47615000Y-83895000D02*
X46740000Y-83895000D01*
X47615000Y-82505000D02*
X46740000Y-82505000D01*
X48985000Y-82505000D02*
X48985000Y-83200000D01*
X47615000Y-82505000D02*
X47615000Y-82591724D01*
X48300000Y-82505000D02*
X48985000Y-82505000D01*
%TO.C,C2*%
X38210000Y-60259420D02*
X38210000Y-60540580D01*
X37190000Y-60259420D02*
X37190000Y-60540580D01*
%TO.C,C7*%
X32461252Y-60135000D02*
X31938748Y-60135000D01*
X32461252Y-58665000D02*
X31938748Y-58665000D01*
%TO.C,C5*%
X38665000Y-98288748D02*
X38665000Y-98811252D01*
X40135000Y-98288748D02*
X40135000Y-98811252D01*
%TO.C,C6*%
X32540000Y-90888748D02*
X32540000Y-92311252D01*
X34360000Y-90888748D02*
X34360000Y-92311252D01*
%TO.C,Q2*%
X37000000Y-85340000D02*
X37650000Y-85340000D01*
X37000000Y-88460000D02*
X36350000Y-88460000D01*
X37000000Y-88460000D02*
X38675000Y-88460000D01*
X37000000Y-85340000D02*
X36350000Y-85340000D01*
%TO.C,Q3*%
X43000000Y-85340000D02*
X43650000Y-85340000D01*
X43000000Y-88460000D02*
X43650000Y-88460000D01*
X43000000Y-88460000D02*
X42350000Y-88460000D01*
X43000000Y-85340000D02*
X41325000Y-85340000D01*
%TO.C,U3*%
X34940000Y-93000000D02*
X34940000Y-91050000D01*
X34940000Y-93000000D02*
X34940000Y-96450000D01*
X45060000Y-93000000D02*
X45060000Y-91050000D01*
X45060000Y-93000000D02*
X45060000Y-94950000D01*
%TO.C,C8*%
X41690000Y-73611252D02*
X41690000Y-72188748D01*
X43510000Y-73611252D02*
X43510000Y-72188748D01*
%TO.C,C9*%
X43410000Y-65888748D02*
X43410000Y-67311252D01*
X41590000Y-65888748D02*
X41590000Y-67311252D01*
%TO.C,D19*%
X36900000Y-97200000D02*
X35200000Y-97200000D01*
X36900000Y-97200000D02*
X36900000Y-99750000D01*
X35200000Y-97200000D02*
X35200000Y-99750000D01*
%TO.C,R10*%
X34772500Y-86612742D02*
X34772500Y-87087258D01*
X33727500Y-86612742D02*
X33727500Y-87087258D01*
%TO.C,R13*%
X45277500Y-86612742D02*
X45277500Y-87087258D01*
X46322500Y-86612742D02*
X46322500Y-87087258D01*
%TO.C,D1*%
X41750000Y-75500000D02*
X41750000Y-78050000D01*
X43450000Y-75500000D02*
X41750000Y-75500000D01*
X43450000Y-75500000D02*
X43450000Y-78050000D01*
D14*
%TO.C,U1*%
X47986000Y-56621000D02*
X47986000Y-55859000D01*
X31984000Y-55859000D02*
X31984000Y-56621000D01*
X31984000Y-56621000D02*
X47986000Y-56621000D01*
D12*
%TO.C,C1*%
X31988748Y-69190000D02*
X33411252Y-69190000D01*
X31988748Y-71010000D02*
X33411252Y-71010000D01*
%TO.C,RN1*%
X40250000Y-86120000D02*
X39750000Y-86120000D01*
X40250000Y-87680000D02*
X39750000Y-87680000D01*
%TO.C,RN2*%
X41180000Y-60650000D02*
X41180000Y-60150000D01*
X38820000Y-60650000D02*
X38820000Y-60150000D01*
%TO.C,J4*%
X32620000Y-80145898D02*
X32620000Y-80254102D01*
X32620000Y-76145898D02*
X32620000Y-76254102D01*
X31000000Y-81510000D02*
X32620000Y-81510000D01*
X32100000Y-72890000D02*
X32785000Y-72890000D01*
X32620000Y-75145898D02*
X32620000Y-75254102D01*
X31000000Y-74200000D02*
X31000000Y-81510000D01*
X32785000Y-72890000D02*
X32785000Y-73700000D01*
X32620000Y-81145898D02*
X32620000Y-81510000D01*
X32620000Y-77145898D02*
X32620000Y-77254102D01*
X32620000Y-79145898D02*
X32620000Y-79254102D01*
X31000000Y-74200000D02*
X31415000Y-74200000D01*
X32620000Y-78145898D02*
X32620000Y-78254102D01*
%TD*%
M02*
