M48
; DRILL file {KiCad 6.0.2} date Fri 25 Mar 2022 15:37:44 CET
; FORMAT={-:-/ absolute / inch / decimal}
; #@! TF.CreationDate,2022-03-25T15:37:44+01:00
; #@! TF.GenerationSoftware,Kicad,Pcbnew,6.0.2
; #@! TF.FileFunction,Plated,1,2,PTH
FMAT,2
INCH
; #@! TA.AperFunction,Plated,PTH,ViaDrill
T1C0.0157
; #@! TA.AperFunction,Plated,PTH,ComponentDrill
T2C0.0197
; #@! TA.AperFunction,Plated,PTH,ComponentDrill
T3C0.0236
%
G90
G05
T1
X1.2008Y-3.748
X1.252Y-3.4173
X1.2559Y-3.2244
X1.2598Y-2.2677
X1.2717Y-2.4803
X1.2874Y-2.7559
X1.3543Y-1.8504
X1.3543Y-3.6102
X1.3622Y-3.0551
X1.3661Y-3.7126
X1.3898Y-1.9291
X1.4193Y-3.9685
X1.4291Y-3.6299
X1.4409Y-1.9213
X1.4409Y-2.0945
X1.4409Y-3.378
X1.4409Y-3.4567
X1.4449Y-2.3189
X1.4479Y-2.5433
X1.4488Y-1.689
X1.4488Y-2.437
X1.4685Y-3.8504
X1.4701Y-2.5134
X1.4803Y-3.1024
X1.5345Y-2.1102
X1.5551Y-3.2559
X1.5591Y-3.0315
X1.5748Y-4.1102
X1.5827Y-2.3031
X1.5906Y-1.7087
X1.6142Y-2.9134
X1.6181Y-3.2638
X1.6299Y-2.1102
X1.6299Y-3.1181
X1.6732Y-1.689
X1.6811Y-1.811
X1.6811Y-3.622
X1.6929Y-3.8189
X1.7047Y-3.3898
X1.7215Y-2.5108
X1.7283Y-3.4685
X1.7283Y-3.6969
X1.7323Y-2.374
X1.7402Y-2.4173
X1.748Y-1.6929
X1.748Y-2.8661
X1.7638Y-2.126
X1.7746Y-3.6437
X1.7756Y-1.8504
X1.7756Y-3.937
X1.7815Y-3.8248
X1.7913Y-3.2205
X1.8031Y-1.7717
X1.8701Y-3.7717
X1.878Y-2.2677
X1.878Y-3.1969
X1.9213Y-3.4213
X1.9409Y-3.7717
T2
X1.248Y-3.2756
X1.2638Y-2.9016
X1.2638Y-2.9409
X1.2638Y-2.9803
X1.2638Y-3.0197
X1.2638Y-3.0591
X1.2638Y-3.0984
X1.2638Y-3.1378
X1.2638Y-3.1772
X1.2874Y-3.2756
X1.8622Y-3.2756
X1.9016Y-3.2756
T3
G00X1.4047Y-4.0551
M15
G01X1.4047Y-4.0945
M16
G05
G00X1.7449Y-4.0551
M15
G01X1.7449Y-4.0945
M16
G05
T0
M30
