M48
; DRILL file {KiCad 6.0.2} date Thu 05 May 2022 15:52:28 CEST
; FORMAT={-:-/ absolute / inch / decimal}
; #@! TF.CreationDate,2022-05-05T15:52:28+02:00
; #@! TF.GenerationSoftware,Kicad,Pcbnew,6.0.2
; #@! TF.FileFunction,MixedPlating,1,2
FMAT,2
INCH
; #@! TA.AperFunction,Plated,PTH,ViaDrill
T1C0.0157
; #@! TA.AperFunction,Plated,PTH,ComponentDrill
T2C0.0197
; #@! TA.AperFunction,Plated,PTH,ComponentDrill
T3C0.0236
; #@! TA.AperFunction,Plated,PTH,ComponentDrill
T4C0.0276
; #@! TA.AperFunction,NonPlated,NPTH,ComponentDrill
T5C0.0827
%
G90
G05
T1
X1.2441Y-1.7087
X1.2441Y-2.1417
X1.2441Y-2.5079
X1.2894Y-2.9567
X1.3445Y-3.7185
X1.3543Y-3.6811
X1.3563Y-3.4626
X1.374Y-2.1417
X1.374Y-2.5079
X1.3898Y-3.3819
X1.3898Y-3.6024
X1.4291Y-2.2854
X1.4291Y-2.6732
X1.439Y-3.4646
X1.4469Y-3.6752
X1.4685Y-3.7185
X1.4862Y-2.9567
X1.4961Y-2.1417
X1.4961Y-2.5079
X1.5079Y-1.7087
X1.5098Y-3.8228
X1.5177Y-3.5531
X1.5413Y-3.8602
X1.5472Y-3.3287
X1.5846Y-2.5079
X1.628Y-1.7087
X1.6437Y-3.7618
X1.6791Y-3.7185
X1.685Y-3.4646
X1.689Y-3.6791
X1.7146Y-2.1417
X1.7146Y-2.5079
X1.7165Y-2.9567
X1.7165Y-3.8622
X1.7244Y-3.3819
X1.7244Y-3.6043
X1.7815Y-3.6752
X1.7894Y-3.4665
X1.8038Y-3.7179
X1.8543Y-3.3386
X1.8543Y-3.5531
X1.8642Y-1.7087
X1.8642Y-2.1417
X1.8642Y-2.5079
X1.8681Y-2.9567
T2
X1.248Y-3.2756
X1.2874Y-3.2756
X1.8622Y-3.2756
X1.9016Y-3.2756
T4
X1.2559Y-2.5817
X1.2559Y-2.6317
X1.2559Y-2.6817
X1.2559Y-2.7317
X1.2559Y-2.7817
X1.2559Y-2.8317
X1.2559Y-2.8817
X1.9144Y-1.2293
X1.9144Y-2.9124
T5
X1.2795Y-3.9173
X1.3189Y-1.2854
X1.8701Y-3.9173
T3
G00X1.4045Y-4.0551
M15
G01X1.4045Y-4.0945
M16
G05
G00X1.7451Y-4.0551
M15
G01X1.7451Y-4.0945
M16
G05
T0
M30
