M48
; DRILL file {KiCad 6.0.2} date Thu 05 May 2022 15:49:47 CEST
; FORMAT={-:-/ absolute / inch / decimal}
; #@! TF.CreationDate,2022-05-05T15:49:47+02:00
; #@! TF.GenerationSoftware,Kicad,Pcbnew,6.0.2
; #@! TF.FileFunction,MixedPlating,1,2
FMAT,2
INCH
; #@! TA.AperFunction,Plated,PTH,ViaDrill
T1C0.0157
; #@! TA.AperFunction,Plated,PTH,ComponentDrill
T2C0.0197
; #@! TA.AperFunction,Plated,PTH,ComponentDrill
T3C0.0236
; #@! TA.AperFunction,Plated,PTH,ComponentDrill
T4C0.0276
; #@! TA.AperFunction,NonPlated,NPTH,ComponentDrill
T5C0.0827
%
G90
G05
T1
X1.2165Y-3.4665
X1.2185Y-3.7795
X1.2224Y-1.9626
X1.2224Y-2.1319
X1.2224Y-2.2874
X1.2322Y-2.5232
X1.2362Y-1.5551
X1.2539Y-3.0709
X1.2559Y-3.2244
X1.3455Y-2.6831
X1.3504Y-1.748
X1.3504Y-2.5266
X1.3622Y-1.3839
X1.3799Y-2.6024
X1.3898Y-1.9626
X1.3917Y-2.1319
X1.3917Y-2.2874
X1.4193Y-3.9685
X1.4291Y-1.2874
X1.4587Y-3.2244
X1.4606Y-3.0669
X1.4685Y-3.8504
X1.4823Y-2.7274
X1.5118Y-2.6555
X1.5128Y-2.8317
X1.5512Y-1.2874
X1.5512Y-1.9626
X1.5512Y-2.1299
X1.5512Y-2.2874
X1.5512Y-2.3386
X1.5748Y-4.1102
X1.6102Y-3.0669
X1.626Y-3.6496
X1.6496Y-2.6535
X1.6673Y-3.2244
X1.6988Y-2.1299
X1.6988Y-2.2874
X1.7008Y-1.2874
X1.7008Y-1.9626
X1.7096Y-1.373
X1.7244Y-2.8307
X1.7244Y-3.0669
X1.7362Y-2.6417
X1.7362Y-3.9685
X1.7894Y-2.8012
X1.7913Y-3.2205
X1.8268Y-2.6417
X1.8346Y-1.6437
X1.8366Y-1.2854
X1.8642Y-2.8012
X1.875Y-1.562
X1.876Y-3.0669
X1.878Y-3.2244
X1.9134Y-3.8031
X1.9213Y-3.4213
X1.9272Y-2.752
X1.9272Y-2.8012
X1.9409Y-1.9626
X1.9409Y-2.1299
X1.9409Y-2.2874
X1.9429Y-1.8386
T2
X1.248Y-3.2756
X1.2874Y-3.2756
X1.8622Y-3.2756
X1.9016Y-3.2756
T4
X1.2559Y-2.5817
X1.2559Y-2.6317
X1.2559Y-2.6817
X1.2559Y-2.7317
X1.2559Y-2.7817
X1.2559Y-2.8317
X1.2559Y-2.8817
X1.9144Y-1.2293
X1.9144Y-2.9124
T5
X1.2795Y-3.9173
X1.3189Y-1.2854
X1.8701Y-3.9173
T3
G00X1.4047Y-4.0551
M15
G01X1.4047Y-4.0945
M16
G05
G00X1.7449Y-4.0551
M15
G01X1.7449Y-4.0945
M16
G05
T0
M30
